G04 EAGLE Gerber RS-274X export*
G75*
%MOMM*%
%FSLAX34Y34*%
%LPD*%
%INSilkscreen Top*%
%IPPOS*%
%AMOC8*
5,1,8,0,0,1.08239X$1,22.5*%
G01*
%ADD10C,0.152400*%
%ADD11C,0.076200*%
%ADD12C,0.127000*%


D10*
X56000Y285500D02*
X56000Y279500D01*
X44000Y279500D02*
X44000Y285500D01*
D11*
X20858Y271948D02*
X19630Y270719D01*
X19630Y268261D01*
X20858Y267033D01*
X25773Y267033D01*
X27002Y268261D01*
X27002Y270719D01*
X25773Y271948D01*
X22087Y274517D02*
X19630Y276974D01*
X27002Y276974D01*
X27002Y274517D02*
X27002Y279432D01*
D10*
X197000Y186000D02*
X203000Y186000D01*
X203000Y174000D02*
X197000Y174000D01*
D11*
X221447Y176008D02*
X222676Y174780D01*
X221447Y176008D02*
X218990Y176008D01*
X217761Y174780D01*
X217761Y169865D01*
X218990Y168636D01*
X221447Y168636D01*
X222676Y169865D01*
X225245Y168636D02*
X230160Y168636D01*
X225245Y168636D02*
X230160Y173551D01*
X230160Y174780D01*
X228931Y176008D01*
X226474Y176008D01*
X225245Y174780D01*
D10*
X173000Y186000D02*
X167000Y186000D01*
X167000Y174000D02*
X173000Y174000D01*
D11*
X162761Y188636D02*
X162761Y196008D01*
X167676Y196008D01*
X165218Y192322D02*
X162761Y192322D01*
X170245Y188636D02*
X170245Y196008D01*
X173931Y196008D01*
X175160Y194780D01*
X175160Y193551D01*
X173931Y192322D01*
X175160Y191093D01*
X175160Y189865D01*
X173931Y188636D01*
X170245Y188636D01*
X170245Y192322D02*
X173931Y192322D01*
X177729Y193551D02*
X180187Y196008D01*
X180187Y188636D01*
X182644Y188636D02*
X177729Y188636D01*
D10*
X184000Y273500D02*
X190000Y273500D01*
X190000Y261500D02*
X184000Y261500D01*
D11*
X203492Y261261D02*
X210864Y261261D01*
X203492Y261261D02*
X203492Y264947D01*
X204720Y266176D01*
X207178Y266176D01*
X208407Y264947D01*
X208407Y261261D01*
X208407Y263718D02*
X210864Y266176D01*
X205949Y268745D02*
X203492Y271203D01*
X210864Y271203D01*
X210864Y273660D02*
X210864Y268745D01*
D10*
X190000Y296000D02*
X184000Y296000D01*
X184000Y284000D02*
X190000Y284000D01*
D11*
X203992Y285261D02*
X211364Y285261D01*
X203992Y285261D02*
X203992Y288947D01*
X205220Y290176D01*
X207678Y290176D01*
X208907Y288947D01*
X208907Y285261D01*
X208907Y287718D02*
X211364Y290176D01*
X211364Y292745D02*
X211364Y297660D01*
X211364Y292745D02*
X206449Y297660D01*
X205220Y297660D01*
X203992Y296431D01*
X203992Y293974D01*
X205220Y292745D01*
D12*
X178700Y150000D02*
X178700Y-30800D01*
X178700Y150000D02*
X21300Y150000D01*
X21300Y-30800D01*
X178700Y-30800D01*
D11*
X158296Y155381D02*
X153381Y162753D01*
X158296Y162753D02*
X153381Y155381D01*
X160865Y160296D02*
X163323Y162753D01*
X163323Y155381D01*
X165780Y155381D02*
X160865Y155381D01*
D10*
X194600Y144450D02*
X200950Y150800D01*
X194600Y131750D02*
X200950Y125400D01*
X194600Y119050D01*
X194600Y106350D02*
X200950Y100000D01*
X194600Y93650D01*
X194600Y80950D02*
X200950Y74600D01*
X194600Y68250D01*
X194600Y55550D02*
X200950Y49200D01*
X200950Y150800D02*
X239050Y150800D01*
X245400Y144450D01*
X245400Y131750D01*
X239050Y125400D01*
X245400Y119050D01*
X245400Y106350D01*
X239050Y100000D01*
X245400Y93650D01*
X245400Y80950D01*
X239050Y74600D01*
X245400Y68250D01*
X245400Y55550D01*
X239050Y49200D01*
X200950Y49200D01*
X194600Y55550D02*
X194600Y68250D01*
X194600Y80950D02*
X194600Y93650D01*
X194600Y106350D02*
X194600Y119050D01*
X194600Y131750D02*
X194600Y144450D01*
D11*
X207496Y155131D02*
X202581Y162503D01*
X207496Y162503D02*
X202581Y155131D01*
X210065Y155131D02*
X214980Y155131D01*
X210065Y155131D02*
X214980Y160046D01*
X214980Y161275D01*
X213751Y162503D01*
X211294Y162503D01*
X210065Y161275D01*
D12*
X70000Y260000D02*
X70000Y300000D01*
X70000Y260000D02*
X110000Y260000D01*
X110000Y280000D01*
X110000Y300000D01*
X90000Y300000D01*
X70000Y300000D01*
X110000Y280000D02*
X113500Y280000D01*
X113500Y303500D01*
X90000Y303500D01*
X90000Y300000D01*
D11*
X116381Y299110D02*
X116381Y305253D01*
X116381Y299110D02*
X117610Y297881D01*
X120067Y297881D01*
X121296Y299110D01*
X121296Y305253D01*
X123865Y302796D02*
X126323Y305253D01*
X126323Y297881D01*
X128780Y297881D02*
X123865Y297881D01*
M02*
