G04 EAGLE Gerber RS-274X export*
G75*
%MOMM*%
%FSLAX34Y34*%
%LPD*%
%IN*%
%IPPOS*%
%AMOC8*
5,1,8,0,0,1.08239X$1,22.5*%
G01*
%ADD10C,0.254000*%


D10*
X0Y0D02*
X1000000Y0D01*
X1000000Y800000D01*
X0Y800000D01*
X0Y0D01*
X46510Y29460D02*
X46439Y28381D01*
X46298Y27309D01*
X46087Y26249D01*
X45808Y25205D01*
X45460Y24181D01*
X45046Y23183D01*
X44568Y22213D01*
X44028Y21277D01*
X43427Y20378D01*
X42769Y19521D01*
X42057Y18708D01*
X41292Y17944D01*
X40479Y17231D01*
X39622Y16573D01*
X38723Y15972D01*
X37787Y15432D01*
X36817Y14954D01*
X35819Y14540D01*
X34795Y14192D01*
X33751Y13913D01*
X32691Y13702D01*
X31619Y13561D01*
X30540Y13490D01*
X29460Y13490D01*
X28381Y13561D01*
X27309Y13702D01*
X26249Y13913D01*
X25205Y14192D01*
X24181Y14540D01*
X23183Y14954D01*
X22213Y15432D01*
X21277Y15972D01*
X20378Y16573D01*
X19521Y17231D01*
X18708Y17944D01*
X17944Y18708D01*
X17231Y19521D01*
X16573Y20378D01*
X15972Y21277D01*
X15432Y22213D01*
X14954Y23183D01*
X14540Y24181D01*
X14192Y25205D01*
X13913Y26249D01*
X13702Y27309D01*
X13561Y28381D01*
X13490Y29460D01*
X13490Y30540D01*
X13561Y31619D01*
X13702Y32691D01*
X13913Y33751D01*
X14192Y34795D01*
X14540Y35819D01*
X14954Y36817D01*
X15432Y37787D01*
X15972Y38723D01*
X16573Y39622D01*
X17231Y40479D01*
X17944Y41292D01*
X18708Y42057D01*
X19521Y42769D01*
X20378Y43427D01*
X21277Y44028D01*
X22213Y44568D01*
X23183Y45046D01*
X24181Y45460D01*
X25205Y45808D01*
X26249Y46087D01*
X27309Y46298D01*
X28381Y46439D01*
X29460Y46510D01*
X30540Y46510D01*
X31619Y46439D01*
X32691Y46298D01*
X33751Y46087D01*
X34795Y45808D01*
X35819Y45460D01*
X36817Y45046D01*
X37787Y44568D01*
X38723Y44028D01*
X39622Y43427D01*
X40479Y42769D01*
X41292Y42057D01*
X42057Y41292D01*
X42769Y40479D01*
X43427Y39622D01*
X44028Y38723D01*
X44568Y37787D01*
X45046Y36817D01*
X45460Y35819D01*
X45808Y34795D01*
X46087Y33751D01*
X46298Y32691D01*
X46439Y31619D01*
X46510Y30540D01*
X46510Y29460D01*
X986510Y29460D02*
X986439Y28381D01*
X986298Y27309D01*
X986087Y26249D01*
X985808Y25205D01*
X985460Y24181D01*
X985046Y23183D01*
X984568Y22213D01*
X984028Y21277D01*
X983427Y20378D01*
X982769Y19521D01*
X982057Y18708D01*
X981292Y17944D01*
X980479Y17231D01*
X979622Y16573D01*
X978723Y15972D01*
X977787Y15432D01*
X976817Y14954D01*
X975819Y14540D01*
X974795Y14192D01*
X973751Y13913D01*
X972691Y13702D01*
X971619Y13561D01*
X970540Y13490D01*
X969460Y13490D01*
X968381Y13561D01*
X967309Y13702D01*
X966249Y13913D01*
X965205Y14192D01*
X964181Y14540D01*
X963183Y14954D01*
X962213Y15432D01*
X961277Y15972D01*
X960378Y16573D01*
X959521Y17231D01*
X958708Y17944D01*
X957944Y18708D01*
X957231Y19521D01*
X956573Y20378D01*
X955972Y21277D01*
X955432Y22213D01*
X954954Y23183D01*
X954540Y24181D01*
X954192Y25205D01*
X953913Y26249D01*
X953702Y27309D01*
X953561Y28381D01*
X953490Y29460D01*
X953490Y30540D01*
X953561Y31619D01*
X953702Y32691D01*
X953913Y33751D01*
X954192Y34795D01*
X954540Y35819D01*
X954954Y36817D01*
X955432Y37787D01*
X955972Y38723D01*
X956573Y39622D01*
X957231Y40479D01*
X957944Y41292D01*
X958708Y42057D01*
X959521Y42769D01*
X960378Y43427D01*
X961277Y44028D01*
X962213Y44568D01*
X963183Y45046D01*
X964181Y45460D01*
X965205Y45808D01*
X966249Y46087D01*
X967309Y46298D01*
X968381Y46439D01*
X969460Y46510D01*
X970540Y46510D01*
X971619Y46439D01*
X972691Y46298D01*
X973751Y46087D01*
X974795Y45808D01*
X975819Y45460D01*
X976817Y45046D01*
X977787Y44568D01*
X978723Y44028D01*
X979622Y43427D01*
X980479Y42769D01*
X981292Y42057D01*
X982057Y41292D01*
X982769Y40479D01*
X983427Y39622D01*
X984028Y38723D01*
X984568Y37787D01*
X985046Y36817D01*
X985460Y35819D01*
X985808Y34795D01*
X986087Y33751D01*
X986298Y32691D01*
X986439Y31619D01*
X986510Y30540D01*
X986510Y29460D01*
X46510Y769460D02*
X46439Y768381D01*
X46298Y767309D01*
X46087Y766249D01*
X45808Y765205D01*
X45460Y764181D01*
X45046Y763183D01*
X44568Y762213D01*
X44028Y761277D01*
X43427Y760378D01*
X42769Y759521D01*
X42057Y758708D01*
X41292Y757944D01*
X40479Y757231D01*
X39622Y756573D01*
X38723Y755972D01*
X37787Y755432D01*
X36817Y754954D01*
X35819Y754540D01*
X34795Y754192D01*
X33751Y753913D01*
X32691Y753702D01*
X31619Y753561D01*
X30540Y753490D01*
X29460Y753490D01*
X28381Y753561D01*
X27309Y753702D01*
X26249Y753913D01*
X25205Y754192D01*
X24181Y754540D01*
X23183Y754954D01*
X22213Y755432D01*
X21277Y755972D01*
X20378Y756573D01*
X19521Y757231D01*
X18708Y757944D01*
X17944Y758708D01*
X17231Y759521D01*
X16573Y760378D01*
X15972Y761277D01*
X15432Y762213D01*
X14954Y763183D01*
X14540Y764181D01*
X14192Y765205D01*
X13913Y766249D01*
X13702Y767309D01*
X13561Y768381D01*
X13490Y769460D01*
X13490Y770540D01*
X13561Y771619D01*
X13702Y772691D01*
X13913Y773751D01*
X14192Y774795D01*
X14540Y775819D01*
X14954Y776817D01*
X15432Y777787D01*
X15972Y778723D01*
X16573Y779622D01*
X17231Y780479D01*
X17944Y781292D01*
X18708Y782057D01*
X19521Y782769D01*
X20378Y783427D01*
X21277Y784028D01*
X22213Y784568D01*
X23183Y785046D01*
X24181Y785460D01*
X25205Y785808D01*
X26249Y786087D01*
X27309Y786298D01*
X28381Y786439D01*
X29460Y786510D01*
X30540Y786510D01*
X31619Y786439D01*
X32691Y786298D01*
X33751Y786087D01*
X34795Y785808D01*
X35819Y785460D01*
X36817Y785046D01*
X37787Y784568D01*
X38723Y784028D01*
X39622Y783427D01*
X40479Y782769D01*
X41292Y782057D01*
X42057Y781292D01*
X42769Y780479D01*
X43427Y779622D01*
X44028Y778723D01*
X44568Y777787D01*
X45046Y776817D01*
X45460Y775819D01*
X45808Y774795D01*
X46087Y773751D01*
X46298Y772691D01*
X46439Y771619D01*
X46510Y770540D01*
X46510Y769460D01*
X986510Y769460D02*
X986439Y768381D01*
X986298Y767309D01*
X986087Y766249D01*
X985808Y765205D01*
X985460Y764181D01*
X985046Y763183D01*
X984568Y762213D01*
X984028Y761277D01*
X983427Y760378D01*
X982769Y759521D01*
X982057Y758708D01*
X981292Y757944D01*
X980479Y757231D01*
X979622Y756573D01*
X978723Y755972D01*
X977787Y755432D01*
X976817Y754954D01*
X975819Y754540D01*
X974795Y754192D01*
X973751Y753913D01*
X972691Y753702D01*
X971619Y753561D01*
X970540Y753490D01*
X969460Y753490D01*
X968381Y753561D01*
X967309Y753702D01*
X966249Y753913D01*
X965205Y754192D01*
X964181Y754540D01*
X963183Y754954D01*
X962213Y755432D01*
X961277Y755972D01*
X960378Y756573D01*
X959521Y757231D01*
X958708Y757944D01*
X957944Y758708D01*
X957231Y759521D01*
X956573Y760378D01*
X955972Y761277D01*
X955432Y762213D01*
X954954Y763183D01*
X954540Y764181D01*
X954192Y765205D01*
X953913Y766249D01*
X953702Y767309D01*
X953561Y768381D01*
X953490Y769460D01*
X953490Y770540D01*
X953561Y771619D01*
X953702Y772691D01*
X953913Y773751D01*
X954192Y774795D01*
X954540Y775819D01*
X954954Y776817D01*
X955432Y777787D01*
X955972Y778723D01*
X956573Y779622D01*
X957231Y780479D01*
X957944Y781292D01*
X958708Y782057D01*
X959521Y782769D01*
X960378Y783427D01*
X961277Y784028D01*
X962213Y784568D01*
X963183Y785046D01*
X964181Y785460D01*
X965205Y785808D01*
X966249Y786087D01*
X967309Y786298D01*
X968381Y786439D01*
X969460Y786510D01*
X970540Y786510D01*
X971619Y786439D01*
X972691Y786298D01*
X973751Y786087D01*
X974795Y785808D01*
X975819Y785460D01*
X976817Y785046D01*
X977787Y784568D01*
X978723Y784028D01*
X979622Y783427D01*
X980479Y782769D01*
X981292Y782057D01*
X982057Y781292D01*
X982769Y780479D01*
X983427Y779622D01*
X984028Y778723D01*
X984568Y777787D01*
X985046Y776817D01*
X985460Y775819D01*
X985808Y774795D01*
X986087Y773751D01*
X986298Y772691D01*
X986439Y771619D01*
X986510Y770540D01*
X986510Y769460D01*
X147500Y425824D02*
X147569Y426869D01*
X147705Y427908D01*
X147910Y428935D01*
X148181Y429947D01*
X148517Y430939D01*
X148918Y431907D01*
X149382Y432846D01*
X149906Y433754D01*
X150488Y434625D01*
X151125Y435456D01*
X151816Y436243D01*
X152557Y436984D01*
X153344Y437675D01*
X154175Y438313D01*
X155046Y438895D01*
X155954Y439418D01*
X156893Y439882D01*
X157861Y440283D01*
X158853Y440619D01*
X159865Y440890D01*
X160892Y441095D01*
X161931Y441232D01*
X162976Y441300D01*
X164024Y441300D01*
X165069Y441232D01*
X166108Y441095D01*
X167135Y440890D01*
X168147Y440619D01*
X169139Y440283D01*
X170107Y439882D01*
X171046Y439418D01*
X171954Y438895D01*
X172825Y438313D01*
X173656Y437675D01*
X174443Y436984D01*
X175184Y436243D01*
X175875Y435456D01*
X176513Y434625D01*
X177095Y433754D01*
X177618Y432846D01*
X178082Y431907D01*
X178483Y430939D01*
X178819Y429947D01*
X179090Y428935D01*
X179295Y427908D01*
X179432Y426869D01*
X179500Y425824D01*
X179500Y424776D01*
X179432Y423731D01*
X179295Y422692D01*
X179090Y421665D01*
X178819Y420653D01*
X178483Y419661D01*
X178082Y418693D01*
X177618Y417754D01*
X177095Y416846D01*
X176513Y415975D01*
X175875Y415144D01*
X175184Y414357D01*
X174443Y413616D01*
X173656Y412925D01*
X172825Y412288D01*
X171954Y411706D01*
X171046Y411182D01*
X170107Y410718D01*
X169139Y410317D01*
X168147Y409981D01*
X167135Y409710D01*
X166108Y409505D01*
X165069Y409369D01*
X164024Y409300D01*
X162976Y409300D01*
X161931Y409369D01*
X160892Y409505D01*
X159865Y409710D01*
X158853Y409981D01*
X157861Y410317D01*
X156893Y410718D01*
X155954Y411182D01*
X155046Y411706D01*
X154175Y412288D01*
X153344Y412925D01*
X152557Y413616D01*
X151816Y414357D01*
X151125Y415144D01*
X150488Y415975D01*
X149906Y416846D01*
X149382Y417754D01*
X148918Y418693D01*
X148517Y419661D01*
X148181Y420653D01*
X147910Y421665D01*
X147705Y422692D01*
X147569Y423731D01*
X147500Y424776D01*
X147500Y425824D01*
X20500Y425824D02*
X20569Y426869D01*
X20705Y427908D01*
X20910Y428935D01*
X21181Y429947D01*
X21517Y430939D01*
X21918Y431907D01*
X22382Y432846D01*
X22906Y433754D01*
X23488Y434625D01*
X24125Y435456D01*
X24816Y436243D01*
X25557Y436984D01*
X26344Y437675D01*
X27175Y438313D01*
X28046Y438895D01*
X28954Y439418D01*
X29893Y439882D01*
X30861Y440283D01*
X31853Y440619D01*
X32865Y440890D01*
X33892Y441095D01*
X34931Y441232D01*
X35976Y441300D01*
X37024Y441300D01*
X38069Y441232D01*
X39108Y441095D01*
X40135Y440890D01*
X41147Y440619D01*
X42139Y440283D01*
X43107Y439882D01*
X44046Y439418D01*
X44954Y438895D01*
X45825Y438313D01*
X46656Y437675D01*
X47443Y436984D01*
X48184Y436243D01*
X48875Y435456D01*
X49513Y434625D01*
X50095Y433754D01*
X50618Y432846D01*
X51082Y431907D01*
X51483Y430939D01*
X51819Y429947D01*
X52090Y428935D01*
X52295Y427908D01*
X52432Y426869D01*
X52500Y425824D01*
X52500Y424776D01*
X52432Y423731D01*
X52295Y422692D01*
X52090Y421665D01*
X51819Y420653D01*
X51483Y419661D01*
X51082Y418693D01*
X50618Y417754D01*
X50095Y416846D01*
X49513Y415975D01*
X48875Y415144D01*
X48184Y414357D01*
X47443Y413616D01*
X46656Y412925D01*
X45825Y412288D01*
X44954Y411706D01*
X44046Y411182D01*
X43107Y410718D01*
X42139Y410317D01*
X41147Y409981D01*
X40135Y409710D01*
X39108Y409505D01*
X38069Y409369D01*
X37024Y409300D01*
X35976Y409300D01*
X34931Y409369D01*
X33892Y409505D01*
X32865Y409710D01*
X31853Y409981D01*
X30861Y410317D01*
X29893Y410718D01*
X28954Y411182D01*
X28046Y411706D01*
X27175Y412288D01*
X26344Y412925D01*
X25557Y413616D01*
X24816Y414357D01*
X24125Y415144D01*
X23488Y415975D01*
X22906Y416846D01*
X22382Y417754D01*
X21918Y418693D01*
X21517Y419661D01*
X21181Y420653D01*
X20910Y421665D01*
X20705Y422692D01*
X20569Y423731D01*
X20500Y424776D01*
X20500Y425824D01*
M02*
