G04 EAGLE Gerber RS-274X export*
G75*
%MOMM*%
%FSLAX34Y34*%
%LPD*%
%INSilkscreen Top*%
%IPPOS*%
%AMOC8*
5,1,8,0,0,1.08239X$1,22.5*%
G01*
%ADD10C,0.101600*%
%ADD11C,0.076200*%
%ADD12C,0.254000*%
%ADD13C,0.127000*%
%ADD14C,0.228600*%
%ADD15C,0.203200*%
%ADD16R,1.016000X10.160000*%
%ADD17C,0.152400*%
%ADD18R,0.762000X5.588000*%
%ADD19R,0.889000X1.270000*%
%ADD20C,0.177800*%
%ADD21C,0.020319*%
%ADD22C,0.406400*%


D10*
X731508Y6444D02*
X731508Y13562D01*
X735067Y13562D01*
X736253Y12376D01*
X736253Y10003D01*
X735067Y8817D01*
X731508Y8817D01*
X740179Y13562D02*
X742551Y13562D01*
X740179Y13562D02*
X738992Y12376D01*
X738992Y7630D01*
X740179Y6444D01*
X742551Y6444D01*
X743738Y7630D01*
X743738Y12376D01*
X742551Y13562D01*
X750035Y13562D02*
X751222Y12376D01*
X750035Y13562D02*
X747663Y13562D01*
X746476Y12376D01*
X746476Y11189D01*
X747663Y10003D01*
X750035Y10003D01*
X751222Y8817D01*
X751222Y7630D01*
X750035Y6444D01*
X747663Y6444D01*
X746476Y7630D01*
X753960Y10003D02*
X758706Y10003D01*
X756333Y12376D02*
X756333Y7630D01*
X921508Y6444D02*
X921508Y13562D01*
X925067Y13562D01*
X926253Y12376D01*
X926253Y10003D01*
X925067Y8817D01*
X921508Y8817D01*
X930179Y13562D02*
X932551Y13562D01*
X930179Y13562D02*
X928992Y12376D01*
X928992Y7630D01*
X930179Y6444D01*
X932551Y6444D01*
X933738Y7630D01*
X933738Y12376D01*
X932551Y13562D01*
X940035Y13562D02*
X941222Y12376D01*
X940035Y13562D02*
X937663Y13562D01*
X936476Y12376D01*
X936476Y11189D01*
X937663Y10003D01*
X940035Y10003D01*
X941222Y8817D01*
X941222Y7630D01*
X940035Y6444D01*
X937663Y6444D01*
X936476Y7630D01*
X943960Y10003D02*
X948706Y10003D01*
X946333Y12376D02*
X946333Y7630D01*
X197624Y747801D02*
X196438Y746615D01*
X196438Y744242D01*
X197624Y743056D01*
X202370Y743056D01*
X203556Y744242D01*
X203556Y746615D01*
X202370Y747801D01*
X199997Y747801D01*
X199997Y745428D01*
X203556Y750540D02*
X196438Y750540D01*
X203556Y755285D01*
X196438Y755285D01*
X196438Y758024D02*
X203556Y758024D01*
X203556Y761583D01*
X202370Y762769D01*
X197624Y762769D01*
X196438Y761583D01*
X196438Y758024D01*
X246438Y746615D02*
X247624Y747801D01*
X246438Y746615D02*
X246438Y744242D01*
X247624Y743056D01*
X248811Y743056D01*
X249997Y744242D01*
X249997Y746615D01*
X251183Y747801D01*
X252370Y747801D01*
X253556Y746615D01*
X253556Y744242D01*
X252370Y743056D01*
X246438Y754099D02*
X247624Y755285D01*
X246438Y754099D02*
X246438Y751726D01*
X247624Y750540D01*
X252370Y750540D01*
X253556Y751726D01*
X253556Y754099D01*
X252370Y755285D01*
X253556Y758024D02*
X246438Y758024D01*
X253556Y758024D02*
X253556Y762769D01*
X222624Y747801D02*
X221438Y746615D01*
X221438Y744242D01*
X222624Y743056D01*
X223811Y743056D01*
X224997Y744242D01*
X224997Y746615D01*
X226183Y747801D01*
X227370Y747801D01*
X228556Y746615D01*
X228556Y744242D01*
X227370Y743056D01*
X228556Y750540D02*
X221438Y750540D01*
X228556Y750540D02*
X228556Y754099D01*
X227370Y755285D01*
X222624Y755285D01*
X221438Y754099D01*
X221438Y750540D01*
X223811Y758024D02*
X228556Y758024D01*
X223811Y758024D02*
X221438Y760397D01*
X223811Y762769D01*
X228556Y762769D01*
X224997Y762769D02*
X224997Y758024D01*
X352997Y748801D02*
X352997Y744056D01*
X350624Y746428D02*
X355370Y746428D01*
X349438Y751540D02*
X349438Y756285D01*
X349438Y751540D02*
X352997Y751540D01*
X351811Y753912D01*
X351811Y755099D01*
X352997Y756285D01*
X355370Y756285D01*
X356556Y755099D01*
X356556Y752726D01*
X355370Y751540D01*
X354183Y759024D02*
X349438Y759024D01*
X354183Y759024D02*
X356556Y761397D01*
X354183Y763769D01*
X349438Y763769D01*
X276556Y743056D02*
X269438Y743056D01*
X276556Y743056D02*
X276556Y746615D01*
X275370Y747801D01*
X270624Y747801D01*
X269438Y746615D01*
X269438Y743056D01*
X271811Y750540D02*
X269438Y752912D01*
X276556Y752912D01*
X276556Y750540D02*
X276556Y755285D01*
X276556Y758024D02*
X276556Y762769D01*
X276556Y758024D02*
X271811Y762769D01*
X270624Y762769D01*
X269438Y761583D01*
X269438Y759210D01*
X270624Y758024D01*
X296811Y750540D02*
X301556Y750540D01*
X296811Y750540D02*
X294438Y752912D01*
X296811Y755285D01*
X301556Y755285D01*
X297997Y755285D02*
X297997Y750540D01*
X296811Y758024D02*
X294438Y760397D01*
X301556Y760397D01*
X301556Y762769D02*
X301556Y758024D01*
X322811Y750540D02*
X327556Y750540D01*
X322811Y750540D02*
X320438Y752912D01*
X322811Y755285D01*
X327556Y755285D01*
X323997Y755285D02*
X323997Y750540D01*
X327556Y758024D02*
X327556Y762769D01*
X327556Y758024D02*
X322811Y762769D01*
X321624Y762769D01*
X320438Y761583D01*
X320438Y759210D01*
X321624Y758024D01*
X374438Y747615D02*
X375624Y748801D01*
X374438Y747615D02*
X374438Y745242D01*
X375624Y744056D01*
X380370Y744056D01*
X381556Y745242D01*
X381556Y747615D01*
X380370Y748801D01*
X377997Y748801D01*
X377997Y746428D01*
X381556Y751540D02*
X374438Y751540D01*
X381556Y756285D01*
X374438Y756285D01*
X374438Y759024D02*
X381556Y759024D01*
X381556Y762583D01*
X380370Y763769D01*
X375624Y763769D01*
X374438Y762583D01*
X374438Y759024D01*
X177183Y510550D02*
X172438Y510550D01*
X177183Y510550D02*
X179556Y512923D01*
X177183Y515296D01*
X172438Y515296D01*
X179556Y518034D02*
X179556Y520407D01*
X179556Y519221D02*
X172438Y519221D01*
X172438Y520407D02*
X172438Y518034D01*
X172438Y523024D02*
X179556Y523024D01*
X179556Y527769D02*
X172438Y523024D01*
X172438Y527769D02*
X179556Y527769D01*
X944615Y279562D02*
X945801Y278376D01*
X944615Y279562D02*
X942242Y279562D01*
X941056Y278376D01*
X941056Y273630D01*
X942242Y272444D01*
X944615Y272444D01*
X945801Y273630D01*
X945801Y276003D01*
X943428Y276003D01*
X948540Y272444D02*
X948540Y279562D01*
X953285Y272444D01*
X953285Y279562D01*
X956024Y279562D02*
X956024Y272444D01*
X959583Y272444D01*
X960769Y273630D01*
X960769Y278376D01*
X959583Y279562D01*
X956024Y279562D01*
X938317Y250003D02*
X933571Y250003D01*
X935944Y252376D02*
X935944Y247630D01*
X941056Y251189D02*
X943428Y253562D01*
X943428Y246444D01*
X941056Y246444D02*
X945801Y246444D01*
X948540Y246444D02*
X953285Y246444D01*
X948540Y246444D02*
X953285Y251189D01*
X953285Y252376D01*
X952099Y253562D01*
X949726Y253562D01*
X948540Y252376D01*
X956024Y253562D02*
X956024Y248817D01*
X958397Y246444D01*
X960769Y248817D01*
X960769Y253562D01*
X287556Y733056D02*
X280438Y733056D01*
X280438Y736615D01*
X281624Y737801D01*
X283997Y737801D01*
X285183Y736615D01*
X285183Y733056D01*
X285183Y735428D02*
X287556Y737801D01*
X280438Y740540D02*
X280438Y745285D01*
X280438Y740540D02*
X287556Y740540D01*
X287556Y745285D01*
X283997Y742912D02*
X283997Y740540D01*
X280438Y751583D02*
X281624Y752769D01*
X280438Y751583D02*
X280438Y749210D01*
X281624Y748024D01*
X282811Y748024D01*
X283997Y749210D01*
X283997Y751583D01*
X285183Y752769D01*
X286370Y752769D01*
X287556Y751583D01*
X287556Y749210D01*
X286370Y748024D01*
X305438Y744099D02*
X306624Y745285D01*
X305438Y744099D02*
X305438Y741726D01*
X306624Y740540D01*
X311370Y740540D01*
X312556Y741726D01*
X312556Y744099D01*
X311370Y745285D01*
X305438Y751583D02*
X306624Y752769D01*
X305438Y751583D02*
X305438Y749210D01*
X306624Y748024D01*
X307811Y748024D01*
X308997Y749210D01*
X308997Y751583D01*
X310183Y752769D01*
X311370Y752769D01*
X312556Y751583D01*
X312556Y749210D01*
X311370Y748024D01*
X331438Y728066D02*
X338556Y728066D01*
X333811Y730439D02*
X331438Y728066D01*
X333811Y730439D02*
X331438Y732811D01*
X338556Y732811D01*
X338556Y735550D02*
X338556Y737923D01*
X338556Y736737D02*
X331438Y736737D01*
X331438Y737923D02*
X331438Y735550D01*
X331438Y744099D02*
X332624Y745285D01*
X331438Y744099D02*
X331438Y741726D01*
X332624Y740540D01*
X333811Y740540D01*
X334997Y741726D01*
X334997Y744099D01*
X336183Y745285D01*
X337370Y745285D01*
X338556Y744099D01*
X338556Y741726D01*
X337370Y740540D01*
X331438Y749210D02*
X331438Y751583D01*
X331438Y749210D02*
X332624Y748024D01*
X337370Y748024D01*
X338556Y749210D01*
X338556Y751583D01*
X337370Y752769D01*
X332624Y752769D01*
X331438Y751583D01*
D11*
X935444Y421232D02*
X935444Y416317D01*
X935444Y421232D02*
X937902Y423689D01*
X940359Y421232D01*
X940359Y416317D01*
X940359Y420003D02*
X935444Y420003D01*
X942929Y423689D02*
X942929Y416317D01*
X946615Y416317D01*
X947843Y417546D01*
X947843Y422461D01*
X946615Y423689D01*
X942929Y423689D01*
X954099Y423689D02*
X955328Y422461D01*
X954099Y423689D02*
X951641Y423689D01*
X950413Y422461D01*
X950413Y417546D01*
X951641Y416317D01*
X954099Y416317D01*
X955328Y417546D01*
X960354Y422461D02*
X962812Y423689D01*
X960354Y422461D02*
X957897Y420003D01*
X957897Y417546D01*
X959126Y416317D01*
X961583Y416317D01*
X962812Y417546D01*
X962812Y418774D01*
X961583Y420003D01*
X957897Y420003D01*
X935444Y326232D02*
X935444Y321317D01*
X935444Y326232D02*
X937902Y328689D01*
X940359Y326232D01*
X940359Y321317D01*
X940359Y325003D02*
X935444Y325003D01*
X942929Y328689D02*
X942929Y321317D01*
X946615Y321317D01*
X947843Y322546D01*
X947843Y327461D01*
X946615Y328689D01*
X942929Y328689D01*
X954099Y328689D02*
X955328Y327461D01*
X954099Y328689D02*
X951641Y328689D01*
X950413Y327461D01*
X950413Y322546D01*
X951641Y321317D01*
X954099Y321317D01*
X955328Y322546D01*
X957897Y328689D02*
X962812Y328689D01*
X962812Y327461D01*
X957897Y322546D01*
X957897Y321317D01*
X955328Y350003D02*
X950413Y350003D01*
X952870Y347546D02*
X952870Y352461D01*
X957897Y353689D02*
X957897Y348774D01*
X960354Y346317D01*
X962812Y348774D01*
X962812Y353689D01*
X955328Y445003D02*
X950413Y445003D01*
X952870Y442546D02*
X952870Y447461D01*
X957897Y448689D02*
X957897Y443774D01*
X960354Y441317D01*
X962812Y443774D01*
X962812Y448689D01*
X947843Y473461D02*
X946615Y474689D01*
X944157Y474689D01*
X942929Y473461D01*
X942929Y468546D01*
X944157Y467317D01*
X946615Y467317D01*
X947843Y468546D01*
X947843Y471003D01*
X945386Y471003D01*
X950413Y467317D02*
X950413Y474689D01*
X955328Y467317D01*
X955328Y474689D01*
X957897Y474689D02*
X957897Y467317D01*
X961583Y467317D01*
X962812Y468546D01*
X962812Y473461D01*
X961583Y474689D01*
X957897Y474689D01*
X946615Y379689D02*
X947843Y378461D01*
X946615Y379689D02*
X944157Y379689D01*
X942929Y378461D01*
X942929Y373546D01*
X944157Y372317D01*
X946615Y372317D01*
X947843Y373546D01*
X947843Y376003D01*
X945386Y376003D01*
X950413Y372317D02*
X950413Y379689D01*
X955328Y372317D01*
X955328Y379689D01*
X957897Y379689D02*
X957897Y372317D01*
X961583Y372317D01*
X962812Y373546D01*
X962812Y378461D01*
X961583Y379689D01*
X957897Y379689D01*
D12*
X-3200Y222850D02*
X-3200Y191100D01*
X-3200Y222850D02*
X-3200Y337150D01*
X-3200Y368900D01*
X288900Y368900D01*
X314300Y368900D01*
X390500Y368900D01*
X403200Y368900D01*
X403200Y337150D01*
X403200Y222850D01*
X403200Y191100D01*
X-3200Y191100D01*
X-15900Y254600D02*
X-15900Y305400D01*
X47600Y305400D01*
X47600Y254600D01*
X-15900Y254600D01*
D13*
X-24792Y263094D02*
X-34325Y263094D01*
X-24792Y263094D02*
X-22885Y265001D01*
X-22885Y268814D01*
X-24792Y270721D01*
X-34325Y270721D01*
X-34325Y280508D02*
X-32418Y282415D01*
X-34325Y280508D02*
X-34325Y276695D01*
X-32418Y274788D01*
X-30512Y274788D01*
X-28605Y276695D01*
X-28605Y280508D01*
X-26698Y282415D01*
X-24792Y282415D01*
X-22885Y280508D01*
X-22885Y276695D01*
X-24792Y274788D01*
X-22885Y286482D02*
X-34325Y286482D01*
X-34325Y292202D01*
X-32418Y294108D01*
X-30512Y294108D01*
X-28605Y292202D01*
X-26698Y294108D01*
X-24792Y294108D01*
X-22885Y292202D01*
X-22885Y286482D01*
X-28605Y286482D02*
X-28605Y292202D01*
D12*
X-3200Y222850D02*
X7620Y222850D01*
X17620Y222850D02*
X28440Y222850D01*
X38440Y222850D02*
X49260Y222850D01*
X59260Y222850D02*
X70080Y222850D01*
X80080Y222850D02*
X90900Y222850D01*
X100900Y222850D02*
X111720Y222850D01*
X121720Y222850D02*
X132540Y222850D01*
X142540Y222850D02*
X153360Y222850D01*
X163360Y222850D02*
X174180Y222850D01*
X184180Y222850D02*
X195000Y222850D01*
X205000Y222850D02*
X215820Y222850D01*
X225820Y222850D02*
X236640Y222850D01*
X246640Y222850D02*
X257460Y222850D01*
X267460Y222850D02*
X278280Y222850D01*
X288280Y222850D02*
X299100Y222850D01*
X309100Y222850D02*
X319920Y222850D01*
X329920Y222850D02*
X340740Y222850D01*
X350740Y222850D02*
X361560Y222850D01*
X371560Y222850D02*
X382380Y222850D01*
X392380Y222850D02*
X403200Y222850D01*
X403200Y337150D02*
X392380Y337150D01*
X382380Y337150D02*
X371560Y337150D01*
X361560Y337150D02*
X350740Y337150D01*
X340740Y337150D02*
X329920Y337150D01*
X319920Y337150D02*
X309100Y337150D01*
X299100Y337150D02*
X288280Y337150D01*
X278280Y337150D02*
X267460Y337150D01*
X257460Y337150D02*
X246640Y337150D01*
X236640Y337150D02*
X225820Y337150D01*
X215820Y337150D02*
X205000Y337150D01*
X195000Y337150D02*
X184180Y337150D01*
X174180Y337150D02*
X163360Y337150D01*
X153360Y337150D02*
X142540Y337150D01*
X132540Y337150D02*
X121720Y337150D01*
X111720Y337150D02*
X100900Y337150D01*
X90900Y337150D02*
X80080Y337150D01*
X70080Y337150D02*
X59260Y337150D01*
X49260Y337150D02*
X38440Y337150D01*
X28440Y337150D02*
X17620Y337150D01*
X7620Y337150D02*
X-3200Y337150D01*
D14*
X85489Y283271D02*
X85489Y270221D01*
X85489Y283271D02*
X92014Y289796D01*
X98539Y283271D01*
X98539Y270221D01*
X98539Y280008D02*
X85489Y280008D01*
X105603Y283271D02*
X105603Y270221D01*
X105603Y276746D02*
X112128Y283271D01*
X115390Y283271D01*
X135414Y289796D02*
X135414Y270221D01*
X125627Y270221D01*
X122364Y273483D01*
X122364Y280008D01*
X125627Y283271D01*
X135414Y283271D01*
X142478Y283271D02*
X142478Y273483D01*
X145741Y270221D01*
X155528Y270221D01*
X155528Y283271D01*
X162592Y283271D02*
X165854Y283271D01*
X165854Y270221D01*
X162592Y270221D02*
X169117Y270221D01*
X165854Y289796D02*
X165854Y293058D01*
X176001Y283271D02*
X176001Y270221D01*
X176001Y283271D02*
X185788Y283271D01*
X189051Y280008D01*
X189051Y270221D01*
X199377Y270221D02*
X205902Y270221D01*
X209164Y273483D01*
X209164Y280008D01*
X205902Y283271D01*
X199377Y283271D01*
X196115Y280008D01*
X196115Y273483D01*
X199377Y270221D01*
X236342Y270221D02*
X236342Y289796D01*
X249392Y270221D01*
X249392Y289796D01*
X259718Y283271D02*
X266243Y283271D01*
X269505Y280008D01*
X269505Y270221D01*
X259718Y270221D01*
X256455Y273483D01*
X259718Y276746D01*
X269505Y276746D01*
X276569Y270221D02*
X276569Y283271D01*
X286356Y283271D01*
X289619Y280008D01*
X289619Y270221D01*
X299945Y270221D02*
X306470Y270221D01*
X309733Y273483D01*
X309733Y280008D01*
X306470Y283271D01*
X299945Y283271D01*
X296683Y280008D01*
X296683Y273483D01*
X299945Y270221D01*
D15*
X288900Y368900D02*
X288900Y373980D01*
X314300Y373980D01*
X390500Y373980D01*
X390500Y368900D01*
X314300Y368900D02*
X314300Y373980D01*
X623000Y296500D02*
X647000Y296500D01*
X647000Y233500D01*
X623000Y233500D01*
X623000Y296500D01*
D11*
X631261Y328631D02*
X638633Y328631D01*
X631261Y328631D02*
X631261Y332317D01*
X632489Y333546D01*
X634947Y333546D01*
X636176Y332317D01*
X636176Y328631D01*
X636176Y331088D02*
X638633Y333546D01*
X631261Y336115D02*
X631261Y341030D01*
X632489Y341030D01*
X637404Y336115D01*
X638633Y336115D01*
X631501Y255188D02*
X632729Y252730D01*
X635187Y250273D01*
X637644Y250273D01*
X638873Y251501D01*
X638873Y253959D01*
X637644Y255188D01*
X636416Y255188D01*
X635187Y253959D01*
X635187Y250273D01*
X638873Y257757D02*
X638873Y262672D01*
X638873Y257757D02*
X633958Y262672D01*
X632729Y262672D01*
X631501Y261443D01*
X631501Y258986D01*
X632729Y257757D01*
X632729Y265241D02*
X637644Y265241D01*
X632729Y265241D02*
X631501Y266470D01*
X631501Y268927D01*
X632729Y270156D01*
X637644Y270156D01*
X638873Y268927D01*
X638873Y266470D01*
X637644Y265241D01*
X632729Y270156D01*
X631501Y272725D02*
X638873Y272725D01*
X631501Y272725D02*
X631501Y276411D01*
X632729Y277640D01*
X635187Y277640D01*
X636416Y276411D01*
X636416Y272725D01*
X636416Y275183D02*
X638873Y277640D01*
D15*
X617000Y233500D02*
X593000Y233500D01*
X593000Y296500D01*
X617000Y296500D01*
X617000Y233500D01*
D11*
X608633Y328631D02*
X601261Y328631D01*
X601261Y332317D01*
X602489Y333546D01*
X604947Y333546D01*
X606176Y332317D01*
X606176Y328631D01*
X606176Y331088D02*
X608633Y333546D01*
X602489Y338573D02*
X601261Y341030D01*
X602489Y338573D02*
X604947Y336115D01*
X607404Y336115D01*
X608633Y337344D01*
X608633Y339801D01*
X607404Y341030D01*
X606176Y341030D01*
X604947Y339801D01*
X604947Y336115D01*
X601121Y256752D02*
X603578Y254295D01*
X601121Y256752D02*
X608493Y256752D01*
X608493Y254295D02*
X608493Y259210D01*
X607264Y261779D02*
X602349Y261779D01*
X601121Y263008D01*
X601121Y265465D01*
X602349Y266694D01*
X607264Y266694D01*
X608493Y265465D01*
X608493Y263008D01*
X607264Y261779D01*
X602349Y266694D01*
X601121Y269263D02*
X608493Y269263D01*
X606036Y269263D02*
X601121Y274178D01*
X604807Y270492D02*
X608493Y274178D01*
D15*
X606190Y200800D02*
X630320Y200800D01*
X630320Y99200D02*
X606190Y99200D01*
X630320Y99200D02*
X630320Y200800D01*
X640480Y200800D01*
X640480Y99200D01*
X630320Y99200D01*
X597300Y191910D02*
X597297Y192123D01*
X597300Y192336D01*
X597308Y192549D01*
X597321Y192762D01*
X597339Y192974D01*
X597362Y193185D01*
X597391Y193397D01*
X597425Y193607D01*
X597464Y193816D01*
X597508Y194025D01*
X597557Y194232D01*
X597612Y194438D01*
X597671Y194643D01*
X597735Y194846D01*
X597805Y195047D01*
X597879Y195247D01*
X597958Y195445D01*
X598042Y195640D01*
X598131Y195834D01*
X598224Y196025D01*
X598322Y196215D01*
X598425Y196401D01*
X598532Y196585D01*
X598644Y196767D01*
X598760Y196945D01*
X598881Y197121D01*
X599005Y197293D01*
X599134Y197463D01*
X599268Y197629D01*
X599405Y197792D01*
X599546Y197952D01*
X599691Y198108D01*
X599840Y198260D01*
X599992Y198409D01*
X600148Y198554D01*
X600308Y198695D01*
X600471Y198832D01*
X600637Y198966D01*
X600807Y199095D01*
X600979Y199219D01*
X601155Y199340D01*
X601333Y199456D01*
X601515Y199568D01*
X601699Y199675D01*
X601885Y199778D01*
X602075Y199876D01*
X602266Y199969D01*
X602460Y200058D01*
X602655Y200142D01*
X602853Y200221D01*
X603053Y200295D01*
X603254Y200365D01*
X603457Y200429D01*
X603662Y200488D01*
X603868Y200543D01*
X604075Y200592D01*
X604284Y200636D01*
X604493Y200675D01*
X604703Y200709D01*
X604915Y200738D01*
X605126Y200761D01*
X605338Y200779D01*
X605551Y200792D01*
X605764Y200800D01*
X605977Y200803D01*
X606190Y200800D01*
X597300Y108090D02*
X597297Y107877D01*
X597300Y107664D01*
X597308Y107451D01*
X597321Y107238D01*
X597339Y107026D01*
X597362Y106815D01*
X597391Y106603D01*
X597425Y106393D01*
X597464Y106184D01*
X597508Y105975D01*
X597557Y105768D01*
X597612Y105562D01*
X597671Y105357D01*
X597735Y105154D01*
X597805Y104953D01*
X597879Y104753D01*
X597958Y104555D01*
X598042Y104360D01*
X598131Y104166D01*
X598224Y103975D01*
X598322Y103785D01*
X598425Y103599D01*
X598532Y103415D01*
X598644Y103233D01*
X598760Y103055D01*
X598881Y102879D01*
X599005Y102707D01*
X599134Y102537D01*
X599268Y102371D01*
X599405Y102208D01*
X599546Y102048D01*
X599691Y101892D01*
X599840Y101740D01*
X599992Y101591D01*
X600148Y101446D01*
X600308Y101305D01*
X600471Y101168D01*
X600637Y101034D01*
X600807Y100905D01*
X600979Y100781D01*
X601155Y100660D01*
X601333Y100544D01*
X601515Y100432D01*
X601699Y100325D01*
X601885Y100222D01*
X602075Y100124D01*
X602266Y100031D01*
X602460Y99942D01*
X602655Y99858D01*
X602853Y99779D01*
X603053Y99705D01*
X603254Y99635D01*
X603457Y99571D01*
X603662Y99512D01*
X603868Y99457D01*
X604075Y99408D01*
X604284Y99364D01*
X604493Y99325D01*
X604703Y99291D01*
X604915Y99262D01*
X605126Y99239D01*
X605338Y99221D01*
X605551Y99208D01*
X605764Y99200D01*
X605977Y99197D01*
X606190Y99200D01*
X597300Y188100D02*
X597300Y191910D01*
X597300Y111900D02*
X597300Y108090D01*
D16*
X635400Y150000D03*
D11*
X590100Y187441D02*
X585185Y187441D01*
X583957Y188670D01*
X583957Y191127D01*
X585185Y192356D01*
X590100Y192356D01*
X591329Y191127D01*
X591329Y188670D01*
X590100Y187441D01*
X588872Y189898D02*
X591329Y192356D01*
X586414Y194925D02*
X583957Y197383D01*
X591329Y197383D01*
X591329Y199840D02*
X591329Y194925D01*
D15*
X669600Y97620D02*
X720400Y97620D01*
X720400Y90000D01*
X720400Y82380D01*
X669600Y82380D01*
X669600Y90000D01*
X669600Y97620D01*
X720400Y90000D02*
X722940Y90000D01*
X669600Y90000D02*
X667060Y90000D01*
X714050Y96350D02*
X714050Y83650D01*
D11*
X744981Y86017D02*
X744981Y93389D01*
X744981Y86017D02*
X748667Y86017D01*
X749896Y87246D01*
X749896Y92161D01*
X748667Y93389D01*
X744981Y93389D01*
X754923Y92161D02*
X757380Y93389D01*
X754923Y92161D02*
X752465Y89703D01*
X752465Y87246D01*
X753694Y86017D01*
X756151Y86017D01*
X757380Y87246D01*
X757380Y88474D01*
X756151Y89703D01*
X752465Y89703D01*
D15*
X727500Y74000D02*
X657500Y74000D01*
X727500Y74000D02*
X727500Y12000D01*
X727500Y4000D01*
X657500Y4000D01*
X657500Y12000D01*
X657500Y74000D01*
X657500Y12000D02*
X727500Y12000D01*
D11*
X731775Y21841D02*
X733003Y23070D01*
X731775Y21841D02*
X731775Y19384D01*
X733003Y18155D01*
X737918Y18155D01*
X739147Y19384D01*
X739147Y21841D01*
X737918Y23070D01*
X731775Y26868D02*
X731775Y29325D01*
X731775Y26868D02*
X733003Y25639D01*
X737918Y25639D01*
X739147Y26868D01*
X739147Y29325D01*
X737918Y30554D01*
X733003Y30554D01*
X731775Y29325D01*
X739147Y33123D02*
X739147Y35581D01*
X739147Y34352D02*
X731775Y34352D01*
X731775Y33123D02*
X731775Y35581D01*
X731775Y38113D02*
X739147Y38113D01*
X739147Y43028D01*
X734232Y45597D02*
X731775Y48054D01*
X739147Y48054D01*
X739147Y45597D02*
X739147Y50512D01*
D17*
X720400Y294210D02*
X669600Y294210D01*
X669600Y235790D02*
X720400Y235790D01*
X720400Y294210D01*
X669600Y294210D02*
X669600Y275160D01*
X669600Y254840D02*
X669600Y235790D01*
X669600Y254840D02*
X669847Y254843D01*
X670095Y254852D01*
X670342Y254867D01*
X670588Y254888D01*
X670834Y254915D01*
X671079Y254948D01*
X671324Y254987D01*
X671567Y255032D01*
X671809Y255083D01*
X672050Y255140D01*
X672289Y255202D01*
X672527Y255271D01*
X672763Y255345D01*
X672997Y255425D01*
X673229Y255510D01*
X673459Y255602D01*
X673687Y255698D01*
X673912Y255801D01*
X674135Y255908D01*
X674355Y256022D01*
X674572Y256140D01*
X674787Y256264D01*
X674998Y256393D01*
X675206Y256527D01*
X675411Y256666D01*
X675612Y256810D01*
X675810Y256958D01*
X676004Y257112D01*
X676194Y257270D01*
X676380Y257433D01*
X676562Y257600D01*
X676740Y257772D01*
X676914Y257948D01*
X677084Y258128D01*
X677249Y258313D01*
X677409Y258501D01*
X677565Y258693D01*
X677717Y258889D01*
X677863Y259088D01*
X678005Y259291D01*
X678141Y259498D01*
X678273Y259707D01*
X678399Y259920D01*
X678520Y260136D01*
X678636Y260354D01*
X678746Y260576D01*
X678851Y260800D01*
X678951Y261026D01*
X679045Y261255D01*
X679133Y261486D01*
X679216Y261720D01*
X679293Y261955D01*
X679364Y262192D01*
X679430Y262430D01*
X679489Y262670D01*
X679543Y262912D01*
X679591Y263155D01*
X679633Y263398D01*
X679669Y263643D01*
X679699Y263889D01*
X679723Y264135D01*
X679741Y264382D01*
X679753Y264629D01*
X679759Y264876D01*
X679759Y265124D01*
X679753Y265371D01*
X679741Y265618D01*
X679723Y265865D01*
X679699Y266111D01*
X679669Y266357D01*
X679633Y266602D01*
X679591Y266845D01*
X679543Y267088D01*
X679489Y267330D01*
X679430Y267570D01*
X679364Y267808D01*
X679293Y268045D01*
X679216Y268280D01*
X679133Y268514D01*
X679045Y268745D01*
X678951Y268974D01*
X678851Y269200D01*
X678746Y269424D01*
X678636Y269646D01*
X678520Y269864D01*
X678399Y270080D01*
X678273Y270293D01*
X678141Y270502D01*
X678005Y270709D01*
X677863Y270912D01*
X677717Y271111D01*
X677565Y271307D01*
X677409Y271499D01*
X677249Y271687D01*
X677084Y271872D01*
X676914Y272052D01*
X676740Y272228D01*
X676562Y272400D01*
X676380Y272567D01*
X676194Y272730D01*
X676004Y272888D01*
X675810Y273042D01*
X675612Y273190D01*
X675411Y273334D01*
X675206Y273473D01*
X674998Y273607D01*
X674787Y273736D01*
X674572Y273860D01*
X674355Y273978D01*
X674135Y274092D01*
X673912Y274199D01*
X673687Y274302D01*
X673459Y274398D01*
X673229Y274490D01*
X672997Y274575D01*
X672763Y274655D01*
X672527Y274729D01*
X672289Y274798D01*
X672050Y274860D01*
X671809Y274917D01*
X671567Y274968D01*
X671324Y275013D01*
X671079Y275052D01*
X670834Y275085D01*
X670588Y275112D01*
X670342Y275133D01*
X670095Y275148D01*
X669847Y275157D01*
X669600Y275160D01*
D11*
X658037Y242397D02*
X658037Y239940D01*
X659265Y238711D01*
X664180Y238711D01*
X665409Y239940D01*
X665409Y242397D01*
X664180Y243626D01*
X659265Y243626D01*
X658037Y242397D01*
X658037Y246195D02*
X665409Y246195D01*
X662952Y246195D02*
X658037Y251110D01*
X661723Y247424D02*
X665409Y251110D01*
X660494Y253679D02*
X658037Y256137D01*
X665409Y256137D01*
X665409Y258594D02*
X665409Y253679D01*
D15*
X741500Y202000D02*
X741500Y178000D01*
X678500Y178000D01*
X678500Y202000D01*
X741500Y202000D01*
D11*
X743631Y204431D02*
X743631Y211803D01*
X747317Y211803D01*
X748546Y210575D01*
X748546Y208117D01*
X747317Y206888D01*
X743631Y206888D01*
X746088Y206888D02*
X748546Y204431D01*
X751115Y210575D02*
X752344Y211803D01*
X754801Y211803D01*
X756030Y210575D01*
X756030Y209346D01*
X754801Y208117D01*
X756030Y206888D01*
X756030Y205660D01*
X754801Y204431D01*
X752344Y204431D01*
X751115Y205660D01*
X751115Y206888D01*
X752344Y208117D01*
X751115Y209346D01*
X751115Y210575D01*
X752344Y208117D02*
X754801Y208117D01*
X700188Y193499D02*
X697730Y192271D01*
X695273Y189813D01*
X695273Y187356D01*
X696501Y186127D01*
X698959Y186127D01*
X700188Y187356D01*
X700188Y188584D01*
X698959Y189813D01*
X695273Y189813D01*
X702757Y186127D02*
X707672Y186127D01*
X702757Y186127D02*
X707672Y191042D01*
X707672Y192271D01*
X706443Y193499D01*
X703986Y193499D01*
X702757Y192271D01*
X710241Y192271D02*
X710241Y187356D01*
X710241Y192271D02*
X711470Y193499D01*
X713927Y193499D01*
X715156Y192271D01*
X715156Y187356D01*
X713927Y186127D01*
X711470Y186127D01*
X710241Y187356D01*
X715156Y192271D01*
X717725Y193499D02*
X717725Y186127D01*
X717725Y193499D02*
X721411Y193499D01*
X722640Y192271D01*
X722640Y189813D01*
X721411Y188584D01*
X717725Y188584D01*
X720183Y188584D02*
X722640Y186127D01*
D15*
X720400Y132380D02*
X669600Y132380D01*
X669600Y140000D01*
X669600Y147620D01*
X720400Y147620D01*
X720400Y140000D01*
X720400Y132380D01*
X669600Y140000D02*
X667060Y140000D01*
X720400Y140000D02*
X722940Y140000D01*
X675950Y133650D02*
X675950Y146350D01*
D11*
X748438Y143389D02*
X748438Y136017D01*
X745981Y143389D02*
X750896Y143389D01*
X753465Y143389D02*
X753465Y138474D01*
X755923Y136017D01*
X758380Y138474D01*
X758380Y143389D01*
X764635Y143389D02*
X765864Y142161D01*
X764635Y143389D02*
X762178Y143389D01*
X760949Y142161D01*
X760949Y140932D01*
X762178Y139703D01*
X764635Y139703D01*
X765864Y138474D01*
X765864Y137246D01*
X764635Y136017D01*
X762178Y136017D01*
X760949Y137246D01*
X768433Y136017D02*
X773348Y136017D01*
X768433Y136017D02*
X773348Y140932D01*
X773348Y142161D01*
X772120Y143389D01*
X769662Y143389D01*
X768433Y142161D01*
D15*
X720400Y122620D02*
X669600Y122620D01*
X720400Y122620D02*
X720400Y115000D01*
X720400Y107380D01*
X669600Y107380D01*
X669600Y115000D01*
X669600Y122620D01*
X720400Y115000D02*
X722940Y115000D01*
X669600Y115000D02*
X667060Y115000D01*
X714050Y121350D02*
X714050Y108650D01*
D11*
X747978Y110827D02*
X747978Y118199D01*
X745521Y118199D02*
X750436Y118199D01*
X753005Y118199D02*
X753005Y113284D01*
X755463Y110827D01*
X757920Y113284D01*
X757920Y118199D01*
X764175Y118199D02*
X765404Y116971D01*
X764175Y118199D02*
X761718Y118199D01*
X760489Y116971D01*
X760489Y115742D01*
X761718Y114513D01*
X764175Y114513D01*
X765404Y113284D01*
X765404Y112056D01*
X764175Y110827D01*
X761718Y110827D01*
X760489Y112056D01*
X767973Y115742D02*
X770431Y118199D01*
X770431Y110827D01*
X772888Y110827D02*
X767973Y110827D01*
D15*
X640240Y88100D02*
X640240Y11900D01*
X609760Y11900D01*
X609760Y88100D01*
X640240Y88100D01*
D11*
X605569Y20281D02*
X598197Y20281D01*
X598197Y25196D01*
X601883Y22738D02*
X601883Y20281D01*
X605569Y27765D02*
X605569Y32680D01*
X605569Y27765D02*
X600654Y32680D01*
X599425Y32680D01*
X598197Y31451D01*
X598197Y28994D01*
X599425Y27765D01*
D15*
X107000Y65000D02*
X107000Y86000D01*
X53000Y65000D02*
X0Y65000D01*
X100000Y65000D02*
X107000Y65000D01*
X107000Y155000D02*
X0Y155000D01*
X107000Y155000D02*
X107000Y134000D01*
X0Y155000D02*
X0Y65000D01*
D11*
X115196Y137181D02*
X110281Y144553D01*
X115196Y144553D02*
X110281Y137181D01*
X117765Y142096D02*
X120223Y144553D01*
X120223Y137181D01*
X122680Y137181D02*
X117765Y137181D01*
D17*
X220000Y40000D02*
X232700Y40000D01*
X220000Y40000D02*
X220000Y34158D01*
X220000Y40000D02*
X208570Y34158D01*
X208570Y45842D01*
X220000Y40000D01*
X197140Y40000D01*
X220000Y40000D02*
X220000Y45842D01*
X270800Y67940D02*
X270800Y12060D01*
X169200Y12060D02*
X169200Y67940D01*
X169200Y12060D02*
X270800Y12060D01*
X270800Y67940D02*
X169200Y67940D01*
D18*
X258100Y40000D03*
D19*
X275245Y40000D03*
X164755Y40000D03*
D11*
X275813Y22925D02*
X275813Y15553D01*
X279499Y15553D01*
X280728Y16782D01*
X280728Y21697D01*
X279499Y22925D01*
X275813Y22925D01*
X283297Y21697D02*
X284526Y22925D01*
X286983Y22925D01*
X288212Y21697D01*
X288212Y20468D01*
X286983Y19239D01*
X285754Y19239D01*
X286983Y19239D02*
X288212Y18010D01*
X288212Y16782D01*
X286983Y15553D01*
X284526Y15553D01*
X283297Y16782D01*
D13*
X300000Y145000D02*
X140000Y145000D01*
X300000Y145000D02*
X300000Y75000D01*
X140000Y75000D01*
X140000Y145000D01*
D11*
X140381Y150381D02*
X140381Y157753D01*
X145296Y157753D01*
X142838Y154067D02*
X140381Y154067D01*
X147865Y155296D02*
X150323Y157753D01*
X150323Y150381D01*
X152780Y150381D02*
X147865Y150381D01*
D15*
X401500Y92000D02*
X401500Y68000D01*
X338500Y68000D01*
X338500Y92000D01*
X401500Y92000D01*
D11*
X433631Y83739D02*
X433631Y76367D01*
X433631Y83739D02*
X437317Y83739D01*
X438546Y82511D01*
X438546Y80053D01*
X437317Y78824D01*
X433631Y78824D01*
X436088Y78824D02*
X438546Y76367D01*
X441115Y76367D02*
X446030Y76367D01*
X441115Y76367D02*
X446030Y81282D01*
X446030Y82511D01*
X444801Y83739D01*
X442344Y83739D01*
X441115Y82511D01*
X361752Y83879D02*
X359295Y81422D01*
X361752Y83879D02*
X361752Y76507D01*
X359295Y76507D02*
X364210Y76507D01*
X366779Y77736D02*
X366779Y82651D01*
X368008Y83879D01*
X370465Y83879D01*
X371694Y82651D01*
X371694Y77736D01*
X370465Y76507D01*
X368008Y76507D01*
X366779Y77736D01*
X371694Y82651D01*
X374263Y83879D02*
X374263Y76507D01*
X374263Y78964D02*
X379178Y83879D01*
X375492Y80193D02*
X379178Y76507D01*
D15*
X338500Y98000D02*
X338500Y122000D01*
X401500Y122000D01*
X401500Y98000D01*
X338500Y98000D01*
D11*
X433631Y106367D02*
X433631Y113739D01*
X437317Y113739D01*
X438546Y112511D01*
X438546Y110053D01*
X437317Y108824D01*
X433631Y108824D01*
X436088Y108824D02*
X438546Y106367D01*
X441115Y112511D02*
X442344Y113739D01*
X444801Y113739D01*
X446030Y112511D01*
X446030Y111282D01*
X444801Y110053D01*
X443573Y110053D01*
X444801Y110053D02*
X446030Y108824D01*
X446030Y107596D01*
X444801Y106367D01*
X442344Y106367D01*
X441115Y107596D01*
X360468Y113879D02*
X358010Y112651D01*
X355553Y110193D01*
X355553Y107736D01*
X356781Y106507D01*
X359239Y106507D01*
X360468Y107736D01*
X360468Y108964D01*
X359239Y110193D01*
X355553Y110193D01*
X363037Y106507D02*
X367952Y106507D01*
X363037Y106507D02*
X367952Y111422D01*
X367952Y112651D01*
X366723Y113879D01*
X364266Y113879D01*
X363037Y112651D01*
X370521Y112651D02*
X370521Y107736D01*
X370521Y112651D02*
X371750Y113879D01*
X374207Y113879D01*
X375436Y112651D01*
X375436Y107736D01*
X374207Y106507D01*
X371750Y106507D01*
X370521Y107736D01*
X375436Y112651D01*
X378005Y113879D02*
X378005Y106507D01*
X378005Y113879D02*
X381691Y113879D01*
X382920Y112651D01*
X382920Y110193D01*
X381691Y108964D01*
X378005Y108964D01*
X380463Y108964D02*
X382920Y106507D01*
D15*
X669600Y172620D02*
X720400Y172620D01*
X720400Y165000D01*
X720400Y157380D01*
X669600Y157380D01*
X669600Y165000D01*
X669600Y172620D01*
X720400Y165000D02*
X722940Y165000D01*
X669600Y165000D02*
X667060Y165000D01*
X714050Y171350D02*
X714050Y158650D01*
D11*
X745981Y161017D02*
X745981Y168389D01*
X745981Y161017D02*
X749667Y161017D01*
X750896Y162246D01*
X750896Y167161D01*
X749667Y168389D01*
X745981Y168389D01*
X753465Y168389D02*
X758380Y168389D01*
X758380Y167161D01*
X753465Y162246D01*
X753465Y161017D01*
D13*
X690000Y640000D02*
X690045Y643681D01*
X690181Y647360D01*
X690406Y651035D01*
X690722Y654703D01*
X691128Y658362D01*
X691624Y662010D01*
X692208Y665644D01*
X692882Y669264D01*
X693645Y672865D01*
X694495Y676447D01*
X695434Y680007D01*
X696459Y683543D01*
X697571Y687052D01*
X698768Y690533D01*
X700051Y693984D01*
X701418Y697403D01*
X702869Y700786D01*
X704402Y704133D01*
X706016Y707442D01*
X707712Y710710D01*
X709487Y713935D01*
X711341Y717115D01*
X713272Y720250D01*
X715280Y723336D01*
X717362Y726371D01*
X719519Y729355D01*
X721748Y732285D01*
X724048Y735159D01*
X726419Y737976D01*
X728857Y740734D01*
X731363Y743431D01*
X733934Y746066D01*
X736569Y748637D01*
X739266Y751143D01*
X742024Y753581D01*
X744841Y755952D01*
X747715Y758252D01*
X750645Y760481D01*
X753629Y762638D01*
X756664Y764720D01*
X759750Y766728D01*
X762885Y768659D01*
X766065Y770513D01*
X769290Y772288D01*
X772558Y773984D01*
X775867Y775598D01*
X779214Y777131D01*
X782597Y778582D01*
X786016Y779949D01*
X789467Y781232D01*
X792948Y782429D01*
X796457Y783541D01*
X799993Y784566D01*
X803553Y785505D01*
X807135Y786355D01*
X810736Y787118D01*
X814356Y787792D01*
X817990Y788376D01*
X821638Y788872D01*
X825297Y789278D01*
X828965Y789594D01*
X832640Y789819D01*
X836319Y789955D01*
X840000Y790000D01*
X843681Y789955D01*
X847360Y789819D01*
X851035Y789594D01*
X854703Y789278D01*
X858362Y788872D01*
X862010Y788376D01*
X865644Y787792D01*
X869264Y787118D01*
X872865Y786355D01*
X876447Y785505D01*
X880007Y784566D01*
X883543Y783541D01*
X887052Y782429D01*
X890533Y781232D01*
X893984Y779949D01*
X897403Y778582D01*
X900786Y777131D01*
X904133Y775598D01*
X907442Y773984D01*
X910710Y772288D01*
X913935Y770513D01*
X917115Y768659D01*
X920250Y766728D01*
X923336Y764720D01*
X926371Y762638D01*
X929355Y760481D01*
X932285Y758252D01*
X935159Y755952D01*
X937976Y753581D01*
X940734Y751143D01*
X943431Y748637D01*
X946066Y746066D01*
X948637Y743431D01*
X951143Y740734D01*
X953581Y737976D01*
X955952Y735159D01*
X958252Y732285D01*
X960481Y729355D01*
X962638Y726371D01*
X964720Y723336D01*
X966728Y720250D01*
X968659Y717115D01*
X970513Y713935D01*
X972288Y710710D01*
X973984Y707442D01*
X975598Y704133D01*
X977131Y700786D01*
X978582Y697403D01*
X979949Y693984D01*
X981232Y690533D01*
X982429Y687052D01*
X983541Y683543D01*
X984566Y680007D01*
X985505Y676447D01*
X986355Y672865D01*
X987118Y669264D01*
X987792Y665644D01*
X988376Y662010D01*
X988872Y658362D01*
X989278Y654703D01*
X989594Y651035D01*
X989819Y647360D01*
X989955Y643681D01*
X990000Y640000D01*
X989955Y636319D01*
X989819Y632640D01*
X989594Y628965D01*
X989278Y625297D01*
X988872Y621638D01*
X988376Y617990D01*
X987792Y614356D01*
X987118Y610736D01*
X986355Y607135D01*
X985505Y603553D01*
X984566Y599993D01*
X983541Y596457D01*
X982429Y592948D01*
X981232Y589467D01*
X979949Y586016D01*
X978582Y582597D01*
X977131Y579214D01*
X975598Y575867D01*
X973984Y572558D01*
X972288Y569290D01*
X970513Y566065D01*
X968659Y562885D01*
X966728Y559750D01*
X964720Y556664D01*
X962638Y553629D01*
X960481Y550645D01*
X958252Y547715D01*
X955952Y544841D01*
X953581Y542024D01*
X951143Y539266D01*
X948637Y536569D01*
X946066Y533934D01*
X943431Y531363D01*
X940734Y528857D01*
X937976Y526419D01*
X935159Y524048D01*
X932285Y521748D01*
X929355Y519519D01*
X926371Y517362D01*
X923336Y515280D01*
X920250Y513272D01*
X917115Y511341D01*
X913935Y509487D01*
X910710Y507712D01*
X907442Y506016D01*
X904133Y504402D01*
X900786Y502869D01*
X897403Y501418D01*
X893984Y500051D01*
X890533Y498768D01*
X887052Y497571D01*
X883543Y496459D01*
X880007Y495434D01*
X876447Y494495D01*
X872865Y493645D01*
X869264Y492882D01*
X865644Y492208D01*
X862010Y491624D01*
X858362Y491128D01*
X854703Y490722D01*
X851035Y490406D01*
X847360Y490181D01*
X843681Y490045D01*
X840000Y490000D01*
X836319Y490045D01*
X832640Y490181D01*
X828965Y490406D01*
X825297Y490722D01*
X821638Y491128D01*
X817990Y491624D01*
X814356Y492208D01*
X810736Y492882D01*
X807135Y493645D01*
X803553Y494495D01*
X799993Y495434D01*
X796457Y496459D01*
X792948Y497571D01*
X789467Y498768D01*
X786016Y500051D01*
X782597Y501418D01*
X779214Y502869D01*
X775867Y504402D01*
X772558Y506016D01*
X769290Y507712D01*
X766065Y509487D01*
X762885Y511341D01*
X759750Y513272D01*
X756664Y515280D01*
X753629Y517362D01*
X750645Y519519D01*
X747715Y521748D01*
X744841Y524048D01*
X742024Y526419D01*
X739266Y528857D01*
X736569Y531363D01*
X733934Y533934D01*
X731363Y536569D01*
X728857Y539266D01*
X726419Y542024D01*
X724048Y544841D01*
X721748Y547715D01*
X719519Y550645D01*
X717362Y553629D01*
X715280Y556664D01*
X713272Y559750D01*
X711341Y562885D01*
X709487Y566065D01*
X707712Y569290D01*
X706016Y572558D01*
X704402Y575867D01*
X702869Y579214D01*
X701418Y582597D01*
X700051Y586016D01*
X698768Y589467D01*
X697571Y592948D01*
X696459Y596457D01*
X695434Y599993D01*
X694495Y603553D01*
X693645Y607135D01*
X692882Y610736D01*
X692208Y614356D01*
X691624Y617990D01*
X691128Y621638D01*
X690722Y625297D01*
X690406Y628965D01*
X690181Y632640D01*
X690045Y636319D01*
X690000Y640000D01*
D20*
X759991Y650832D02*
X759991Y664221D01*
X753297Y657527D02*
X766686Y657527D01*
D11*
X780296Y671525D02*
X779067Y672753D01*
X776610Y672753D01*
X775381Y671525D01*
X775381Y670296D01*
X776610Y669067D01*
X779067Y669067D01*
X780296Y667838D01*
X780296Y666610D01*
X779067Y665381D01*
X776610Y665381D01*
X775381Y666610D01*
X786551Y672753D02*
X787780Y671525D01*
X786551Y672753D02*
X784094Y672753D01*
X782865Y671525D01*
X782865Y666610D01*
X784094Y665381D01*
X786551Y665381D01*
X787780Y666610D01*
X787780Y669067D01*
X785323Y669067D01*
X790349Y670296D02*
X792807Y672753D01*
X792807Y665381D01*
X795264Y665381D02*
X790349Y665381D01*
D15*
X554600Y750950D02*
X554600Y789050D01*
D21*
X553930Y750320D02*
X555393Y751418D01*
X555392Y751417D02*
X555854Y750821D01*
X556330Y750236D01*
X556821Y749663D01*
X557325Y749102D01*
X557843Y748554D01*
X558374Y748019D01*
X558918Y747496D01*
X559475Y746988D01*
X560044Y746492D01*
X560625Y746011D01*
X561217Y745545D01*
X561821Y745093D01*
X562435Y744656D01*
X563060Y744234D01*
X563696Y743827D01*
X564341Y743436D01*
X564995Y743061D01*
X565658Y742702D01*
X566330Y742360D01*
X567010Y742034D01*
X567698Y741724D01*
X568393Y741432D01*
X569095Y741156D01*
X569804Y740898D01*
X570519Y740658D01*
X571239Y740435D01*
X571965Y740229D01*
X572695Y740042D01*
X573430Y739872D01*
X574169Y739720D01*
X574911Y739587D01*
X575657Y739471D01*
X576405Y739374D01*
X577155Y739296D01*
X577906Y739235D01*
X578659Y739193D01*
X579413Y739170D01*
X580167Y739164D01*
X580922Y739178D01*
X581675Y739210D01*
X582428Y739260D01*
X583179Y739328D01*
X583928Y739415D01*
X584675Y739520D01*
X585419Y739644D01*
X586159Y739785D01*
X586897Y739945D01*
X587630Y740123D01*
X588358Y740318D01*
X589081Y740532D01*
X589799Y740762D01*
X590511Y741011D01*
X591217Y741277D01*
X591916Y741560D01*
X592608Y741859D01*
X593293Y742176D01*
X593969Y742510D01*
X594637Y742860D01*
X595297Y743226D01*
X595947Y743608D01*
X596588Y744006D01*
X597219Y744419D01*
X597839Y744848D01*
X598449Y745292D01*
X599048Y745750D01*
X599635Y746223D01*
X600211Y746711D01*
X600774Y747212D01*
X601325Y747727D01*
X601863Y748255D01*
X602389Y748796D01*
X602901Y749350D01*
X603399Y749916D01*
X603883Y750495D01*
X604353Y751084D01*
X604808Y751686D01*
X605249Y752298D01*
X605674Y752921D01*
X606084Y753554D01*
X606478Y754197D01*
X606857Y754849D01*
X607220Y755510D01*
X607566Y756180D01*
X607896Y756859D01*
X608209Y757545D01*
X608505Y758238D01*
X608784Y758939D01*
X609046Y759646D01*
X609290Y760360D01*
X609517Y761079D01*
X609727Y761803D01*
X609918Y762533D01*
X610092Y763267D01*
X610248Y764005D01*
X610385Y764746D01*
X610505Y765491D01*
X610606Y766238D01*
X610689Y766988D01*
X610753Y767739D01*
X610799Y768492D01*
X610827Y769246D01*
X610836Y770000D01*
X610827Y770754D01*
X610799Y771508D01*
X610753Y772261D01*
X610689Y773012D01*
X610606Y773762D01*
X610505Y774509D01*
X610385Y775254D01*
X610248Y775995D01*
X610092Y776733D01*
X609918Y777467D01*
X609727Y778197D01*
X609517Y778921D01*
X609290Y779640D01*
X609046Y780354D01*
X608784Y781061D01*
X608505Y781762D01*
X608209Y782455D01*
X607896Y783141D01*
X607566Y783820D01*
X607220Y784490D01*
X606857Y785151D01*
X606478Y785803D01*
X606084Y786446D01*
X605674Y787079D01*
X605249Y787702D01*
X604808Y788314D01*
X604353Y788916D01*
X603883Y789505D01*
X603399Y790084D01*
X602901Y790650D01*
X602389Y791204D01*
X601863Y791745D01*
X601325Y792273D01*
X600774Y792788D01*
X600211Y793289D01*
X599635Y793777D01*
X599048Y794250D01*
X598449Y794708D01*
X597839Y795152D01*
X597219Y795581D01*
X596588Y795994D01*
X595947Y796392D01*
X595297Y796774D01*
X594637Y797140D01*
X593969Y797490D01*
X593293Y797824D01*
X592608Y798141D01*
X591916Y798440D01*
X591217Y798723D01*
X590511Y798989D01*
X589799Y799238D01*
X589081Y799468D01*
X588358Y799682D01*
X587630Y799877D01*
X586897Y800055D01*
X586159Y800215D01*
X585419Y800356D01*
X584675Y800480D01*
X583928Y800585D01*
X583179Y800672D01*
X582428Y800740D01*
X581675Y800790D01*
X580922Y800822D01*
X580167Y800836D01*
X579413Y800830D01*
X578659Y800807D01*
X577906Y800765D01*
X577155Y800704D01*
X576405Y800626D01*
X575657Y800529D01*
X574911Y800413D01*
X574169Y800280D01*
X573430Y800128D01*
X572695Y799958D01*
X571965Y799771D01*
X571239Y799565D01*
X570519Y799342D01*
X569804Y799102D01*
X569095Y798844D01*
X568393Y798568D01*
X567698Y798276D01*
X567010Y797966D01*
X566330Y797640D01*
X565658Y797298D01*
X564995Y796939D01*
X564341Y796564D01*
X563696Y796173D01*
X563060Y795766D01*
X562435Y795344D01*
X561821Y794907D01*
X561217Y794455D01*
X560625Y793989D01*
X560044Y793508D01*
X559475Y793012D01*
X558918Y792504D01*
X558374Y791981D01*
X557843Y791446D01*
X557325Y790898D01*
X556821Y790337D01*
X556330Y789764D01*
X555854Y789179D01*
X555392Y788583D01*
X553930Y789680D01*
X553929Y789680D01*
X554418Y790312D01*
X554923Y790931D01*
X555442Y791539D01*
X555976Y792133D01*
X556525Y792714D01*
X557087Y793281D01*
X557664Y793835D01*
X558253Y794374D01*
X558856Y794898D01*
X559471Y795408D01*
X560099Y795903D01*
X560738Y796382D01*
X561389Y796845D01*
X562051Y797292D01*
X562724Y797723D01*
X563407Y798137D01*
X564101Y798534D01*
X564803Y798915D01*
X565515Y799278D01*
X566235Y799623D01*
X566964Y799951D01*
X567700Y800261D01*
X568444Y800553D01*
X569195Y800826D01*
X569952Y801081D01*
X570715Y801318D01*
X571484Y801535D01*
X572258Y801734D01*
X573036Y801914D01*
X573819Y802075D01*
X574605Y802216D01*
X575395Y802339D01*
X576187Y802442D01*
X576982Y802525D01*
X577778Y802589D01*
X578576Y802634D01*
X579375Y802659D01*
X580174Y802665D01*
X580973Y802651D01*
X581771Y802617D01*
X582568Y802564D01*
X583364Y802491D01*
X584157Y802399D01*
X584949Y802288D01*
X585737Y802157D01*
X586522Y802007D01*
X587302Y801838D01*
X588079Y801650D01*
X588851Y801443D01*
X589617Y801217D01*
X590378Y800973D01*
X591132Y800710D01*
X591880Y800428D01*
X592621Y800128D01*
X593354Y799811D01*
X594079Y799475D01*
X594796Y799122D01*
X595503Y798751D01*
X596202Y798364D01*
X596891Y797959D01*
X597570Y797537D01*
X598238Y797100D01*
X598895Y796645D01*
X599541Y796175D01*
X600176Y795689D01*
X600798Y795188D01*
X601408Y794672D01*
X602005Y794141D01*
X602589Y793596D01*
X603159Y793036D01*
X603715Y792463D01*
X604258Y791876D01*
X604786Y791276D01*
X605299Y790664D01*
X605796Y790039D01*
X606279Y789402D01*
X606745Y788753D01*
X607196Y788094D01*
X607630Y787423D01*
X608048Y786742D01*
X608449Y786051D01*
X608833Y785350D01*
X609200Y784640D01*
X609550Y783922D01*
X609881Y783195D01*
X610195Y782460D01*
X610491Y781718D01*
X610768Y780969D01*
X611027Y780213D01*
X611268Y779451D01*
X611490Y778683D01*
X611693Y777911D01*
X611877Y777133D01*
X612042Y776351D01*
X612187Y775566D01*
X612314Y774777D01*
X612421Y773985D01*
X612509Y773191D01*
X612577Y772395D01*
X612626Y771597D01*
X612655Y770799D01*
X612665Y770000D01*
X612655Y769201D01*
X612626Y768403D01*
X612577Y767605D01*
X612509Y766809D01*
X612421Y766015D01*
X612314Y765223D01*
X612187Y764434D01*
X612042Y763649D01*
X611877Y762867D01*
X611693Y762089D01*
X611490Y761317D01*
X611268Y760549D01*
X611027Y759787D01*
X610768Y759031D01*
X610491Y758282D01*
X610195Y757540D01*
X609881Y756805D01*
X609550Y756078D01*
X609200Y755360D01*
X608833Y754650D01*
X608449Y753949D01*
X608048Y753258D01*
X607630Y752577D01*
X607196Y751906D01*
X606745Y751247D01*
X606279Y750598D01*
X605796Y749961D01*
X605299Y749336D01*
X604786Y748724D01*
X604258Y748124D01*
X603715Y747537D01*
X603159Y746964D01*
X602589Y746404D01*
X602005Y745859D01*
X601408Y745328D01*
X600798Y744812D01*
X600176Y744311D01*
X599541Y743825D01*
X598895Y743355D01*
X598238Y742900D01*
X597570Y742463D01*
X596891Y742041D01*
X596202Y741636D01*
X595503Y741249D01*
X594796Y740878D01*
X594079Y740525D01*
X593354Y740189D01*
X592621Y739872D01*
X591880Y739572D01*
X591132Y739290D01*
X590378Y739027D01*
X589617Y738783D01*
X588851Y738557D01*
X588079Y738350D01*
X587302Y738162D01*
X586522Y737993D01*
X585737Y737843D01*
X584949Y737712D01*
X584157Y737601D01*
X583364Y737509D01*
X582568Y737436D01*
X581771Y737383D01*
X580973Y737349D01*
X580174Y737335D01*
X579375Y737341D01*
X578576Y737366D01*
X577778Y737411D01*
X576982Y737475D01*
X576187Y737558D01*
X575395Y737661D01*
X574605Y737784D01*
X573819Y737925D01*
X573036Y738086D01*
X572258Y738266D01*
X571484Y738465D01*
X570715Y738682D01*
X569952Y738919D01*
X569195Y739174D01*
X568444Y739447D01*
X567700Y739739D01*
X566964Y740049D01*
X566235Y740377D01*
X565515Y740722D01*
X564803Y741085D01*
X564101Y741466D01*
X563407Y741863D01*
X562724Y742277D01*
X562051Y742708D01*
X561389Y743155D01*
X560738Y743618D01*
X560099Y744097D01*
X559471Y744592D01*
X558856Y745102D01*
X558253Y745626D01*
X557664Y746165D01*
X557087Y746719D01*
X556525Y747286D01*
X555976Y747867D01*
X555442Y748461D01*
X554923Y749069D01*
X554418Y749688D01*
X553929Y750320D01*
X554083Y750435D01*
X554569Y749807D01*
X555070Y749191D01*
X555587Y748588D01*
X556118Y747997D01*
X556663Y747419D01*
X557222Y746855D01*
X557795Y746305D01*
X558381Y745769D01*
X558981Y745248D01*
X559592Y744741D01*
X560216Y744249D01*
X560852Y743773D01*
X561499Y743313D01*
X562157Y742868D01*
X562826Y742440D01*
X563505Y742028D01*
X564194Y741633D01*
X564893Y741255D01*
X565601Y740894D01*
X566317Y740551D01*
X567041Y740225D01*
X567773Y739917D01*
X568513Y739627D01*
X569259Y739355D01*
X570012Y739101D01*
X570770Y738866D01*
X571535Y738650D01*
X572304Y738452D01*
X573078Y738273D01*
X573856Y738114D01*
X574638Y737973D01*
X575422Y737851D01*
X576210Y737749D01*
X577000Y737666D01*
X577792Y737602D01*
X578585Y737558D01*
X579379Y737533D01*
X580173Y737527D01*
X580967Y737541D01*
X581761Y737575D01*
X582553Y737628D01*
X583344Y737700D01*
X584133Y737791D01*
X584920Y737902D01*
X585703Y738032D01*
X586484Y738181D01*
X587260Y738349D01*
X588032Y738536D01*
X588799Y738742D01*
X589561Y738966D01*
X590317Y739209D01*
X591067Y739471D01*
X591810Y739751D01*
X592547Y740049D01*
X593275Y740365D01*
X593996Y740698D01*
X594709Y741049D01*
X595412Y741418D01*
X596107Y741803D01*
X596792Y742206D01*
X597467Y742625D01*
X598131Y743060D01*
X598784Y743511D01*
X599427Y743979D01*
X600057Y744462D01*
X600676Y744960D01*
X601282Y745473D01*
X601876Y746001D01*
X602456Y746543D01*
X603023Y747099D01*
X603576Y747669D01*
X604115Y748253D01*
X604640Y748849D01*
X605150Y749458D01*
X605645Y750079D01*
X606124Y750712D01*
X606588Y751357D01*
X607036Y752013D01*
X607468Y752680D01*
X607884Y753357D01*
X608282Y754044D01*
X608664Y754740D01*
X609029Y755446D01*
X609376Y756160D01*
X609706Y756883D01*
X610018Y757613D01*
X610312Y758351D01*
X610587Y759096D01*
X610845Y759847D01*
X611084Y760605D01*
X611305Y761368D01*
X611506Y762136D01*
X611689Y762909D01*
X611853Y763686D01*
X611998Y764467D01*
X612124Y765251D01*
X612230Y766038D01*
X612318Y766828D01*
X612386Y767619D01*
X612434Y768412D01*
X612463Y769206D01*
X612473Y770000D01*
X612463Y770794D01*
X612434Y771588D01*
X612386Y772381D01*
X612318Y773172D01*
X612230Y773962D01*
X612124Y774749D01*
X611998Y775533D01*
X611853Y776314D01*
X611689Y777091D01*
X611506Y777864D01*
X611305Y778632D01*
X611084Y779395D01*
X610845Y780153D01*
X610587Y780904D01*
X610312Y781649D01*
X610018Y782387D01*
X609706Y783117D01*
X609376Y783840D01*
X609029Y784554D01*
X608664Y785260D01*
X608282Y785956D01*
X607884Y786643D01*
X607468Y787320D01*
X607036Y787987D01*
X606588Y788643D01*
X606124Y789288D01*
X605645Y789921D01*
X605150Y790542D01*
X604640Y791151D01*
X604115Y791747D01*
X603576Y792331D01*
X603023Y792901D01*
X602456Y793457D01*
X601876Y793999D01*
X601282Y794527D01*
X600676Y795040D01*
X600057Y795538D01*
X599427Y796021D01*
X598784Y796489D01*
X598131Y796940D01*
X597467Y797375D01*
X596792Y797794D01*
X596107Y798197D01*
X595412Y798582D01*
X594709Y798951D01*
X593996Y799302D01*
X593275Y799635D01*
X592547Y799951D01*
X591810Y800249D01*
X591067Y800529D01*
X590317Y800791D01*
X589561Y801034D01*
X588799Y801258D01*
X588032Y801464D01*
X587260Y801651D01*
X586484Y801819D01*
X585703Y801968D01*
X584920Y802098D01*
X584133Y802209D01*
X583344Y802300D01*
X582553Y802372D01*
X581761Y802425D01*
X580967Y802459D01*
X580173Y802473D01*
X579379Y802467D01*
X578585Y802442D01*
X577792Y802398D01*
X577000Y802334D01*
X576210Y802251D01*
X575422Y802149D01*
X574638Y802027D01*
X573856Y801886D01*
X573078Y801727D01*
X572304Y801548D01*
X571535Y801350D01*
X570770Y801134D01*
X570012Y800899D01*
X569259Y800645D01*
X568513Y800373D01*
X567773Y800083D01*
X567041Y799775D01*
X566317Y799449D01*
X565601Y799106D01*
X564893Y798745D01*
X564194Y798367D01*
X563505Y797972D01*
X562826Y797560D01*
X562157Y797132D01*
X561499Y796687D01*
X560852Y796227D01*
X560216Y795751D01*
X559592Y795259D01*
X558981Y794752D01*
X558381Y794231D01*
X557795Y793695D01*
X557222Y793145D01*
X556663Y792581D01*
X556118Y792003D01*
X555587Y791412D01*
X555070Y790809D01*
X554569Y790193D01*
X554083Y789565D01*
X554236Y789450D01*
X554720Y790074D01*
X555218Y790686D01*
X555732Y791286D01*
X556259Y791873D01*
X556801Y792448D01*
X557357Y793008D01*
X557927Y793555D01*
X558510Y794088D01*
X559105Y794606D01*
X559713Y795110D01*
X560333Y795599D01*
X560965Y796072D01*
X561609Y796530D01*
X562263Y796972D01*
X562928Y797397D01*
X563603Y797807D01*
X564288Y798199D01*
X564983Y798575D01*
X565686Y798934D01*
X566398Y799275D01*
X567118Y799599D01*
X567846Y799906D01*
X568581Y800194D01*
X569323Y800464D01*
X570071Y800716D01*
X570825Y800950D01*
X571585Y801165D01*
X572350Y801361D01*
X573119Y801539D01*
X573893Y801698D01*
X574670Y801838D01*
X575450Y801959D01*
X576233Y802060D01*
X577018Y802143D01*
X577805Y802206D01*
X578594Y802250D01*
X579383Y802275D01*
X580172Y802281D01*
X580962Y802267D01*
X581751Y802233D01*
X582539Y802181D01*
X583325Y802109D01*
X584109Y802018D01*
X584891Y801908D01*
X585670Y801779D01*
X586446Y801631D01*
X587217Y801464D01*
X587985Y801278D01*
X588747Y801073D01*
X589505Y800850D01*
X590256Y800608D01*
X591002Y800348D01*
X591741Y800070D01*
X592473Y799774D01*
X593197Y799460D01*
X593914Y799128D01*
X594622Y798779D01*
X595322Y798413D01*
X596012Y798030D01*
X596693Y797630D01*
X597363Y797213D01*
X598024Y796781D01*
X598673Y796332D01*
X599312Y795867D01*
X599939Y795387D01*
X600554Y794892D01*
X601156Y794382D01*
X601746Y793857D01*
X602323Y793318D01*
X602887Y792765D01*
X603437Y792199D01*
X603973Y791619D01*
X604494Y791026D01*
X605001Y790421D01*
X605493Y789803D01*
X605970Y789173D01*
X606431Y788533D01*
X606877Y787881D01*
X607306Y787218D01*
X607719Y786545D01*
X608115Y785862D01*
X608495Y785170D01*
X608857Y784468D01*
X609202Y783758D01*
X609530Y783040D01*
X609840Y782314D01*
X610132Y781580D01*
X610407Y780840D01*
X610663Y780093D01*
X610900Y779340D01*
X611120Y778581D01*
X611320Y777818D01*
X611502Y777049D01*
X611665Y776277D01*
X611809Y775500D01*
X611934Y774721D01*
X612040Y773938D01*
X612127Y773153D01*
X612194Y772367D01*
X612242Y771579D01*
X612271Y770790D01*
X612281Y770000D01*
X612271Y769210D01*
X612242Y768421D01*
X612194Y767633D01*
X612127Y766847D01*
X612040Y766062D01*
X611934Y765279D01*
X611809Y764500D01*
X611665Y763723D01*
X611502Y762951D01*
X611320Y762182D01*
X611120Y761419D01*
X610900Y760660D01*
X610663Y759907D01*
X610407Y759160D01*
X610132Y758420D01*
X609840Y757686D01*
X609530Y756960D01*
X609202Y756242D01*
X608857Y755532D01*
X608495Y754830D01*
X608115Y754138D01*
X607719Y753455D01*
X607306Y752782D01*
X606877Y752119D01*
X606431Y751467D01*
X605970Y750827D01*
X605493Y750197D01*
X605001Y749579D01*
X604494Y748974D01*
X603973Y748381D01*
X603437Y747801D01*
X602887Y747235D01*
X602323Y746682D01*
X601746Y746143D01*
X601156Y745618D01*
X600554Y745108D01*
X599939Y744613D01*
X599312Y744133D01*
X598673Y743668D01*
X598024Y743219D01*
X597363Y742787D01*
X596693Y742370D01*
X596012Y741970D01*
X595322Y741587D01*
X594622Y741221D01*
X593914Y740872D01*
X593197Y740540D01*
X592473Y740226D01*
X591741Y739930D01*
X591002Y739652D01*
X590256Y739392D01*
X589505Y739150D01*
X588747Y738927D01*
X587985Y738722D01*
X587217Y738536D01*
X586446Y738369D01*
X585670Y738221D01*
X584891Y738092D01*
X584109Y737982D01*
X583325Y737891D01*
X582539Y737819D01*
X581751Y737767D01*
X580962Y737733D01*
X580172Y737719D01*
X579383Y737725D01*
X578594Y737750D01*
X577805Y737794D01*
X577018Y737857D01*
X576233Y737940D01*
X575450Y738041D01*
X574670Y738162D01*
X573893Y738302D01*
X573119Y738461D01*
X572350Y738639D01*
X571585Y738835D01*
X570825Y739050D01*
X570071Y739284D01*
X569323Y739536D01*
X568581Y739806D01*
X567846Y740094D01*
X567118Y740401D01*
X566398Y740725D01*
X565686Y741066D01*
X564983Y741425D01*
X564288Y741801D01*
X563603Y742193D01*
X562928Y742603D01*
X562263Y743028D01*
X561609Y743470D01*
X560965Y743928D01*
X560333Y744401D01*
X559713Y744890D01*
X559105Y745394D01*
X558510Y745912D01*
X557927Y746445D01*
X557357Y746992D01*
X556801Y747552D01*
X556259Y748127D01*
X555732Y748714D01*
X555218Y749314D01*
X554720Y749926D01*
X554236Y750550D01*
X554390Y750665D01*
X554870Y750045D01*
X555366Y749436D01*
X555876Y748840D01*
X556401Y748256D01*
X556940Y747686D01*
X557493Y747128D01*
X558059Y746585D01*
X558638Y746055D01*
X559230Y745540D01*
X559834Y745039D01*
X560451Y744553D01*
X561079Y744083D01*
X561719Y743628D01*
X562369Y743189D01*
X563030Y742765D01*
X563701Y742358D01*
X564382Y741968D01*
X565072Y741594D01*
X565772Y741238D01*
X566479Y740899D01*
X567195Y740577D01*
X567919Y740272D01*
X568649Y739986D01*
X569387Y739717D01*
X570131Y739466D01*
X570880Y739234D01*
X571636Y739020D01*
X572396Y738825D01*
X573160Y738648D01*
X573929Y738490D01*
X574702Y738351D01*
X575477Y738231D01*
X576256Y738130D01*
X577036Y738048D01*
X577819Y737985D01*
X578602Y737941D01*
X579387Y737917D01*
X580172Y737911D01*
X580956Y737925D01*
X581741Y737958D01*
X582524Y738010D01*
X583305Y738082D01*
X584085Y738172D01*
X584862Y738282D01*
X585637Y738410D01*
X586408Y738557D01*
X587175Y738723D01*
X587937Y738908D01*
X588696Y739112D01*
X589448Y739334D01*
X590196Y739574D01*
X590937Y739832D01*
X591671Y740109D01*
X592399Y740403D01*
X593119Y740715D01*
X593831Y741045D01*
X594535Y741392D01*
X595231Y741756D01*
X595917Y742137D01*
X596594Y742534D01*
X597260Y742949D01*
X597917Y743379D01*
X598563Y743825D01*
X599197Y744287D01*
X599820Y744764D01*
X600432Y745256D01*
X601031Y745763D01*
X601617Y746285D01*
X602191Y746821D01*
X602751Y747370D01*
X603298Y747934D01*
X603830Y748510D01*
X604349Y749099D01*
X604853Y749701D01*
X605342Y750315D01*
X605816Y750941D01*
X606274Y751578D01*
X606717Y752226D01*
X607143Y752885D01*
X607554Y753554D01*
X607948Y754232D01*
X608325Y754921D01*
X608686Y755618D01*
X609029Y756324D01*
X609355Y757038D01*
X609663Y757760D01*
X609953Y758489D01*
X610226Y759225D01*
X610480Y759967D01*
X610717Y760716D01*
X610934Y761470D01*
X611134Y762229D01*
X611315Y762993D01*
X611477Y763761D01*
X611620Y764533D01*
X611744Y765307D01*
X611849Y766085D01*
X611936Y766865D01*
X612003Y767647D01*
X612051Y768431D01*
X612079Y769215D01*
X612089Y770000D01*
X612079Y770785D01*
X612051Y771569D01*
X612003Y772353D01*
X611936Y773135D01*
X611849Y773915D01*
X611744Y774693D01*
X611620Y775467D01*
X611477Y776239D01*
X611315Y777007D01*
X611134Y777771D01*
X610934Y778530D01*
X610717Y779284D01*
X610480Y780033D01*
X610226Y780775D01*
X609953Y781511D01*
X609663Y782240D01*
X609355Y782962D01*
X609029Y783676D01*
X608686Y784382D01*
X608325Y785079D01*
X607948Y785768D01*
X607554Y786446D01*
X607143Y787115D01*
X606717Y787774D01*
X606274Y788422D01*
X605816Y789059D01*
X605342Y789685D01*
X604853Y790299D01*
X604349Y790901D01*
X603830Y791490D01*
X603298Y792066D01*
X602751Y792630D01*
X602191Y793179D01*
X601617Y793715D01*
X601031Y794237D01*
X600432Y794744D01*
X599820Y795236D01*
X599197Y795713D01*
X598563Y796175D01*
X597917Y796621D01*
X597260Y797051D01*
X596594Y797466D01*
X595917Y797863D01*
X595231Y798244D01*
X594535Y798608D01*
X593831Y798955D01*
X593119Y799285D01*
X592399Y799597D01*
X591671Y799891D01*
X590937Y800168D01*
X590196Y800426D01*
X589448Y800666D01*
X588696Y800888D01*
X587937Y801092D01*
X587175Y801277D01*
X586408Y801443D01*
X585637Y801590D01*
X584862Y801718D01*
X584085Y801828D01*
X583305Y801918D01*
X582524Y801990D01*
X581741Y802042D01*
X580956Y802075D01*
X580172Y802089D01*
X579387Y802083D01*
X578602Y802059D01*
X577819Y802015D01*
X577036Y801952D01*
X576256Y801870D01*
X575477Y801769D01*
X574702Y801649D01*
X573929Y801510D01*
X573160Y801352D01*
X572396Y801175D01*
X571636Y800980D01*
X570880Y800766D01*
X570131Y800534D01*
X569387Y800283D01*
X568649Y800014D01*
X567919Y799728D01*
X567195Y799423D01*
X566479Y799101D01*
X565772Y798762D01*
X565072Y798406D01*
X564382Y798032D01*
X563701Y797642D01*
X563030Y797235D01*
X562369Y796811D01*
X561719Y796372D01*
X561079Y795917D01*
X560451Y795447D01*
X559834Y794961D01*
X559230Y794460D01*
X558638Y793945D01*
X558059Y793415D01*
X557493Y792872D01*
X556940Y792314D01*
X556401Y791744D01*
X555876Y791160D01*
X555366Y790564D01*
X554870Y789955D01*
X554390Y789335D01*
X554543Y789219D01*
X555021Y789836D01*
X555514Y790441D01*
X556021Y791034D01*
X556543Y791614D01*
X557078Y792181D01*
X557628Y792735D01*
X558190Y793276D01*
X558766Y793802D01*
X559355Y794314D01*
X559955Y794812D01*
X560568Y795295D01*
X561193Y795762D01*
X561828Y796215D01*
X562475Y796651D01*
X563132Y797072D01*
X563799Y797476D01*
X564476Y797864D01*
X565162Y798236D01*
X565857Y798590D01*
X566561Y798928D01*
X567272Y799248D01*
X567991Y799550D01*
X568718Y799835D01*
X569451Y800102D01*
X570190Y800351D01*
X570935Y800582D01*
X571686Y800794D01*
X572442Y800989D01*
X573202Y801164D01*
X573966Y801321D01*
X574734Y801459D01*
X575505Y801579D01*
X576279Y801679D01*
X577054Y801761D01*
X577832Y801823D01*
X578611Y801867D01*
X579391Y801891D01*
X580171Y801897D01*
X580951Y801883D01*
X581731Y801850D01*
X582509Y801798D01*
X583286Y801727D01*
X584061Y801637D01*
X584834Y801529D01*
X585603Y801401D01*
X586370Y801255D01*
X587132Y801089D01*
X587890Y800906D01*
X588644Y800703D01*
X589392Y800483D01*
X590135Y800244D01*
X590872Y799987D01*
X591602Y799712D01*
X592325Y799420D01*
X593041Y799109D01*
X593749Y798782D01*
X594449Y798437D01*
X595140Y798075D01*
X595822Y797696D01*
X596495Y797301D01*
X597157Y796890D01*
X597810Y796462D01*
X598452Y796018D01*
X599083Y795559D01*
X599702Y795085D01*
X600310Y794596D01*
X600905Y794091D01*
X601488Y793573D01*
X602058Y793040D01*
X602615Y792494D01*
X603158Y791934D01*
X603688Y791361D01*
X604203Y790775D01*
X604704Y790177D01*
X605190Y789567D01*
X605661Y788945D01*
X606117Y788312D01*
X606557Y787668D01*
X606981Y787013D01*
X607389Y786348D01*
X607781Y785673D01*
X608156Y784989D01*
X608514Y784296D01*
X608855Y783594D01*
X609179Y782884D01*
X609485Y782167D01*
X609774Y781442D01*
X610045Y780711D01*
X610298Y779973D01*
X610533Y779229D01*
X610749Y778479D01*
X610948Y777724D01*
X611127Y776965D01*
X611288Y776202D01*
X611431Y775435D01*
X611554Y774664D01*
X611659Y773891D01*
X611744Y773116D01*
X611811Y772338D01*
X611859Y771560D01*
X611887Y770780D01*
X611897Y770000D01*
X611887Y769220D01*
X611859Y768440D01*
X611811Y767662D01*
X611744Y766884D01*
X611659Y766109D01*
X611554Y765336D01*
X611431Y764565D01*
X611288Y763798D01*
X611127Y763035D01*
X610948Y762276D01*
X610749Y761521D01*
X610533Y760771D01*
X610298Y760027D01*
X610045Y759289D01*
X609774Y758558D01*
X609485Y757833D01*
X609179Y757116D01*
X608855Y756406D01*
X608514Y755704D01*
X608156Y755011D01*
X607781Y754327D01*
X607389Y753652D01*
X606981Y752987D01*
X606557Y752332D01*
X606117Y751688D01*
X605661Y751055D01*
X605190Y750433D01*
X604704Y749823D01*
X604203Y749225D01*
X603688Y748639D01*
X603158Y748066D01*
X602615Y747506D01*
X602058Y746960D01*
X601488Y746427D01*
X600905Y745909D01*
X600310Y745404D01*
X599702Y744915D01*
X599083Y744441D01*
X598452Y743982D01*
X597810Y743538D01*
X597157Y743110D01*
X596495Y742699D01*
X595822Y742304D01*
X595140Y741925D01*
X594449Y741563D01*
X593749Y741218D01*
X593041Y740891D01*
X592325Y740580D01*
X591602Y740288D01*
X590872Y740013D01*
X590135Y739756D01*
X589392Y739517D01*
X588644Y739297D01*
X587890Y739094D01*
X587132Y738911D01*
X586370Y738745D01*
X585603Y738599D01*
X584834Y738471D01*
X584061Y738363D01*
X583286Y738273D01*
X582509Y738202D01*
X581731Y738150D01*
X580951Y738117D01*
X580171Y738103D01*
X579391Y738109D01*
X578611Y738133D01*
X577832Y738177D01*
X577054Y738239D01*
X576279Y738321D01*
X575505Y738421D01*
X574734Y738541D01*
X573966Y738679D01*
X573202Y738836D01*
X572442Y739011D01*
X571686Y739206D01*
X570935Y739418D01*
X570190Y739649D01*
X569451Y739898D01*
X568718Y740165D01*
X567991Y740450D01*
X567272Y740752D01*
X566561Y741072D01*
X565857Y741410D01*
X565162Y741764D01*
X564476Y742136D01*
X563799Y742524D01*
X563132Y742928D01*
X562475Y743349D01*
X561828Y743785D01*
X561193Y744238D01*
X560568Y744705D01*
X559955Y745188D01*
X559355Y745686D01*
X558766Y746198D01*
X558190Y746724D01*
X557628Y747265D01*
X557078Y747819D01*
X556543Y748386D01*
X556021Y748966D01*
X555514Y749559D01*
X555021Y750164D01*
X554543Y750781D01*
X554697Y750896D01*
X555172Y750283D01*
X555661Y749681D01*
X556166Y749092D01*
X556684Y748516D01*
X557217Y747952D01*
X557763Y747401D01*
X558322Y746864D01*
X558894Y746341D01*
X559479Y745832D01*
X560077Y745337D01*
X560686Y744857D01*
X561306Y744392D01*
X561938Y743943D01*
X562581Y743509D01*
X563234Y743091D01*
X563897Y742689D01*
X564570Y742303D01*
X565252Y741934D01*
X565943Y741582D01*
X566642Y741246D01*
X567349Y740928D01*
X568064Y740628D01*
X568786Y740344D01*
X569515Y740079D01*
X570250Y739832D01*
X570990Y739602D01*
X571737Y739391D01*
X572488Y739198D01*
X573243Y739023D01*
X574003Y738867D01*
X574766Y738730D01*
X575532Y738611D01*
X576301Y738511D01*
X577073Y738430D01*
X577846Y738368D01*
X578620Y738325D01*
X579395Y738301D01*
X580170Y738295D01*
X580946Y738309D01*
X581721Y738342D01*
X582494Y738393D01*
X583267Y738464D01*
X584037Y738553D01*
X584805Y738661D01*
X585570Y738788D01*
X586332Y738934D01*
X587089Y739098D01*
X587843Y739280D01*
X588592Y739481D01*
X589336Y739701D01*
X590074Y739938D01*
X590806Y740193D01*
X591532Y740467D01*
X592251Y740758D01*
X592962Y741066D01*
X593666Y741392D01*
X594362Y741734D01*
X595049Y742094D01*
X595727Y742471D01*
X596395Y742863D01*
X597054Y743272D01*
X597703Y743698D01*
X598341Y744138D01*
X598968Y744595D01*
X599583Y745066D01*
X600187Y745553D01*
X600779Y746054D01*
X601359Y746569D01*
X601925Y747098D01*
X602479Y747642D01*
X603019Y748198D01*
X603545Y748767D01*
X604058Y749350D01*
X604556Y749944D01*
X605039Y750551D01*
X605507Y751169D01*
X605960Y751798D01*
X606397Y752439D01*
X606819Y753090D01*
X607224Y753751D01*
X607614Y754421D01*
X607986Y755101D01*
X608342Y755790D01*
X608681Y756488D01*
X609003Y757193D01*
X609308Y757906D01*
X609595Y758627D01*
X609864Y759354D01*
X610116Y760088D01*
X610349Y760827D01*
X610564Y761572D01*
X610761Y762322D01*
X610940Y763077D01*
X611100Y763836D01*
X611241Y764598D01*
X611364Y765364D01*
X611468Y766132D01*
X611553Y766903D01*
X611620Y767676D01*
X611667Y768450D01*
X611696Y769225D01*
X611705Y770000D01*
X611696Y770775D01*
X611667Y771550D01*
X611620Y772324D01*
X611553Y773097D01*
X611468Y773868D01*
X611364Y774636D01*
X611241Y775402D01*
X611100Y776164D01*
X610940Y776923D01*
X610761Y777678D01*
X610564Y778428D01*
X610349Y779173D01*
X610116Y779912D01*
X609864Y780646D01*
X609595Y781373D01*
X609308Y782094D01*
X609003Y782807D01*
X608681Y783512D01*
X608342Y784210D01*
X607986Y784899D01*
X607614Y785579D01*
X607224Y786249D01*
X606819Y786910D01*
X606397Y787561D01*
X605960Y788202D01*
X605507Y788831D01*
X605039Y789449D01*
X604556Y790056D01*
X604058Y790650D01*
X603545Y791233D01*
X603019Y791802D01*
X602479Y792358D01*
X601925Y792902D01*
X601359Y793431D01*
X600779Y793946D01*
X600187Y794447D01*
X599583Y794934D01*
X598968Y795405D01*
X598341Y795862D01*
X597703Y796302D01*
X597054Y796728D01*
X596395Y797137D01*
X595727Y797529D01*
X595049Y797906D01*
X594362Y798266D01*
X593666Y798608D01*
X592962Y798934D01*
X592251Y799242D01*
X591532Y799533D01*
X590806Y799807D01*
X590074Y800062D01*
X589336Y800299D01*
X588592Y800519D01*
X587843Y800720D01*
X587089Y800902D01*
X586332Y801066D01*
X585570Y801212D01*
X584805Y801339D01*
X584037Y801447D01*
X583267Y801536D01*
X582494Y801607D01*
X581721Y801658D01*
X580946Y801691D01*
X580170Y801705D01*
X579395Y801699D01*
X578620Y801675D01*
X577846Y801632D01*
X577073Y801570D01*
X576301Y801489D01*
X575532Y801389D01*
X574766Y801270D01*
X574003Y801133D01*
X573243Y800977D01*
X572488Y800802D01*
X571737Y800609D01*
X570990Y800398D01*
X570250Y800168D01*
X569515Y799921D01*
X568786Y799656D01*
X568064Y799372D01*
X567349Y799072D01*
X566642Y798754D01*
X565943Y798418D01*
X565252Y798066D01*
X564570Y797697D01*
X563897Y797311D01*
X563234Y796909D01*
X562581Y796491D01*
X561938Y796057D01*
X561306Y795608D01*
X560686Y795143D01*
X560077Y794663D01*
X559479Y794168D01*
X558894Y793659D01*
X558322Y793136D01*
X557763Y792599D01*
X557217Y792048D01*
X556684Y791484D01*
X556166Y790908D01*
X555661Y790319D01*
X555172Y789717D01*
X554697Y789104D01*
X554851Y788989D01*
X555323Y789598D01*
X555809Y790196D01*
X556310Y790782D01*
X556826Y791355D01*
X557355Y791915D01*
X557898Y792462D01*
X558454Y792996D01*
X559023Y793516D01*
X559604Y794022D01*
X560198Y794514D01*
X560803Y794991D01*
X561420Y795453D01*
X562048Y795900D01*
X562687Y796331D01*
X563336Y796747D01*
X563995Y797146D01*
X564664Y797529D01*
X565342Y797896D01*
X566028Y798246D01*
X566723Y798580D01*
X567426Y798896D01*
X568137Y799195D01*
X568854Y799476D01*
X569579Y799740D01*
X570309Y799986D01*
X571045Y800214D01*
X571787Y800424D01*
X572534Y800616D01*
X573285Y800789D01*
X574040Y800944D01*
X574798Y801081D01*
X575560Y801199D01*
X576324Y801298D01*
X577091Y801378D01*
X577859Y801440D01*
X578629Y801483D01*
X579399Y801507D01*
X580170Y801513D01*
X580940Y801499D01*
X581711Y801467D01*
X582480Y801415D01*
X583247Y801345D01*
X584013Y801256D01*
X584776Y801149D01*
X585536Y801023D01*
X586294Y800878D01*
X587047Y800715D01*
X587796Y800533D01*
X588540Y800334D01*
X589280Y800116D01*
X590013Y799880D01*
X590741Y799626D01*
X591463Y799354D01*
X592177Y799065D01*
X592884Y798759D01*
X593584Y798435D01*
X594275Y798094D01*
X594958Y797737D01*
X595632Y797363D01*
X596296Y796972D01*
X596951Y796566D01*
X597596Y796143D01*
X598230Y795705D01*
X598853Y795251D01*
X599465Y794783D01*
X600065Y794299D01*
X600654Y793801D01*
X601230Y793289D01*
X601793Y792763D01*
X602343Y792223D01*
X602880Y791670D01*
X603403Y791104D01*
X603912Y790525D01*
X604407Y789934D01*
X604887Y789331D01*
X605353Y788717D01*
X605803Y788091D01*
X606237Y787455D01*
X606656Y786808D01*
X607060Y786151D01*
X607446Y785484D01*
X607817Y784808D01*
X608171Y784124D01*
X608508Y783430D01*
X608828Y782729D01*
X609130Y782020D01*
X609416Y781304D01*
X609683Y780581D01*
X609933Y779852D01*
X610165Y779117D01*
X610379Y778377D01*
X610575Y777631D01*
X610753Y776881D01*
X610912Y776127D01*
X611052Y775369D01*
X611174Y774608D01*
X611278Y773844D01*
X611362Y773078D01*
X611428Y772310D01*
X611475Y771541D01*
X611504Y770771D01*
X611513Y770000D01*
X611504Y769229D01*
X611475Y768459D01*
X611428Y767690D01*
X611362Y766922D01*
X611278Y766156D01*
X611174Y765392D01*
X611052Y764631D01*
X610912Y763873D01*
X610753Y763119D01*
X610575Y762369D01*
X610379Y761623D01*
X610165Y760883D01*
X609933Y760148D01*
X609683Y759419D01*
X609416Y758696D01*
X609130Y757980D01*
X608828Y757271D01*
X608508Y756570D01*
X608171Y755876D01*
X607817Y755192D01*
X607446Y754516D01*
X607060Y753849D01*
X606656Y753192D01*
X606237Y752545D01*
X605803Y751909D01*
X605353Y751283D01*
X604887Y750669D01*
X604407Y750066D01*
X603912Y749475D01*
X603403Y748896D01*
X602880Y748330D01*
X602343Y747777D01*
X601793Y747237D01*
X601230Y746711D01*
X600654Y746199D01*
X600065Y745701D01*
X599465Y745217D01*
X598853Y744749D01*
X598230Y744295D01*
X597596Y743857D01*
X596951Y743434D01*
X596296Y743028D01*
X595632Y742637D01*
X594958Y742263D01*
X594275Y741906D01*
X593584Y741565D01*
X592884Y741241D01*
X592177Y740935D01*
X591463Y740646D01*
X590741Y740374D01*
X590013Y740120D01*
X589280Y739884D01*
X588540Y739666D01*
X587796Y739467D01*
X587047Y739285D01*
X586294Y739122D01*
X585536Y738977D01*
X584776Y738851D01*
X584013Y738744D01*
X583247Y738655D01*
X582480Y738585D01*
X581711Y738533D01*
X580940Y738501D01*
X580170Y738487D01*
X579399Y738493D01*
X578629Y738517D01*
X577859Y738560D01*
X577091Y738622D01*
X576324Y738702D01*
X575560Y738801D01*
X574798Y738919D01*
X574040Y739056D01*
X573285Y739211D01*
X572534Y739384D01*
X571787Y739576D01*
X571045Y739786D01*
X570309Y740014D01*
X569579Y740260D01*
X568854Y740524D01*
X568137Y740805D01*
X567426Y741104D01*
X566723Y741420D01*
X566028Y741754D01*
X565342Y742104D01*
X564664Y742471D01*
X563995Y742854D01*
X563336Y743253D01*
X562687Y743669D01*
X562048Y744100D01*
X561420Y744547D01*
X560803Y745009D01*
X560198Y745486D01*
X559604Y745978D01*
X559023Y746484D01*
X558454Y747004D01*
X557898Y747538D01*
X557355Y748085D01*
X556826Y748645D01*
X556310Y749218D01*
X555809Y749804D01*
X555323Y750402D01*
X554851Y751011D01*
X555004Y751126D01*
X555473Y750521D01*
X555957Y749927D01*
X556455Y749345D01*
X556967Y748775D01*
X557493Y748218D01*
X558033Y747674D01*
X558585Y747143D01*
X559151Y746627D01*
X559729Y746124D01*
X560319Y745635D01*
X560920Y745161D01*
X561534Y744702D01*
X562158Y744258D01*
X562793Y743829D01*
X563438Y743416D01*
X564093Y743019D01*
X564758Y742638D01*
X565432Y742273D01*
X566114Y741925D01*
X566805Y741594D01*
X567503Y741280D01*
X568210Y740983D01*
X568923Y740703D01*
X569643Y740441D01*
X570369Y740197D01*
X571100Y739970D01*
X571837Y739761D01*
X572579Y739571D01*
X573326Y739398D01*
X574076Y739244D01*
X574830Y739109D01*
X575587Y738991D01*
X576347Y738893D01*
X577109Y738813D01*
X577872Y738751D01*
X578637Y738709D01*
X579403Y738685D01*
X580169Y738679D01*
X580935Y738693D01*
X581700Y738725D01*
X582465Y738776D01*
X583228Y738846D01*
X583989Y738934D01*
X584747Y739041D01*
X585503Y739166D01*
X586255Y739310D01*
X587004Y739472D01*
X587749Y739653D01*
X588489Y739851D01*
X589223Y740068D01*
X589953Y740302D01*
X590676Y740555D01*
X591393Y740825D01*
X592103Y741112D01*
X592806Y741417D01*
X593501Y741738D01*
X594188Y742077D01*
X594867Y742432D01*
X595537Y742804D01*
X596197Y743192D01*
X596848Y743596D01*
X597489Y744016D01*
X598119Y744452D01*
X598738Y744903D01*
X599347Y745368D01*
X599943Y745849D01*
X600528Y746344D01*
X601100Y746853D01*
X601660Y747376D01*
X602207Y747913D01*
X602741Y748462D01*
X603260Y749025D01*
X603767Y749600D01*
X604258Y750187D01*
X604736Y750787D01*
X605198Y751397D01*
X605646Y752019D01*
X606078Y752652D01*
X606494Y753295D01*
X606895Y753948D01*
X607279Y754610D01*
X607648Y755282D01*
X607999Y755963D01*
X608334Y756652D01*
X608652Y757349D01*
X608953Y758053D01*
X609237Y758765D01*
X609503Y759483D01*
X609751Y760208D01*
X609982Y760938D01*
X610194Y761674D01*
X610389Y762415D01*
X610565Y763161D01*
X610723Y763910D01*
X610863Y764664D01*
X610984Y765420D01*
X611087Y766179D01*
X611171Y766941D01*
X611237Y767704D01*
X611284Y768468D01*
X611312Y769234D01*
X611321Y770000D01*
X611312Y770766D01*
X611284Y771532D01*
X611237Y772296D01*
X611171Y773059D01*
X611087Y773821D01*
X610984Y774580D01*
X610863Y775336D01*
X610723Y776090D01*
X610565Y776839D01*
X610389Y777585D01*
X610194Y778326D01*
X609982Y779062D01*
X609751Y779792D01*
X609503Y780517D01*
X609237Y781235D01*
X608953Y781947D01*
X608652Y782651D01*
X608334Y783348D01*
X607999Y784037D01*
X607648Y784718D01*
X607279Y785390D01*
X606895Y786052D01*
X606494Y786705D01*
X606078Y787348D01*
X605646Y787981D01*
X605198Y788603D01*
X604736Y789213D01*
X604258Y789813D01*
X603767Y790400D01*
X603260Y790975D01*
X602741Y791538D01*
X602207Y792087D01*
X601660Y792624D01*
X601100Y793147D01*
X600528Y793656D01*
X599943Y794151D01*
X599347Y794632D01*
X598738Y795097D01*
X598119Y795548D01*
X597489Y795984D01*
X596848Y796404D01*
X596197Y796808D01*
X595537Y797196D01*
X594867Y797568D01*
X594188Y797923D01*
X593501Y798262D01*
X592806Y798583D01*
X592103Y798888D01*
X591393Y799175D01*
X590676Y799445D01*
X589953Y799698D01*
X589223Y799932D01*
X588489Y800149D01*
X587749Y800347D01*
X587004Y800528D01*
X586255Y800690D01*
X585503Y800834D01*
X584747Y800959D01*
X583989Y801066D01*
X583228Y801154D01*
X582465Y801224D01*
X581700Y801275D01*
X580935Y801307D01*
X580169Y801321D01*
X579403Y801315D01*
X578637Y801291D01*
X577872Y801249D01*
X577109Y801187D01*
X576347Y801107D01*
X575587Y801009D01*
X574830Y800891D01*
X574076Y800756D01*
X573326Y800602D01*
X572579Y800429D01*
X571837Y800239D01*
X571100Y800030D01*
X570369Y799803D01*
X569643Y799559D01*
X568923Y799297D01*
X568210Y799017D01*
X567503Y798720D01*
X566805Y798406D01*
X566114Y798075D01*
X565432Y797727D01*
X564758Y797362D01*
X564093Y796981D01*
X563438Y796584D01*
X562793Y796171D01*
X562158Y795742D01*
X561534Y795298D01*
X560920Y794839D01*
X560319Y794365D01*
X559729Y793876D01*
X559151Y793373D01*
X558585Y792857D01*
X558033Y792326D01*
X557493Y791782D01*
X556967Y791225D01*
X556455Y790655D01*
X555957Y790073D01*
X555473Y789479D01*
X555004Y788874D01*
X555158Y788759D01*
X555624Y789360D01*
X556105Y789951D01*
X556600Y790529D01*
X557109Y791095D01*
X557632Y791649D01*
X558168Y792189D01*
X558717Y792717D01*
X559279Y793231D01*
X559853Y793730D01*
X560440Y794216D01*
X561038Y794687D01*
X561647Y795143D01*
X562268Y795585D01*
X562899Y796011D01*
X563540Y796421D01*
X564191Y796816D01*
X564852Y797195D01*
X565521Y797557D01*
X566200Y797903D01*
X566886Y798232D01*
X567580Y798544D01*
X568282Y798839D01*
X568991Y799117D01*
X569707Y799378D01*
X570428Y799621D01*
X571155Y799846D01*
X571888Y800053D01*
X572625Y800243D01*
X573367Y800414D01*
X574113Y800567D01*
X574862Y800702D01*
X575615Y800819D01*
X576370Y800917D01*
X577127Y800996D01*
X577886Y801057D01*
X578646Y801100D01*
X579407Y801123D01*
X580168Y801129D01*
X580930Y801115D01*
X581690Y801083D01*
X582450Y801032D01*
X583208Y800963D01*
X583965Y800875D01*
X584719Y800769D01*
X585470Y800645D01*
X586217Y800502D01*
X586962Y800341D01*
X587702Y800161D01*
X588437Y799964D01*
X589167Y799749D01*
X589892Y799515D01*
X590611Y799265D01*
X591323Y798996D01*
X592029Y798711D01*
X592728Y798408D01*
X593419Y798088D01*
X594102Y797752D01*
X594776Y797399D01*
X595442Y797029D01*
X596098Y796643D01*
X596745Y796242D01*
X597382Y795824D01*
X598008Y795391D01*
X598624Y794943D01*
X599228Y794480D01*
X599821Y794003D01*
X600402Y793511D01*
X600971Y793005D01*
X601528Y792485D01*
X602071Y791952D01*
X602601Y791406D01*
X603118Y790846D01*
X603621Y790275D01*
X604110Y789691D01*
X604584Y789095D01*
X605044Y788489D01*
X605488Y787870D01*
X605918Y787242D01*
X606332Y786603D01*
X606730Y785954D01*
X607112Y785295D01*
X607478Y784628D01*
X607828Y783951D01*
X608161Y783267D01*
X608477Y782574D01*
X608776Y781874D01*
X609057Y781166D01*
X609322Y780452D01*
X609569Y779732D01*
X609798Y779006D01*
X610009Y778275D01*
X610202Y777538D01*
X610378Y776797D01*
X610535Y776052D01*
X610674Y775304D01*
X610794Y774552D01*
X610897Y773797D01*
X610980Y773041D01*
X611045Y772282D01*
X611092Y771522D01*
X611120Y770761D01*
X611129Y770000D01*
X611120Y769239D01*
X611092Y768478D01*
X611045Y767718D01*
X610980Y766959D01*
X610897Y766203D01*
X610794Y765448D01*
X610674Y764696D01*
X610535Y763948D01*
X610378Y763203D01*
X610202Y762462D01*
X610009Y761725D01*
X609798Y760994D01*
X609569Y760268D01*
X609322Y759548D01*
X609057Y758834D01*
X608776Y758126D01*
X608477Y757426D01*
X608161Y756733D01*
X607828Y756049D01*
X607478Y755372D01*
X607112Y754705D01*
X606730Y754046D01*
X606332Y753397D01*
X605918Y752758D01*
X605488Y752130D01*
X605044Y751511D01*
X604584Y750905D01*
X604110Y750309D01*
X603621Y749725D01*
X603118Y749154D01*
X602601Y748594D01*
X602071Y748048D01*
X601528Y747515D01*
X600971Y746995D01*
X600402Y746489D01*
X599821Y745997D01*
X599228Y745520D01*
X598624Y745057D01*
X598008Y744609D01*
X597382Y744176D01*
X596745Y743758D01*
X596098Y743357D01*
X595442Y742971D01*
X594776Y742601D01*
X594102Y742248D01*
X593419Y741912D01*
X592728Y741592D01*
X592029Y741289D01*
X591323Y741004D01*
X590611Y740735D01*
X589892Y740485D01*
X589167Y740251D01*
X588437Y740036D01*
X587702Y739839D01*
X586962Y739659D01*
X586217Y739498D01*
X585470Y739355D01*
X584719Y739231D01*
X583965Y739125D01*
X583208Y739037D01*
X582450Y738968D01*
X581690Y738917D01*
X580930Y738885D01*
X580168Y738871D01*
X579407Y738877D01*
X578646Y738900D01*
X577886Y738943D01*
X577127Y739004D01*
X576370Y739083D01*
X575615Y739181D01*
X574862Y739298D01*
X574113Y739433D01*
X573367Y739586D01*
X572625Y739757D01*
X571888Y739947D01*
X571155Y740154D01*
X570428Y740379D01*
X569707Y740622D01*
X568991Y740883D01*
X568282Y741161D01*
X567580Y741456D01*
X566886Y741768D01*
X566200Y742097D01*
X565521Y742443D01*
X564852Y742805D01*
X564191Y743184D01*
X563540Y743579D01*
X562899Y743989D01*
X562268Y744415D01*
X561647Y744857D01*
X561038Y745313D01*
X560440Y745784D01*
X559853Y746270D01*
X559279Y746769D01*
X558717Y747283D01*
X558168Y747811D01*
X557632Y748351D01*
X557109Y748905D01*
X556600Y749471D01*
X556105Y750049D01*
X555624Y750640D01*
X555158Y751241D01*
X555311Y751357D01*
X555775Y750758D01*
X556253Y750172D01*
X556745Y749597D01*
X557251Y749034D01*
X557770Y748484D01*
X558303Y747947D01*
X558849Y747423D01*
X559407Y746912D01*
X559978Y746416D01*
X560561Y745933D01*
X561155Y745465D01*
X561761Y745011D01*
X562378Y744573D01*
X563005Y744149D01*
X563642Y743741D01*
X564289Y743349D01*
X564946Y742973D01*
X565611Y742613D01*
X566285Y742269D01*
X566967Y741942D01*
X567658Y741632D01*
X568355Y741338D01*
X569059Y741062D01*
X569770Y740803D01*
X570488Y740562D01*
X571210Y740338D01*
X571938Y740132D01*
X572671Y739944D01*
X573409Y739773D01*
X574150Y739621D01*
X574894Y739487D01*
X575642Y739371D01*
X576393Y739274D01*
X577145Y739195D01*
X577899Y739134D01*
X578655Y739092D01*
X579411Y739069D01*
X580168Y739063D01*
X580924Y739077D01*
X581680Y739109D01*
X582435Y739159D01*
X583189Y739228D01*
X583941Y739315D01*
X584690Y739421D01*
X585436Y739544D01*
X586179Y739686D01*
X586919Y739847D01*
X587654Y740025D01*
X588385Y740221D01*
X589111Y740435D01*
X589831Y740667D01*
X590546Y740916D01*
X591254Y741182D01*
X591955Y741466D01*
X592650Y741767D01*
X593336Y742085D01*
X594015Y742420D01*
X594685Y742771D01*
X595347Y743138D01*
X595999Y743521D01*
X596642Y743920D01*
X597275Y744335D01*
X597897Y744765D01*
X598509Y745211D01*
X599110Y745671D01*
X599699Y746145D01*
X600277Y746634D01*
X600842Y747137D01*
X601395Y747654D01*
X601935Y748184D01*
X602462Y748727D01*
X602976Y749282D01*
X603475Y749850D01*
X603961Y750431D01*
X604433Y751022D01*
X604889Y751626D01*
X605331Y752240D01*
X605758Y752865D01*
X606169Y753500D01*
X606565Y754145D01*
X606945Y754799D01*
X607309Y755463D01*
X607656Y756135D01*
X607987Y756815D01*
X608301Y757504D01*
X608598Y758200D01*
X608878Y758903D01*
X609141Y759612D01*
X609386Y760328D01*
X609614Y761050D01*
X609824Y761777D01*
X610016Y762508D01*
X610190Y763245D01*
X610347Y763985D01*
X610485Y764729D01*
X610604Y765476D01*
X610706Y766226D01*
X610789Y766978D01*
X610854Y767732D01*
X610900Y768487D01*
X610928Y769243D01*
X610937Y770000D01*
X610928Y770757D01*
X610900Y771513D01*
X610854Y772268D01*
X610789Y773022D01*
X610706Y773774D01*
X610604Y774524D01*
X610485Y775271D01*
X610347Y776015D01*
X610190Y776755D01*
X610016Y777492D01*
X609824Y778223D01*
X609614Y778950D01*
X609386Y779672D01*
X609141Y780388D01*
X608878Y781097D01*
X608598Y781800D01*
X608301Y782496D01*
X607987Y783185D01*
X607656Y783865D01*
X607309Y784537D01*
X606945Y785201D01*
X606565Y785855D01*
X606169Y786500D01*
X605758Y787135D01*
X605331Y787760D01*
X604889Y788374D01*
X604433Y788978D01*
X603961Y789569D01*
X603475Y790150D01*
X602976Y790718D01*
X602462Y791273D01*
X601935Y791816D01*
X601395Y792346D01*
X600842Y792863D01*
X600277Y793366D01*
X599699Y793855D01*
X599110Y794329D01*
X598509Y794789D01*
X597897Y795235D01*
X597275Y795665D01*
X596642Y796080D01*
X595999Y796479D01*
X595347Y796862D01*
X594685Y797229D01*
X594015Y797580D01*
X593336Y797915D01*
X592650Y798233D01*
X591955Y798534D01*
X591254Y798818D01*
X590546Y799084D01*
X589831Y799333D01*
X589111Y799565D01*
X588385Y799779D01*
X587654Y799975D01*
X586919Y800153D01*
X586179Y800314D01*
X585436Y800456D01*
X584690Y800579D01*
X583941Y800685D01*
X583189Y800772D01*
X582435Y800841D01*
X581680Y800891D01*
X580924Y800923D01*
X580168Y800937D01*
X579411Y800931D01*
X578655Y800908D01*
X577899Y800866D01*
X577145Y800805D01*
X576393Y800726D01*
X575642Y800629D01*
X574894Y800513D01*
X574150Y800379D01*
X573409Y800227D01*
X572671Y800056D01*
X571938Y799868D01*
X571210Y799662D01*
X570488Y799438D01*
X569770Y799197D01*
X569059Y798938D01*
X568355Y798662D01*
X567658Y798368D01*
X566967Y798058D01*
X566285Y797731D01*
X565611Y797387D01*
X564946Y797027D01*
X564289Y796651D01*
X563642Y796259D01*
X563005Y795851D01*
X562378Y795427D01*
X561761Y794989D01*
X561155Y794535D01*
X560561Y794067D01*
X559978Y793584D01*
X559407Y793088D01*
X558849Y792577D01*
X558303Y792053D01*
X557770Y791516D01*
X557251Y790966D01*
X556745Y790403D01*
X556253Y789828D01*
X555775Y789242D01*
X555311Y788643D01*
D11*
X553694Y733291D02*
X553694Y725919D01*
X558609Y725919D01*
X561179Y733291D02*
X566093Y733291D01*
X561179Y733291D02*
X561179Y725919D01*
X566093Y725919D01*
X563636Y729605D02*
X561179Y729605D01*
X568663Y733291D02*
X568663Y725919D01*
X572349Y725919D01*
X573578Y727148D01*
X573578Y732063D01*
X572349Y733291D01*
X568663Y733291D01*
X576147Y730834D02*
X578604Y733291D01*
X578604Y725919D01*
X576147Y725919D02*
X581062Y725919D01*
D15*
X624600Y750950D02*
X624600Y789050D01*
D21*
X623930Y750320D02*
X625393Y751418D01*
X625392Y751417D02*
X625854Y750821D01*
X626330Y750236D01*
X626821Y749663D01*
X627325Y749102D01*
X627843Y748554D01*
X628374Y748019D01*
X628918Y747496D01*
X629475Y746988D01*
X630044Y746492D01*
X630625Y746011D01*
X631217Y745545D01*
X631821Y745093D01*
X632435Y744656D01*
X633060Y744234D01*
X633696Y743827D01*
X634341Y743436D01*
X634995Y743061D01*
X635658Y742702D01*
X636330Y742360D01*
X637010Y742034D01*
X637698Y741724D01*
X638393Y741432D01*
X639095Y741156D01*
X639804Y740898D01*
X640519Y740658D01*
X641239Y740435D01*
X641965Y740229D01*
X642695Y740042D01*
X643430Y739872D01*
X644169Y739720D01*
X644911Y739587D01*
X645657Y739471D01*
X646405Y739374D01*
X647155Y739296D01*
X647906Y739235D01*
X648659Y739193D01*
X649413Y739170D01*
X650167Y739164D01*
X650922Y739178D01*
X651675Y739210D01*
X652428Y739260D01*
X653179Y739328D01*
X653928Y739415D01*
X654675Y739520D01*
X655419Y739644D01*
X656159Y739785D01*
X656897Y739945D01*
X657630Y740123D01*
X658358Y740318D01*
X659081Y740532D01*
X659799Y740762D01*
X660511Y741011D01*
X661217Y741277D01*
X661916Y741560D01*
X662608Y741859D01*
X663293Y742176D01*
X663969Y742510D01*
X664637Y742860D01*
X665297Y743226D01*
X665947Y743608D01*
X666588Y744006D01*
X667219Y744419D01*
X667839Y744848D01*
X668449Y745292D01*
X669048Y745750D01*
X669635Y746223D01*
X670211Y746711D01*
X670774Y747212D01*
X671325Y747727D01*
X671863Y748255D01*
X672389Y748796D01*
X672901Y749350D01*
X673399Y749916D01*
X673883Y750495D01*
X674353Y751084D01*
X674808Y751686D01*
X675249Y752298D01*
X675674Y752921D01*
X676084Y753554D01*
X676478Y754197D01*
X676857Y754849D01*
X677220Y755510D01*
X677566Y756180D01*
X677896Y756859D01*
X678209Y757545D01*
X678505Y758238D01*
X678784Y758939D01*
X679046Y759646D01*
X679290Y760360D01*
X679517Y761079D01*
X679727Y761803D01*
X679918Y762533D01*
X680092Y763267D01*
X680248Y764005D01*
X680385Y764746D01*
X680505Y765491D01*
X680606Y766238D01*
X680689Y766988D01*
X680753Y767739D01*
X680799Y768492D01*
X680827Y769246D01*
X680836Y770000D01*
X680827Y770754D01*
X680799Y771508D01*
X680753Y772261D01*
X680689Y773012D01*
X680606Y773762D01*
X680505Y774509D01*
X680385Y775254D01*
X680248Y775995D01*
X680092Y776733D01*
X679918Y777467D01*
X679727Y778197D01*
X679517Y778921D01*
X679290Y779640D01*
X679046Y780354D01*
X678784Y781061D01*
X678505Y781762D01*
X678209Y782455D01*
X677896Y783141D01*
X677566Y783820D01*
X677220Y784490D01*
X676857Y785151D01*
X676478Y785803D01*
X676084Y786446D01*
X675674Y787079D01*
X675249Y787702D01*
X674808Y788314D01*
X674353Y788916D01*
X673883Y789505D01*
X673399Y790084D01*
X672901Y790650D01*
X672389Y791204D01*
X671863Y791745D01*
X671325Y792273D01*
X670774Y792788D01*
X670211Y793289D01*
X669635Y793777D01*
X669048Y794250D01*
X668449Y794708D01*
X667839Y795152D01*
X667219Y795581D01*
X666588Y795994D01*
X665947Y796392D01*
X665297Y796774D01*
X664637Y797140D01*
X663969Y797490D01*
X663293Y797824D01*
X662608Y798141D01*
X661916Y798440D01*
X661217Y798723D01*
X660511Y798989D01*
X659799Y799238D01*
X659081Y799468D01*
X658358Y799682D01*
X657630Y799877D01*
X656897Y800055D01*
X656159Y800215D01*
X655419Y800356D01*
X654675Y800480D01*
X653928Y800585D01*
X653179Y800672D01*
X652428Y800740D01*
X651675Y800790D01*
X650922Y800822D01*
X650167Y800836D01*
X649413Y800830D01*
X648659Y800807D01*
X647906Y800765D01*
X647155Y800704D01*
X646405Y800626D01*
X645657Y800529D01*
X644911Y800413D01*
X644169Y800280D01*
X643430Y800128D01*
X642695Y799958D01*
X641965Y799771D01*
X641239Y799565D01*
X640519Y799342D01*
X639804Y799102D01*
X639095Y798844D01*
X638393Y798568D01*
X637698Y798276D01*
X637010Y797966D01*
X636330Y797640D01*
X635658Y797298D01*
X634995Y796939D01*
X634341Y796564D01*
X633696Y796173D01*
X633060Y795766D01*
X632435Y795344D01*
X631821Y794907D01*
X631217Y794455D01*
X630625Y793989D01*
X630044Y793508D01*
X629475Y793012D01*
X628918Y792504D01*
X628374Y791981D01*
X627843Y791446D01*
X627325Y790898D01*
X626821Y790337D01*
X626330Y789764D01*
X625854Y789179D01*
X625392Y788583D01*
X623930Y789680D01*
X623929Y789680D01*
X624418Y790312D01*
X624923Y790931D01*
X625442Y791539D01*
X625976Y792133D01*
X626525Y792714D01*
X627087Y793281D01*
X627664Y793835D01*
X628253Y794374D01*
X628856Y794898D01*
X629471Y795408D01*
X630099Y795903D01*
X630738Y796382D01*
X631389Y796845D01*
X632051Y797292D01*
X632724Y797723D01*
X633407Y798137D01*
X634101Y798534D01*
X634803Y798915D01*
X635515Y799278D01*
X636235Y799623D01*
X636964Y799951D01*
X637700Y800261D01*
X638444Y800553D01*
X639195Y800826D01*
X639952Y801081D01*
X640715Y801318D01*
X641484Y801535D01*
X642258Y801734D01*
X643036Y801914D01*
X643819Y802075D01*
X644605Y802216D01*
X645395Y802339D01*
X646187Y802442D01*
X646982Y802525D01*
X647778Y802589D01*
X648576Y802634D01*
X649375Y802659D01*
X650174Y802665D01*
X650973Y802651D01*
X651771Y802617D01*
X652568Y802564D01*
X653364Y802491D01*
X654157Y802399D01*
X654949Y802288D01*
X655737Y802157D01*
X656522Y802007D01*
X657302Y801838D01*
X658079Y801650D01*
X658851Y801443D01*
X659617Y801217D01*
X660378Y800973D01*
X661132Y800710D01*
X661880Y800428D01*
X662621Y800128D01*
X663354Y799811D01*
X664079Y799475D01*
X664796Y799122D01*
X665503Y798751D01*
X666202Y798364D01*
X666891Y797959D01*
X667570Y797537D01*
X668238Y797100D01*
X668895Y796645D01*
X669541Y796175D01*
X670176Y795689D01*
X670798Y795188D01*
X671408Y794672D01*
X672005Y794141D01*
X672589Y793596D01*
X673159Y793036D01*
X673715Y792463D01*
X674258Y791876D01*
X674786Y791276D01*
X675299Y790664D01*
X675796Y790039D01*
X676279Y789402D01*
X676745Y788753D01*
X677196Y788094D01*
X677630Y787423D01*
X678048Y786742D01*
X678449Y786051D01*
X678833Y785350D01*
X679200Y784640D01*
X679550Y783922D01*
X679881Y783195D01*
X680195Y782460D01*
X680491Y781718D01*
X680768Y780969D01*
X681027Y780213D01*
X681268Y779451D01*
X681490Y778683D01*
X681693Y777911D01*
X681877Y777133D01*
X682042Y776351D01*
X682187Y775566D01*
X682314Y774777D01*
X682421Y773985D01*
X682509Y773191D01*
X682577Y772395D01*
X682626Y771597D01*
X682655Y770799D01*
X682665Y770000D01*
X682655Y769201D01*
X682626Y768403D01*
X682577Y767605D01*
X682509Y766809D01*
X682421Y766015D01*
X682314Y765223D01*
X682187Y764434D01*
X682042Y763649D01*
X681877Y762867D01*
X681693Y762089D01*
X681490Y761317D01*
X681268Y760549D01*
X681027Y759787D01*
X680768Y759031D01*
X680491Y758282D01*
X680195Y757540D01*
X679881Y756805D01*
X679550Y756078D01*
X679200Y755360D01*
X678833Y754650D01*
X678449Y753949D01*
X678048Y753258D01*
X677630Y752577D01*
X677196Y751906D01*
X676745Y751247D01*
X676279Y750598D01*
X675796Y749961D01*
X675299Y749336D01*
X674786Y748724D01*
X674258Y748124D01*
X673715Y747537D01*
X673159Y746964D01*
X672589Y746404D01*
X672005Y745859D01*
X671408Y745328D01*
X670798Y744812D01*
X670176Y744311D01*
X669541Y743825D01*
X668895Y743355D01*
X668238Y742900D01*
X667570Y742463D01*
X666891Y742041D01*
X666202Y741636D01*
X665503Y741249D01*
X664796Y740878D01*
X664079Y740525D01*
X663354Y740189D01*
X662621Y739872D01*
X661880Y739572D01*
X661132Y739290D01*
X660378Y739027D01*
X659617Y738783D01*
X658851Y738557D01*
X658079Y738350D01*
X657302Y738162D01*
X656522Y737993D01*
X655737Y737843D01*
X654949Y737712D01*
X654157Y737601D01*
X653364Y737509D01*
X652568Y737436D01*
X651771Y737383D01*
X650973Y737349D01*
X650174Y737335D01*
X649375Y737341D01*
X648576Y737366D01*
X647778Y737411D01*
X646982Y737475D01*
X646187Y737558D01*
X645395Y737661D01*
X644605Y737784D01*
X643819Y737925D01*
X643036Y738086D01*
X642258Y738266D01*
X641484Y738465D01*
X640715Y738682D01*
X639952Y738919D01*
X639195Y739174D01*
X638444Y739447D01*
X637700Y739739D01*
X636964Y740049D01*
X636235Y740377D01*
X635515Y740722D01*
X634803Y741085D01*
X634101Y741466D01*
X633407Y741863D01*
X632724Y742277D01*
X632051Y742708D01*
X631389Y743155D01*
X630738Y743618D01*
X630099Y744097D01*
X629471Y744592D01*
X628856Y745102D01*
X628253Y745626D01*
X627664Y746165D01*
X627087Y746719D01*
X626525Y747286D01*
X625976Y747867D01*
X625442Y748461D01*
X624923Y749069D01*
X624418Y749688D01*
X623929Y750320D01*
X624083Y750435D01*
X624569Y749807D01*
X625070Y749191D01*
X625587Y748588D01*
X626118Y747997D01*
X626663Y747419D01*
X627222Y746855D01*
X627795Y746305D01*
X628381Y745769D01*
X628981Y745248D01*
X629592Y744741D01*
X630216Y744249D01*
X630852Y743773D01*
X631499Y743313D01*
X632157Y742868D01*
X632826Y742440D01*
X633505Y742028D01*
X634194Y741633D01*
X634893Y741255D01*
X635601Y740894D01*
X636317Y740551D01*
X637041Y740225D01*
X637773Y739917D01*
X638513Y739627D01*
X639259Y739355D01*
X640012Y739101D01*
X640770Y738866D01*
X641535Y738650D01*
X642304Y738452D01*
X643078Y738273D01*
X643856Y738114D01*
X644638Y737973D01*
X645422Y737851D01*
X646210Y737749D01*
X647000Y737666D01*
X647792Y737602D01*
X648585Y737558D01*
X649379Y737533D01*
X650173Y737527D01*
X650967Y737541D01*
X651761Y737575D01*
X652553Y737628D01*
X653344Y737700D01*
X654133Y737791D01*
X654920Y737902D01*
X655703Y738032D01*
X656484Y738181D01*
X657260Y738349D01*
X658032Y738536D01*
X658799Y738742D01*
X659561Y738966D01*
X660317Y739209D01*
X661067Y739471D01*
X661810Y739751D01*
X662547Y740049D01*
X663275Y740365D01*
X663996Y740698D01*
X664709Y741049D01*
X665412Y741418D01*
X666107Y741803D01*
X666792Y742206D01*
X667467Y742625D01*
X668131Y743060D01*
X668784Y743511D01*
X669427Y743979D01*
X670057Y744462D01*
X670676Y744960D01*
X671282Y745473D01*
X671876Y746001D01*
X672456Y746543D01*
X673023Y747099D01*
X673576Y747669D01*
X674115Y748253D01*
X674640Y748849D01*
X675150Y749458D01*
X675645Y750079D01*
X676124Y750712D01*
X676588Y751357D01*
X677036Y752013D01*
X677468Y752680D01*
X677884Y753357D01*
X678282Y754044D01*
X678664Y754740D01*
X679029Y755446D01*
X679376Y756160D01*
X679706Y756883D01*
X680018Y757613D01*
X680312Y758351D01*
X680587Y759096D01*
X680845Y759847D01*
X681084Y760605D01*
X681305Y761368D01*
X681506Y762136D01*
X681689Y762909D01*
X681853Y763686D01*
X681998Y764467D01*
X682124Y765251D01*
X682230Y766038D01*
X682318Y766828D01*
X682386Y767619D01*
X682434Y768412D01*
X682463Y769206D01*
X682473Y770000D01*
X682463Y770794D01*
X682434Y771588D01*
X682386Y772381D01*
X682318Y773172D01*
X682230Y773962D01*
X682124Y774749D01*
X681998Y775533D01*
X681853Y776314D01*
X681689Y777091D01*
X681506Y777864D01*
X681305Y778632D01*
X681084Y779395D01*
X680845Y780153D01*
X680587Y780904D01*
X680312Y781649D01*
X680018Y782387D01*
X679706Y783117D01*
X679376Y783840D01*
X679029Y784554D01*
X678664Y785260D01*
X678282Y785956D01*
X677884Y786643D01*
X677468Y787320D01*
X677036Y787987D01*
X676588Y788643D01*
X676124Y789288D01*
X675645Y789921D01*
X675150Y790542D01*
X674640Y791151D01*
X674115Y791747D01*
X673576Y792331D01*
X673023Y792901D01*
X672456Y793457D01*
X671876Y793999D01*
X671282Y794527D01*
X670676Y795040D01*
X670057Y795538D01*
X669427Y796021D01*
X668784Y796489D01*
X668131Y796940D01*
X667467Y797375D01*
X666792Y797794D01*
X666107Y798197D01*
X665412Y798582D01*
X664709Y798951D01*
X663996Y799302D01*
X663275Y799635D01*
X662547Y799951D01*
X661810Y800249D01*
X661067Y800529D01*
X660317Y800791D01*
X659561Y801034D01*
X658799Y801258D01*
X658032Y801464D01*
X657260Y801651D01*
X656484Y801819D01*
X655703Y801968D01*
X654920Y802098D01*
X654133Y802209D01*
X653344Y802300D01*
X652553Y802372D01*
X651761Y802425D01*
X650967Y802459D01*
X650173Y802473D01*
X649379Y802467D01*
X648585Y802442D01*
X647792Y802398D01*
X647000Y802334D01*
X646210Y802251D01*
X645422Y802149D01*
X644638Y802027D01*
X643856Y801886D01*
X643078Y801727D01*
X642304Y801548D01*
X641535Y801350D01*
X640770Y801134D01*
X640012Y800899D01*
X639259Y800645D01*
X638513Y800373D01*
X637773Y800083D01*
X637041Y799775D01*
X636317Y799449D01*
X635601Y799106D01*
X634893Y798745D01*
X634194Y798367D01*
X633505Y797972D01*
X632826Y797560D01*
X632157Y797132D01*
X631499Y796687D01*
X630852Y796227D01*
X630216Y795751D01*
X629592Y795259D01*
X628981Y794752D01*
X628381Y794231D01*
X627795Y793695D01*
X627222Y793145D01*
X626663Y792581D01*
X626118Y792003D01*
X625587Y791412D01*
X625070Y790809D01*
X624569Y790193D01*
X624083Y789565D01*
X624236Y789450D01*
X624720Y790074D01*
X625218Y790686D01*
X625732Y791286D01*
X626259Y791873D01*
X626801Y792448D01*
X627357Y793008D01*
X627927Y793555D01*
X628510Y794088D01*
X629105Y794606D01*
X629713Y795110D01*
X630333Y795599D01*
X630965Y796072D01*
X631609Y796530D01*
X632263Y796972D01*
X632928Y797397D01*
X633603Y797807D01*
X634288Y798199D01*
X634983Y798575D01*
X635686Y798934D01*
X636398Y799275D01*
X637118Y799599D01*
X637846Y799906D01*
X638581Y800194D01*
X639323Y800464D01*
X640071Y800716D01*
X640825Y800950D01*
X641585Y801165D01*
X642350Y801361D01*
X643119Y801539D01*
X643893Y801698D01*
X644670Y801838D01*
X645450Y801959D01*
X646233Y802060D01*
X647018Y802143D01*
X647805Y802206D01*
X648594Y802250D01*
X649383Y802275D01*
X650172Y802281D01*
X650962Y802267D01*
X651751Y802233D01*
X652539Y802181D01*
X653325Y802109D01*
X654109Y802018D01*
X654891Y801908D01*
X655670Y801779D01*
X656446Y801631D01*
X657217Y801464D01*
X657985Y801278D01*
X658747Y801073D01*
X659505Y800850D01*
X660256Y800608D01*
X661002Y800348D01*
X661741Y800070D01*
X662473Y799774D01*
X663197Y799460D01*
X663914Y799128D01*
X664622Y798779D01*
X665322Y798413D01*
X666012Y798030D01*
X666693Y797630D01*
X667363Y797213D01*
X668024Y796781D01*
X668673Y796332D01*
X669312Y795867D01*
X669939Y795387D01*
X670554Y794892D01*
X671156Y794382D01*
X671746Y793857D01*
X672323Y793318D01*
X672887Y792765D01*
X673437Y792199D01*
X673973Y791619D01*
X674494Y791026D01*
X675001Y790421D01*
X675493Y789803D01*
X675970Y789173D01*
X676431Y788533D01*
X676877Y787881D01*
X677306Y787218D01*
X677719Y786545D01*
X678115Y785862D01*
X678495Y785170D01*
X678857Y784468D01*
X679202Y783758D01*
X679530Y783040D01*
X679840Y782314D01*
X680132Y781580D01*
X680407Y780840D01*
X680663Y780093D01*
X680900Y779340D01*
X681120Y778581D01*
X681320Y777818D01*
X681502Y777049D01*
X681665Y776277D01*
X681809Y775500D01*
X681934Y774721D01*
X682040Y773938D01*
X682127Y773153D01*
X682194Y772367D01*
X682242Y771579D01*
X682271Y770790D01*
X682281Y770000D01*
X682271Y769210D01*
X682242Y768421D01*
X682194Y767633D01*
X682127Y766847D01*
X682040Y766062D01*
X681934Y765279D01*
X681809Y764500D01*
X681665Y763723D01*
X681502Y762951D01*
X681320Y762182D01*
X681120Y761419D01*
X680900Y760660D01*
X680663Y759907D01*
X680407Y759160D01*
X680132Y758420D01*
X679840Y757686D01*
X679530Y756960D01*
X679202Y756242D01*
X678857Y755532D01*
X678495Y754830D01*
X678115Y754138D01*
X677719Y753455D01*
X677306Y752782D01*
X676877Y752119D01*
X676431Y751467D01*
X675970Y750827D01*
X675493Y750197D01*
X675001Y749579D01*
X674494Y748974D01*
X673973Y748381D01*
X673437Y747801D01*
X672887Y747235D01*
X672323Y746682D01*
X671746Y746143D01*
X671156Y745618D01*
X670554Y745108D01*
X669939Y744613D01*
X669312Y744133D01*
X668673Y743668D01*
X668024Y743219D01*
X667363Y742787D01*
X666693Y742370D01*
X666012Y741970D01*
X665322Y741587D01*
X664622Y741221D01*
X663914Y740872D01*
X663197Y740540D01*
X662473Y740226D01*
X661741Y739930D01*
X661002Y739652D01*
X660256Y739392D01*
X659505Y739150D01*
X658747Y738927D01*
X657985Y738722D01*
X657217Y738536D01*
X656446Y738369D01*
X655670Y738221D01*
X654891Y738092D01*
X654109Y737982D01*
X653325Y737891D01*
X652539Y737819D01*
X651751Y737767D01*
X650962Y737733D01*
X650172Y737719D01*
X649383Y737725D01*
X648594Y737750D01*
X647805Y737794D01*
X647018Y737857D01*
X646233Y737940D01*
X645450Y738041D01*
X644670Y738162D01*
X643893Y738302D01*
X643119Y738461D01*
X642350Y738639D01*
X641585Y738835D01*
X640825Y739050D01*
X640071Y739284D01*
X639323Y739536D01*
X638581Y739806D01*
X637846Y740094D01*
X637118Y740401D01*
X636398Y740725D01*
X635686Y741066D01*
X634983Y741425D01*
X634288Y741801D01*
X633603Y742193D01*
X632928Y742603D01*
X632263Y743028D01*
X631609Y743470D01*
X630965Y743928D01*
X630333Y744401D01*
X629713Y744890D01*
X629105Y745394D01*
X628510Y745912D01*
X627927Y746445D01*
X627357Y746992D01*
X626801Y747552D01*
X626259Y748127D01*
X625732Y748714D01*
X625218Y749314D01*
X624720Y749926D01*
X624236Y750550D01*
X624390Y750665D01*
X624870Y750045D01*
X625366Y749436D01*
X625876Y748840D01*
X626401Y748256D01*
X626940Y747686D01*
X627493Y747128D01*
X628059Y746585D01*
X628638Y746055D01*
X629230Y745540D01*
X629834Y745039D01*
X630451Y744553D01*
X631079Y744083D01*
X631719Y743628D01*
X632369Y743189D01*
X633030Y742765D01*
X633701Y742358D01*
X634382Y741968D01*
X635072Y741594D01*
X635772Y741238D01*
X636479Y740899D01*
X637195Y740577D01*
X637919Y740272D01*
X638649Y739986D01*
X639387Y739717D01*
X640131Y739466D01*
X640880Y739234D01*
X641636Y739020D01*
X642396Y738825D01*
X643160Y738648D01*
X643929Y738490D01*
X644702Y738351D01*
X645477Y738231D01*
X646256Y738130D01*
X647036Y738048D01*
X647819Y737985D01*
X648602Y737941D01*
X649387Y737917D01*
X650172Y737911D01*
X650956Y737925D01*
X651741Y737958D01*
X652524Y738010D01*
X653305Y738082D01*
X654085Y738172D01*
X654862Y738282D01*
X655637Y738410D01*
X656408Y738557D01*
X657175Y738723D01*
X657937Y738908D01*
X658696Y739112D01*
X659448Y739334D01*
X660196Y739574D01*
X660937Y739832D01*
X661671Y740109D01*
X662399Y740403D01*
X663119Y740715D01*
X663831Y741045D01*
X664535Y741392D01*
X665231Y741756D01*
X665917Y742137D01*
X666594Y742534D01*
X667260Y742949D01*
X667917Y743379D01*
X668563Y743825D01*
X669197Y744287D01*
X669820Y744764D01*
X670432Y745256D01*
X671031Y745763D01*
X671617Y746285D01*
X672191Y746821D01*
X672751Y747370D01*
X673298Y747934D01*
X673830Y748510D01*
X674349Y749099D01*
X674853Y749701D01*
X675342Y750315D01*
X675816Y750941D01*
X676274Y751578D01*
X676717Y752226D01*
X677143Y752885D01*
X677554Y753554D01*
X677948Y754232D01*
X678325Y754921D01*
X678686Y755618D01*
X679029Y756324D01*
X679355Y757038D01*
X679663Y757760D01*
X679953Y758489D01*
X680226Y759225D01*
X680480Y759967D01*
X680717Y760716D01*
X680934Y761470D01*
X681134Y762229D01*
X681315Y762993D01*
X681477Y763761D01*
X681620Y764533D01*
X681744Y765307D01*
X681849Y766085D01*
X681936Y766865D01*
X682003Y767647D01*
X682051Y768431D01*
X682079Y769215D01*
X682089Y770000D01*
X682079Y770785D01*
X682051Y771569D01*
X682003Y772353D01*
X681936Y773135D01*
X681849Y773915D01*
X681744Y774693D01*
X681620Y775467D01*
X681477Y776239D01*
X681315Y777007D01*
X681134Y777771D01*
X680934Y778530D01*
X680717Y779284D01*
X680480Y780033D01*
X680226Y780775D01*
X679953Y781511D01*
X679663Y782240D01*
X679355Y782962D01*
X679029Y783676D01*
X678686Y784382D01*
X678325Y785079D01*
X677948Y785768D01*
X677554Y786446D01*
X677143Y787115D01*
X676717Y787774D01*
X676274Y788422D01*
X675816Y789059D01*
X675342Y789685D01*
X674853Y790299D01*
X674349Y790901D01*
X673830Y791490D01*
X673298Y792066D01*
X672751Y792630D01*
X672191Y793179D01*
X671617Y793715D01*
X671031Y794237D01*
X670432Y794744D01*
X669820Y795236D01*
X669197Y795713D01*
X668563Y796175D01*
X667917Y796621D01*
X667260Y797051D01*
X666594Y797466D01*
X665917Y797863D01*
X665231Y798244D01*
X664535Y798608D01*
X663831Y798955D01*
X663119Y799285D01*
X662399Y799597D01*
X661671Y799891D01*
X660937Y800168D01*
X660196Y800426D01*
X659448Y800666D01*
X658696Y800888D01*
X657937Y801092D01*
X657175Y801277D01*
X656408Y801443D01*
X655637Y801590D01*
X654862Y801718D01*
X654085Y801828D01*
X653305Y801918D01*
X652524Y801990D01*
X651741Y802042D01*
X650956Y802075D01*
X650172Y802089D01*
X649387Y802083D01*
X648602Y802059D01*
X647819Y802015D01*
X647036Y801952D01*
X646256Y801870D01*
X645477Y801769D01*
X644702Y801649D01*
X643929Y801510D01*
X643160Y801352D01*
X642396Y801175D01*
X641636Y800980D01*
X640880Y800766D01*
X640131Y800534D01*
X639387Y800283D01*
X638649Y800014D01*
X637919Y799728D01*
X637195Y799423D01*
X636479Y799101D01*
X635772Y798762D01*
X635072Y798406D01*
X634382Y798032D01*
X633701Y797642D01*
X633030Y797235D01*
X632369Y796811D01*
X631719Y796372D01*
X631079Y795917D01*
X630451Y795447D01*
X629834Y794961D01*
X629230Y794460D01*
X628638Y793945D01*
X628059Y793415D01*
X627493Y792872D01*
X626940Y792314D01*
X626401Y791744D01*
X625876Y791160D01*
X625366Y790564D01*
X624870Y789955D01*
X624390Y789335D01*
X624543Y789219D01*
X625021Y789836D01*
X625514Y790441D01*
X626021Y791034D01*
X626543Y791614D01*
X627078Y792181D01*
X627628Y792735D01*
X628190Y793276D01*
X628766Y793802D01*
X629355Y794314D01*
X629955Y794812D01*
X630568Y795295D01*
X631193Y795762D01*
X631828Y796215D01*
X632475Y796651D01*
X633132Y797072D01*
X633799Y797476D01*
X634476Y797864D01*
X635162Y798236D01*
X635857Y798590D01*
X636561Y798928D01*
X637272Y799248D01*
X637991Y799550D01*
X638718Y799835D01*
X639451Y800102D01*
X640190Y800351D01*
X640935Y800582D01*
X641686Y800794D01*
X642442Y800989D01*
X643202Y801164D01*
X643966Y801321D01*
X644734Y801459D01*
X645505Y801579D01*
X646279Y801679D01*
X647054Y801761D01*
X647832Y801823D01*
X648611Y801867D01*
X649391Y801891D01*
X650171Y801897D01*
X650951Y801883D01*
X651731Y801850D01*
X652509Y801798D01*
X653286Y801727D01*
X654061Y801637D01*
X654834Y801529D01*
X655603Y801401D01*
X656370Y801255D01*
X657132Y801089D01*
X657890Y800906D01*
X658644Y800703D01*
X659392Y800483D01*
X660135Y800244D01*
X660872Y799987D01*
X661602Y799712D01*
X662325Y799420D01*
X663041Y799109D01*
X663749Y798782D01*
X664449Y798437D01*
X665140Y798075D01*
X665822Y797696D01*
X666495Y797301D01*
X667157Y796890D01*
X667810Y796462D01*
X668452Y796018D01*
X669083Y795559D01*
X669702Y795085D01*
X670310Y794596D01*
X670905Y794091D01*
X671488Y793573D01*
X672058Y793040D01*
X672615Y792494D01*
X673158Y791934D01*
X673688Y791361D01*
X674203Y790775D01*
X674704Y790177D01*
X675190Y789567D01*
X675661Y788945D01*
X676117Y788312D01*
X676557Y787668D01*
X676981Y787013D01*
X677389Y786348D01*
X677781Y785673D01*
X678156Y784989D01*
X678514Y784296D01*
X678855Y783594D01*
X679179Y782884D01*
X679485Y782167D01*
X679774Y781442D01*
X680045Y780711D01*
X680298Y779973D01*
X680533Y779229D01*
X680749Y778479D01*
X680948Y777724D01*
X681127Y776965D01*
X681288Y776202D01*
X681431Y775435D01*
X681554Y774664D01*
X681659Y773891D01*
X681744Y773116D01*
X681811Y772338D01*
X681859Y771560D01*
X681887Y770780D01*
X681897Y770000D01*
X681887Y769220D01*
X681859Y768440D01*
X681811Y767662D01*
X681744Y766884D01*
X681659Y766109D01*
X681554Y765336D01*
X681431Y764565D01*
X681288Y763798D01*
X681127Y763035D01*
X680948Y762276D01*
X680749Y761521D01*
X680533Y760771D01*
X680298Y760027D01*
X680045Y759289D01*
X679774Y758558D01*
X679485Y757833D01*
X679179Y757116D01*
X678855Y756406D01*
X678514Y755704D01*
X678156Y755011D01*
X677781Y754327D01*
X677389Y753652D01*
X676981Y752987D01*
X676557Y752332D01*
X676117Y751688D01*
X675661Y751055D01*
X675190Y750433D01*
X674704Y749823D01*
X674203Y749225D01*
X673688Y748639D01*
X673158Y748066D01*
X672615Y747506D01*
X672058Y746960D01*
X671488Y746427D01*
X670905Y745909D01*
X670310Y745404D01*
X669702Y744915D01*
X669083Y744441D01*
X668452Y743982D01*
X667810Y743538D01*
X667157Y743110D01*
X666495Y742699D01*
X665822Y742304D01*
X665140Y741925D01*
X664449Y741563D01*
X663749Y741218D01*
X663041Y740891D01*
X662325Y740580D01*
X661602Y740288D01*
X660872Y740013D01*
X660135Y739756D01*
X659392Y739517D01*
X658644Y739297D01*
X657890Y739094D01*
X657132Y738911D01*
X656370Y738745D01*
X655603Y738599D01*
X654834Y738471D01*
X654061Y738363D01*
X653286Y738273D01*
X652509Y738202D01*
X651731Y738150D01*
X650951Y738117D01*
X650171Y738103D01*
X649391Y738109D01*
X648611Y738133D01*
X647832Y738177D01*
X647054Y738239D01*
X646279Y738321D01*
X645505Y738421D01*
X644734Y738541D01*
X643966Y738679D01*
X643202Y738836D01*
X642442Y739011D01*
X641686Y739206D01*
X640935Y739418D01*
X640190Y739649D01*
X639451Y739898D01*
X638718Y740165D01*
X637991Y740450D01*
X637272Y740752D01*
X636561Y741072D01*
X635857Y741410D01*
X635162Y741764D01*
X634476Y742136D01*
X633799Y742524D01*
X633132Y742928D01*
X632475Y743349D01*
X631828Y743785D01*
X631193Y744238D01*
X630568Y744705D01*
X629955Y745188D01*
X629355Y745686D01*
X628766Y746198D01*
X628190Y746724D01*
X627628Y747265D01*
X627078Y747819D01*
X626543Y748386D01*
X626021Y748966D01*
X625514Y749559D01*
X625021Y750164D01*
X624543Y750781D01*
X624697Y750896D01*
X625172Y750283D01*
X625661Y749681D01*
X626166Y749092D01*
X626684Y748516D01*
X627217Y747952D01*
X627763Y747401D01*
X628322Y746864D01*
X628894Y746341D01*
X629479Y745832D01*
X630077Y745337D01*
X630686Y744857D01*
X631306Y744392D01*
X631938Y743943D01*
X632581Y743509D01*
X633234Y743091D01*
X633897Y742689D01*
X634570Y742303D01*
X635252Y741934D01*
X635943Y741582D01*
X636642Y741246D01*
X637349Y740928D01*
X638064Y740628D01*
X638786Y740344D01*
X639515Y740079D01*
X640250Y739832D01*
X640990Y739602D01*
X641737Y739391D01*
X642488Y739198D01*
X643243Y739023D01*
X644003Y738867D01*
X644766Y738730D01*
X645532Y738611D01*
X646301Y738511D01*
X647073Y738430D01*
X647846Y738368D01*
X648620Y738325D01*
X649395Y738301D01*
X650170Y738295D01*
X650946Y738309D01*
X651721Y738342D01*
X652494Y738393D01*
X653267Y738464D01*
X654037Y738553D01*
X654805Y738661D01*
X655570Y738788D01*
X656332Y738934D01*
X657089Y739098D01*
X657843Y739280D01*
X658592Y739481D01*
X659336Y739701D01*
X660074Y739938D01*
X660806Y740193D01*
X661532Y740467D01*
X662251Y740758D01*
X662962Y741066D01*
X663666Y741392D01*
X664362Y741734D01*
X665049Y742094D01*
X665727Y742471D01*
X666395Y742863D01*
X667054Y743272D01*
X667703Y743698D01*
X668341Y744138D01*
X668968Y744595D01*
X669583Y745066D01*
X670187Y745553D01*
X670779Y746054D01*
X671359Y746569D01*
X671925Y747098D01*
X672479Y747642D01*
X673019Y748198D01*
X673545Y748767D01*
X674058Y749350D01*
X674556Y749944D01*
X675039Y750551D01*
X675507Y751169D01*
X675960Y751798D01*
X676397Y752439D01*
X676819Y753090D01*
X677224Y753751D01*
X677614Y754421D01*
X677986Y755101D01*
X678342Y755790D01*
X678681Y756488D01*
X679003Y757193D01*
X679308Y757906D01*
X679595Y758627D01*
X679864Y759354D01*
X680116Y760088D01*
X680349Y760827D01*
X680564Y761572D01*
X680761Y762322D01*
X680940Y763077D01*
X681100Y763836D01*
X681241Y764598D01*
X681364Y765364D01*
X681468Y766132D01*
X681553Y766903D01*
X681620Y767676D01*
X681667Y768450D01*
X681696Y769225D01*
X681705Y770000D01*
X681696Y770775D01*
X681667Y771550D01*
X681620Y772324D01*
X681553Y773097D01*
X681468Y773868D01*
X681364Y774636D01*
X681241Y775402D01*
X681100Y776164D01*
X680940Y776923D01*
X680761Y777678D01*
X680564Y778428D01*
X680349Y779173D01*
X680116Y779912D01*
X679864Y780646D01*
X679595Y781373D01*
X679308Y782094D01*
X679003Y782807D01*
X678681Y783512D01*
X678342Y784210D01*
X677986Y784899D01*
X677614Y785579D01*
X677224Y786249D01*
X676819Y786910D01*
X676397Y787561D01*
X675960Y788202D01*
X675507Y788831D01*
X675039Y789449D01*
X674556Y790056D01*
X674058Y790650D01*
X673545Y791233D01*
X673019Y791802D01*
X672479Y792358D01*
X671925Y792902D01*
X671359Y793431D01*
X670779Y793946D01*
X670187Y794447D01*
X669583Y794934D01*
X668968Y795405D01*
X668341Y795862D01*
X667703Y796302D01*
X667054Y796728D01*
X666395Y797137D01*
X665727Y797529D01*
X665049Y797906D01*
X664362Y798266D01*
X663666Y798608D01*
X662962Y798934D01*
X662251Y799242D01*
X661532Y799533D01*
X660806Y799807D01*
X660074Y800062D01*
X659336Y800299D01*
X658592Y800519D01*
X657843Y800720D01*
X657089Y800902D01*
X656332Y801066D01*
X655570Y801212D01*
X654805Y801339D01*
X654037Y801447D01*
X653267Y801536D01*
X652494Y801607D01*
X651721Y801658D01*
X650946Y801691D01*
X650170Y801705D01*
X649395Y801699D01*
X648620Y801675D01*
X647846Y801632D01*
X647073Y801570D01*
X646301Y801489D01*
X645532Y801389D01*
X644766Y801270D01*
X644003Y801133D01*
X643243Y800977D01*
X642488Y800802D01*
X641737Y800609D01*
X640990Y800398D01*
X640250Y800168D01*
X639515Y799921D01*
X638786Y799656D01*
X638064Y799372D01*
X637349Y799072D01*
X636642Y798754D01*
X635943Y798418D01*
X635252Y798066D01*
X634570Y797697D01*
X633897Y797311D01*
X633234Y796909D01*
X632581Y796491D01*
X631938Y796057D01*
X631306Y795608D01*
X630686Y795143D01*
X630077Y794663D01*
X629479Y794168D01*
X628894Y793659D01*
X628322Y793136D01*
X627763Y792599D01*
X627217Y792048D01*
X626684Y791484D01*
X626166Y790908D01*
X625661Y790319D01*
X625172Y789717D01*
X624697Y789104D01*
X624851Y788989D01*
X625323Y789598D01*
X625809Y790196D01*
X626310Y790782D01*
X626826Y791355D01*
X627355Y791915D01*
X627898Y792462D01*
X628454Y792996D01*
X629023Y793516D01*
X629604Y794022D01*
X630198Y794514D01*
X630803Y794991D01*
X631420Y795453D01*
X632048Y795900D01*
X632687Y796331D01*
X633336Y796747D01*
X633995Y797146D01*
X634664Y797529D01*
X635342Y797896D01*
X636028Y798246D01*
X636723Y798580D01*
X637426Y798896D01*
X638137Y799195D01*
X638854Y799476D01*
X639579Y799740D01*
X640309Y799986D01*
X641045Y800214D01*
X641787Y800424D01*
X642534Y800616D01*
X643285Y800789D01*
X644040Y800944D01*
X644798Y801081D01*
X645560Y801199D01*
X646324Y801298D01*
X647091Y801378D01*
X647859Y801440D01*
X648629Y801483D01*
X649399Y801507D01*
X650170Y801513D01*
X650940Y801499D01*
X651711Y801467D01*
X652480Y801415D01*
X653247Y801345D01*
X654013Y801256D01*
X654776Y801149D01*
X655536Y801023D01*
X656294Y800878D01*
X657047Y800715D01*
X657796Y800533D01*
X658540Y800334D01*
X659280Y800116D01*
X660013Y799880D01*
X660741Y799626D01*
X661463Y799354D01*
X662177Y799065D01*
X662884Y798759D01*
X663584Y798435D01*
X664275Y798094D01*
X664958Y797737D01*
X665632Y797363D01*
X666296Y796972D01*
X666951Y796566D01*
X667596Y796143D01*
X668230Y795705D01*
X668853Y795251D01*
X669465Y794783D01*
X670065Y794299D01*
X670654Y793801D01*
X671230Y793289D01*
X671793Y792763D01*
X672343Y792223D01*
X672880Y791670D01*
X673403Y791104D01*
X673912Y790525D01*
X674407Y789934D01*
X674887Y789331D01*
X675353Y788717D01*
X675803Y788091D01*
X676237Y787455D01*
X676656Y786808D01*
X677060Y786151D01*
X677446Y785484D01*
X677817Y784808D01*
X678171Y784124D01*
X678508Y783430D01*
X678828Y782729D01*
X679130Y782020D01*
X679416Y781304D01*
X679683Y780581D01*
X679933Y779852D01*
X680165Y779117D01*
X680379Y778377D01*
X680575Y777631D01*
X680753Y776881D01*
X680912Y776127D01*
X681052Y775369D01*
X681174Y774608D01*
X681278Y773844D01*
X681362Y773078D01*
X681428Y772310D01*
X681475Y771541D01*
X681504Y770771D01*
X681513Y770000D01*
X681504Y769229D01*
X681475Y768459D01*
X681428Y767690D01*
X681362Y766922D01*
X681278Y766156D01*
X681174Y765392D01*
X681052Y764631D01*
X680912Y763873D01*
X680753Y763119D01*
X680575Y762369D01*
X680379Y761623D01*
X680165Y760883D01*
X679933Y760148D01*
X679683Y759419D01*
X679416Y758696D01*
X679130Y757980D01*
X678828Y757271D01*
X678508Y756570D01*
X678171Y755876D01*
X677817Y755192D01*
X677446Y754516D01*
X677060Y753849D01*
X676656Y753192D01*
X676237Y752545D01*
X675803Y751909D01*
X675353Y751283D01*
X674887Y750669D01*
X674407Y750066D01*
X673912Y749475D01*
X673403Y748896D01*
X672880Y748330D01*
X672343Y747777D01*
X671793Y747237D01*
X671230Y746711D01*
X670654Y746199D01*
X670065Y745701D01*
X669465Y745217D01*
X668853Y744749D01*
X668230Y744295D01*
X667596Y743857D01*
X666951Y743434D01*
X666296Y743028D01*
X665632Y742637D01*
X664958Y742263D01*
X664275Y741906D01*
X663584Y741565D01*
X662884Y741241D01*
X662177Y740935D01*
X661463Y740646D01*
X660741Y740374D01*
X660013Y740120D01*
X659280Y739884D01*
X658540Y739666D01*
X657796Y739467D01*
X657047Y739285D01*
X656294Y739122D01*
X655536Y738977D01*
X654776Y738851D01*
X654013Y738744D01*
X653247Y738655D01*
X652480Y738585D01*
X651711Y738533D01*
X650940Y738501D01*
X650170Y738487D01*
X649399Y738493D01*
X648629Y738517D01*
X647859Y738560D01*
X647091Y738622D01*
X646324Y738702D01*
X645560Y738801D01*
X644798Y738919D01*
X644040Y739056D01*
X643285Y739211D01*
X642534Y739384D01*
X641787Y739576D01*
X641045Y739786D01*
X640309Y740014D01*
X639579Y740260D01*
X638854Y740524D01*
X638137Y740805D01*
X637426Y741104D01*
X636723Y741420D01*
X636028Y741754D01*
X635342Y742104D01*
X634664Y742471D01*
X633995Y742854D01*
X633336Y743253D01*
X632687Y743669D01*
X632048Y744100D01*
X631420Y744547D01*
X630803Y745009D01*
X630198Y745486D01*
X629604Y745978D01*
X629023Y746484D01*
X628454Y747004D01*
X627898Y747538D01*
X627355Y748085D01*
X626826Y748645D01*
X626310Y749218D01*
X625809Y749804D01*
X625323Y750402D01*
X624851Y751011D01*
X625004Y751126D01*
X625473Y750521D01*
X625957Y749927D01*
X626455Y749345D01*
X626967Y748775D01*
X627493Y748218D01*
X628033Y747674D01*
X628585Y747143D01*
X629151Y746627D01*
X629729Y746124D01*
X630319Y745635D01*
X630920Y745161D01*
X631534Y744702D01*
X632158Y744258D01*
X632793Y743829D01*
X633438Y743416D01*
X634093Y743019D01*
X634758Y742638D01*
X635432Y742273D01*
X636114Y741925D01*
X636805Y741594D01*
X637503Y741280D01*
X638210Y740983D01*
X638923Y740703D01*
X639643Y740441D01*
X640369Y740197D01*
X641100Y739970D01*
X641837Y739761D01*
X642579Y739571D01*
X643326Y739398D01*
X644076Y739244D01*
X644830Y739109D01*
X645587Y738991D01*
X646347Y738893D01*
X647109Y738813D01*
X647872Y738751D01*
X648637Y738709D01*
X649403Y738685D01*
X650169Y738679D01*
X650935Y738693D01*
X651700Y738725D01*
X652465Y738776D01*
X653228Y738846D01*
X653989Y738934D01*
X654747Y739041D01*
X655503Y739166D01*
X656255Y739310D01*
X657004Y739472D01*
X657749Y739653D01*
X658489Y739851D01*
X659223Y740068D01*
X659953Y740302D01*
X660676Y740555D01*
X661393Y740825D01*
X662103Y741112D01*
X662806Y741417D01*
X663501Y741738D01*
X664188Y742077D01*
X664867Y742432D01*
X665537Y742804D01*
X666197Y743192D01*
X666848Y743596D01*
X667489Y744016D01*
X668119Y744452D01*
X668738Y744903D01*
X669347Y745368D01*
X669943Y745849D01*
X670528Y746344D01*
X671100Y746853D01*
X671660Y747376D01*
X672207Y747913D01*
X672741Y748462D01*
X673260Y749025D01*
X673767Y749600D01*
X674258Y750187D01*
X674736Y750787D01*
X675198Y751397D01*
X675646Y752019D01*
X676078Y752652D01*
X676494Y753295D01*
X676895Y753948D01*
X677279Y754610D01*
X677648Y755282D01*
X677999Y755963D01*
X678334Y756652D01*
X678652Y757349D01*
X678953Y758053D01*
X679237Y758765D01*
X679503Y759483D01*
X679751Y760208D01*
X679982Y760938D01*
X680194Y761674D01*
X680389Y762415D01*
X680565Y763161D01*
X680723Y763910D01*
X680863Y764664D01*
X680984Y765420D01*
X681087Y766179D01*
X681171Y766941D01*
X681237Y767704D01*
X681284Y768468D01*
X681312Y769234D01*
X681321Y770000D01*
X681312Y770766D01*
X681284Y771532D01*
X681237Y772296D01*
X681171Y773059D01*
X681087Y773821D01*
X680984Y774580D01*
X680863Y775336D01*
X680723Y776090D01*
X680565Y776839D01*
X680389Y777585D01*
X680194Y778326D01*
X679982Y779062D01*
X679751Y779792D01*
X679503Y780517D01*
X679237Y781235D01*
X678953Y781947D01*
X678652Y782651D01*
X678334Y783348D01*
X677999Y784037D01*
X677648Y784718D01*
X677279Y785390D01*
X676895Y786052D01*
X676494Y786705D01*
X676078Y787348D01*
X675646Y787981D01*
X675198Y788603D01*
X674736Y789213D01*
X674258Y789813D01*
X673767Y790400D01*
X673260Y790975D01*
X672741Y791538D01*
X672207Y792087D01*
X671660Y792624D01*
X671100Y793147D01*
X670528Y793656D01*
X669943Y794151D01*
X669347Y794632D01*
X668738Y795097D01*
X668119Y795548D01*
X667489Y795984D01*
X666848Y796404D01*
X666197Y796808D01*
X665537Y797196D01*
X664867Y797568D01*
X664188Y797923D01*
X663501Y798262D01*
X662806Y798583D01*
X662103Y798888D01*
X661393Y799175D01*
X660676Y799445D01*
X659953Y799698D01*
X659223Y799932D01*
X658489Y800149D01*
X657749Y800347D01*
X657004Y800528D01*
X656255Y800690D01*
X655503Y800834D01*
X654747Y800959D01*
X653989Y801066D01*
X653228Y801154D01*
X652465Y801224D01*
X651700Y801275D01*
X650935Y801307D01*
X650169Y801321D01*
X649403Y801315D01*
X648637Y801291D01*
X647872Y801249D01*
X647109Y801187D01*
X646347Y801107D01*
X645587Y801009D01*
X644830Y800891D01*
X644076Y800756D01*
X643326Y800602D01*
X642579Y800429D01*
X641837Y800239D01*
X641100Y800030D01*
X640369Y799803D01*
X639643Y799559D01*
X638923Y799297D01*
X638210Y799017D01*
X637503Y798720D01*
X636805Y798406D01*
X636114Y798075D01*
X635432Y797727D01*
X634758Y797362D01*
X634093Y796981D01*
X633438Y796584D01*
X632793Y796171D01*
X632158Y795742D01*
X631534Y795298D01*
X630920Y794839D01*
X630319Y794365D01*
X629729Y793876D01*
X629151Y793373D01*
X628585Y792857D01*
X628033Y792326D01*
X627493Y791782D01*
X626967Y791225D01*
X626455Y790655D01*
X625957Y790073D01*
X625473Y789479D01*
X625004Y788874D01*
X625158Y788759D01*
X625624Y789360D01*
X626105Y789951D01*
X626600Y790529D01*
X627109Y791095D01*
X627632Y791649D01*
X628168Y792189D01*
X628717Y792717D01*
X629279Y793231D01*
X629853Y793730D01*
X630440Y794216D01*
X631038Y794687D01*
X631647Y795143D01*
X632268Y795585D01*
X632899Y796011D01*
X633540Y796421D01*
X634191Y796816D01*
X634852Y797195D01*
X635521Y797557D01*
X636200Y797903D01*
X636886Y798232D01*
X637580Y798544D01*
X638282Y798839D01*
X638991Y799117D01*
X639707Y799378D01*
X640428Y799621D01*
X641155Y799846D01*
X641888Y800053D01*
X642625Y800243D01*
X643367Y800414D01*
X644113Y800567D01*
X644862Y800702D01*
X645615Y800819D01*
X646370Y800917D01*
X647127Y800996D01*
X647886Y801057D01*
X648646Y801100D01*
X649407Y801123D01*
X650168Y801129D01*
X650930Y801115D01*
X651690Y801083D01*
X652450Y801032D01*
X653208Y800963D01*
X653965Y800875D01*
X654719Y800769D01*
X655470Y800645D01*
X656217Y800502D01*
X656962Y800341D01*
X657702Y800161D01*
X658437Y799964D01*
X659167Y799749D01*
X659892Y799515D01*
X660611Y799265D01*
X661323Y798996D01*
X662029Y798711D01*
X662728Y798408D01*
X663419Y798088D01*
X664102Y797752D01*
X664776Y797399D01*
X665442Y797029D01*
X666098Y796643D01*
X666745Y796242D01*
X667382Y795824D01*
X668008Y795391D01*
X668624Y794943D01*
X669228Y794480D01*
X669821Y794003D01*
X670402Y793511D01*
X670971Y793005D01*
X671528Y792485D01*
X672071Y791952D01*
X672601Y791406D01*
X673118Y790846D01*
X673621Y790275D01*
X674110Y789691D01*
X674584Y789095D01*
X675044Y788489D01*
X675488Y787870D01*
X675918Y787242D01*
X676332Y786603D01*
X676730Y785954D01*
X677112Y785295D01*
X677478Y784628D01*
X677828Y783951D01*
X678161Y783267D01*
X678477Y782574D01*
X678776Y781874D01*
X679057Y781166D01*
X679322Y780452D01*
X679569Y779732D01*
X679798Y779006D01*
X680009Y778275D01*
X680202Y777538D01*
X680378Y776797D01*
X680535Y776052D01*
X680674Y775304D01*
X680794Y774552D01*
X680897Y773797D01*
X680980Y773041D01*
X681045Y772282D01*
X681092Y771522D01*
X681120Y770761D01*
X681129Y770000D01*
X681120Y769239D01*
X681092Y768478D01*
X681045Y767718D01*
X680980Y766959D01*
X680897Y766203D01*
X680794Y765448D01*
X680674Y764696D01*
X680535Y763948D01*
X680378Y763203D01*
X680202Y762462D01*
X680009Y761725D01*
X679798Y760994D01*
X679569Y760268D01*
X679322Y759548D01*
X679057Y758834D01*
X678776Y758126D01*
X678477Y757426D01*
X678161Y756733D01*
X677828Y756049D01*
X677478Y755372D01*
X677112Y754705D01*
X676730Y754046D01*
X676332Y753397D01*
X675918Y752758D01*
X675488Y752130D01*
X675044Y751511D01*
X674584Y750905D01*
X674110Y750309D01*
X673621Y749725D01*
X673118Y749154D01*
X672601Y748594D01*
X672071Y748048D01*
X671528Y747515D01*
X670971Y746995D01*
X670402Y746489D01*
X669821Y745997D01*
X669228Y745520D01*
X668624Y745057D01*
X668008Y744609D01*
X667382Y744176D01*
X666745Y743758D01*
X666098Y743357D01*
X665442Y742971D01*
X664776Y742601D01*
X664102Y742248D01*
X663419Y741912D01*
X662728Y741592D01*
X662029Y741289D01*
X661323Y741004D01*
X660611Y740735D01*
X659892Y740485D01*
X659167Y740251D01*
X658437Y740036D01*
X657702Y739839D01*
X656962Y739659D01*
X656217Y739498D01*
X655470Y739355D01*
X654719Y739231D01*
X653965Y739125D01*
X653208Y739037D01*
X652450Y738968D01*
X651690Y738917D01*
X650930Y738885D01*
X650168Y738871D01*
X649407Y738877D01*
X648646Y738900D01*
X647886Y738943D01*
X647127Y739004D01*
X646370Y739083D01*
X645615Y739181D01*
X644862Y739298D01*
X644113Y739433D01*
X643367Y739586D01*
X642625Y739757D01*
X641888Y739947D01*
X641155Y740154D01*
X640428Y740379D01*
X639707Y740622D01*
X638991Y740883D01*
X638282Y741161D01*
X637580Y741456D01*
X636886Y741768D01*
X636200Y742097D01*
X635521Y742443D01*
X634852Y742805D01*
X634191Y743184D01*
X633540Y743579D01*
X632899Y743989D01*
X632268Y744415D01*
X631647Y744857D01*
X631038Y745313D01*
X630440Y745784D01*
X629853Y746270D01*
X629279Y746769D01*
X628717Y747283D01*
X628168Y747811D01*
X627632Y748351D01*
X627109Y748905D01*
X626600Y749471D01*
X626105Y750049D01*
X625624Y750640D01*
X625158Y751241D01*
X625311Y751357D01*
X625775Y750758D01*
X626253Y750172D01*
X626745Y749597D01*
X627251Y749034D01*
X627770Y748484D01*
X628303Y747947D01*
X628849Y747423D01*
X629407Y746912D01*
X629978Y746416D01*
X630561Y745933D01*
X631155Y745465D01*
X631761Y745011D01*
X632378Y744573D01*
X633005Y744149D01*
X633642Y743741D01*
X634289Y743349D01*
X634946Y742973D01*
X635611Y742613D01*
X636285Y742269D01*
X636967Y741942D01*
X637658Y741632D01*
X638355Y741338D01*
X639059Y741062D01*
X639770Y740803D01*
X640488Y740562D01*
X641210Y740338D01*
X641938Y740132D01*
X642671Y739944D01*
X643409Y739773D01*
X644150Y739621D01*
X644894Y739487D01*
X645642Y739371D01*
X646393Y739274D01*
X647145Y739195D01*
X647899Y739134D01*
X648655Y739092D01*
X649411Y739069D01*
X650168Y739063D01*
X650924Y739077D01*
X651680Y739109D01*
X652435Y739159D01*
X653189Y739228D01*
X653941Y739315D01*
X654690Y739421D01*
X655436Y739544D01*
X656179Y739686D01*
X656919Y739847D01*
X657654Y740025D01*
X658385Y740221D01*
X659111Y740435D01*
X659831Y740667D01*
X660546Y740916D01*
X661254Y741182D01*
X661955Y741466D01*
X662650Y741767D01*
X663336Y742085D01*
X664015Y742420D01*
X664685Y742771D01*
X665347Y743138D01*
X665999Y743521D01*
X666642Y743920D01*
X667275Y744335D01*
X667897Y744765D01*
X668509Y745211D01*
X669110Y745671D01*
X669699Y746145D01*
X670277Y746634D01*
X670842Y747137D01*
X671395Y747654D01*
X671935Y748184D01*
X672462Y748727D01*
X672976Y749282D01*
X673475Y749850D01*
X673961Y750431D01*
X674433Y751022D01*
X674889Y751626D01*
X675331Y752240D01*
X675758Y752865D01*
X676169Y753500D01*
X676565Y754145D01*
X676945Y754799D01*
X677309Y755463D01*
X677656Y756135D01*
X677987Y756815D01*
X678301Y757504D01*
X678598Y758200D01*
X678878Y758903D01*
X679141Y759612D01*
X679386Y760328D01*
X679614Y761050D01*
X679824Y761777D01*
X680016Y762508D01*
X680190Y763245D01*
X680347Y763985D01*
X680485Y764729D01*
X680604Y765476D01*
X680706Y766226D01*
X680789Y766978D01*
X680854Y767732D01*
X680900Y768487D01*
X680928Y769243D01*
X680937Y770000D01*
X680928Y770757D01*
X680900Y771513D01*
X680854Y772268D01*
X680789Y773022D01*
X680706Y773774D01*
X680604Y774524D01*
X680485Y775271D01*
X680347Y776015D01*
X680190Y776755D01*
X680016Y777492D01*
X679824Y778223D01*
X679614Y778950D01*
X679386Y779672D01*
X679141Y780388D01*
X678878Y781097D01*
X678598Y781800D01*
X678301Y782496D01*
X677987Y783185D01*
X677656Y783865D01*
X677309Y784537D01*
X676945Y785201D01*
X676565Y785855D01*
X676169Y786500D01*
X675758Y787135D01*
X675331Y787760D01*
X674889Y788374D01*
X674433Y788978D01*
X673961Y789569D01*
X673475Y790150D01*
X672976Y790718D01*
X672462Y791273D01*
X671935Y791816D01*
X671395Y792346D01*
X670842Y792863D01*
X670277Y793366D01*
X669699Y793855D01*
X669110Y794329D01*
X668509Y794789D01*
X667897Y795235D01*
X667275Y795665D01*
X666642Y796080D01*
X665999Y796479D01*
X665347Y796862D01*
X664685Y797229D01*
X664015Y797580D01*
X663336Y797915D01*
X662650Y798233D01*
X661955Y798534D01*
X661254Y798818D01*
X660546Y799084D01*
X659831Y799333D01*
X659111Y799565D01*
X658385Y799779D01*
X657654Y799975D01*
X656919Y800153D01*
X656179Y800314D01*
X655436Y800456D01*
X654690Y800579D01*
X653941Y800685D01*
X653189Y800772D01*
X652435Y800841D01*
X651680Y800891D01*
X650924Y800923D01*
X650168Y800937D01*
X649411Y800931D01*
X648655Y800908D01*
X647899Y800866D01*
X647145Y800805D01*
X646393Y800726D01*
X645642Y800629D01*
X644894Y800513D01*
X644150Y800379D01*
X643409Y800227D01*
X642671Y800056D01*
X641938Y799868D01*
X641210Y799662D01*
X640488Y799438D01*
X639770Y799197D01*
X639059Y798938D01*
X638355Y798662D01*
X637658Y798368D01*
X636967Y798058D01*
X636285Y797731D01*
X635611Y797387D01*
X634946Y797027D01*
X634289Y796651D01*
X633642Y796259D01*
X633005Y795851D01*
X632378Y795427D01*
X631761Y794989D01*
X631155Y794535D01*
X630561Y794067D01*
X629978Y793584D01*
X629407Y793088D01*
X628849Y792577D01*
X628303Y792053D01*
X627770Y791516D01*
X627251Y790966D01*
X626745Y790403D01*
X626253Y789828D01*
X625775Y789242D01*
X625311Y788643D01*
D11*
X683131Y787715D02*
X683131Y795087D01*
X683131Y787715D02*
X688046Y787715D01*
X690615Y795087D02*
X695530Y795087D01*
X690615Y795087D02*
X690615Y787715D01*
X695530Y787715D01*
X693073Y791401D02*
X690615Y791401D01*
X698099Y795087D02*
X698099Y787715D01*
X701785Y787715D01*
X703014Y788944D01*
X703014Y793859D01*
X701785Y795087D01*
X698099Y795087D01*
X705583Y787715D02*
X710498Y787715D01*
X705583Y787715D02*
X710498Y792630D01*
X710498Y793859D01*
X709270Y795087D01*
X706812Y795087D01*
X705583Y793859D01*
D15*
X813000Y296500D02*
X837000Y296500D01*
X837000Y233500D01*
X813000Y233500D01*
X813000Y296500D01*
D11*
X821261Y328631D02*
X828633Y328631D01*
X821261Y328631D02*
X821261Y332317D01*
X822489Y333546D01*
X824947Y333546D01*
X826176Y332317D01*
X826176Y328631D01*
X826176Y331088D02*
X828633Y333546D01*
X823718Y336115D02*
X821261Y338573D01*
X828633Y338573D01*
X828633Y341030D02*
X828633Y336115D01*
X827404Y343599D02*
X822489Y343599D01*
X821261Y344828D01*
X821261Y347285D01*
X822489Y348514D01*
X827404Y348514D01*
X828633Y347285D01*
X828633Y344828D01*
X827404Y343599D01*
X822489Y348514D01*
X821501Y255188D02*
X822729Y252730D01*
X825187Y250273D01*
X827644Y250273D01*
X828873Y251501D01*
X828873Y253959D01*
X827644Y255188D01*
X826416Y255188D01*
X825187Y253959D01*
X825187Y250273D01*
X828873Y257757D02*
X828873Y262672D01*
X828873Y257757D02*
X823958Y262672D01*
X822729Y262672D01*
X821501Y261443D01*
X821501Y258986D01*
X822729Y257757D01*
X822729Y265241D02*
X827644Y265241D01*
X822729Y265241D02*
X821501Y266470D01*
X821501Y268927D01*
X822729Y270156D01*
X827644Y270156D01*
X828873Y268927D01*
X828873Y266470D01*
X827644Y265241D01*
X822729Y270156D01*
X821501Y272725D02*
X828873Y272725D01*
X821501Y272725D02*
X821501Y276411D01*
X822729Y277640D01*
X825187Y277640D01*
X826416Y276411D01*
X826416Y272725D01*
X826416Y275183D02*
X828873Y277640D01*
D15*
X807000Y233500D02*
X783000Y233500D01*
X783000Y296500D01*
X807000Y296500D01*
X807000Y233500D01*
D11*
X798633Y328631D02*
X791261Y328631D01*
X791261Y332317D01*
X792489Y333546D01*
X794947Y333546D01*
X796176Y332317D01*
X796176Y328631D01*
X796176Y331088D02*
X798633Y333546D01*
X797404Y336115D02*
X798633Y337344D01*
X798633Y339801D01*
X797404Y341030D01*
X792489Y341030D01*
X791261Y339801D01*
X791261Y337344D01*
X792489Y336115D01*
X793718Y336115D01*
X794947Y337344D01*
X794947Y341030D01*
X792121Y256752D02*
X794578Y254295D01*
X792121Y256752D02*
X799493Y256752D01*
X799493Y254295D02*
X799493Y259210D01*
X798264Y261779D02*
X793349Y261779D01*
X792121Y263008D01*
X792121Y265465D01*
X793349Y266694D01*
X798264Y266694D01*
X799493Y265465D01*
X799493Y263008D01*
X798264Y261779D01*
X793349Y266694D01*
X792121Y269263D02*
X799493Y269263D01*
X797036Y269263D02*
X792121Y274178D01*
X795807Y270492D02*
X799493Y274178D01*
D15*
X796190Y200800D02*
X820320Y200800D01*
X820320Y99200D02*
X796190Y99200D01*
X820320Y99200D02*
X820320Y200800D01*
X830480Y200800D01*
X830480Y99200D01*
X820320Y99200D01*
X787300Y191910D02*
X787297Y192123D01*
X787300Y192336D01*
X787308Y192549D01*
X787321Y192762D01*
X787339Y192974D01*
X787362Y193185D01*
X787391Y193397D01*
X787425Y193607D01*
X787464Y193816D01*
X787508Y194025D01*
X787557Y194232D01*
X787612Y194438D01*
X787671Y194643D01*
X787735Y194846D01*
X787805Y195047D01*
X787879Y195247D01*
X787958Y195445D01*
X788042Y195640D01*
X788131Y195834D01*
X788224Y196025D01*
X788322Y196215D01*
X788425Y196401D01*
X788532Y196585D01*
X788644Y196767D01*
X788760Y196945D01*
X788881Y197121D01*
X789005Y197293D01*
X789134Y197463D01*
X789268Y197629D01*
X789405Y197792D01*
X789546Y197952D01*
X789691Y198108D01*
X789840Y198260D01*
X789992Y198409D01*
X790148Y198554D01*
X790308Y198695D01*
X790471Y198832D01*
X790637Y198966D01*
X790807Y199095D01*
X790979Y199219D01*
X791155Y199340D01*
X791333Y199456D01*
X791515Y199568D01*
X791699Y199675D01*
X791885Y199778D01*
X792075Y199876D01*
X792266Y199969D01*
X792460Y200058D01*
X792655Y200142D01*
X792853Y200221D01*
X793053Y200295D01*
X793254Y200365D01*
X793457Y200429D01*
X793662Y200488D01*
X793868Y200543D01*
X794075Y200592D01*
X794284Y200636D01*
X794493Y200675D01*
X794703Y200709D01*
X794915Y200738D01*
X795126Y200761D01*
X795338Y200779D01*
X795551Y200792D01*
X795764Y200800D01*
X795977Y200803D01*
X796190Y200800D01*
X787300Y108090D02*
X787297Y107877D01*
X787300Y107664D01*
X787308Y107451D01*
X787321Y107238D01*
X787339Y107026D01*
X787362Y106815D01*
X787391Y106603D01*
X787425Y106393D01*
X787464Y106184D01*
X787508Y105975D01*
X787557Y105768D01*
X787612Y105562D01*
X787671Y105357D01*
X787735Y105154D01*
X787805Y104953D01*
X787879Y104753D01*
X787958Y104555D01*
X788042Y104360D01*
X788131Y104166D01*
X788224Y103975D01*
X788322Y103785D01*
X788425Y103599D01*
X788532Y103415D01*
X788644Y103233D01*
X788760Y103055D01*
X788881Y102879D01*
X789005Y102707D01*
X789134Y102537D01*
X789268Y102371D01*
X789405Y102208D01*
X789546Y102048D01*
X789691Y101892D01*
X789840Y101740D01*
X789992Y101591D01*
X790148Y101446D01*
X790308Y101305D01*
X790471Y101168D01*
X790637Y101034D01*
X790807Y100905D01*
X790979Y100781D01*
X791155Y100660D01*
X791333Y100544D01*
X791515Y100432D01*
X791699Y100325D01*
X791885Y100222D01*
X792075Y100124D01*
X792266Y100031D01*
X792460Y99942D01*
X792655Y99858D01*
X792853Y99779D01*
X793053Y99705D01*
X793254Y99635D01*
X793457Y99571D01*
X793662Y99512D01*
X793868Y99457D01*
X794075Y99408D01*
X794284Y99364D01*
X794493Y99325D01*
X794703Y99291D01*
X794915Y99262D01*
X795126Y99239D01*
X795338Y99221D01*
X795551Y99208D01*
X795764Y99200D01*
X795977Y99197D01*
X796190Y99200D01*
X787300Y188100D02*
X787300Y191910D01*
X787300Y111900D02*
X787300Y108090D01*
D16*
X825400Y150000D03*
D11*
X782100Y196441D02*
X777185Y196441D01*
X775957Y197670D01*
X775957Y200127D01*
X777185Y201356D01*
X782100Y201356D01*
X783329Y200127D01*
X783329Y197670D01*
X782100Y196441D01*
X780872Y198898D02*
X783329Y201356D01*
X783329Y203925D02*
X783329Y208840D01*
X783329Y203925D02*
X778414Y208840D01*
X777185Y208840D01*
X775957Y207611D01*
X775957Y205154D01*
X777185Y203925D01*
D15*
X859600Y97620D02*
X910400Y97620D01*
X910400Y90000D01*
X910400Y82380D01*
X859600Y82380D01*
X859600Y90000D01*
X859600Y97620D01*
X910400Y90000D02*
X912940Y90000D01*
X859600Y90000D02*
X857060Y90000D01*
X904050Y96350D02*
X904050Y83650D01*
D11*
X935981Y86017D02*
X935981Y93389D01*
X935981Y86017D02*
X939667Y86017D01*
X940896Y87246D01*
X940896Y92161D01*
X939667Y93389D01*
X935981Y93389D01*
X943465Y92161D02*
X944694Y93389D01*
X947151Y93389D01*
X948380Y92161D01*
X948380Y90932D01*
X947151Y89703D01*
X948380Y88474D01*
X948380Y87246D01*
X947151Y86017D01*
X944694Y86017D01*
X943465Y87246D01*
X943465Y88474D01*
X944694Y89703D01*
X943465Y90932D01*
X943465Y92161D01*
X944694Y89703D02*
X947151Y89703D01*
D15*
X917500Y74000D02*
X847500Y74000D01*
X917500Y74000D02*
X917500Y12000D01*
X917500Y4000D01*
X847500Y4000D01*
X847500Y12000D01*
X847500Y74000D01*
X847500Y12000D02*
X917500Y12000D01*
D11*
X921775Y22841D02*
X923003Y24070D01*
X921775Y22841D02*
X921775Y20384D01*
X923003Y19155D01*
X927918Y19155D01*
X929147Y20384D01*
X929147Y22841D01*
X927918Y24070D01*
X921775Y27868D02*
X921775Y30325D01*
X921775Y27868D02*
X923003Y26639D01*
X927918Y26639D01*
X929147Y27868D01*
X929147Y30325D01*
X927918Y31554D01*
X923003Y31554D01*
X921775Y30325D01*
X929147Y34123D02*
X929147Y36581D01*
X929147Y35352D02*
X921775Y35352D01*
X921775Y34123D02*
X921775Y36581D01*
X921775Y39113D02*
X929147Y39113D01*
X929147Y44028D01*
X929147Y46597D02*
X929147Y51512D01*
X929147Y46597D02*
X924232Y51512D01*
X923003Y51512D01*
X921775Y50283D01*
X921775Y47826D01*
X923003Y46597D01*
D17*
X910400Y294210D02*
X859600Y294210D01*
X859600Y235790D02*
X910400Y235790D01*
X910400Y294210D01*
X859600Y294210D02*
X859600Y275160D01*
X859600Y254840D02*
X859600Y235790D01*
X859600Y254840D02*
X859847Y254843D01*
X860095Y254852D01*
X860342Y254867D01*
X860588Y254888D01*
X860834Y254915D01*
X861079Y254948D01*
X861324Y254987D01*
X861567Y255032D01*
X861809Y255083D01*
X862050Y255140D01*
X862289Y255202D01*
X862527Y255271D01*
X862763Y255345D01*
X862997Y255425D01*
X863229Y255510D01*
X863459Y255602D01*
X863687Y255698D01*
X863912Y255801D01*
X864135Y255908D01*
X864355Y256022D01*
X864572Y256140D01*
X864787Y256264D01*
X864998Y256393D01*
X865206Y256527D01*
X865411Y256666D01*
X865612Y256810D01*
X865810Y256958D01*
X866004Y257112D01*
X866194Y257270D01*
X866380Y257433D01*
X866562Y257600D01*
X866740Y257772D01*
X866914Y257948D01*
X867084Y258128D01*
X867249Y258313D01*
X867409Y258501D01*
X867565Y258693D01*
X867717Y258889D01*
X867863Y259088D01*
X868005Y259291D01*
X868141Y259498D01*
X868273Y259707D01*
X868399Y259920D01*
X868520Y260136D01*
X868636Y260354D01*
X868746Y260576D01*
X868851Y260800D01*
X868951Y261026D01*
X869045Y261255D01*
X869133Y261486D01*
X869216Y261720D01*
X869293Y261955D01*
X869364Y262192D01*
X869430Y262430D01*
X869489Y262670D01*
X869543Y262912D01*
X869591Y263155D01*
X869633Y263398D01*
X869669Y263643D01*
X869699Y263889D01*
X869723Y264135D01*
X869741Y264382D01*
X869753Y264629D01*
X869759Y264876D01*
X869759Y265124D01*
X869753Y265371D01*
X869741Y265618D01*
X869723Y265865D01*
X869699Y266111D01*
X869669Y266357D01*
X869633Y266602D01*
X869591Y266845D01*
X869543Y267088D01*
X869489Y267330D01*
X869430Y267570D01*
X869364Y267808D01*
X869293Y268045D01*
X869216Y268280D01*
X869133Y268514D01*
X869045Y268745D01*
X868951Y268974D01*
X868851Y269200D01*
X868746Y269424D01*
X868636Y269646D01*
X868520Y269864D01*
X868399Y270080D01*
X868273Y270293D01*
X868141Y270502D01*
X868005Y270709D01*
X867863Y270912D01*
X867717Y271111D01*
X867565Y271307D01*
X867409Y271499D01*
X867249Y271687D01*
X867084Y271872D01*
X866914Y272052D01*
X866740Y272228D01*
X866562Y272400D01*
X866380Y272567D01*
X866194Y272730D01*
X866004Y272888D01*
X865810Y273042D01*
X865612Y273190D01*
X865411Y273334D01*
X865206Y273473D01*
X864998Y273607D01*
X864787Y273736D01*
X864572Y273860D01*
X864355Y273978D01*
X864135Y274092D01*
X863912Y274199D01*
X863687Y274302D01*
X863459Y274398D01*
X863229Y274490D01*
X862997Y274575D01*
X862763Y274655D01*
X862527Y274729D01*
X862289Y274798D01*
X862050Y274860D01*
X861809Y274917D01*
X861567Y274968D01*
X861324Y275013D01*
X861079Y275052D01*
X860834Y275085D01*
X860588Y275112D01*
X860342Y275133D01*
X860095Y275148D01*
X859847Y275157D01*
X859600Y275160D01*
D11*
X848037Y242397D02*
X848037Y239940D01*
X849265Y238711D01*
X854180Y238711D01*
X855409Y239940D01*
X855409Y242397D01*
X854180Y243626D01*
X849265Y243626D01*
X848037Y242397D01*
X848037Y246195D02*
X855409Y246195D01*
X852952Y246195D02*
X848037Y251110D01*
X851723Y247424D02*
X855409Y251110D01*
X855409Y253679D02*
X855409Y258594D01*
X855409Y253679D02*
X850494Y258594D01*
X849265Y258594D01*
X848037Y257365D01*
X848037Y254908D01*
X849265Y253679D01*
D15*
X931500Y202000D02*
X931500Y178000D01*
X868500Y178000D01*
X868500Y202000D01*
X931500Y202000D01*
D11*
X934631Y205431D02*
X934631Y212803D01*
X938317Y212803D01*
X939546Y211575D01*
X939546Y209117D01*
X938317Y207888D01*
X934631Y207888D01*
X937088Y207888D02*
X939546Y205431D01*
X942115Y210346D02*
X944573Y212803D01*
X944573Y205431D01*
X947030Y205431D02*
X942115Y205431D01*
X949599Y210346D02*
X952057Y212803D01*
X952057Y205431D01*
X954514Y205431D02*
X949599Y205431D01*
X890188Y193499D02*
X887730Y192271D01*
X885273Y189813D01*
X885273Y187356D01*
X886501Y186127D01*
X888959Y186127D01*
X890188Y187356D01*
X890188Y188584D01*
X888959Y189813D01*
X885273Y189813D01*
X892757Y186127D02*
X897672Y186127D01*
X892757Y186127D02*
X897672Y191042D01*
X897672Y192271D01*
X896443Y193499D01*
X893986Y193499D01*
X892757Y192271D01*
X900241Y192271D02*
X900241Y187356D01*
X900241Y192271D02*
X901470Y193499D01*
X903927Y193499D01*
X905156Y192271D01*
X905156Y187356D01*
X903927Y186127D01*
X901470Y186127D01*
X900241Y187356D01*
X905156Y192271D01*
X907725Y193499D02*
X907725Y186127D01*
X907725Y193499D02*
X911411Y193499D01*
X912640Y192271D01*
X912640Y189813D01*
X911411Y188584D01*
X907725Y188584D01*
X910183Y188584D02*
X912640Y186127D01*
D15*
X910400Y132380D02*
X859600Y132380D01*
X859600Y140000D01*
X859600Y147620D01*
X910400Y147620D01*
X910400Y140000D01*
X910400Y132380D01*
X859600Y140000D02*
X857060Y140000D01*
X910400Y140000D02*
X912940Y140000D01*
X865950Y133650D02*
X865950Y146350D01*
D11*
X938438Y143389D02*
X938438Y136017D01*
X935981Y143389D02*
X940896Y143389D01*
X943465Y143389D02*
X943465Y138474D01*
X945923Y136017D01*
X948380Y138474D01*
X948380Y143389D01*
X954635Y143389D02*
X955864Y142161D01*
X954635Y143389D02*
X952178Y143389D01*
X950949Y142161D01*
X950949Y140932D01*
X952178Y139703D01*
X954635Y139703D01*
X955864Y138474D01*
X955864Y137246D01*
X954635Y136017D01*
X952178Y136017D01*
X950949Y137246D01*
X962120Y136017D02*
X962120Y143389D01*
X958433Y139703D01*
X963348Y139703D01*
D15*
X910400Y122620D02*
X859600Y122620D01*
X910400Y122620D02*
X910400Y115000D01*
X910400Y107380D01*
X859600Y107380D01*
X859600Y115000D01*
X859600Y122620D01*
X910400Y115000D02*
X912940Y115000D01*
X859600Y115000D02*
X857060Y115000D01*
X904050Y121350D02*
X904050Y108650D01*
D11*
X938438Y111017D02*
X938438Y118389D01*
X935981Y118389D02*
X940896Y118389D01*
X943465Y118389D02*
X943465Y113474D01*
X945923Y111017D01*
X948380Y113474D01*
X948380Y118389D01*
X954635Y118389D02*
X955864Y117161D01*
X954635Y118389D02*
X952178Y118389D01*
X950949Y117161D01*
X950949Y115932D01*
X952178Y114703D01*
X954635Y114703D01*
X955864Y113474D01*
X955864Y112246D01*
X954635Y111017D01*
X952178Y111017D01*
X950949Y112246D01*
X958433Y117161D02*
X959662Y118389D01*
X962120Y118389D01*
X963348Y117161D01*
X963348Y115932D01*
X962120Y114703D01*
X960891Y114703D01*
X962120Y114703D02*
X963348Y113474D01*
X963348Y112246D01*
X962120Y111017D01*
X959662Y111017D01*
X958433Y112246D01*
D15*
X830240Y88100D02*
X830240Y11900D01*
X799760Y11900D01*
X799760Y88100D01*
X830240Y88100D01*
D11*
X795569Y20281D02*
X788197Y20281D01*
X788197Y25196D01*
X791883Y22738D02*
X791883Y20281D01*
X789425Y27765D02*
X788197Y28994D01*
X788197Y31451D01*
X789425Y32680D01*
X790654Y32680D01*
X791883Y31451D01*
X791883Y30223D01*
X791883Y31451D02*
X793112Y32680D01*
X794340Y32680D01*
X795569Y31451D01*
X795569Y28994D01*
X794340Y27765D01*
D15*
X859600Y172620D02*
X910400Y172620D01*
X910400Y165000D01*
X910400Y157380D01*
X859600Y157380D01*
X859600Y165000D01*
X859600Y172620D01*
X910400Y165000D02*
X912940Y165000D01*
X859600Y165000D02*
X857060Y165000D01*
X904050Y171350D02*
X904050Y158650D01*
D11*
X935981Y161017D02*
X935981Y168389D01*
X935981Y161017D02*
X939667Y161017D01*
X940896Y162246D01*
X940896Y167161D01*
X939667Y168389D01*
X935981Y168389D01*
X943465Y162246D02*
X944694Y161017D01*
X947151Y161017D01*
X948380Y162246D01*
X948380Y167161D01*
X947151Y168389D01*
X944694Y168389D01*
X943465Y167161D01*
X943465Y165932D01*
X944694Y164703D01*
X948380Y164703D01*
D12*
X401750Y152700D02*
X389050Y152700D01*
X338250Y152700D01*
X338250Y140000D01*
X338250Y127300D01*
X389050Y127300D01*
X401750Y127300D01*
X401750Y140000D01*
X401750Y152700D01*
X389050Y152700D02*
X389050Y127300D01*
X338250Y140000D02*
X331900Y140000D01*
X401750Y140000D02*
X408100Y140000D01*
D11*
X341171Y156891D02*
X341171Y164263D01*
X341171Y156891D02*
X344857Y156891D01*
X346086Y158120D01*
X346086Y163035D01*
X344857Y164263D01*
X341171Y164263D01*
X348655Y164263D02*
X353570Y164263D01*
X348655Y164263D02*
X348655Y160577D01*
X351113Y161806D01*
X352341Y161806D01*
X353570Y160577D01*
X353570Y158120D01*
X352341Y156891D01*
X349884Y156891D01*
X348655Y158120D01*
D12*
X468250Y544300D02*
X480950Y544300D01*
X531750Y544300D01*
X531750Y557000D01*
X531750Y569700D01*
X480950Y569700D01*
X468250Y569700D01*
X468250Y557000D01*
X468250Y544300D01*
X480950Y544300D02*
X480950Y569700D01*
X531750Y557000D02*
X538100Y557000D01*
X468250Y557000D02*
X461900Y557000D01*
D11*
X564171Y560199D02*
X564171Y552827D01*
X567857Y552827D01*
X569086Y554056D01*
X569086Y558971D01*
X567857Y560199D01*
X564171Y560199D01*
X575341Y560199D02*
X575341Y552827D01*
X571655Y556513D02*
X575341Y560199D01*
X576570Y556513D02*
X571655Y556513D01*
D12*
X104740Y601740D02*
X9490Y601740D01*
X9490Y698260D02*
X104740Y698260D01*
X9490Y698260D02*
X9490Y601740D01*
X455260Y698260D02*
X550510Y698260D01*
X550510Y601740D01*
X455260Y601740D01*
D22*
X407000Y624600D02*
X140300Y624600D01*
X407000Y624600D02*
X407000Y644158D01*
X407000Y656858D01*
X407000Y675400D01*
X140300Y675400D01*
X140300Y624600D01*
X407000Y644158D02*
X419700Y644158D01*
X419700Y656858D01*
X407000Y656858D01*
X172050Y650000D02*
X159350Y650000D01*
X375250Y650000D02*
X387950Y650000D01*
X381600Y643650D02*
X381600Y656350D01*
D15*
X638000Y701500D02*
X662000Y701500D01*
X662000Y638500D01*
X638000Y638500D01*
X638000Y701500D01*
D11*
X646361Y584679D02*
X653733Y584679D01*
X646361Y584679D02*
X646361Y588365D01*
X647589Y589593D01*
X650047Y589593D01*
X651276Y588365D01*
X651276Y584679D01*
X651276Y587136D02*
X653733Y589593D01*
X648818Y592163D02*
X646361Y594620D01*
X653733Y594620D01*
X653733Y592163D02*
X653733Y597078D01*
X647589Y599647D02*
X646361Y600876D01*
X646361Y603333D01*
X647589Y604562D01*
X648818Y604562D01*
X650047Y603333D01*
X650047Y602104D01*
X650047Y603333D02*
X651276Y604562D01*
X652504Y604562D01*
X653733Y603333D01*
X653733Y600876D01*
X652504Y599647D01*
X647729Y657730D02*
X646501Y660188D01*
X647729Y657730D02*
X650187Y655273D01*
X652644Y655273D01*
X653873Y656501D01*
X653873Y658959D01*
X652644Y660188D01*
X651416Y660188D01*
X650187Y658959D01*
X650187Y655273D01*
X653873Y662757D02*
X653873Y667672D01*
X653873Y662757D02*
X648958Y667672D01*
X647729Y667672D01*
X646501Y666443D01*
X646501Y663986D01*
X647729Y662757D01*
X647729Y670241D02*
X652644Y670241D01*
X647729Y670241D02*
X646501Y671470D01*
X646501Y673927D01*
X647729Y675156D01*
X652644Y675156D01*
X653873Y673927D01*
X653873Y671470D01*
X652644Y670241D01*
X647729Y675156D01*
X646501Y677725D02*
X653873Y677725D01*
X646501Y677725D02*
X646501Y681411D01*
X647729Y682640D01*
X650187Y682640D01*
X651416Y681411D01*
X651416Y677725D01*
X651416Y680183D02*
X653873Y682640D01*
D15*
X632000Y701500D02*
X608000Y701500D01*
X632000Y701500D02*
X632000Y638500D01*
X608000Y638500D01*
X608000Y701500D01*
D11*
X616361Y584679D02*
X623733Y584679D01*
X616361Y584679D02*
X616361Y588365D01*
X617589Y589593D01*
X620047Y589593D01*
X621276Y588365D01*
X621276Y584679D01*
X621276Y587136D02*
X623733Y589593D01*
X618818Y592163D02*
X616361Y594620D01*
X623733Y594620D01*
X623733Y592163D02*
X623733Y597078D01*
X623733Y599647D02*
X623733Y604562D01*
X623733Y599647D02*
X618818Y604562D01*
X617589Y604562D01*
X616361Y603333D01*
X616361Y600876D01*
X617589Y599647D01*
X617729Y657730D02*
X616501Y660188D01*
X617729Y657730D02*
X620187Y655273D01*
X622644Y655273D01*
X623873Y656501D01*
X623873Y658959D01*
X622644Y660188D01*
X621416Y660188D01*
X620187Y658959D01*
X620187Y655273D01*
X623873Y662757D02*
X623873Y667672D01*
X623873Y662757D02*
X618958Y667672D01*
X617729Y667672D01*
X616501Y666443D01*
X616501Y663986D01*
X617729Y662757D01*
X617729Y670241D02*
X622644Y670241D01*
X617729Y670241D02*
X616501Y671470D01*
X616501Y673927D01*
X617729Y675156D01*
X622644Y675156D01*
X623873Y673927D01*
X623873Y671470D01*
X622644Y670241D01*
X617729Y675156D01*
X616501Y677725D02*
X623873Y677725D01*
X616501Y677725D02*
X616501Y681411D01*
X617729Y682640D01*
X620187Y682640D01*
X621416Y681411D01*
X621416Y677725D01*
X621416Y680183D02*
X623873Y682640D01*
D15*
X516590Y734520D02*
X473410Y734520D01*
X473410Y795480D02*
X516590Y795480D01*
X464520Y775160D02*
X464520Y755020D01*
X525480Y754720D02*
X525480Y775160D01*
X477220Y765000D02*
X477225Y765436D01*
X477241Y765872D01*
X477268Y766308D01*
X477306Y766743D01*
X477354Y767176D01*
X477412Y767609D01*
X477482Y768040D01*
X477562Y768469D01*
X477652Y768896D01*
X477753Y769320D01*
X477864Y769742D01*
X477986Y770161D01*
X478117Y770577D01*
X478259Y770990D01*
X478411Y771399D01*
X478573Y771804D01*
X478745Y772205D01*
X478927Y772602D01*
X479118Y772994D01*
X479319Y773381D01*
X479530Y773764D01*
X479750Y774141D01*
X479979Y774512D01*
X480216Y774878D01*
X480463Y775238D01*
X480719Y775592D01*
X480983Y775939D01*
X481256Y776280D01*
X481537Y776613D01*
X481826Y776940D01*
X482123Y777260D01*
X482428Y777572D01*
X482740Y777877D01*
X483060Y778174D01*
X483387Y778463D01*
X483720Y778744D01*
X484061Y779017D01*
X484408Y779281D01*
X484762Y779537D01*
X485122Y779784D01*
X485488Y780021D01*
X485859Y780250D01*
X486236Y780470D01*
X486619Y780681D01*
X487006Y780882D01*
X487398Y781073D01*
X487795Y781255D01*
X488196Y781427D01*
X488601Y781589D01*
X489010Y781741D01*
X489423Y781883D01*
X489839Y782014D01*
X490258Y782136D01*
X490680Y782247D01*
X491104Y782348D01*
X491531Y782438D01*
X491960Y782518D01*
X492391Y782588D01*
X492824Y782646D01*
X493257Y782694D01*
X493692Y782732D01*
X494128Y782759D01*
X494564Y782775D01*
X495000Y782780D01*
X495436Y782775D01*
X495872Y782759D01*
X496308Y782732D01*
X496743Y782694D01*
X497176Y782646D01*
X497609Y782588D01*
X498040Y782518D01*
X498469Y782438D01*
X498896Y782348D01*
X499320Y782247D01*
X499742Y782136D01*
X500161Y782014D01*
X500577Y781883D01*
X500990Y781741D01*
X501399Y781589D01*
X501804Y781427D01*
X502205Y781255D01*
X502602Y781073D01*
X502994Y780882D01*
X503381Y780681D01*
X503764Y780470D01*
X504141Y780250D01*
X504512Y780021D01*
X504878Y779784D01*
X505238Y779537D01*
X505592Y779281D01*
X505939Y779017D01*
X506280Y778744D01*
X506613Y778463D01*
X506940Y778174D01*
X507260Y777877D01*
X507572Y777572D01*
X507877Y777260D01*
X508174Y776940D01*
X508463Y776613D01*
X508744Y776280D01*
X509017Y775939D01*
X509281Y775592D01*
X509537Y775238D01*
X509784Y774878D01*
X510021Y774512D01*
X510250Y774141D01*
X510470Y773764D01*
X510681Y773381D01*
X510882Y772994D01*
X511073Y772602D01*
X511255Y772205D01*
X511427Y771804D01*
X511589Y771399D01*
X511741Y770990D01*
X511883Y770577D01*
X512014Y770161D01*
X512136Y769742D01*
X512247Y769320D01*
X512348Y768896D01*
X512438Y768469D01*
X512518Y768040D01*
X512588Y767609D01*
X512646Y767176D01*
X512694Y766743D01*
X512732Y766308D01*
X512759Y765872D01*
X512775Y765436D01*
X512780Y765000D01*
X512775Y764564D01*
X512759Y764128D01*
X512732Y763692D01*
X512694Y763257D01*
X512646Y762824D01*
X512588Y762391D01*
X512518Y761960D01*
X512438Y761531D01*
X512348Y761104D01*
X512247Y760680D01*
X512136Y760258D01*
X512014Y759839D01*
X511883Y759423D01*
X511741Y759010D01*
X511589Y758601D01*
X511427Y758196D01*
X511255Y757795D01*
X511073Y757398D01*
X510882Y757006D01*
X510681Y756619D01*
X510470Y756236D01*
X510250Y755859D01*
X510021Y755488D01*
X509784Y755122D01*
X509537Y754762D01*
X509281Y754408D01*
X509017Y754061D01*
X508744Y753720D01*
X508463Y753387D01*
X508174Y753060D01*
X507877Y752740D01*
X507572Y752428D01*
X507260Y752123D01*
X506940Y751826D01*
X506613Y751537D01*
X506280Y751256D01*
X505939Y750983D01*
X505592Y750719D01*
X505238Y750463D01*
X504878Y750216D01*
X504512Y749979D01*
X504141Y749750D01*
X503764Y749530D01*
X503381Y749319D01*
X502994Y749118D01*
X502602Y748927D01*
X502205Y748745D01*
X501804Y748573D01*
X501399Y748411D01*
X500990Y748259D01*
X500577Y748117D01*
X500161Y747986D01*
X499742Y747864D01*
X499320Y747753D01*
X498896Y747652D01*
X498469Y747562D01*
X498040Y747482D01*
X497609Y747412D01*
X497176Y747354D01*
X496743Y747306D01*
X496308Y747268D01*
X495872Y747241D01*
X495436Y747225D01*
X495000Y747220D01*
X494564Y747225D01*
X494128Y747241D01*
X493692Y747268D01*
X493257Y747306D01*
X492824Y747354D01*
X492391Y747412D01*
X491960Y747482D01*
X491531Y747562D01*
X491104Y747652D01*
X490680Y747753D01*
X490258Y747864D01*
X489839Y747986D01*
X489423Y748117D01*
X489010Y748259D01*
X488601Y748411D01*
X488196Y748573D01*
X487795Y748745D01*
X487398Y748927D01*
X487006Y749118D01*
X486619Y749319D01*
X486236Y749530D01*
X485859Y749750D01*
X485488Y749979D01*
X485122Y750216D01*
X484762Y750463D01*
X484408Y750719D01*
X484061Y750983D01*
X483720Y751256D01*
X483387Y751537D01*
X483060Y751826D01*
X482740Y752123D01*
X482428Y752428D01*
X482123Y752740D01*
X481826Y753060D01*
X481537Y753387D01*
X481256Y753720D01*
X480983Y754061D01*
X480719Y754408D01*
X480463Y754762D01*
X480216Y755122D01*
X479979Y755488D01*
X479750Y755859D01*
X479530Y756236D01*
X479319Y756619D01*
X479118Y757006D01*
X478927Y757398D01*
X478745Y757795D01*
X478573Y758196D01*
X478411Y758601D01*
X478259Y759010D01*
X478117Y759423D01*
X477986Y759839D01*
X477864Y760258D01*
X477753Y760680D01*
X477652Y761104D01*
X477562Y761531D01*
X477482Y761960D01*
X477412Y762391D01*
X477354Y762824D01*
X477306Y763257D01*
X477268Y763692D01*
X477241Y764128D01*
X477225Y764564D01*
X477220Y765000D01*
D11*
X454375Y763412D02*
X453147Y762183D01*
X453147Y759726D01*
X454375Y758497D01*
X455604Y758497D01*
X456833Y759726D01*
X456833Y762183D01*
X458062Y763412D01*
X459290Y763412D01*
X460519Y762183D01*
X460519Y759726D01*
X459290Y758497D01*
X455604Y765981D02*
X453147Y768438D01*
X460519Y768438D01*
X460519Y765981D02*
X460519Y770896D01*
D15*
X258500Y498000D02*
X258500Y474000D01*
X258500Y498000D02*
X321500Y498000D01*
X321500Y474000D01*
X258500Y474000D01*
D11*
X355631Y482367D02*
X355631Y489739D01*
X359317Y489739D01*
X360546Y488511D01*
X360546Y486053D01*
X359317Y484824D01*
X355631Y484824D01*
X358088Y484824D02*
X360546Y482367D01*
X366801Y482367D02*
X366801Y489739D01*
X363115Y486053D01*
X368030Y486053D01*
X281701Y489499D02*
X281701Y482127D01*
X278015Y485813D02*
X281701Y489499D01*
X282930Y485813D02*
X278015Y485813D01*
X285499Y489499D02*
X285499Y482127D01*
X285499Y484584D02*
X290414Y489499D01*
X286728Y485813D02*
X290414Y482127D01*
X292983Y489499D02*
X297898Y489499D01*
X297898Y488271D01*
X292983Y483356D01*
X292983Y482127D01*
D15*
X258500Y499000D02*
X258500Y523000D01*
X321500Y523000D01*
X321500Y499000D01*
X258500Y499000D01*
D11*
X355631Y507367D02*
X355631Y514739D01*
X359317Y514739D01*
X360546Y513511D01*
X360546Y511053D01*
X359317Y509824D01*
X355631Y509824D01*
X358088Y509824D02*
X360546Y507367D01*
X363115Y514739D02*
X368030Y514739D01*
X363115Y514739D02*
X363115Y511053D01*
X365573Y512282D01*
X366801Y512282D01*
X368030Y511053D01*
X368030Y508596D01*
X366801Y507367D01*
X364344Y507367D01*
X363115Y508596D01*
X281701Y507127D02*
X281701Y514499D01*
X278015Y510813D01*
X282930Y510813D01*
X285499Y514499D02*
X285499Y507127D01*
X285499Y509584D02*
X290414Y514499D01*
X286728Y510813D02*
X290414Y507127D01*
X292983Y514499D02*
X297898Y514499D01*
X297898Y513271D01*
X292983Y508356D01*
X292983Y507127D01*
D15*
X484050Y261750D02*
X484050Y249050D01*
X410390Y230000D02*
X410406Y231340D01*
X410456Y232680D01*
X410538Y234017D01*
X410653Y235353D01*
X410801Y236685D01*
X410981Y238013D01*
X411194Y239336D01*
X411439Y240654D01*
X411717Y241965D01*
X412027Y243269D01*
X412368Y244565D01*
X412741Y245852D01*
X413146Y247130D01*
X413582Y248398D01*
X414049Y249654D01*
X414547Y250898D01*
X415075Y252130D01*
X415633Y253349D01*
X416221Y254553D01*
X416838Y255743D01*
X417485Y256917D01*
X418159Y258075D01*
X418863Y259216D01*
X419593Y260340D01*
X420352Y261445D01*
X421137Y262531D01*
X421948Y263598D01*
X422786Y264644D01*
X423649Y265670D01*
X424537Y266674D01*
X425449Y267656D01*
X426385Y268615D01*
X427344Y269551D01*
X428326Y270463D01*
X429330Y271351D01*
X430356Y272214D01*
X431402Y273052D01*
X432469Y273863D01*
X433555Y274648D01*
X434660Y275407D01*
X435784Y276137D01*
X436925Y276841D01*
X438083Y277515D01*
X439257Y278162D01*
X440447Y278779D01*
X441651Y279367D01*
X442870Y279925D01*
X444102Y280453D01*
X445346Y280951D01*
X446602Y281418D01*
X447870Y281854D01*
X449148Y282259D01*
X450435Y282632D01*
X451731Y282973D01*
X453035Y283283D01*
X454346Y283561D01*
X455664Y283806D01*
X456987Y284019D01*
X458315Y284199D01*
X459647Y284347D01*
X460983Y284462D01*
X462320Y284544D01*
X463660Y284594D01*
X465000Y284610D01*
X466340Y284594D01*
X467680Y284544D01*
X469017Y284462D01*
X470353Y284347D01*
X471685Y284199D01*
X473013Y284019D01*
X474336Y283806D01*
X475654Y283561D01*
X476965Y283283D01*
X478269Y282973D01*
X479565Y282632D01*
X480852Y282259D01*
X482130Y281854D01*
X483398Y281418D01*
X484654Y280951D01*
X485898Y280453D01*
X487130Y279925D01*
X488349Y279367D01*
X489553Y278779D01*
X490743Y278162D01*
X491917Y277515D01*
X493075Y276841D01*
X494216Y276137D01*
X495340Y275407D01*
X496445Y274648D01*
X497531Y273863D01*
X498598Y273052D01*
X499644Y272214D01*
X500670Y271351D01*
X501674Y270463D01*
X502656Y269551D01*
X503615Y268615D01*
X504551Y267656D01*
X505463Y266674D01*
X506351Y265670D01*
X507214Y264644D01*
X508052Y263598D01*
X508863Y262531D01*
X509648Y261445D01*
X510407Y260340D01*
X511137Y259216D01*
X511841Y258075D01*
X512515Y256917D01*
X513162Y255743D01*
X513779Y254553D01*
X514367Y253349D01*
X514925Y252130D01*
X515453Y250898D01*
X515951Y249654D01*
X516418Y248398D01*
X516854Y247130D01*
X517259Y245852D01*
X517632Y244565D01*
X517973Y243269D01*
X518283Y241965D01*
X518561Y240654D01*
X518806Y239336D01*
X519019Y238013D01*
X519199Y236685D01*
X519347Y235353D01*
X519462Y234017D01*
X519544Y232680D01*
X519594Y231340D01*
X519610Y230000D01*
X519594Y228660D01*
X519544Y227320D01*
X519462Y225983D01*
X519347Y224647D01*
X519199Y223315D01*
X519019Y221987D01*
X518806Y220664D01*
X518561Y219346D01*
X518283Y218035D01*
X517973Y216731D01*
X517632Y215435D01*
X517259Y214148D01*
X516854Y212870D01*
X516418Y211602D01*
X515951Y210346D01*
X515453Y209102D01*
X514925Y207870D01*
X514367Y206651D01*
X513779Y205447D01*
X513162Y204257D01*
X512515Y203083D01*
X511841Y201925D01*
X511137Y200784D01*
X510407Y199660D01*
X509648Y198555D01*
X508863Y197469D01*
X508052Y196402D01*
X507214Y195356D01*
X506351Y194330D01*
X505463Y193326D01*
X504551Y192344D01*
X503615Y191385D01*
X502656Y190449D01*
X501674Y189537D01*
X500670Y188649D01*
X499644Y187786D01*
X498598Y186948D01*
X497531Y186137D01*
X496445Y185352D01*
X495340Y184593D01*
X494216Y183863D01*
X493075Y183159D01*
X491917Y182485D01*
X490743Y181838D01*
X489553Y181221D01*
X488349Y180633D01*
X487130Y180075D01*
X485898Y179547D01*
X484654Y179049D01*
X483398Y178582D01*
X482130Y178146D01*
X480852Y177741D01*
X479565Y177368D01*
X478269Y177027D01*
X476965Y176717D01*
X475654Y176439D01*
X474336Y176194D01*
X473013Y175981D01*
X471685Y175801D01*
X470353Y175653D01*
X469017Y175538D01*
X467680Y175456D01*
X466340Y175406D01*
X465000Y175390D01*
X463660Y175406D01*
X462320Y175456D01*
X460983Y175538D01*
X459647Y175653D01*
X458315Y175801D01*
X456987Y175981D01*
X455664Y176194D01*
X454346Y176439D01*
X453035Y176717D01*
X451731Y177027D01*
X450435Y177368D01*
X449148Y177741D01*
X447870Y178146D01*
X446602Y178582D01*
X445346Y179049D01*
X444102Y179547D01*
X442870Y180075D01*
X441651Y180633D01*
X440447Y181221D01*
X439257Y181838D01*
X438083Y182485D01*
X436925Y183159D01*
X435784Y183863D01*
X434660Y184593D01*
X433555Y185352D01*
X432469Y186137D01*
X431402Y186948D01*
X430356Y187786D01*
X429330Y188649D01*
X428326Y189537D01*
X427344Y190449D01*
X426385Y191385D01*
X425449Y192344D01*
X424537Y193326D01*
X423649Y194330D01*
X422786Y195356D01*
X421948Y196402D01*
X421137Y197469D01*
X420352Y198555D01*
X419593Y199660D01*
X418863Y200784D01*
X418159Y201925D01*
X417485Y203083D01*
X416838Y204257D01*
X416221Y205447D01*
X415633Y206651D01*
X415075Y207870D01*
X414547Y209102D01*
X414049Y210346D01*
X413582Y211602D01*
X413146Y212870D01*
X412741Y214148D01*
X412368Y215435D01*
X412027Y216731D01*
X411717Y218035D01*
X411439Y219346D01*
X411194Y220664D01*
X410981Y221987D01*
X410801Y223315D01*
X410653Y224647D01*
X410538Y225983D01*
X410456Y227320D01*
X410406Y228660D01*
X410390Y230000D01*
X484050Y210950D02*
X484050Y198250D01*
X490400Y204600D02*
X477700Y204600D01*
D11*
X462192Y296735D02*
X460963Y297963D01*
X458506Y297963D01*
X457277Y296735D01*
X457277Y291820D01*
X458506Y290591D01*
X460963Y290591D01*
X462192Y291820D01*
X464761Y295506D02*
X467218Y297963D01*
X467218Y290591D01*
X464761Y290591D02*
X469676Y290591D01*
D13*
X460000Y47000D02*
X490000Y47000D01*
X460000Y47000D02*
X460000Y2000D01*
X560000Y2000D01*
X560000Y47000D01*
X530000Y47000D01*
D11*
X565381Y32753D02*
X570296Y25381D01*
X565381Y25381D02*
X570296Y32753D01*
X572865Y25381D02*
X577780Y25381D01*
X572865Y25381D02*
X577780Y30296D01*
X577780Y31525D01*
X576551Y32753D01*
X574094Y32753D01*
X572865Y31525D01*
D15*
X537000Y83500D02*
X513000Y83500D01*
X513000Y146500D01*
X537000Y146500D01*
X537000Y83500D01*
D11*
X529569Y177631D02*
X522197Y177631D01*
X522197Y181317D01*
X523425Y182546D01*
X525883Y182546D01*
X527112Y181317D01*
X527112Y177631D01*
X527112Y180088D02*
X529569Y182546D01*
X524654Y185115D02*
X522197Y187573D01*
X529569Y187573D01*
X529569Y190030D02*
X529569Y185115D01*
X522197Y192599D02*
X522197Y197514D01*
X522197Y192599D02*
X525883Y192599D01*
X524654Y195057D01*
X524654Y196285D01*
X525883Y197514D01*
X528340Y197514D01*
X529569Y196285D01*
X529569Y193828D01*
X528340Y192599D01*
X521121Y105468D02*
X522349Y103010D01*
X524807Y100553D01*
X527264Y100553D01*
X528493Y101781D01*
X528493Y104239D01*
X527264Y105468D01*
X526036Y105468D01*
X524807Y104239D01*
X524807Y100553D01*
X528493Y108037D02*
X528493Y112952D01*
X528493Y108037D02*
X523578Y112952D01*
X522349Y112952D01*
X521121Y111723D01*
X521121Y109266D01*
X522349Y108037D01*
X522349Y115521D02*
X527264Y115521D01*
X522349Y115521D02*
X521121Y116750D01*
X521121Y119207D01*
X522349Y120436D01*
X527264Y120436D01*
X528493Y119207D01*
X528493Y116750D01*
X527264Y115521D01*
X522349Y120436D01*
X521121Y123005D02*
X528493Y123005D01*
X521121Y123005D02*
X521121Y126691D01*
X522349Y127920D01*
X524807Y127920D01*
X526036Y126691D01*
X526036Y123005D01*
X526036Y125463D02*
X528493Y127920D01*
D15*
X507000Y83500D02*
X483000Y83500D01*
X483000Y146500D01*
X507000Y146500D01*
X507000Y83500D01*
D11*
X511197Y177631D02*
X518569Y177631D01*
X511197Y177631D02*
X511197Y181317D01*
X512425Y182546D01*
X514883Y182546D01*
X516112Y181317D01*
X516112Y177631D01*
X516112Y180088D02*
X518569Y182546D01*
X513654Y185115D02*
X511197Y187573D01*
X518569Y187573D01*
X518569Y190030D02*
X518569Y185115D01*
X518569Y196285D02*
X511197Y196285D01*
X514883Y192599D01*
X514883Y197514D01*
X491121Y105468D02*
X492349Y103010D01*
X494807Y100553D01*
X497264Y100553D01*
X498493Y101781D01*
X498493Y104239D01*
X497264Y105468D01*
X496036Y105468D01*
X494807Y104239D01*
X494807Y100553D01*
X498493Y108037D02*
X498493Y112952D01*
X498493Y108037D02*
X493578Y112952D01*
X492349Y112952D01*
X491121Y111723D01*
X491121Y109266D01*
X492349Y108037D01*
X492349Y115521D02*
X497264Y115521D01*
X492349Y115521D02*
X491121Y116750D01*
X491121Y119207D01*
X492349Y120436D01*
X497264Y120436D01*
X498493Y119207D01*
X498493Y116750D01*
X497264Y115521D01*
X492349Y120436D01*
X491121Y123005D02*
X498493Y123005D01*
X491121Y123005D02*
X491121Y126691D01*
X492349Y127920D01*
X494807Y127920D01*
X496036Y126691D01*
X496036Y123005D01*
X496036Y125463D02*
X498493Y127920D01*
D15*
X315400Y453380D02*
X264600Y453380D01*
X264600Y461000D01*
X264600Y468620D01*
X315400Y468620D01*
X315400Y461000D01*
X315400Y453380D01*
X264600Y461000D02*
X262060Y461000D01*
X315400Y461000D02*
X317940Y461000D01*
X270950Y454650D02*
X270950Y467350D01*
D11*
X342981Y464389D02*
X342981Y457017D01*
X346667Y457017D01*
X347896Y458246D01*
X347896Y463161D01*
X346667Y464389D01*
X342981Y464389D01*
X350465Y461932D02*
X352923Y464389D01*
X352923Y457017D01*
X355380Y457017D02*
X350465Y457017D01*
X357949Y458246D02*
X357949Y463161D01*
X359178Y464389D01*
X361635Y464389D01*
X362864Y463161D01*
X362864Y458246D01*
X361635Y457017D01*
X359178Y457017D01*
X357949Y458246D01*
X362864Y463161D01*
X280703Y464769D02*
X279475Y463541D01*
X280703Y464769D02*
X283161Y464769D01*
X284390Y463541D01*
X284390Y462312D01*
X283161Y461083D01*
X281932Y461083D01*
X283161Y461083D02*
X284390Y459854D01*
X284390Y458626D01*
X283161Y457397D01*
X280703Y457397D01*
X279475Y458626D01*
X286959Y459854D02*
X286959Y464769D01*
X286959Y459854D02*
X289416Y457397D01*
X291874Y459854D01*
X291874Y464769D01*
X296900Y463541D02*
X299358Y464769D01*
X296900Y463541D02*
X294443Y461083D01*
X294443Y458626D01*
X295672Y457397D01*
X298129Y457397D01*
X299358Y458626D01*
X299358Y459854D01*
X298129Y461083D01*
X294443Y461083D01*
D15*
X315400Y528380D02*
X264600Y528380D01*
X264600Y536000D01*
X264600Y543620D01*
X315400Y543620D01*
X315400Y536000D01*
X315400Y528380D01*
X264600Y536000D02*
X262060Y536000D01*
X315400Y536000D02*
X317940Y536000D01*
X270950Y529650D02*
X270950Y542350D01*
D11*
X343981Y540389D02*
X343981Y533017D01*
X347667Y533017D01*
X348896Y534246D01*
X348896Y539161D01*
X347667Y540389D01*
X343981Y540389D01*
X351465Y537932D02*
X353923Y540389D01*
X353923Y533017D01*
X356380Y533017D02*
X351465Y533017D01*
X358949Y537932D02*
X361407Y540389D01*
X361407Y533017D01*
X363864Y533017D02*
X358949Y533017D01*
X280703Y539769D02*
X279475Y538541D01*
X280703Y539769D02*
X283161Y539769D01*
X284390Y538541D01*
X284390Y537312D01*
X283161Y536083D01*
X281932Y536083D01*
X283161Y536083D02*
X284390Y534854D01*
X284390Y533626D01*
X283161Y532397D01*
X280703Y532397D01*
X279475Y533626D01*
X286959Y534854D02*
X286959Y539769D01*
X286959Y534854D02*
X289416Y532397D01*
X291874Y534854D01*
X291874Y539769D01*
X296900Y538541D02*
X299358Y539769D01*
X296900Y538541D02*
X294443Y536083D01*
X294443Y533626D01*
X295672Y532397D01*
X298129Y532397D01*
X299358Y533626D01*
X299358Y534854D01*
X298129Y536083D01*
X294443Y536083D01*
D12*
X519050Y537700D02*
X531750Y537700D01*
X519050Y537700D02*
X468250Y537700D01*
X468250Y525000D01*
X468250Y512300D01*
X519050Y512300D01*
X531750Y512300D01*
X531750Y525000D01*
X531750Y537700D01*
X519050Y537700D02*
X519050Y512300D01*
X468250Y525000D02*
X461900Y525000D01*
X531750Y525000D02*
X538100Y525000D01*
D11*
X565171Y528199D02*
X565171Y520827D01*
X568857Y520827D01*
X570086Y522056D01*
X570086Y526971D01*
X568857Y528199D01*
X565171Y528199D01*
X572655Y520827D02*
X577570Y520827D01*
X572655Y520827D02*
X577570Y525742D01*
X577570Y526971D01*
X576341Y528199D01*
X573884Y528199D01*
X572655Y526971D01*
D15*
X525400Y492380D02*
X474600Y492380D01*
X474600Y500000D01*
X474600Y507620D01*
X525400Y507620D01*
X525400Y500000D01*
X525400Y492380D01*
X474600Y500000D02*
X472060Y500000D01*
X525400Y500000D02*
X527940Y500000D01*
X480950Y493650D02*
X480950Y506350D01*
D11*
X551981Y504389D02*
X551981Y497017D01*
X555667Y497017D01*
X556896Y498246D01*
X556896Y503161D01*
X555667Y504389D01*
X551981Y504389D01*
X559465Y501932D02*
X561923Y504389D01*
X561923Y497017D01*
X564380Y497017D02*
X559465Y497017D01*
X490703Y503769D02*
X489475Y502541D01*
X490703Y503769D02*
X493161Y503769D01*
X494390Y502541D01*
X494390Y501312D01*
X493161Y500083D01*
X491932Y500083D01*
X493161Y500083D02*
X494390Y498854D01*
X494390Y497626D01*
X493161Y496397D01*
X490703Y496397D01*
X489475Y497626D01*
X496959Y498854D02*
X496959Y503769D01*
X496959Y498854D02*
X499416Y496397D01*
X501874Y498854D01*
X501874Y503769D01*
X506900Y502541D02*
X509358Y503769D01*
X506900Y502541D02*
X504443Y500083D01*
X504443Y497626D01*
X505672Y496397D01*
X508129Y496397D01*
X509358Y497626D01*
X509358Y498854D01*
X508129Y500083D01*
X504443Y500083D01*
D15*
X545000Y466500D02*
X545000Y433500D01*
X455000Y433500D01*
X455000Y466500D01*
X545000Y466500D01*
D11*
X548931Y463781D02*
X548931Y471153D01*
X552617Y471153D01*
X553846Y469925D01*
X553846Y467467D01*
X552617Y466238D01*
X548931Y466238D01*
X551388Y466238D02*
X553846Y463781D01*
X556415Y468696D02*
X558873Y471153D01*
X558873Y463781D01*
X561330Y463781D02*
X556415Y463781D01*
X466936Y453499D02*
X466936Y446127D01*
X463250Y449813D02*
X466936Y453499D01*
X468165Y449813D02*
X463250Y449813D01*
X470734Y453499D02*
X475649Y453499D01*
X475649Y452271D01*
X470734Y447356D01*
X470734Y446127D01*
X478219Y447356D02*
X478219Y452271D01*
X479447Y453499D01*
X481905Y453499D01*
X483133Y452271D01*
X483133Y447356D01*
X481905Y446127D01*
X479447Y446127D01*
X478219Y447356D01*
X483133Y452271D01*
X485703Y453499D02*
X485703Y446127D01*
X485703Y453499D02*
X489389Y453499D01*
X490618Y452271D01*
X490618Y449813D01*
X489389Y448584D01*
X485703Y448584D01*
X488160Y448584D02*
X490618Y446127D01*
X500671Y453499D02*
X505586Y453499D01*
X500671Y453499D02*
X500671Y449813D01*
X503128Y451042D01*
X504357Y451042D01*
X505586Y449813D01*
X505586Y447356D01*
X504357Y446127D01*
X501900Y446127D01*
X500671Y447356D01*
X508155Y447356D02*
X508155Y452271D01*
X509384Y453499D01*
X511841Y453499D01*
X513070Y452271D01*
X513070Y447356D01*
X511841Y446127D01*
X509384Y446127D01*
X508155Y447356D01*
X513070Y452271D01*
X515639Y452271D02*
X515639Y447356D01*
X515639Y452271D02*
X516868Y453499D01*
X519325Y453499D01*
X520554Y452271D01*
X520554Y447356D01*
X519325Y446127D01*
X516868Y446127D01*
X515639Y447356D01*
X520554Y452271D01*
X523123Y451042D02*
X523123Y446127D01*
X523123Y451042D02*
X524352Y451042D01*
X525581Y449813D01*
X525581Y446127D01*
X525581Y449813D02*
X526810Y451042D01*
X528038Y449813D01*
X528038Y446127D01*
X530608Y446127D02*
X530608Y453499D01*
X533065Y448584D02*
X530608Y446127D01*
X533065Y448584D02*
X535522Y446127D01*
X535522Y453499D01*
D15*
X472620Y135400D02*
X472620Y84600D01*
X465000Y84600D01*
X457380Y84600D01*
X457380Y135400D01*
X465000Y135400D01*
X472620Y135400D01*
X465000Y84600D02*
X465000Y82060D01*
X465000Y135400D02*
X465000Y137940D01*
X471350Y90950D02*
X458650Y90950D01*
D11*
X452919Y135470D02*
X445547Y135470D01*
X445547Y133013D02*
X445547Y137928D01*
X445547Y140497D02*
X450462Y140497D01*
X452919Y142954D01*
X450462Y145412D01*
X445547Y145412D01*
X445547Y151667D02*
X446775Y152896D01*
X445547Y151667D02*
X445547Y149210D01*
X446775Y147981D01*
X448004Y147981D01*
X449233Y149210D01*
X449233Y151667D01*
X450462Y152896D01*
X451690Y152896D01*
X452919Y151667D01*
X452919Y149210D01*
X451690Y147981D01*
X446775Y157923D02*
X445547Y160380D01*
X446775Y157923D02*
X449233Y155465D01*
X451690Y155465D01*
X452919Y156694D01*
X452919Y159151D01*
X451690Y160380D01*
X450462Y160380D01*
X449233Y159151D01*
X449233Y155465D01*
D15*
X562620Y135400D02*
X562620Y84600D01*
X555000Y84600D01*
X547380Y84600D01*
X547380Y135400D01*
X555000Y135400D01*
X562620Y135400D01*
X555000Y84600D02*
X555000Y82060D01*
X555000Y135400D02*
X555000Y137940D01*
X561350Y90950D02*
X548650Y90950D01*
D11*
X568075Y136270D02*
X575447Y136270D01*
X568075Y133813D02*
X568075Y138728D01*
X568075Y141297D02*
X572990Y141297D01*
X575447Y143754D01*
X572990Y146212D01*
X568075Y146212D01*
X568075Y152467D02*
X569303Y153696D01*
X568075Y152467D02*
X568075Y150010D01*
X569303Y148781D01*
X570532Y148781D01*
X571761Y150010D01*
X571761Y152467D01*
X572990Y153696D01*
X574218Y153696D01*
X575447Y152467D01*
X575447Y150010D01*
X574218Y148781D01*
X568075Y156265D02*
X568075Y161180D01*
X569303Y161180D01*
X574218Y156265D01*
X575447Y156265D01*
D15*
X584986Y644600D02*
X584986Y695400D01*
X592606Y695400D01*
X600226Y695400D01*
X600226Y644600D01*
X592606Y644600D01*
X584986Y644600D01*
X592606Y695400D02*
X592606Y697940D01*
X592606Y644600D02*
X592606Y642060D01*
X586256Y689050D02*
X598956Y689050D01*
D11*
X596777Y592302D02*
X589405Y592302D01*
X589405Y594759D02*
X589405Y589844D01*
X589405Y597329D02*
X594320Y597329D01*
X596777Y599786D01*
X594320Y602243D01*
X589405Y602243D01*
X589405Y608499D02*
X590633Y609728D01*
X589405Y608499D02*
X589405Y606041D01*
X590633Y604813D01*
X591862Y604813D01*
X593091Y606041D01*
X593091Y608499D01*
X594320Y609728D01*
X595548Y609728D01*
X596777Y608499D01*
X596777Y606041D01*
X595548Y604813D01*
X589405Y612297D02*
X589405Y617212D01*
X589405Y612297D02*
X593091Y612297D01*
X591862Y614754D01*
X591862Y615983D01*
X593091Y617212D01*
X595548Y617212D01*
X596777Y615983D01*
X596777Y613526D01*
X595548Y612297D01*
D15*
X395400Y57620D02*
X344600Y57620D01*
X395400Y57620D02*
X395400Y50000D01*
X395400Y42380D01*
X344600Y42380D01*
X344600Y50000D01*
X344600Y57620D01*
X395400Y50000D02*
X397940Y50000D01*
X344600Y50000D02*
X342060Y50000D01*
X389050Y56350D02*
X389050Y43650D01*
D11*
X420981Y47017D02*
X420981Y54389D01*
X420981Y47017D02*
X424667Y47017D01*
X425896Y48246D01*
X425896Y53161D01*
X424667Y54389D01*
X420981Y54389D01*
X428465Y51932D02*
X430923Y54389D01*
X430923Y47017D01*
X433380Y47017D02*
X428465Y47017D01*
X435949Y47017D02*
X440864Y47017D01*
X435949Y47017D02*
X440864Y51932D01*
X440864Y53161D01*
X439635Y54389D01*
X437178Y54389D01*
X435949Y53161D01*
X360063Y53609D02*
X358835Y52381D01*
X360063Y53609D02*
X362521Y53609D01*
X363750Y52381D01*
X363750Y51152D01*
X362521Y49923D01*
X361292Y49923D01*
X362521Y49923D02*
X363750Y48694D01*
X363750Y47466D01*
X362521Y46237D01*
X360063Y46237D01*
X358835Y47466D01*
X366319Y48694D02*
X366319Y53609D01*
X366319Y48694D02*
X368776Y46237D01*
X371234Y48694D01*
X371234Y53609D01*
X376261Y52381D02*
X378718Y53609D01*
X376261Y52381D02*
X373803Y49923D01*
X373803Y47466D01*
X375032Y46237D01*
X377489Y46237D01*
X378718Y47466D01*
X378718Y48694D01*
X377489Y49923D01*
X373803Y49923D01*
D15*
X358750Y792700D02*
X346050Y792700D01*
X358750Y792700D02*
X365100Y786350D01*
X365100Y773650D02*
X358750Y767300D01*
X320650Y792700D02*
X314300Y786350D01*
X320650Y792700D02*
X333350Y792700D01*
X339700Y786350D01*
X339700Y773650D02*
X333350Y767300D01*
X320650Y767300D01*
X314300Y773650D01*
X339700Y786350D02*
X346050Y792700D01*
X339700Y773650D02*
X346050Y767300D01*
X358750Y767300D01*
X282550Y792700D02*
X269850Y792700D01*
X282550Y792700D02*
X288900Y786350D01*
X288900Y773650D02*
X282550Y767300D01*
X288900Y786350D02*
X295250Y792700D01*
X307950Y792700D01*
X314300Y786350D01*
X314300Y773650D02*
X307950Y767300D01*
X295250Y767300D01*
X288900Y773650D01*
X244450Y792700D02*
X238100Y786350D01*
X244450Y792700D02*
X257150Y792700D01*
X263500Y786350D01*
X263500Y773650D02*
X257150Y767300D01*
X244450Y767300D01*
X238100Y773650D01*
X263500Y786350D02*
X269850Y792700D01*
X263500Y773650D02*
X269850Y767300D01*
X282550Y767300D01*
X206350Y792700D02*
X193650Y792700D01*
X206350Y792700D02*
X212700Y786350D01*
X212700Y773650D02*
X206350Y767300D01*
X212700Y786350D02*
X219050Y792700D01*
X231750Y792700D01*
X238100Y786350D01*
X238100Y773650D02*
X231750Y767300D01*
X219050Y767300D01*
X212700Y773650D01*
X187300Y773650D02*
X187300Y786350D01*
X193650Y792700D01*
X187300Y773650D02*
X193650Y767300D01*
X206350Y767300D01*
X371450Y792700D02*
X384150Y792700D01*
X390500Y786350D01*
X390500Y773650D01*
X384150Y767300D01*
X365100Y786350D02*
X371450Y792700D01*
X365100Y773650D02*
X371450Y767300D01*
X384150Y767300D01*
D11*
X400834Y776605D02*
X395919Y783977D01*
X400834Y783977D02*
X395919Y776605D01*
X403403Y782749D02*
X404632Y783977D01*
X407089Y783977D01*
X408318Y782749D01*
X408318Y781520D01*
X407089Y780291D01*
X405861Y780291D01*
X407089Y780291D02*
X408318Y779062D01*
X408318Y777834D01*
X407089Y776605D01*
X404632Y776605D01*
X403403Y777834D01*
D13*
X11100Y565000D02*
X11100Y399900D01*
X188900Y399900D01*
X188900Y565000D01*
X11100Y565000D01*
X82039Y476100D02*
X82044Y476541D01*
X82061Y476981D01*
X82088Y477421D01*
X82125Y477860D01*
X82174Y478299D01*
X82233Y478735D01*
X82303Y479171D01*
X82384Y479604D01*
X82475Y480035D01*
X82577Y480464D01*
X82690Y480890D01*
X82812Y481314D01*
X82946Y481734D01*
X83089Y482151D01*
X83243Y482564D01*
X83406Y482973D01*
X83580Y483379D01*
X83763Y483779D01*
X83957Y484175D01*
X84160Y484567D01*
X84372Y484953D01*
X84594Y485334D01*
X84826Y485709D01*
X85066Y486079D01*
X85315Y486442D01*
X85574Y486799D01*
X85841Y487150D01*
X86116Y487494D01*
X86400Y487832D01*
X86692Y488162D01*
X86992Y488485D01*
X87300Y488800D01*
X87615Y489108D01*
X87938Y489408D01*
X88268Y489700D01*
X88606Y489984D01*
X88950Y490259D01*
X89301Y490526D01*
X89658Y490785D01*
X90021Y491034D01*
X90391Y491274D01*
X90766Y491506D01*
X91147Y491728D01*
X91533Y491940D01*
X91925Y492143D01*
X92321Y492337D01*
X92721Y492520D01*
X93127Y492694D01*
X93536Y492857D01*
X93949Y493011D01*
X94366Y493154D01*
X94786Y493288D01*
X95210Y493410D01*
X95636Y493523D01*
X96065Y493625D01*
X96496Y493716D01*
X96929Y493797D01*
X97365Y493867D01*
X97801Y493926D01*
X98240Y493975D01*
X98679Y494012D01*
X99119Y494039D01*
X99559Y494056D01*
X100000Y494061D01*
X100441Y494056D01*
X100881Y494039D01*
X101321Y494012D01*
X101760Y493975D01*
X102199Y493926D01*
X102635Y493867D01*
X103071Y493797D01*
X103504Y493716D01*
X103935Y493625D01*
X104364Y493523D01*
X104790Y493410D01*
X105214Y493288D01*
X105634Y493154D01*
X106051Y493011D01*
X106464Y492857D01*
X106873Y492694D01*
X107279Y492520D01*
X107679Y492337D01*
X108075Y492143D01*
X108467Y491940D01*
X108853Y491728D01*
X109234Y491506D01*
X109609Y491274D01*
X109979Y491034D01*
X110342Y490785D01*
X110699Y490526D01*
X111050Y490259D01*
X111394Y489984D01*
X111732Y489700D01*
X112062Y489408D01*
X112385Y489108D01*
X112700Y488800D01*
X113008Y488485D01*
X113308Y488162D01*
X113600Y487832D01*
X113884Y487494D01*
X114159Y487150D01*
X114426Y486799D01*
X114685Y486442D01*
X114934Y486079D01*
X115174Y485709D01*
X115406Y485334D01*
X115628Y484953D01*
X115840Y484567D01*
X116043Y484175D01*
X116237Y483779D01*
X116420Y483379D01*
X116594Y482973D01*
X116757Y482564D01*
X116911Y482151D01*
X117054Y481734D01*
X117188Y481314D01*
X117310Y480890D01*
X117423Y480464D01*
X117525Y480035D01*
X117616Y479604D01*
X117697Y479171D01*
X117767Y478735D01*
X117826Y478299D01*
X117875Y477860D01*
X117912Y477421D01*
X117939Y476981D01*
X117956Y476541D01*
X117961Y476100D01*
X117956Y475659D01*
X117939Y475219D01*
X117912Y474779D01*
X117875Y474340D01*
X117826Y473901D01*
X117767Y473465D01*
X117697Y473029D01*
X117616Y472596D01*
X117525Y472165D01*
X117423Y471736D01*
X117310Y471310D01*
X117188Y470886D01*
X117054Y470466D01*
X116911Y470049D01*
X116757Y469636D01*
X116594Y469227D01*
X116420Y468821D01*
X116237Y468421D01*
X116043Y468025D01*
X115840Y467633D01*
X115628Y467247D01*
X115406Y466866D01*
X115174Y466491D01*
X114934Y466121D01*
X114685Y465758D01*
X114426Y465401D01*
X114159Y465050D01*
X113884Y464706D01*
X113600Y464368D01*
X113308Y464038D01*
X113008Y463715D01*
X112700Y463400D01*
X112385Y463092D01*
X112062Y462792D01*
X111732Y462500D01*
X111394Y462216D01*
X111050Y461941D01*
X110699Y461674D01*
X110342Y461415D01*
X109979Y461166D01*
X109609Y460926D01*
X109234Y460694D01*
X108853Y460472D01*
X108467Y460260D01*
X108075Y460057D01*
X107679Y459863D01*
X107279Y459680D01*
X106873Y459506D01*
X106464Y459343D01*
X106051Y459189D01*
X105634Y459046D01*
X105214Y458912D01*
X104790Y458790D01*
X104364Y458677D01*
X103935Y458575D01*
X103504Y458484D01*
X103071Y458403D01*
X102635Y458333D01*
X102199Y458274D01*
X101760Y458225D01*
X101321Y458188D01*
X100881Y458161D01*
X100441Y458144D01*
X100000Y458139D01*
X99559Y458144D01*
X99119Y458161D01*
X98679Y458188D01*
X98240Y458225D01*
X97801Y458274D01*
X97365Y458333D01*
X96929Y458403D01*
X96496Y458484D01*
X96065Y458575D01*
X95636Y458677D01*
X95210Y458790D01*
X94786Y458912D01*
X94366Y459046D01*
X93949Y459189D01*
X93536Y459343D01*
X93127Y459506D01*
X92721Y459680D01*
X92321Y459863D01*
X91925Y460057D01*
X91533Y460260D01*
X91147Y460472D01*
X90766Y460694D01*
X90391Y460926D01*
X90021Y461166D01*
X89658Y461415D01*
X89301Y461674D01*
X88950Y461941D01*
X88606Y462216D01*
X88268Y462500D01*
X87938Y462792D01*
X87615Y463092D01*
X87300Y463400D01*
X86992Y463715D01*
X86692Y464038D01*
X86400Y464368D01*
X86116Y464706D01*
X85841Y465050D01*
X85574Y465401D01*
X85315Y465758D01*
X85066Y466121D01*
X84826Y466491D01*
X84594Y466866D01*
X84372Y467247D01*
X84160Y467633D01*
X83957Y468025D01*
X83763Y468421D01*
X83580Y468821D01*
X83406Y469227D01*
X83243Y469636D01*
X83089Y470049D01*
X82946Y470466D01*
X82812Y470886D01*
X82690Y471310D01*
X82577Y471736D01*
X82475Y472165D01*
X82384Y472596D01*
X82303Y473029D01*
X82233Y473465D01*
X82174Y473901D01*
X82125Y474340D01*
X82088Y474779D01*
X82061Y475219D01*
X82044Y475659D01*
X82039Y476100D01*
D11*
X92194Y572055D02*
X92194Y578926D01*
X92194Y572055D02*
X93568Y570681D01*
X96316Y570681D01*
X97691Y572055D01*
X97691Y578926D01*
X100481Y570681D02*
X105978Y570681D01*
X100481Y570681D02*
X105978Y576178D01*
X105978Y577552D01*
X104604Y578926D01*
X101855Y578926D01*
X100481Y577552D01*
D15*
X967300Y256350D02*
X967300Y243650D01*
X967300Y256350D02*
X973650Y262700D01*
X986350Y262700D02*
X992700Y256350D01*
X973650Y262700D02*
X967300Y269050D01*
X967300Y281750D01*
X973650Y288100D01*
X986350Y288100D02*
X992700Y281750D01*
X992700Y269050D01*
X986350Y262700D01*
X986350Y237300D02*
X973650Y237300D01*
X967300Y243650D01*
X986350Y237300D02*
X992700Y243650D01*
X992700Y256350D01*
X986350Y288100D02*
X973650Y288100D01*
D11*
X990971Y224790D02*
X983599Y219875D01*
X983599Y224790D02*
X990971Y219875D01*
X990971Y231045D02*
X983599Y231045D01*
X987285Y227359D01*
X987285Y232274D01*
D15*
X973650Y458100D02*
X967300Y464450D01*
X967300Y477150D01*
X973650Y483500D01*
X986350Y483500D02*
X992700Y477150D01*
X992700Y464450D01*
X986350Y458100D01*
X967300Y426350D02*
X967300Y413650D01*
X967300Y426350D02*
X973650Y432700D01*
X986350Y432700D02*
X992700Y426350D01*
X973650Y432700D02*
X967300Y439050D01*
X967300Y451750D01*
X973650Y458100D01*
X986350Y458100D02*
X992700Y451750D01*
X992700Y439050D01*
X986350Y432700D01*
X986350Y407300D02*
X973650Y407300D01*
X967300Y413650D01*
X986350Y407300D02*
X992700Y413650D01*
X992700Y426350D01*
X986350Y483500D02*
X973650Y483500D01*
D11*
X953875Y407337D02*
X958790Y399965D01*
X953875Y399965D02*
X958790Y407337D01*
X961359Y407337D02*
X966274Y407337D01*
X961359Y407337D02*
X961359Y403651D01*
X963816Y404880D01*
X965045Y404880D01*
X966274Y403651D01*
X966274Y401194D01*
X965045Y399965D01*
X962588Y399965D01*
X961359Y401194D01*
D15*
X967300Y369450D02*
X973650Y363100D01*
X967300Y369450D02*
X967300Y382150D01*
X973650Y388500D01*
X986350Y388500D02*
X992700Y382150D01*
X992700Y369450D01*
X986350Y363100D01*
X967300Y331350D02*
X967300Y318650D01*
X967300Y331350D02*
X973650Y337700D01*
X986350Y337700D02*
X992700Y331350D01*
X973650Y337700D02*
X967300Y344050D01*
X967300Y356750D01*
X973650Y363100D01*
X986350Y363100D02*
X992700Y356750D01*
X992700Y344050D01*
X986350Y337700D01*
X986350Y312300D02*
X973650Y312300D01*
X967300Y318650D01*
X986350Y312300D02*
X992700Y318650D01*
X992700Y331350D01*
X986350Y388500D02*
X973650Y388500D01*
D11*
X953875Y312337D02*
X958790Y304965D01*
X953875Y304965D02*
X958790Y312337D01*
X963816Y311109D02*
X966274Y312337D01*
X963816Y311109D02*
X961359Y308651D01*
X961359Y306194D01*
X962588Y304965D01*
X965045Y304965D01*
X966274Y306194D01*
X966274Y307422D01*
X965045Y308651D01*
X961359Y308651D01*
M02*
