G04 EAGLE Gerber RS-274X export*
G75*
%MOMM*%
%FSLAX34Y34*%
%LPD*%
%INSilkscreen Bottom*%
%IPPOS*%
%AMOC8*
5,1,8,0,0,1.08239X$1,22.5*%
G01*
%ADD10C,0.203200*%
%ADD11C,0.076200*%
%ADD12C,0.152400*%


D10*
X523000Y20000D02*
X517000Y20000D01*
X520000Y14000D01*
X523000Y20000D01*
X503000Y14000D02*
X500000Y20000D01*
X503000Y14000D02*
X497000Y14000D01*
X500000Y20000D01*
D11*
X939672Y422939D02*
X944587Y422939D01*
X942130Y420482D02*
X942130Y425397D01*
X937103Y425397D02*
X935874Y426625D01*
X933417Y426625D01*
X932188Y425397D01*
X932188Y424168D01*
X933417Y422939D01*
X934646Y422939D01*
X933417Y422939D02*
X932188Y421710D01*
X932188Y420482D01*
X933417Y419253D01*
X935874Y419253D01*
X937103Y420482D01*
X929619Y421710D02*
X929619Y426625D01*
X929619Y421710D02*
X927162Y419253D01*
X924704Y421710D01*
X924704Y426625D01*
X922135Y425397D02*
X920906Y426625D01*
X918449Y426625D01*
X917220Y425397D01*
X917220Y424168D01*
X918449Y422939D01*
X919677Y422939D01*
X918449Y422939D02*
X917220Y421710D01*
X917220Y420482D01*
X918449Y419253D01*
X920906Y419253D01*
X922135Y420482D01*
X935930Y467067D02*
X940845Y467067D01*
X938388Y464610D02*
X938388Y469525D01*
X933361Y470753D02*
X928446Y470753D01*
X933361Y470753D02*
X933361Y467067D01*
X930904Y468296D01*
X929675Y468296D01*
X928446Y467067D01*
X928446Y464610D01*
X929675Y463381D01*
X932132Y463381D01*
X933361Y464610D01*
X925877Y465838D02*
X925877Y470753D01*
X925877Y465838D02*
X923420Y463381D01*
X920962Y465838D01*
X920962Y470753D01*
X935930Y372067D02*
X940845Y372067D01*
X938388Y369610D02*
X938388Y374525D01*
X933361Y375753D02*
X928446Y375753D01*
X933361Y375753D02*
X933361Y372067D01*
X930904Y373296D01*
X929675Y373296D01*
X928446Y372067D01*
X928446Y369610D01*
X929675Y368381D01*
X932132Y368381D01*
X933361Y369610D01*
X925877Y370838D02*
X925877Y375753D01*
X925877Y370838D02*
X923420Y368381D01*
X920962Y370838D01*
X920962Y375753D01*
X939672Y327939D02*
X944587Y327939D01*
X942130Y325482D02*
X942130Y330397D01*
X937103Y330397D02*
X935874Y331625D01*
X933417Y331625D01*
X932188Y330397D01*
X932188Y329168D01*
X933417Y327939D01*
X934646Y327939D01*
X933417Y327939D02*
X932188Y326710D01*
X932188Y325482D01*
X933417Y324253D01*
X935874Y324253D01*
X937103Y325482D01*
X929619Y326710D02*
X929619Y331625D01*
X929619Y326710D02*
X927162Y324253D01*
X924704Y326710D01*
X924704Y331625D01*
X922135Y330397D02*
X920906Y331625D01*
X918449Y331625D01*
X917220Y330397D01*
X917220Y329168D01*
X918449Y327939D01*
X919677Y327939D01*
X918449Y327939D02*
X917220Y326710D01*
X917220Y325482D01*
X918449Y324253D01*
X920906Y324253D01*
X922135Y325482D01*
X25889Y216881D02*
X18517Y216881D01*
X18517Y220567D01*
X19746Y221796D01*
X24661Y221796D01*
X25889Y220567D01*
X25889Y216881D01*
X23432Y224365D02*
X25889Y226823D01*
X18517Y226823D01*
X18517Y229280D02*
X18517Y224365D01*
X24661Y231849D02*
X25889Y233078D01*
X25889Y235535D01*
X24661Y236764D01*
X23432Y236764D01*
X22203Y235535D01*
X22203Y234307D01*
X22203Y235535D02*
X20974Y236764D01*
X19746Y236764D01*
X18517Y235535D01*
X18517Y233078D01*
X19746Y231849D01*
X50061Y216881D02*
X51289Y218110D01*
X51289Y220567D01*
X50061Y221796D01*
X48832Y221796D01*
X47603Y220567D01*
X47603Y219338D01*
X47603Y220567D02*
X46374Y221796D01*
X45146Y221796D01*
X43917Y220567D01*
X43917Y218110D01*
X45146Y216881D01*
X46374Y224365D02*
X51289Y224365D01*
X46374Y224365D02*
X43917Y226823D01*
X46374Y229280D01*
X51289Y229280D01*
X50061Y231849D02*
X51289Y233078D01*
X51289Y235535D01*
X50061Y236764D01*
X48832Y236764D01*
X47603Y235535D01*
X47603Y234307D01*
X47603Y235535D02*
X46374Y236764D01*
X45146Y236764D01*
X43917Y235535D01*
X43917Y233078D01*
X45146Y231849D01*
X69317Y216881D02*
X74232Y216881D01*
X76689Y219338D01*
X74232Y221796D01*
X69317Y221796D01*
X73003Y221796D02*
X73003Y216881D01*
X69317Y224365D02*
X76689Y224365D01*
X76689Y228051D01*
X75461Y229280D01*
X73003Y229280D01*
X71774Y228051D01*
X71774Y224365D01*
X71774Y226823D02*
X69317Y229280D01*
X76689Y231849D02*
X76689Y236764D01*
X76689Y231849D02*
X69317Y231849D01*
X69317Y236764D01*
X73003Y234307D02*
X73003Y231849D01*
X69317Y239333D02*
X76689Y239333D01*
X76689Y244248D01*
X73003Y241791D02*
X73003Y239333D01*
X94717Y216881D02*
X99632Y216881D01*
X102089Y219338D01*
X99632Y221796D01*
X94717Y221796D01*
X98403Y221796D02*
X98403Y216881D01*
X95946Y224365D02*
X100861Y224365D01*
X102089Y225594D01*
X102089Y228051D01*
X100861Y229280D01*
X95946Y229280D01*
X94717Y228051D01*
X94717Y225594D01*
X95946Y224365D01*
X100861Y229280D01*
X120117Y216881D02*
X125032Y216881D01*
X127489Y219338D01*
X125032Y221796D01*
X120117Y221796D01*
X123803Y221796D02*
X123803Y216881D01*
X125032Y224365D02*
X127489Y226823D01*
X120117Y226823D01*
X120117Y229280D02*
X120117Y224365D01*
X145517Y216881D02*
X150432Y216881D01*
X152889Y219338D01*
X150432Y221796D01*
X145517Y221796D01*
X149203Y221796D02*
X149203Y216881D01*
X145517Y224365D02*
X145517Y229280D01*
X145517Y224365D02*
X150432Y229280D01*
X151661Y229280D01*
X152889Y228051D01*
X152889Y225594D01*
X151661Y224365D01*
X170917Y216881D02*
X175832Y216881D01*
X178289Y219338D01*
X175832Y221796D01*
X170917Y221796D01*
X174603Y221796D02*
X174603Y216881D01*
X177061Y224365D02*
X178289Y225594D01*
X178289Y228051D01*
X177061Y229280D01*
X175832Y229280D01*
X174603Y228051D01*
X174603Y226823D01*
X174603Y228051D02*
X173374Y229280D01*
X172146Y229280D01*
X170917Y228051D01*
X170917Y225594D01*
X172146Y224365D01*
X196317Y216881D02*
X201232Y216881D01*
X203689Y219338D01*
X201232Y221796D01*
X196317Y221796D01*
X200003Y221796D02*
X200003Y216881D01*
X196317Y228051D02*
X203689Y228051D01*
X200003Y224365D01*
X200003Y229280D01*
X221717Y216881D02*
X226632Y216881D01*
X229089Y219338D01*
X226632Y221796D01*
X221717Y221796D01*
X225403Y221796D02*
X225403Y216881D01*
X229089Y224365D02*
X229089Y229280D01*
X229089Y224365D02*
X225403Y224365D01*
X226632Y226823D01*
X226632Y228051D01*
X225403Y229280D01*
X222946Y229280D01*
X221717Y228051D01*
X221717Y225594D01*
X222946Y224365D01*
X247117Y216881D02*
X252032Y216881D01*
X254489Y219338D01*
X252032Y221796D01*
X247117Y221796D01*
X250803Y221796D02*
X250803Y216881D01*
X253261Y226823D02*
X254489Y229280D01*
X253261Y226823D02*
X250803Y224365D01*
X248346Y224365D01*
X247117Y225594D01*
X247117Y228051D01*
X248346Y229280D01*
X249574Y229280D01*
X250803Y228051D01*
X250803Y224365D01*
X272517Y216881D02*
X277432Y216881D01*
X279889Y219338D01*
X277432Y221796D01*
X272517Y221796D01*
X276203Y221796D02*
X276203Y216881D01*
X279889Y224365D02*
X279889Y229280D01*
X278661Y229280D01*
X273746Y224365D01*
X272517Y224365D01*
X305289Y221796D02*
X305289Y216881D01*
X301603Y216881D01*
X302832Y219338D01*
X302832Y220567D01*
X301603Y221796D01*
X299146Y221796D01*
X297917Y220567D01*
X297917Y218110D01*
X299146Y216881D01*
X300374Y224365D02*
X305289Y224365D01*
X300374Y224365D02*
X297917Y226823D01*
X300374Y229280D01*
X305289Y229280D01*
X323317Y216881D02*
X330689Y216881D01*
X330689Y220567D01*
X329461Y221796D01*
X327003Y221796D01*
X325774Y220567D01*
X325774Y216881D01*
X325774Y219338D02*
X323317Y221796D01*
X330689Y228051D02*
X329461Y229280D01*
X330689Y228051D02*
X330689Y225594D01*
X329461Y224365D01*
X328232Y224365D01*
X327003Y225594D01*
X327003Y228051D01*
X325774Y229280D01*
X324546Y229280D01*
X323317Y228051D01*
X323317Y225594D01*
X324546Y224365D01*
X323317Y234307D02*
X330689Y234307D01*
X330689Y236764D02*
X330689Y231849D01*
X354861Y221796D02*
X356089Y220567D01*
X356089Y218110D01*
X354861Y216881D01*
X349946Y216881D01*
X348717Y218110D01*
X348717Y220567D01*
X349946Y221796D01*
X352403Y221796D01*
X352403Y219338D01*
X348717Y224365D02*
X356089Y224365D01*
X348717Y229280D01*
X356089Y229280D01*
X356089Y231849D02*
X348717Y231849D01*
X348717Y235535D01*
X349946Y236764D01*
X354861Y236764D01*
X356089Y235535D01*
X356089Y231849D01*
X376574Y216881D02*
X381489Y216881D01*
X376574Y216881D02*
X374117Y219338D01*
X376574Y221796D01*
X381489Y221796D01*
X381489Y224365D02*
X374117Y224365D01*
X381489Y224365D02*
X381489Y228051D01*
X380261Y229280D01*
X379032Y229280D01*
X377803Y228051D01*
X376574Y229280D01*
X375346Y229280D01*
X374117Y228051D01*
X374117Y224365D01*
X377803Y224365D02*
X377803Y228051D01*
X379032Y231849D02*
X374117Y231849D01*
X379032Y231849D02*
X381489Y234307D01*
X379032Y236764D01*
X374117Y236764D01*
X377803Y236764D02*
X377803Y231849D01*
X374117Y241791D02*
X381489Y241791D01*
X381489Y244248D02*
X381489Y239333D01*
X25889Y321429D02*
X18517Y321429D01*
X18517Y325115D01*
X19746Y326343D01*
X24661Y326343D01*
X25889Y325115D01*
X25889Y321429D01*
X23432Y328913D02*
X25889Y331370D01*
X18517Y331370D01*
X18517Y328913D02*
X18517Y333828D01*
X18517Y336397D02*
X18517Y341312D01*
X18517Y336397D02*
X23432Y341312D01*
X24661Y341312D01*
X25889Y340083D01*
X25889Y337626D01*
X24661Y336397D01*
X43917Y321429D02*
X51289Y321429D01*
X43917Y321429D02*
X43917Y325115D01*
X45146Y326343D01*
X50061Y326343D01*
X51289Y325115D01*
X51289Y321429D01*
X48832Y328913D02*
X51289Y331370D01*
X43917Y331370D01*
X43917Y328913D02*
X43917Y333828D01*
X48832Y336397D02*
X51289Y338854D01*
X43917Y338854D01*
X43917Y336397D02*
X43917Y341312D01*
X69317Y321429D02*
X76689Y321429D01*
X69317Y321429D02*
X69317Y325115D01*
X70546Y326343D01*
X75461Y326343D01*
X76689Y325115D01*
X76689Y321429D01*
X74232Y328913D02*
X76689Y331370D01*
X69317Y331370D01*
X69317Y328913D02*
X69317Y333828D01*
X70546Y336397D02*
X75461Y336397D01*
X76689Y337626D01*
X76689Y340083D01*
X75461Y341312D01*
X70546Y341312D01*
X69317Y340083D01*
X69317Y337626D01*
X70546Y336397D01*
X75461Y341312D01*
X94717Y328913D02*
X102089Y328913D01*
X94717Y328913D02*
X94717Y332599D01*
X95946Y333828D01*
X100861Y333828D01*
X102089Y332599D01*
X102089Y328913D01*
X95946Y336397D02*
X94717Y337626D01*
X94717Y340083D01*
X95946Y341312D01*
X100861Y341312D01*
X102089Y340083D01*
X102089Y337626D01*
X100861Y336397D01*
X99632Y336397D01*
X98403Y337626D01*
X98403Y341312D01*
X120117Y328913D02*
X127489Y328913D01*
X120117Y328913D02*
X120117Y332599D01*
X121346Y333828D01*
X126261Y333828D01*
X127489Y332599D01*
X127489Y328913D01*
X126261Y336397D02*
X127489Y337626D01*
X127489Y340083D01*
X126261Y341312D01*
X125032Y341312D01*
X123803Y340083D01*
X122574Y341312D01*
X121346Y341312D01*
X120117Y340083D01*
X120117Y337626D01*
X121346Y336397D01*
X122574Y336397D01*
X123803Y337626D01*
X125032Y336397D01*
X126261Y336397D01*
X123803Y337626D02*
X123803Y340083D01*
X145517Y328913D02*
X152889Y328913D01*
X145517Y328913D02*
X145517Y332599D01*
X146746Y333828D01*
X151661Y333828D01*
X152889Y332599D01*
X152889Y328913D01*
X152889Y336397D02*
X152889Y341312D01*
X151661Y341312D01*
X146746Y336397D01*
X145517Y336397D01*
X170917Y328913D02*
X178289Y328913D01*
X170917Y328913D02*
X170917Y332599D01*
X172146Y333828D01*
X177061Y333828D01*
X178289Y332599D01*
X178289Y328913D01*
X177061Y338854D02*
X178289Y341312D01*
X177061Y338854D02*
X174603Y336397D01*
X172146Y336397D01*
X170917Y337626D01*
X170917Y340083D01*
X172146Y341312D01*
X173374Y341312D01*
X174603Y340083D01*
X174603Y336397D01*
X196317Y328913D02*
X203689Y328913D01*
X196317Y328913D02*
X196317Y332599D01*
X197546Y333828D01*
X202461Y333828D01*
X203689Y332599D01*
X203689Y328913D01*
X203689Y336397D02*
X203689Y341312D01*
X203689Y336397D02*
X200003Y336397D01*
X201232Y338854D01*
X201232Y340083D01*
X200003Y341312D01*
X197546Y341312D01*
X196317Y340083D01*
X196317Y337626D01*
X197546Y336397D01*
X221717Y328913D02*
X229089Y328913D01*
X221717Y328913D02*
X221717Y332599D01*
X222946Y333828D01*
X227861Y333828D01*
X229089Y332599D01*
X229089Y328913D01*
X229089Y340083D02*
X221717Y340083D01*
X225403Y336397D02*
X229089Y340083D01*
X225403Y341312D02*
X225403Y336397D01*
X247117Y328913D02*
X254489Y328913D01*
X247117Y328913D02*
X247117Y332599D01*
X248346Y333828D01*
X253261Y333828D01*
X254489Y332599D01*
X254489Y328913D01*
X253261Y336397D02*
X254489Y337626D01*
X254489Y340083D01*
X253261Y341312D01*
X252032Y341312D01*
X250803Y340083D01*
X250803Y338854D01*
X250803Y340083D02*
X249574Y341312D01*
X248346Y341312D01*
X247117Y340083D01*
X247117Y337626D01*
X248346Y336397D01*
X272517Y328913D02*
X279889Y328913D01*
X272517Y328913D02*
X272517Y332599D01*
X273746Y333828D01*
X278661Y333828D01*
X279889Y332599D01*
X279889Y328913D01*
X272517Y336397D02*
X272517Y341312D01*
X272517Y336397D02*
X277432Y341312D01*
X278661Y341312D01*
X279889Y340083D01*
X279889Y337626D01*
X278661Y336397D01*
X304061Y326343D02*
X305289Y325115D01*
X305289Y322657D01*
X304061Y321429D01*
X299146Y321429D01*
X297917Y322657D01*
X297917Y325115D01*
X299146Y326343D01*
X301603Y326343D01*
X301603Y323886D01*
X297917Y328913D02*
X305289Y328913D01*
X297917Y333828D01*
X305289Y333828D01*
X305289Y336397D02*
X297917Y336397D01*
X297917Y340083D01*
X299146Y341312D01*
X304061Y341312D01*
X305289Y340083D01*
X305289Y336397D01*
X323317Y321429D02*
X330689Y321429D01*
X330689Y325115D01*
X329461Y326343D01*
X327003Y326343D01*
X325774Y325115D01*
X325774Y321429D01*
X325774Y323886D02*
X323317Y326343D01*
X330689Y332599D02*
X329461Y333828D01*
X330689Y332599D02*
X330689Y330141D01*
X329461Y328913D01*
X328232Y328913D01*
X327003Y330141D01*
X327003Y332599D01*
X325774Y333828D01*
X324546Y333828D01*
X323317Y332599D01*
X323317Y330141D01*
X324546Y328913D01*
X323317Y338854D02*
X330689Y338854D01*
X330689Y336397D02*
X330689Y341312D01*
X348717Y328913D02*
X356089Y328913D01*
X356089Y332599D01*
X354861Y333828D01*
X352403Y333828D01*
X351174Y332599D01*
X351174Y328913D01*
X351174Y331370D02*
X348717Y333828D01*
X348717Y341312D02*
X356089Y336397D01*
X356089Y341312D02*
X348717Y336397D01*
X374117Y331370D02*
X381489Y331370D01*
X381489Y328913D02*
X381489Y333828D01*
X381489Y336397D02*
X374117Y341312D01*
X374117Y336397D02*
X381489Y341312D01*
D10*
X33800Y572000D02*
X33800Y588000D01*
X16800Y570000D02*
X16702Y569982D01*
X16602Y569968D01*
X16503Y569958D01*
X16403Y569952D01*
X16303Y569950D01*
X16203Y569952D01*
X16103Y569958D01*
X16003Y569967D01*
X15904Y569981D01*
X15805Y569998D01*
X15707Y570020D01*
X15610Y570045D01*
X15515Y570074D01*
X15420Y570107D01*
X15327Y570143D01*
X15235Y570183D01*
X15145Y570227D01*
X15056Y570274D01*
X14970Y570324D01*
X14886Y570378D01*
X14803Y570435D01*
X14723Y570496D01*
X14646Y570559D01*
X14571Y570626D01*
X14499Y570695D01*
X14429Y570767D01*
X14363Y570842D01*
X14299Y570919D01*
X14239Y570999D01*
X14181Y571081D01*
X14127Y571165D01*
X14076Y571252D01*
X14029Y571340D01*
X13985Y571430D01*
X13945Y571522D01*
X13909Y571615D01*
X13876Y571709D01*
X13846Y571805D01*
X13821Y571902D01*
X13800Y572000D01*
X13800Y588000D02*
X13821Y588098D01*
X13846Y588195D01*
X13876Y588291D01*
X13909Y588385D01*
X13945Y588478D01*
X13985Y588570D01*
X14029Y588660D01*
X14076Y588748D01*
X14127Y588835D01*
X14181Y588919D01*
X14239Y589001D01*
X14299Y589081D01*
X14363Y589158D01*
X14429Y589233D01*
X14499Y589305D01*
X14571Y589374D01*
X14646Y589441D01*
X14723Y589504D01*
X14803Y589565D01*
X14886Y589622D01*
X14970Y589676D01*
X15056Y589726D01*
X15145Y589773D01*
X15235Y589817D01*
X15327Y589857D01*
X15420Y589893D01*
X15515Y589926D01*
X15610Y589955D01*
X15707Y589980D01*
X15805Y590002D01*
X15904Y590019D01*
X16003Y590033D01*
X16103Y590042D01*
X16203Y590048D01*
X16303Y590050D01*
X16403Y590048D01*
X16503Y590042D01*
X16602Y590032D01*
X16702Y590018D01*
X16800Y590000D01*
X30800Y590000D02*
X30898Y590018D01*
X30998Y590032D01*
X31097Y590042D01*
X31197Y590048D01*
X31297Y590050D01*
X31397Y590048D01*
X31497Y590042D01*
X31597Y590033D01*
X31696Y590019D01*
X31795Y590002D01*
X31893Y589980D01*
X31990Y589955D01*
X32085Y589926D01*
X32180Y589893D01*
X32273Y589857D01*
X32365Y589817D01*
X32455Y589773D01*
X32544Y589726D01*
X32630Y589676D01*
X32714Y589622D01*
X32797Y589565D01*
X32877Y589504D01*
X32954Y589441D01*
X33029Y589374D01*
X33101Y589305D01*
X33171Y589233D01*
X33237Y589158D01*
X33301Y589081D01*
X33361Y589001D01*
X33419Y588919D01*
X33473Y588835D01*
X33524Y588748D01*
X33571Y588660D01*
X33615Y588570D01*
X33655Y588478D01*
X33691Y588385D01*
X33724Y588291D01*
X33754Y588195D01*
X33779Y588098D01*
X33800Y588000D01*
X33800Y572000D02*
X33779Y571902D01*
X33754Y571805D01*
X33724Y571709D01*
X33691Y571615D01*
X33655Y571522D01*
X33615Y571430D01*
X33571Y571340D01*
X33524Y571252D01*
X33473Y571165D01*
X33419Y571081D01*
X33361Y570999D01*
X33301Y570919D01*
X33237Y570842D01*
X33171Y570767D01*
X33101Y570695D01*
X33029Y570626D01*
X32954Y570559D01*
X32877Y570496D01*
X32797Y570435D01*
X32714Y570378D01*
X32630Y570324D01*
X32544Y570274D01*
X32455Y570227D01*
X32365Y570183D01*
X32273Y570143D01*
X32180Y570107D01*
X32085Y570074D01*
X31990Y570045D01*
X31893Y570020D01*
X31795Y569998D01*
X31696Y569981D01*
X31597Y569967D01*
X31497Y569958D01*
X31397Y569952D01*
X31297Y569950D01*
X31197Y569952D01*
X31097Y569958D01*
X30998Y569968D01*
X30898Y569982D01*
X30800Y570000D01*
X13800Y572000D02*
X13800Y588000D01*
D11*
X9497Y578150D02*
X10725Y576921D01*
X10725Y574463D01*
X9497Y573235D01*
X8268Y573235D01*
X7039Y574463D01*
X7039Y576921D01*
X5810Y578150D01*
X4582Y578150D01*
X3353Y576921D01*
X3353Y574463D01*
X4582Y573235D01*
X4582Y580719D02*
X3353Y581948D01*
X3353Y583176D01*
X4582Y584405D01*
X10725Y584405D01*
X10725Y583176D02*
X10725Y585634D01*
X8268Y588203D02*
X10725Y590660D01*
X3353Y590660D01*
X3353Y588203D02*
X3353Y593118D01*
D10*
X88400Y251000D02*
X88400Y235000D01*
X105400Y253000D02*
X105498Y253018D01*
X105598Y253032D01*
X105697Y253042D01*
X105797Y253048D01*
X105897Y253050D01*
X105997Y253048D01*
X106097Y253042D01*
X106197Y253033D01*
X106296Y253019D01*
X106395Y253002D01*
X106493Y252980D01*
X106590Y252955D01*
X106685Y252926D01*
X106780Y252893D01*
X106873Y252857D01*
X106965Y252817D01*
X107055Y252773D01*
X107144Y252726D01*
X107230Y252676D01*
X107314Y252622D01*
X107397Y252565D01*
X107477Y252504D01*
X107554Y252441D01*
X107629Y252374D01*
X107701Y252305D01*
X107771Y252233D01*
X107837Y252158D01*
X107901Y252081D01*
X107961Y252001D01*
X108019Y251919D01*
X108073Y251835D01*
X108124Y251748D01*
X108171Y251660D01*
X108215Y251570D01*
X108255Y251478D01*
X108291Y251385D01*
X108324Y251291D01*
X108354Y251195D01*
X108379Y251098D01*
X108400Y251000D01*
X108400Y235000D02*
X108379Y234902D01*
X108354Y234805D01*
X108324Y234709D01*
X108291Y234615D01*
X108255Y234522D01*
X108215Y234430D01*
X108171Y234340D01*
X108124Y234252D01*
X108073Y234165D01*
X108019Y234081D01*
X107961Y233999D01*
X107901Y233919D01*
X107837Y233842D01*
X107771Y233767D01*
X107701Y233695D01*
X107629Y233626D01*
X107554Y233559D01*
X107477Y233496D01*
X107397Y233435D01*
X107314Y233378D01*
X107230Y233324D01*
X107144Y233274D01*
X107055Y233227D01*
X106965Y233183D01*
X106873Y233143D01*
X106780Y233107D01*
X106685Y233074D01*
X106590Y233045D01*
X106493Y233020D01*
X106395Y232998D01*
X106296Y232981D01*
X106197Y232967D01*
X106097Y232958D01*
X105997Y232952D01*
X105897Y232950D01*
X105797Y232952D01*
X105697Y232958D01*
X105598Y232968D01*
X105498Y232982D01*
X105400Y233000D01*
X91400Y233000D02*
X91302Y232982D01*
X91202Y232968D01*
X91103Y232958D01*
X91003Y232952D01*
X90903Y232950D01*
X90803Y232952D01*
X90703Y232958D01*
X90603Y232967D01*
X90504Y232981D01*
X90405Y232998D01*
X90307Y233020D01*
X90210Y233045D01*
X90115Y233074D01*
X90020Y233107D01*
X89927Y233143D01*
X89835Y233183D01*
X89745Y233227D01*
X89656Y233274D01*
X89570Y233324D01*
X89486Y233378D01*
X89403Y233435D01*
X89323Y233496D01*
X89246Y233559D01*
X89171Y233626D01*
X89099Y233695D01*
X89029Y233767D01*
X88963Y233842D01*
X88899Y233919D01*
X88839Y233999D01*
X88781Y234081D01*
X88727Y234165D01*
X88676Y234252D01*
X88629Y234340D01*
X88585Y234430D01*
X88545Y234522D01*
X88509Y234615D01*
X88476Y234709D01*
X88446Y234805D01*
X88421Y234902D01*
X88400Y235000D01*
X88400Y251000D02*
X88421Y251098D01*
X88446Y251195D01*
X88476Y251291D01*
X88509Y251385D01*
X88545Y251478D01*
X88585Y251570D01*
X88629Y251660D01*
X88676Y251748D01*
X88727Y251835D01*
X88781Y251919D01*
X88839Y252001D01*
X88899Y252081D01*
X88963Y252158D01*
X89029Y252233D01*
X89099Y252305D01*
X89171Y252374D01*
X89246Y252441D01*
X89323Y252504D01*
X89403Y252565D01*
X89486Y252622D01*
X89570Y252676D01*
X89656Y252726D01*
X89745Y252773D01*
X89835Y252817D01*
X89927Y252857D01*
X90020Y252893D01*
X90115Y252926D01*
X90210Y252955D01*
X90307Y252980D01*
X90405Y253002D01*
X90504Y253019D01*
X90603Y253033D01*
X90703Y253042D01*
X90803Y253048D01*
X90903Y253050D01*
X91003Y253048D01*
X91103Y253042D01*
X91202Y253032D01*
X91302Y253018D01*
X91400Y253000D01*
X108400Y251000D02*
X108400Y235000D01*
D11*
X117625Y237990D02*
X118853Y236761D01*
X118853Y234303D01*
X117625Y233075D01*
X116396Y233075D01*
X115167Y234303D01*
X115167Y236761D01*
X113938Y237990D01*
X112710Y237990D01*
X111481Y236761D01*
X111481Y234303D01*
X112710Y233075D01*
X112710Y240559D02*
X111481Y241788D01*
X111481Y243016D01*
X112710Y244245D01*
X118853Y244245D01*
X118853Y243016D02*
X118853Y245474D01*
X111481Y248043D02*
X111481Y252958D01*
X111481Y248043D02*
X116396Y252958D01*
X117625Y252958D01*
X118853Y251729D01*
X118853Y249272D01*
X117625Y248043D01*
D12*
X940160Y432700D02*
X940160Y458100D01*
X919840Y432700D02*
X919842Y432600D01*
X919848Y432501D01*
X919858Y432401D01*
X919871Y432303D01*
X919889Y432204D01*
X919910Y432107D01*
X919935Y432011D01*
X919964Y431915D01*
X919997Y431821D01*
X920033Y431728D01*
X920073Y431637D01*
X920117Y431547D01*
X920164Y431459D01*
X920214Y431373D01*
X920268Y431289D01*
X920325Y431207D01*
X920385Y431128D01*
X920449Y431050D01*
X920515Y430976D01*
X920584Y430904D01*
X920656Y430835D01*
X920730Y430769D01*
X920808Y430705D01*
X920887Y430645D01*
X920969Y430588D01*
X921053Y430534D01*
X921139Y430484D01*
X921227Y430437D01*
X921317Y430393D01*
X921408Y430353D01*
X921501Y430317D01*
X921595Y430284D01*
X921691Y430255D01*
X921787Y430230D01*
X921884Y430209D01*
X921983Y430191D01*
X922081Y430178D01*
X922181Y430168D01*
X922280Y430162D01*
X922380Y430160D01*
X919840Y458100D02*
X919842Y458200D01*
X919848Y458299D01*
X919858Y458399D01*
X919871Y458497D01*
X919889Y458596D01*
X919910Y458693D01*
X919935Y458789D01*
X919964Y458885D01*
X919997Y458979D01*
X920033Y459072D01*
X920073Y459163D01*
X920117Y459253D01*
X920164Y459341D01*
X920214Y459427D01*
X920268Y459511D01*
X920325Y459593D01*
X920385Y459672D01*
X920449Y459750D01*
X920515Y459824D01*
X920584Y459896D01*
X920656Y459965D01*
X920730Y460031D01*
X920808Y460095D01*
X920887Y460155D01*
X920969Y460212D01*
X921053Y460266D01*
X921139Y460316D01*
X921227Y460363D01*
X921317Y460407D01*
X921408Y460447D01*
X921501Y460483D01*
X921595Y460516D01*
X921691Y460545D01*
X921787Y460570D01*
X921884Y460591D01*
X921983Y460609D01*
X922081Y460622D01*
X922181Y460632D01*
X922280Y460638D01*
X922380Y460640D01*
X937620Y460640D02*
X937720Y460638D01*
X937819Y460632D01*
X937919Y460622D01*
X938017Y460609D01*
X938116Y460591D01*
X938213Y460570D01*
X938309Y460545D01*
X938405Y460516D01*
X938499Y460483D01*
X938592Y460447D01*
X938683Y460407D01*
X938773Y460363D01*
X938861Y460316D01*
X938947Y460266D01*
X939031Y460212D01*
X939113Y460155D01*
X939192Y460095D01*
X939270Y460031D01*
X939344Y459965D01*
X939416Y459896D01*
X939485Y459824D01*
X939551Y459750D01*
X939615Y459672D01*
X939675Y459593D01*
X939732Y459511D01*
X939786Y459427D01*
X939836Y459341D01*
X939883Y459253D01*
X939927Y459163D01*
X939967Y459072D01*
X940003Y458979D01*
X940036Y458885D01*
X940065Y458789D01*
X940090Y458693D01*
X940111Y458596D01*
X940129Y458497D01*
X940142Y458399D01*
X940152Y458299D01*
X940158Y458200D01*
X940160Y458100D01*
X940160Y432700D02*
X940158Y432600D01*
X940152Y432501D01*
X940142Y432401D01*
X940129Y432303D01*
X940111Y432204D01*
X940090Y432107D01*
X940065Y432011D01*
X940036Y431915D01*
X940003Y431821D01*
X939967Y431728D01*
X939927Y431637D01*
X939883Y431547D01*
X939836Y431459D01*
X939786Y431373D01*
X939732Y431289D01*
X939675Y431207D01*
X939615Y431128D01*
X939551Y431050D01*
X939485Y430976D01*
X939416Y430904D01*
X939344Y430835D01*
X939270Y430769D01*
X939192Y430705D01*
X939113Y430645D01*
X939031Y430588D01*
X938947Y430534D01*
X938861Y430484D01*
X938773Y430437D01*
X938683Y430393D01*
X938592Y430353D01*
X938499Y430317D01*
X938405Y430284D01*
X938309Y430255D01*
X938213Y430230D01*
X938116Y430209D01*
X938017Y430191D01*
X937919Y430178D01*
X937819Y430168D01*
X937720Y430162D01*
X937620Y430160D01*
X922380Y430160D01*
X922380Y460640D02*
X937620Y460640D01*
X919840Y458100D02*
X919840Y432700D01*
D11*
X910404Y447561D02*
X911633Y448789D01*
X914090Y448789D01*
X915319Y447561D01*
X915319Y446332D01*
X914090Y445103D01*
X911633Y445103D01*
X910404Y443874D01*
X910404Y442646D01*
X911633Y441417D01*
X914090Y441417D01*
X915319Y442646D01*
X907835Y442646D02*
X906606Y441417D01*
X905377Y441417D01*
X904149Y442646D01*
X904149Y448789D01*
X905377Y448789D02*
X902920Y448789D01*
X900351Y447561D02*
X899122Y448789D01*
X896665Y448789D01*
X895436Y447561D01*
X895436Y446332D01*
X896665Y445103D01*
X897893Y445103D01*
X896665Y445103D02*
X895436Y443874D01*
X895436Y442646D01*
X896665Y441417D01*
X899122Y441417D01*
X900351Y442646D01*
D12*
X940160Y363100D02*
X940160Y337700D01*
X922380Y335160D02*
X922280Y335162D01*
X922181Y335168D01*
X922081Y335178D01*
X921983Y335191D01*
X921884Y335209D01*
X921787Y335230D01*
X921691Y335255D01*
X921595Y335284D01*
X921501Y335317D01*
X921408Y335353D01*
X921317Y335393D01*
X921227Y335437D01*
X921139Y335484D01*
X921053Y335534D01*
X920969Y335588D01*
X920887Y335645D01*
X920808Y335705D01*
X920730Y335769D01*
X920656Y335835D01*
X920584Y335904D01*
X920515Y335976D01*
X920449Y336050D01*
X920385Y336128D01*
X920325Y336207D01*
X920268Y336289D01*
X920214Y336373D01*
X920164Y336459D01*
X920117Y336547D01*
X920073Y336637D01*
X920033Y336728D01*
X919997Y336821D01*
X919964Y336915D01*
X919935Y337011D01*
X919910Y337107D01*
X919889Y337204D01*
X919871Y337303D01*
X919858Y337401D01*
X919848Y337501D01*
X919842Y337600D01*
X919840Y337700D01*
X919840Y363100D02*
X919842Y363200D01*
X919848Y363299D01*
X919858Y363399D01*
X919871Y363497D01*
X919889Y363596D01*
X919910Y363693D01*
X919935Y363789D01*
X919964Y363885D01*
X919997Y363979D01*
X920033Y364072D01*
X920073Y364163D01*
X920117Y364253D01*
X920164Y364341D01*
X920214Y364427D01*
X920268Y364511D01*
X920325Y364593D01*
X920385Y364672D01*
X920449Y364750D01*
X920515Y364824D01*
X920584Y364896D01*
X920656Y364965D01*
X920730Y365031D01*
X920808Y365095D01*
X920887Y365155D01*
X920969Y365212D01*
X921053Y365266D01*
X921139Y365316D01*
X921227Y365363D01*
X921317Y365407D01*
X921408Y365447D01*
X921501Y365483D01*
X921595Y365516D01*
X921691Y365545D01*
X921787Y365570D01*
X921884Y365591D01*
X921983Y365609D01*
X922081Y365622D01*
X922181Y365632D01*
X922280Y365638D01*
X922380Y365640D01*
X937620Y365640D02*
X937720Y365638D01*
X937819Y365632D01*
X937919Y365622D01*
X938017Y365609D01*
X938116Y365591D01*
X938213Y365570D01*
X938309Y365545D01*
X938405Y365516D01*
X938499Y365483D01*
X938592Y365447D01*
X938683Y365407D01*
X938773Y365363D01*
X938861Y365316D01*
X938947Y365266D01*
X939031Y365212D01*
X939113Y365155D01*
X939192Y365095D01*
X939270Y365031D01*
X939344Y364965D01*
X939416Y364896D01*
X939485Y364824D01*
X939551Y364750D01*
X939615Y364672D01*
X939675Y364593D01*
X939732Y364511D01*
X939786Y364427D01*
X939836Y364341D01*
X939883Y364253D01*
X939927Y364163D01*
X939967Y364072D01*
X940003Y363979D01*
X940036Y363885D01*
X940065Y363789D01*
X940090Y363693D01*
X940111Y363596D01*
X940129Y363497D01*
X940142Y363399D01*
X940152Y363299D01*
X940158Y363200D01*
X940160Y363100D01*
X940160Y337700D02*
X940158Y337600D01*
X940152Y337501D01*
X940142Y337401D01*
X940129Y337303D01*
X940111Y337204D01*
X940090Y337107D01*
X940065Y337011D01*
X940036Y336915D01*
X940003Y336821D01*
X939967Y336728D01*
X939927Y336637D01*
X939883Y336547D01*
X939836Y336459D01*
X939786Y336373D01*
X939732Y336289D01*
X939675Y336207D01*
X939615Y336128D01*
X939551Y336050D01*
X939485Y335976D01*
X939416Y335904D01*
X939344Y335835D01*
X939270Y335769D01*
X939192Y335705D01*
X939113Y335645D01*
X939031Y335588D01*
X938947Y335534D01*
X938861Y335484D01*
X938773Y335437D01*
X938683Y335393D01*
X938592Y335353D01*
X938499Y335317D01*
X938405Y335284D01*
X938309Y335255D01*
X938213Y335230D01*
X938116Y335209D01*
X938017Y335191D01*
X937919Y335178D01*
X937819Y335168D01*
X937720Y335162D01*
X937620Y335160D01*
X922380Y335160D01*
X922380Y365640D02*
X937620Y365640D01*
X919840Y363100D02*
X919840Y337700D01*
D11*
X911404Y352561D02*
X912633Y353789D01*
X915090Y353789D01*
X916319Y352561D01*
X916319Y351332D01*
X915090Y350103D01*
X912633Y350103D01*
X911404Y348874D01*
X911404Y347646D01*
X912633Y346417D01*
X915090Y346417D01*
X916319Y347646D01*
X908835Y347646D02*
X907606Y346417D01*
X906377Y346417D01*
X905149Y347646D01*
X905149Y353789D01*
X906377Y353789D02*
X903920Y353789D01*
X897665Y353789D02*
X897665Y346417D01*
X901351Y350103D02*
X897665Y353789D01*
X896436Y350103D02*
X901351Y350103D01*
M02*
