G04 EAGLE Gerber RS-274X export*
G75*
%MOMM*%
%FSLAX34Y34*%
%LPD*%
%INSoldermask Top*%
%IPPOS*%
%AMOC8*
5,1,8,0,0,1.08239X$1,22.5*%
G01*
%ADD10C,0.177800*%
%ADD11P,1.924489X8X112.500000*%
%ADD12P,1.924489X8X292.500000*%
%ADD13P,2.144431X8X292.500000*%
%ADD14P,2.144431X8X112.500000*%
%ADD15C,1.625600*%
%ADD16P,2.144431X8X22.500000*%
%ADD17R,2.133600X2.133600*%
%ADD18P,2.309387X8X22.500000*%
%ADD19C,1.422400*%
%ADD20P,2.144431X8X202.500000*%
%ADD21C,3.403600*%
%ADD22C,4.419600*%
%ADD23P,3.409096X8X202.500000*%
%ADD24P,3.409096X8X22.500000*%
%ADD25P,2.474344X8X112.500000*%
%ADD26R,2.286000X2.286000*%
%ADD27P,1.841795X8X202.500000*%
%ADD28R,1.701600X1.701600*%
%ADD29P,2.254402X8X22.500000*%
%ADD30P,2.254402X8X202.500000*%
%ADD31P,1.896997X8X292.500000*%
%ADD32R,1.752600X1.752600*%
%ADD33R,1.422400X1.422400*%
%ADD34P,1.539592X8X22.500000*%
%ADD35C,0.152400*%
%ADD36R,1.981200X1.981200*%
%ADD37C,3.301600*%
%ADD38P,1.649562X8X202.500000*%

G36*
X99911Y640737D02*
X99911Y640737D01*
X100004Y640736D01*
X101706Y640979D01*
X101751Y640994D01*
X101827Y641008D01*
X103449Y641578D01*
X103491Y641602D01*
X103561Y641631D01*
X105041Y642507D01*
X105078Y642538D01*
X105142Y642580D01*
X106422Y643728D01*
X106452Y643766D01*
X106506Y643819D01*
X107538Y645195D01*
X107560Y645238D01*
X107603Y645301D01*
X108347Y646851D01*
X108359Y646898D01*
X108389Y646968D01*
X108816Y648634D01*
X108820Y648682D01*
X108835Y648756D01*
X108929Y650473D01*
X108923Y650521D01*
X108924Y650598D01*
X108687Y652251D01*
X108682Y652265D01*
X108682Y652277D01*
X108670Y652306D01*
X108657Y652372D01*
X108102Y653947D01*
X108079Y653989D01*
X108050Y654060D01*
X107198Y655496D01*
X107166Y655533D01*
X107124Y655597D01*
X106008Y656839D01*
X105970Y656869D01*
X105916Y656923D01*
X104579Y657924D01*
X104536Y657945D01*
X104473Y657988D01*
X102966Y658708D01*
X102919Y658721D01*
X102849Y658751D01*
X101230Y659163D01*
X101182Y659166D01*
X101107Y659181D01*
X99439Y659269D01*
X99397Y659264D01*
X99334Y659266D01*
X97677Y659078D01*
X97631Y659064D01*
X97555Y659052D01*
X95966Y658544D01*
X95924Y658521D01*
X95852Y658495D01*
X94393Y657686D01*
X94355Y657656D01*
X94290Y657616D01*
X93017Y656538D01*
X92986Y656501D01*
X92930Y656449D01*
X91891Y655144D01*
X91868Y655101D01*
X91824Y655039D01*
X91059Y653557D01*
X91045Y653511D01*
X91013Y653441D01*
X90553Y651838D01*
X90548Y651790D01*
X90531Y651715D01*
X90392Y650053D01*
X90397Y650005D01*
X90394Y649929D01*
X90587Y648222D01*
X90601Y648175D01*
X90613Y648100D01*
X91136Y646463D01*
X91158Y646421D01*
X91185Y646349D01*
X92017Y644846D01*
X92024Y644838D01*
X92026Y644831D01*
X92048Y644807D01*
X92087Y644744D01*
X93196Y643432D01*
X93233Y643401D01*
X93286Y643345D01*
X94629Y642275D01*
X94672Y642252D01*
X94734Y642207D01*
X96260Y641419D01*
X96306Y641405D01*
X96376Y641373D01*
X98027Y640898D01*
X98075Y640893D01*
X98149Y640876D01*
X99861Y640732D01*
X99911Y640737D01*
G37*
G36*
X460591Y640737D02*
X460591Y640737D01*
X460684Y640736D01*
X462386Y640979D01*
X462431Y640994D01*
X462507Y641008D01*
X464129Y641578D01*
X464171Y641602D01*
X464241Y641631D01*
X465721Y642507D01*
X465758Y642538D01*
X465822Y642580D01*
X467102Y643728D01*
X467132Y643766D01*
X467186Y643819D01*
X468218Y645195D01*
X468240Y645238D01*
X468283Y645301D01*
X469027Y646851D01*
X469039Y646898D01*
X469069Y646968D01*
X469496Y648634D01*
X469500Y648682D01*
X469515Y648756D01*
X469609Y650473D01*
X469603Y650521D01*
X469604Y650598D01*
X469367Y652251D01*
X469362Y652265D01*
X469362Y652277D01*
X469350Y652306D01*
X469337Y652372D01*
X468782Y653947D01*
X468759Y653989D01*
X468730Y654060D01*
X467878Y655496D01*
X467846Y655533D01*
X467804Y655597D01*
X466688Y656839D01*
X466650Y656869D01*
X466596Y656923D01*
X465259Y657924D01*
X465216Y657945D01*
X465153Y657988D01*
X463646Y658708D01*
X463599Y658721D01*
X463529Y658751D01*
X461910Y659163D01*
X461862Y659166D01*
X461787Y659181D01*
X460119Y659269D01*
X460077Y659264D01*
X460014Y659266D01*
X458357Y659078D01*
X458311Y659064D01*
X458235Y659052D01*
X456646Y658544D01*
X456604Y658521D01*
X456532Y658495D01*
X455073Y657686D01*
X455035Y657656D01*
X454970Y657616D01*
X453697Y656538D01*
X453666Y656501D01*
X453610Y656449D01*
X452571Y655144D01*
X452548Y655101D01*
X452504Y655039D01*
X451739Y653557D01*
X451725Y653511D01*
X451693Y653441D01*
X451233Y651838D01*
X451228Y651790D01*
X451211Y651715D01*
X451072Y650053D01*
X451077Y650005D01*
X451074Y649929D01*
X451267Y648222D01*
X451281Y648175D01*
X451293Y648100D01*
X451816Y646463D01*
X451838Y646421D01*
X451865Y646349D01*
X452697Y644846D01*
X452704Y644838D01*
X452706Y644831D01*
X452728Y644807D01*
X452767Y644744D01*
X453876Y643432D01*
X453913Y643401D01*
X453966Y643345D01*
X455309Y642275D01*
X455352Y642252D01*
X455414Y642207D01*
X456940Y641419D01*
X456986Y641405D01*
X457056Y641373D01*
X458707Y640898D01*
X458755Y640893D01*
X458829Y640876D01*
X460541Y640732D01*
X460591Y640737D01*
G37*
G36*
X28791Y640737D02*
X28791Y640737D01*
X28884Y640736D01*
X30586Y640979D01*
X30631Y640994D01*
X30707Y641008D01*
X32329Y641578D01*
X32371Y641602D01*
X32441Y641631D01*
X33921Y642507D01*
X33958Y642538D01*
X34022Y642580D01*
X35302Y643728D01*
X35332Y643766D01*
X35386Y643819D01*
X36418Y645195D01*
X36440Y645238D01*
X36483Y645301D01*
X37227Y646851D01*
X37239Y646898D01*
X37269Y646968D01*
X37696Y648634D01*
X37700Y648682D01*
X37715Y648756D01*
X37809Y650473D01*
X37803Y650521D01*
X37804Y650598D01*
X37567Y652251D01*
X37562Y652265D01*
X37562Y652277D01*
X37550Y652306D01*
X37537Y652372D01*
X36982Y653947D01*
X36959Y653989D01*
X36930Y654060D01*
X36078Y655496D01*
X36046Y655533D01*
X36004Y655597D01*
X34888Y656839D01*
X34850Y656869D01*
X34796Y656923D01*
X33459Y657924D01*
X33416Y657945D01*
X33353Y657988D01*
X31846Y658708D01*
X31799Y658721D01*
X31729Y658751D01*
X30110Y659163D01*
X30062Y659166D01*
X29987Y659181D01*
X28319Y659269D01*
X28277Y659264D01*
X28214Y659266D01*
X26557Y659078D01*
X26511Y659064D01*
X26435Y659052D01*
X24846Y658544D01*
X24804Y658521D01*
X24732Y658495D01*
X23273Y657686D01*
X23235Y657656D01*
X23170Y657616D01*
X21897Y656538D01*
X21866Y656501D01*
X21810Y656449D01*
X20771Y655144D01*
X20748Y655101D01*
X20704Y655039D01*
X19939Y653557D01*
X19925Y653511D01*
X19893Y653441D01*
X19433Y651838D01*
X19428Y651790D01*
X19411Y651715D01*
X19272Y650053D01*
X19277Y650005D01*
X19274Y649929D01*
X19467Y648222D01*
X19481Y648175D01*
X19493Y648100D01*
X20016Y646463D01*
X20038Y646421D01*
X20065Y646349D01*
X20897Y644846D01*
X20904Y644838D01*
X20906Y644831D01*
X20928Y644807D01*
X20967Y644744D01*
X22076Y643432D01*
X22113Y643401D01*
X22166Y643345D01*
X23509Y642275D01*
X23552Y642252D01*
X23614Y642207D01*
X25140Y641419D01*
X25186Y641405D01*
X25256Y641373D01*
X26907Y640898D01*
X26955Y640893D01*
X27029Y640876D01*
X28741Y640732D01*
X28791Y640737D01*
G37*
G36*
X531711Y640737D02*
X531711Y640737D01*
X531804Y640736D01*
X533506Y640979D01*
X533551Y640994D01*
X533627Y641008D01*
X535249Y641578D01*
X535291Y641602D01*
X535361Y641631D01*
X536841Y642507D01*
X536878Y642538D01*
X536942Y642580D01*
X538222Y643728D01*
X538252Y643766D01*
X538306Y643819D01*
X539338Y645195D01*
X539360Y645238D01*
X539403Y645301D01*
X540147Y646851D01*
X540159Y646898D01*
X540189Y646968D01*
X540616Y648634D01*
X540620Y648682D01*
X540635Y648756D01*
X540729Y650473D01*
X540723Y650521D01*
X540724Y650598D01*
X540487Y652251D01*
X540482Y652265D01*
X540482Y652277D01*
X540470Y652306D01*
X540457Y652372D01*
X539902Y653947D01*
X539879Y653989D01*
X539850Y654060D01*
X538998Y655496D01*
X538966Y655533D01*
X538924Y655597D01*
X537808Y656839D01*
X537770Y656869D01*
X537716Y656923D01*
X536379Y657924D01*
X536336Y657945D01*
X536273Y657988D01*
X534766Y658708D01*
X534719Y658721D01*
X534649Y658751D01*
X533030Y659163D01*
X532982Y659166D01*
X532907Y659181D01*
X531239Y659269D01*
X531197Y659264D01*
X531134Y659266D01*
X529477Y659078D01*
X529431Y659064D01*
X529355Y659052D01*
X527766Y658544D01*
X527724Y658521D01*
X527652Y658495D01*
X526193Y657686D01*
X526155Y657656D01*
X526090Y657616D01*
X524817Y656538D01*
X524786Y656501D01*
X524730Y656449D01*
X523691Y655144D01*
X523668Y655101D01*
X523624Y655039D01*
X522859Y653557D01*
X522845Y653511D01*
X522813Y653441D01*
X522353Y651838D01*
X522348Y651790D01*
X522331Y651715D01*
X522192Y650053D01*
X522197Y650005D01*
X522194Y649929D01*
X522387Y648222D01*
X522401Y648175D01*
X522413Y648100D01*
X522936Y646463D01*
X522958Y646421D01*
X522985Y646349D01*
X523817Y644846D01*
X523824Y644838D01*
X523826Y644831D01*
X523848Y644807D01*
X523887Y644744D01*
X524996Y643432D01*
X525033Y643401D01*
X525086Y643345D01*
X526429Y642275D01*
X526472Y642252D01*
X526534Y642207D01*
X528060Y641419D01*
X528106Y641405D01*
X528176Y641373D01*
X529827Y640898D01*
X529875Y640893D01*
X529949Y640876D01*
X531661Y640732D01*
X531711Y640737D01*
G37*
D10*
X170889Y712749D02*
X175041Y716902D01*
X175041Y704445D01*
X170889Y704445D02*
X179193Y704445D01*
X190215Y704445D02*
X190215Y716902D01*
X183986Y710673D01*
X192291Y710673D01*
X197084Y716902D02*
X205388Y716902D01*
X197084Y716902D02*
X197084Y710673D01*
X201236Y712749D01*
X203312Y712749D01*
X205388Y710673D01*
X205388Y706521D01*
X203312Y704445D01*
X199160Y704445D01*
X197084Y706521D01*
X210181Y706521D02*
X210181Y714826D01*
X212257Y716902D01*
X216409Y716902D01*
X218485Y714826D01*
X218485Y706521D01*
X216409Y704445D01*
X212257Y704445D01*
X210181Y706521D01*
X218485Y714826D01*
X223278Y714826D02*
X223278Y706521D01*
X223278Y714826D02*
X225354Y716902D01*
X229506Y716902D01*
X231582Y714826D01*
X231582Y706521D01*
X229506Y704445D01*
X225354Y704445D01*
X223278Y706521D01*
X231582Y714826D01*
X255701Y716902D02*
X257777Y714826D01*
X255701Y716902D02*
X251549Y716902D01*
X249473Y714826D01*
X249473Y706521D01*
X251549Y704445D01*
X255701Y704445D01*
X257777Y706521D01*
X262570Y716902D02*
X270874Y716902D01*
X262570Y716902D02*
X262570Y704445D01*
X270874Y704445D01*
X266722Y710673D02*
X262570Y710673D01*
X275667Y716902D02*
X275667Y704445D01*
X283971Y704445D01*
X288764Y704445D02*
X288764Y716902D01*
X288764Y704445D02*
X297069Y704445D01*
X170889Y695566D02*
X170889Y683109D01*
X179193Y683109D02*
X170889Y695566D01*
X179193Y695566D02*
X179193Y683109D01*
X186062Y695566D02*
X190215Y695566D01*
X186062Y695566D02*
X183986Y693490D01*
X183986Y685185D01*
X186062Y683109D01*
X190215Y683109D01*
X192291Y685185D01*
X192291Y693490D01*
X190215Y695566D01*
X201236Y695566D02*
X201236Y683109D01*
X197084Y695566D02*
X205388Y695566D01*
X223278Y691413D02*
X223278Y683109D01*
X223278Y691413D02*
X227430Y695566D01*
X231582Y691413D01*
X231582Y683109D01*
X231582Y689337D02*
X223278Y689337D01*
X236375Y691413D02*
X236375Y683109D01*
X236375Y691413D02*
X240527Y695566D01*
X244680Y691413D01*
X244680Y683109D01*
X244680Y689337D02*
X236375Y689337D01*
D11*
X377800Y356200D03*
X352400Y356200D03*
X327000Y356200D03*
X301600Y356200D03*
X276200Y356200D03*
X250800Y356200D03*
X225400Y356200D03*
X200000Y356200D03*
X174600Y356200D03*
X149200Y356200D03*
X123800Y356200D03*
X98400Y356200D03*
X377800Y203800D03*
X352400Y203800D03*
X327000Y203800D03*
X174600Y203800D03*
X149200Y203800D03*
X123800Y203800D03*
X98400Y203800D03*
X22200Y203800D03*
X22200Y356200D03*
X47600Y356200D03*
X73000Y356200D03*
D12*
X47600Y203800D03*
X73000Y203800D03*
D11*
X301600Y203800D03*
D12*
X200000Y203800D03*
X225400Y203800D03*
X250800Y203800D03*
X276200Y203800D03*
D13*
X635000Y315800D03*
X635000Y214200D03*
D14*
X605000Y214200D03*
X605000Y315800D03*
D15*
X602380Y175400D02*
X617620Y175400D01*
X617620Y150000D02*
X602380Y150000D01*
X602380Y124600D02*
X617620Y124600D01*
D16*
X656900Y90000D03*
X733100Y90000D03*
D17*
X675000Y40000D03*
D18*
X710000Y40000D03*
D19*
X682300Y213692D02*
X682300Y226900D01*
X707700Y226900D02*
X707700Y213692D01*
X707700Y303100D02*
X707700Y316308D01*
X682300Y316308D02*
X682300Y303100D01*
D20*
X760800Y190000D03*
X659200Y190000D03*
X733100Y140000D03*
X656900Y140000D03*
D16*
X656900Y115000D03*
X733100Y115000D03*
D13*
X625000Y75400D03*
X625000Y24600D03*
D21*
X30000Y30000D03*
X970000Y30000D03*
X30000Y770000D03*
X970000Y770000D03*
D22*
X107000Y110000D03*
X47000Y110000D03*
X77000Y63000D03*
D23*
X296200Y40000D03*
X143800Y40000D03*
D24*
X170000Y127000D03*
X170000Y93000D03*
X270000Y127000D03*
X270000Y93000D03*
D20*
X420800Y80000D03*
X319200Y80000D03*
D16*
X319200Y110000D03*
X420800Y110000D03*
X656900Y165000D03*
X733100Y165000D03*
D25*
X765000Y640000D03*
D26*
X915000Y640000D03*
D27*
X592700Y770000D03*
D28*
X567300Y770000D03*
D27*
X662700Y770000D03*
D28*
X637300Y770000D03*
D13*
X825000Y315800D03*
X825000Y214200D03*
D14*
X795000Y214200D03*
X795000Y315800D03*
D15*
X792380Y175400D02*
X807620Y175400D01*
X807620Y150000D02*
X792380Y150000D01*
X792380Y124600D02*
X807620Y124600D01*
D16*
X846900Y90000D03*
X923100Y90000D03*
D17*
X865000Y40000D03*
D18*
X900000Y40000D03*
D19*
X872300Y213692D02*
X872300Y226900D01*
X897700Y226900D02*
X897700Y213692D01*
X897700Y303100D02*
X897700Y316308D01*
X872300Y316308D02*
X872300Y303100D01*
D20*
X950800Y190000D03*
X849200Y190000D03*
X923100Y140000D03*
X846900Y140000D03*
D16*
X846900Y115000D03*
X923100Y115000D03*
D13*
X815000Y75400D03*
X815000Y24600D03*
D16*
X846900Y165000D03*
X923100Y165000D03*
D29*
X319200Y140000D03*
X420800Y140000D03*
D30*
X550800Y557000D03*
X449200Y557000D03*
D13*
X650000Y720800D03*
X650000Y619200D03*
X620000Y720800D03*
X620000Y619200D03*
D20*
X527512Y742394D03*
X462488Y742394D03*
X527512Y787606D03*
X462488Y787606D03*
D16*
X239200Y486000D03*
X340800Y486000D03*
X239200Y511000D03*
X340800Y511000D03*
D31*
X465000Y255400D03*
D32*
X465000Y204600D03*
D33*
X480000Y30000D03*
D34*
X500000Y30000D03*
X520000Y30000D03*
X540000Y30000D03*
D14*
X525000Y64200D03*
X525000Y165800D03*
X495000Y64200D03*
X495000Y165800D03*
D20*
X328100Y461000D03*
X251900Y461000D03*
X328100Y536000D03*
X251900Y536000D03*
D29*
X449200Y525000D03*
X550800Y525000D03*
D20*
X538100Y500000D03*
X461900Y500000D03*
X563500Y450000D03*
X436500Y450000D03*
D35*
X85680Y783462D02*
X85680Y790919D01*
X89409Y794648D01*
X93137Y790919D01*
X93137Y783462D01*
X93137Y789055D02*
X85680Y789055D01*
X97374Y783462D02*
X97374Y794648D01*
X102967Y794648D01*
X104831Y792783D01*
X104831Y789055D01*
X102967Y787191D01*
X97374Y787191D01*
X110932Y794648D02*
X114661Y794648D01*
X110932Y794648D02*
X109068Y792783D01*
X109068Y785326D01*
X110932Y783462D01*
X114661Y783462D01*
X116525Y785326D01*
X116525Y792783D01*
X114661Y794648D01*
X120762Y794648D02*
X120762Y783462D01*
X128219Y783462D01*
X132456Y783462D02*
X132456Y794648D01*
X132456Y783462D02*
X139913Y783462D01*
X146014Y794648D02*
X149743Y794648D01*
X146014Y794648D02*
X144150Y792783D01*
X144150Y785326D01*
X146014Y783462D01*
X149743Y783462D01*
X151607Y785326D01*
X151607Y792783D01*
X149743Y794648D01*
X64241Y775598D02*
X64241Y764412D01*
X64241Y775598D02*
X71698Y775598D01*
X67970Y770005D02*
X64241Y770005D01*
X75935Y771869D02*
X75935Y764412D01*
X75935Y768141D02*
X79664Y771869D01*
X81528Y771869D01*
X87544Y771869D02*
X91273Y771869D01*
X93137Y770005D01*
X93137Y764412D01*
X87544Y764412D01*
X85680Y766276D01*
X87544Y768141D01*
X93137Y768141D01*
X97374Y771869D02*
X97374Y764412D01*
X97374Y771869D02*
X102967Y771869D01*
X104831Y770005D01*
X104831Y764412D01*
X109068Y764412D02*
X109068Y775598D01*
X109068Y768141D02*
X114661Y764412D01*
X109068Y768141D02*
X114661Y771869D01*
X130507Y775598D02*
X137964Y775598D01*
X137964Y773733D01*
X130507Y766276D01*
X130507Y764412D01*
X137964Y764412D01*
X142201Y764412D02*
X142201Y775598D01*
X144065Y771869D02*
X142201Y770005D01*
X144065Y771869D02*
X147794Y771869D01*
X149658Y770005D01*
X149658Y764412D01*
X155759Y771869D02*
X159488Y771869D01*
X161352Y770005D01*
X161352Y764412D01*
X155759Y764412D01*
X153895Y766276D01*
X155759Y768141D01*
X161352Y768141D01*
X167453Y764412D02*
X171182Y764412D01*
X173046Y766276D01*
X173046Y770005D01*
X171182Y771869D01*
X167453Y771869D01*
X165589Y770005D01*
X165589Y766276D01*
X167453Y764412D01*
X75596Y745362D02*
X68139Y745362D01*
X75596Y752819D01*
X75596Y754683D01*
X73732Y756548D01*
X70003Y756548D01*
X68139Y754683D01*
X79833Y754683D02*
X79833Y747226D01*
X79833Y754683D02*
X81697Y756548D01*
X85426Y756548D01*
X87290Y754683D01*
X87290Y747226D01*
X85426Y745362D01*
X81697Y745362D01*
X79833Y747226D01*
X87290Y754683D01*
X91527Y745362D02*
X98984Y745362D01*
X91527Y745362D02*
X98984Y752819D01*
X98984Y754683D01*
X97120Y756548D01*
X93391Y756548D01*
X91527Y754683D01*
X103221Y754683D02*
X103221Y747226D01*
X103221Y754683D02*
X105085Y756548D01*
X108814Y756548D01*
X110678Y754683D01*
X110678Y747226D01*
X108814Y745362D01*
X105085Y745362D01*
X103221Y747226D01*
X110678Y754683D01*
X114915Y754683D02*
X114915Y747226D01*
X114915Y754683D02*
X116779Y756548D01*
X120508Y756548D01*
X122372Y754683D01*
X122372Y747226D01*
X120508Y745362D01*
X116779Y745362D01*
X114915Y747226D01*
X122372Y754683D01*
X132202Y756548D02*
X132202Y745362D01*
X126609Y750955D02*
X132202Y756548D01*
X134066Y750955D02*
X126609Y750955D01*
X138303Y752819D02*
X142031Y756548D01*
X142031Y745362D01*
X138303Y745362D02*
X145760Y745362D01*
X149997Y756548D02*
X157454Y756548D01*
X149997Y756548D02*
X149997Y750955D01*
X153725Y752819D01*
X155590Y752819D01*
X157454Y750955D01*
X157454Y747226D01*
X155590Y745362D01*
X151861Y745362D01*
X149997Y747226D01*
X161691Y745362D02*
X161691Y752819D01*
X165419Y756548D01*
X169148Y752819D01*
X169148Y745362D01*
X169148Y750955D02*
X161691Y750955D01*
D13*
X465000Y148100D03*
X465000Y71900D03*
X555000Y148100D03*
X555000Y71900D03*
D14*
X592606Y631900D03*
X592606Y708100D03*
D16*
X331900Y50000D03*
X408100Y50000D03*
D36*
X200000Y780000D03*
D14*
X225400Y780000D03*
X250800Y780000D03*
X276200Y780000D03*
X301600Y780000D03*
X327000Y780000D03*
X352400Y780000D03*
X377800Y780000D03*
D37*
X163500Y425300D03*
X36500Y425300D03*
D38*
X176200Y539600D03*
X150800Y539600D03*
X125400Y539600D03*
X100000Y539600D03*
X74600Y539600D03*
X49200Y539600D03*
X23800Y539600D03*
D20*
X980000Y250000D03*
X980000Y275400D03*
D14*
X880000Y640000D03*
X840000Y640000D03*
X800000Y640000D03*
D20*
X980000Y420000D03*
X980000Y445400D03*
X980000Y470800D03*
X980000Y325000D03*
X980000Y350400D03*
X980000Y375800D03*
M02*
