G04 EAGLE Gerber RS-274X export*
G75*
%MOMM*%
%FSLAX34Y34*%
%LPD*%
%INSoldermask Bottom*%
%IPPOS*%
%AMOC8*
5,1,8,0,0,1.08239X$1,22.5*%
G01*
%ADD10P,1.924489X8X112.500000*%
%ADD11P,1.924489X8X292.500000*%
%ADD12P,2.144431X8X292.500000*%
%ADD13P,2.144431X8X112.500000*%
%ADD14C,1.625600*%
%ADD15P,2.144431X8X22.500000*%
%ADD16R,2.133600X2.133600*%
%ADD17P,2.309387X8X22.500000*%
%ADD18C,1.422400*%
%ADD19P,2.144431X8X202.500000*%
%ADD20C,3.403600*%
%ADD21C,4.419600*%
%ADD22P,3.409096X8X202.500000*%
%ADD23P,3.409096X8X22.500000*%
%ADD24P,2.474344X8X112.500000*%
%ADD25R,2.286000X2.286000*%
%ADD26P,1.841795X8X202.500000*%
%ADD27R,1.701600X1.701600*%
%ADD28P,2.254402X8X22.500000*%
%ADD29P,2.254402X8X202.500000*%
%ADD30P,1.896997X8X292.500000*%
%ADD31R,1.752600X1.752600*%
%ADD32R,1.422400X1.422400*%
%ADD33P,1.539592X8X22.500000*%
%ADD34R,1.981200X1.981200*%
%ADD35C,3.301600*%
%ADD36P,1.649562X8X202.500000*%
%ADD37R,1.371600X0.736600*%

G36*
X99637Y635911D02*
X99637Y635911D01*
X99739Y635909D01*
X102113Y636205D01*
X102155Y636219D01*
X102221Y636228D01*
X104507Y636933D01*
X104547Y636953D01*
X104610Y636974D01*
X106739Y638065D01*
X106775Y638092D01*
X106833Y638124D01*
X108740Y639568D01*
X108771Y639601D01*
X108822Y639642D01*
X110450Y641395D01*
X110475Y641433D01*
X110518Y641482D01*
X111817Y643492D01*
X111834Y643533D01*
X111869Y643589D01*
X112799Y645794D01*
X112809Y645837D01*
X112833Y645899D01*
X113366Y648231D01*
X113368Y648276D01*
X113381Y648341D01*
X113501Y650730D01*
X113496Y650771D01*
X113499Y650830D01*
X113258Y653075D01*
X113245Y653118D01*
X113242Y653140D01*
X113242Y653159D01*
X113239Y653166D01*
X113236Y653184D01*
X112609Y655353D01*
X112589Y655393D01*
X112569Y655456D01*
X111575Y657484D01*
X111549Y657520D01*
X111518Y657579D01*
X110186Y659403D01*
X110154Y659434D01*
X110114Y659486D01*
X108486Y661052D01*
X108449Y661077D01*
X108400Y661121D01*
X106525Y662380D01*
X106484Y662398D01*
X106428Y662433D01*
X104363Y663348D01*
X104319Y663358D01*
X104258Y663383D01*
X102065Y663925D01*
X102021Y663928D01*
X101956Y663942D01*
X99703Y664095D01*
X99664Y664091D01*
X99611Y664094D01*
X97337Y663918D01*
X97294Y663906D01*
X97228Y663900D01*
X95020Y663331D01*
X94980Y663312D01*
X94916Y663294D01*
X92840Y662350D01*
X92803Y662325D01*
X92744Y662296D01*
X90863Y661006D01*
X90831Y660975D01*
X90778Y660936D01*
X89150Y659339D01*
X89124Y659303D01*
X89078Y659255D01*
X87752Y657400D01*
X87733Y657360D01*
X87696Y657305D01*
X86712Y655248D01*
X86700Y655205D01*
X86673Y655144D01*
X86062Y652948D01*
X86058Y652903D01*
X86042Y652839D01*
X85821Y650569D01*
X85824Y650528D01*
X85819Y650470D01*
X85959Y648105D01*
X85970Y648062D01*
X85975Y647996D01*
X86524Y645690D01*
X86542Y645650D01*
X86559Y645585D01*
X87500Y643411D01*
X87525Y643373D01*
X87553Y643313D01*
X88857Y641335D01*
X88888Y641303D01*
X88925Y641248D01*
X90553Y639526D01*
X90589Y639500D01*
X90636Y639453D01*
X92538Y638040D01*
X92578Y638020D01*
X92632Y637982D01*
X94751Y636921D01*
X94794Y636908D01*
X94854Y636880D01*
X97125Y636203D01*
X97169Y636198D01*
X97233Y636181D01*
X99587Y635908D01*
X99637Y635911D01*
G37*
G36*
X460317Y635911D02*
X460317Y635911D01*
X460419Y635909D01*
X462793Y636205D01*
X462835Y636219D01*
X462901Y636228D01*
X465187Y636933D01*
X465227Y636953D01*
X465290Y636974D01*
X467419Y638065D01*
X467455Y638092D01*
X467513Y638124D01*
X469420Y639568D01*
X469451Y639601D01*
X469502Y639642D01*
X471130Y641395D01*
X471155Y641433D01*
X471198Y641482D01*
X472497Y643492D01*
X472514Y643533D01*
X472549Y643589D01*
X473479Y645794D01*
X473489Y645837D01*
X473513Y645899D01*
X474046Y648231D01*
X474048Y648276D01*
X474061Y648341D01*
X474181Y650730D01*
X474176Y650771D01*
X474179Y650830D01*
X473938Y653075D01*
X473925Y653118D01*
X473922Y653140D01*
X473922Y653159D01*
X473919Y653166D01*
X473916Y653184D01*
X473289Y655353D01*
X473269Y655393D01*
X473249Y655456D01*
X472255Y657484D01*
X472229Y657520D01*
X472198Y657579D01*
X470866Y659403D01*
X470834Y659434D01*
X470794Y659486D01*
X469166Y661052D01*
X469129Y661077D01*
X469080Y661121D01*
X467205Y662380D01*
X467164Y662398D01*
X467108Y662433D01*
X465043Y663348D01*
X464999Y663358D01*
X464938Y663383D01*
X462745Y663925D01*
X462701Y663928D01*
X462636Y663942D01*
X460383Y664095D01*
X460344Y664091D01*
X460291Y664094D01*
X458017Y663918D01*
X457974Y663906D01*
X457908Y663900D01*
X455700Y663331D01*
X455660Y663312D01*
X455596Y663294D01*
X453520Y662350D01*
X453483Y662325D01*
X453424Y662296D01*
X451543Y661006D01*
X451511Y660975D01*
X451458Y660936D01*
X449830Y659339D01*
X449804Y659303D01*
X449758Y659255D01*
X448432Y657400D01*
X448413Y657360D01*
X448376Y657305D01*
X447392Y655248D01*
X447380Y655205D01*
X447353Y655144D01*
X446742Y652948D01*
X446738Y652903D01*
X446722Y652839D01*
X446501Y650569D01*
X446504Y650528D01*
X446499Y650470D01*
X446639Y648105D01*
X446650Y648062D01*
X446655Y647996D01*
X447204Y645690D01*
X447222Y645650D01*
X447239Y645585D01*
X448180Y643411D01*
X448205Y643373D01*
X448233Y643313D01*
X449537Y641335D01*
X449568Y641303D01*
X449605Y641248D01*
X451233Y639526D01*
X451269Y639500D01*
X451316Y639453D01*
X453218Y638040D01*
X453258Y638020D01*
X453312Y637982D01*
X455431Y636921D01*
X455474Y636908D01*
X455534Y636880D01*
X457805Y636203D01*
X457849Y636198D01*
X457913Y636181D01*
X460267Y635908D01*
X460317Y635911D01*
G37*
G36*
X28517Y635911D02*
X28517Y635911D01*
X28619Y635909D01*
X30993Y636205D01*
X31035Y636219D01*
X31101Y636228D01*
X33387Y636933D01*
X33427Y636953D01*
X33490Y636974D01*
X35619Y638065D01*
X35655Y638092D01*
X35713Y638124D01*
X37620Y639568D01*
X37651Y639601D01*
X37702Y639642D01*
X39330Y641395D01*
X39355Y641433D01*
X39398Y641482D01*
X40697Y643492D01*
X40714Y643533D01*
X40749Y643589D01*
X41679Y645794D01*
X41689Y645837D01*
X41713Y645899D01*
X42246Y648231D01*
X42248Y648276D01*
X42261Y648341D01*
X42381Y650730D01*
X42376Y650771D01*
X42379Y650830D01*
X42138Y653075D01*
X42125Y653118D01*
X42122Y653140D01*
X42122Y653159D01*
X42119Y653166D01*
X42116Y653184D01*
X41489Y655353D01*
X41469Y655393D01*
X41449Y655456D01*
X40455Y657484D01*
X40429Y657520D01*
X40398Y657579D01*
X39066Y659403D01*
X39034Y659434D01*
X38994Y659486D01*
X37366Y661052D01*
X37329Y661077D01*
X37280Y661121D01*
X35405Y662380D01*
X35364Y662398D01*
X35308Y662433D01*
X33243Y663348D01*
X33199Y663358D01*
X33138Y663383D01*
X30945Y663925D01*
X30901Y663928D01*
X30836Y663942D01*
X28583Y664095D01*
X28544Y664091D01*
X28491Y664094D01*
X26217Y663918D01*
X26174Y663906D01*
X26108Y663900D01*
X23900Y663331D01*
X23860Y663312D01*
X23796Y663294D01*
X21720Y662350D01*
X21683Y662325D01*
X21624Y662296D01*
X19743Y661006D01*
X19711Y660975D01*
X19658Y660936D01*
X18030Y659339D01*
X18004Y659303D01*
X17958Y659255D01*
X16632Y657400D01*
X16613Y657360D01*
X16576Y657305D01*
X15592Y655248D01*
X15580Y655205D01*
X15553Y655144D01*
X14942Y652948D01*
X14938Y652903D01*
X14922Y652839D01*
X14701Y650569D01*
X14704Y650528D01*
X14699Y650470D01*
X14839Y648105D01*
X14850Y648062D01*
X14855Y647996D01*
X15404Y645690D01*
X15422Y645650D01*
X15439Y645585D01*
X16380Y643411D01*
X16405Y643373D01*
X16433Y643313D01*
X17737Y641335D01*
X17768Y641303D01*
X17805Y641248D01*
X19433Y639526D01*
X19469Y639500D01*
X19516Y639453D01*
X21418Y638040D01*
X21458Y638020D01*
X21512Y637982D01*
X23631Y636921D01*
X23674Y636908D01*
X23734Y636880D01*
X26005Y636203D01*
X26049Y636198D01*
X26113Y636181D01*
X28467Y635908D01*
X28517Y635911D01*
G37*
G36*
X531437Y635911D02*
X531437Y635911D01*
X531539Y635909D01*
X533913Y636205D01*
X533955Y636219D01*
X534021Y636228D01*
X536307Y636933D01*
X536347Y636953D01*
X536410Y636974D01*
X538539Y638065D01*
X538575Y638092D01*
X538633Y638124D01*
X540540Y639568D01*
X540571Y639601D01*
X540622Y639642D01*
X542250Y641395D01*
X542275Y641433D01*
X542318Y641482D01*
X543617Y643492D01*
X543634Y643533D01*
X543669Y643589D01*
X544599Y645794D01*
X544609Y645837D01*
X544633Y645899D01*
X545166Y648231D01*
X545168Y648276D01*
X545181Y648341D01*
X545301Y650730D01*
X545296Y650771D01*
X545299Y650830D01*
X545058Y653075D01*
X545045Y653118D01*
X545042Y653140D01*
X545042Y653159D01*
X545039Y653166D01*
X545036Y653184D01*
X544409Y655353D01*
X544389Y655393D01*
X544369Y655456D01*
X543375Y657484D01*
X543349Y657520D01*
X543318Y657579D01*
X541986Y659403D01*
X541954Y659434D01*
X541914Y659486D01*
X540286Y661052D01*
X540249Y661077D01*
X540200Y661121D01*
X538325Y662380D01*
X538284Y662398D01*
X538228Y662433D01*
X536163Y663348D01*
X536119Y663358D01*
X536058Y663383D01*
X533865Y663925D01*
X533821Y663928D01*
X533756Y663942D01*
X531503Y664095D01*
X531464Y664091D01*
X531411Y664094D01*
X529137Y663918D01*
X529094Y663906D01*
X529028Y663900D01*
X526820Y663331D01*
X526780Y663312D01*
X526716Y663294D01*
X524640Y662350D01*
X524603Y662325D01*
X524544Y662296D01*
X522663Y661006D01*
X522631Y660975D01*
X522578Y660936D01*
X520950Y659339D01*
X520924Y659303D01*
X520878Y659255D01*
X519552Y657400D01*
X519533Y657360D01*
X519496Y657305D01*
X518512Y655248D01*
X518500Y655205D01*
X518473Y655144D01*
X517862Y652948D01*
X517858Y652903D01*
X517842Y652839D01*
X517621Y650569D01*
X517624Y650528D01*
X517619Y650470D01*
X517759Y648105D01*
X517770Y648062D01*
X517775Y647996D01*
X518324Y645690D01*
X518342Y645650D01*
X518359Y645585D01*
X519300Y643411D01*
X519325Y643373D01*
X519353Y643313D01*
X520657Y641335D01*
X520688Y641303D01*
X520725Y641248D01*
X522353Y639526D01*
X522389Y639500D01*
X522436Y639453D01*
X524338Y638040D01*
X524378Y638020D01*
X524432Y637982D01*
X526551Y636921D01*
X526594Y636908D01*
X526654Y636880D01*
X528925Y636203D01*
X528969Y636198D01*
X529033Y636181D01*
X531387Y635908D01*
X531437Y635911D01*
G37*
D10*
X377800Y356200D03*
X352400Y356200D03*
X327000Y356200D03*
X301600Y356200D03*
X276200Y356200D03*
X250800Y356200D03*
X225400Y356200D03*
X200000Y356200D03*
X174600Y356200D03*
X149200Y356200D03*
X123800Y356200D03*
X98400Y356200D03*
X377800Y203800D03*
X352400Y203800D03*
X327000Y203800D03*
X174600Y203800D03*
X149200Y203800D03*
X123800Y203800D03*
X98400Y203800D03*
X22200Y203800D03*
X22200Y356200D03*
X47600Y356200D03*
X73000Y356200D03*
D11*
X47600Y203800D03*
X73000Y203800D03*
D10*
X301600Y203800D03*
D11*
X200000Y203800D03*
X225400Y203800D03*
X250800Y203800D03*
X276200Y203800D03*
D12*
X635000Y315800D03*
X635000Y214200D03*
D13*
X605000Y214200D03*
X605000Y315800D03*
D14*
X602380Y175400D02*
X617620Y175400D01*
X617620Y150000D02*
X602380Y150000D01*
X602380Y124600D02*
X617620Y124600D01*
D15*
X656900Y90000D03*
X733100Y90000D03*
D16*
X675000Y40000D03*
D17*
X710000Y40000D03*
D18*
X682300Y213692D02*
X682300Y226900D01*
X707700Y226900D02*
X707700Y213692D01*
X707700Y303100D02*
X707700Y316308D01*
X682300Y316308D02*
X682300Y303100D01*
D19*
X760800Y190000D03*
X659200Y190000D03*
X733100Y140000D03*
X656900Y140000D03*
D15*
X656900Y115000D03*
X733100Y115000D03*
D12*
X625000Y75400D03*
X625000Y24600D03*
D20*
X30000Y30000D03*
X970000Y30000D03*
X30000Y770000D03*
X970000Y770000D03*
D21*
X107000Y110000D03*
X47000Y110000D03*
X77000Y63000D03*
D22*
X296200Y40000D03*
X143800Y40000D03*
D23*
X170000Y127000D03*
X170000Y93000D03*
X270000Y127000D03*
X270000Y93000D03*
D19*
X420800Y80000D03*
X319200Y80000D03*
D15*
X319200Y110000D03*
X420800Y110000D03*
X656900Y165000D03*
X733100Y165000D03*
D24*
X765000Y640000D03*
D25*
X915000Y640000D03*
D26*
X592700Y770000D03*
D27*
X567300Y770000D03*
D26*
X662700Y770000D03*
D27*
X637300Y770000D03*
D12*
X825000Y315800D03*
X825000Y214200D03*
D13*
X795000Y214200D03*
X795000Y315800D03*
D14*
X792380Y175400D02*
X807620Y175400D01*
X807620Y150000D02*
X792380Y150000D01*
X792380Y124600D02*
X807620Y124600D01*
D15*
X846900Y90000D03*
X923100Y90000D03*
D16*
X865000Y40000D03*
D17*
X900000Y40000D03*
D18*
X872300Y213692D02*
X872300Y226900D01*
X897700Y226900D02*
X897700Y213692D01*
X897700Y303100D02*
X897700Y316308D01*
X872300Y316308D02*
X872300Y303100D01*
D19*
X950800Y190000D03*
X849200Y190000D03*
X923100Y140000D03*
X846900Y140000D03*
D15*
X846900Y115000D03*
X923100Y115000D03*
D12*
X815000Y75400D03*
X815000Y24600D03*
D15*
X846900Y165000D03*
X923100Y165000D03*
D28*
X319200Y140000D03*
X420800Y140000D03*
D29*
X550800Y557000D03*
X449200Y557000D03*
D12*
X650000Y720800D03*
X650000Y619200D03*
X620000Y720800D03*
X620000Y619200D03*
D19*
X527512Y742394D03*
X462488Y742394D03*
X527512Y787606D03*
X462488Y787606D03*
D15*
X239200Y486000D03*
X340800Y486000D03*
X239200Y511000D03*
X340800Y511000D03*
D30*
X465000Y255400D03*
D31*
X465000Y204600D03*
D32*
X480000Y30000D03*
D33*
X500000Y30000D03*
X520000Y30000D03*
X540000Y30000D03*
D13*
X525000Y64200D03*
X525000Y165800D03*
X495000Y64200D03*
X495000Y165800D03*
D19*
X328100Y461000D03*
X251900Y461000D03*
X328100Y536000D03*
X251900Y536000D03*
D28*
X449200Y525000D03*
X550800Y525000D03*
D19*
X538100Y500000D03*
X461900Y500000D03*
X563500Y450000D03*
X436500Y450000D03*
D12*
X465000Y148100D03*
X465000Y71900D03*
X555000Y148100D03*
X555000Y71900D03*
D13*
X592606Y631900D03*
X592606Y708100D03*
D15*
X331900Y50000D03*
X408100Y50000D03*
D34*
X200000Y780000D03*
D13*
X225400Y780000D03*
X250800Y780000D03*
X276200Y780000D03*
X301600Y780000D03*
X327000Y780000D03*
X352400Y780000D03*
X377800Y780000D03*
D35*
X163500Y425300D03*
X36500Y425300D03*
D36*
X176200Y539600D03*
X150800Y539600D03*
X125400Y539600D03*
X100000Y539600D03*
X74600Y539600D03*
X49200Y539600D03*
X23800Y539600D03*
D37*
X23800Y584500D03*
X23800Y575500D03*
X98400Y238500D03*
X98400Y247500D03*
D19*
X980000Y250000D03*
X980000Y275400D03*
D13*
X880000Y640000D03*
X840000Y640000D03*
X800000Y640000D03*
D19*
X980000Y420000D03*
X980000Y445400D03*
X980000Y470800D03*
X980000Y325000D03*
X980000Y350400D03*
X980000Y375800D03*
D37*
X930000Y454290D03*
X930000Y445400D03*
X930000Y436510D03*
X930000Y359290D03*
X930000Y350400D03*
X930000Y341510D03*
M02*
