*
*
G04 PADS VX.2 Build Number: 5060570 generated Gerber (RS-274-X) file*
G04 PC Version=2.1*
*
%IN "ESP32-PICO-KIT_V4.1_201"*%
*
%MOIN*%
*
%FSLAX35Y35*%
*
*
*
*
G04 PC Standard Apertures*
*
*
G04 Thermal Relief Aperture macro.*
%AMTER*
1,1,$1,0,0*
1,0,$1-$2,0,0*
21,0,$3,$4,0,0,45*
21,0,$3,$4,0,0,135*
%
*
*
G04 Annular Aperture macro.*
%AMANN*
1,1,$1,0,0*
1,0,$2,0,0*
%
*
*
G04 Odd Aperture macro.*
%AMODD*
1,1,$1,0,0*
1,0,$1-0.005,0,0*
%
*
*
G04 PC Custom Aperture Macros*
*
*
*
*
*
*
G04 PC Aperture Table*
*
%ADD010C,0.001*%
%ADD012C,0.01*%
%ADD024C,0.005*%
%ADD025C,0.006*%
%ADD056C,0.012*%
%ADD060C,0.015*%
%ADD070C,0.02*%
%ADD072C,0.025*%
%ADD145C,0.05906*%
%ADD168O,0.07087X0.05906*%
*
*
*
*
G04 PC Circuitry*
G04 Layer Name ESP32-PICO-KIT_V4.1_201 - circuitry*
%LPD*%
*
*
G04 PC Custom Flashes*
G04 Layer Name ESP32-PICO-KIT_V4.1_201 - flashes*
%LPD*%
*
*
G04 PC Circuitry*
G04 Layer Name ESP32-PICO-KIT_V4.1_201 - circuitry*
%LPD*%
*
G54D10*
G01X1918438Y1610181D02*
X1918440D01*
X2123162D02*
X2123165D01*
X1918438Y1530181D02*
X1918440D01*
X1918438Y1610181D02*
X1918440D01*
G54D12*
X1955606Y1567998D02*
Y1567913D01*
X1952866*
X1952946Y1562180D02*
X1955606D01*
X1952870Y1573819D02*
X1955571D01*
X1955606Y1573855*
X1957033Y1586976D02*
X1956703D01*
X1955266Y1588413*
X1984892Y1575787D02*
X1980764D01*
Y1575814*
X2080504Y1585553D02*
X2078986Y1587071D01*
X1923162Y1610181D02*
G75*
G03X1918438Y1605457I0J-4724D01*
G01Y1534906*
G03X1923162Y1530181I4724J-0*
G01X2118438*
G03X2123162Y1534906I-0J4725*
G01Y1605457*
G03X2118438Y1610181I-4724J-0*
G01X1923162*
G54D24*
X2109338Y1562307D02*
G03X2109338I-2181J0D01*
G01Y1578055D02*
G03X2109338I-2181J0D01*
G01X2075362Y1552681D02*
G03X2075362I-1600J0D01*
G01X2027204Y1577224D02*
G03X2027204I-2100J0D01*
G01X2122312Y1605457D02*
G03X2118438Y1609331I-3874J-0D01*
G01X2116448*
G03X2116248Y1609131I-0J-200*
X2116416Y1608934I200J0*
G01X2119603Y1605181D02*
G03X2116416Y1608934I-3803J0D01*
G01X2114868Y1601494D02*
G03X2119603Y1605181I932J3687D01*
G01X2114868Y1601494D02*
G03X2114677Y1601442I-49J-193D01*
G01X2102208Y1588973*
X2100900Y1588431D02*
G03X2102208Y1588973I-0J1850D01*
G01X2100900Y1588431D02*
X2083046D01*
G03X2082904Y1588373I-0J-200*
G01X2081742Y1587211*
G03X2081684Y1587069I142J-142*
X2081749Y1586921I200J0*
G01X2082354Y1585553D02*
G03X2081749Y1586921I-1850J0D01*
G01X2079136Y1584308D02*
G03X2082354Y1585553I1368J1245D01*
G01X2079136Y1584308D02*
G03X2078846Y1584315I-148J-135D01*
G01X2076971Y1582439*
G03X2076912Y1582298I141J-141*
G01Y1567621*
G03X2077155Y1567426I200J-0*
G01X2077611Y1567476D02*
G03X2077155Y1567426I-0J-2100D01*
G01X2077611Y1567476D02*
X2082267D01*
X2083752Y1566861D02*
G03X2082267Y1567476I-1485J-1485D01*
G01X2083752Y1566861D02*
X2100173Y1550440D01*
G03X2100315Y1550381I142J141*
G01X2102700*
X2104185Y1549766D02*
G03X2102700Y1550381I-1485J-1485D01*
G01X2104185Y1549766D02*
X2114968Y1538983D01*
G03X2115144Y1538927I142J141*
G01X2119603Y1535181D02*
G03X2115144Y1538927I-3803J0D01*
G01X2116416Y1531429D02*
G03X2119603Y1535181I-616J3752D01*
G01X2116416Y1531429D02*
G03X2116248Y1531231I32J-198D01*
X2116448Y1531031I200J0*
G01X2118438*
G03X2122312Y1534906I-0J3875*
G01Y1605457*
X2115352Y1531231D02*
G03X2115184Y1531429I-200J0D01*
G01X2111997Y1535181D02*
G03X2115184Y1531429I3803J0D01*
G01X2111997Y1535181D02*
X2111997D01*
X2112054Y1535837D02*
G03X2111997Y1535181I3746J-656D01*
G01X2112054Y1535837D02*
G03X2112057Y1535871I-197J34D01*
G01X2112057*
G03X2111999Y1536013I-200J0*
G01X2101889Y1546123*
G03X2101747Y1546181I-142J-142*
G01X2099362*
X2097877Y1546796D02*
G03X2099362Y1546181I1485J1485D01*
G01X2097877Y1546796D02*
X2081456Y1563217D01*
G03X2081315Y1563276I-141J-141*
G01X2078167*
G03X2077967Y1563076I-0J-200*
X2078025Y1562934I200J-0*
G01X2097108Y1543851*
X2097650Y1542543D02*
G03X2097108Y1543851I-1850J0D01*
G01X2097650Y1542543D02*
Y1538619D01*
G03X2097748Y1538447I200J0*
G01X2099603Y1535181D02*
G03X2097748Y1538447I-3803J0D01*
G01X2096416Y1531429D02*
G03X2099603Y1535181I-616J3752D01*
G01X2096416Y1531429D02*
G03X2096248Y1531231I32J-198D01*
X2096448Y1531031I200J0*
G01X2105152*
G03X2105352Y1531231I-0J200*
X2105184Y1531429I-200J0*
G01X2101997Y1535181D02*
G03X2105184Y1531429I3803J0D01*
G01X2109603Y1535181D02*
G03X2101997I-3803J0D01*
G01X2106416Y1531429D02*
G03X2109603Y1535181I-616J3752D01*
G01X2106416Y1531429D02*
G03X2106248Y1531231I32J-198D01*
X2106448Y1531031I200J0*
G01X2115152*
G03X2115352Y1531231I-0J200*
G01X2095352D02*
G03X2095184Y1531429I-200J0D01*
G01X2091997Y1535181D02*
G03X2095184Y1531429I3803J0D01*
G01X2093852Y1538447D02*
G03X2091997Y1535181I1948J-3266D01*
G01X2093852Y1538447D02*
G03X2093950Y1538619I-102J172D01*
G01Y1541694*
G03X2093891Y1541835I-200J0*
G01X2075554Y1560173*
G03X2075413Y1560231I-141J-142*
G01X2075040*
G03X2074840Y1560031I0J-200*
X2074896Y1559892I200J0*
G01X2075346Y1558780D02*
G03X2074896Y1559892I-1600J0D01*
G01X2072146Y1558780D02*
G03X2075346I1600J0D01*
G01X2072604Y1559901D02*
G03X2072146Y1558780I1142J-1121D01*
G01X2072604Y1559901D02*
G03X2072661Y1560041I-143J140D01*
X2072481Y1560240I-200J-0*
G01X2070902Y1561510D02*
G03X2072481Y1560240I1760J571D01*
G01X2070902Y1561510D02*
G03X2070512Y1561449I-190J-61D01*
G01Y1552178*
G03X2070571Y1552037I200J0*
G01X2083949Y1538659*
G03X2084175Y1538619I141J141*
G01X2089603Y1535181D02*
G03X2084175Y1538619I-3803J0D01*
G01X2086416Y1531429D02*
G03X2089603Y1535181I-616J3752D01*
G01X2086416Y1531429D02*
G03X2086248Y1531231I32J-198D01*
X2086448Y1531031I200J0*
G01X2095152*
G03X2095352Y1531231I-0J200*
G01X2085352D02*
G03X2085184Y1531429I-200J0D01*
G01X2081997Y1535181D02*
G03X2085184Y1531429I3803J0D01*
G01X2082362Y1536806D02*
G03X2081997Y1535181I3438J-1625D01*
G01X2082362Y1536806D02*
G03X2082381Y1536891I-181J85D01*
X2082322Y1537033I-200J0*
G01X2069053Y1550301*
G03X2068712Y1550160I-141J-141*
G01Y1543978*
G03X2068771Y1543837I200J0*
G01X2073949Y1538659*
G03X2074175Y1538619I141J141*
G01X2079603Y1535181D02*
G03X2074175Y1538619I-3803J0D01*
G01X2076416Y1531429D02*
G03X2079603Y1535181I-616J3752D01*
G01X2076416Y1531429D02*
G03X2076248Y1531231I32J-198D01*
X2076448Y1531031I200J0*
G01X2085152*
G03X2085352Y1531231I-0J200*
G01X2071319Y1563431D02*
G03X2071270Y1563563I-200J0D01*
G01X2070902Y1564210D02*
G03X2071270Y1563563I1760J571D01*
G01X2070902Y1564210D02*
G03X2070512Y1564149I-190J-61D01*
G01Y1562714*
G03X2070902Y1562652I200J-0*
G01X2071270Y1563299D02*
G03X2070902Y1562652I1392J-1218D01*
G01X2071270Y1563299D02*
G03X2071319Y1563431I-151J132D01*
G01X2065352Y1531231D02*
G03X2065184Y1531429I-200J0D01*
G01X2061997Y1535181D02*
G03X2065184Y1531429I3803J0D01*
G01X2064517Y1538761D02*
G03X2061997Y1535181I1283J-3580D01*
G01X2064517Y1538761D02*
G03X2064650Y1538949I-67J188D01*
G01Y1563884*
G03X2064591Y1564025I-200J-0*
G01X2057291Y1571325*
G03X2056950Y1571184I-141J-141*
G01Y1538949*
G03X2057083Y1538761I200J0*
G01X2059603Y1535181D02*
G03X2057083Y1538761I-3803J0D01*
G01X2056416Y1531429D02*
G03X2059603Y1535181I-616J3752D01*
G01X2056416Y1531429D02*
G03X2056248Y1531231I32J-198D01*
X2056448Y1531031I200J0*
G01X2065152*
G03X2065352Y1531231I-0J200*
G01X2055352D02*
G03X2055184Y1531429I-200J0D01*
G01X2051997Y1535181D02*
G03X2055184Y1531429I3803J0D01*
G01X2054517Y1538761D02*
G03X2051997Y1535181I1283J-3580D01*
G01X2054517Y1538761D02*
G03X2054650Y1538949I-67J188D01*
G01Y1571784*
G03X2054591Y1571925I-200J-0*
G01X2047753Y1578763*
G03X2047412Y1578622I-141J-141*
G01Y1538750*
G03X2047521Y1538572I200J0*
G01X2049603Y1535181D02*
G03X2047521Y1538572I-3803J0D01*
G01X2046416Y1531429D02*
G03X2049603Y1535181I-616J3752D01*
G01X2046416Y1531429D02*
G03X2046248Y1531231I32J-198D01*
X2046448Y1531031I200J0*
G01X2055152*
G03X2055352Y1531231I-0J200*
G01X2045352D02*
G03X2045184Y1531429I-200J0D01*
G01X2041997Y1535181D02*
G03X2045184Y1531429I3803J0D01*
G01X2044956Y1538889D02*
G03X2041997Y1535181I844J-3708D01*
G01X2044956Y1538889D02*
G03X2045112Y1539084I-44J195D01*
G01Y1573854*
G03X2044832Y1574037I-200J-0*
G01X2042594Y1575479D02*
G03X2044832Y1574037I1599J25D01*
G01X2042594Y1575479D02*
G03X2042397Y1575676I-200J-3D01*
G01X2040822Y1577276D02*
G03X2042397Y1575676I1600J-0D01*
G01X2044022Y1577301D02*
G03X2040822Y1577276I-1600J-25D01*
G01X2044022Y1577301D02*
G03X2044218Y1577104I200J3D01*
G01X2044832Y1576971D02*
G03X2044218Y1577104I-639J-1467D01*
G01X2044832Y1576971D02*
G03X2045112Y1577154I80J183D01*
G01Y1578622*
G03X2045053Y1578763I-200J-0*
G01X2040591Y1583226*
G03X2040462Y1583284I-142J-141*
G01X2039262Y1583948D02*
G03X2040462Y1583284I1300J933D01*
G01X2039262Y1583948D02*
G03X2039100Y1584031I-162J-117D01*
G01X1993421*
G03X1993280Y1583973I0J-200*
G01X1986250Y1576943*
X1986244Y1576937D02*
G03X1986250Y1576943I-807J819D01*
G01X1986244Y1576937D02*
G03X1986184Y1576794I140J-143D01*
X1986218Y1576682I200J0*
G01X1986492Y1575787D02*
G03X1986218Y1576682I-1600J0D01*
G01X1986394Y1575238D02*
G03X1986492Y1575787I-1502J549D01*
G01X1986394Y1575238D02*
G03X1986382Y1575169I188J-69D01*
X1986582Y1574969I200J-0*
G01X1989813*
X1990626Y1574632D02*
G03X1989813Y1574969I-813J-813D01*
G01X1990626Y1574632D02*
X2001595Y1563663D01*
G03X2001724Y1563605I142J141*
G01X2003221Y1562108D02*
G03X2001724Y1563605I-1597J-100D01*
G01X2003221Y1562108D02*
G03X2003279Y1561979I200J13D01*
G01X2023269Y1541990*
G03X2023410Y1541931I141J141*
G01X2030200*
X2031013Y1541594D02*
G03X2030200Y1541931I-813J-813D01*
G01X2031013Y1541594D02*
X2033949Y1538659D01*
G03X2034175Y1538619I141J141*
G01X2039603Y1535181D02*
G03X2034175Y1538619I-3803J0D01*
G01X2036416Y1531429D02*
G03X2039603Y1535181I-616J3752D01*
G01X2036416Y1531429D02*
G03X2036248Y1531231I32J-198D01*
X2036448Y1531031I200J0*
G01X2045152*
G03X2045352Y1531231I-0J200*
G01X2115352Y1609131D02*
G03X2115152Y1609331I-200J0D01*
G01X2106448*
G03X2106248Y1609131I-0J-200*
X2106416Y1608934I200J0*
G01X2109603Y1605181D02*
G03X2106416Y1608934I-3803J0D01*
G01X2101997Y1605181D02*
G03X2109603I3803J0D01*
G01X2105184Y1608934D02*
G03X2101997Y1605181I616J-3753D01*
G01X2105184Y1608934D02*
G03X2105352Y1609131I-32J197D01*
X2105152Y1609331I-200J0*
G01X2096448*
G03X2096248Y1609131I-0J-200*
X2096416Y1608934I200J0*
G01X2099603Y1605181D02*
G03X2096416Y1608934I-3803J0D01*
G01X2094175Y1601743D02*
G03X2099603Y1605181I1625J3438D01*
G01X2094175Y1601743D02*
G03X2093949Y1601703I-85J-181D01*
G01X2087113Y1594868*
X2086300Y1594531D02*
G03X2087113Y1594868I-0J1150D01*
G01X2086300Y1594531D02*
X2041421D01*
G03X2041221Y1594331I0J-200*
X2041280Y1594190I200J0*
G01X2070175Y1565294*
X2070434Y1564897D02*
G03X2070175Y1565294I-1072J-416D01*
G01X2070434Y1564897D02*
G03X2070820Y1564951I187J72D01*
G01X2071355Y1566091D02*
G03X2070820Y1564951I1307J-1310D01*
G01X2071355Y1566091D02*
X2073153Y1567889D01*
G03X2073212Y1568030I-141J141*
G01Y1583147*
X2073754Y1584455D02*
G03X2073212Y1583147I1308J-1308D01*
G01X2073754Y1584455D02*
X2080888Y1591589D01*
X2082196Y1592131D02*
G03X2080888Y1591589I0J-1850D01*
G01X2082196Y1592131D02*
X2100051D01*
G03X2100192Y1592190I-0J200*
G01X2112061Y1604058*
G03X2112119Y1604200I-142J142*
X2112113Y1604249I-200J-0*
G01X2111997Y1605181D02*
G03X2112113Y1604249I3803J0D01*
G01X2111997Y1605181D02*
X2111997D01*
X2115184Y1608934D02*
G03X2111997Y1605181I616J-3753D01*
G01X2115184Y1608934D02*
G03X2115352Y1609131I-32J197D01*
G01X2025352Y1531231D02*
G03X2025184Y1531429I-200J0D01*
G01X2021997Y1535181D02*
G03X2025184Y1531429I3803J0D01*
G01X2022362Y1536806D02*
G03X2021997Y1535181I3438J-1625D01*
G01X2022362Y1536806D02*
G03X2022381Y1536891I-181J85D01*
X2022322Y1537033I-200J0*
G01X1988713Y1570642*
G03X1988571Y1570700I-142J-142*
G01X1986652*
G03X1986452Y1570500I-0J-200*
X1986511Y1570359I200J0*
G01X2016613Y1540256*
X2016950Y1539443D02*
G03X2016613Y1540256I-1150J0D01*
G01X2016950Y1539443D02*
Y1538949D01*
G03X2017083Y1538761I200J0*
G01X2019603Y1535181D02*
G03X2017083Y1538761I-3803J0D01*
G01X2016416Y1531429D02*
G03X2019603Y1535181I-616J3752D01*
G01X2016416Y1531429D02*
G03X2016248Y1531231I32J-198D01*
X2016448Y1531031I200J0*
G01X2025152*
G03X2025352Y1531231I-0J200*
G01X2005352D02*
G03X2005184Y1531429I-200J0D01*
G01X2001997Y1535181D02*
G03X2005184Y1531429I3803J0D01*
G01X2004517Y1538761D02*
G03X2001997Y1535181I1283J-3580D01*
G01X2004517Y1538761D02*
G03X2004650Y1538949I-67J188D01*
G01Y1545254*
G03X2004591Y1545395I-200J-0*
G01X1989319Y1560668*
G03X1988977Y1560527I-142J-141*
X1988987Y1560466I200J-0*
G01X1989059Y1560081D02*
G03X1988987Y1560466I-1597J-100D01*
G01X1989059Y1560081D02*
G03X1989117Y1559952I199J13D01*
G01X1996613Y1552456*
X1996950Y1551643D02*
G03X1996613Y1552456I-1150J0D01*
G01X1996950Y1551643D02*
Y1538949D01*
G03X1997083Y1538761I200J0*
G01X1999603Y1535181D02*
G03X1997083Y1538761I-3803J0D01*
G01X1996416Y1531429D02*
G03X1999603Y1535181I-616J3752D01*
G01X1996416Y1531429D02*
G03X1996248Y1531231I32J-198D01*
X1996448Y1531031I200J0*
G01X2005152*
G03X2005352Y1531231I-0J200*
G01X1995352D02*
G03X1995184Y1531429I-200J0D01*
G01X1991997Y1535181D02*
G03X1995184Y1531429I3803J0D01*
G01X1994517Y1538761D02*
G03X1991997Y1535181I1283J-3580D01*
G01X1994517Y1538761D02*
G03X1994650Y1538949I-67J188D01*
G01Y1551084*
G03X1994591Y1551225I-200J-0*
G01X1987491Y1558326*
G03X1987362Y1558384I-142J-141*
G01X1987185Y1558405D02*
G03X1987362Y1558384I277J1576D01*
G01X1987185Y1558405D02*
G03X1986950Y1558208I-35J-197D01*
G01Y1538949*
G03X1987083Y1538761I200J0*
G01X1989603Y1535181D02*
G03X1987083Y1538761I-3803J0D01*
G01X1986416Y1531429D02*
G03X1989603Y1535181I-616J3752D01*
G01X1986416Y1531429D02*
G03X1986248Y1531231I32J-198D01*
X1986448Y1531031I200J0*
G01X1995152*
G03X1995352Y1531231I-0J200*
G01X2040803Y1591331D02*
G03X2040744Y1591473I-200J0D01*
G01X2039844Y1592373*
G03X2039703Y1592431I-141J-142*
G01X2036053*
G03X2035920Y1592381I-0J-200*
G01X2033534Y1592689D02*
G03X2035920Y1592381I1328J892D01*
G01X2033534Y1592689D02*
G03X2033226Y1592719I-166J-111D01*
G01X2032317Y1591810*
G03X2032259Y1591681I141J-142*
G01X2032211Y1591381D02*
G03X2032259Y1591681I-1549J400D01*
G01X2032211Y1591381D02*
G03X2032205Y1591331I194J-50D01*
G01X2032205*
G03X2032405Y1591131I200J0*
G01X2040603*
G03X2040803Y1591331I-0J200*
G01X1983347Y1572294D02*
G03X1983254Y1572464I-200J0D01*
G01X1982504Y1573819D02*
G03X1983254Y1572464I1600J-0D01*
G01X1982504Y1573819D02*
X1982504D01*
X1982529Y1574097D02*
G03X1982504Y1573819I1575J-278D01*
G01X1982529Y1574097D02*
G03X1982532Y1574131I-197J34D01*
X1982195Y1574278I-200J0*
G01X1978664Y1575814D02*
G03X1982195Y1574278I2100J0D01*
G01X1978664Y1575814D02*
Y1584371D01*
G03X1978606Y1584512I-200J-0*
G01X1977363Y1585755*
G03X1977222Y1585813I-141J-142*
G01X1958922*
G03X1958781Y1585755I0J-200*
G01X1957765Y1584739*
G03X1957706Y1584597I141J-142*
G01Y1567998*
Y1567959D02*
G03Y1567998I-2100J39D01*
G01Y1567959D02*
G03Y1567956I200J-3D01*
Y1567952I200J-0*
G01Y1567913D02*
G03Y1567952I-2100J0D01*
G01Y1567913D02*
Y1558472D01*
G03X1957765Y1558331I200J0*
G01X1958829Y1557267*
X1959446Y1555780D02*
G03X1958829Y1557267I-2100J0D01*
G01X1955859Y1554297D02*
G03X1959446Y1555780I1487J1483D01*
G01X1955859Y1554297D02*
X1954121Y1556035D01*
X1953506Y1557520D02*
G03X1954121Y1556035I2100J-0D01*
G01X1953506Y1557520D02*
Y1560416D01*
G03X1953266Y1560612I-200J0*
G01X1951346Y1562180D02*
G03X1953266Y1560612I1600J0D01*
G01Y1563748D02*
G03X1951346Y1562180I-320J-1568D01*
G01X1953266Y1563748D02*
G03X1953506Y1563944I40J196D01*
G01Y1566168*
G03X1953257Y1566362I-200J0*
G01X1951266Y1567913D02*
G03X1953257Y1566362I1600J0D01*
G01Y1569465D02*
G03X1951266Y1567913I-391J-1552D01*
G01X1953257Y1569465D02*
G03X1953506Y1569659I49J194D01*
G01Y1572073*
G03X1953258Y1572267I-200J-0*
G01X1951270Y1573819D02*
G03X1953258Y1572267I1600J-0D01*
G01Y1575371D02*
G03X1951270Y1573819I-388J-1552D01*
G01X1953258Y1575371D02*
G03X1953506Y1575565I48J194D01*
G01Y1575981*
G03X1953273Y1576178I-200J0*
G01X1951406Y1577756D02*
G03X1953273Y1576178I1600J-0D01*
G01X1951406Y1577756D02*
X1951406D01*
X1951413Y1577909D02*
G03X1951406Y1577756I1593J-153D01*
G01X1951413Y1577909D02*
G03X1951414Y1577928I-199J19D01*
X1951202Y1578127I-200J-0*
G01X1949504Y1579724D02*
G03X1951202Y1578127I1600J0D01*
G01X1952704Y1579724D02*
G03X1949504I-1600J0D01*
G01X1952704D02*
X1952704D01*
X1952696Y1579572D02*
G03X1952704Y1579724I-1592J152D01*
G01X1952696Y1579572D02*
G03X1952695Y1579553I199J-19D01*
X1952908Y1579353I200J-0*
G01X1953273Y1579333D02*
G03X1952908Y1579353I-267J-1577D01*
G01X1953273Y1579333D02*
G03X1953506Y1579531I33J198D01*
G01Y1585550*
X1954111Y1587025D02*
G03X1953506Y1585550I1495J-1475D01*
G01X1954111Y1587025D02*
G03X1954169Y1587165I-142J140D01*
X1954113Y1587304I-200J0*
G01X1953666Y1588413D02*
G03X1954113Y1587304I1600J0D01*
G01X1956383Y1589558D02*
G03X1953666Y1588413I-1117J-1145D01*
G01X1956383Y1589558D02*
G03X1956649Y1589546I140J143D01*
G01X1957970Y1590013D02*
G03X1956649Y1589546I-0J-2100D01*
G01X1957970Y1590013D02*
X1958620D01*
G03X1958820Y1590213I0J200*
X1958762Y1590355I-200J0*
G01X1950744Y1598373*
G03X1950603Y1598431I-141J-142*
G01X1931400*
X1930587Y1598768D02*
G03X1931400Y1598431I813J813D01*
G01X1930587Y1598768D02*
X1927651Y1601703D01*
G03X1927424Y1601743I-141J-141*
G01X1921997Y1605181D02*
G03X1927424Y1601743I3803J0D01*
G01X1925184Y1608934D02*
G03X1921997Y1605181I616J-3753D01*
G01X1925184Y1608934D02*
G03X1925352Y1609131I-32J197D01*
X1925152Y1609331I-200J0*
G01X1923162*
G03X1919288Y1605457I0J-3874*
G01Y1534906*
G03X1923162Y1531031I3874J-0*
G01X1925152*
G03X1925352Y1531231I-0J200*
X1925184Y1531429I-200J0*
G01X1921997Y1535181D02*
G03X1925184Y1531429I3803J0D01*
G01X1929603Y1535181D02*
G03X1921997I-3803J0D01*
G01X1926416Y1531429D02*
G03X1929603Y1535181I-616J3752D01*
G01X1926416Y1531429D02*
G03X1926248Y1531231I32J-198D01*
X1926448Y1531031I200J0*
G01X1935152*
G03X1935352Y1531231I-0J200*
X1935184Y1531429I-200J0*
G01X1931997Y1535181D02*
G03X1935184Y1531429I3803J0D01*
G01X1939603Y1535181D02*
G03X1931997I-3803J0D01*
G01X1936416Y1531429D02*
G03X1939603Y1535181I-616J3752D01*
G01X1936416Y1531429D02*
G03X1936248Y1531231I32J-198D01*
X1936448Y1531031I200J0*
G01X1945152*
G03X1945352Y1531231I-0J200*
X1945184Y1531429I-200J0*
G01X1941997Y1535181D02*
G03X1945184Y1531429I3803J0D01*
G01X1949603Y1535181D02*
G03X1941997I-3803J0D01*
G01X1946416Y1531429D02*
G03X1949603Y1535181I-616J3752D01*
G01X1946416Y1531429D02*
G03X1946248Y1531231I32J-198D01*
X1946448Y1531031I200J0*
G01X1955152*
G03X1955352Y1531231I-0J200*
X1955184Y1531429I-200J0*
G01X1951997Y1535181D02*
G03X1955184Y1531429I3803J0D01*
G01X1957424Y1538619D02*
G03X1951997Y1535181I-1624J-3438D01*
G01X1957424Y1538619D02*
G03X1957651Y1538659I86J181D01*
G01X1964343Y1545350*
G03X1964401Y1545492I-142J142*
G01Y1557225*
G03X1964351Y1557357I-200J-0*
G01X1963951Y1558415D02*
G03X1964351Y1557357I1600J0D01*
G01X1965946Y1559966D02*
G03X1963951Y1558415I-395J-1551D01*
G01X1965946Y1559966D02*
G03X1966165Y1560053I49J194D01*
G01X1968875D02*
G03X1966165I-1355J-850D01*
G01X1968875D02*
G03X1969094Y1559966I169J107D01*
G01X1969883D02*
G03X1969094I-395J-1551D01*
G01X1969883D02*
G03X1970102Y1560053I49J194D01*
G01X1973057Y1559203D02*
G03X1970102Y1560053I-1600J-0D01*
G01X1972657Y1558144D02*
G03X1973057Y1559203I-1200J1059D01*
G01X1972657Y1558144D02*
G03X1972607Y1558012I150J-132D01*
G01Y1540838*
X1972270Y1540025D02*
G03X1972607Y1540838I-813J813D01*
G01X1972270Y1540025D02*
X1969278Y1537033D01*
G03X1969219Y1536891I141J-142*
X1969238Y1536806I200J0*
G01X1969603Y1535181D02*
G03X1969238Y1536806I-3803J0D01*
G01X1966416Y1531429D02*
G03X1969603Y1535181I-616J3752D01*
G01X1966416Y1531429D02*
G03X1966248Y1531231I32J-198D01*
X1966448Y1531031I200J0*
G01X1975152*
G03X1975352Y1531231I-0J200*
X1975184Y1531429I-200J0*
G01X1971997Y1535181D02*
G03X1975184Y1531429I3803J0D01*
G01X1977424Y1538619D02*
G03X1971997Y1535181I-1624J-3438D01*
G01X1977424Y1538619D02*
G03X1977651Y1538659I86J181D01*
G01X1982896Y1543903*
G03X1982954Y1544045I-142J142*
G01Y1544124*
G03X1982711Y1544320I-200J0*
G01X1982271Y1544284D02*
G03X1982711Y1544320I91J1597D01*
G01X1982271Y1544284D02*
G03X1982071Y1544150I-11J-200D01*
G01X1980809Y1543100D02*
G03X1982071Y1544150I-247J1581D01*
G01X1980809Y1543100D02*
G03X1980643Y1542934I31J-197D01*
G01X1977465Y1543081D02*
G03X1980643Y1542934I1597J100D01*
G01X1977465Y1543081D02*
G03X1977407Y1543210I-200J-13D01*
G01X1974581Y1546036*
X1974244Y1546849D02*
G03X1974581Y1546036I1150J0D01*
G01X1974244Y1546849D02*
Y1558012D01*
G03X1974194Y1558144I-200J0*
G01X1973794Y1559203D02*
G03X1974194Y1558144I1600J-0D01*
G01X1976749Y1560053D02*
G03X1973794Y1559203I-1355J-850D01*
G01X1976749Y1560053D02*
G03X1976968Y1559966I169J107D01*
G01X1978962Y1558415D02*
G03X1976968Y1559966I-1600J0D01*
G01X1978562Y1557357D02*
G03X1978962Y1558415I-1200J1058D01*
G01X1978562Y1557357D02*
G03X1978512Y1557225I150J-132D01*
G01Y1548440*
G03X1978571Y1548299I200J0*
G01X1980525Y1546344*
G03X1980855Y1546419I142J142*
G01X1981162Y1546939D02*
G03X1980855Y1546419I1200J-1058D01*
G01X1981162Y1546939D02*
G03X1981212Y1547072I-150J133D01*
G01Y1554591*
G03X1981162Y1554723I-200J-0*
G01X1980762Y1555781D02*
G03X1981162Y1554723I1600J0D01*
G01X1982711Y1557343D02*
G03X1980762Y1555781I-349J-1562D01*
G01X1982711Y1557343D02*
G03X1982954Y1557538I43J195D01*
G01Y1564754*
G03X1982904Y1564887I-200J0*
G01X1982504Y1565945D02*
G03X1982904Y1564887I1600J-0D01*
G01X1983254Y1567300D02*
G03X1982504Y1565945I850J-1355D01*
G01X1983254Y1567300D02*
G03X1983347Y1567469I-107J169D01*
X1983341Y1567519I-200J0*
G01X1983292Y1567913D02*
G03X1983341Y1567519I1600J0D01*
G01Y1568308D02*
G03X1983292Y1567913I1551J-395D01*
G01X1983341Y1568308D02*
G03X1983347Y1568357I-194J49D01*
X1983254Y1568527I-200J0*
G01X1982504Y1569882D02*
G03X1983254Y1568527I1600J-0D01*
G01Y1571237D02*
G03X1982504Y1569882I850J-1355D01*
G01X1983254Y1571237D02*
G03X1983347Y1571406I-107J169D01*
X1983341Y1571456I-200J0*
G01X1983292Y1571850D02*
G03X1983341Y1571456I1600J0D01*
G01Y1572245D02*
G03X1983292Y1571850I1551J-395D01*
G01X1983341Y1572245D02*
G03X1983347Y1572294I-194J49D01*
G01X2095352Y1609131D02*
G03X2095152Y1609331I-200J0D01*
G01X2086448*
G03X2086248Y1609131I-0J-200*
X2086416Y1608934I200J0*
G01X2089603Y1605181D02*
G03X2086416Y1608934I-3803J0D01*
G01X2081997Y1605181D02*
G03X2089603I3803J0D01*
G01X2085184Y1608934D02*
G03X2081997Y1605181I616J-3753D01*
G01X2085184Y1608934D02*
G03X2085352Y1609131I-32J197D01*
X2085152Y1609331I-200J0*
G01X2076448*
G03X2076248Y1609131I-0J-200*
X2076416Y1608934I200J0*
G01X2079603Y1605181D02*
G03X2076416Y1608934I-3803J0D01*
G01X2071997Y1605181D02*
G03X2079603I3803J0D01*
G01X2075184Y1608934D02*
G03X2071997Y1605181I616J-3753D01*
G01X2075184Y1608934D02*
G03X2075352Y1609131I-32J197D01*
X2075152Y1609331I-200J0*
G01X2066448*
G03X2066248Y1609131I-0J-200*
X2066416Y1608934I200J0*
G01X2069603Y1605181D02*
G03X2066416Y1608934I-3803J0D01*
G01X2061997Y1605181D02*
G03X2069603I3803J0D01*
G01X2065184Y1608934D02*
G03X2061997Y1605181I616J-3753D01*
G01X2065184Y1608934D02*
G03X2065352Y1609131I-32J197D01*
X2065152Y1609331I-200J0*
G01X2056448*
G03X2056248Y1609131I-0J-200*
X2056416Y1608934I200J0*
G01X2059603Y1605181D02*
G03X2056416Y1608934I-3803J0D01*
G01X2051997Y1605181D02*
G03X2059603I3803J0D01*
G01X2055184Y1608934D02*
G03X2051997Y1605181I616J-3753D01*
G01X2055184Y1608934D02*
G03X2055352Y1609131I-32J197D01*
X2055152Y1609331I-200J0*
G01X2046448*
G03X2046248Y1609131I-0J-200*
X2046416Y1608934I200J0*
G01X2049603Y1605181D02*
G03X2046416Y1608934I-3803J0D01*
G01X2041997Y1605181D02*
G03X2049603I3803J0D01*
G01X2045184Y1608934D02*
G03X2041997Y1605181I616J-3753D01*
G01X2045184Y1608934D02*
G03X2045352Y1609131I-32J197D01*
X2045152Y1609331I-200J0*
G01X2036448*
G03X2036248Y1609131I-0J-200*
X2036416Y1608934I200J0*
G01X2039603Y1605181D02*
G03X2036416Y1608934I-3803J0D01*
G01X2031997Y1605181D02*
G03X2039603I3803J0D01*
G01X2035184Y1608934D02*
G03X2031997Y1605181I616J-3753D01*
G01X2035184Y1608934D02*
G03X2035352Y1609131I-32J197D01*
X2035152Y1609331I-200J0*
G01X2026448*
G03X2026248Y1609131I-0J-200*
X2026416Y1608934I200J0*
G01X2029603Y1605181D02*
G03X2026416Y1608934I-3803J0D01*
G01X2021997Y1605181D02*
G03X2029603I3803J0D01*
G01X2025184Y1608934D02*
G03X2021997Y1605181I616J-3753D01*
G01X2025184Y1608934D02*
G03X2025352Y1609131I-32J197D01*
X2025152Y1609331I-200J0*
G01X2016448*
G03X2016248Y1609131I-0J-200*
X2016416Y1608934I200J0*
G01X2019603Y1605181D02*
G03X2016416Y1608934I-3803J0D01*
G01X2011997Y1605181D02*
G03X2019603I3803J0D01*
G01X2015184Y1608934D02*
G03X2011997Y1605181I616J-3753D01*
G01X2015184Y1608934D02*
G03X2015352Y1609131I-32J197D01*
X2015152Y1609331I-200J0*
G01X2006448*
G03X2006248Y1609131I-0J-200*
X2006416Y1608934I200J0*
G01X2009603Y1605181D02*
G03X2006416Y1608934I-3803J0D01*
G01X2001997Y1605181D02*
G03X2009603I3803J0D01*
G01X2005184Y1608934D02*
G03X2001997Y1605181I616J-3753D01*
G01X2005184Y1608934D02*
G03X2005352Y1609131I-32J197D01*
X2005152Y1609331I-200J0*
G01X1996448*
G03X1996248Y1609131I-0J-200*
X1996416Y1608934I200J0*
G01X1999603Y1605181D02*
G03X1996416Y1608934I-3803J0D01*
G01X1991997Y1605181D02*
G03X1999603I3803J0D01*
G01X1995184Y1608934D02*
G03X1991997Y1605181I616J-3753D01*
G01X1995184Y1608934D02*
G03X1995352Y1609131I-32J197D01*
X1995152Y1609331I-200J0*
G01X1986448*
G03X1986248Y1609131I-0J-200*
X1986416Y1608934I200J0*
G01X1989603Y1605181D02*
G03X1986416Y1608934I-3803J0D01*
G01X1981997Y1605181D02*
G03X1989603I3803J0D01*
G01X1985184Y1608934D02*
G03X1981997Y1605181I616J-3753D01*
G01X1985184Y1608934D02*
G03X1985352Y1609131I-32J197D01*
X1985152Y1609331I-200J0*
G01X1976448*
G03X1976248Y1609131I-0J-200*
X1976416Y1608934I200J0*
G01X1979603Y1605181D02*
G03X1976416Y1608934I-3803J0D01*
G01X1971997Y1605181D02*
G03X1979603I3803J0D01*
G01X1975184Y1608934D02*
G03X1971997Y1605181I616J-3753D01*
G01X1975184Y1608934D02*
G03X1975352Y1609131I-32J197D01*
X1975152Y1609331I-200J0*
G01X1966448*
G03X1966248Y1609131I-0J-200*
X1966416Y1608934I200J0*
G01X1969603Y1605181D02*
G03X1966416Y1608934I-3803J0D01*
G01X1961997Y1605181D02*
G03X1969603I3803J0D01*
G01X1965184Y1608934D02*
G03X1961997Y1605181I616J-3753D01*
G01X1965184Y1608934D02*
G03X1965352Y1609131I-32J197D01*
X1965152Y1609331I-200J0*
G01X1956448*
G03X1956248Y1609131I-0J-200*
X1956416Y1608934I200J0*
G01X1959603Y1605181D02*
G03X1956416Y1608934I-3803J0D01*
G01X1955032Y1601457D02*
G03X1959603Y1605181I768J3724D01*
G01X1955032Y1601457D02*
G03X1954791Y1601261I-41J-196D01*
X1954850Y1601119I200J-0*
G01X1960880Y1595090*
G03X1961021Y1595031I141J141*
G01X1964662*
X1965475Y1594694D02*
G03X1964662Y1595031I-813J-813D01*
G01X1965475Y1594694D02*
X1967993Y1592177D01*
G03X1968082Y1592125I141J141*
G01X1968595Y1591881D02*
G03X1968082Y1592125I-933J-1300D01*
G01X1968595Y1591881D02*
G03X1968829I117J162D01*
G01X1971362Y1590581D02*
G03X1968829Y1591881I-1600J0D01*
G01X1971328Y1590254D02*
G03X1971362Y1590581I-1566J327D01*
G01X1971328Y1590254D02*
G03X1971324Y1590213I196J-41D01*
X1971524Y1590013I200J0*
G01X1973700*
G03X1973900Y1590213I-0J200*
X1973896Y1590254I-200J0*
G01X1973862Y1590581D02*
G03X1973896Y1590254I1600J0D01*
G01X1977062Y1590581D02*
G03X1973862I-1600J0D01*
G01X1977028Y1590254D02*
G03X1977062Y1590581I-1566J327D01*
G01X1977028Y1590254D02*
G03X1977024Y1590213I196J-41D01*
X1977224Y1590013I200J0*
G01X1977600*
G03X1977800Y1590213I-0J200*
X1977796Y1590254I-200J0*
G01X1977762Y1590581D02*
G03X1977796Y1590254I1600J0D01*
G01X1980962Y1590581D02*
G03X1977762I-1600J0D01*
G01X1980193Y1589214D02*
G03X1980962Y1590581I-831J1367D01*
G01X1980193Y1589214D02*
G03X1980097Y1589043I104J-171D01*
X1980156Y1588902I200J0*
G01X1982249Y1586808*
X1982470Y1586549D02*
G03X1982249Y1586808I-1706J-1226D01*
G01X1982470Y1586549D02*
G03X1982796Y1586550I162J117D01*
G01X1984004Y1587227D02*
G03X1982796Y1586550I100J-1597D01*
G01X1984004Y1587227D02*
G03X1984133Y1587285I-12J199D01*
G01X1987642Y1590794*
X1988456Y1591131D02*
G03X1987642Y1590794I-0J-1150D01*
G01X1988456Y1591131D02*
X2028919D01*
G03X2029119Y1591331I0J200*
G01X2029119*
G03X2029113Y1591381I-200J0*
G01X2029062Y1591781D02*
G03X2029113Y1591381I1600J0D01*
G01X2030562Y1593378D02*
G03X2029062Y1591781I100J-1597D01*
G01X2030562Y1593378D02*
G03X2030691Y1593436I-13J200D01*
G01X2033749Y1596494*
X2034562Y1596831D02*
G03X2033749Y1596494I-0J-1150D01*
G01X2034562Y1596831D02*
X2085741D01*
G03X2085882Y1596890I-0J200*
G01X2092322Y1603330*
G03X2092381Y1603471I-141J141*
X2092362Y1603557I-200J0*
G01X2091997Y1605181D02*
G03X2092362Y1603557I3803J0D01*
G01X2095184Y1608934D02*
G03X2091997Y1605181I616J-3753D01*
G01X2095184Y1608934D02*
G03X2095352Y1609131I-32J197D01*
G01X1966370Y1543642D02*
G03X1966028Y1543783I-200J-0D01*
G01X1959278Y1537033*
G03X1959219Y1536891I141J-142*
X1959238Y1536806I200J0*
G01X1959603Y1535181D02*
G03X1959238Y1536806I-3803J0D01*
G01X1956416Y1531429D02*
G03X1959603Y1535181I-616J3752D01*
G01X1956416Y1531429D02*
G03X1956248Y1531231I32J-198D01*
X1956448Y1531031I200J0*
G01X1965152*
G03X1965352Y1531231I-0J200*
X1965184Y1531429I-200J0*
G01X1961997Y1535181D02*
G03X1965184Y1531429I3803J0D01*
G01X1965861Y1538983D02*
G03X1961997Y1535181I-61J-3802D01*
G01X1965861Y1538983D02*
G03X1966064Y1539183I3J200D01*
X1966030Y1539294I-200J0*
G01X1965762Y1540181D02*
G03X1966030Y1539294I1600J0D01*
G01X1966302Y1541380D02*
G03X1965762Y1540181I1060J-1199D01*
G01X1966302Y1541380D02*
G03X1966370Y1541530I-132J150D01*
G01Y1543642*
X2116252Y1552599D02*
G03X2120055Y1556402I0J3803D01*
G01X2116252Y1552599D02*
X2115071D01*
X2111269Y1556402D02*
G03X2115071Y1552599I3802J-0D01*
G01Y1560204D02*
G03X2111269Y1556402I0J-3802D01*
G01X2115071Y1560204D02*
X2116252D01*
X2120055Y1556402D02*
G03X2116252Y1560204I-3803J-0D01*
G01Y1580158D02*
G03X2120055Y1583961I0J3803D01*
G01X2116252Y1580158D02*
X2115071D01*
X2111269Y1583961D02*
G03X2115071Y1580158I3802J-0D01*
G01Y1587763D02*
G03X2111269Y1583961I0J-3802D01*
G01X2115071Y1587763D02*
X2116252D01*
X2120055Y1583961D02*
G03X2116252Y1587763I-3803J-0D01*
G01X2101686Y1552599D02*
G03X2105488Y1556402I-0J3803D01*
G01X2101686Y1552599D02*
X2100504D01*
X2096702Y1556402D02*
G03X2100504Y1552599I3802J-0D01*
G01Y1560204D02*
G03X2096702Y1556402I0J-3802D01*
G01X2100504Y1560204D02*
X2101686D01*
X2105488Y1556402D02*
G03X2101686Y1560204I-3802J-0D01*
G01X2109338Y1562307D02*
G03X2109338I-2181J0D01*
G01Y1578055D02*
G03X2109338I-2181J0D01*
G01X2094926Y1566410D02*
G03X2097584Y1567610I1058J1200D01*
G01X2094925Y1566410D02*
G03X2094793Y1566460I-132J-150D01*
G01X2093759*
X2092945Y1566797D02*
G03X2093759Y1566460I814J813D01*
G01X2092945Y1566797D02*
X2090591Y1569152D01*
G03X2090462Y1569210I-142J-141*
G01X2088962Y1570807D02*
G03X2090462Y1569210I1600J0D01*
G01X2092159Y1570907D02*
G03X2088962Y1570807I-1597J-100D01*
G01X2092159Y1570907D02*
G03X2092217Y1570778I199J13D01*
G01X2094176Y1568819*
G03X2094318Y1568760I142J141*
G01X2094793*
G03X2094926Y1568810I0J200*
G01X2097584Y1567610D02*
G03X2094926Y1568810I-1600J0D01*
G01X2101686Y1580158D02*
G03X2105488Y1583961I-0J3803D01*
G01X2101686Y1580158D02*
X2100504D01*
X2096702Y1583961D02*
G03X2100504Y1580158I3802J-0D01*
G01Y1587763D02*
G03X2096702Y1583961I0J-3802D01*
G01X2100504Y1587763D02*
X2101686D01*
X2105488Y1583961D02*
G03X2101686Y1587763I-3802J-0D01*
G01X2075362Y1552681D02*
G03X2075362I-1600J0D01*
G01X2026954Y1570763D02*
G03X2027412Y1571981I-1392J1218D01*
G01X2026954Y1570763D02*
G03X2026905Y1570631I151J-132D01*
X2026954Y1570499I200J0*
G01X2027412Y1569281D02*
G03X2026954Y1570499I-1850J0D01*
G01X2023712Y1569281D02*
G03X2027412I1850J0D01*
G01X2024170Y1570499D02*
G03X2023712Y1569281I1392J-1218D01*
G01X2024170Y1570499D02*
G03X2024219Y1570631I-151J132D01*
X2024170Y1570763I-200J0*
G01X2023712Y1571981D02*
G03X2024170Y1570763I1850J0D01*
G01X2027412Y1571981D02*
G03X2023712I-1850J0D01*
G01X2027204Y1577224D02*
G03X2027204I-2100J0D01*
G01X1945466Y1555220D02*
Y1546362D01*
X1945216Y1546112D02*
G03X1945466Y1546362I-0J250D01*
G01X1945216Y1546112D02*
X1934979D01*
X1934729Y1546362D02*
G03X1934979Y1546112I250J0D01*
G01X1934729Y1546362D02*
Y1555220D01*
X1934979Y1555470D02*
G03X1934729Y1555220I0J-250D01*
G01X1934979Y1555470D02*
X1945216D01*
X1945466Y1555220D02*
G03X1945216Y1555470I-250J0D01*
G01X1945859Y1597740D02*
Y1588094D01*
X1945609Y1587844D02*
G03X1945859Y1588094I0J250D01*
G01X1945609Y1587844D02*
X1934586D01*
X1934336Y1588094D02*
G03X1934586Y1587844I250J0D01*
G01X1934336Y1588094D02*
Y1597740D01*
X1934586Y1597990D02*
G03X1934336Y1597740I-0J-250D01*
G01X1934586Y1597990D02*
X1945609D01*
X1945859Y1597740D02*
G03X1945609Y1597990I-250J0D01*
G01X1929796Y1563016D02*
Y1555929D01*
X1929546Y1555679D02*
G03X1929796Y1555929I0J250D01*
G01X1929546Y1555679D02*
X1921565D01*
X1921315Y1555929D02*
G03X1921565Y1555679I250J-0D01*
G01X1921315Y1555929D02*
Y1563016D01*
X1921565Y1563266D02*
G03X1921315Y1563016I-0J-250D01*
G01X1921565Y1563266D02*
X1929546D01*
X1929796Y1563016D02*
G03X1929546Y1563266I-250J-0D01*
G01X2119601Y1605280D02*
X2122312D01*
X2119586Y1604830D02*
X2122312D01*
X2119517Y1604380D02*
X2122312D01*
X2119391Y1603930D02*
X2122312D01*
X2119201Y1603480D02*
X2122312D01*
X2118936Y1603030D02*
X2122312D01*
X2118574Y1602580D02*
X2122312D01*
X2118069Y1602130D02*
X2122312D01*
X2117284Y1601680D02*
X2122312D01*
X2114465Y1601230D02*
X2122312D01*
X2114015Y1600780D02*
X2122312D01*
X2113565Y1600330D02*
X2122312D01*
X2113115Y1599880D02*
X2122312D01*
X2112665Y1599430D02*
X2122312D01*
X2112215Y1598980D02*
X2122312D01*
X2111765Y1598530D02*
X2122312D01*
X2111315Y1598080D02*
X2122312D01*
X2110865Y1597630D02*
X2122312D01*
X2110415Y1597180D02*
X2122312D01*
X2109965Y1596730D02*
X2122312D01*
X2109515Y1596280D02*
X2122312D01*
X2109065Y1595830D02*
X2122312D01*
X2108615Y1595380D02*
X2122312D01*
X2108165Y1594930D02*
X2122312D01*
X2107715Y1594480D02*
X2122312D01*
X2107265Y1594030D02*
X2122312D01*
X2106815Y1593580D02*
X2122312D01*
X2106365Y1593130D02*
X2122312D01*
X2105915Y1592680D02*
X2122312D01*
X2105465Y1592230D02*
X2122312D01*
X2105015Y1591780D02*
X2122312D01*
X2104565Y1591330D02*
X2122312D01*
X2104115Y1590880D02*
X2122312D01*
X2103665Y1590430D02*
X2122312D01*
X2103215Y1589980D02*
X2122312D01*
X2102765Y1589530D02*
X2122312D01*
X2102315Y1589080D02*
X2122312D01*
X2101734Y1588630D02*
X2122312D01*
X2082711Y1588180D02*
X2122312D01*
X2116757Y1587730D02*
X2122312D01*
X2118108Y1587280D02*
X2122312D01*
X2118748Y1586830D02*
X2122312D01*
X2119187Y1586380D02*
X2122312D01*
X2119506Y1585930D02*
X2122312D01*
X2119739Y1585480D02*
X2122312D01*
X2119902Y1585030D02*
X2122312D01*
X2120005Y1584580D02*
X2122312D01*
X2120051Y1584130D02*
X2122312D01*
X2120045Y1583680D02*
X2122312D01*
X2119984Y1583230D02*
X2122312D01*
X2119867Y1582780D02*
X2122312D01*
X2119688Y1582330D02*
X2122312D01*
X2119435Y1581880D02*
X2122312D01*
X2119091Y1581430D02*
X2122312D01*
X2118614Y1580980D02*
X2122312D01*
X2117893Y1580530D02*
X2122312D01*
X2107968Y1580080D02*
X2122312D01*
X2108666Y1579630D02*
X2122312D01*
X2109025Y1579180D02*
X2122312D01*
X2109231Y1578730D02*
X2122312D01*
X2109326Y1578280D02*
X2122312D01*
X2109326Y1577830D02*
X2122312D01*
X2109231Y1577380D02*
X2122312D01*
X2109025Y1576930D02*
X2122312D01*
X2108665Y1576480D02*
X2122312D01*
X2107966Y1576030D02*
X2122312D01*
X2076912Y1575580D02*
X2122312D01*
X2076912Y1575130D02*
X2122312D01*
X2076912Y1574680D02*
X2122312D01*
X2076912Y1574230D02*
X2122312D01*
X2076912Y1573780D02*
X2122312D01*
X2076912Y1573330D02*
X2122312D01*
X2076912Y1572880D02*
X2122312D01*
X2076912Y1572430D02*
X2122312D01*
X2091650Y1571980D02*
X2122312D01*
X2091989Y1571530D02*
X2122312D01*
X2092138Y1571080D02*
X2122312D01*
X2092365Y1570630D02*
X2122312D01*
X2092815Y1570180D02*
X2122312D01*
X2093265Y1569730D02*
X2122312D01*
X2093715Y1569280D02*
X2122312D01*
X2097020Y1568830D02*
X2122312D01*
X2097387Y1568380D02*
X2122312D01*
X2097552Y1567930D02*
X2122312D01*
X2097579Y1567480D02*
X2122312D01*
X2097475Y1567030D02*
X2122312D01*
X2097208Y1566580D02*
X2122312D01*
X2096591Y1566130D02*
X2122312D01*
X2084933Y1565680D02*
X2122312D01*
X2085383Y1565230D02*
X2122312D01*
X2085833Y1564780D02*
X2122312D01*
X2107973Y1564330D02*
X2122312D01*
X2108668Y1563880D02*
X2122312D01*
X2109027Y1563430D02*
X2122312D01*
X2109231Y1562980D02*
X2122312D01*
X2109326Y1562530D02*
X2122312D01*
X2109326Y1562080D02*
X2122312D01*
X2109230Y1561630D02*
X2122312D01*
X2109024Y1561180D02*
X2122312D01*
X2108663Y1560730D02*
X2122312D01*
X2107961Y1560280D02*
X2122312D01*
X2117898Y1559830D02*
X2122312D01*
X2118617Y1559380D02*
X2122312D01*
X2119093Y1558930D02*
X2122312D01*
X2119437Y1558480D02*
X2122312D01*
X2119689Y1558030D02*
X2122312D01*
X2119868Y1557580D02*
X2122312D01*
X2119985Y1557130D02*
X2122312D01*
X2120045Y1556680D02*
X2122312D01*
X2120051Y1556230D02*
X2122312D01*
X2120004Y1555780D02*
X2122312D01*
X2119901Y1555330D02*
X2122312D01*
X2119738Y1554880D02*
X2122312D01*
X2119504Y1554430D02*
X2122312D01*
X2119184Y1553980D02*
X2122312D01*
X2118745Y1553530D02*
X2122312D01*
X2118104Y1553080D02*
X2122312D01*
X2116737Y1552630D02*
X2122312D01*
X2098433Y1552180D02*
X2122312D01*
X2098883Y1551730D02*
X2122312D01*
X2099333Y1551280D02*
X2122312D01*
X2099783Y1550830D02*
X2122312D01*
X2102774Y1550380D02*
X2122312D01*
X2104001Y1549930D02*
X2122312D01*
X2104471Y1549480D02*
X2122312D01*
X2104921Y1549030D02*
X2122312D01*
X2105371Y1548580D02*
X2122312D01*
X2105821Y1548130D02*
X2122312D01*
X2106271Y1547680D02*
X2122312D01*
X2106721Y1547230D02*
X2122312D01*
X2107171Y1546780D02*
X2122312D01*
X2107621Y1546330D02*
X2122312D01*
X2108071Y1545880D02*
X2122312D01*
X2108521Y1545430D02*
X2122312D01*
X2108971Y1544980D02*
X2122312D01*
X2109421Y1544530D02*
X2122312D01*
X2109871Y1544080D02*
X2122312D01*
X2110321Y1543630D02*
X2122312D01*
X2110771Y1543180D02*
X2122312D01*
X2111221Y1542730D02*
X2122312D01*
X2111671Y1542280D02*
X2122312D01*
X2112121Y1541830D02*
X2122312D01*
X2112571Y1541380D02*
X2122312D01*
X2113021Y1540930D02*
X2122312D01*
X2113471Y1540480D02*
X2122312D01*
X2113921Y1540030D02*
X2122312D01*
X2114371Y1539580D02*
X2122312D01*
X2114821Y1539130D02*
X2122312D01*
X2117290Y1538680D02*
X2122312D01*
X2118073Y1538230D02*
X2122312D01*
X2118576Y1537780D02*
X2122312D01*
X2118937Y1537330D02*
X2122312D01*
X2119202Y1536880D02*
X2122312D01*
X2119392Y1536430D02*
X2122312D01*
X2119518Y1535980D02*
X2122312D01*
X2119587Y1535530D02*
X2122312D01*
X2119601Y1535080D02*
X2122312D01*
X2119563Y1605730D02*
X2122302D01*
X2119563Y1534630D02*
X2122302D01*
X2119469Y1606180D02*
X2122244D01*
X2119469Y1534180D02*
X2122244D01*
X2119316Y1606630D02*
X2122130D01*
X2119315Y1533730D02*
X2122129D01*
X2119095Y1607080D02*
X2121956D01*
X2119093Y1533280D02*
X2121955D01*
X2118791Y1607530D02*
X2121711D01*
X2118789Y1532830D02*
X2121709D01*
X2118374Y1607980D02*
X2121378D01*
X2118372Y1532380D02*
X2121376D01*
X2117777Y1608430D02*
X2120922D01*
X2117772Y1531930D02*
X2120919D01*
X2116683Y1608880D02*
X2120252D01*
X2116673Y1531480D02*
X2120248D01*
X2116425Y1609330D02*
X2118537D01*
X2102170Y1552630D02*
X2114587D01*
X2102190Y1587730D02*
X2114567D01*
X2103326Y1580530D02*
X2113431D01*
X2103331Y1559830D02*
X2113426D01*
X2103537Y1553080D02*
X2113220D01*
X2103541Y1587280D02*
X2113216D01*
X2104047Y1580980D02*
X2112710D01*
X2104050Y1559380D02*
X2112707D01*
X2104178Y1553530D02*
X2112579D01*
X2104181Y1586830D02*
X2112576D01*
X2104524Y1581430D02*
X2112233D01*
X2104526Y1558930D02*
X2112231D01*
X2104617Y1553980D02*
X2112139D01*
X2104620Y1586380D02*
X2112137D01*
X2104869Y1581880D02*
X2111888D01*
X2104870Y1558480D02*
X2111887D01*
X2104937Y1554430D02*
X2111820D01*
X2104939Y1585930D02*
X2111818D01*
X2105121Y1582330D02*
X2111636D01*
X2105122Y1558030D02*
X2111635D01*
X2105171Y1554880D02*
X2111586D01*
X2105172Y1585480D02*
X2111585D01*
X2105300Y1582780D02*
X2111457D01*
X2105301Y1557580D02*
X2111456D01*
X2105334Y1555330D02*
X2111423D01*
X2105335Y1585030D02*
X2111422D01*
X2105417Y1583230D02*
X2111339D01*
X2105418Y1557130D02*
X2111339D01*
X2105437Y1555780D02*
X2111320D01*
X2105438Y1584580D02*
X2111319D01*
X2105478Y1583680D02*
X2111279D01*
X2105478Y1556680D02*
X2111279D01*
X2105484Y1556230D02*
X2111272D01*
X2105485Y1584130D02*
X2111272D01*
X2090333Y1560280D02*
X2106352D01*
X2076912Y1576030D02*
X2106347D01*
X2076912Y1580080D02*
X2106346D01*
X2086283Y1564330D02*
X2106341D01*
X2089883Y1560730D02*
X2105650D01*
X2076912Y1576480D02*
X2105648D01*
X2076912Y1579630D02*
X2105648D01*
X2086733Y1563880D02*
X2105645D01*
X2089433Y1561180D02*
X2105289D01*
X2076912Y1576930D02*
X2105288D01*
X2076912Y1579180D02*
X2105288D01*
X2087183Y1563430D02*
X2105287D01*
X2088983Y1561630D02*
X2105083D01*
X2076912Y1577380D02*
X2105083D01*
X2076912Y1578730D02*
X2105083D01*
X2087633Y1562980D02*
X2105082D01*
X2088533Y1562080D02*
X2104987D01*
X2076912Y1577830D02*
X2104987D01*
X2076912Y1578280D02*
X2104987D01*
X2088083Y1562530D02*
X2104987D01*
X2097983Y1552630D02*
X2100020D01*
X2082261Y1587730D02*
X2100000D01*
X2076912Y1580530D02*
X2098864D01*
X2090783Y1559830D02*
X2098859D01*
X2097533Y1553080D02*
X2098653D01*
X2081811Y1587280D02*
X2098649D01*
X2076912Y1580980D02*
X2098143D01*
X2091233Y1559380D02*
X2098140D01*
X2097083Y1553530D02*
X2098012D01*
X2081843Y1586830D02*
X2098009D01*
X2076912Y1581430D02*
X2097666D01*
X2091683Y1558930D02*
X2097664D01*
X2096633Y1553980D02*
X2097573D01*
X2082159Y1586380D02*
X2097570D01*
X2076912Y1581880D02*
X2097321D01*
X2092133Y1558480D02*
X2097320D01*
X2096183Y1554430D02*
X2097253D01*
X2082315Y1585930D02*
X2097251D01*
X2076915Y1582330D02*
X2097069D01*
X2092583Y1558030D02*
X2097068D01*
X2095733Y1554880D02*
X2097019D01*
X2082353Y1585480D02*
X2097018D01*
X2077311Y1582780D02*
X2096890D01*
X2093033Y1557580D02*
X2096889D01*
X2095283Y1555330D02*
X2096856D01*
X2082278Y1585030D02*
X2096855D01*
X2077761Y1583230D02*
X2096773D01*
X2093483Y1557130D02*
X2096772D01*
X2094833Y1555780D02*
X2096753D01*
X2082077Y1584580D02*
X2096752D01*
X2078211Y1583680D02*
X2096712D01*
X2093933Y1556680D02*
X2096712D01*
X2094383Y1556230D02*
X2096706D01*
X2081686Y1584130D02*
X2096705D01*
X2084483Y1566130D02*
X2095377D01*
X2094165Y1568830D02*
X2094948D01*
X2084033Y1566580D02*
X2093248D01*
X2083561Y1567030D02*
X2092713D01*
X2076970Y1567480D02*
X2092263D01*
X2076912Y1567930D02*
X2091813D01*
X2076912Y1568380D02*
X2091363D01*
X2076912Y1568830D02*
X2090913D01*
X2076912Y1569280D02*
X2090085D01*
X2076912Y1571980D02*
X2089473D01*
X2076912Y1569730D02*
X2089379D01*
X2076912Y1571530D02*
X2089134D01*
X2076912Y1570180D02*
X2089090D01*
X2076912Y1571080D02*
X2088985D01*
X2076912Y1570630D02*
X2088972D01*
X2078661Y1584130D02*
X2079322D01*
X2106673Y1531480D02*
X2114927D01*
X2107772Y1531930D02*
X2113828D01*
X2108372Y1532380D02*
X2113228D01*
X2108789Y1532830D02*
X2112811D01*
X2109093Y1533280D02*
X2112507D01*
X2109315Y1533730D02*
X2112285D01*
X2109469Y1534180D02*
X2112131D01*
X2109563Y1534630D02*
X2112037D01*
X2109518Y1535980D02*
X2112025D01*
X2109587Y1535530D02*
X2112013D01*
X2109601Y1535080D02*
X2111999D01*
X2109392Y1536430D02*
X2111581D01*
X2109202Y1536880D02*
X2111131D01*
X2108937Y1537330D02*
X2110681D01*
X2108576Y1537780D02*
X2110231D01*
X2108073Y1538230D02*
X2109781D01*
X2107290Y1538680D02*
X2109331D01*
X2097650Y1539130D02*
X2108881D01*
X2097650Y1539580D02*
X2108431D01*
X2097650Y1540030D02*
X2107981D01*
X2097650Y1540480D02*
X2107531D01*
X2097650Y1540930D02*
X2107081D01*
X2097650Y1541380D02*
X2106631D01*
X2097650Y1541830D02*
X2106181D01*
X2097650Y1542280D02*
X2105731D01*
X2097641Y1542730D02*
X2105281D01*
X2096673Y1531480D02*
X2104927D01*
X2097537Y1543180D02*
X2104831D01*
X2097297Y1543630D02*
X2104381D01*
X2097650Y1538680D02*
X2104310D01*
X2096880Y1544080D02*
X2103931D01*
X2097772Y1531930D02*
X2103828D01*
X2098073Y1538230D02*
X2103527D01*
X2096430Y1544530D02*
X2103481D01*
X2098372Y1532380D02*
X2103228D01*
X2095980Y1544980D02*
X2103031D01*
X2098576Y1537780D02*
X2103024D01*
X2098789Y1532830D02*
X2102811D01*
X2098937Y1537330D02*
X2102662D01*
X2095530Y1545430D02*
X2102581D01*
X2099093Y1533280D02*
X2102507D01*
X2099202Y1536880D02*
X2102398D01*
X2099315Y1533730D02*
X2102285D01*
X2099392Y1536430D02*
X2102208D01*
X2095080Y1545880D02*
X2102131D01*
X2099469Y1534180D02*
X2102131D01*
X2099518Y1535980D02*
X2102082D01*
X2099563Y1534630D02*
X2102037D01*
X2099587Y1535530D02*
X2102013D01*
X2099601Y1535080D02*
X2101999D01*
X2094630Y1546330D02*
X2098586D01*
X2094180Y1546780D02*
X2097894D01*
X2093730Y1547230D02*
X2097443D01*
X2093280Y1547680D02*
X2096993D01*
X2092830Y1548130D02*
X2096543D01*
X2092380Y1548580D02*
X2096093D01*
X2091930Y1549030D02*
X2095643D01*
X2091480Y1549480D02*
X2095193D01*
X2091030Y1549930D02*
X2094743D01*
X2090580Y1550380D02*
X2094293D01*
X2090130Y1550830D02*
X2093843D01*
X2089680Y1551280D02*
X2093393D01*
X2089230Y1551730D02*
X2092943D01*
X2088780Y1552180D02*
X2092493D01*
X2088330Y1552630D02*
X2092043D01*
X2087880Y1553080D02*
X2091593D01*
X2087430Y1553530D02*
X2091143D01*
X2086980Y1553980D02*
X2090693D01*
X2086530Y1554430D02*
X2090243D01*
X2086080Y1554880D02*
X2089793D01*
X2085630Y1555330D02*
X2089343D01*
X2085180Y1555780D02*
X2088893D01*
X2084730Y1556230D02*
X2088443D01*
X2084280Y1556680D02*
X2087993D01*
X2083830Y1557130D02*
X2087543D01*
X2083380Y1557580D02*
X2087093D01*
X2082930Y1558030D02*
X2086643D01*
X2082480Y1558480D02*
X2086193D01*
X2082030Y1558930D02*
X2085743D01*
X2081580Y1559380D02*
X2085293D01*
X2081130Y1559830D02*
X2084843D01*
X2080680Y1560280D02*
X2084393D01*
X2080230Y1560730D02*
X2083943D01*
X2079780Y1561180D02*
X2083493D01*
X2079330Y1561630D02*
X2083043D01*
X2078880Y1562080D02*
X2082593D01*
X2078430Y1562530D02*
X2082143D01*
X2077991Y1562980D02*
X2081693D01*
X2086673Y1531480D02*
X2094927D01*
X2081228Y1541380D02*
X2093950D01*
X2081678Y1540930D02*
X2093950D01*
X2082128Y1540480D02*
X2093950D01*
X2082578Y1540030D02*
X2093950D01*
X2083028Y1539580D02*
X2093950D01*
X2083478Y1539130D02*
X2093950D01*
X2087290Y1538680D02*
X2093950D01*
X2080778Y1541830D02*
X2093897D01*
X2087772Y1531930D02*
X2093828D01*
X2088073Y1538230D02*
X2093527D01*
X2080328Y1542280D02*
X2093447D01*
X2088372Y1532380D02*
X2093228D01*
X2088576Y1537780D02*
X2093024D01*
X2079878Y1542730D02*
X2092997D01*
X2088789Y1532830D02*
X2092811D01*
X2088937Y1537330D02*
X2092662D01*
X2079428Y1543180D02*
X2092547D01*
X2089093Y1533280D02*
X2092507D01*
X2089202Y1536880D02*
X2092398D01*
X2089315Y1533730D02*
X2092285D01*
X2089392Y1536430D02*
X2092208D01*
X2089469Y1534180D02*
X2092131D01*
X2078978Y1543630D02*
X2092097D01*
X2089518Y1535980D02*
X2092082D01*
X2089563Y1534630D02*
X2092037D01*
X2089587Y1535530D02*
X2092013D01*
X2089601Y1535080D02*
X2091999D01*
X2078528Y1544080D02*
X2091647D01*
X2078078Y1544530D02*
X2091197D01*
X2077628Y1544980D02*
X2090747D01*
X2077178Y1545430D02*
X2090297D01*
X2076728Y1545880D02*
X2089847D01*
X2076278Y1546330D02*
X2089397D01*
X2075828Y1546780D02*
X2088947D01*
X2075378Y1547230D02*
X2088497D01*
X2074928Y1547680D02*
X2088047D01*
X2074478Y1548130D02*
X2087597D01*
X2074028Y1548580D02*
X2087147D01*
X2073578Y1549030D02*
X2086697D01*
X2073128Y1549480D02*
X2086247D01*
X2072678Y1549930D02*
X2085797D01*
X2072228Y1550380D02*
X2085347D01*
X2071778Y1550830D02*
X2084897D01*
X2074534Y1551280D02*
X2084447D01*
X2083928Y1538680D02*
X2084310D01*
X2075048Y1551730D02*
X2083997D01*
X2075281Y1552180D02*
X2083547D01*
X2075361Y1552630D02*
X2083097D01*
X2075311Y1553080D02*
X2082647D01*
X2075118Y1553530D02*
X2082197D01*
X2074697Y1553980D02*
X2081747D01*
X2070512Y1554430D02*
X2081297D01*
X2070512Y1554880D02*
X2080847D01*
X2070512Y1555330D02*
X2080397D01*
X2070512Y1555780D02*
X2079947D01*
X2070512Y1556230D02*
X2079497D01*
X2070512Y1556680D02*
X2079047D01*
X2070512Y1557130D02*
X2078597D01*
X2074804Y1557580D02*
X2078147D01*
X2075159Y1558030D02*
X2077697D01*
X2075317Y1558480D02*
X2077247D01*
X2075339Y1558930D02*
X2076797D01*
X2075229Y1559380D02*
X2076347D01*
X2074953Y1559830D02*
X2075897D01*
X2071328Y1551280D02*
X2072990D01*
X2070512Y1553980D02*
X2072827D01*
X2070512Y1557580D02*
X2072688D01*
X2070512Y1559830D02*
X2072538D01*
X2070878Y1551730D02*
X2072475D01*
X2070512Y1553530D02*
X2072406D01*
X2070512Y1558030D02*
X2072333D01*
X2070512Y1559380D02*
X2072263D01*
X2070512Y1552180D02*
X2072242D01*
X2070512Y1560280D02*
X2072240D01*
X2070512Y1553080D02*
X2072212D01*
X2070512Y1558480D02*
X2072174D01*
X2070512Y1552630D02*
X2072163D01*
X2070512Y1558930D02*
X2072153D01*
X2070512Y1560730D02*
X2071398D01*
X2070512Y1561180D02*
X2071046D01*
X2070628Y1561630D02*
X2070796D01*
X2076673Y1531480D02*
X2084927D01*
X2077772Y1531930D02*
X2083828D01*
X2078372Y1532380D02*
X2083228D01*
X2078789Y1532830D02*
X2082811D01*
X2079093Y1533280D02*
X2082507D01*
X2079202Y1536880D02*
X2082380D01*
X2079315Y1533730D02*
X2082285D01*
X2079392Y1536430D02*
X2082208D01*
X2079469Y1534180D02*
X2082131D01*
X2079518Y1535980D02*
X2082082D01*
X2079563Y1534630D02*
X2082037D01*
X2078937Y1537330D02*
X2082025D01*
X2079587Y1535530D02*
X2082013D01*
X2079601Y1535080D02*
X2081999D01*
X2078576Y1537780D02*
X2081575D01*
X2078073Y1538230D02*
X2081125D01*
X2077290Y1538680D02*
X2080675D01*
X2073478Y1539130D02*
X2080225D01*
X2073028Y1539580D02*
X2079775D01*
X2072578Y1540030D02*
X2079325D01*
X2072128Y1540480D02*
X2078875D01*
X2071678Y1540930D02*
X2078425D01*
X2071228Y1541380D02*
X2077975D01*
X2070778Y1541830D02*
X2077525D01*
X2070328Y1542280D02*
X2077075D01*
X2069878Y1542730D02*
X2076625D01*
X2069428Y1543180D02*
X2076175D01*
X2068978Y1543630D02*
X2075725D01*
X2068712Y1544080D02*
X2075275D01*
X2068712Y1544530D02*
X2074825D01*
X2068712Y1544980D02*
X2074375D01*
X2073928Y1538680D02*
X2074310D01*
X2068712Y1545430D02*
X2073925D01*
X2068712Y1545880D02*
X2073475D01*
X2068712Y1546330D02*
X2073025D01*
X2068712Y1546780D02*
X2072575D01*
X2068712Y1547230D02*
X2072125D01*
X2068712Y1547680D02*
X2071675D01*
X2068712Y1548130D02*
X2071225D01*
X2068712Y1548580D02*
X2070775D01*
X2068712Y1549030D02*
X2070325D01*
X2068712Y1549480D02*
X2069875D01*
X2068712Y1549930D02*
X2069425D01*
X2070512Y1563430D02*
X2071319D01*
X2070512Y1563880D02*
X2071046D01*
X2070512Y1562980D02*
X2071045D01*
X2070628Y1564330D02*
X2070796D01*
X2070633Y1562530D02*
X2070791D01*
X2056673Y1531480D02*
X2064927D01*
X2056950Y1563880D02*
X2064650D01*
X2056950Y1563430D02*
X2064650D01*
X2056950Y1562980D02*
X2064650D01*
X2056950Y1562530D02*
X2064650D01*
X2056950Y1562080D02*
X2064650D01*
X2056950Y1561630D02*
X2064650D01*
X2056950Y1561180D02*
X2064650D01*
X2056950Y1560730D02*
X2064650D01*
X2056950Y1560280D02*
X2064650D01*
X2056950Y1559830D02*
X2064650D01*
X2056950Y1559380D02*
X2064650D01*
X2056950Y1558930D02*
X2064650D01*
X2056950Y1558480D02*
X2064650D01*
X2056950Y1558030D02*
X2064650D01*
X2056950Y1557580D02*
X2064650D01*
X2056950Y1557130D02*
X2064650D01*
X2056950Y1556680D02*
X2064650D01*
X2056950Y1556230D02*
X2064650D01*
X2056950Y1555780D02*
X2064650D01*
X2056950Y1555330D02*
X2064650D01*
X2056950Y1554880D02*
X2064650D01*
X2056950Y1554430D02*
X2064650D01*
X2056950Y1553980D02*
X2064650D01*
X2056950Y1553530D02*
X2064650D01*
X2056950Y1553080D02*
X2064650D01*
X2056950Y1552630D02*
X2064650D01*
X2056950Y1552180D02*
X2064650D01*
X2056950Y1551730D02*
X2064650D01*
X2056950Y1551280D02*
X2064650D01*
X2056950Y1550830D02*
X2064650D01*
X2056950Y1550380D02*
X2064650D01*
X2056950Y1549930D02*
X2064650D01*
X2056950Y1549480D02*
X2064650D01*
X2056950Y1549030D02*
X2064650D01*
X2056950Y1548580D02*
X2064650D01*
X2056950Y1548130D02*
X2064650D01*
X2056950Y1547680D02*
X2064650D01*
X2056950Y1547230D02*
X2064650D01*
X2056950Y1546780D02*
X2064650D01*
X2056950Y1546330D02*
X2064650D01*
X2056950Y1545880D02*
X2064650D01*
X2056950Y1545430D02*
X2064650D01*
X2056950Y1544980D02*
X2064650D01*
X2056950Y1544530D02*
X2064650D01*
X2056950Y1544080D02*
X2064650D01*
X2056950Y1543630D02*
X2064650D01*
X2056950Y1543180D02*
X2064650D01*
X2056950Y1542730D02*
X2064650D01*
X2056950Y1542280D02*
X2064650D01*
X2056950Y1541830D02*
X2064650D01*
X2056950Y1541380D02*
X2064650D01*
X2056950Y1540930D02*
X2064650D01*
X2056950Y1540480D02*
X2064650D01*
X2056950Y1540030D02*
X2064650D01*
X2056950Y1539580D02*
X2064650D01*
X2056950Y1539130D02*
X2064650D01*
X2057290Y1538680D02*
X2064310D01*
X2056950Y1564330D02*
X2064287D01*
X2056950Y1564780D02*
X2063837D01*
X2057772Y1531930D02*
X2063828D01*
X2058073Y1538230D02*
X2063527D01*
X2056950Y1565230D02*
X2063387D01*
X2058372Y1532380D02*
X2063228D01*
X2058576Y1537780D02*
X2063024D01*
X2056950Y1565680D02*
X2062937D01*
X2058789Y1532830D02*
X2062811D01*
X2058937Y1537330D02*
X2062662D01*
X2059093Y1533280D02*
X2062507D01*
X2056950Y1566130D02*
X2062487D01*
X2059202Y1536880D02*
X2062398D01*
X2059315Y1533730D02*
X2062285D01*
X2059392Y1536430D02*
X2062208D01*
X2059469Y1534180D02*
X2062131D01*
X2059518Y1535980D02*
X2062082D01*
X2059563Y1534630D02*
X2062037D01*
X2056950Y1566580D02*
X2062037D01*
X2059587Y1535530D02*
X2062013D01*
X2059601Y1535080D02*
X2061999D01*
X2056950Y1567030D02*
X2061587D01*
X2056950Y1567480D02*
X2061137D01*
X2056950Y1567930D02*
X2060687D01*
X2056950Y1568380D02*
X2060237D01*
X2056950Y1568830D02*
X2059787D01*
X2056950Y1569280D02*
X2059337D01*
X2056950Y1569730D02*
X2058887D01*
X2056950Y1570180D02*
X2058437D01*
X2056950Y1570630D02*
X2057987D01*
X2056950Y1571080D02*
X2057537D01*
X2046673Y1531480D02*
X2054927D01*
X2047412Y1571530D02*
X2054650D01*
X2047412Y1571080D02*
X2054650D01*
X2047412Y1570630D02*
X2054650D01*
X2047412Y1570180D02*
X2054650D01*
X2047412Y1569730D02*
X2054650D01*
X2047412Y1569280D02*
X2054650D01*
X2047412Y1568830D02*
X2054650D01*
X2047412Y1568380D02*
X2054650D01*
X2047412Y1567930D02*
X2054650D01*
X2047412Y1567480D02*
X2054650D01*
X2047412Y1567030D02*
X2054650D01*
X2047412Y1566580D02*
X2054650D01*
X2047412Y1566130D02*
X2054650D01*
X2047412Y1565680D02*
X2054650D01*
X2047412Y1565230D02*
X2054650D01*
X2047412Y1564780D02*
X2054650D01*
X2047412Y1564330D02*
X2054650D01*
X2047412Y1563880D02*
X2054650D01*
X2047412Y1563430D02*
X2054650D01*
X2047412Y1562980D02*
X2054650D01*
X2047412Y1562530D02*
X2054650D01*
X2047412Y1562080D02*
X2054650D01*
X2047412Y1561630D02*
X2054650D01*
X2047412Y1561180D02*
X2054650D01*
X2047412Y1560730D02*
X2054650D01*
X2047412Y1560280D02*
X2054650D01*
X2047412Y1559830D02*
X2054650D01*
X2047412Y1559380D02*
X2054650D01*
X2047412Y1558930D02*
X2054650D01*
X2047412Y1558480D02*
X2054650D01*
X2047412Y1558030D02*
X2054650D01*
X2047412Y1557580D02*
X2054650D01*
X2047412Y1557130D02*
X2054650D01*
X2047412Y1556680D02*
X2054650D01*
X2047412Y1556230D02*
X2054650D01*
X2047412Y1555780D02*
X2054650D01*
X2047412Y1555330D02*
X2054650D01*
X2047412Y1554880D02*
X2054650D01*
X2047412Y1554430D02*
X2054650D01*
X2047412Y1553980D02*
X2054650D01*
X2047412Y1553530D02*
X2054650D01*
X2047412Y1553080D02*
X2054650D01*
X2047412Y1552630D02*
X2054650D01*
X2047412Y1552180D02*
X2054650D01*
X2047412Y1551730D02*
X2054650D01*
X2047412Y1551280D02*
X2054650D01*
X2047412Y1550830D02*
X2054650D01*
X2047412Y1550380D02*
X2054650D01*
X2047412Y1549930D02*
X2054650D01*
X2047412Y1549480D02*
X2054650D01*
X2047412Y1549030D02*
X2054650D01*
X2047412Y1548580D02*
X2054650D01*
X2047412Y1548130D02*
X2054650D01*
X2047412Y1547680D02*
X2054650D01*
X2047412Y1547230D02*
X2054650D01*
X2047412Y1546780D02*
X2054650D01*
X2047412Y1546330D02*
X2054650D01*
X2047412Y1545880D02*
X2054650D01*
X2047412Y1545430D02*
X2054650D01*
X2047412Y1544980D02*
X2054650D01*
X2047412Y1544530D02*
X2054650D01*
X2047412Y1544080D02*
X2054650D01*
X2047412Y1543630D02*
X2054650D01*
X2047412Y1543180D02*
X2054650D01*
X2047412Y1542730D02*
X2054650D01*
X2047412Y1542280D02*
X2054650D01*
X2047412Y1541830D02*
X2054650D01*
X2047412Y1541380D02*
X2054650D01*
X2047412Y1540930D02*
X2054650D01*
X2047412Y1540480D02*
X2054650D01*
X2047412Y1540030D02*
X2054650D01*
X2047412Y1539580D02*
X2054650D01*
X2047412Y1539130D02*
X2054650D01*
X2047412Y1571980D02*
X2054537D01*
X2047425Y1538680D02*
X2054310D01*
X2047412Y1572430D02*
X2054087D01*
X2047772Y1531930D02*
X2053828D01*
X2047412Y1572880D02*
X2053637D01*
X2048073Y1538230D02*
X2053527D01*
X2048372Y1532380D02*
X2053228D01*
X2047412Y1573330D02*
X2053187D01*
X2048576Y1537780D02*
X2053024D01*
X2048789Y1532830D02*
X2052811D01*
X2047412Y1573780D02*
X2052737D01*
X2048937Y1537330D02*
X2052662D01*
X2049093Y1533280D02*
X2052507D01*
X2049202Y1536880D02*
X2052398D01*
X2047412Y1574230D02*
X2052287D01*
X2049315Y1533730D02*
X2052285D01*
X2049392Y1536430D02*
X2052208D01*
X2049469Y1534180D02*
X2052131D01*
X2049518Y1535980D02*
X2052082D01*
X2049563Y1534630D02*
X2052037D01*
X2049587Y1535530D02*
X2052013D01*
X2049601Y1535080D02*
X2051999D01*
X2047412Y1574680D02*
X2051837D01*
X2047412Y1575130D02*
X2051387D01*
X2047412Y1575580D02*
X2050937D01*
X2047412Y1576030D02*
X2050487D01*
X2047412Y1576480D02*
X2050037D01*
X2047412Y1576930D02*
X2049587D01*
X2047412Y1577380D02*
X2049137D01*
X2047412Y1577830D02*
X2048687D01*
X2047412Y1578280D02*
X2048237D01*
X2047444Y1578730D02*
X2047787D01*
X2043667Y1578280D02*
X2045112D01*
X2043923Y1577830D02*
X2045112D01*
X2044018Y1577380D02*
X2045112D01*
X2025995Y1573780D02*
X2045112D01*
X2026828Y1573330D02*
X2045112D01*
X2027179Y1572880D02*
X2045112D01*
X2027357Y1572430D02*
X2045112D01*
X2027412Y1571980D02*
X2045112D01*
X2027356Y1571530D02*
X2045112D01*
X2027178Y1571080D02*
X2045112D01*
X2026905Y1570630D02*
X2045112D01*
X2027179Y1570180D02*
X2045112D01*
X2027357Y1569730D02*
X2045112D01*
X2027412Y1569280D02*
X2045112D01*
X2027356Y1568830D02*
X2045112D01*
X2027178Y1568380D02*
X2045112D01*
X2026825Y1567930D02*
X2045112D01*
X2025984Y1567480D02*
X2045112D01*
X1998228Y1567030D02*
X2045112D01*
X1998678Y1566580D02*
X2045112D01*
X1999128Y1566130D02*
X2045112D01*
X1999578Y1565680D02*
X2045112D01*
X2000028Y1565230D02*
X2045112D01*
X2000478Y1564780D02*
X2045112D01*
X2000928Y1564330D02*
X2045112D01*
X2001378Y1563880D02*
X2045112D01*
X2002358Y1563430D02*
X2045112D01*
X2002895Y1562980D02*
X2045112D01*
X2003136Y1562530D02*
X2045112D01*
X2003225Y1562080D02*
X2045112D01*
X2003628Y1561630D02*
X2045112D01*
X2004078Y1561180D02*
X2045112D01*
X2004528Y1560730D02*
X2045112D01*
X2004978Y1560280D02*
X2045112D01*
X2005428Y1559830D02*
X2045112D01*
X2005878Y1559380D02*
X2045112D01*
X2006328Y1558930D02*
X2045112D01*
X2006778Y1558480D02*
X2045112D01*
X2007228Y1558030D02*
X2045112D01*
X2007678Y1557580D02*
X2045112D01*
X2008128Y1557130D02*
X2045112D01*
X2008578Y1556680D02*
X2045112D01*
X2009028Y1556230D02*
X2045112D01*
X2009478Y1555780D02*
X2045112D01*
X2009928Y1555330D02*
X2045112D01*
X2010378Y1554880D02*
X2045112D01*
X2010828Y1554430D02*
X2045112D01*
X2011278Y1553980D02*
X2045112D01*
X2011728Y1553530D02*
X2045112D01*
X2012178Y1553080D02*
X2045112D01*
X2012628Y1552630D02*
X2045112D01*
X2013078Y1552180D02*
X2045112D01*
X2013528Y1551730D02*
X2045112D01*
X2013978Y1551280D02*
X2045112D01*
X2014428Y1550830D02*
X2045112D01*
X2014878Y1550380D02*
X2045112D01*
X2015328Y1549930D02*
X2045112D01*
X2015778Y1549480D02*
X2045112D01*
X2016228Y1549030D02*
X2045112D01*
X2016678Y1548580D02*
X2045112D01*
X2017128Y1548130D02*
X2045112D01*
X2017578Y1547680D02*
X2045112D01*
X2018028Y1547230D02*
X2045112D01*
X2018478Y1546780D02*
X2045112D01*
X2018928Y1546330D02*
X2045112D01*
X2019378Y1545880D02*
X2045112D01*
X2019828Y1545430D02*
X2045112D01*
X2020278Y1544980D02*
X2045112D01*
X2020728Y1544530D02*
X2045112D01*
X2021178Y1544080D02*
X2045112D01*
X2021628Y1543630D02*
X2045112D01*
X2022078Y1543180D02*
X2045112D01*
X2022528Y1542730D02*
X2045112D01*
X2022978Y1542280D02*
X2045112D01*
X2030672Y1541830D02*
X2045112D01*
X2031228Y1541380D02*
X2045112D01*
X2031678Y1540930D02*
X2045112D01*
X2032128Y1540480D02*
X2045112D01*
X2032578Y1540030D02*
X2045112D01*
X2033028Y1539580D02*
X2045112D01*
X2033478Y1539130D02*
X2045112D01*
X2043089Y1578730D02*
X2045080D01*
X2036673Y1531480D02*
X2044927D01*
X2025869Y1579180D02*
X2044637D01*
X2037290Y1538680D02*
X2044310D01*
X1988937Y1579630D02*
X2044187D01*
X2037772Y1531930D02*
X2043828D01*
X1989387Y1580080D02*
X2043737D01*
X2038073Y1538230D02*
X2043527D01*
X1989837Y1580530D02*
X2043287D01*
X2038372Y1532380D02*
X2043228D01*
X1991028Y1574230D02*
X2043226D01*
X2038576Y1537780D02*
X2043024D01*
X1990287Y1580980D02*
X2042837D01*
X1990575Y1574680D02*
X2042822D01*
X2038789Y1532830D02*
X2042811D01*
X2038937Y1537330D02*
X2042662D01*
X2025255Y1575130D02*
X2042638D01*
X2026410Y1575580D02*
X2042564D01*
X2039093Y1533280D02*
X2042507D01*
X2039202Y1536880D02*
X2042398D01*
X1990737Y1581430D02*
X2042387D01*
X2039315Y1533730D02*
X2042285D01*
X2039392Y1536430D02*
X2042208D01*
X2039469Y1534180D02*
X2042131D01*
X2039518Y1535980D02*
X2042082D01*
X2039563Y1534630D02*
X2042037D01*
X2039587Y1535530D02*
X2042013D01*
X2039601Y1535080D02*
X2041999D01*
X1991187Y1581880D02*
X2041937D01*
X2026568Y1578730D02*
X2041754D01*
X1991637Y1582330D02*
X2041487D01*
X2026831Y1576030D02*
X2041418D01*
X2026919Y1578280D02*
X2041176D01*
X1992087Y1582780D02*
X2041037D01*
X2027067Y1576480D02*
X2041034D01*
X2027114Y1577830D02*
X2040921D01*
X2027183Y1576930D02*
X2040860D01*
X2027198Y1577380D02*
X2040825D01*
X1992537Y1583230D02*
X2040587D01*
X1992987Y1583680D02*
X2039505D01*
X2033928Y1538680D02*
X2034310D01*
X1997778Y1567480D02*
X2025140D01*
X1991478Y1573780D02*
X2025129D01*
X1986386Y1575130D02*
X2024952D01*
X1988487Y1579180D02*
X2024338D01*
X1997328Y1567930D02*
X2024298D01*
X1991928Y1573330D02*
X2024296D01*
X1994628Y1570630D02*
X2024219D01*
X1994178Y1571080D02*
X2023946D01*
X1996878Y1568380D02*
X2023946D01*
X1992378Y1572880D02*
X2023945D01*
X1995078Y1570180D02*
X2023945D01*
X1986478Y1575580D02*
X2023798D01*
X1993728Y1571530D02*
X2023768D01*
X1996428Y1568830D02*
X2023768D01*
X1992828Y1572430D02*
X2023767D01*
X1995528Y1569730D02*
X2023767D01*
X1993278Y1571980D02*
X2023712D01*
X1995978Y1569280D02*
X2023712D01*
X1988037Y1578730D02*
X2023639D01*
X1986473Y1576030D02*
X2023376D01*
X1987587Y1578280D02*
X2023288D01*
X1986334Y1576480D02*
X2023140D01*
X1987137Y1577830D02*
X2023093D01*
X1986237Y1576930D02*
X2023024D01*
X1986687Y1577380D02*
X2023009D01*
X2106425Y1609330D02*
X2115174D01*
X2106683Y1608880D02*
X2114916D01*
X2107777Y1608430D02*
X2113823D01*
X2108374Y1607980D02*
X2113225D01*
X2108791Y1607530D02*
X2112809D01*
X2109095Y1607080D02*
X2112505D01*
X2109316Y1606630D02*
X2112284D01*
X2109469Y1606180D02*
X2112131D01*
X2109517Y1604380D02*
X2112083D01*
X2109563Y1605730D02*
X2112037D01*
X2109586Y1604830D02*
X2112013D01*
X2109601Y1605280D02*
X2111998D01*
X2109391Y1603930D02*
X2111932D01*
X2109201Y1603480D02*
X2111482D01*
X2108936Y1603030D02*
X2111032D01*
X2108574Y1602580D02*
X2110582D01*
X2108069Y1602130D02*
X2110132D01*
X2107284Y1601680D02*
X2109682D01*
X2093475Y1601230D02*
X2109232D01*
X2093025Y1600780D02*
X2108782D01*
X2092575Y1600330D02*
X2108332D01*
X2092125Y1599880D02*
X2107882D01*
X2091675Y1599430D02*
X2107432D01*
X2091225Y1598980D02*
X2106982D01*
X2090775Y1598530D02*
X2106532D01*
X2090325Y1598080D02*
X2106082D01*
X2089875Y1597630D02*
X2105632D01*
X2089425Y1597180D02*
X2105182D01*
X2096425Y1609330D02*
X2105174D01*
X2096683Y1608880D02*
X2104916D01*
X2088975Y1596730D02*
X2104732D01*
X2097284Y1601680D02*
X2104316D01*
X2088525Y1596280D02*
X2104282D01*
X2088075Y1595830D02*
X2103832D01*
X2097777Y1608430D02*
X2103823D01*
X2098069Y1602130D02*
X2103530D01*
X2087625Y1595380D02*
X2103382D01*
X2098374Y1607980D02*
X2103225D01*
X2098574Y1602580D02*
X2103026D01*
X2087175Y1594930D02*
X2102932D01*
X2098791Y1607530D02*
X2102809D01*
X2098936Y1603030D02*
X2102664D01*
X2099095Y1607080D02*
X2102505D01*
X2041287Y1594480D02*
X2102482D01*
X2099201Y1603480D02*
X2102399D01*
X2099316Y1606630D02*
X2102284D01*
X2099391Y1603930D02*
X2102209D01*
X2099469Y1606180D02*
X2102131D01*
X2099517Y1604380D02*
X2102083D01*
X2099563Y1605730D02*
X2102037D01*
X2041440Y1594030D02*
X2102032D01*
X2099586Y1604830D02*
X2102013D01*
X2099601Y1605280D02*
X2101998D01*
X2041890Y1593580D02*
X2101582D01*
X2042340Y1593130D02*
X2101132D01*
X2042790Y1592680D02*
X2100682D01*
X2043240Y1592230D02*
X2100232D01*
X2093925Y1601680D02*
X2094316D01*
X2043690Y1591780D02*
X2081112D01*
X2044140Y1591330D02*
X2080629D01*
X2044590Y1590880D02*
X2080179D01*
X2045040Y1590430D02*
X2079729D01*
X2045490Y1589980D02*
X2079279D01*
X2045940Y1589530D02*
X2078829D01*
X2046390Y1589080D02*
X2078379D01*
X2046840Y1588630D02*
X2077929D01*
X2047290Y1588180D02*
X2077479D01*
X2047740Y1587730D02*
X2077029D01*
X2048190Y1587280D02*
X2076579D01*
X2048640Y1586830D02*
X2076129D01*
X2049090Y1586380D02*
X2075679D01*
X2049540Y1585930D02*
X2075229D01*
X2049990Y1585480D02*
X2074779D01*
X2050440Y1585030D02*
X2074329D01*
X2050890Y1584580D02*
X2073879D01*
X2051340Y1584130D02*
X2073495D01*
X2051790Y1583680D02*
X2073290D01*
X2052240Y1583230D02*
X2073214D01*
X2052690Y1582780D02*
X2073212D01*
X2053140Y1582330D02*
X2073212D01*
X2053590Y1581880D02*
X2073212D01*
X2054040Y1581430D02*
X2073212D01*
X2054490Y1580980D02*
X2073212D01*
X2054940Y1580530D02*
X2073212D01*
X2055390Y1580080D02*
X2073212D01*
X2055840Y1579630D02*
X2073212D01*
X2056290Y1579180D02*
X2073212D01*
X2056740Y1578730D02*
X2073212D01*
X2057190Y1578280D02*
X2073212D01*
X2057640Y1577830D02*
X2073212D01*
X2058090Y1577380D02*
X2073212D01*
X2058540Y1576930D02*
X2073212D01*
X2058990Y1576480D02*
X2073212D01*
X2059440Y1576030D02*
X2073212D01*
X2059890Y1575580D02*
X2073212D01*
X2060340Y1575130D02*
X2073212D01*
X2060790Y1574680D02*
X2073212D01*
X2061240Y1574230D02*
X2073212D01*
X2061690Y1573780D02*
X2073212D01*
X2062140Y1573330D02*
X2073212D01*
X2062590Y1572880D02*
X2073212D01*
X2063040Y1572430D02*
X2073212D01*
X2063490Y1571980D02*
X2073212D01*
X2063940Y1571530D02*
X2073212D01*
X2064390Y1571080D02*
X2073212D01*
X2064840Y1570630D02*
X2073212D01*
X2065290Y1570180D02*
X2073212D01*
X2065740Y1569730D02*
X2073212D01*
X2066190Y1569280D02*
X2073212D01*
X2066640Y1568830D02*
X2073212D01*
X2067090Y1568380D02*
X2073212D01*
X2067540Y1567930D02*
X2073185D01*
X2067990Y1567480D02*
X2072744D01*
X2068440Y1567030D02*
X2072294D01*
X2068890Y1566580D02*
X2071844D01*
X2069340Y1566130D02*
X2071394D01*
X2069790Y1565680D02*
X2071045D01*
X2070235Y1565230D02*
X2070867D01*
X2070557Y1564780D02*
X2070684D01*
X2016673Y1531480D02*
X2024927D01*
X2017772Y1531930D02*
X2023828D01*
X2018372Y1532380D02*
X2023228D01*
X2018789Y1532830D02*
X2022811D01*
X2019093Y1533280D02*
X2022507D01*
X2019202Y1536880D02*
X2022380D01*
X2019315Y1533730D02*
X2022285D01*
X2019392Y1536430D02*
X2022208D01*
X2019469Y1534180D02*
X2022131D01*
X2019518Y1535980D02*
X2022082D01*
X2019563Y1534630D02*
X2022037D01*
X2018937Y1537330D02*
X2022025D01*
X2019587Y1535530D02*
X2022013D01*
X2019601Y1535080D02*
X2021999D01*
X2018576Y1537780D02*
X2021575D01*
X2018073Y1538230D02*
X2021125D01*
X2017290Y1538680D02*
X2020675D01*
X2016950Y1539130D02*
X2020225D01*
X2016942Y1539580D02*
X2019775D01*
X2016789Y1540030D02*
X2019325D01*
X2016390Y1540480D02*
X2018875D01*
X2015940Y1540930D02*
X2018425D01*
X2015490Y1541380D02*
X2017975D01*
X2015040Y1541830D02*
X2017525D01*
X2014590Y1542280D02*
X2017075D01*
X2014140Y1542730D02*
X2016625D01*
X2013690Y1543180D02*
X2016175D01*
X2013240Y1543630D02*
X2015725D01*
X2012790Y1544080D02*
X2015275D01*
X2012340Y1544530D02*
X2014825D01*
X2011890Y1544980D02*
X2014375D01*
X2011440Y1545430D02*
X2013925D01*
X2010990Y1545880D02*
X2013475D01*
X2010540Y1546330D02*
X2013025D01*
X2010090Y1546780D02*
X2012575D01*
X2009640Y1547230D02*
X2012125D01*
X2009190Y1547680D02*
X2011675D01*
X2008740Y1548130D02*
X2011225D01*
X2008290Y1548580D02*
X2010775D01*
X2007840Y1549030D02*
X2010325D01*
X2007390Y1549480D02*
X2009875D01*
X2006940Y1549930D02*
X2009425D01*
X2006490Y1550380D02*
X2008975D01*
X2006040Y1550830D02*
X2008525D01*
X2005590Y1551280D02*
X2008075D01*
X2005140Y1551730D02*
X2007625D01*
X2004690Y1552180D02*
X2007175D01*
X2004240Y1552630D02*
X2006725D01*
X2003790Y1553080D02*
X2006275D01*
X2003340Y1553530D02*
X2005825D01*
X2002890Y1553980D02*
X2005375D01*
X2002440Y1554430D02*
X2004925D01*
X2001990Y1554880D02*
X2004475D01*
X2001540Y1555330D02*
X2004025D01*
X2001090Y1555780D02*
X2003575D01*
X2000640Y1556230D02*
X2003125D01*
X2000190Y1556680D02*
X2002675D01*
X1999740Y1557130D02*
X2002225D01*
X1999290Y1557580D02*
X2001775D01*
X1998840Y1558030D02*
X2001325D01*
X1998390Y1558480D02*
X2000875D01*
X1997940Y1558930D02*
X2000425D01*
X1997490Y1559380D02*
X1999975D01*
X1997040Y1559830D02*
X1999525D01*
X1996590Y1560280D02*
X1999075D01*
X1996140Y1560730D02*
X1998625D01*
X1995690Y1561180D02*
X1998175D01*
X1995240Y1561630D02*
X1997725D01*
X1994790Y1562080D02*
X1997275D01*
X1994340Y1562530D02*
X1996825D01*
X1993890Y1562980D02*
X1996375D01*
X1993440Y1563430D02*
X1995925D01*
X1992990Y1563880D02*
X1995475D01*
X1992540Y1564330D02*
X1995025D01*
X1992090Y1564780D02*
X1994575D01*
X1991640Y1565230D02*
X1994125D01*
X1991190Y1565680D02*
X1993675D01*
X1990740Y1566130D02*
X1993225D01*
X1990290Y1566580D02*
X1992775D01*
X1989840Y1567030D02*
X1992325D01*
X1989390Y1567480D02*
X1991875D01*
X1988940Y1567930D02*
X1991425D01*
X1988490Y1568380D02*
X1990975D01*
X1988040Y1568830D02*
X1990525D01*
X1987590Y1569280D02*
X1990075D01*
X1987140Y1569730D02*
X1989625D01*
X1986690Y1570180D02*
X1989175D01*
X1986500Y1570630D02*
X1988725D01*
X1996673Y1531480D02*
X2004927D01*
X1996950Y1544980D02*
X2004650D01*
X1996950Y1544530D02*
X2004650D01*
X1996950Y1544080D02*
X2004650D01*
X1996950Y1543630D02*
X2004650D01*
X1996950Y1543180D02*
X2004650D01*
X1996950Y1542730D02*
X2004650D01*
X1996950Y1542280D02*
X2004650D01*
X1996950Y1541830D02*
X2004650D01*
X1996950Y1541380D02*
X2004650D01*
X1996950Y1540930D02*
X2004650D01*
X1996950Y1540480D02*
X2004650D01*
X1996950Y1540030D02*
X2004650D01*
X1996950Y1539580D02*
X2004650D01*
X1996950Y1539130D02*
X2004650D01*
X1996950Y1545430D02*
X2004557D01*
X1997290Y1538680D02*
X2004310D01*
X1996950Y1545880D02*
X2004107D01*
X1997772Y1531930D02*
X2003828D01*
X1996950Y1546330D02*
X2003657D01*
X1998073Y1538230D02*
X2003527D01*
X1998372Y1532380D02*
X2003228D01*
X1996950Y1546780D02*
X2003207D01*
X1998576Y1537780D02*
X2003024D01*
X1998789Y1532830D02*
X2002811D01*
X1996950Y1547230D02*
X2002757D01*
X1998937Y1537330D02*
X2002662D01*
X1999093Y1533280D02*
X2002507D01*
X1999202Y1536880D02*
X2002398D01*
X1996950Y1547680D02*
X2002307D01*
X1999315Y1533730D02*
X2002285D01*
X1999392Y1536430D02*
X2002208D01*
X1999469Y1534180D02*
X2002131D01*
X1999518Y1535980D02*
X2002082D01*
X1999563Y1534630D02*
X2002037D01*
X1999587Y1535530D02*
X2002013D01*
X1999601Y1535080D02*
X2001999D01*
X1996950Y1548130D02*
X2001857D01*
X1996950Y1548580D02*
X2001407D01*
X1996950Y1549030D02*
X2000957D01*
X1996950Y1549480D02*
X2000507D01*
X1996950Y1549930D02*
X2000057D01*
X1996950Y1550380D02*
X1999607D01*
X1996950Y1550830D02*
X1999157D01*
X1996950Y1551280D02*
X1998707D01*
X1996947Y1551730D02*
X1998257D01*
X1996817Y1552180D02*
X1997807D01*
X1996440Y1552630D02*
X1997357D01*
X1995990Y1553080D02*
X1996907D01*
X1995540Y1553530D02*
X1996457D01*
X1995090Y1553980D02*
X1996007D01*
X1994640Y1554430D02*
X1995557D01*
X1994190Y1554880D02*
X1995107D01*
X1993740Y1555330D02*
X1994657D01*
X1993290Y1555780D02*
X1994207D01*
X1992840Y1556230D02*
X1993757D01*
X1992390Y1556680D02*
X1993307D01*
X1991940Y1557130D02*
X1992857D01*
X1991490Y1557580D02*
X1992407D01*
X1991040Y1558030D02*
X1991957D01*
X1990590Y1558480D02*
X1991507D01*
X1990140Y1558930D02*
X1991057D01*
X1989690Y1559380D02*
X1990607D01*
X1989240Y1559830D02*
X1990157D01*
X1989034Y1560280D02*
X1989707D01*
X1986673Y1531480D02*
X1994927D01*
X1986950Y1550830D02*
X1994650D01*
X1986950Y1550380D02*
X1994650D01*
X1986950Y1549930D02*
X1994650D01*
X1986950Y1549480D02*
X1994650D01*
X1986950Y1549030D02*
X1994650D01*
X1986950Y1548580D02*
X1994650D01*
X1986950Y1548130D02*
X1994650D01*
X1986950Y1547680D02*
X1994650D01*
X1986950Y1547230D02*
X1994650D01*
X1986950Y1546780D02*
X1994650D01*
X1986950Y1546330D02*
X1994650D01*
X1986950Y1545880D02*
X1994650D01*
X1986950Y1545430D02*
X1994650D01*
X1986950Y1544980D02*
X1994650D01*
X1986950Y1544530D02*
X1994650D01*
X1986950Y1544080D02*
X1994650D01*
X1986950Y1543630D02*
X1994650D01*
X1986950Y1543180D02*
X1994650D01*
X1986950Y1542730D02*
X1994650D01*
X1986950Y1542280D02*
X1994650D01*
X1986950Y1541830D02*
X1994650D01*
X1986950Y1541380D02*
X1994650D01*
X1986950Y1540930D02*
X1994650D01*
X1986950Y1540480D02*
X1994650D01*
X1986950Y1540030D02*
X1994650D01*
X1986950Y1539580D02*
X1994650D01*
X1986950Y1539130D02*
X1994650D01*
X1986950Y1551280D02*
X1994537D01*
X1987290Y1538680D02*
X1994310D01*
X1986950Y1551730D02*
X1994087D01*
X1987772Y1531930D02*
X1993828D01*
X1986950Y1552180D02*
X1993637D01*
X1988073Y1538230D02*
X1993527D01*
X1988372Y1532380D02*
X1993228D01*
X1986950Y1552630D02*
X1993187D01*
X1988576Y1537780D02*
X1993024D01*
X1988789Y1532830D02*
X1992811D01*
X1986950Y1553080D02*
X1992737D01*
X1988937Y1537330D02*
X1992662D01*
X1989093Y1533280D02*
X1992507D01*
X1989202Y1536880D02*
X1992398D01*
X1986950Y1553530D02*
X1992287D01*
X1989315Y1533730D02*
X1992285D01*
X1989392Y1536430D02*
X1992208D01*
X1989469Y1534180D02*
X1992131D01*
X1989518Y1535980D02*
X1992082D01*
X1989563Y1534630D02*
X1992037D01*
X1989587Y1535530D02*
X1992013D01*
X1989601Y1535080D02*
X1991999D01*
X1986950Y1553980D02*
X1991837D01*
X1986950Y1554430D02*
X1991387D01*
X1986950Y1554880D02*
X1990937D01*
X1986950Y1555330D02*
X1990487D01*
X1986950Y1555780D02*
X1990037D01*
X1986950Y1556230D02*
X1989587D01*
X1986950Y1556680D02*
X1989137D01*
X1986950Y1557130D02*
X1988687D01*
X1986950Y1557580D02*
X1988237D01*
X1986950Y1558030D02*
X1987787D01*
X2032205Y1591330D02*
X2040803D01*
X2032292Y1591780D02*
X2040437D01*
X2035719Y1592230D02*
X2039987D01*
X2032737D02*
X2034005D01*
X2033187Y1592680D02*
X2033540D01*
X1957706Y1567480D02*
X1983347D01*
X1957706Y1568380D02*
X1983346D01*
X1957706Y1571530D02*
X1983324D01*
X1957706Y1571980D02*
X1983297D01*
X1957706Y1572430D02*
X1983294D01*
X1957706Y1567930D02*
X1983292D01*
X1957706Y1571080D02*
X1983044D01*
X1957706Y1564330D02*
X1982954D01*
X1957706Y1563880D02*
X1982954D01*
X1957706Y1563430D02*
X1982954D01*
X1957706Y1562980D02*
X1982954D01*
X1957706Y1562530D02*
X1982954D01*
X1957706Y1562080D02*
X1982954D01*
X1957706Y1561630D02*
X1982954D01*
X1957706Y1561180D02*
X1982954D01*
X1975871Y1560730D02*
X1982954D01*
X1976577Y1560280D02*
X1982954D01*
X1978110Y1559830D02*
X1982954D01*
X1978639Y1559380D02*
X1982954D01*
X1978877Y1558930D02*
X1982954D01*
X1978961Y1558480D02*
X1982954D01*
X1978915Y1558030D02*
X1982954D01*
X1978727Y1557580D02*
X1982954D01*
X1982045Y1544080D02*
X1982954D01*
X1957706Y1564780D02*
X1982953D01*
X1957706Y1567030D02*
X1982928D01*
X1957706Y1568830D02*
X1982899D01*
X1957706Y1572880D02*
X1982809D01*
X1957706Y1570630D02*
X1982690D01*
X1957706Y1565230D02*
X1982673D01*
X1957706Y1566580D02*
X1982636D01*
X1981768Y1543630D02*
X1982622D01*
X1957706Y1569280D02*
X1982622D01*
X1957706Y1573330D02*
X1982581D01*
X1957706Y1570180D02*
X1982532D01*
X1957706Y1565680D02*
X1982526D01*
X1957706Y1566130D02*
X1982515D01*
X1957706Y1569730D02*
X1982512D01*
X1982142Y1574230D02*
X1982506D01*
X1981284Y1573780D02*
X1982505D01*
X1981115Y1543180D02*
X1982172D01*
X1980597Y1542730D02*
X1981722D01*
X1978512Y1557130D02*
X1981501D01*
X1980384Y1542280D02*
X1981272D01*
X1978512Y1554430D02*
X1981212D01*
X1978512Y1553980D02*
X1981212D01*
X1978512Y1553530D02*
X1981212D01*
X1978512Y1553080D02*
X1981212D01*
X1978512Y1552630D02*
X1981212D01*
X1978512Y1552180D02*
X1981212D01*
X1978512Y1551730D02*
X1981212D01*
X1978512Y1551280D02*
X1981212D01*
X1978512Y1550830D02*
X1981212D01*
X1978512Y1550380D02*
X1981212D01*
X1978512Y1549930D02*
X1981212D01*
X1978512Y1549480D02*
X1981212D01*
X1978512Y1549030D02*
X1981212D01*
X1978512Y1548580D02*
X1981212D01*
X1978740Y1548130D02*
X1981212D01*
X1979190Y1547680D02*
X1981212D01*
X1979640Y1547230D02*
X1981212D01*
X1978512Y1554880D02*
X1981040D01*
X1978512Y1556680D02*
X1981038D01*
X1980090Y1546780D02*
X1981038D01*
X1978512Y1555330D02*
X1980827D01*
X1978512Y1556230D02*
X1980826D01*
X1979919Y1541830D02*
X1980822D01*
X1980541Y1546330D02*
X1980792D01*
X1978512Y1555780D02*
X1980762D01*
X1972607Y1541380D02*
X1980372D01*
X1957706Y1573780D02*
X1980244D01*
X1972607Y1540930D02*
X1979922D01*
X1972550Y1540480D02*
X1979472D01*
X1957706Y1574230D02*
X1979386D01*
X1972275Y1540030D02*
X1979022D01*
X1957706Y1574680D02*
X1978997D01*
X1957706Y1575130D02*
X1978779D01*
X1957706Y1575580D02*
X1978677D01*
X1957706Y1584130D02*
X1978664D01*
X1957706Y1583680D02*
X1978664D01*
X1957706Y1583230D02*
X1978664D01*
X1957706Y1582780D02*
X1978664D01*
X1957706Y1582330D02*
X1978664D01*
X1957706Y1581880D02*
X1978664D01*
X1957706Y1581430D02*
X1978664D01*
X1957706Y1580980D02*
X1978664D01*
X1957706Y1580530D02*
X1978664D01*
X1957706Y1580080D02*
X1978664D01*
X1957706Y1579630D02*
X1978664D01*
X1957706Y1579180D02*
X1978664D01*
X1957706Y1578730D02*
X1978664D01*
X1957706Y1578280D02*
X1978664D01*
X1957706Y1577830D02*
X1978664D01*
X1957706Y1577380D02*
X1978664D01*
X1957706Y1576930D02*
X1978664D01*
X1957706Y1576480D02*
X1978664D01*
X1957706Y1576030D02*
X1978664D01*
X1971825Y1539580D02*
X1978572D01*
X1957706Y1584580D02*
X1978538D01*
X1972607Y1541830D02*
X1978205D01*
X1971375Y1539130D02*
X1978122D01*
X1958056Y1585030D02*
X1978088D01*
X1972607Y1542280D02*
X1977740D01*
X1977290Y1538680D02*
X1977672D01*
X1958506Y1585480D02*
X1977638D01*
X1972607Y1542730D02*
X1977527D01*
X1972607Y1543180D02*
X1977432D01*
X1972607Y1543630D02*
X1976987D01*
X1972607Y1544080D02*
X1976537D01*
X1972607Y1544530D02*
X1976087D01*
X1972607Y1544980D02*
X1975637D01*
X1972607Y1545430D02*
X1975187D01*
X1966673Y1531480D02*
X1974927D01*
X1971934Y1560730D02*
X1974916D01*
X1972607Y1545880D02*
X1974737D01*
X1972607Y1546330D02*
X1974368D01*
X1970925Y1538680D02*
X1974310D01*
X1972607Y1546780D02*
X1974246D01*
X1972607Y1557580D02*
X1974244D01*
X1972607Y1557130D02*
X1974244D01*
X1972607Y1556680D02*
X1974244D01*
X1972607Y1556230D02*
X1974244D01*
X1972607Y1555780D02*
X1974244D01*
X1972607Y1555330D02*
X1974244D01*
X1972607Y1554880D02*
X1974244D01*
X1972607Y1554430D02*
X1974244D01*
X1972607Y1553980D02*
X1974244D01*
X1972607Y1553530D02*
X1974244D01*
X1972607Y1553080D02*
X1974244D01*
X1972607Y1552630D02*
X1974244D01*
X1972607Y1552180D02*
X1974244D01*
X1972607Y1551730D02*
X1974244D01*
X1972607Y1551280D02*
X1974244D01*
X1972607Y1550830D02*
X1974244D01*
X1972607Y1550380D02*
X1974244D01*
X1972607Y1549930D02*
X1974244D01*
X1972607Y1549480D02*
X1974244D01*
X1972607Y1549030D02*
X1974244D01*
X1972607Y1548580D02*
X1974244D01*
X1972607Y1548130D02*
X1974244D01*
X1972607Y1547680D02*
X1974244D01*
X1972607Y1547230D02*
X1974244D01*
X1972607Y1558030D02*
X1974243D01*
X1972640Y1560280D02*
X1974211D01*
X1972884Y1558480D02*
X1973966D01*
X1972929Y1559830D02*
X1973922D01*
X1967772Y1531930D02*
X1973828D01*
X1973033Y1558930D02*
X1973817D01*
X1973047Y1559380D02*
X1973804D01*
X1970475Y1538230D02*
X1973527D01*
X1968372Y1532380D02*
X1973228D01*
X1970025Y1537780D02*
X1973024D01*
X1968789Y1532830D02*
X1972811D01*
X1969575Y1537330D02*
X1972662D01*
X1969093Y1533280D02*
X1972507D01*
X1969219Y1536880D02*
X1972398D01*
X1969315Y1533730D02*
X1972285D01*
X1969392Y1536430D02*
X1972208D01*
X1969469Y1534180D02*
X1972131D01*
X1969518Y1535980D02*
X1972082D01*
X1969563Y1534630D02*
X1972037D01*
X1969587Y1535530D02*
X1972013D01*
X1969601Y1535080D02*
X1971999D01*
X1967997Y1560730D02*
X1970979D01*
X1968703Y1560280D02*
X1970274D01*
X1957706Y1560730D02*
X1967042D01*
X1957706Y1560280D02*
X1966337D01*
X1957706Y1559830D02*
X1964803D01*
X1958955Y1557130D02*
X1964401D01*
X1959243Y1556680D02*
X1964401D01*
X1959397Y1556230D02*
X1964401D01*
X1959446Y1555780D02*
X1964401D01*
X1959397Y1555330D02*
X1964401D01*
X1959243Y1554880D02*
X1964401D01*
X1958954Y1554430D02*
X1964401D01*
X1958427Y1553980D02*
X1964401D01*
X1945466Y1553530D02*
X1964401D01*
X1945466Y1553080D02*
X1964401D01*
X1945466Y1552630D02*
X1964401D01*
X1945466Y1552180D02*
X1964401D01*
X1945466Y1551730D02*
X1964401D01*
X1945466Y1551280D02*
X1964401D01*
X1945466Y1550830D02*
X1964401D01*
X1945466Y1550380D02*
X1964401D01*
X1945466Y1549930D02*
X1964401D01*
X1945466Y1549480D02*
X1964401D01*
X1945466Y1549030D02*
X1964401D01*
X1945466Y1548580D02*
X1964401D01*
X1945466Y1548130D02*
X1964401D01*
X1945466Y1547680D02*
X1964401D01*
X1945466Y1547230D02*
X1964401D01*
X1945466Y1546780D02*
X1964401D01*
X1945463Y1546330D02*
X1964401D01*
X1919288Y1545880D02*
X1964401D01*
X1919288Y1545430D02*
X1964391D01*
X1957706Y1559380D02*
X1964275D01*
X1958516Y1557580D02*
X1964187D01*
X1957706Y1558930D02*
X1964036D01*
X1958066Y1558030D02*
X1963998D01*
X1919288Y1544980D02*
X1963972D01*
X1957706Y1558480D02*
X1963952D01*
X1919288Y1544530D02*
X1963522D01*
X1919288Y1544080D02*
X1963072D01*
X1919288Y1543630D02*
X1962622D01*
X1919288Y1543180D02*
X1962172D01*
X1919288Y1542730D02*
X1961722D01*
X1919288Y1542280D02*
X1961272D01*
X1919288Y1541830D02*
X1960822D01*
X1919288Y1541380D02*
X1960372D01*
X1919288Y1540930D02*
X1959922D01*
X1919288Y1540480D02*
X1959472D01*
X1919288Y1540030D02*
X1959022D01*
X1945859Y1590430D02*
X1958687D01*
X1919288Y1539580D02*
X1958572D01*
X1945859Y1590880D02*
X1958237D01*
X1919288Y1539130D02*
X1958122D01*
X1945859Y1591330D02*
X1957787D01*
X1957290Y1538680D02*
X1957672D01*
X1955592Y1589980D02*
X1957596D01*
X1945859Y1591780D02*
X1957337D01*
X1945859Y1592230D02*
X1956887D01*
X1956420Y1589530D02*
X1956626D01*
X1945859Y1592680D02*
X1956437D01*
X1945466Y1553980D02*
X1956265D01*
X1945859Y1593130D02*
X1955987D01*
X1945466Y1554430D02*
X1955726D01*
X1945859Y1593580D02*
X1955537D01*
X1945466Y1554880D02*
X1955276D01*
X1945859Y1594030D02*
X1955087D01*
X1945859Y1589980D02*
X1954940D01*
X1946673Y1531480D02*
X1954927D01*
X1945440Y1555330D02*
X1954826D01*
X1945859Y1594480D02*
X1954637D01*
X1929747Y1555780D02*
X1954376D01*
X1947290Y1538680D02*
X1954310D01*
X1945859Y1594930D02*
X1954187D01*
X1919288Y1587280D02*
X1954133D01*
X1945859Y1589530D02*
X1954120D01*
X1929796Y1556230D02*
X1953949D01*
X1919288Y1586830D02*
X1953941D01*
X1947772Y1531930D02*
X1953828D01*
X1919288Y1587730D02*
X1953819D01*
X1945859Y1589080D02*
X1953811D01*
X1945859Y1595380D02*
X1953737D01*
X1945859Y1588180D02*
X1953683D01*
X1929796Y1556680D02*
X1953681D01*
X1945859Y1588630D02*
X1953680D01*
X1919288Y1586380D02*
X1953677D01*
X1929796Y1557130D02*
X1953543D01*
X1919288Y1585930D02*
X1953541D01*
X1948073Y1538230D02*
X1953527D01*
X1919288Y1585480D02*
X1953506D01*
X1919288Y1585030D02*
X1953506D01*
X1919288Y1584580D02*
X1953506D01*
X1919288Y1584130D02*
X1953506D01*
X1919288Y1583680D02*
X1953506D01*
X1919288Y1583230D02*
X1953506D01*
X1919288Y1582780D02*
X1953506D01*
X1919288Y1582330D02*
X1953506D01*
X1919288Y1581880D02*
X1953506D01*
X1919288Y1581430D02*
X1953506D01*
X1952095Y1580980D02*
X1953506D01*
X1952486Y1580530D02*
X1953506D01*
X1952664Y1580080D02*
X1953506D01*
X1952701Y1579630D02*
X1953506D01*
X1919288Y1575580D02*
X1953506D01*
X1919288Y1571980D02*
X1953506D01*
X1919288Y1571530D02*
X1953506D01*
X1919288Y1571080D02*
X1953506D01*
X1919288Y1570630D02*
X1953506D01*
X1919288Y1570180D02*
X1953506D01*
X1919288Y1569730D02*
X1953506D01*
X1919288Y1566130D02*
X1953506D01*
X1919288Y1565680D02*
X1953506D01*
X1919288Y1565230D02*
X1953506D01*
X1919288Y1564780D02*
X1953506D01*
X1919288Y1564330D02*
X1953506D01*
X1929796Y1560280D02*
X1953506D01*
X1929796Y1559830D02*
X1953506D01*
X1929796Y1559380D02*
X1953506D01*
X1929796Y1558930D02*
X1953506D01*
X1929796Y1558480D02*
X1953506D01*
X1929796Y1558030D02*
X1953506D01*
X1929796Y1557580D02*
X1953506D01*
X1919288Y1576030D02*
X1953500D01*
X1919288Y1563880D02*
X1953496D01*
X1945859Y1595830D02*
X1953287D01*
X1948372Y1532380D02*
X1953228D01*
X1948576Y1537780D02*
X1953024D01*
X1945859Y1596280D02*
X1952837D01*
X1948789Y1532830D02*
X1952811D01*
X1948937Y1537330D02*
X1952662D01*
X1949093Y1533280D02*
X1952507D01*
X1949202Y1536880D02*
X1952398D01*
X1945859Y1596730D02*
X1952387D01*
X1949315Y1533730D02*
X1952285D01*
X1929796Y1560730D02*
X1952270D01*
X1949392Y1536430D02*
X1952208D01*
X1949469Y1534180D02*
X1952131D01*
X1949518Y1535980D02*
X1952082D01*
X1919288Y1572430D02*
X1952076D01*
X1919288Y1576480D02*
X1952040D01*
X1949563Y1534630D02*
X1952037D01*
X1919288Y1569280D02*
X1952033D01*
X1949587Y1535530D02*
X1952013D01*
X1949601Y1535080D02*
X1951999D01*
X1919288Y1566580D02*
X1951982D01*
X1919288Y1575130D02*
X1951952D01*
X1919288Y1563430D02*
X1951947D01*
X1945859Y1597180D02*
X1951937D01*
X1929796Y1561180D02*
X1951697D01*
X1919288Y1576930D02*
X1951635D01*
X1919288Y1572880D02*
X1951574D01*
X1929796Y1562980D02*
X1951560D01*
X1919288Y1568830D02*
X1951554D01*
X1919288Y1567030D02*
X1951532D01*
X1919288Y1574680D02*
X1951521D01*
X1945859Y1597630D02*
X1951487D01*
X1919288Y1577380D02*
X1951451D01*
X1929796Y1561630D02*
X1951443D01*
X1919288Y1577830D02*
X1951407D01*
X1929796Y1562530D02*
X1951385D01*
X1929796Y1562080D02*
X1951349D01*
X1919288Y1573330D02*
X1951346D01*
X1919288Y1568380D02*
X1951335D01*
X1919288Y1567480D02*
X1951326D01*
X1919288Y1574230D02*
X1951323D01*
X1919288Y1573780D02*
X1951270D01*
X1919288Y1567930D02*
X1951266D01*
X1919288Y1598080D02*
X1951037D01*
X1919288Y1578280D02*
X1950416D01*
X1919288Y1580980D02*
X1950112D01*
X1919288Y1578730D02*
X1949850D01*
X1919288Y1580530D02*
X1949721D01*
X1919288Y1579180D02*
X1949599D01*
X1919288Y1580080D02*
X1949544D01*
X1919288Y1579630D02*
X1949506D01*
X1936673Y1531480D02*
X1944927D01*
X1937290Y1538680D02*
X1944310D01*
X1937772Y1531930D02*
X1943828D01*
X1938073Y1538230D02*
X1943527D01*
X1938372Y1532380D02*
X1943228D01*
X1938576Y1537780D02*
X1943024D01*
X1938789Y1532830D02*
X1942811D01*
X1938937Y1537330D02*
X1942662D01*
X1939093Y1533280D02*
X1942507D01*
X1939202Y1536880D02*
X1942398D01*
X1939315Y1533730D02*
X1942285D01*
X1939392Y1536430D02*
X1942208D01*
X1939469Y1534180D02*
X1942131D01*
X1939518Y1535980D02*
X1942082D01*
X1939563Y1534630D02*
X1942037D01*
X1939587Y1535530D02*
X1942013D01*
X1939601Y1535080D02*
X1941999D01*
X1926673Y1531480D02*
X1934927D01*
X1919288Y1555330D02*
X1934755D01*
X1919288Y1546330D02*
X1934731D01*
X1919288Y1554880D02*
X1934729D01*
X1919288Y1554430D02*
X1934729D01*
X1919288Y1553980D02*
X1934729D01*
X1919288Y1553530D02*
X1934729D01*
X1919288Y1553080D02*
X1934729D01*
X1919288Y1552630D02*
X1934729D01*
X1919288Y1552180D02*
X1934729D01*
X1919288Y1551730D02*
X1934729D01*
X1919288Y1551280D02*
X1934729D01*
X1919288Y1550830D02*
X1934729D01*
X1919288Y1550380D02*
X1934729D01*
X1919288Y1549930D02*
X1934729D01*
X1919288Y1549480D02*
X1934729D01*
X1919288Y1549030D02*
X1934729D01*
X1919288Y1548580D02*
X1934729D01*
X1919288Y1548130D02*
X1934729D01*
X1919288Y1547680D02*
X1934729D01*
X1919288Y1547230D02*
X1934729D01*
X1919288Y1546780D02*
X1934729D01*
X1919288Y1597630D02*
X1934336D01*
X1919288Y1597180D02*
X1934336D01*
X1919288Y1596730D02*
X1934336D01*
X1919288Y1596280D02*
X1934336D01*
X1919288Y1595830D02*
X1934336D01*
X1919288Y1595380D02*
X1934336D01*
X1919288Y1594930D02*
X1934336D01*
X1919288Y1594480D02*
X1934336D01*
X1919288Y1594030D02*
X1934336D01*
X1919288Y1593580D02*
X1934336D01*
X1919288Y1593130D02*
X1934336D01*
X1919288Y1592680D02*
X1934336D01*
X1919288Y1592230D02*
X1934336D01*
X1919288Y1591780D02*
X1934336D01*
X1919288Y1591330D02*
X1934336D01*
X1919288Y1590880D02*
X1934336D01*
X1919288Y1590430D02*
X1934336D01*
X1919288Y1589980D02*
X1934336D01*
X1919288Y1589530D02*
X1934336D01*
X1919288Y1589080D02*
X1934336D01*
X1919288Y1588630D02*
X1934336D01*
X1919288Y1588180D02*
X1934336D01*
X1927290Y1538680D02*
X1934310D01*
X1927772Y1531930D02*
X1933828D01*
X1928073Y1538230D02*
X1933527D01*
X1928372Y1532380D02*
X1933228D01*
X1928576Y1537780D02*
X1933024D01*
X1928789Y1532830D02*
X1932811D01*
X1928937Y1537330D02*
X1932662D01*
X1929093Y1533280D02*
X1932507D01*
X1929202Y1536880D02*
X1932398D01*
X1929315Y1533730D02*
X1932285D01*
X1929392Y1536430D02*
X1932208D01*
X1929469Y1534180D02*
X1932131D01*
X1929518Y1535980D02*
X1932082D01*
X1929563Y1534630D02*
X1932037D01*
X1929587Y1535530D02*
X1932013D01*
X1929601Y1535080D02*
X1931999D01*
X1919288Y1598530D02*
X1930934D01*
X1919288Y1598980D02*
X1930375D01*
X1919288Y1599430D02*
X1929925D01*
X1919288Y1599880D02*
X1929475D01*
X1919288Y1600330D02*
X1929025D01*
X1919288Y1600780D02*
X1928575D01*
X1919288Y1601230D02*
X1928125D01*
X1927284Y1601680D02*
X1927675D01*
X1923063Y1609330D02*
X1925174D01*
X1921352Y1531480D02*
X1924927D01*
X1921347Y1608880D02*
X1924916D01*
X1919288Y1601680D02*
X1924316D01*
X1919288Y1538680D02*
X1924310D01*
X1920681Y1531930D02*
X1923828D01*
X1920678Y1608430D02*
X1923823D01*
X1919288Y1602130D02*
X1923530D01*
X1919288Y1538230D02*
X1923527D01*
X1920224Y1532380D02*
X1923228D01*
X1920222Y1607980D02*
X1923225D01*
X1919288Y1602580D02*
X1923026D01*
X1919288Y1537780D02*
X1923024D01*
X1919891Y1532830D02*
X1922811D01*
X1919889Y1607530D02*
X1922809D01*
X1919288Y1603030D02*
X1922664D01*
X1919288Y1537330D02*
X1922662D01*
X1919645Y1533280D02*
X1922507D01*
X1919644Y1607080D02*
X1922505D01*
X1919288Y1603480D02*
X1922399D01*
X1919288Y1536880D02*
X1922398D01*
X1919470Y1533730D02*
X1922285D01*
X1919470Y1606630D02*
X1922284D01*
X1919288Y1603930D02*
X1922209D01*
X1919288Y1536430D02*
X1922208D01*
X1919356Y1534180D02*
X1922131D01*
X1919356Y1606180D02*
X1922131D01*
X1919288Y1604380D02*
X1922083D01*
X1919288Y1535980D02*
X1922082D01*
X1919298Y1534630D02*
X1922037D01*
X1919297Y1605730D02*
X1922037D01*
X1919288Y1604830D02*
X1922013D01*
X1919288Y1535530D02*
X1922013D01*
X1919288Y1535080D02*
X1921999D01*
X1919288Y1605280D02*
X1921998D01*
X1919288Y1555780D02*
X1921364D01*
X1919288Y1562980D02*
X1921315D01*
X1919288Y1562530D02*
X1921315D01*
X1919288Y1562080D02*
X1921315D01*
X1919288Y1561630D02*
X1921315D01*
X1919288Y1561180D02*
X1921315D01*
X1919288Y1560730D02*
X1921315D01*
X1919288Y1560280D02*
X1921315D01*
X1919288Y1559830D02*
X1921315D01*
X1919288Y1559380D02*
X1921315D01*
X1919288Y1558930D02*
X1921315D01*
X1919288Y1558480D02*
X1921315D01*
X1919288Y1558030D02*
X1921315D01*
X1919288Y1557580D02*
X1921315D01*
X1919288Y1557130D02*
X1921315D01*
X1919288Y1556680D02*
X1921315D01*
X1919288Y1556230D02*
X1921315D01*
X2086425Y1609330D02*
X2095174D01*
X2086683Y1608880D02*
X2094916D01*
X2087777Y1608430D02*
X2093823D01*
X2088374Y1607980D02*
X2093225D01*
X2088791Y1607530D02*
X2092809D01*
X2089095Y1607080D02*
X2092505D01*
X2089201Y1603480D02*
X2092381D01*
X2089316Y1606630D02*
X2092284D01*
X2089391Y1603930D02*
X2092209D01*
X2089469Y1606180D02*
X2092131D01*
X2089517Y1604380D02*
X2092083D01*
X2089563Y1605730D02*
X2092037D01*
X2088936Y1603030D02*
X2092022D01*
X2089586Y1604830D02*
X2092013D01*
X2089601Y1605280D02*
X2091998D01*
X2088574Y1602580D02*
X2091572D01*
X2088069Y1602130D02*
X2091122D01*
X2087284Y1601680D02*
X2090672D01*
X1954794Y1601230D02*
X2090222D01*
X1955190Y1600780D02*
X2089772D01*
X1955640Y1600330D02*
X2089322D01*
X1956090Y1599880D02*
X2088872D01*
X1956540Y1599430D02*
X2088422D01*
X1956990Y1598980D02*
X2087972D01*
X1957440Y1598530D02*
X2087522D01*
X1957890Y1598080D02*
X2087072D01*
X1958340Y1597630D02*
X2086622D01*
X1958790Y1597180D02*
X2086172D01*
X2076425Y1609330D02*
X2085174D01*
X2076683Y1608880D02*
X2084916D01*
X2077284Y1601680D02*
X2084316D01*
X2077777Y1608430D02*
X2083823D01*
X2078069Y1602130D02*
X2083530D01*
X2078374Y1607980D02*
X2083225D01*
X2078574Y1602580D02*
X2083026D01*
X2078791Y1607530D02*
X2082809D01*
X2078936Y1603030D02*
X2082664D01*
X2079095Y1607080D02*
X2082505D01*
X2079201Y1603480D02*
X2082399D01*
X2079316Y1606630D02*
X2082284D01*
X2079391Y1603930D02*
X2082209D01*
X2079469Y1606180D02*
X2082131D01*
X2079517Y1604380D02*
X2082083D01*
X2079563Y1605730D02*
X2082037D01*
X2079586Y1604830D02*
X2082013D01*
X2079601Y1605280D02*
X2081998D01*
X2066425Y1609330D02*
X2075174D01*
X2066683Y1608880D02*
X2074916D01*
X2067284Y1601680D02*
X2074316D01*
X2067777Y1608430D02*
X2073823D01*
X2068069Y1602130D02*
X2073530D01*
X2068374Y1607980D02*
X2073225D01*
X2068574Y1602580D02*
X2073026D01*
X2068791Y1607530D02*
X2072809D01*
X2068936Y1603030D02*
X2072664D01*
X2069095Y1607080D02*
X2072505D01*
X2069201Y1603480D02*
X2072399D01*
X2069316Y1606630D02*
X2072284D01*
X2069391Y1603930D02*
X2072209D01*
X2069469Y1606180D02*
X2072131D01*
X2069517Y1604380D02*
X2072083D01*
X2069563Y1605730D02*
X2072037D01*
X2069586Y1604830D02*
X2072013D01*
X2069601Y1605280D02*
X2071998D01*
X2056425Y1609330D02*
X2065174D01*
X2056683Y1608880D02*
X2064916D01*
X2057284Y1601680D02*
X2064316D01*
X2057777Y1608430D02*
X2063823D01*
X2058069Y1602130D02*
X2063530D01*
X2058374Y1607980D02*
X2063225D01*
X2058574Y1602580D02*
X2063026D01*
X2058791Y1607530D02*
X2062809D01*
X2058936Y1603030D02*
X2062664D01*
X2059095Y1607080D02*
X2062505D01*
X2059201Y1603480D02*
X2062399D01*
X2059316Y1606630D02*
X2062284D01*
X2059391Y1603930D02*
X2062209D01*
X2059469Y1606180D02*
X2062131D01*
X2059517Y1604380D02*
X2062083D01*
X2059563Y1605730D02*
X2062037D01*
X2059586Y1604830D02*
X2062013D01*
X2059601Y1605280D02*
X2061998D01*
X2046425Y1609330D02*
X2055174D01*
X2046683Y1608880D02*
X2054916D01*
X2047284Y1601680D02*
X2054316D01*
X2047777Y1608430D02*
X2053823D01*
X2048069Y1602130D02*
X2053530D01*
X2048374Y1607980D02*
X2053225D01*
X2048574Y1602580D02*
X2053026D01*
X2048791Y1607530D02*
X2052809D01*
X2048936Y1603030D02*
X2052664D01*
X2049095Y1607080D02*
X2052505D01*
X2049201Y1603480D02*
X2052399D01*
X2049316Y1606630D02*
X2052284D01*
X2049391Y1603930D02*
X2052209D01*
X2049469Y1606180D02*
X2052131D01*
X2049517Y1604380D02*
X2052083D01*
X2049563Y1605730D02*
X2052037D01*
X2049586Y1604830D02*
X2052013D01*
X2049601Y1605280D02*
X2051998D01*
X2036425Y1609330D02*
X2045174D01*
X2036683Y1608880D02*
X2044916D01*
X2037284Y1601680D02*
X2044316D01*
X2037777Y1608430D02*
X2043823D01*
X2038069Y1602130D02*
X2043530D01*
X2038374Y1607980D02*
X2043225D01*
X2038574Y1602580D02*
X2043026D01*
X2038791Y1607530D02*
X2042809D01*
X2038936Y1603030D02*
X2042664D01*
X2039095Y1607080D02*
X2042505D01*
X2039201Y1603480D02*
X2042399D01*
X2039316Y1606630D02*
X2042284D01*
X2039391Y1603930D02*
X2042209D01*
X2039469Y1606180D02*
X2042131D01*
X2039517Y1604380D02*
X2042083D01*
X2039563Y1605730D02*
X2042037D01*
X2039586Y1604830D02*
X2042013D01*
X2039601Y1605280D02*
X2041998D01*
X2026425Y1609330D02*
X2035174D01*
X2026683Y1608880D02*
X2034916D01*
X2027284Y1601680D02*
X2034316D01*
X1959240Y1596730D02*
X2034090D01*
X2027777Y1608430D02*
X2033823D01*
X1959690Y1596280D02*
X2033534D01*
X2028069Y1602130D02*
X2033530D01*
X2028374Y1607980D02*
X2033225D01*
X1960140Y1595830D02*
X2033084D01*
X2028574Y1602580D02*
X2033026D01*
X2028791Y1607530D02*
X2032809D01*
X2028936Y1603030D02*
X2032664D01*
X1960590Y1595380D02*
X2032634D01*
X2029095Y1607080D02*
X2032505D01*
X2029201Y1603480D02*
X2032399D01*
X2029316Y1606630D02*
X2032284D01*
X2029391Y1603930D02*
X2032209D01*
X1965134Y1594930D02*
X2032184D01*
X2029469Y1606180D02*
X2032131D01*
X2029517Y1604380D02*
X2032083D01*
X2029563Y1605730D02*
X2032037D01*
X2029586Y1604830D02*
X2032013D01*
X2029601Y1605280D02*
X2031998D01*
X1965690Y1594480D02*
X2031734D01*
X1966140Y1594030D02*
X2031284D01*
X1966590Y1593580D02*
X2030834D01*
X1967040Y1593130D02*
X2029801D01*
X1967490Y1592680D02*
X2029338D01*
X1967940Y1592230D02*
X2029126D01*
X1980776Y1591330D02*
X2029119D01*
X1980422Y1591780D02*
X2029062D01*
X2016425Y1609330D02*
X2025174D01*
X2016683Y1608880D02*
X2024916D01*
X2017284Y1601680D02*
X2024316D01*
X2017777Y1608430D02*
X2023823D01*
X2018069Y1602130D02*
X2023530D01*
X2018374Y1607980D02*
X2023225D01*
X2018574Y1602580D02*
X2023026D01*
X2018791Y1607530D02*
X2022809D01*
X2018936Y1603030D02*
X2022664D01*
X2019095Y1607080D02*
X2022505D01*
X2019201Y1603480D02*
X2022399D01*
X2019316Y1606630D02*
X2022284D01*
X2019391Y1603930D02*
X2022209D01*
X2019469Y1606180D02*
X2022131D01*
X2019517Y1604380D02*
X2022083D01*
X2019563Y1605730D02*
X2022037D01*
X2019586Y1604830D02*
X2022013D01*
X2019601Y1605280D02*
X2021998D01*
X2006425Y1609330D02*
X2015174D01*
X2006683Y1608880D02*
X2014916D01*
X2007284Y1601680D02*
X2014316D01*
X2007777Y1608430D02*
X2013823D01*
X2008069Y1602130D02*
X2013530D01*
X2008374Y1607980D02*
X2013225D01*
X2008574Y1602580D02*
X2013026D01*
X2008791Y1607530D02*
X2012809D01*
X2008936Y1603030D02*
X2012664D01*
X2009095Y1607080D02*
X2012505D01*
X2009201Y1603480D02*
X2012399D01*
X2009316Y1606630D02*
X2012284D01*
X2009391Y1603930D02*
X2012209D01*
X2009469Y1606180D02*
X2012131D01*
X2009517Y1604380D02*
X2012083D01*
X2009563Y1605730D02*
X2012037D01*
X2009586Y1604830D02*
X2012013D01*
X2009601Y1605280D02*
X2011998D01*
X1996425Y1609330D02*
X2005174D01*
X1996683Y1608880D02*
X2004916D01*
X1997284Y1601680D02*
X2004316D01*
X1997777Y1608430D02*
X2003823D01*
X1998069Y1602130D02*
X2003530D01*
X1998374Y1607980D02*
X2003225D01*
X1998574Y1602580D02*
X2003026D01*
X1998791Y1607530D02*
X2002809D01*
X1998936Y1603030D02*
X2002664D01*
X1999095Y1607080D02*
X2002505D01*
X1999201Y1603480D02*
X2002399D01*
X1999316Y1606630D02*
X2002284D01*
X1999391Y1603930D02*
X2002209D01*
X1999469Y1606180D02*
X2002131D01*
X1999517Y1604380D02*
X2002083D01*
X1999563Y1605730D02*
X2002037D01*
X1999586Y1604830D02*
X2002013D01*
X1999601Y1605280D02*
X2001998D01*
X1986425Y1609330D02*
X1995174D01*
X1986683Y1608880D02*
X1994916D01*
X1987284Y1601680D02*
X1994316D01*
X1987777Y1608430D02*
X1993823D01*
X1988069Y1602130D02*
X1993530D01*
X1988374Y1607980D02*
X1993225D01*
X1988574Y1602580D02*
X1993026D01*
X1988791Y1607530D02*
X1992809D01*
X1988936Y1603030D02*
X1992664D01*
X1989095Y1607080D02*
X1992505D01*
X1989201Y1603480D02*
X1992399D01*
X1989316Y1606630D02*
X1992284D01*
X1989391Y1603930D02*
X1992209D01*
X1989469Y1606180D02*
X1992131D01*
X1989517Y1604380D02*
X1992083D01*
X1989563Y1605730D02*
X1992037D01*
X1989586Y1604830D02*
X1992013D01*
X1989601Y1605280D02*
X1991998D01*
X1980934Y1590880D02*
X1987738D01*
X1980955Y1590430D02*
X1987278D01*
X1980845Y1589980D02*
X1986828D01*
X1980568Y1589530D02*
X1986378D01*
X1980101Y1589080D02*
X1985928D01*
X1980428Y1588630D02*
X1985478D01*
X1976425Y1609330D02*
X1985174D01*
X1980878Y1588180D02*
X1985028D01*
X1976683Y1608880D02*
X1984916D01*
X1981328Y1587730D02*
X1984578D01*
X1977284Y1601680D02*
X1984316D01*
X1981778Y1587280D02*
X1984128D01*
X1977777Y1608430D02*
X1983823D01*
X1978069Y1602130D02*
X1983530D01*
X1978374Y1607980D02*
X1983225D01*
X1982228Y1586830D02*
X1983046D01*
X1978574Y1602580D02*
X1983026D01*
X1978791Y1607530D02*
X1982809D01*
X1978936Y1603030D02*
X1982664D01*
X1979095Y1607080D02*
X1982505D01*
X1979201Y1603480D02*
X1982399D01*
X1979316Y1606630D02*
X1982284D01*
X1979391Y1603930D02*
X1982209D01*
X1979469Y1606180D02*
X1982131D01*
X1979517Y1604380D02*
X1982083D01*
X1979563Y1605730D02*
X1982037D01*
X1979586Y1604830D02*
X1982013D01*
X1979601Y1605280D02*
X1981998D01*
X1976522Y1591780D02*
X1978302D01*
X1976876Y1591330D02*
X1977948D01*
X1977034Y1590880D02*
X1977790D01*
X1977055Y1590430D02*
X1977769D01*
X1966425Y1609330D02*
X1975174D01*
X1966683Y1608880D02*
X1974916D01*
X1970822Y1591780D02*
X1974402D01*
X1967284Y1601680D02*
X1974316D01*
X1971176Y1591330D02*
X1974048D01*
X1971334Y1590880D02*
X1973890D01*
X1971355Y1590430D02*
X1973869D01*
X1967777Y1608430D02*
X1973823D01*
X1968069Y1602130D02*
X1973530D01*
X1968374Y1607980D02*
X1973225D01*
X1968574Y1602580D02*
X1973026D01*
X1968791Y1607530D02*
X1972809D01*
X1968936Y1603030D02*
X1972664D01*
X1969095Y1607080D02*
X1972505D01*
X1969201Y1603480D02*
X1972399D01*
X1969316Y1606630D02*
X1972284D01*
X1969391Y1603930D02*
X1972209D01*
X1969469Y1606180D02*
X1972131D01*
X1969517Y1604380D02*
X1972083D01*
X1969563Y1605730D02*
X1972037D01*
X1969586Y1604830D02*
X1972013D01*
X1969601Y1605280D02*
X1971998D01*
X1956425Y1609330D02*
X1965174D01*
X1956683Y1608880D02*
X1964916D01*
X1957284Y1601680D02*
X1964316D01*
X1957777Y1608430D02*
X1963823D01*
X1958069Y1602130D02*
X1963530D01*
X1958374Y1607980D02*
X1963225D01*
X1958574Y1602580D02*
X1963026D01*
X1958791Y1607530D02*
X1962809D01*
X1958936Y1603030D02*
X1962664D01*
X1959095Y1607080D02*
X1962505D01*
X1959201Y1603480D02*
X1962399D01*
X1959316Y1606630D02*
X1962284D01*
X1959391Y1603930D02*
X1962209D01*
X1959469Y1606180D02*
X1962131D01*
X1959517Y1604380D02*
X1962083D01*
X1959563Y1605730D02*
X1962037D01*
X1959586Y1604830D02*
X1962013D01*
X1959601Y1605280D02*
X1961998D01*
X1965875Y1543630D02*
X1966370D01*
X1965425Y1543180D02*
X1966370D01*
X1964975Y1542730D02*
X1966370D01*
X1964525Y1542280D02*
X1966370D01*
X1964075Y1541830D02*
X1966370D01*
X1963625Y1541380D02*
X1966302D01*
X1961375Y1539130D02*
X1966056D01*
X1963175Y1540930D02*
X1965948D01*
X1961825Y1539580D02*
X1965879D01*
X1962725Y1540480D02*
X1965790D01*
X1962275Y1540030D02*
X1965769D01*
X1956673Y1531480D02*
X1964927D01*
X1960925Y1538680D02*
X1964310D01*
X1957772Y1531930D02*
X1963828D01*
X1960475Y1538230D02*
X1963527D01*
X1958372Y1532380D02*
X1963228D01*
X1960025Y1537780D02*
X1963024D01*
X1958789Y1532830D02*
X1962811D01*
X1959575Y1537330D02*
X1962662D01*
X1959093Y1533280D02*
X1962507D01*
X1959219Y1536880D02*
X1962398D01*
X1959315Y1533730D02*
X1962285D01*
X1959392Y1536430D02*
X1962208D01*
X1959469Y1534180D02*
X1962131D01*
X1959518Y1535980D02*
X1962082D01*
X1959563Y1534630D02*
X1962037D01*
X1959587Y1535530D02*
X1962013D01*
X1959601Y1535080D02*
X1961999D01*
G54D25*
X1955800Y1535181D02*
X1965551Y1544932D01*
Y1558415*
X1969462Y1542581D02*
X1969488Y1542607D01*
Y1558415*
X1967362Y1540181D02*
X1967520Y1540339D01*
Y1559203*
X1975800Y1535181D02*
X1984104Y1543486D01*
Y1565945*
X1965800Y1535181D02*
X1971457Y1540838D01*
Y1559203*
X1979062Y1543181D02*
X1975394Y1546849D01*
Y1559203*
X1980562Y1544681D02*
X1977362Y1547881D01*
Y1558415*
X1982362Y1545881D02*
Y1555781D01*
X1995800Y1535181D02*
Y1551643D01*
X1987462Y1559981*
X1985800Y1535181D02*
Y1567005D01*
X1984892Y1567913*
X2015800Y1535181D02*
Y1539443D01*
X1985361Y1569882*
X1984104*
X2005800Y1535181D02*
Y1545813D01*
X1987641Y1563972*
X2035800Y1535181D02*
X2030200Y1540781D01*
X2022851*
X2001624Y1562008*
X2025800Y1535181D02*
X1989131Y1571850D01*
X1984892*
X2046262Y1535643D02*
Y1579181D01*
X2040562Y1584881*
X2055800Y1535181D02*
Y1572343D01*
X2041162Y1586981*
X2040562*
X2045800Y1535181D02*
X2046262Y1535643D01*
X2075800Y1535181D02*
X2067562Y1543419D01*
Y1564481*
X2042062Y1589981*
X2065800Y1535181D02*
Y1564443D01*
X2041462Y1588781*
X2085800Y1535181D02*
X2069362Y1551619D01*
Y1564481*
X2040262Y1593581*
X2034862*
X2001624Y1562008D02*
X1989813Y1573819D01*
X1984104*
X2095984Y1567610D02*
X2093759D01*
X2090562Y1570807*
X1963462Y1590581D02*
X1960162D01*
X1951162Y1599581*
X1931400*
X1925800Y1605181*
X1965562Y1590581D02*
Y1591181D01*
X1964362Y1592381*
X1960162*
X1951762Y1600781*
X1940200*
X1935800Y1605181*
X1967662Y1590581D02*
Y1590881D01*
X1964662Y1593881*
X1960462*
X1949162Y1605181*
X1945800*
X1984104Y1585630D02*
X1988456Y1589981D01*
X2042062*
X1984104Y1581693D02*
X1991193Y1588781D01*
X2041462*
X1984892Y1579724D02*
X1992148Y1586981D01*
X2040562*
X1984104Y1577756D02*
X1985437D01*
X1992862Y1585181*
X2040262*
X2040562Y1584881*
X1933817Y1598040D02*
X1946921D01*
X2030662Y1591781D02*
X2034562Y1595681D01*
X2086300*
X2095800Y1605181*
G54D56*
X1936312Y1556057D03*
X1943312D03*
X1939812D03*
G54D60*
X1925413Y1546491D03*
X1920413Y1550791D03*
X1930413D03*
X1956562Y1541081D03*
X1969462Y1542581D03*
X1967362Y1540181D03*
X1964362D03*
X1973662Y1549481D03*
X1963646Y1549480D03*
X1960046D03*
X1979062Y1543181D03*
X1980562Y1544681D03*
X1982362Y1545881D03*
X1989446Y1550080D03*
Y1547380D03*
X2000062Y1546481D03*
X2026162Y1548281D03*
Y1550681D03*
X2075962Y1540781D03*
X2061562Y1549481D03*
X2084362Y1544081D03*
X2084062Y1550381D03*
X2108362Y1549781D03*
X2101462Y1542281D03*
X2120362Y1539881D03*
Y1550081D03*
X1925413Y1554791D03*
X1920413Y1559291D03*
X1928413Y1554791D03*
X1922413D03*
X1927894Y1564885D03*
X1923094D03*
X1925494D03*
X1933092Y1562339D03*
X1930881Y1565669D03*
X1936092Y1562339D03*
X1931024Y1555439D03*
X1933424D03*
X1941883Y1565361D03*
X1950730Y1561567D03*
X1948354Y1561504D03*
X1939392Y1562339D03*
X1945917Y1561507D03*
X1948946Y1555480D03*
X1951346D03*
X1953846D03*
X1946824Y1555439D03*
X1952866Y1567913D03*
X1952946Y1562180D03*
X1975394Y1559203D03*
X1965551Y1558415D03*
X1971457Y1559203D03*
X1969488Y1558415D03*
X1967520Y1559203D03*
X1960946Y1567480D03*
X1968446D03*
X1976246D03*
X1957163Y1551291D03*
X1977362Y1558415D03*
X1987641Y1563972D03*
X1987462Y1559981D03*
X1984104Y1569882D03*
X1984892Y1567913D03*
X1984104Y1565945D03*
X1982362Y1555781D03*
X1979962Y1553681D03*
X1996462Y1561481D03*
X1980862Y1557881D03*
X2015846Y1562080D03*
X2010446Y1556080D03*
X2012246Y1562080D03*
X2001624Y1562008D03*
X2026046Y1561180D03*
X2023346D03*
X2051962Y1551581D03*
X2043862Y1558181D03*
X2048062Y1564481D03*
X2050762D03*
X2040562D03*
X2053762D03*
X2043862D03*
X2071746Y1559780D03*
X2073762Y1552681D03*
X2073746Y1558780D03*
X2095984Y1567610D03*
X2090562Y1570807D03*
X2087362Y1554881D03*
X1923913Y1572041D03*
X1926913D03*
X1953006Y1577756D03*
X1951104Y1579724D03*
X1952870Y1573819D03*
X1955266Y1588413D03*
X1969762Y1590581D03*
X1975462D03*
X1963462D03*
X1965562D03*
X1967662D03*
X1968146Y1582180D03*
X1960646Y1574980D03*
X1975946Y1581580D03*
X1976246Y1574680D03*
X1968446D03*
X1960946Y1582180D03*
X1979362Y1590581D03*
X1984104Y1585630D03*
Y1581693D03*
X1984892Y1571850D03*
Y1579724D03*
X1984104Y1577756D03*
Y1573819D03*
X1984892Y1575787D03*
X2023762Y1583381D03*
X2025862D03*
X2040562Y1586981D03*
X2044193Y1575504D03*
X2040562Y1584881D03*
X2042422Y1577276D03*
X2075662Y1590581D03*
X2070562Y1580681D03*
X2066962D03*
X2063362D03*
X2070562Y1577981D03*
X2059762D03*
X2066962D03*
X2070562Y1572281D03*
X2063362Y1583081D03*
Y1577981D03*
Y1574981D03*
X2066962Y1572281D03*
X2059762Y1583081D03*
X2070562D03*
X2066962D03*
X2059762Y1580681D03*
X2066962Y1575281D03*
X2070562D03*
X2079504Y1583303D03*
X2090962Y1587281D03*
X2087254Y1577303D03*
X2089762Y1581581D03*
X2094562D03*
X2086811Y1573376D03*
X2099662Y1578581D03*
X2102662D03*
X2119762Y1589981D03*
X1933176Y1596215D03*
X1946576D03*
X1968562Y1593581D03*
X1988962Y1592381D03*
X1996462Y1591781D03*
X2009662D03*
X2030662D03*
X2031262Y1598981D03*
X2021662Y1591781D03*
X2034862Y1593581D03*
X2049562Y1591781D03*
X2054062Y1598981D03*
X2038162Y1591781D03*
X2064862D03*
X2067562Y1598981D03*
X2090062Y1594181D03*
X2077162Y1599281D03*
X2108362Y1592381D03*
X2101462Y1598681D03*
X2120062Y1599281D03*
X2103111Y1607870D02*
X2103712Y1607269D01*
X2103111Y1602492D02*
X2103712Y1603093D01*
X2108489Y1602492D02*
X2107888Y1603093D01*
X2108489Y1607870D02*
X2107888Y1607269D01*
X2103111Y1537870D02*
X2103712Y1537269D01*
X2103111Y1532492D02*
X2103712Y1533093D01*
X2108489Y1532492D02*
X2107888Y1533093D01*
X2108489Y1537870D02*
X2107888Y1537269D01*
X2101095Y1587763D02*
Y1586913D01*
X2096702Y1583961D02*
X2097552D01*
X2101095Y1580158D02*
Y1581008D01*
X2105488Y1583961D02*
X2104638D01*
X2101095Y1560204D02*
Y1559354D01*
X2096702Y1556402D02*
X2097552D01*
X2101095Y1552599D02*
Y1553449D01*
X2105488Y1556402D02*
X2104638D01*
X2115662Y1587763D02*
Y1586913D01*
X2111269Y1583961D02*
X2112119D01*
X2115662Y1580158D02*
Y1581008D01*
X2120055Y1583961D02*
X2119205D01*
X2115662Y1560204D02*
Y1559354D01*
X2111269Y1556402D02*
X2112119D01*
X2115662Y1552599D02*
Y1553449D01*
X2120055Y1556402D02*
X2119205D01*
G54D70*
X2095800Y1535181D02*
Y1542543D01*
X2076262Y1562081*
X2072662*
Y1564781D02*
X2075062Y1567181D01*
Y1583147*
X2078986Y1587071*
X2082196Y1590281*
X2100900*
X2115800Y1605181*
X2025562Y1569281D03*
X2072662Y1564781D03*
Y1562081D03*
X2025562Y1571981D03*
X2080504Y1585553D03*
G54D72*
X2115800Y1535181D02*
X2102700Y1548281D01*
X2099362*
X2082267Y1565376*
X2077611*
X1955606Y1567998D02*
Y1573855D01*
Y1562180D02*
Y1567913D01*
X1957346Y1555780D02*
X1955606Y1557520D01*
Y1562180*
Y1573855D02*
Y1585550D01*
X1957033Y1586976*
X1957970Y1587913*
X1978174*
X1980764Y1575814D02*
Y1585323D01*
X1978174Y1587913*
X1957346Y1555780D03*
X2077611Y1565376D03*
X2025104Y1577224D03*
G54D145*
X1925800Y1605181D03*
X1935800D03*
X1945800D03*
X1955800D03*
X1965800D03*
X1975800D03*
X1985800D03*
X1995800D03*
X2005800D03*
X2015800D03*
X2025800D03*
X2035800D03*
X2045800D03*
X2055800D03*
X2065800D03*
X2075800D03*
X2085800D03*
X2095800D03*
X2105800D03*
X2115800D03*
X1925800Y1535181D03*
X1935800D03*
X1945800D03*
X1955800D03*
X1965800D03*
X1975800D03*
X1985800D03*
X1995800D03*
X2005800D03*
X2015800D03*
X2025800D03*
X2035800D03*
X2045800D03*
X2055800D03*
X2065800D03*
X2075800D03*
X2085800D03*
X2095800D03*
X2105800D03*
X2115800D03*
G54D168*
X2115662Y1556402D03*
Y1583961D03*
X2101095Y1556402D03*
Y1583961D03*
G74*
X0Y0D02*
M02*
