*
*
G04 PADS VX.2 Build Number: 5060570 generated Gerber (RS-274-X) file*
G04 PC Version=2.1*
*
%IN "ESP32-PICO-KIT_V4.1_201"*%
*
%MOIN*%
*
%FSLAX35Y35*%
*
*
*
*
G04 PC Standard Apertures*
*
*
G04 Thermal Relief Aperture macro.*
%AMTER*
1,1,$1,0,0*
1,0,$1-$2,0,0*
21,0,$3,$4,0,0,45*
21,0,$3,$4,0,0,135*
%
*
*
G04 Annular Aperture macro.*
%AMANN*
1,1,$1,0,0*
1,0,$2,0,0*
%
*
*
G04 Odd Aperture macro.*
%AMODD*
1,1,$1,0,0*
1,0,$1-0.005,0,0*
%
*
*
G04 PC Custom Aperture Macros*
*
*
*
*
*
*
G04 PC Aperture Table*
*
%ADD010C,0.001*%
%ADD012C,0.01*%
*
*
*
*
G04 PC Circuitry*
G04 Layer Name ESP32-PICO-KIT_V4.1_201 - circuitry*
%LPD*%
*
*
G04 PC Custom Flashes*
G04 Layer Name ESP32-PICO-KIT_V4.1_201 - flashes*
%LPD*%
*
*
G04 PC Circuitry*
G04 Layer Name ESP32-PICO-KIT_V4.1_201 - circuitry*
%LPD*%
*
G54D10*
G01X1918438Y1610181D02*
X1918440D01*
X2123162D02*
X2123165D01*
X1918438Y1530181D02*
X1918440D01*
X1918438Y1610181D02*
X1918440D01*
G54D12*
X2113237Y1552402D02*
X2121237Y1560402D01*
Y1552402*
X2113237Y1560402*
Y1552402*
X2110087D02*
X2118087Y1560402D01*
Y1552402*
X2110087Y1560402*
Y1552402*
X2117237Y1555221D02*
G75*
G03Y1557583I-0J1181D01*
G01X2114087*
G03Y1555221I0J-1181*
G01X2117237*
X2113237Y1579961D02*
X2121237Y1587961D01*
Y1579961*
X2113237Y1587961*
Y1579961*
X2110087D02*
X2118087Y1587961D01*
Y1579961*
X2110087Y1587961*
Y1579961*
X2117237Y1582780D02*
G03Y1585142I-0J1181D01*
G01X2114087*
G03Y1582780I0J-1181*
G01X2117237*
X2098670Y1552402D02*
X2106670Y1560402D01*
Y1552402*
X2098670Y1560402*
Y1552402*
X2095520D02*
X2103520Y1560402D01*
Y1552402*
X2095520Y1560402*
Y1552402*
X2102670Y1555221D02*
G03Y1557583I-0J1181D01*
G01X2099520*
G03Y1555221I0J-1181*
G01X2102670*
X2098670Y1579961D02*
X2106670Y1587961D01*
Y1579961*
X2098670Y1587961*
Y1579961*
X2095520D02*
X2103520Y1587961D01*
Y1579961*
X2095520Y1587961*
Y1579961*
X2102670Y1582780D02*
G03Y1585142I-0J1181D01*
G01X2099520*
G03Y1582780I0J-1181*
G01X2102670*
X2103157Y1562307D02*
X2111157D01*
X2107157Y1558307D02*
Y1566307D01*
X2110066Y1567588D02*
X2109157Y1564307D01*
X2110066Y1567588D02*
X2110975Y1564307D01*
X2109498Y1565401D02*
X2110634D01*
X2103157Y1578055D02*
X2111157D01*
X2107157Y1574055D02*
Y1582055D01*
X2110066Y1583336D02*
X2109157Y1580055D01*
X2110066Y1583336D02*
X2110975Y1580055D01*
X2109498Y1581149D02*
X2110634D01*
X1925800Y1601181D02*
X1929800Y1605181D01*
X1925800Y1609181*
X1921800Y1605181*
X1925800Y1601181*
Y1605181D02*
Y1609181D01*
X1935800Y1601181D02*
X1939800Y1605181D01*
X1935800Y1609181*
X1931800Y1605181*
X1935800Y1601181*
Y1605181D02*
Y1609181D01*
X1945800Y1601181D02*
X1949800Y1605181D01*
X1945800Y1609181*
X1941800Y1605181*
X1945800Y1601181*
Y1605181D02*
Y1609181D01*
X1955800Y1601181D02*
X1959800Y1605181D01*
X1955800Y1609181*
X1951800Y1605181*
X1955800Y1601181*
Y1605181D02*
Y1609181D01*
X1965800Y1601181D02*
X1969800Y1605181D01*
X1965800Y1609181*
X1961800Y1605181*
X1965800Y1601181*
Y1605181D02*
Y1609181D01*
X1975800Y1601181D02*
X1979800Y1605181D01*
X1975800Y1609181*
X1971800Y1605181*
X1975800Y1601181*
Y1605181D02*
Y1609181D01*
X1985800Y1601181D02*
X1989800Y1605181D01*
X1985800Y1609181*
X1981800Y1605181*
X1985800Y1601181*
Y1605181D02*
Y1609181D01*
X1995800Y1601181D02*
X1999800Y1605181D01*
X1995800Y1609181*
X1991800Y1605181*
X1995800Y1601181*
Y1605181D02*
Y1609181D01*
X2005800Y1601181D02*
X2009800Y1605181D01*
X2005800Y1609181*
X2001800Y1605181*
X2005800Y1601181*
Y1605181D02*
Y1609181D01*
X2015800Y1601181D02*
X2019800Y1605181D01*
X2015800Y1609181*
X2011800Y1605181*
X2015800Y1601181*
Y1605181D02*
Y1609181D01*
X2025800Y1601181D02*
X2029800Y1605181D01*
X2025800Y1609181*
X2021800Y1605181*
X2025800Y1601181*
Y1605181D02*
Y1609181D01*
X2035800Y1601181D02*
X2039800Y1605181D01*
X2035800Y1609181*
X2031800Y1605181*
X2035800Y1601181*
Y1605181D02*
Y1609181D01*
X2045800Y1601181D02*
X2049800Y1605181D01*
X2045800Y1609181*
X2041800Y1605181*
X2045800Y1601181*
Y1605181D02*
Y1609181D01*
X2055800Y1601181D02*
X2059800Y1605181D01*
X2055800Y1609181*
X2051800Y1605181*
X2055800Y1601181*
Y1605181D02*
Y1609181D01*
X2065800Y1601181D02*
X2069800Y1605181D01*
X2065800Y1609181*
X2061800Y1605181*
X2065800Y1601181*
Y1605181D02*
Y1609181D01*
X2075800Y1601181D02*
X2079800Y1605181D01*
X2075800Y1609181*
X2071800Y1605181*
X2075800Y1601181*
Y1605181D02*
Y1609181D01*
X2085800Y1601181D02*
X2089800Y1605181D01*
X2085800Y1609181*
X2081800Y1605181*
X2085800Y1601181*
Y1605181D02*
Y1609181D01*
X2095800Y1601181D02*
X2099800Y1605181D01*
X2095800Y1609181*
X2091800Y1605181*
X2095800Y1601181*
Y1605181D02*
Y1609181D01*
X2105800Y1601181D02*
X2109800Y1605181D01*
X2105800Y1609181*
X2101800Y1605181*
X2105800Y1601181*
Y1605181D02*
Y1609181D01*
X2115800Y1601181D02*
X2119800Y1605181D01*
X2115800Y1609181*
X2111800Y1605181*
X2115800Y1601181*
Y1605181D02*
Y1609181D01*
X1925800Y1531181D02*
X1929800Y1535181D01*
X1925800Y1539181*
X1921800Y1535181*
X1925800Y1531181*
Y1535181D02*
Y1539181D01*
X1935800Y1531181D02*
X1939800Y1535181D01*
X1935800Y1539181*
X1931800Y1535181*
X1935800Y1531181*
Y1535181D02*
Y1539181D01*
X1945800Y1531181D02*
X1949800Y1535181D01*
X1945800Y1539181*
X1941800Y1535181*
X1945800Y1531181*
Y1535181D02*
Y1539181D01*
X1955800Y1531181D02*
X1959800Y1535181D01*
X1955800Y1539181*
X1951800Y1535181*
X1955800Y1531181*
Y1535181D02*
Y1539181D01*
X1965800Y1531181D02*
X1969800Y1535181D01*
X1965800Y1539181*
X1961800Y1535181*
X1965800Y1531181*
Y1535181D02*
Y1539181D01*
X1975800Y1531181D02*
X1979800Y1535181D01*
X1975800Y1539181*
X1971800Y1535181*
X1975800Y1531181*
Y1535181D02*
Y1539181D01*
X1985800Y1531181D02*
X1989800Y1535181D01*
X1985800Y1539181*
X1981800Y1535181*
X1985800Y1531181*
Y1535181D02*
Y1539181D01*
X1995800Y1531181D02*
X1999800Y1535181D01*
X1995800Y1539181*
X1991800Y1535181*
X1995800Y1531181*
Y1535181D02*
Y1539181D01*
X2005800Y1531181D02*
X2009800Y1535181D01*
X2005800Y1539181*
X2001800Y1535181*
X2005800Y1531181*
Y1535181D02*
Y1539181D01*
X2015800Y1531181D02*
X2019800Y1535181D01*
X2015800Y1539181*
X2011800Y1535181*
X2015800Y1531181*
Y1535181D02*
Y1539181D01*
X2025800Y1531181D02*
X2029800Y1535181D01*
X2025800Y1539181*
X2021800Y1535181*
X2025800Y1531181*
Y1535181D02*
Y1539181D01*
X2035800Y1531181D02*
X2039800Y1535181D01*
X2035800Y1539181*
X2031800Y1535181*
X2035800Y1531181*
Y1535181D02*
Y1539181D01*
X2045800Y1531181D02*
X2049800Y1535181D01*
X2045800Y1539181*
X2041800Y1535181*
X2045800Y1531181*
Y1535181D02*
Y1539181D01*
X2055800Y1531181D02*
X2059800Y1535181D01*
X2055800Y1539181*
X2051800Y1535181*
X2055800Y1531181*
Y1535181D02*
Y1539181D01*
X2065800Y1531181D02*
X2069800Y1535181D01*
X2065800Y1539181*
X2061800Y1535181*
X2065800Y1531181*
Y1535181D02*
Y1539181D01*
X2075800Y1531181D02*
X2079800Y1535181D01*
X2075800Y1539181*
X2071800Y1535181*
X2075800Y1531181*
Y1535181D02*
Y1539181D01*
X2085800Y1531181D02*
X2089800Y1535181D01*
X2085800Y1539181*
X2081800Y1535181*
X2085800Y1531181*
Y1535181D02*
Y1539181D01*
X2095800Y1531181D02*
X2099800Y1535181D01*
X2095800Y1539181*
X2091800Y1535181*
X2095800Y1531181*
Y1535181D02*
Y1539181D01*
X2105800Y1531181D02*
X2109800Y1535181D01*
X2105800Y1539181*
X2101800Y1535181*
X2105800Y1531181*
Y1535181D02*
Y1539181D01*
X2115800Y1531181D02*
X2119800Y1535181D01*
X2115800Y1539181*
X2111800Y1535181*
X2115800Y1531181*
Y1535181D02*
Y1539181D01*
X1921413Y1546491D02*
X1929413D01*
X1925413Y1542491D02*
Y1550491D01*
X1916413Y1550791D02*
X1924413D01*
X1920413Y1546791D02*
Y1554791D01*
X1926413Y1550791D02*
X1934413D01*
X1930413Y1546791D02*
Y1554791D01*
X1952562Y1541081D02*
X1960562D01*
X1956562Y1537081D02*
Y1545081D01*
X1965462Y1542581D02*
X1973462D01*
X1969462Y1538581D02*
Y1546581D01*
X1963362Y1540181D02*
X1971362D01*
X1967362Y1536181D02*
Y1544181D01*
X1960362Y1540181D02*
X1968362D01*
X1964362Y1536181D02*
Y1544181D01*
X1969662Y1549481D02*
X1977662D01*
X1973662Y1545481D02*
Y1553481D01*
X1959646Y1549480D02*
X1967646D01*
X1963646Y1545480D02*
Y1553480D01*
X1956046Y1549480D02*
X1964046D01*
X1960046Y1545480D02*
Y1553480D01*
X1975062Y1543181D02*
X1983062D01*
X1979062Y1539181D02*
Y1547181D01*
X1976562Y1544681D02*
X1984562D01*
X1980562Y1540681D02*
Y1548681D01*
X1978362Y1545881D02*
X1986362D01*
X1982362Y1541881D02*
Y1549881D01*
X1985446Y1550080D02*
X1993446D01*
X1989446Y1546080D02*
Y1554080D01*
X1985446Y1547380D02*
X1993446D01*
X1989446Y1543380D02*
Y1551380D01*
X1996062Y1546481D02*
X2004062D01*
X2000062Y1542481D02*
Y1550481D01*
X2022162Y1548281D02*
X2030162D01*
X2026162Y1544281D02*
Y1552281D01*
X2022162Y1550681D02*
X2030162D01*
X2026162Y1546681D02*
Y1554681D01*
X2071962Y1540781D02*
X2079962D01*
X2075962Y1536781D02*
Y1544781D01*
X2057562Y1549481D02*
X2065562D01*
X2061562Y1545481D02*
Y1553481D01*
X2080362Y1544081D02*
X2088362D01*
X2084362Y1540081D02*
Y1548081D01*
X2080062Y1550381D02*
X2088062D01*
X2084062Y1546381D02*
Y1554381D01*
X2104362Y1549781D02*
X2112362D01*
X2108362Y1545781D02*
Y1553781D01*
X2097462Y1542281D02*
X2105462D01*
X2101462Y1538281D02*
Y1546281D01*
X2116362Y1539881D02*
X2124362D01*
X2120362Y1535881D02*
Y1543881D01*
X2116362Y1550081D02*
X2124362D01*
X2120362Y1546081D02*
Y1554081D01*
X1921413Y1554791D02*
X1929413D01*
X1925413Y1550791D02*
Y1558791D01*
X1916413Y1559291D02*
X1924413D01*
X1920413Y1555291D02*
Y1563291D01*
X1932312Y1552057D02*
X1940312D01*
Y1560057*
X1932312*
Y1552057*
X1936312Y1556057D02*
Y1560057D01*
X1924413Y1554791D02*
X1932413D01*
X1928413Y1550791D02*
Y1558791D01*
X1918413Y1554791D02*
X1926413D01*
X1922413Y1550791D02*
Y1558791D01*
X1923894Y1564885D02*
X1931894D01*
X1927894Y1560885D02*
Y1568885D01*
X1919094Y1564885D02*
X1927094D01*
X1923094Y1560885D02*
Y1568885D01*
X1921494Y1564885D02*
X1929494D01*
X1925494Y1560885D02*
Y1568885D01*
X1929092Y1562339D02*
X1937092D01*
X1933092Y1558339D02*
Y1566339D01*
X1926881Y1565669D02*
X1934881D01*
X1930881Y1561669D02*
Y1569669D01*
X1932092Y1562339D02*
X1940092D01*
X1936092Y1558339D02*
Y1566339D01*
X1927024Y1555439D02*
X1935024D01*
X1931024Y1551439D02*
Y1559439D01*
X1929424Y1555439D02*
X1937424D01*
X1933424Y1551439D02*
Y1559439D01*
X1939312Y1552057D02*
X1947312D01*
Y1560057*
X1939312*
Y1552057*
X1943312Y1556057D02*
Y1560057D01*
X1937883Y1565361D02*
X1945883D01*
X1941883Y1561361D02*
Y1569361D01*
X1946730Y1561567D02*
X1954730D01*
X1950730Y1557567D02*
Y1565567D01*
X1944354Y1561504D02*
X1952354D01*
X1948354Y1557504D02*
Y1565504D01*
X1935392Y1562339D02*
X1943392D01*
X1939392Y1558339D02*
Y1566339D01*
X1935812Y1552057D02*
X1943812D01*
Y1560057*
X1935812*
Y1552057*
X1939812Y1556057D02*
Y1560057D01*
X1941917Y1561507D02*
X1949917D01*
X1945917Y1557507D02*
Y1565507D01*
X1944946Y1555480D02*
X1952946D01*
X1948946Y1551480D02*
Y1559480D01*
X1947346Y1555480D02*
X1955346D01*
X1951346Y1551480D02*
Y1559480D01*
X1949846Y1555480D02*
X1957846D01*
X1953846Y1551480D02*
Y1559480D01*
X1942824Y1555439D02*
X1950824D01*
X1946824Y1551439D02*
Y1559439D01*
X1948866Y1567913D02*
X1956866D01*
X1952866Y1563913D02*
Y1571913D01*
X1948946Y1562180D02*
X1956946D01*
X1952946Y1558180D02*
Y1566180D01*
X1971394Y1559203D02*
X1979394D01*
X1975394Y1555203D02*
Y1563203D01*
X1961551Y1558415D02*
X1969551D01*
X1965551Y1554415D02*
Y1562415D01*
X1967457Y1559203D02*
X1975457D01*
X1971457Y1555203D02*
Y1563203D01*
X1965488Y1558415D02*
X1973488D01*
X1969488Y1554415D02*
Y1562415D01*
X1963520Y1559203D02*
X1971520D01*
X1967520Y1555203D02*
Y1563203D01*
X1956946Y1567480D02*
X1964946D01*
X1960946Y1563480D02*
Y1571480D01*
X1964446Y1567480D02*
X1972446D01*
X1968446Y1563480D02*
Y1571480D01*
X1972246Y1567480D02*
X1980246D01*
X1976246Y1563480D02*
Y1571480D01*
X1953163Y1551291D02*
X1961163D01*
X1957163Y1547291D02*
Y1555291D01*
X1953346Y1551780D02*
X1961346Y1559780D01*
X1953346D02*
X1961346Y1551780D01*
X1973362Y1558415D02*
X1981362D01*
X1977362Y1554415D02*
Y1562415D01*
X1983641Y1563972D02*
X1991641D01*
X1987641Y1559972D02*
Y1567972D01*
X1983462Y1559981D02*
X1991462D01*
X1987462Y1555981D02*
Y1563981D01*
X1980104Y1569882D02*
X1988104D01*
X1984104Y1565882D02*
Y1573882D01*
X1980892Y1567913D02*
X1988892D01*
X1984892Y1563913D02*
Y1571913D01*
X1980104Y1565945D02*
X1988104D01*
X1984104Y1561945D02*
Y1569945D01*
X1978362Y1555781D02*
X1986362D01*
X1982362Y1551781D02*
Y1559781D01*
X1975962Y1553681D02*
X1983962D01*
X1979962Y1549681D02*
Y1557681D01*
X1992462Y1561481D02*
X2000462D01*
X1996462Y1557481D02*
Y1565481D01*
X1976862Y1557881D02*
X1984862D01*
X1980862Y1553881D02*
Y1561881D01*
X2011846Y1562080D02*
X2019846D01*
X2015846Y1558080D02*
Y1566080D01*
X2006446Y1556080D02*
X2014446D01*
X2010446Y1552080D02*
Y1560080D01*
X2008246Y1562080D02*
X2016246D01*
X2012246Y1558080D02*
Y1566080D01*
X1997624Y1562008D02*
X2005624D01*
X2001624Y1558008D02*
Y1566008D01*
X2022046Y1561180D02*
X2030046D01*
X2026046Y1557180D02*
Y1565180D01*
X2019346Y1561180D02*
X2027346D01*
X2023346Y1557180D02*
Y1565180D01*
X2021562Y1565281D02*
X2029562D01*
X2021562Y1573281*
X2029562*
X2021562Y1565281*
X2047962Y1551581D02*
X2055962D01*
X2051962Y1547581D02*
Y1555581D01*
X2039862Y1558181D02*
X2047862D01*
X2043862Y1554181D02*
Y1562181D01*
X2044062Y1564481D02*
X2052062D01*
X2048062Y1560481D02*
Y1568481D01*
X2046762Y1564481D02*
X2054762D01*
X2050762Y1560481D02*
Y1568481D01*
X2036562Y1564481D02*
X2044562D01*
X2040562Y1560481D02*
Y1568481D01*
X2049762Y1564481D02*
X2057762D01*
X2053762Y1560481D02*
Y1568481D01*
X2039862Y1564481D02*
X2047862D01*
X2043862Y1560481D02*
Y1568481D01*
X2067746Y1559780D02*
X2075746D01*
X2071746Y1555780D02*
Y1563780D01*
X2068662Y1560781D02*
X2076662D01*
X2068662Y1568781*
X2076662*
X2068662Y1560781*
Y1558081D02*
X2076662D01*
X2068662Y1566081*
X2076662*
X2068662Y1558081*
X2069762Y1552681D02*
X2077762D01*
X2073762Y1548681D02*
Y1556681D01*
X2069746Y1558780D02*
X2077746D01*
X2073746Y1554780D02*
Y1562780D01*
X2091984Y1567610D02*
X2099984D01*
X2095984Y1563610D02*
Y1571610D01*
X2086562Y1570807D02*
X2094562D01*
X2090562Y1566807D02*
Y1574807D01*
X2083362Y1554881D02*
X2091362D01*
X2087362Y1550881D02*
Y1558881D01*
X2073611Y1561376D02*
X2081611Y1569376D01*
X2073611D02*
X2081611Y1561376D01*
X1919913Y1572041D02*
X1927913D01*
X1923913Y1568041D02*
Y1576041D01*
X1922913Y1572041D02*
X1930913D01*
X1926913Y1568041D02*
Y1576041D01*
X1949006Y1577756D02*
X1957006D01*
X1953006Y1573756D02*
Y1581756D01*
X1947104Y1579724D02*
X1955104D01*
X1951104Y1575724D02*
Y1583724D01*
X1948870Y1573819D02*
X1956870D01*
X1952870Y1569819D02*
Y1577819D01*
X1951266Y1588413D02*
X1959266D01*
X1955266Y1584413D02*
Y1592413D01*
X1965762Y1590581D02*
X1973762D01*
X1969762Y1586581D02*
Y1594581D01*
X1971462Y1590581D02*
X1979462D01*
X1975462Y1586581D02*
Y1594581D01*
X1959462Y1590581D02*
X1967462D01*
X1963462Y1586581D02*
Y1594581D01*
X1961562Y1590581D02*
X1969562D01*
X1965562Y1586581D02*
Y1594581D01*
X1963662Y1590581D02*
X1971662D01*
X1967662Y1586581D02*
Y1594581D01*
X1964146Y1582180D02*
X1972146D01*
X1968146Y1578180D02*
Y1586180D01*
X1956646Y1574980D02*
X1964646D01*
X1960646Y1570980D02*
Y1578980D01*
X1971946Y1581580D02*
X1979946D01*
X1975946Y1577580D02*
Y1585580D01*
X1972246Y1574680D02*
X1980246D01*
X1976246Y1570680D02*
Y1578680D01*
X1964446Y1574680D02*
X1972446D01*
X1968446Y1570680D02*
Y1578680D01*
X1956946Y1582180D02*
X1964946D01*
X1960946Y1578180D02*
Y1586180D01*
X1975362Y1590581D02*
X1983362D01*
X1979362Y1586581D02*
Y1594581D01*
X1980104Y1585630D02*
X1988104D01*
X1984104Y1581630D02*
Y1589630D01*
X1980104Y1581693D02*
X1988104D01*
X1984104Y1577693D02*
Y1585693D01*
X1980892Y1571850D02*
X1988892D01*
X1984892Y1567850D02*
Y1575850D01*
X1980892Y1579724D02*
X1988892D01*
X1984892Y1575724D02*
Y1583724D01*
X1980104Y1577756D02*
X1988104D01*
X1984104Y1573756D02*
Y1581756D01*
X1980104Y1573819D02*
X1988104D01*
X1984104Y1569819D02*
Y1577819D01*
X1980892Y1575787D02*
X1988892D01*
X1984892Y1571787D02*
Y1579787D01*
X2019762Y1583381D02*
X2027762D01*
X2023762Y1579381D02*
Y1587381D01*
X2021862Y1583381D02*
X2029862D01*
X2025862Y1579381D02*
Y1587381D01*
X2021562Y1567981D02*
X2029562D01*
X2021562Y1575981*
X2029562*
X2021562Y1567981*
X2021104Y1573224D02*
X2029104Y1581224D01*
X2021104D02*
X2029104Y1573224D01*
X2036562Y1586981D02*
X2044562D01*
X2040562Y1582981D02*
Y1590981D01*
X2040193Y1575504D02*
X2048193D01*
X2044193Y1571504D02*
Y1579504D01*
X2036562Y1584881D02*
X2044562D01*
X2040562Y1580881D02*
Y1588881D01*
X2038422Y1577276D02*
X2046422D01*
X2042422Y1573276D02*
Y1581276D01*
X2071662Y1590581D02*
X2079662D01*
X2075662Y1586581D02*
Y1594581D01*
X2066562Y1580681D02*
X2074562D01*
X2070562Y1576681D02*
Y1584681D01*
X2062962Y1580681D02*
X2070962D01*
X2066962Y1576681D02*
Y1584681D01*
X2059362Y1580681D02*
X2067362D01*
X2063362Y1576681D02*
Y1584681D01*
X2066562Y1577981D02*
X2074562D01*
X2070562Y1573981D02*
Y1581981D01*
X2055762Y1577981D02*
X2063762D01*
X2059762Y1573981D02*
Y1581981D01*
X2062962Y1577981D02*
X2070962D01*
X2066962Y1573981D02*
Y1581981D01*
X2066562Y1572281D02*
X2074562D01*
X2070562Y1568281D02*
Y1576281D01*
X2059362Y1583081D02*
X2067362D01*
X2063362Y1579081D02*
Y1587081D01*
X2059362Y1577981D02*
X2067362D01*
X2063362Y1573981D02*
Y1581981D01*
X2059362Y1574981D02*
X2067362D01*
X2063362Y1570981D02*
Y1578981D01*
X2062962Y1572281D02*
X2070962D01*
X2066962Y1568281D02*
Y1576281D01*
X2055762Y1583081D02*
X2063762D01*
X2059762Y1579081D02*
Y1587081D01*
X2066562Y1583081D02*
X2074562D01*
X2070562Y1579081D02*
Y1587081D01*
X2062962Y1583081D02*
X2070962D01*
X2066962Y1579081D02*
Y1587081D01*
X2055762Y1580681D02*
X2063762D01*
X2059762Y1576681D02*
Y1584681D01*
X2062962Y1575281D02*
X2070962D01*
X2066962Y1571281D02*
Y1579281D01*
X2066562Y1575281D02*
X2074562D01*
X2070562Y1571281D02*
Y1579281D01*
X2075504Y1583303D02*
X2083504D01*
X2079504Y1579303D02*
Y1587303D01*
X2086962Y1587281D02*
X2094962D01*
X2090962Y1583281D02*
Y1591281D01*
X2083254Y1577303D02*
X2091254D01*
X2087254Y1573303D02*
Y1581303D01*
X2085762Y1581581D02*
X2093762D01*
X2089762Y1577581D02*
Y1585581D01*
X2090562Y1581581D02*
X2098562D01*
X2094562Y1577581D02*
Y1585581D01*
X2082811Y1573376D02*
X2090811D01*
X2086811Y1569376D02*
Y1577376D01*
X2076504Y1581553D02*
X2084504D01*
X2076504Y1589553*
X2084504*
X2076504Y1581553*
X2095662Y1578581D02*
X2103662D01*
X2099662Y1574581D02*
Y1582581D01*
X2098662Y1578581D02*
X2106662D01*
X2102662Y1574581D02*
Y1582581D01*
X2115762Y1589981D02*
X2123762D01*
X2119762Y1585981D02*
Y1593981D01*
X1929176Y1596215D02*
X1937176D01*
X1933176Y1592215D02*
Y1600215D01*
X1942576Y1596215D02*
X1950576D01*
X1946576Y1592215D02*
Y1600215D01*
X1964562Y1593581D02*
X1972562D01*
X1968562Y1589581D02*
Y1597581D01*
X1984962Y1592381D02*
X1992962D01*
X1988962Y1588381D02*
Y1596381D01*
X1992462Y1591781D02*
X2000462D01*
X1996462Y1587781D02*
Y1595781D01*
X2005662Y1591781D02*
X2013662D01*
X2009662Y1587781D02*
Y1595781D01*
X2026662Y1591781D02*
X2034662D01*
X2030662Y1587781D02*
Y1595781D01*
X2027262Y1598981D02*
X2035262D01*
X2031262Y1594981D02*
Y1602981D01*
X2017662Y1591781D02*
X2025662D01*
X2021662Y1587781D02*
Y1595781D01*
X2030862Y1593581D02*
X2038862D01*
X2034862Y1589581D02*
Y1597581D01*
X2045562Y1591781D02*
X2053562D01*
X2049562Y1587781D02*
Y1595781D01*
X2050062Y1598981D02*
X2058062D01*
X2054062Y1594981D02*
Y1602981D01*
X2034162Y1591781D02*
X2042162D01*
X2038162Y1587781D02*
Y1595781D01*
X2060862Y1591781D02*
X2068862D01*
X2064862Y1587781D02*
Y1595781D01*
X2063562Y1598981D02*
X2071562D01*
X2067562Y1594981D02*
Y1602981D01*
X2086062Y1594181D02*
X2094062D01*
X2090062Y1590181D02*
Y1598181D01*
X2073162Y1599281D02*
X2081162D01*
X2077162Y1595281D02*
Y1603281D01*
X2104362Y1592381D02*
X2112362D01*
X2108362Y1588381D02*
Y1596381D01*
X2097462Y1598681D02*
X2105462D01*
X2101462Y1594681D02*
Y1602681D01*
X2116062Y1599281D02*
X2124062D01*
X2120062Y1595281D02*
Y1603281D01*
X1923162Y1610181D02*
G03X1918438Y1605457I0J-4724D01*
G01Y1534906*
G03X1923162Y1530181I4724J-0*
G01X2118438*
G03X2123162Y1534906I-0J4725*
G01Y1605457*
G03X2118438Y1610181I-4724J-0*
G01X1923162*
X3149606Y1766803D02*
X3407606D01*
X3149606Y1742803D02*
X3407606D01*
X3149606Y1718803D02*
X3407606D01*
X3149606Y1694803D02*
X3407606D01*
X3149606Y1670803D02*
X3407606D01*
X3149606Y1646803D02*
X3407606D01*
X3149606Y1622803D02*
X3407606D01*
X3149606Y1598803D02*
X3407606D01*
X3149606Y1574803D02*
X3407606D01*
X3149606Y1766803D02*
Y1574803D01*
X3233606Y1766803D02*
Y1574803D01*
X3269606Y1766803D02*
Y1574803D01*
X3305606Y1766803D02*
Y1574803D01*
X3359606Y1766803D02*
Y1574803D01*
X3407606Y1766803D02*
Y1574803D01*
X3185106Y1755553D02*
X3184561Y1756303D01*
X3183743Y1756678*
X3182652*
X3181834Y1756303*
X3181288Y1755553*
Y1754803*
X3181561Y1754053*
X3181834Y1753678*
X3182379Y1753303*
X3184015Y1752553*
X3184561Y1752178*
X3184834Y1751803*
X3185106Y1751053*
Y1749928*
X3184561Y1749178*
X3183743Y1748803*
X3182652*
X3181834Y1749178*
X3181288Y1749928*
X3187561Y1756678D02*
Y1748803D01*
X3193834Y1756678D02*
X3190015Y1748803D01*
Y1756678D02*
X3193834D01*
X3190015Y1748803D02*
X3193834D01*
X3196288Y1756678D02*
Y1748803D01*
Y1756678D02*
X3199834D01*
X3196288Y1752928D02*
X3198470D01*
X3196288Y1748803D02*
X3199834D01*
X3243470Y1756678D02*
X3242924Y1756303D01*
X3242379Y1755553*
X3242106Y1754803*
X3241834Y1753678*
Y1751803*
X3242106Y1750678*
X3242379Y1749928*
X3242924Y1749178*
X3243470Y1748803*
X3244561*
X3245106Y1749178*
X3245652Y1749928*
X3245924Y1750678*
X3246197Y1751803*
Y1753678*
X3245924Y1754803*
X3245652Y1755553*
X3245106Y1756303*
X3244561Y1756678*
X3243470*
X3244288Y1750303D02*
X3245924Y1748053D01*
X3250561Y1756678D02*
Y1748803D01*
X3248652Y1756678D02*
X3252470D01*
X3254924D02*
X3257106Y1752928D01*
Y1748803*
X3259288Y1756678D02*
X3257106Y1752928D01*
X3281652Y1755553D02*
X3281106Y1756303D01*
X3280288Y1756678*
X3279197*
X3278379Y1756303*
X3277834Y1755553*
Y1754803*
X3278106Y1754053*
X3278379Y1753678*
X3278924Y1753303*
X3280561Y1752553*
X3281106Y1752178*
X3281379Y1751803*
X3281652Y1751053*
Y1749928*
X3281106Y1749178*
X3280288Y1748803*
X3279197*
X3278379Y1749178*
X3277834Y1749928*
X3284106Y1756678D02*
X3286288Y1752928D01*
Y1748803*
X3288470Y1756678D02*
X3286288Y1752928D01*
X3290924Y1756678D02*
Y1748803D01*
Y1756678D02*
X3293106Y1748803D01*
X3295288Y1756678D02*
X3293106Y1748803D01*
X3295288Y1756678D02*
Y1748803D01*
X3317106Y1756678D02*
Y1748803D01*
Y1756678D02*
X3319561D01*
X3320379Y1756303*
X3320652Y1755928*
X3320924Y1755178*
Y1754053*
X3320652Y1753303*
X3320379Y1752928*
X3319561Y1752553*
X3317106*
X3323379Y1756678D02*
Y1748803D01*
X3326652*
X3331288Y1756678D02*
X3329106Y1748803D01*
X3331288Y1756678D02*
X3333470Y1748803D01*
X3329924Y1751428D02*
X3332652D01*
X3337834Y1756678D02*
Y1748803D01*
X3335924Y1756678D02*
X3339743D01*
X3342197D02*
Y1748803D01*
Y1756678D02*
X3345743D01*
X3342197Y1752928D02*
X3344379D01*
X3342197Y1748803D02*
X3345743D01*
X3348197Y1756678D02*
Y1748803D01*
Y1756678D02*
X3350106D01*
X3350924Y1756303*
X3351470Y1755553*
X3351743Y1754803*
X3352015Y1753678*
Y1751803*
X3351743Y1750678*
X3351470Y1749928*
X3350924Y1749178*
X3350106Y1748803*
X3348197*
X3376288Y1756678D02*
Y1748803D01*
X3374379Y1756678D02*
X3378197D01*
X3382288D02*
X3381743Y1756303D01*
X3381197Y1755553*
X3380924Y1754803*
X3380652Y1753678*
Y1751803*
X3380924Y1750678*
X3381197Y1749928*
X3381743Y1749178*
X3382288Y1748803*
X3383379*
X3383924Y1749178*
X3384470Y1749928*
X3384743Y1750678*
X3385015Y1751803*
Y1753678*
X3384743Y1754803*
X3384470Y1755553*
X3383924Y1756303*
X3383379Y1756678*
X3382288*
X3387470D02*
Y1748803D01*
X3390743*
X3159152Y1730053D02*
X3158879Y1728928D01*
X3158334Y1728178*
X3157515Y1727803*
X3157243*
X3156424Y1728178*
X3155879Y1728928*
X3155606Y1730053*
Y1730428*
X3155879Y1731553*
X3156424Y1732303*
X3157243Y1732678*
X3157515*
X3158334Y1732303*
X3158879Y1731553*
X3159152Y1730053*
Y1728178*
X3158879Y1726303*
X3158334Y1725178*
X3157515Y1724803*
X3156970*
X3156152Y1725178*
X3155879Y1725928*
X3243606Y1731178D02*
X3244152Y1731553D01*
X3244970Y1732678*
Y1724803*
X3250697Y1731553D02*
X3250424Y1732303D01*
X3249606Y1732678*
X3249061*
X3248243Y1732303*
X3247697Y1731178*
X3247424Y1729303*
Y1727428*
X3247697Y1725928*
X3248243Y1725178*
X3249061Y1724803*
X3249334*
X3250152Y1725178*
X3250697Y1725928*
X3250970Y1727053*
Y1727428*
X3250697Y1728553*
X3250152Y1729303*
X3249334Y1729678*
X3249061*
X3248243Y1729303*
X3247697Y1728553*
X3247424Y1727428*
X3256970Y1732678D02*
X3254243D01*
X3253970Y1729303*
X3254243Y1729678*
X3255061Y1730053*
X3255879*
X3256697Y1729678*
X3257243Y1728928*
X3257515Y1727803*
X3257243Y1727053*
X3256970Y1725928*
X3256424Y1725178*
X3255606Y1724803*
X3254788*
X3253970Y1725178*
X3253697Y1725553*
X3253424Y1726303*
X3281606Y1730803D02*
X3293606D01*
X3287606Y1724803D02*
Y1736803D01*
X3314243Y1732678D02*
X3316424Y1728928D01*
Y1724803*
X3318606Y1732678D02*
X3316424Y1728928D01*
X3321061Y1732678D02*
Y1724803D01*
Y1732678D02*
X3324606D01*
X3321061Y1728928D02*
X3323243D01*
X3321061Y1724803D02*
X3324606D01*
X3330879Y1731553D02*
X3330334Y1732303D01*
X3329515Y1732678*
X3328424*
X3327606Y1732303*
X3327061Y1731553*
Y1730803*
X3327334Y1730053*
X3327606Y1729678*
X3328152Y1729303*
X3329788Y1728553*
X3330334Y1728178*
X3330606Y1727803*
X3330879Y1727053*
Y1725928*
X3330334Y1725178*
X3329515Y1724803*
X3328424*
X3327606Y1725178*
X3327061Y1725928*
X3367424Y1731553D02*
Y1724803D01*
X3364970Y1728178D02*
X3369879D01*
X3377243Y1734178D02*
X3372334Y1722178D01*
X3379697Y1728178D02*
X3384606D01*
X3388697Y1732678D02*
X3387879Y1732303D01*
X3387334Y1731178*
X3387061Y1729303*
Y1728178*
X3387334Y1726303*
X3387879Y1725178*
X3388697Y1724803*
X3389243*
X3390061Y1725178*
X3390606Y1726303*
X3390879Y1728178*
Y1729303*
X3390606Y1731178*
X3390061Y1732303*
X3389243Y1732678*
X3388697*
X3393606Y1725553D02*
X3393334Y1725178D01*
X3393606Y1724803*
X3393879Y1725178*
X3393606Y1725553*
X3397970Y1732678D02*
X3397152Y1732303D01*
X3396606Y1731178*
X3396334Y1729303*
Y1728178*
X3396606Y1726303*
X3397152Y1725178*
X3397970Y1724803*
X3398515*
X3399334Y1725178*
X3399879Y1726303*
X3400152Y1728178*
Y1729303*
X3399879Y1731178*
X3399334Y1732303*
X3398515Y1732678*
X3397970*
X3155606Y1707178D02*
X3156152Y1707553D01*
X3156970Y1708678*
Y1700803*
X3162970Y1708678D02*
X3160243D01*
X3159970Y1705303*
X3160243Y1705678*
X3161061Y1706053*
X3161879*
X3162697Y1705678*
X3163243Y1704928*
X3163515Y1703803*
X3163243Y1703053*
X3162970Y1701928*
X3162424Y1701178*
X3161606Y1700803*
X3160788*
X3159970Y1701178*
X3159697Y1701553*
X3159424Y1702303*
X3249197Y1708678D02*
X3252197D01*
X3250561Y1705678*
X3251379*
X3251924Y1705303*
X3252197Y1704928*
X3252470Y1703803*
Y1703053*
X3252197Y1701928*
X3251652Y1701178*
X3250834Y1700803*
X3250015*
X3249197Y1701178*
X3248924Y1701553*
X3248652Y1702303*
X3281606Y1700803D02*
X3293606Y1712803D01*
X3281606D02*
X3293606Y1700803D01*
X3314243Y1708678D02*
X3316424Y1704928D01*
Y1700803*
X3318606Y1708678D02*
X3316424Y1704928D01*
X3321061Y1708678D02*
Y1700803D01*
Y1708678D02*
X3324606D01*
X3321061Y1704928D02*
X3323243D01*
X3321061Y1700803D02*
X3324606D01*
X3330879Y1707553D02*
X3330334Y1708303D01*
X3329515Y1708678*
X3328424*
X3327606Y1708303*
X3327061Y1707553*
Y1706803*
X3327334Y1706053*
X3327606Y1705678*
X3328152Y1705303*
X3329788Y1704553*
X3330334Y1704178*
X3330606Y1703803*
X3330879Y1703053*
Y1701928*
X3330334Y1701178*
X3329515Y1700803*
X3328424*
X3327606Y1701178*
X3327061Y1701928*
X3367424Y1707553D02*
Y1700803D01*
X3364970Y1704178D02*
X3369879D01*
X3377243Y1710178D02*
X3372334Y1698178D01*
X3379697Y1704178D02*
X3384606D01*
X3388697Y1708678D02*
X3387879Y1708303D01*
X3387334Y1707178*
X3387061Y1705303*
Y1704178*
X3387334Y1702303*
X3387879Y1701178*
X3388697Y1700803*
X3389243*
X3390061Y1701178*
X3390606Y1702303*
X3390879Y1704178*
Y1705303*
X3390606Y1707178*
X3390061Y1708303*
X3389243Y1708678*
X3388697*
X3393606Y1701553D02*
X3393334Y1701178D01*
X3393606Y1700803*
X3393879Y1701178*
X3393606Y1701553*
X3397970Y1708678D02*
X3397152Y1708303D01*
X3396606Y1707178*
X3396334Y1705303*
Y1704178*
X3396606Y1702303*
X3397152Y1701178*
X3397970Y1700803*
X3398515*
X3399334Y1701178*
X3399879Y1702303*
X3400152Y1704178*
Y1705303*
X3399879Y1707178*
X3399334Y1708303*
X3398515Y1708678*
X3397970*
X3159424Y1684678D02*
X3156697Y1676803D01*
X3155606Y1684678D02*
X3159424D01*
X3249197D02*
X3252197D01*
X3250561Y1681678*
X3251379*
X3251924Y1681303*
X3252197Y1680928*
X3252470Y1679803*
Y1679053*
X3252197Y1677928*
X3251652Y1677178*
X3250834Y1676803*
X3250015*
X3249197Y1677178*
X3248924Y1677553*
X3248652Y1678303*
X3281606Y1676803D02*
X3293606D01*
Y1688803*
X3281606*
Y1676803*
X3287606Y1682803D02*
Y1688803D01*
X3314243Y1684678D02*
X3316424Y1680928D01*
Y1676803*
X3318606Y1684678D02*
X3316424Y1680928D01*
X3321061Y1684678D02*
Y1676803D01*
Y1684678D02*
X3324606D01*
X3321061Y1680928D02*
X3323243D01*
X3321061Y1676803D02*
X3324606D01*
X3330879Y1683553D02*
X3330334Y1684303D01*
X3329515Y1684678*
X3328424*
X3327606Y1684303*
X3327061Y1683553*
Y1682803*
X3327334Y1682053*
X3327606Y1681678*
X3328152Y1681303*
X3329788Y1680553*
X3330334Y1680178*
X3330606Y1679803*
X3330879Y1679053*
Y1677928*
X3330334Y1677178*
X3329515Y1676803*
X3328424*
X3327606Y1677178*
X3327061Y1677928*
X3367424Y1683553D02*
Y1676803D01*
X3364970Y1680178D02*
X3369879D01*
X3377243Y1686178D02*
X3372334Y1674178D01*
X3379697Y1680178D02*
X3384606D01*
X3388697Y1684678D02*
X3387879Y1684303D01*
X3387334Y1683178*
X3387061Y1681303*
Y1680178*
X3387334Y1678303*
X3387879Y1677178*
X3388697Y1676803*
X3389243*
X3390061Y1677178*
X3390606Y1678303*
X3390879Y1680178*
Y1681303*
X3390606Y1683178*
X3390061Y1684303*
X3389243Y1684678*
X3388697*
X3393606Y1677553D02*
X3393334Y1677178D01*
X3393606Y1676803*
X3393879Y1677178*
X3393606Y1677553*
X3397970Y1684678D02*
X3397152Y1684303D01*
X3396606Y1683178*
X3396334Y1681303*
Y1680178*
X3396606Y1678303*
X3397152Y1677178*
X3397970Y1676803*
X3398515*
X3399334Y1677178*
X3399879Y1678303*
X3400152Y1680178*
Y1681303*
X3399879Y1683178*
X3399334Y1684303*
X3398515Y1684678*
X3397970*
X3156152Y1660678D02*
X3159152D01*
X3157515Y1657678*
X3158334*
X3158879Y1657303*
X3159152Y1656928*
X3159424Y1655803*
Y1655053*
X3159152Y1653928*
X3158606Y1653178*
X3157788Y1652803*
X3156970*
X3156152Y1653178*
X3155879Y1653553*
X3155606Y1654303*
X3165424Y1660678D02*
X3162697D01*
X3162424Y1657303*
X3162697Y1657678*
X3163515Y1658053*
X3164334*
X3165152Y1657678*
X3165697Y1656928*
X3165970Y1655803*
X3165697Y1655053*
X3165424Y1653928*
X3164879Y1653178*
X3164061Y1652803*
X3163243*
X3162424Y1653178*
X3162152Y1653553*
X3161879Y1654303*
X3168697Y1653553D02*
X3168424Y1653178D01*
X3168697Y1652803*
X3168970Y1653178*
X3168697Y1653553*
X3174152Y1660678D02*
X3171424Y1655428D01*
X3175515*
X3174152Y1660678D02*
Y1652803D01*
X3178515Y1660678D02*
X3181515D01*
X3179879Y1657678*
X3180697*
X3181243Y1657303*
X3181515Y1656928*
X3181788Y1655803*
Y1655053*
X3181515Y1653928*
X3180970Y1653178*
X3180152Y1652803*
X3179334*
X3178515Y1653178*
X3178243Y1653553*
X3177970Y1654303*
X3248106Y1660678D02*
X3245379Y1655428D01*
X3249470*
X3248106Y1660678D02*
Y1652803D01*
X3253561Y1660678D02*
X3252743Y1660303D01*
X3252197Y1659178*
X3251924Y1657303*
Y1656178*
X3252197Y1654303*
X3252743Y1653178*
X3253561Y1652803*
X3254106*
X3254924Y1653178*
X3255470Y1654303*
X3255743Y1656178*
Y1657303*
X3255470Y1659178*
X3254924Y1660303*
X3254106Y1660678*
X3253561*
X3287606Y1652803D02*
X3293606Y1658803D01*
X3287606Y1664803*
X3281606Y1658803*
X3287606Y1652803*
Y1658803D02*
Y1664803D01*
X3314243Y1660678D02*
X3316424Y1656928D01*
Y1652803*
X3318606Y1660678D02*
X3316424Y1656928D01*
X3321061Y1660678D02*
Y1652803D01*
Y1660678D02*
X3324606D01*
X3321061Y1656928D02*
X3323243D01*
X3321061Y1652803D02*
X3324606D01*
X3330879Y1659553D02*
X3330334Y1660303D01*
X3329515Y1660678*
X3328424*
X3327606Y1660303*
X3327061Y1659553*
Y1658803*
X3327334Y1658053*
X3327606Y1657678*
X3328152Y1657303*
X3329788Y1656553*
X3330334Y1656178*
X3330606Y1655803*
X3330879Y1655053*
Y1653928*
X3330334Y1653178*
X3329515Y1652803*
X3328424*
X3327606Y1653178*
X3327061Y1653928*
X3367424Y1659553D02*
Y1652803D01*
X3364970Y1656178D02*
X3369879D01*
X3377243Y1662178D02*
X3372334Y1650178D01*
X3379697Y1656178D02*
X3384606D01*
X3388697Y1660678D02*
X3387879Y1660303D01*
X3387334Y1659178*
X3387061Y1657303*
Y1656178*
X3387334Y1654303*
X3387879Y1653178*
X3388697Y1652803*
X3389243*
X3390061Y1653178*
X3390606Y1654303*
X3390879Y1656178*
Y1657303*
X3390606Y1659178*
X3390061Y1660303*
X3389243Y1660678*
X3388697*
X3393606Y1653553D02*
X3393334Y1653178D01*
X3393606Y1652803*
X3393879Y1653178*
X3393606Y1653553*
X3397970Y1660678D02*
X3397152Y1660303D01*
X3396606Y1659178*
X3396334Y1657303*
Y1656178*
X3396606Y1654303*
X3397152Y1653178*
X3397970Y1652803*
X3398515*
X3399334Y1653178*
X3399879Y1654303*
X3400152Y1656178*
Y1657303*
X3399879Y1659178*
X3399334Y1660303*
X3398515Y1660678*
X3397970*
X3155606Y1635178D02*
X3156152Y1635553D01*
X3156970Y1636678*
Y1628803*
X3159697Y1634803D02*
Y1635178D01*
X3159970Y1635928*
X3160243Y1636303*
X3160788Y1636678*
X3161879*
X3162424Y1636303*
X3162697Y1635928*
X3162970Y1635178*
Y1634428*
X3162697Y1633678*
X3162152Y1632553*
X3159424Y1628803*
X3163243*
X3252061Y1636678D02*
X3249334D01*
X3249061Y1633303*
X3249334Y1633678*
X3250152Y1634053*
X3250970*
X3251788Y1633678*
X3252334Y1632928*
X3252606Y1631803*
X3252334Y1631053*
X3252061Y1629928*
X3251515Y1629178*
X3250697Y1628803*
X3249879*
X3249061Y1629178*
X3248788Y1629553*
X3248515Y1630303*
X3281606Y1628803D02*
X3293606D01*
X3281606Y1640803*
X3293606*
X3281606Y1628803*
X3314243Y1636678D02*
X3316424Y1632928D01*
Y1628803*
X3318606Y1636678D02*
X3316424Y1632928D01*
X3321061Y1636678D02*
Y1628803D01*
Y1636678D02*
X3324606D01*
X3321061Y1632928D02*
X3323243D01*
X3321061Y1628803D02*
X3324606D01*
X3330879Y1635553D02*
X3330334Y1636303D01*
X3329515Y1636678*
X3328424*
X3327606Y1636303*
X3327061Y1635553*
Y1634803*
X3327334Y1634053*
X3327606Y1633678*
X3328152Y1633303*
X3329788Y1632553*
X3330334Y1632178*
X3330606Y1631803*
X3330879Y1631053*
Y1629928*
X3330334Y1629178*
X3329515Y1628803*
X3328424*
X3327606Y1629178*
X3327061Y1629928*
X3367424Y1635553D02*
Y1628803D01*
X3364970Y1632178D02*
X3369879D01*
X3377243Y1638178D02*
X3372334Y1626178D01*
X3379697Y1632178D02*
X3384606D01*
X3388697Y1636678D02*
X3387879Y1636303D01*
X3387334Y1635178*
X3387061Y1633303*
Y1632178*
X3387334Y1630303*
X3387879Y1629178*
X3388697Y1628803*
X3389243*
X3390061Y1629178*
X3390606Y1630303*
X3390879Y1632178*
Y1633303*
X3390606Y1635178*
X3390061Y1636303*
X3389243Y1636678*
X3388697*
X3393606Y1629553D02*
X3393334Y1629178D01*
X3393606Y1628803*
X3393879Y1629178*
X3393606Y1629553*
X3397970Y1636678D02*
X3397152Y1636303D01*
X3396606Y1635178*
X3396334Y1633303*
Y1632178*
X3396606Y1630303*
X3397152Y1629178*
X3397970Y1628803*
X3398515*
X3399334Y1629178*
X3399879Y1630303*
X3400152Y1632178*
Y1633303*
X3399879Y1635178*
X3399334Y1636303*
X3398515Y1636678*
X3397970*
X3155879Y1610803D02*
Y1611178D01*
X3156152Y1611928*
X3156424Y1612303*
X3156970Y1612678*
X3158061*
X3158606Y1612303*
X3158879Y1611928*
X3159152Y1611178*
Y1610428*
X3158879Y1609678*
X3158334Y1608553*
X3155606Y1604803*
X3159424*
X3162424Y1612678D02*
X3165424D01*
X3163788Y1609678*
X3164606*
X3165152Y1609303*
X3165424Y1608928*
X3165697Y1607803*
Y1607053*
X3165424Y1605928*
X3164879Y1605178*
X3164061Y1604803*
X3163243*
X3162424Y1605178*
X3162152Y1605553*
X3161879Y1606303*
X3168424Y1605553D02*
X3168152Y1605178D01*
X3168424Y1604803*
X3168697Y1605178*
X3168424Y1605553*
X3174424Y1611553D02*
X3174152Y1612303D01*
X3173334Y1612678*
X3172788*
X3171970Y1612303*
X3171424Y1611178*
X3171152Y1609303*
Y1607428*
X3171424Y1605928*
X3171970Y1605178*
X3172788Y1604803*
X3173061*
X3173879Y1605178*
X3174424Y1605928*
X3174697Y1607053*
Y1607428*
X3174424Y1608553*
X3173879Y1609303*
X3173061Y1609678*
X3172788*
X3171970Y1609303*
X3171424Y1608553*
X3171152Y1607428*
X3177424Y1610803D02*
Y1611178D01*
X3177697Y1611928*
X3177970Y1612303*
X3178515Y1612678*
X3179606*
X3180152Y1612303*
X3180424Y1611928*
X3180697Y1611178*
Y1610428*
X3180424Y1609678*
X3179879Y1608553*
X3177152Y1604803*
X3180970*
X3189697Y1610053D02*
X3192697Y1604803D01*
Y1610053D02*
X3189697Y1604803D01*
X3204970Y1612678D02*
X3202243D01*
X3201970Y1609303*
X3202243Y1609678*
X3203061Y1610053*
X3203879*
X3204697Y1609678*
X3205243Y1608928*
X3205515Y1607803*
X3205243Y1607053*
X3204970Y1605928*
X3204424Y1605178*
X3203606Y1604803*
X3202788*
X3201970Y1605178*
X3201697Y1605553*
X3201424Y1606303*
X3211515Y1612678D02*
X3208788D01*
X3208515Y1609303*
X3208788Y1609678*
X3209606Y1610053*
X3210424*
X3211243Y1609678*
X3211788Y1608928*
X3212061Y1607803*
X3211788Y1607053*
X3211515Y1605928*
X3210970Y1605178*
X3210152Y1604803*
X3209334*
X3208515Y1605178*
X3208243Y1605553*
X3207970Y1606303*
X3214788Y1605553D02*
X3214515Y1605178D01*
X3214788Y1604803*
X3215061Y1605178*
X3214788Y1605553*
X3217515Y1611178D02*
X3218061Y1611553D01*
X3218879Y1612678*
Y1604803*
X3221606Y1610803D02*
Y1611178D01*
X3221879Y1611928*
X3222152Y1612303*
X3222697Y1612678*
X3223788*
X3224334Y1612303*
X3224606Y1611928*
X3224879Y1611178*
Y1610428*
X3224606Y1609678*
X3224061Y1608553*
X3221334Y1604803*
X3225152*
X3251243Y1612678D02*
X3248515Y1607428D01*
X3252606*
X3251243Y1612678D02*
Y1604803D01*
X3281606D02*
X3293606Y1616803D01*
Y1604803*
X3281606Y1616803*
Y1604803*
X3314243Y1612678D02*
X3316424Y1608928D01*
Y1604803*
X3318606Y1612678D02*
X3316424Y1608928D01*
X3321061Y1612678D02*
Y1604803D01*
Y1612678D02*
X3324606D01*
X3321061Y1608928D02*
X3323243D01*
X3321061Y1604803D02*
X3324606D01*
X3330879Y1611553D02*
X3330334Y1612303D01*
X3329515Y1612678*
X3328424*
X3327606Y1612303*
X3327061Y1611553*
Y1610803*
X3327334Y1610053*
X3327606Y1609678*
X3328152Y1609303*
X3329788Y1608553*
X3330334Y1608178*
X3330606Y1607803*
X3330879Y1607053*
Y1605928*
X3330334Y1605178*
X3329515Y1604803*
X3328424*
X3327606Y1605178*
X3327061Y1605928*
X3367424Y1611553D02*
Y1604803D01*
X3364970Y1608178D02*
X3369879D01*
X3377243Y1614178D02*
X3372334Y1602178D01*
X3379697Y1608178D02*
X3384606D01*
X3388697Y1612678D02*
X3387879Y1612303D01*
X3387334Y1611178*
X3387061Y1609303*
Y1608178*
X3387334Y1606303*
X3387879Y1605178*
X3388697Y1604803*
X3389243*
X3390061Y1605178*
X3390606Y1606303*
X3390879Y1608178*
Y1609303*
X3390606Y1611178*
X3390061Y1612303*
X3389243Y1612678*
X3388697*
X3393606Y1605553D02*
X3393334Y1605178D01*
X3393606Y1604803*
X3393879Y1605178*
X3393606Y1605553*
X3397970Y1612678D02*
X3397152Y1612303D01*
X3396606Y1611178*
X3396334Y1609303*
Y1608178*
X3396606Y1606303*
X3397152Y1605178*
X3397970Y1604803*
X3398515*
X3399334Y1605178*
X3399879Y1606303*
X3400152Y1608178*
Y1609303*
X3399879Y1611178*
X3399334Y1612303*
X3398515Y1612678*
X3397970*
X3155879Y1586803D02*
Y1587178D01*
X3156152Y1587928*
X3156424Y1588303*
X3156970Y1588678*
X3158061*
X3158606Y1588303*
X3158879Y1587928*
X3159152Y1587178*
Y1586428*
X3158879Y1585678*
X3158334Y1584553*
X3155606Y1580803*
X3159424*
X3162424Y1588678D02*
X3165424D01*
X3163788Y1585678*
X3164606*
X3165152Y1585303*
X3165424Y1584928*
X3165697Y1583803*
Y1583053*
X3165424Y1581928*
X3164879Y1581178*
X3164061Y1580803*
X3163243*
X3162424Y1581178*
X3162152Y1581553*
X3161879Y1582303*
X3168424Y1581553D02*
X3168152Y1581178D01*
X3168424Y1580803*
X3168697Y1581178*
X3168424Y1581553*
X3174424Y1587553D02*
X3174152Y1588303D01*
X3173334Y1588678*
X3172788*
X3171970Y1588303*
X3171424Y1587178*
X3171152Y1585303*
Y1583428*
X3171424Y1581928*
X3171970Y1581178*
X3172788Y1580803*
X3173061*
X3173879Y1581178*
X3174424Y1581928*
X3174697Y1583053*
Y1583428*
X3174424Y1584553*
X3173879Y1585303*
X3173061Y1585678*
X3172788*
X3171970Y1585303*
X3171424Y1584553*
X3171152Y1583428*
X3177424Y1586803D02*
Y1587178D01*
X3177697Y1587928*
X3177970Y1588303*
X3178515Y1588678*
X3179606*
X3180152Y1588303*
X3180424Y1587928*
X3180697Y1587178*
Y1586428*
X3180424Y1585678*
X3179879Y1584553*
X3177152Y1580803*
X3180970*
X3248924Y1586803D02*
Y1587178D01*
X3249197Y1587928*
X3249470Y1588303*
X3250015Y1588678*
X3251106*
X3251652Y1588303*
X3251924Y1587928*
X3252197Y1587178*
Y1586428*
X3251924Y1585678*
X3251379Y1584553*
X3248652Y1580803*
X3252470*
X3281606Y1586803D02*
X3293606D01*
X3287606Y1580803D02*
Y1592803D01*
X3292352Y1596103D02*
X3290606Y1589803D01*
X3292352Y1596103D02*
X3294097Y1589803D01*
X3291261Y1591903D02*
X3293443D01*
X3314243Y1588678D02*
X3316424Y1584928D01*
Y1580803*
X3318606Y1588678D02*
X3316424Y1584928D01*
X3321061Y1588678D02*
Y1580803D01*
Y1588678D02*
X3324606D01*
X3321061Y1584928D02*
X3323243D01*
X3321061Y1580803D02*
X3324606D01*
X3330879Y1587553D02*
X3330334Y1588303D01*
X3329515Y1588678*
X3328424*
X3327606Y1588303*
X3327061Y1587553*
Y1586803*
X3327334Y1586053*
X3327606Y1585678*
X3328152Y1585303*
X3329788Y1584553*
X3330334Y1584178*
X3330606Y1583803*
X3330879Y1583053*
Y1581928*
X3330334Y1581178*
X3329515Y1580803*
X3328424*
X3327606Y1581178*
X3327061Y1581928*
X3367424Y1587553D02*
Y1580803D01*
X3364970Y1584178D02*
X3369879D01*
X3377243Y1590178D02*
X3372334Y1578178D01*
X3379697Y1584178D02*
X3384606D01*
X3388697Y1588678D02*
X3387879Y1588303D01*
X3387334Y1587178*
X3387061Y1585303*
Y1584178*
X3387334Y1582303*
X3387879Y1581178*
X3388697Y1580803*
X3389243*
X3390061Y1581178*
X3390606Y1582303*
X3390879Y1584178*
Y1585303*
X3390606Y1587178*
X3390061Y1588303*
X3389243Y1588678*
X3388697*
X3393606Y1581553D02*
X3393334Y1581178D01*
X3393606Y1580803*
X3393879Y1581178*
X3393606Y1581553*
X3397970Y1588678D02*
X3397152Y1588303D01*
X3396606Y1587178*
X3396334Y1585303*
Y1584178*
X3396606Y1582303*
X3397152Y1581178*
X3397970Y1580803*
X3398515*
X3399334Y1581178*
X3399879Y1582303*
X3400152Y1584178*
Y1585303*
X3399879Y1587178*
X3399334Y1588303*
X3398515Y1588678*
X3397970*
G74*
X0Y0D02*
M02*
