M48
;FILE_FORMAT=2:4
INCH,LZ
FMAT,2
ICI,OFF
;TYPE=PLATED
T1C.007
T2C.009
T3C.012
T4C.015
T5C.02362
T6C.03543
%
M72
G90
G93X0Y0
T1C.007F0S0
X193631Y155606
X193981Y155606
X194331Y155606
T2C.009F0S0
X192041Y155079
X192041Y155929
X192241Y155479
X192541Y155479
X192541Y154649
X192841Y155479
X193041Y155079
X193102Y155544
X193342Y155544
X194682Y155544
X194895Y155548
X195135Y155548
X195385Y155548
X195656Y154108
X195716Y155129
X196005Y154948
X196365Y154948
X196436Y154018
X196555Y155842
X196736Y154018
X196752Y15592
X196946Y154258
X196949Y155842
X197146Y15592
X197366Y154948
X197539Y15592
X197736Y155842
X197906Y154318
X197996Y155368
X198056Y154468
X198086Y155788
X198236Y154588
X198236Y155578
X198746Y155998
X198945Y154738
X198945Y155008
X200006Y154648
X201045Y155608
X202616Y154828
X202616Y155068
X204386Y155818
X205196Y155158
X206156Y154948
X207175Y155978
X207375Y155878
X207376Y155268
X207596Y154078
X208406Y155038
X208436Y154408
X208736Y155488
X210146Y154228
X210836Y154978
X212036Y153988
X212036Y155008
X210266Y157858
X209966Y157858
X209598Y156761
X209456Y158158
X209056Y157081
X208976Y158158
X208725Y15773
X208681Y157338
X20795Y15833
X207056Y158068
X207056Y157798
X207056Y157228
X207056Y158308
X207056Y157528
X206696Y158068
X206696Y157798
X206696Y157228
X206696Y158308
X206696Y157528
X206336Y158068
X206336Y158308
X206336Y157798
X206336Y157498
X205976Y157798
X205976Y158308
X205976Y158068
X205376Y156448
X205076Y156448
X204806Y156448
X204419Y15755
X204386Y156448
X204242Y157728
X204056Y158488
X204056Y156448
X202605Y156118
X202586Y158338
X202376Y158338
X202335Y156118
X201585Y156208
X201225Y156208
X200162Y156201
X199646Y156148
X198764Y156397
X198489Y157185
X198489Y157972
X198489Y157579
X198489Y156791
X19841Y157776
X19841Y157382
X19841Y156594
X19841Y158169
X19841Y156988
X197625Y157468
X197625Y156748
X197595Y158158
X196845Y157468
X196845Y156748
X196815Y158218
X196095Y158218
X196095Y156748
X196065Y157498
X195301Y157776
X195295Y156218
X195287Y157382
X195287Y156791
X19511Y157972
X195073Y156157
X194835Y15615
X194592Y156151
X194188Y156536
X193939Y156234
X193609Y156234
X193309Y156234
X193088Y156567
X192789Y156489
X192691Y157204
X192549Y156489
X192391Y157204
X192309Y156489
X193318Y159622
X194658Y159622
X195527Y158841
X196346Y159058
X196556Y159058
X196766Y159058
X196856Y159358
X196976Y159058
X197546Y159058
X197936Y159058
X19841Y158563
X198896Y159238
X199646Y159178
X200966Y159178
X202166Y159178
X203066Y159178
X203126Y159898
X203486Y159358
X203816Y159178
X204056Y158698
X204956Y159178
X205406Y159898
X206486Y159178
X206756Y159898
X207566Y159058
X207716Y159928
X209006Y159418
X209096Y158728
X210146Y159868
X210836Y159238
X211976Y158998
X212006Y159928
T3C.012F0S0
X202556Y156928
X202556Y157198
X207266Y156208
X207266Y156478
X20805Y158555
T4C.015F0S0
X195735Y155578
X20251Y157722
X207761Y156538
T5C.02362F0S0
X210716Y156231
X210716Y157806
X211724Y15564G85X211409Y15564
X211724Y158396G85X211409Y158396
X210267Y15564G85X209952Y15564
X210267Y158396G85X209952Y158396
T6C.03543F0S0
X19258Y153518
X19358Y153518
X19458Y153518
X19558Y153518
X19658Y153518
X19758Y153518
X19858Y153518
X19958Y153518
X20058Y153518
X20158Y153518
X20258Y153518
X20358Y153518
X20458Y153518
X20558Y153518
X20658Y153518
X20758Y153518
X20858Y153518
X20958Y153518
X21058Y153518
X21158Y153518
X21158Y160518
X21058Y160518
X20958Y160518
X20858Y160518
X20758Y160518
X20658Y160518
X20558Y160518
X20458Y160518
X20358Y160518
X20258Y160518
X20158Y160518
X20058Y160518
X19958Y160518
X19858Y160518
X19758Y160518
X19658Y160518
X19558Y160518
X19458Y160518
X19358Y160518
X19258Y160518
M30
