*
*
G04 PADS VX.2 Build Number: 5060570 generated Gerber (RS-274-X) file*
G04 PC Version=2.1*
*
%IN "ESP32-PICO-KIT_V4.1_201"*%
*
%MOIN*%
*
%FSLAX35Y35*%
*
*
*
*
G04 PC Standard Apertures*
*
*
G04 Thermal Relief Aperture macro.*
%AMTER*
1,1,$1,0,0*
1,0,$1-$2,0,0*
21,0,$3,$4,0,0,45*
21,0,$3,$4,0,0,135*
%
*
*
G04 Annular Aperture macro.*
%AMANN*
1,1,$1,0,0*
1,0,$2,0,0*
%
*
*
G04 Odd Aperture macro.*
%AMODD*
1,1,$1,0,0*
1,0,$1-0.005,0,0*
%
*
*
G04 PC Custom Aperture Macros*
*
*
*
*
*
*
G04 PC Aperture Table*
*
%ADD010C,0.001*%
%ADD012C,0.01*%
%ADD024C,0.005*%
%ADD025C,0.006*%
%ADD056C,0.012*%
%ADD060C,0.015*%
%ADD070C,0.02*%
%ADD072C,0.025*%
%ADD145C,0.05906*%
%ADD168O,0.07087X0.05906*%
*
*
*
*
G04 PC Circuitry*
G04 Layer Name ESP32-PICO-KIT_V4.1_201 - circuitry*
%LPD*%
*
*
G04 PC Custom Flashes*
G04 Layer Name ESP32-PICO-KIT_V4.1_201 - flashes*
%LPD*%
*
*
G04 PC Circuitry*
G04 Layer Name ESP32-PICO-KIT_V4.1_201 - circuitry*
%LPD*%
*
G54D10*
G01X1918438Y1610181D02*
X1918440D01*
X2123162D02*
X2123165D01*
X1918438Y1530181D02*
X1918440D01*
X1918438Y1610181D02*
X1918440D01*
G54D12*
X2073746Y1558780D02*
Y1552697D01*
X2073762Y1552681*
X1923162Y1610181D02*
G75*
G03X1918438Y1605457I0J-4724D01*
G01Y1534906*
G03X1923162Y1530181I4724J-0*
G01X2118438*
G03X2123162Y1534906I-0J4725*
G01Y1605457*
G03X2118438Y1610181I-4724J-0*
G01X1923162*
G54D24*
X2109338Y1562307D02*
G03X2109338I-2181J0D01*
G01Y1578055D02*
G03X2109338I-2181J0D01*
G01X2097584Y1567610D02*
G03X2097584I-1600J0D01*
G01X2092162Y1570807D02*
G03X2092162I-1600J0D01*
G01X2003224Y1562008D02*
G03X2003224I-1600J0D01*
G01X2036462Y1593581D02*
G03X2036462I-1600J0D01*
G01X1959446Y1555780D02*
G03X1959446I-2100J0D01*
G01X1954546Y1562180D02*
G03X1954546I-1600J0D01*
G01X1954466Y1567913D02*
G03X1954466I-1600J0D01*
G01X1954470Y1573819D02*
G03X1954470I-1600J0D01*
G01X2074212Y1565195D02*
G03X2074153Y1565336I-200J-0D01*
G01X2073517Y1565973*
G03X2073376Y1566031I-141J-142*
G01X2071348*
G03X2071207Y1565973I0J-200*
G01X2068265Y1563031*
X2054481*
G03X2054401Y1563014I0J-200*
G01X2053122D02*
G03X2054401I640J1467D01*
G01X2053122D02*
G03X2053043Y1563031I-79J-183D01*
G01X2051481*
G03X2051401Y1563014I0J-200*
G01X2050122D02*
G03X2051401I640J1467D01*
G01X2050122D02*
G03X2050043Y1563031I-79J-183D01*
G01X2048781*
G03X2048701Y1563014I0J-200*
G01X2047422D02*
G03X2048701I640J1467D01*
G01X2047422D02*
G03X2047343Y1563031I-79J-183D01*
G01X2044581*
G03X2044501Y1563014I0J-200*
G01X2043222D02*
G03X2044501I640J1467D01*
G01X2043222D02*
G03X2043143Y1563031I-79J-183D01*
G01X2041281*
G03X2041201Y1563014I0J-200*
G01X2039922D02*
G03X2041201I640J1467D01*
G01X2039922D02*
G03X2039843Y1563031I-79J-183D01*
G01X2035958*
X2026117Y1572873*
G03X2025976Y1572931I-141J-142*
G01X2024848*
G03X2024707Y1572873I0J-200*
G01X2024371Y1572536*
G03X2024312Y1572395I141J-141*
G01Y1568868*
G03X2024371Y1568726I200J-0*
G01X2033426Y1559671*
G03X2033567Y1559612I141J141*
G01X2043101*
G03X2043186Y1559631I-0J200*
G01X2044538D02*
G03X2043186I-676J-1450D01*
G01X2044538D02*
G03X2044623Y1559612I85J181D01*
G01X2069946*
G03X2070146Y1559809I0J200*
G01X2072775Y1561006D02*
G03X2070146Y1559809I-1029J-1226D01*
G01X2072775Y1561006D02*
G03X2073045Y1561017I128J153D01*
G01X2074153Y1562126*
G03X2074212Y1562268I-141J142*
G01Y1565195*
X2122312Y1605457D02*
G03X2118438Y1609331I-3874J-0D01*
G01X2116448*
G03X2116248Y1609131I-0J-200*
X2116416Y1608934I200J0*
G01X2119603Y1605181D02*
G03X2116416Y1608934I-3803J0D01*
G01X2111997Y1605181D02*
G03X2119603I3803J0D01*
G01X2115184Y1608934D02*
G03X2111997Y1605181I616J-3753D01*
G01X2115184Y1608934D02*
G03X2115352Y1609131I-32J197D01*
X2115152Y1609331I-200J0*
G01X2106448*
G03X2106248Y1609131I-0J-200*
X2106416Y1608934I200J0*
G01X2109603Y1605181D02*
G03X2106416Y1608934I-3803J0D01*
G01X2101997Y1605181D02*
G03X2109603I3803J0D01*
G01X2105184Y1608934D02*
G03X2101997Y1605181I616J-3753D01*
G01X2105184Y1608934D02*
G03X2105352Y1609131I-32J197D01*
X2105152Y1609331I-200J0*
G01X2096448*
G03X2096248Y1609131I-0J-200*
X2096416Y1608934I200J0*
G01X2099603Y1605181D02*
G03X2096416Y1608934I-3803J0D01*
G01X2091997Y1605181D02*
G03X2099603I3803J0D01*
G01X2095184Y1608934D02*
G03X2091997Y1605181I616J-3753D01*
G01X2095184Y1608934D02*
G03X2095352Y1609131I-32J197D01*
X2095152Y1609331I-200J0*
G01X2086448*
G03X2086248Y1609131I-0J-200*
X2086416Y1608934I200J0*
G01X2089603Y1605181D02*
G03X2086416Y1608934I-3803J0D01*
G01X2086286Y1601410D02*
G03X2089603Y1605181I-486J3771D01*
G01X2086286Y1601410D02*
G03X2086112Y1601211I26J-199D01*
G01Y1553681*
X2085775Y1552868D02*
G03X2086112Y1553681I-813J813D01*
G01X2085775Y1552868D02*
X2072275Y1539368D01*
X2071462Y1539031D02*
G03X2072275Y1539368I-0J1150D01*
G01X2071462Y1539031D02*
X2067443D01*
G03X2067243Y1538831I0J-200*
X2067361Y1538649I200J0*
G01X2069603Y1535181D02*
G03X2067361Y1538649I-3803J0D01*
G01X2066416Y1531429D02*
G03X2069603Y1535181I-616J3752D01*
G01X2066416Y1531429D02*
G03X2066248Y1531231I32J-198D01*
X2066448Y1531031I200J0*
G01X2075152*
G03X2075352Y1531231I-0J200*
X2075184Y1531429I-200J0*
G01X2071997Y1535181D02*
G03X2075184Y1531429I3803J0D01*
G01X2079603Y1535181D02*
G03X2071997I-3803J0D01*
G01X2076416Y1531429D02*
G03X2079603Y1535181I-616J3752D01*
G01X2076416Y1531429D02*
G03X2076248Y1531231I32J-198D01*
X2076448Y1531031I200J0*
G01X2085152*
G03X2085352Y1531231I-0J200*
X2085184Y1531429I-200J0*
G01X2081997Y1535181D02*
G03X2085184Y1531429I3803J0D01*
G01X2089603Y1535181D02*
G03X2081997I-3803J0D01*
G01X2086416Y1531429D02*
G03X2089603Y1535181I-616J3752D01*
G01X2086416Y1531429D02*
G03X2086248Y1531231I32J-198D01*
X2086448Y1531031I200J0*
G01X2095152*
G03X2095352Y1531231I-0J200*
X2095184Y1531429I-200J0*
G01X2091997Y1535181D02*
G03X2095184Y1531429I3803J0D01*
G01X2099603Y1535181D02*
G03X2091997I-3803J0D01*
G01X2096416Y1531429D02*
G03X2099603Y1535181I-616J3752D01*
G01X2096416Y1531429D02*
G03X2096248Y1531231I32J-198D01*
X2096448Y1531031I200J0*
G01X2105152*
G03X2105352Y1531231I-0J200*
X2105184Y1531429I-200J0*
G01X2101997Y1535181D02*
G03X2105184Y1531429I3803J0D01*
G01X2109603Y1535181D02*
G03X2101997I-3803J0D01*
G01X2106416Y1531429D02*
G03X2109603Y1535181I-616J3752D01*
G01X2106416Y1531429D02*
G03X2106248Y1531231I32J-198D01*
X2106448Y1531031I200J0*
G01X2115152*
G03X2115352Y1531231I-0J200*
X2115184Y1531429I-200J0*
G01X2111997Y1535181D02*
G03X2115184Y1531429I3803J0D01*
G01X2119603Y1535181D02*
G03X2111997I-3803J0D01*
G01X2116416Y1531429D02*
G03X2119603Y1535181I-616J3752D01*
G01X2116416Y1531429D02*
G03X2116248Y1531231I32J-198D01*
X2116448Y1531031I200J0*
G01X2118438*
G03X2122312Y1534906I-0J3875*
G01Y1605457*
X2080212Y1573886D02*
G03X2080153Y1574027I-200J-0D01*
G01X2076441Y1577740*
X2076104Y1578553D02*
G03X2076441Y1577740I1150J0D01*
G01X2076104Y1578553D02*
Y1583168D01*
G03X2076045Y1583309I-200J-0*
G01X2057651Y1601703*
G03X2057424Y1601743I-141J-141*
G01X2051997Y1605181D02*
G03X2057424Y1601743I3803J0D01*
G01X2055184Y1608934D02*
G03X2051997Y1605181I616J-3753D01*
G01X2055184Y1608934D02*
G03X2055352Y1609131I-32J197D01*
X2055152Y1609331I-200J0*
G01X2046448*
G03X2046248Y1609131I-0J-200*
X2046416Y1608934I200J0*
G01X2049603Y1605181D02*
G03X2046416Y1608934I-3803J0D01*
G01X2045556Y1601386D02*
G03X2049603Y1605181I244J3795D01*
G01X2045556Y1601386D02*
G03X2045343Y1601187I-13J-199D01*
G01Y1576695*
G03X2045393Y1576562I200J-0*
G01X2045793Y1575504D02*
G03X2045393Y1576562I-1600J-0D01*
G01X2043135Y1574304D02*
G03X2045793Y1575504I1058J1200D01*
G01X2043135Y1574304D02*
G03X2043003Y1574354I-132J-150D01*
G01X2041424*
X2040611Y1574691D02*
G03X2041424Y1574354I813J813D01*
G01X2040611Y1574691D02*
X2020529Y1594773D01*
G03X2020388Y1594831I-141J-142*
G01X1984111*
G03X1983911Y1594631I-0J-200*
X1983985Y1594476I200J0*
G01X1984075Y1594394D02*
G03X1983985Y1594476I-813J-813D01*
G01X1984075Y1594394D02*
X1993375Y1585094D01*
X1993712Y1584281D02*
G03X1993375Y1585094I-1150J0D01*
G01X1993712Y1584281D02*
Y1559081D01*
X1993375Y1558268D02*
G03X1993712Y1559081I-813J813D01*
G01X1993375Y1558268D02*
X1982825Y1547718D01*
G03X1982767Y1547577I142J-141*
X1982899Y1547388I200J-0*
G01X1983962Y1545881D02*
G03X1982899Y1547388I-1600J0D01*
G01X1983911Y1545481D02*
G03X1983962Y1545881I-1549J400D01*
G01X1983911Y1545481D02*
G03X1983905Y1545431I194J-50D01*
G01X1983905*
G03X1984105Y1545231I200J0*
G01X2067603*
G03X2067744Y1545290I-0J200*
G01X2073299Y1550844*
G03X2073357Y1550986I-142J142*
X2073224Y1551174I-200J-0*
G01X2072162Y1552681D02*
G03X2073224Y1551174I1600J0D01*
G01X2072370Y1553470D02*
G03X2072162Y1552681I1392J-789D01*
G01X2072370Y1553470D02*
G03X2072396Y1553569I-174J99D01*
G01Y1557865*
G03X2072368Y1557967I-200J-0*
G01X2072190Y1558408D02*
G03X2072368Y1557967I1556J372D01*
G01X2072190Y1558408D02*
G03X2071940Y1558554I-195J-46D01*
G01X2071640Y1558512D02*
G03X2071940Y1558554I-0J1100D01*
G01X2071640Y1558512D02*
X2033484D01*
X2032706Y1558835D02*
G03X2033484Y1558512I778J777D01*
G01X2032706Y1558835D02*
X2023534Y1568007D01*
X2023212Y1568785D02*
G03X2023534Y1568007I1100J-0D01*
G01X2023212Y1568785D02*
Y1572478D01*
X2023534Y1573255D02*
G03X2023212Y1572478I778J-777D01*
G01X2023534Y1573255D02*
X2023988Y1573709D01*
X2024765Y1574031D02*
G03X2023988Y1573709I0J-1100D01*
G01X2024765Y1574031D02*
X2026058D01*
X2026836Y1573709D02*
G03X2026058Y1574031I-778J-778D01*
G01X2026836Y1573709D02*
X2036355Y1564190D01*
G03X2036497Y1564131I142J141*
G01X2067727*
G03X2067868Y1564190I0J200*
G01X2070488Y1566809*
X2070515Y1566835D02*
G03X2070488Y1566809I751J-804D01*
G01X2070515Y1566835D02*
G03X2070578Y1566981I-137J146D01*
X2070378Y1567181I-200J0*
G01X2035162*
X2033677Y1567796D02*
G03X2035162Y1567181I1485J1485D01*
G01X2033677Y1567796D02*
X2026407Y1575066D01*
G03X2026266Y1575124I-141J-142*
G01X2025104*
X2023004Y1577224D02*
G03X2025104Y1575124I2100J0D01*
G01Y1579324D02*
G03X2023004Y1577224I-0J-2100D01*
G01X2025104Y1579324D02*
X2027219D01*
X2028704Y1578709D02*
G03X2027219Y1579324I-1485J-1485D01*
G01X2028704Y1578709D02*
X2035973Y1571440D01*
G03X2036115Y1571381I142J141*
G01X2073705*
X2075190Y1570766D02*
G03X2073705Y1571381I-1485J-1485D01*
G01X2075190Y1570766D02*
X2079094Y1566862D01*
X2079711Y1565376D02*
G03X2079094Y1566862I-2100J-0D01*
G01X2076124Y1563892D02*
G03X2079711Y1565376I1487J1484D01*
G01X2076124Y1563892D02*
X2075653Y1564363D01*
G03X2075312Y1564222I-141J-141*
G01Y1562185*
X2074990Y1561407D02*
G03X2075312Y1562185I-778J778D01*
G01X2074990Y1561407D02*
X2074202Y1560619D01*
G03X2074144Y1560478I142J-141*
X2074277Y1560289I200J-0*
G01X2075346Y1558780D02*
G03X2074277Y1560289I-1600J0D01*
G01X2075124Y1557967D02*
G03X2075346Y1558780I-1378J813D01*
G01X2075124Y1557967D02*
G03X2075096Y1557865I172J-102D01*
G01Y1553623*
G03X2075125Y1553518I200J-0*
G01X2075269Y1553219D02*
G03X2075125Y1553518I-1507J-538D01*
G01X2075269Y1553219D02*
G03X2075599Y1553144I188J67D01*
G01X2080153Y1557699*
G03X2080212Y1557840I-141J141*
G01Y1573886*
X2081412Y1587860D02*
G03X2081353Y1588001I-200J-0D01*
G01X2067651Y1601703*
G03X2067424Y1601743I-141J-141*
G01X2061997Y1605181D02*
G03X2067424Y1601743I3803J0D01*
G01X2065184Y1608934D02*
G03X2061997Y1605181I616J-3753D01*
G01X2065184Y1608934D02*
G03X2065352Y1609131I-32J197D01*
X2065152Y1609331I-200J0*
G01X2056448*
G03X2056248Y1609131I-0J-200*
X2056416Y1608934I200J0*
G01X2059603Y1605181D02*
G03X2056416Y1608934I-3803J0D01*
G01X2059238Y1603557D02*
G03X2059603Y1605181I-3438J1624D01*
G01X2059238Y1603557D02*
G03X2059219Y1603471I181J-86D01*
X2059278Y1603330I200J0*
G01X2078067Y1584540*
X2078404Y1583727D02*
G03X2078067Y1584540I-1150J0D01*
G01X2078404Y1583727D02*
Y1579112D01*
G03X2078463Y1578971I200J0*
G01X2081070Y1576363*
G03X2081412Y1576504I142J141*
G01Y1583629*
G03X2081143Y1583817I-200J0*
G01X2078654Y1585553D02*
G03X2081143Y1583817I1850J0D01*
G01Y1587289D02*
G03X2078654Y1585553I-639J-1736D01*
G01X2081143Y1587289D02*
G03X2081412Y1587477I69J188D01*
G01Y1587860*
X2082612Y1596660D02*
G03X2082553Y1596801I-200J-0D01*
G01X2077651Y1601703*
G03X2077424Y1601743I-141J-141*
G01X2071997Y1605181D02*
G03X2077424Y1601743I3803J0D01*
G01X2075184Y1608934D02*
G03X2071997Y1605181I616J-3753D01*
G01X2075184Y1608934D02*
G03X2075352Y1609131I-32J197D01*
X2075152Y1609331I-200J0*
G01X2066448*
G03X2066248Y1609131I-0J-200*
X2066416Y1608934I200J0*
G01X2069603Y1605181D02*
G03X2066416Y1608934I-3803J0D01*
G01X2069238Y1603557D02*
G03X2069603Y1605181I-3438J1624D01*
G01X2069238Y1603557D02*
G03X2069219Y1603471I181J-86D01*
X2069278Y1603330I200J0*
G01X2082270Y1590337*
G03X2082612Y1590478I142J141*
G01Y1596660*
X2041272Y1598000D02*
G03X2041213Y1598142I-200J0D01*
G01X2037651Y1601703*
G03X2037424Y1601743I-141J-141*
G01X2031997Y1605181D02*
G03X2037424Y1601743I3803J0D01*
G01X2035184Y1608934D02*
G03X2031997Y1605181I616J-3753D01*
G01X2035184Y1608934D02*
G03X2035352Y1609131I-32J197D01*
X2035152Y1609331I-200J0*
G01X2026448*
G03X2026248Y1609131I-0J-200*
X2026416Y1608934I200J0*
G01X2029603Y1605181D02*
G03X2026416Y1608934I-3803J0D01*
G01X2021997Y1605181D02*
G03X2029603I3803J0D01*
G01X2025184Y1608934D02*
G03X2021997Y1605181I616J-3753D01*
G01X2025184Y1608934D02*
G03X2025352Y1609131I-32J197D01*
X2025152Y1609331I-200J0*
G01X2016448*
G03X2016248Y1609131I-0J-200*
X2016416Y1608934I200J0*
G01X2019603Y1605181D02*
G03X2016416Y1608934I-3803J0D01*
G01X2011997Y1605181D02*
G03X2019603I3803J0D01*
G01X2015184Y1608934D02*
G03X2011997Y1605181I616J-3753D01*
G01X2015184Y1608934D02*
G03X2015352Y1609131I-32J197D01*
X2015152Y1609331I-200J0*
G01X2006448*
G03X2006248Y1609131I-0J-200*
X2006416Y1608934I200J0*
G01X2009603Y1605181D02*
G03X2006416Y1608934I-3803J0D01*
G01X2001997Y1605181D02*
G03X2009603I3803J0D01*
G01X2005184Y1608934D02*
G03X2001997Y1605181I616J-3753D01*
G01X2005184Y1608934D02*
G03X2005352Y1609131I-32J197D01*
X2005152Y1609331I-200J0*
G01X1996448*
G03X1996248Y1609131I-0J-200*
X1996416Y1608934I200J0*
G01X1999603Y1605181D02*
G03X1996416Y1608934I-3803J0D01*
G01X1991997Y1605181D02*
G03X1999603I3803J0D01*
G01X1995184Y1608934D02*
G03X1991997Y1605181I616J-3753D01*
G01X1995184Y1608934D02*
G03X1995352Y1609131I-32J197D01*
X1995152Y1609331I-200J0*
G01X1986448*
G03X1986248Y1609131I-0J-200*
X1986416Y1608934I200J0*
G01X1989603Y1605181D02*
G03X1986416Y1608934I-3803J0D01*
G01X1981997Y1605181D02*
G03X1989603I3803J0D01*
G01X1985184Y1608934D02*
G03X1981997Y1605181I616J-3753D01*
G01X1985184Y1608934D02*
G03X1985352Y1609131I-32J197D01*
X1985152Y1609331I-200J0*
G01X1976448*
G03X1976248Y1609131I-0J-200*
X1976416Y1608934I200J0*
G01X1979603Y1605181D02*
G03X1976416Y1608934I-3803J0D01*
G01X1971997Y1605181D02*
G03X1979603I3803J0D01*
G01X1975184Y1608934D02*
G03X1971997Y1605181I616J-3753D01*
G01X1975184Y1608934D02*
G03X1975352Y1609131I-32J197D01*
X1975152Y1609331I-200J0*
G01X1966448*
G03X1966248Y1609131I-0J-200*
X1966416Y1608934I200J0*
G01X1969603Y1605181D02*
G03X1966416Y1608934I-3803J0D01*
G01X1961997Y1605181D02*
G03X1969603I3803J0D01*
G01X1965184Y1608934D02*
G03X1961997Y1605181I616J-3753D01*
G01X1965184Y1608934D02*
G03X1965352Y1609131I-32J197D01*
X1965152Y1609331I-200J0*
G01X1956448*
G03X1956248Y1609131I-0J-200*
X1956416Y1608934I200J0*
G01X1959603Y1605181D02*
G03X1956416Y1608934I-3803J0D01*
G01X1951997Y1605181D02*
G03X1959603I3803J0D01*
G01X1955184Y1608934D02*
G03X1951997Y1605181I616J-3753D01*
G01X1955184Y1608934D02*
G03X1955352Y1609131I-32J197D01*
X1955152Y1609331I-200J0*
G01X1946448*
G03X1946248Y1609131I-0J-200*
X1946416Y1608934I200J0*
G01X1949603Y1605181D02*
G03X1946416Y1608934I-3803J0D01*
G01X1941997Y1605181D02*
G03X1949603I3803J0D01*
G01X1945184Y1608934D02*
G03X1941997Y1605181I616J-3753D01*
G01X1945184Y1608934D02*
G03X1945352Y1609131I-32J197D01*
X1945152Y1609331I-200J0*
G01X1936448*
G03X1936248Y1609131I-0J-200*
X1936416Y1608934I200J0*
G01X1939603Y1605181D02*
G03X1936416Y1608934I-3803J0D01*
G01X1931997Y1605181D02*
G03X1939603I3803J0D01*
G01X1935184Y1608934D02*
G03X1931997Y1605181I616J-3753D01*
G01X1935184Y1608934D02*
G03X1935352Y1609131I-32J197D01*
X1935152Y1609331I-200J0*
G01X1926448*
G03X1926248Y1609131I-0J-200*
X1926416Y1608934I200J0*
G01X1929603Y1605181D02*
G03X1926416Y1608934I-3803J0D01*
G01X1921997Y1605181D02*
G03X1929603I3803J0D01*
G01X1925184Y1608934D02*
G03X1921997Y1605181I616J-3753D01*
G01X1925184Y1608934D02*
G03X1925352Y1609131I-32J197D01*
X1925152Y1609331I-200J0*
G01X1923162*
G03X1919288Y1605457I0J-3874*
G01Y1534906*
G03X1923162Y1531031I3874J-0*
G01X1925152*
G03X1925352Y1531231I-0J200*
X1925184Y1531429I-200J0*
G01X1921997Y1535181D02*
G03X1925184Y1531429I3803J0D01*
G01X1927424Y1538619D02*
G03X1921997Y1535181I-1624J-3438D01*
G01X1927424Y1538619D02*
G03X1927651Y1538659I86J181D01*
G01X1931787Y1542794*
X1932600Y1543131D02*
G03X1931787Y1542794I-0J-1150D01*
G01X1932600Y1543131D02*
X1947603D01*
G03X1947744Y1543190I-0J200*
G01X1952149Y1547594*
X1952962Y1547931D02*
G03X1952149Y1547594I-0J-1150D01*
G01X1952962Y1547931D02*
X1976103D01*
G03X1976244Y1547990I-0J200*
G01X1982133Y1553878*
G03X1982191Y1554020I-142J142*
X1982032Y1554215I-200J-0*
G01X1980762Y1555781D02*
G03X1982032Y1554215I1600J0D01*
G01X1983928Y1556111D02*
G03X1980762Y1555781I-1566J-330D01*
G01X1983928Y1556111D02*
G03X1984265Y1556010I195J41D01*
G01X1986600Y1558345*
G03X1986658Y1558487I-142J142*
X1986570Y1558653I-200J-0*
G01X1988129Y1561436D02*
G03X1986570Y1558653I-667J-1455D01*
G01X1988129Y1561436D02*
G03X1988412Y1561617I83J181D01*
G01Y1562265*
G03X1988148Y1562455I-200J0*
G01X1986041Y1563972D02*
G03X1988148Y1562455I1600J0D01*
G01Y1565490D02*
G03X1986041Y1563972I-507J-1518D01*
G01X1988148Y1565490D02*
G03X1988412Y1565679I64J189D01*
G01Y1582222*
G03X1988353Y1582363I-200J-0*
G01X1985819Y1584897*
G03X1985503Y1584853I-141J-141*
G01X1982504Y1585630D02*
G03X1985503Y1584853I1600J-0D01*
G01X1983327Y1587029D02*
G03X1982504Y1585630I777J-1399D01*
G01X1983327Y1587029D02*
G03X1983430Y1587204I-97J175D01*
X1983372Y1587345I-200J-0*
G01X1981344Y1589373*
G03X1981203Y1589431I-141J-142*
G01X1980553*
G03X1980420Y1589381I-0J-200*
G01X1977762Y1590581D02*
G03X1980420Y1589381I1600J0D01*
G01X1977762Y1590581D02*
X1977762D01*
X1977772Y1590761D02*
G03X1977762Y1590581I1590J-180D01*
G01X1977772Y1590761D02*
G03X1977773Y1590783I-199J22D01*
X1977432Y1590925I-200J0*
G01X1977117Y1590610*
G03X1977059Y1590481I141J-142*
G01X1973862Y1590581D02*
G03X1977059Y1590481I1600J0D01*
G01X1974822Y1592048D02*
G03X1973862Y1590581I640J-1467D01*
G01X1974822Y1592048D02*
G03X1974942Y1592231I-80J183D01*
X1974742Y1592431I-200J0*
G01X1973321*
G03X1973180Y1592373I0J-200*
G01X1971417Y1590610*
G03X1971359Y1590481I141J-142*
G01X1968829Y1589282D02*
G03X1971359Y1590481I933J1299D01*
G01X1968829Y1589282D02*
G03X1968595I-117J-163D01*
G01X1966729D02*
G03X1968595I933J1299D01*
G01X1966729D02*
G03X1966495I-117J-163D01*
G01X1964629D02*
G03X1966495I933J1299D01*
G01X1964629D02*
G03X1964395I-117J-163D01*
G01X1961862Y1590581D02*
G03X1964395Y1589282I1600J0D01*
G01Y1591881D02*
G03X1961862Y1590581I-933J-1300D01*
G01X1964395Y1591881D02*
G03X1964629I117J162D01*
G01X1966495D02*
G03X1964629I-933J-1300D01*
G01X1966495D02*
G03X1966729I117J162D01*
G01X1968595D02*
G03X1966729I-933J-1300D01*
G01X1968595D02*
G03X1968829I117J162D01*
G01X1969662Y1592178D02*
G03X1968829Y1591881I100J-1597D01*
G01X1969662Y1592178D02*
G03X1969791Y1592236I-13J200D01*
G01X1971949Y1594394*
X1972039Y1594476D02*
G03X1971949Y1594394I723J-895D01*
G01X1972039Y1594476D02*
G03X1972113Y1594631I-126J155D01*
X1971913Y1594831I-200J0*
G01X1959171*
G03X1959030Y1594773I-0J-200*
G01X1954500Y1590243*
G03X1954442Y1590102I142J-141*
X1954711Y1589914I200J-0*
G01X1956866Y1588413D02*
G03X1954711Y1589914I-1600J0D01*
G01X1954457Y1587033D02*
G03X1956866Y1588413I809J1380D01*
G01X1954457Y1587033D02*
G03X1954156Y1586860I-101J-173D01*
G01Y1578947*
X1954156D02*
G03X1954206Y1578814I200J-0D01*
G01X1954606Y1577756D02*
G03X1954206Y1578814I-1600J-0D01*
G01X1951406Y1577756D02*
G03X1954606I1600J-0D01*
G01X1951406D02*
X1951406D01*
X1951413Y1577909D02*
G03X1951406Y1577756I1593J-153D01*
G01X1951413Y1577909D02*
G03X1951414Y1577928I-199J19D01*
X1951202Y1578127I-200J-0*
G01X1949504Y1579724D02*
G03X1951202Y1578127I1600J0D01*
G01X1949904Y1580783D02*
G03X1949504Y1579724I1200J-1059D01*
G01X1949904Y1580783D02*
G03X1949954Y1580915I-150J132D01*
G01Y1591573*
X1950290Y1592386D02*
G03X1949954Y1591573I814J-813D01*
G01X1950290Y1592386D02*
X1956199Y1598294D01*
X1957012Y1598631D02*
G03X1956199Y1598294I-0J-1150D01*
G01X1957012Y1598631D02*
X2021362D01*
X2022175Y1598294D02*
G03X2021362Y1598631I-813J-813D01*
G01X2022175Y1598294D02*
X2028724Y1591746D01*
G03X2029065Y1591875I141J141*
G01X2032262Y1591781D02*
G03X2029065Y1591875I-1600J0D01*
G01X2030756Y1590184D02*
G03X2032262Y1591781I-94J1597D01*
G01X2030756Y1590184D02*
G03X2030568Y1589984I12J-200D01*
X2030627Y1589843I200J0*
G01X2040930Y1579539*
G03X2041272Y1579681I142J142*
G01Y1583155*
G03X2041015Y1583347I-200J-0*
G01X2038962Y1584881D02*
G03X2041015Y1583347I1600J0D01*
G01X2039262Y1585814D02*
G03X2038962Y1584881I1300J-933D01*
G01X2039262Y1585814D02*
G03X2039300Y1585931I-162J117D01*
X2039262Y1586048I-200J0*
G01X2038962Y1586981D02*
G03X2039262Y1586048I1600J0D01*
G01X2041015Y1588516D02*
G03X2038962Y1586981I-453J-1535D01*
G01X2041015Y1588516D02*
G03X2041272Y1588707I57J191D01*
G01Y1598000*
X1967983Y1541931D02*
G03X1967970Y1542003I-200J0D01*
G01X1967862Y1542581D02*
G03X1967970Y1542003I1600J0D01*
G01X1967913Y1542981D02*
G03X1967862Y1542581I1549J-400D01*
G01X1967913Y1542981D02*
G03X1967919Y1543031I-194J50D01*
G01X1967919*
G03X1967719Y1543231I-200J0*
G01X1955559*
G03X1955418Y1543173I0J-200*
G01X1949278Y1537033*
G03X1949219Y1536891I141J-142*
X1949238Y1536806I200J0*
G01X1949603Y1535181D02*
G03X1949238Y1536806I-3803J0D01*
G01X1946416Y1531429D02*
G03X1949603Y1535181I-616J3752D01*
G01X1946416Y1531429D02*
G03X1946248Y1531231I32J-198D01*
X1946448Y1531031I200J0*
G01X1955152*
G03X1955352Y1531231I-0J200*
X1955184Y1531429I-200J0*
G01X1951997Y1535181D02*
G03X1955184Y1531429I3803J0D01*
G01X1959603Y1535181D02*
G03X1951997I-3803J0D01*
G01X1956416Y1531429D02*
G03X1959603Y1535181I-616J3752D01*
G01X1956416Y1531429D02*
G03X1956248Y1531231I32J-198D01*
X1956448Y1531031I200J0*
G01X1965152*
G03X1965352Y1531231I-0J200*
X1965184Y1531429I-200J0*
G01X1961997Y1535181D02*
G03X1965184Y1531429I3803J0D01*
G01X1965861Y1538983D02*
G03X1961997Y1535181I-61J-3802D01*
G01X1965861Y1538983D02*
G03X1966064Y1539183I3J200D01*
X1966030Y1539294I-200J0*
G01X1965762Y1540181D02*
G03X1966030Y1539294I1600J0D01*
G01X1967737Y1541737D02*
G03X1965762Y1540181I-375J-1556D01*
G01X1967737Y1541737D02*
G03X1967983Y1541931I46J194D01*
G01X2116252Y1552599D02*
G03X2120055Y1556402I0J3803D01*
G01X2116252Y1552599D02*
X2115071D01*
X2111269Y1556402D02*
G03X2115071Y1552599I3802J-0D01*
G01Y1560204D02*
G03X2111269Y1556402I0J-3802D01*
G01X2115071Y1560204D02*
X2116252D01*
X2120055Y1556402D02*
G03X2116252Y1560204I-3803J-0D01*
G01Y1580158D02*
G03X2120055Y1583961I0J3803D01*
G01X2116252Y1580158D02*
X2115071D01*
X2111269Y1583961D02*
G03X2115071Y1580158I3802J-0D01*
G01Y1587763D02*
G03X2111269Y1583961I0J-3802D01*
G01X2115071Y1587763D02*
X2116252D01*
X2120055Y1583961D02*
G03X2116252Y1587763I-3803J-0D01*
G01X2101686Y1552599D02*
G03X2105488Y1556402I-0J3803D01*
G01X2101686Y1552599D02*
X2100504D01*
X2096702Y1556402D02*
G03X2100504Y1552599I3802J-0D01*
G01Y1560204D02*
G03X2096702Y1556402I0J-3802D01*
G01X2100504Y1560204D02*
X2101686D01*
X2105488Y1556402D02*
G03X2101686Y1560204I-3802J-0D01*
G01X2109338Y1562307D02*
G03X2109338I-2181J0D01*
G01Y1578055D02*
G03X2109338I-2181J0D01*
G01X2097584Y1567610D02*
G03X2097584I-1600J0D01*
G01X2101686Y1580158D02*
G03X2105488Y1583961I-0J3803D01*
G01X2101686Y1580158D02*
X2100504D01*
X2096702Y1583961D02*
G03X2100504Y1580158I3802J-0D01*
G01Y1587763D02*
G03X2096702Y1583961I0J-3802D01*
G01X2100504Y1587763D02*
X2101686D01*
X2105488Y1583961D02*
G03X2101686Y1587763I-3802J-0D01*
G01X2092162Y1570807D02*
G03X2092162I-1600J0D01*
G01X2003224Y1562008D02*
G03X2003224I-1600J0D01*
G01X2036462Y1593581D02*
G03X2036462I-1600J0D01*
G01X1985742Y1578369D02*
G03X1986492Y1579724I-850J1355D01*
G01X1985742Y1578369D02*
G03X1985649Y1578200I107J-169D01*
X1985655Y1578151I200J-0*
G01X1985704Y1577756D02*
G03X1985655Y1578151I-1600J-0D01*
G01Y1577361D02*
G03X1985704Y1577756I-1551J395D01*
G01X1985655Y1577361D02*
G03X1985649Y1577312I194J-49D01*
X1985742Y1577143I200J-0*
G01X1986492Y1575787D02*
G03X1985742Y1577143I-1600J0D01*
G01Y1574432D02*
G03X1986492Y1575787I-850J1355D01*
G01X1985742Y1574432D02*
G03X1985649Y1574263I107J-169D01*
X1985655Y1574214I200J-0*
G01X1985704Y1573819D02*
G03X1985655Y1574214I-1600J-0D01*
G01Y1573424D02*
G03X1985704Y1573819I-1551J395D01*
G01X1985655Y1573424D02*
G03X1985649Y1573375I194J-49D01*
X1985742Y1573206I200J-0*
G01X1986492Y1571850D02*
G03X1985742Y1573206I-1600J0D01*
G01Y1570495D02*
G03X1986492Y1571850I-850J1355D01*
G01X1985742Y1570495D02*
G03X1985649Y1570326I107J-169D01*
X1985655Y1570277I200J-0*
G01X1985704Y1569882D02*
G03X1985655Y1570277I-1600J-0D01*
G01Y1569487D02*
G03X1985704Y1569882I-1551J395D01*
G01X1985655Y1569487D02*
G03X1985649Y1569438I194J-49D01*
X1985742Y1569269I200J-0*
G01X1986492Y1567913D02*
G03X1985742Y1569269I-1600J0D01*
G01Y1566558D02*
G03X1986492Y1567913I-850J1355D01*
G01X1985742Y1566558D02*
G03X1985649Y1566389I107J-169D01*
X1985655Y1566340I200J-0*
G01X1985704Y1565945D02*
G03X1985655Y1566340I-1600J-0D01*
G01X1982504Y1565945D02*
G03X1985704I1600J-0D01*
G01X1983254Y1567300D02*
G03X1982504Y1565945I850J-1355D01*
G01X1983254Y1567300D02*
G03X1983347Y1567469I-107J169D01*
X1983341Y1567519I-200J0*
G01X1983292Y1567913D02*
G03X1983341Y1567519I1600J0D01*
G01Y1568308D02*
G03X1983292Y1567913I1551J-395D01*
G01X1983341Y1568308D02*
G03X1983347Y1568357I-194J49D01*
X1983254Y1568527I-200J0*
G01X1982504Y1569882D02*
G03X1983254Y1568527I1600J-0D01*
G01Y1571237D02*
G03X1982504Y1569882I850J-1355D01*
G01X1983254Y1571237D02*
G03X1983347Y1571406I-107J169D01*
X1983341Y1571456I-200J0*
G01X1983292Y1571850D02*
G03X1983341Y1571456I1600J0D01*
G01Y1572245D02*
G03X1983292Y1571850I1551J-395D01*
G01X1983341Y1572245D02*
G03X1983347Y1572294I-194J49D01*
X1983254Y1572464I-200J0*
G01X1982504Y1573819D02*
G03X1983254Y1572464I1600J-0D01*
G01Y1575174D02*
G03X1982504Y1573819I850J-1355D01*
G01X1983254Y1575174D02*
G03X1983347Y1575343I-107J169D01*
X1983341Y1575393I-200J0*
G01X1983292Y1575787D02*
G03X1983341Y1575393I1600J0D01*
G01Y1576182D02*
G03X1983292Y1575787I1551J-395D01*
G01X1983341Y1576182D02*
G03X1983347Y1576231I-194J49D01*
X1983254Y1576401I-200J0*
G01X1982504Y1577756D02*
G03X1983254Y1576401I1600J-0D01*
G01Y1579111D02*
G03X1982504Y1577756I850J-1355D01*
G01X1983254Y1579111D02*
G03X1983347Y1579280I-107J169D01*
X1983341Y1579330I-200J0*
G01X1983292Y1579724D02*
G03X1983341Y1579330I1600J0D01*
G01Y1580119D02*
G03X1983292Y1579724I1551J-395D01*
G01X1983341Y1580119D02*
G03X1983347Y1580168I-194J49D01*
X1983254Y1580338I-200J0*
G01X1982504Y1581693D02*
G03X1983254Y1580338I1600J-0D01*
G01X1985704Y1581693D02*
G03X1982504I-1600J-0D01*
G01X1985655Y1581298D02*
G03X1985704Y1581693I-1551J395D01*
G01X1985655Y1581298D02*
G03X1985649Y1581249I194J-49D01*
X1985742Y1581080I200J-0*
G01X1986492Y1579724D02*
G03X1985742Y1581080I-1600J0D01*
G01X1976007Y1557565D02*
G03X1978962Y1558415I1355J850D01*
G01X1976007Y1557565D02*
G03X1975788Y1557652I-169J-107D01*
G01X1973794Y1559203D02*
G03X1975788Y1557652I1600J-0D01*
G01X1976749Y1560053D02*
G03X1973794Y1559203I-1355J-850D01*
G01X1976749Y1560053D02*
G03X1976968Y1559966I169J107D01*
G01X1978962Y1558415D02*
G03X1976968Y1559966I-1600J0D01*
G01X1971062Y1557652D02*
G03X1973057Y1559203I395J1551D01*
G01X1971062Y1557652D02*
G03X1970843Y1557565I-49J-194D01*
G01X1968133D02*
G03X1970843I1355J850D01*
G01X1968133D02*
G03X1967914Y1557652I-169J-107D01*
G01X1967125D02*
G03X1967914I395J1551D01*
G01X1967125D02*
G03X1966906Y1557565I-49J-194D01*
G01X1963951Y1558415D02*
G03X1966906Y1557565I1600J0D01*
G01X1965946Y1559966D02*
G03X1963951Y1558415I-395J-1551D01*
G01X1965946Y1559966D02*
G03X1966165Y1560053I49J194D01*
G01X1968875D02*
G03X1966165I-1355J-850D01*
G01X1968875D02*
G03X1969094Y1559966I169J107D01*
G01X1969883D02*
G03X1969094I-395J-1551D01*
G01X1969883D02*
G03X1970102Y1560053I49J194D01*
G01X1973057Y1559203D02*
G03X1970102Y1560053I-1600J-0D01*
G01X1959446Y1555780D02*
G03X1959446I-2100J0D01*
G01X1954546Y1562180D02*
G03X1954546I-1600J0D01*
G01X1954466Y1567913D02*
G03X1954466I-1600J0D01*
G01X1954470Y1573819D02*
G03X1954470I-1600J0D01*
G01X1945466Y1555220D02*
Y1546362D01*
X1945216Y1546112D02*
G03X1945466Y1546362I-0J250D01*
G01X1945216Y1546112D02*
X1934979D01*
X1934729Y1546362D02*
G03X1934979Y1546112I250J0D01*
G01X1934729Y1546362D02*
Y1555220D01*
X1934979Y1555470D02*
G03X1934729Y1555220I0J-250D01*
G01X1934979Y1555470D02*
X1945216D01*
X1945466Y1555220D02*
G03X1945216Y1555470I-250J0D01*
G01X1945859Y1597740D02*
Y1588094D01*
X1945609Y1587844D02*
G03X1945859Y1588094I0J250D01*
G01X1945609Y1587844D02*
X1934586D01*
X1934336Y1588094D02*
G03X1934586Y1587844I250J0D01*
G01X1934336Y1588094D02*
Y1597740D01*
X1934586Y1597990D02*
G03X1934336Y1597740I-0J-250D01*
G01X1934586Y1597990D02*
X1945609D01*
X1945859Y1597740D02*
G03X1945609Y1597990I-250J0D01*
G01X1929796Y1563016D02*
Y1555929D01*
X1929546Y1555679D02*
G03X1929796Y1555929I0J250D01*
G01X1929546Y1555679D02*
X1921565D01*
X1921315Y1555929D02*
G03X1921565Y1555679I250J-0D01*
G01X1921315Y1555929D02*
Y1563016D01*
X1921565Y1563266D02*
G03X1921315Y1563016I-0J-250D01*
G01X1921565Y1563266D02*
X1929546D01*
X1929796Y1563016D02*
G03X1929546Y1563266I-250J-0D01*
G01X2070245Y1565011D02*
X2074212D01*
X2069795Y1564561D02*
X2074212D01*
X2069345Y1564111D02*
X2074212D01*
X2068895Y1563661D02*
X2074212D01*
X2068445Y1563211D02*
X2074212D01*
X2030336Y1562761D02*
X2074212D01*
X2030786Y1562311D02*
X2074212D01*
X2070695Y1565461D02*
X2074028D01*
X2031236Y1561861D02*
X2073888D01*
X2071145Y1565911D02*
X2073578D01*
X2031686Y1561411D02*
X2073438D01*
X2072873Y1560961D02*
X2072934D01*
X2032136D02*
X2070666D01*
X2032586Y1560511D02*
X2070323D01*
X2033036Y1560061D02*
X2070171D01*
X2029886Y1563211D02*
X2035778D01*
X2029436Y1563661D02*
X2035328D01*
X2028986Y1564111D02*
X2034878D01*
X2028536Y1564561D02*
X2034428D01*
X2028086Y1565011D02*
X2033978D01*
X2027636Y1565461D02*
X2033528D01*
X2027186Y1565911D02*
X2033078D01*
X2026736Y1566361D02*
X2032628D01*
X2026286Y1566811D02*
X2032178D01*
X2025836Y1567261D02*
X2031728D01*
X2025386Y1567711D02*
X2031278D01*
X2024936Y1568161D02*
X2030828D01*
X2024486Y1568611D02*
X2030378D01*
X2024312Y1569061D02*
X2029928D01*
X2024312Y1569511D02*
X2029478D01*
X2024312Y1569961D02*
X2029028D01*
X2024312Y1570411D02*
X2028578D01*
X2024312Y1570861D02*
X2028128D01*
X2024312Y1571311D02*
X2027678D01*
X2024312Y1571761D02*
X2027228D01*
X2024312Y1572211D02*
X2026778D01*
X2024495Y1572661D02*
X2026328D01*
X2119601Y1605280D02*
X2122312D01*
X2119586Y1604830D02*
X2122312D01*
X2119517Y1604380D02*
X2122312D01*
X2119391Y1603930D02*
X2122312D01*
X2119201Y1603480D02*
X2122312D01*
X2118936Y1603030D02*
X2122312D01*
X2118574Y1602580D02*
X2122312D01*
X2118069Y1602130D02*
X2122312D01*
X2117284Y1601680D02*
X2122312D01*
X2086113Y1601230D02*
X2122312D01*
X2086112Y1600780D02*
X2122312D01*
X2086112Y1600330D02*
X2122312D01*
X2086112Y1599880D02*
X2122312D01*
X2086112Y1599430D02*
X2122312D01*
X2086112Y1598980D02*
X2122312D01*
X2086112Y1598530D02*
X2122312D01*
X2086112Y1598080D02*
X2122312D01*
X2086112Y1597630D02*
X2122312D01*
X2086112Y1597180D02*
X2122312D01*
X2086112Y1596730D02*
X2122312D01*
X2086112Y1596280D02*
X2122312D01*
X2086112Y1595830D02*
X2122312D01*
X2086112Y1595380D02*
X2122312D01*
X2086112Y1594930D02*
X2122312D01*
X2086112Y1594480D02*
X2122312D01*
X2086112Y1594030D02*
X2122312D01*
X2086112Y1593580D02*
X2122312D01*
X2086112Y1593130D02*
X2122312D01*
X2086112Y1592680D02*
X2122312D01*
X2086112Y1592230D02*
X2122312D01*
X2086112Y1591780D02*
X2122312D01*
X2086112Y1591330D02*
X2122312D01*
X2086112Y1590880D02*
X2122312D01*
X2086112Y1590430D02*
X2122312D01*
X2086112Y1589980D02*
X2122312D01*
X2086112Y1589530D02*
X2122312D01*
X2086112Y1589080D02*
X2122312D01*
X2086112Y1588630D02*
X2122312D01*
X2086112Y1588180D02*
X2122312D01*
X2116757Y1587730D02*
X2122312D01*
X2118108Y1587280D02*
X2122312D01*
X2118748Y1586830D02*
X2122312D01*
X2119187Y1586380D02*
X2122312D01*
X2119506Y1585930D02*
X2122312D01*
X2119739Y1585480D02*
X2122312D01*
X2119902Y1585030D02*
X2122312D01*
X2120005Y1584580D02*
X2122312D01*
X2120051Y1584130D02*
X2122312D01*
X2120045Y1583680D02*
X2122312D01*
X2119984Y1583230D02*
X2122312D01*
X2119867Y1582780D02*
X2122312D01*
X2119688Y1582330D02*
X2122312D01*
X2119435Y1581880D02*
X2122312D01*
X2119091Y1581430D02*
X2122312D01*
X2118614Y1580980D02*
X2122312D01*
X2117893Y1580530D02*
X2122312D01*
X2107968Y1580080D02*
X2122312D01*
X2108666Y1579630D02*
X2122312D01*
X2109025Y1579180D02*
X2122312D01*
X2109231Y1578730D02*
X2122312D01*
X2109326Y1578280D02*
X2122312D01*
X2109326Y1577830D02*
X2122312D01*
X2109231Y1577380D02*
X2122312D01*
X2109025Y1576930D02*
X2122312D01*
X2108665Y1576480D02*
X2122312D01*
X2107966Y1576030D02*
X2122312D01*
X2086112Y1575580D02*
X2122312D01*
X2086112Y1575130D02*
X2122312D01*
X2086112Y1574680D02*
X2122312D01*
X2086112Y1574230D02*
X2122312D01*
X2086112Y1573780D02*
X2122312D01*
X2086112Y1573330D02*
X2122312D01*
X2086112Y1572880D02*
X2122312D01*
X2086112Y1572430D02*
X2122312D01*
X2091650Y1571980D02*
X2122312D01*
X2091989Y1571530D02*
X2122312D01*
X2092138Y1571080D02*
X2122312D01*
X2092152Y1570630D02*
X2122312D01*
X2092034Y1570180D02*
X2122312D01*
X2091745Y1569730D02*
X2122312D01*
X2091039Y1569280D02*
X2122312D01*
X2097020Y1568830D02*
X2122312D01*
X2097387Y1568380D02*
X2122312D01*
X2097552Y1567930D02*
X2122312D01*
X2097579Y1567480D02*
X2122312D01*
X2097475Y1567030D02*
X2122312D01*
X2097208Y1566580D02*
X2122312D01*
X2096591Y1566130D02*
X2122312D01*
X2086112Y1565680D02*
X2122312D01*
X2086112Y1565230D02*
X2122312D01*
X2086112Y1564780D02*
X2122312D01*
X2107973Y1564330D02*
X2122312D01*
X2108668Y1563880D02*
X2122312D01*
X2109027Y1563430D02*
X2122312D01*
X2109231Y1562980D02*
X2122312D01*
X2109326Y1562530D02*
X2122312D01*
X2109326Y1562080D02*
X2122312D01*
X2109230Y1561630D02*
X2122312D01*
X2109024Y1561180D02*
X2122312D01*
X2108663Y1560730D02*
X2122312D01*
X2107961Y1560280D02*
X2122312D01*
X2117898Y1559830D02*
X2122312D01*
X2118617Y1559380D02*
X2122312D01*
X2119093Y1558930D02*
X2122312D01*
X2119437Y1558480D02*
X2122312D01*
X2119689Y1558030D02*
X2122312D01*
X2119868Y1557580D02*
X2122312D01*
X2119985Y1557130D02*
X2122312D01*
X2120045Y1556680D02*
X2122312D01*
X2120051Y1556230D02*
X2122312D01*
X2120004Y1555780D02*
X2122312D01*
X2119901Y1555330D02*
X2122312D01*
X2119738Y1554880D02*
X2122312D01*
X2119504Y1554430D02*
X2122312D01*
X2119184Y1553980D02*
X2122312D01*
X2118745Y1553530D02*
X2122312D01*
X2118104Y1553080D02*
X2122312D01*
X2116737Y1552630D02*
X2122312D01*
X2085087Y1552180D02*
X2122312D01*
X2084637Y1551730D02*
X2122312D01*
X2084187Y1551280D02*
X2122312D01*
X2083737Y1550830D02*
X2122312D01*
X2083287Y1550380D02*
X2122312D01*
X2082837Y1549930D02*
X2122312D01*
X2082387Y1549480D02*
X2122312D01*
X2081937Y1549030D02*
X2122312D01*
X2081487Y1548580D02*
X2122312D01*
X2081037Y1548130D02*
X2122312D01*
X2080587Y1547680D02*
X2122312D01*
X2080137Y1547230D02*
X2122312D01*
X2079687Y1546780D02*
X2122312D01*
X2079237Y1546330D02*
X2122312D01*
X2078787Y1545880D02*
X2122312D01*
X2078337Y1545430D02*
X2122312D01*
X2077887Y1544980D02*
X2122312D01*
X2077437Y1544530D02*
X2122312D01*
X2076987Y1544080D02*
X2122312D01*
X2076537Y1543630D02*
X2122312D01*
X2076087Y1543180D02*
X2122312D01*
X2075637Y1542730D02*
X2122312D01*
X2075187Y1542280D02*
X2122312D01*
X2074737Y1541830D02*
X2122312D01*
X2074287Y1541380D02*
X2122312D01*
X2073837Y1540930D02*
X2122312D01*
X2073387Y1540480D02*
X2122312D01*
X2072937Y1540030D02*
X2122312D01*
X2072487Y1539580D02*
X2122312D01*
X2071928Y1539130D02*
X2122312D01*
X2117290Y1538680D02*
X2122312D01*
X2118073Y1538230D02*
X2122312D01*
X2118576Y1537780D02*
X2122312D01*
X2118937Y1537330D02*
X2122312D01*
X2119202Y1536880D02*
X2122312D01*
X2119392Y1536430D02*
X2122312D01*
X2119518Y1535980D02*
X2122312D01*
X2119587Y1535530D02*
X2122312D01*
X2119601Y1535080D02*
X2122312D01*
X2119563Y1605730D02*
X2122302D01*
X2119563Y1534630D02*
X2122302D01*
X2119469Y1606180D02*
X2122244D01*
X2119469Y1534180D02*
X2122244D01*
X2119316Y1606630D02*
X2122130D01*
X2119315Y1533730D02*
X2122129D01*
X2119095Y1607080D02*
X2121956D01*
X2119093Y1533280D02*
X2121955D01*
X2118791Y1607530D02*
X2121711D01*
X2118789Y1532830D02*
X2121709D01*
X2118374Y1607980D02*
X2121378D01*
X2118372Y1532380D02*
X2121376D01*
X2117777Y1608430D02*
X2120922D01*
X2117772Y1531930D02*
X2120919D01*
X2116683Y1608880D02*
X2120252D01*
X2116673Y1531480D02*
X2120248D01*
X2116425Y1609330D02*
X2118537D01*
X2106425D02*
X2115174D01*
X2106673Y1531480D02*
X2114927D01*
X2106683Y1608880D02*
X2114916D01*
X2102170Y1552630D02*
X2114587D01*
X2102190Y1587730D02*
X2114567D01*
X2107284Y1601680D02*
X2114316D01*
X2107290Y1538680D02*
X2114310D01*
X2107772Y1531930D02*
X2113828D01*
X2107777Y1608430D02*
X2113823D01*
X2108069Y1602130D02*
X2113530D01*
X2108073Y1538230D02*
X2113527D01*
X2103326Y1580530D02*
X2113431D01*
X2103331Y1559830D02*
X2113426D01*
X2108372Y1532380D02*
X2113228D01*
X2108374Y1607980D02*
X2113225D01*
X2103537Y1553080D02*
X2113220D01*
X2103541Y1587280D02*
X2113216D01*
X2108574Y1602580D02*
X2113026D01*
X2108576Y1537780D02*
X2113024D01*
X2108789Y1532830D02*
X2112811D01*
X2108791Y1607530D02*
X2112809D01*
X2104047Y1580980D02*
X2112710D01*
X2104050Y1559380D02*
X2112707D01*
X2108936Y1603030D02*
X2112664D01*
X2108937Y1537330D02*
X2112662D01*
X2104178Y1553530D02*
X2112579D01*
X2104181Y1586830D02*
X2112576D01*
X2109093Y1533280D02*
X2112507D01*
X2109095Y1607080D02*
X2112505D01*
X2109201Y1603480D02*
X2112399D01*
X2109202Y1536880D02*
X2112398D01*
X2109315Y1533730D02*
X2112285D01*
X2109316Y1606630D02*
X2112284D01*
X2104524Y1581430D02*
X2112233D01*
X2104526Y1558930D02*
X2112231D01*
X2109391Y1603930D02*
X2112209D01*
X2109392Y1536430D02*
X2112208D01*
X2104617Y1553980D02*
X2112139D01*
X2104620Y1586380D02*
X2112137D01*
X2109469Y1534180D02*
X2112131D01*
X2109469Y1606180D02*
X2112131D01*
X2109517Y1604380D02*
X2112083D01*
X2109518Y1535980D02*
X2112082D01*
X2109563Y1534630D02*
X2112037D01*
X2109563Y1605730D02*
X2112037D01*
X2109586Y1604830D02*
X2112013D01*
X2109587Y1535530D02*
X2112013D01*
X2109601Y1535080D02*
X2111999D01*
X2109601Y1605280D02*
X2111998D01*
X2104869Y1581880D02*
X2111888D01*
X2104870Y1558480D02*
X2111887D01*
X2104937Y1554430D02*
X2111820D01*
X2104939Y1585930D02*
X2111818D01*
X2105121Y1582330D02*
X2111636D01*
X2105122Y1558030D02*
X2111635D01*
X2105171Y1554880D02*
X2111586D01*
X2105172Y1585480D02*
X2111585D01*
X2105300Y1582780D02*
X2111457D01*
X2105301Y1557580D02*
X2111456D01*
X2105334Y1555330D02*
X2111423D01*
X2105335Y1585030D02*
X2111422D01*
X2105417Y1583230D02*
X2111339D01*
X2105418Y1557130D02*
X2111339D01*
X2105437Y1555780D02*
X2111320D01*
X2105438Y1584580D02*
X2111319D01*
X2105478Y1583680D02*
X2111279D01*
X2105478Y1556680D02*
X2111279D01*
X2105484Y1556230D02*
X2111272D01*
X2105485Y1584130D02*
X2111272D01*
X2086112Y1560280D02*
X2106352D01*
X2086112Y1576030D02*
X2106347D01*
X2086112Y1580080D02*
X2106346D01*
X2086112Y1564330D02*
X2106341D01*
X2086112Y1560730D02*
X2105650D01*
X2086112Y1576480D02*
X2105648D01*
X2086112Y1579630D02*
X2105648D01*
X2086112Y1563880D02*
X2105645D01*
X2086112Y1561180D02*
X2105289D01*
X2086112Y1576930D02*
X2105288D01*
X2086112Y1579180D02*
X2105288D01*
X2086112Y1563430D02*
X2105287D01*
X2096425Y1609330D02*
X2105174D01*
X2086112Y1561630D02*
X2105083D01*
X2086112Y1577380D02*
X2105083D01*
X2086112Y1578730D02*
X2105083D01*
X2086112Y1562980D02*
X2105082D01*
X2086112Y1562080D02*
X2104987D01*
X2086112Y1577830D02*
X2104987D01*
X2086112Y1578280D02*
X2104987D01*
X2086112Y1562530D02*
X2104987D01*
X2096673Y1531480D02*
X2104927D01*
X2096683Y1608880D02*
X2104916D01*
X2097284Y1601680D02*
X2104316D01*
X2097290Y1538680D02*
X2104310D01*
X2097772Y1531930D02*
X2103828D01*
X2097777Y1608430D02*
X2103823D01*
X2098069Y1602130D02*
X2103530D01*
X2098073Y1538230D02*
X2103527D01*
X2098372Y1532380D02*
X2103228D01*
X2098374Y1607980D02*
X2103225D01*
X2098574Y1602580D02*
X2103026D01*
X2098576Y1537780D02*
X2103024D01*
X2098789Y1532830D02*
X2102811D01*
X2098791Y1607530D02*
X2102809D01*
X2098936Y1603030D02*
X2102664D01*
X2098937Y1537330D02*
X2102662D01*
X2099093Y1533280D02*
X2102507D01*
X2099095Y1607080D02*
X2102505D01*
X2099201Y1603480D02*
X2102399D01*
X2099202Y1536880D02*
X2102398D01*
X2099315Y1533730D02*
X2102285D01*
X2099316Y1606630D02*
X2102284D01*
X2099391Y1603930D02*
X2102209D01*
X2099392Y1536430D02*
X2102208D01*
X2099469Y1534180D02*
X2102131D01*
X2099469Y1606180D02*
X2102131D01*
X2099517Y1604380D02*
X2102083D01*
X2099518Y1535980D02*
X2102082D01*
X2099563Y1534630D02*
X2102037D01*
X2099563Y1605730D02*
X2102037D01*
X2099586Y1604830D02*
X2102013D01*
X2099587Y1535530D02*
X2102013D01*
X2099601Y1535080D02*
X2101999D01*
X2099601Y1605280D02*
X2101998D01*
X2085537Y1552630D02*
X2100020D01*
X2086112Y1587730D02*
X2100000D01*
X2086112Y1580530D02*
X2098864D01*
X2086112Y1559830D02*
X2098859D01*
X2085942Y1553080D02*
X2098653D01*
X2086112Y1587280D02*
X2098649D01*
X2086112Y1580980D02*
X2098143D01*
X2086112Y1559380D02*
X2098140D01*
X2086102Y1553530D02*
X2098012D01*
X2086112Y1586830D02*
X2098009D01*
X2086112Y1581430D02*
X2097666D01*
X2086112Y1558930D02*
X2097664D01*
X2086112Y1553980D02*
X2097573D01*
X2086112Y1586380D02*
X2097570D01*
X2086112Y1581880D02*
X2097321D01*
X2086112Y1558480D02*
X2097320D01*
X2086112Y1554430D02*
X2097253D01*
X2086112Y1585930D02*
X2097251D01*
X2086112Y1582330D02*
X2097069D01*
X2086112Y1558030D02*
X2097068D01*
X2086112Y1554880D02*
X2097019D01*
X2086112Y1585480D02*
X2097018D01*
X2086112Y1582780D02*
X2096890D01*
X2086112Y1557580D02*
X2096889D01*
X2086112Y1555330D02*
X2096856D01*
X2086112Y1585030D02*
X2096855D01*
X2086112Y1583230D02*
X2096773D01*
X2086112Y1557130D02*
X2096772D01*
X2086112Y1555780D02*
X2096753D01*
X2086112Y1584580D02*
X2096752D01*
X2086112Y1583680D02*
X2096712D01*
X2086112Y1556680D02*
X2096712D01*
X2086112Y1556230D02*
X2096706D01*
X2086112Y1584130D02*
X2096705D01*
X2086112Y1566130D02*
X2095377D01*
X2086425Y1609330D02*
X2095174D01*
X2086112Y1568830D02*
X2094948D01*
X2086673Y1531480D02*
X2094927D01*
X2086683Y1608880D02*
X2094916D01*
X2086112Y1566580D02*
X2094760D01*
X2086112Y1568380D02*
X2094581D01*
X2086112Y1567030D02*
X2094493D01*
X2086112Y1567930D02*
X2094416D01*
X2086112Y1567480D02*
X2094389D01*
X2087284Y1601680D02*
X2094316D01*
X2087290Y1538680D02*
X2094310D01*
X2087772Y1531930D02*
X2093828D01*
X2087777Y1608430D02*
X2093823D01*
X2088069Y1602130D02*
X2093530D01*
X2088073Y1538230D02*
X2093527D01*
X2088372Y1532380D02*
X2093228D01*
X2088374Y1607980D02*
X2093225D01*
X2088574Y1602580D02*
X2093026D01*
X2088576Y1537780D02*
X2093024D01*
X2088789Y1532830D02*
X2092811D01*
X2088791Y1607530D02*
X2092809D01*
X2088936Y1603030D02*
X2092664D01*
X2088937Y1537330D02*
X2092662D01*
X2089093Y1533280D02*
X2092507D01*
X2089095Y1607080D02*
X2092505D01*
X2089201Y1603480D02*
X2092399D01*
X2089202Y1536880D02*
X2092398D01*
X2089315Y1533730D02*
X2092285D01*
X2089316Y1606630D02*
X2092284D01*
X2089391Y1603930D02*
X2092209D01*
X2089392Y1536430D02*
X2092208D01*
X2089469Y1534180D02*
X2092131D01*
X2089469Y1606180D02*
X2092131D01*
X2089517Y1604380D02*
X2092083D01*
X2089518Y1535980D02*
X2092082D01*
X2089563Y1534630D02*
X2092037D01*
X2089563Y1605730D02*
X2092037D01*
X2089586Y1604830D02*
X2092013D01*
X2089587Y1535530D02*
X2092013D01*
X2089601Y1535080D02*
X2091999D01*
X2089601Y1605280D02*
X2091998D01*
X2086112Y1569280D02*
X2090085D01*
X2086112Y1571980D02*
X2089473D01*
X2086112Y1569730D02*
X2089379D01*
X2086112Y1571530D02*
X2089134D01*
X2086112Y1570180D02*
X2089090D01*
X2086112Y1571080D02*
X2088985D01*
X2086112Y1570630D02*
X2088972D01*
X2076673Y1531480D02*
X2084927D01*
X2077290Y1538680D02*
X2084310D01*
X2077772Y1531930D02*
X2083828D01*
X2078073Y1538230D02*
X2083527D01*
X2078372Y1532380D02*
X2083228D01*
X2078576Y1537780D02*
X2083024D01*
X2078789Y1532830D02*
X2082811D01*
X2078937Y1537330D02*
X2082662D01*
X2079093Y1533280D02*
X2082507D01*
X2079202Y1536880D02*
X2082398D01*
X2079315Y1533730D02*
X2082285D01*
X2079392Y1536430D02*
X2082208D01*
X2079469Y1534180D02*
X2082131D01*
X2079518Y1535980D02*
X2082082D01*
X2079563Y1534630D02*
X2082037D01*
X2079587Y1535530D02*
X2082013D01*
X2079601Y1535080D02*
X2081999D01*
X2066673Y1531480D02*
X2074927D01*
X2067312Y1538680D02*
X2074310D01*
X2067772Y1531930D02*
X2073828D01*
X2068073Y1538230D02*
X2073527D01*
X2068372Y1532380D02*
X2073228D01*
X2068576Y1537780D02*
X2073024D01*
X2068789Y1532830D02*
X2072811D01*
X2068937Y1537330D02*
X2072662D01*
X2069093Y1533280D02*
X2072507D01*
X2069202Y1536880D02*
X2072398D01*
X2069315Y1533730D02*
X2072285D01*
X2069392Y1536430D02*
X2072208D01*
X2069469Y1534180D02*
X2072131D01*
X2069518Y1535980D02*
X2072082D01*
X2069563Y1534630D02*
X2072037D01*
X2069587Y1535530D02*
X2072013D01*
X2069601Y1535080D02*
X2071999D01*
X2033633Y1573780D02*
X2080212D01*
X2034083Y1573330D02*
X2080212D01*
X2034533Y1572880D02*
X2080212D01*
X2034983Y1572430D02*
X2080212D01*
X2035433Y1571980D02*
X2080212D01*
X2035883Y1571530D02*
X2080212D01*
X2074789Y1571080D02*
X2080212D01*
X2075326Y1570630D02*
X2080212D01*
X2075776Y1570180D02*
X2080212D01*
X2076226Y1569730D02*
X2080212D01*
X2076676Y1569280D02*
X2080212D01*
X2077126Y1568830D02*
X2080212D01*
X2077576Y1568380D02*
X2080212D01*
X2078026Y1567930D02*
X2080212D01*
X2078476Y1567480D02*
X2080212D01*
X2078926Y1567030D02*
X2080212D01*
X2079331Y1566580D02*
X2080212D01*
X2079571Y1566130D02*
X2080212D01*
X2079689Y1565680D02*
X2080212D01*
X2079706Y1565230D02*
X2080212D01*
X2079624Y1564780D02*
X2080212D01*
X2079432Y1564330D02*
X2080212D01*
X2079085Y1563880D02*
X2080212D01*
X2078401Y1563430D02*
X2080212D01*
X2075312Y1562980D02*
X2080212D01*
X2075312Y1562530D02*
X2080212D01*
X2075307Y1562080D02*
X2080212D01*
X2075162Y1561630D02*
X2080212D01*
X2074763Y1561180D02*
X2080212D01*
X2074313Y1560730D02*
X2080212D01*
X2074303Y1560280D02*
X2080212D01*
X2074953Y1559830D02*
X2080212D01*
X2075229Y1559380D02*
X2080212D01*
X2075339Y1558930D02*
X2080212D01*
X2075317Y1558480D02*
X2080212D01*
X2075159Y1558030D02*
X2080212D01*
X2075096Y1557580D02*
X2080034D01*
X2045161Y1574230D02*
X2079951D01*
X2075096Y1557130D02*
X2079584D01*
X2045565Y1574680D02*
X2079501D01*
X2075096Y1556680D02*
X2079134D01*
X2045749Y1575130D02*
X2079051D01*
X2075096Y1556230D02*
X2078684D01*
X2045792Y1575580D02*
X2078601D01*
X2075096Y1555780D02*
X2078234D01*
X2045705Y1576030D02*
X2078151D01*
X2075096Y1555330D02*
X2077784D01*
X2045461Y1576480D02*
X2077701D01*
X2075096Y1554880D02*
X2077334D01*
X2045343Y1576930D02*
X2077251D01*
X2075096Y1554430D02*
X2076884D01*
X2075312Y1563430D02*
X2076821D01*
X2045343Y1577380D02*
X2076801D01*
X2075096Y1553980D02*
X2076434D01*
X2045343Y1577830D02*
X2076360D01*
X2045343Y1578280D02*
X2076137D01*
X2075312Y1563880D02*
X2076137D01*
X2045343Y1582780D02*
X2076104D01*
X2045343Y1582330D02*
X2076104D01*
X2045343Y1581880D02*
X2076104D01*
X2045343Y1581430D02*
X2076104D01*
X2045343Y1580980D02*
X2076104D01*
X2045343Y1580530D02*
X2076104D01*
X2045343Y1580080D02*
X2076104D01*
X2045343Y1579630D02*
X2076104D01*
X2045343Y1579180D02*
X2076104D01*
X2045343Y1578730D02*
X2076104D01*
X2045343Y1583230D02*
X2076094D01*
X2075119Y1553530D02*
X2075984D01*
X2075344Y1564330D02*
X2075687D01*
X2045343Y1583680D02*
X2075675D01*
X2045343Y1584130D02*
X2075225D01*
X2045343Y1584580D02*
X2074775D01*
X2045343Y1585030D02*
X2074325D01*
X2045343Y1585480D02*
X2073875D01*
X2045343Y1585930D02*
X2073425D01*
X1985937Y1550830D02*
X2073284D01*
X1986387Y1551280D02*
X2072990D01*
X2045343Y1586380D02*
X2072975D01*
X1985487Y1550380D02*
X2072834D01*
X2045343Y1586830D02*
X2072525D01*
X1986837Y1551730D02*
X2072475D01*
X1992687Y1557580D02*
X2072396D01*
X1992237Y1557130D02*
X2072396D01*
X1991787Y1556680D02*
X2072396D01*
X1991337Y1556230D02*
X2072396D01*
X1990887Y1555780D02*
X2072396D01*
X1990437Y1555330D02*
X2072396D01*
X1989987Y1554880D02*
X2072396D01*
X1989537Y1554430D02*
X2072396D01*
X1989087Y1553980D02*
X2072396D01*
X1988637Y1553530D02*
X2072392D01*
X1985037Y1549930D02*
X2072384D01*
X1993137Y1558030D02*
X2072333D01*
X1987287Y1552180D02*
X2072242D01*
X1988187Y1553080D02*
X2072212D01*
X1987737Y1552630D02*
X2072163D01*
X1993542Y1558480D02*
X2072157D01*
X2045343Y1587280D02*
X2072075D01*
X1984587Y1549480D02*
X2071934D01*
X2045343Y1587730D02*
X2071625D01*
X1984137Y1549030D02*
X2071484D01*
X2045343Y1588180D02*
X2071175D01*
X1983687Y1548580D02*
X2071034D01*
X2045343Y1588630D02*
X2070725D01*
X1983237Y1548130D02*
X2070584D01*
X2033515Y1567030D02*
X2070572D01*
X2045343Y1589080D02*
X2070275D01*
X2033965Y1566580D02*
X2070259D01*
X1982795Y1547680D02*
X2070134D01*
X2045343Y1589530D02*
X2069825D01*
X2034415Y1566130D02*
X2069809D01*
X1983223Y1547230D02*
X2069684D01*
X2045343Y1589980D02*
X2069375D01*
X2034865Y1565680D02*
X2069359D01*
X1983686Y1546780D02*
X2069234D01*
X2045343Y1590430D02*
X2068925D01*
X2035315Y1565230D02*
X2068909D01*
X1983898Y1546330D02*
X2068784D01*
X2045343Y1590880D02*
X2068475D01*
X2035765Y1564780D02*
X2068459D01*
X1983962Y1545880D02*
X2068334D01*
X2045343Y1591330D02*
X2068025D01*
X2036215Y1564330D02*
X2068009D01*
X1983905Y1545430D02*
X2067884D01*
X2045343Y1591780D02*
X2067575D01*
X2045343Y1592230D02*
X2067125D01*
X2045343Y1592680D02*
X2066675D01*
X2045343Y1593130D02*
X2066225D01*
X2045343Y1593580D02*
X2065775D01*
X2045343Y1594030D02*
X2065325D01*
X2045343Y1594480D02*
X2064875D01*
X2045343Y1594930D02*
X2064425D01*
X2045343Y1595380D02*
X2063975D01*
X2045343Y1595830D02*
X2063525D01*
X2045343Y1596280D02*
X2063075D01*
X2045343Y1596730D02*
X2062625D01*
X2045343Y1597180D02*
X2062175D01*
X2045343Y1597630D02*
X2061725D01*
X2045343Y1598080D02*
X2061275D01*
X2045343Y1598530D02*
X2060825D01*
X2045343Y1598980D02*
X2060375D01*
X2045343Y1599430D02*
X2059925D01*
X2045343Y1599880D02*
X2059475D01*
X2045343Y1600330D02*
X2059025D01*
X2045343Y1600780D02*
X2058575D01*
X2045348Y1601230D02*
X2058125D01*
X2057284Y1601680D02*
X2057675D01*
X2046425Y1609330D02*
X2055174D01*
X2046683Y1608880D02*
X2054916D01*
X2047284Y1601680D02*
X2054316D01*
X2047777Y1608430D02*
X2053823D01*
X2048069Y1602130D02*
X2053530D01*
X2048374Y1607980D02*
X2053225D01*
X2048574Y1602580D02*
X2053026D01*
X2048791Y1607530D02*
X2052809D01*
X2048936Y1603030D02*
X2052664D01*
X2049095Y1607080D02*
X2052505D01*
X2049201Y1603480D02*
X2052399D01*
X2049316Y1606630D02*
X2052284D01*
X2049391Y1603930D02*
X2052209D01*
X2049469Y1606180D02*
X2052131D01*
X2049517Y1604380D02*
X2052083D01*
X2049563Y1605730D02*
X2052037D01*
X2049586Y1604830D02*
X2052013D01*
X2049601Y1605280D02*
X2051998D01*
X2033183Y1574230D02*
X2043226D01*
X2032733Y1574680D02*
X2040622D01*
X2032283Y1575130D02*
X2040172D01*
X2031833Y1575580D02*
X2039722D01*
X2031383Y1576030D02*
X2039272D01*
X2030933Y1576480D02*
X2038822D01*
X2030483Y1576930D02*
X2038372D01*
X2030033Y1577380D02*
X2037922D01*
X2029583Y1577830D02*
X2037472D01*
X2029133Y1578280D02*
X2037022D01*
X2028683Y1578730D02*
X2036572D01*
X2027984Y1579180D02*
X2036122D01*
X1993712Y1579630D02*
X2035672D01*
X1993712Y1580080D02*
X2035222D01*
X1993712Y1580530D02*
X2034772D01*
X1993712Y1580980D02*
X2034322D01*
X2033065Y1567480D02*
X2034082D01*
X1993712Y1581430D02*
X2033872D01*
X2032615Y1567930D02*
X2033543D01*
X1993712Y1581880D02*
X2033422D01*
X2032165Y1568380D02*
X2033093D01*
X1993712Y1582330D02*
X2032972D01*
X2031715Y1568830D02*
X2032643D01*
X1993702Y1558930D02*
X2032611D01*
X1993712Y1582780D02*
X2032522D01*
X2031265Y1569280D02*
X2032193D01*
X1993712Y1559380D02*
X2032161D01*
X1993712Y1583230D02*
X2032072D01*
X2030815Y1569730D02*
X2031743D01*
X1993712Y1559830D02*
X2031711D01*
X1993712Y1583680D02*
X2031622D01*
X2030365Y1570180D02*
X2031293D01*
X1993712Y1560280D02*
X2031261D01*
X1993712Y1584130D02*
X2031172D01*
X2029915Y1570630D02*
X2030843D01*
X2002587Y1560730D02*
X2030811D01*
X1993672Y1584580D02*
X2030722D01*
X2029465Y1571080D02*
X2030393D01*
X2002993Y1561180D02*
X2030361D01*
X1993435Y1585030D02*
X2030272D01*
X2029015Y1571530D02*
X2029943D01*
X2003179Y1561630D02*
X2029911D01*
X1992990Y1585480D02*
X2029822D01*
X2028565Y1571980D02*
X2029493D01*
X2003222Y1562080D02*
X2029461D01*
X1992540Y1585930D02*
X2029372D01*
X2028115Y1572430D02*
X2029043D01*
X2003136Y1562530D02*
X2029011D01*
X1992090Y1586380D02*
X2028922D01*
X2027665Y1572880D02*
X2028593D01*
X2002895Y1562980D02*
X2028561D01*
X1991640Y1586830D02*
X2028472D01*
X2027215Y1573330D02*
X2028143D01*
X2002358Y1563430D02*
X2028111D01*
X1991190Y1587280D02*
X2028022D01*
X2026758Y1573780D02*
X2027693D01*
X1993712Y1563880D02*
X2027661D01*
X1990740Y1587730D02*
X2027572D01*
X1993712Y1574230D02*
X2027243D01*
X1993712Y1564330D02*
X2027211D01*
X1990290Y1588180D02*
X2027122D01*
X1993712Y1574680D02*
X2026793D01*
X1993712Y1564780D02*
X2026761D01*
X1989840Y1588630D02*
X2026672D01*
X1993712Y1565230D02*
X2026311D01*
X1989390Y1589080D02*
X2026222D01*
X1993712Y1565680D02*
X2025861D01*
X1988940Y1589530D02*
X2025772D01*
X1993712Y1566130D02*
X2025411D01*
X1988490Y1589980D02*
X2025322D01*
X1993712Y1566580D02*
X2024961D01*
X1993712Y1575130D02*
X2024952D01*
X1988040Y1590430D02*
X2024872D01*
X1993712Y1567030D02*
X2024511D01*
X1987590Y1590880D02*
X2024422D01*
X1993712Y1579180D02*
X2024338D01*
X1993712Y1573780D02*
X2024066D01*
X1993712Y1567480D02*
X2024061D01*
X1987140Y1591330D02*
X2023972D01*
X1993712Y1575580D02*
X2023798D01*
X1993712Y1578730D02*
X2023639D01*
X1993712Y1567930D02*
X2023611D01*
X1993712Y1573330D02*
X2023609D01*
X1986690Y1591780D02*
X2023522D01*
X1993712Y1576030D02*
X2023376D01*
X1993712Y1568380D02*
X2023289D01*
X1993712Y1572880D02*
X2023288D01*
X1993712Y1578280D02*
X2023288D01*
X1993712Y1572430D02*
X2023212D01*
X1993712Y1571980D02*
X2023212D01*
X1993712Y1571530D02*
X2023212D01*
X1993712Y1571080D02*
X2023212D01*
X1993712Y1570630D02*
X2023212D01*
X1993712Y1570180D02*
X2023212D01*
X1993712Y1569730D02*
X2023212D01*
X1993712Y1569280D02*
X2023212D01*
X1993712Y1568830D02*
X2023212D01*
X1993712Y1576480D02*
X2023140D01*
X1993712Y1577830D02*
X2023093D01*
X1986240Y1592230D02*
X2023072D01*
X1993712Y1576930D02*
X2023024D01*
X1993712Y1577380D02*
X2023009D01*
X1985790Y1592680D02*
X2022622D01*
X1985340Y1593130D02*
X2022172D01*
X1984890Y1593580D02*
X2021722D01*
X1984440Y1594030D02*
X2021272D01*
X1983980Y1594480D02*
X2020822D01*
X1993712Y1563430D02*
X2000891D01*
X1993712Y1560730D02*
X2000661D01*
X1993712Y1562980D02*
X2000353D01*
X1993712Y1561180D02*
X2000255D01*
X1993712Y1562530D02*
X2000112D01*
X1993712Y1561630D02*
X2000069D01*
X1993712Y1562080D02*
X2000026D01*
X2074878Y1587730D02*
X2081412D01*
X2078404Y1583230D02*
X2081412D01*
X2078404Y1582780D02*
X2081412D01*
X2078404Y1582330D02*
X2081412D01*
X2078404Y1581880D02*
X2081412D01*
X2078404Y1581430D02*
X2081412D01*
X2078404Y1580980D02*
X2081412D01*
X2078404Y1580530D02*
X2081412D01*
X2078404Y1580080D02*
X2081412D01*
X2078404Y1579630D02*
X2081412D01*
X2078404Y1579180D02*
X2081412D01*
X2078704Y1578730D02*
X2081412D01*
X2079154Y1578280D02*
X2081412D01*
X2079604Y1577830D02*
X2081412D01*
X2080054Y1577380D02*
X2081412D01*
X2080504Y1576930D02*
X2081412D01*
X2080954Y1576480D02*
X2081410D01*
X2078404Y1583680D02*
X2081405D01*
X2081178Y1587280D02*
X2081245D01*
X2074428Y1588180D02*
X2081175D01*
X2073978Y1588630D02*
X2080725D01*
X2073528Y1589080D02*
X2080275D01*
X2075328Y1587280D02*
X2079840D01*
X2073078Y1589530D02*
X2079825D01*
X2072628Y1589980D02*
X2079375D01*
X2078331Y1584130D02*
X2079322D01*
X2075778Y1586830D02*
X2079165D01*
X2078028Y1584580D02*
X2078931D01*
X2072178Y1590430D02*
X2078925D01*
X2076228Y1586380D02*
X2078849D01*
X2077578Y1585030D02*
X2078729D01*
X2076678Y1585930D02*
X2078693D01*
X2077128Y1585480D02*
X2078655D01*
X2071728Y1590880D02*
X2078475D01*
X2071278Y1591330D02*
X2078025D01*
X2070828Y1591780D02*
X2077575D01*
X2070378Y1592230D02*
X2077125D01*
X2069928Y1592680D02*
X2076675D01*
X2069478Y1593130D02*
X2076225D01*
X2069028Y1593580D02*
X2075775D01*
X2068578Y1594030D02*
X2075325D01*
X2068128Y1594480D02*
X2074875D01*
X2067678Y1594930D02*
X2074425D01*
X2067228Y1595380D02*
X2073975D01*
X2066778Y1595830D02*
X2073525D01*
X2066328Y1596280D02*
X2073075D01*
X2065878Y1596730D02*
X2072625D01*
X2065428Y1597180D02*
X2072175D01*
X2064978Y1597630D02*
X2071725D01*
X2064528Y1598080D02*
X2071275D01*
X2064078Y1598530D02*
X2070825D01*
X2063628Y1598980D02*
X2070375D01*
X2063178Y1599430D02*
X2069925D01*
X2062728Y1599880D02*
X2069475D01*
X2062278Y1600330D02*
X2069025D01*
X2061828Y1600780D02*
X2068575D01*
X2061378Y1601230D02*
X2068125D01*
X2067284Y1601680D02*
X2067675D01*
X2056425Y1609330D02*
X2065174D01*
X2056683Y1608880D02*
X2064916D01*
X2060928Y1601680D02*
X2064316D01*
X2057777Y1608430D02*
X2063823D01*
X2060478Y1602130D02*
X2063530D01*
X2058374Y1607980D02*
X2063225D01*
X2060028Y1602580D02*
X2063026D01*
X2058791Y1607530D02*
X2062809D01*
X2059578Y1603030D02*
X2062664D01*
X2059095Y1607080D02*
X2062505D01*
X2059219Y1603480D02*
X2062399D01*
X2059316Y1606630D02*
X2062284D01*
X2059391Y1603930D02*
X2062209D01*
X2059469Y1606180D02*
X2062131D01*
X2059517Y1604380D02*
X2062083D01*
X2059563Y1605730D02*
X2062037D01*
X2059586Y1604830D02*
X2062013D01*
X2059601Y1605280D02*
X2061998D01*
X2076328Y1596280D02*
X2082612D01*
X2076778Y1595830D02*
X2082612D01*
X2077228Y1595380D02*
X2082612D01*
X2077678Y1594930D02*
X2082612D01*
X2078128Y1594480D02*
X2082612D01*
X2078578Y1594030D02*
X2082612D01*
X2079028Y1593580D02*
X2082612D01*
X2079478Y1593130D02*
X2082612D01*
X2079928Y1592680D02*
X2082612D01*
X2080378Y1592230D02*
X2082612D01*
X2080828Y1591780D02*
X2082612D01*
X2081278Y1591330D02*
X2082612D01*
X2081728Y1590880D02*
X2082612D01*
X2082178Y1590430D02*
X2082606D01*
X2075878Y1596730D02*
X2082599D01*
X2075428Y1597180D02*
X2082175D01*
X2074978Y1597630D02*
X2081725D01*
X2074528Y1598080D02*
X2081275D01*
X2074078Y1598530D02*
X2080825D01*
X2073628Y1598980D02*
X2080375D01*
X2073178Y1599430D02*
X2079925D01*
X2072728Y1599880D02*
X2079475D01*
X2072278Y1600330D02*
X2079025D01*
X2071828Y1600780D02*
X2078575D01*
X2071378Y1601230D02*
X2078125D01*
X2077284Y1601680D02*
X2077675D01*
X2066425Y1609330D02*
X2075174D01*
X2066683Y1608880D02*
X2074916D01*
X2070928Y1601680D02*
X2074316D01*
X2067777Y1608430D02*
X2073823D01*
X2070478Y1602130D02*
X2073530D01*
X2068374Y1607980D02*
X2073225D01*
X2070028Y1602580D02*
X2073026D01*
X2068791Y1607530D02*
X2072809D01*
X2069578Y1603030D02*
X2072664D01*
X2069095Y1607080D02*
X2072505D01*
X2069219Y1603480D02*
X2072399D01*
X2069316Y1606630D02*
X2072284D01*
X2069391Y1603930D02*
X2072209D01*
X2069469Y1606180D02*
X2072131D01*
X2069517Y1604380D02*
X2072083D01*
X2069563Y1605730D02*
X2072037D01*
X2069586Y1604830D02*
X2072013D01*
X2069601Y1605280D02*
X2071998D01*
X2022840Y1597630D02*
X2041272D01*
X2023290Y1597180D02*
X2041272D01*
X2023740Y1596730D02*
X2041272D01*
X2024190Y1596280D02*
X2041272D01*
X2024640Y1595830D02*
X2041272D01*
X2025090Y1595380D02*
X2041272D01*
X2035723Y1594930D02*
X2041272D01*
X2036186Y1594480D02*
X2041272D01*
X2036398Y1594030D02*
X2041272D01*
X2036462Y1593580D02*
X2041272D01*
X2036397Y1593130D02*
X2041272D01*
X2036184Y1592680D02*
X2041272D01*
X2035719Y1592230D02*
X2041272D01*
X2032262Y1591780D02*
X2041272D01*
X2032197Y1591330D02*
X2041272D01*
X2031984Y1590880D02*
X2041272D01*
X2031519Y1590430D02*
X2041272D01*
X2030568Y1589980D02*
X2041272D01*
X2030940Y1589530D02*
X2041272D01*
X2031390Y1589080D02*
X2041272D01*
X2037690Y1582780D02*
X2041272D01*
X2038140Y1582330D02*
X2041272D01*
X2038590Y1581880D02*
X2041272D01*
X2039040Y1581430D02*
X2041272D01*
X2039490Y1580980D02*
X2041272D01*
X2039940Y1580530D02*
X2041272D01*
X2040390Y1580080D02*
X2041272D01*
X2040840Y1579630D02*
X2041265D01*
X2037240Y1583230D02*
X2041257D01*
X2031840Y1588630D02*
X2041256D01*
X2022390Y1598080D02*
X2041255D01*
X2021834Y1598530D02*
X2040825D01*
X1919288Y1598980D02*
X2040375D01*
X1919288Y1599430D02*
X2039925D01*
X2036790Y1583680D02*
X2039505D01*
X2032290Y1588180D02*
X2039502D01*
X1919288Y1599880D02*
X2039475D01*
X2034540Y1585930D02*
X2039300D01*
X2036340Y1584130D02*
X2039149D01*
X2032740Y1587730D02*
X2039148D01*
X2034090Y1586380D02*
X2039079D01*
X2034990Y1585480D02*
X2039078D01*
X1919288Y1600330D02*
X2039025D01*
X2035890Y1584580D02*
X2038991D01*
X2033190Y1587280D02*
X2038990D01*
X2033640Y1586830D02*
X2038969D01*
X2035440Y1585030D02*
X2038969D01*
X1919288Y1600780D02*
X2038575D01*
X1919288Y1601230D02*
X2038125D01*
X2037284Y1601680D02*
X2037675D01*
X2026425Y1609330D02*
X2035174D01*
X2026683Y1608880D02*
X2034916D01*
X2027284Y1601680D02*
X2034316D01*
X2032198Y1592230D02*
X2034005D01*
X2025540Y1594930D02*
X2034001D01*
X2027777Y1608430D02*
X2033823D01*
X2031986Y1592680D02*
X2033540D01*
X2025990Y1594480D02*
X2033538D01*
X2028069Y1602130D02*
X2033530D01*
X2031523Y1593130D02*
X2033327D01*
X2026440Y1594030D02*
X2033326D01*
X2026890Y1593580D02*
X2033262D01*
X2028374Y1607980D02*
X2033225D01*
X2028574Y1602580D02*
X2033026D01*
X2028791Y1607530D02*
X2032809D01*
X2028936Y1603030D02*
X2032664D01*
X2029095Y1607080D02*
X2032505D01*
X2029201Y1603480D02*
X2032399D01*
X2029316Y1606630D02*
X2032284D01*
X2029391Y1603930D02*
X2032209D01*
X2029469Y1606180D02*
X2032131D01*
X2029517Y1604380D02*
X2032083D01*
X2029563Y1605730D02*
X2032037D01*
X2029586Y1604830D02*
X2032013D01*
X2029601Y1605280D02*
X2031998D01*
X2027340Y1593130D02*
X2029801D01*
X2027790Y1592680D02*
X2029338D01*
X2028240Y1592230D02*
X2029126D01*
X2028690Y1591780D02*
X2029034D01*
X2016425Y1609330D02*
X2025174D01*
X2016683Y1608880D02*
X2024916D01*
X2017284Y1601680D02*
X2024316D01*
X2017777Y1608430D02*
X2023823D01*
X2018069Y1602130D02*
X2023530D01*
X2018374Y1607980D02*
X2023225D01*
X2018574Y1602580D02*
X2023026D01*
X2018791Y1607530D02*
X2022809D01*
X2018936Y1603030D02*
X2022664D01*
X2019095Y1607080D02*
X2022505D01*
X2019201Y1603480D02*
X2022399D01*
X2019316Y1606630D02*
X2022284D01*
X2019391Y1603930D02*
X2022209D01*
X2019469Y1606180D02*
X2022131D01*
X2019517Y1604380D02*
X2022083D01*
X2019563Y1605730D02*
X2022037D01*
X2019586Y1604830D02*
X2022013D01*
X2019601Y1605280D02*
X2021998D01*
X2006425Y1609330D02*
X2015174D01*
X2006683Y1608880D02*
X2014916D01*
X2007284Y1601680D02*
X2014316D01*
X2007777Y1608430D02*
X2013823D01*
X2008069Y1602130D02*
X2013530D01*
X2008374Y1607980D02*
X2013225D01*
X2008574Y1602580D02*
X2013026D01*
X2008791Y1607530D02*
X2012809D01*
X2008936Y1603030D02*
X2012664D01*
X2009095Y1607080D02*
X2012505D01*
X2009201Y1603480D02*
X2012399D01*
X2009316Y1606630D02*
X2012284D01*
X2009391Y1603930D02*
X2012209D01*
X2009469Y1606180D02*
X2012131D01*
X2009517Y1604380D02*
X2012083D01*
X2009563Y1605730D02*
X2012037D01*
X2009586Y1604830D02*
X2012013D01*
X2009601Y1605280D02*
X2011998D01*
X1996425Y1609330D02*
X2005174D01*
X1996683Y1608880D02*
X2004916D01*
X1997284Y1601680D02*
X2004316D01*
X1997777Y1608430D02*
X2003823D01*
X1998069Y1602130D02*
X2003530D01*
X1998374Y1607980D02*
X2003225D01*
X1998574Y1602580D02*
X2003026D01*
X1998791Y1607530D02*
X2002809D01*
X1998936Y1603030D02*
X2002664D01*
X1999095Y1607080D02*
X2002505D01*
X1999201Y1603480D02*
X2002399D01*
X1999316Y1606630D02*
X2002284D01*
X1999391Y1603930D02*
X2002209D01*
X1999469Y1606180D02*
X2002131D01*
X1999517Y1604380D02*
X2002083D01*
X1999563Y1605730D02*
X2002037D01*
X1999586Y1604830D02*
X2002013D01*
X1999601Y1605280D02*
X2001998D01*
X1986425Y1609330D02*
X1995174D01*
X1986683Y1608880D02*
X1994916D01*
X1987284Y1601680D02*
X1994316D01*
X1987777Y1608430D02*
X1993823D01*
X1988069Y1602130D02*
X1993530D01*
X1988374Y1607980D02*
X1993225D01*
X1988574Y1602580D02*
X1993026D01*
X1988791Y1607530D02*
X1992809D01*
X1988936Y1603030D02*
X1992664D01*
X1989095Y1607080D02*
X1992505D01*
X1989201Y1603480D02*
X1992399D01*
X1989316Y1606630D02*
X1992284D01*
X1989391Y1603930D02*
X1992209D01*
X1989469Y1606180D02*
X1992131D01*
X1989517Y1604380D02*
X1992083D01*
X1989563Y1605730D02*
X1992037D01*
X1989586Y1604830D02*
X1992013D01*
X1989601Y1605280D02*
X1991998D01*
X1985693Y1581880D02*
X1988412D01*
X1985683Y1581430D02*
X1988412D01*
X1985884Y1580980D02*
X1988412D01*
X1986274Y1580530D02*
X1988412D01*
X1986452Y1580080D02*
X1988412D01*
X1986489Y1579630D02*
X1988412D01*
X1986396Y1579180D02*
X1988412D01*
X1986145Y1578730D02*
X1988412D01*
X1985665Y1578280D02*
X1988412D01*
X1985703Y1577830D02*
X1988412D01*
X1985660Y1577380D02*
X1988412D01*
X1986012Y1576930D02*
X1988412D01*
X1986334Y1576480D02*
X1988412D01*
X1986473Y1576030D02*
X1988412D01*
X1986478Y1575580D02*
X1988412D01*
X1986350Y1575130D02*
X1988412D01*
X1986046Y1574680D02*
X1988412D01*
X1985651Y1574230D02*
X1988412D01*
X1985704Y1573780D02*
X1988412D01*
X1985654Y1573330D02*
X1988412D01*
X1986117Y1572880D02*
X1988412D01*
X1986383Y1572430D02*
X1988412D01*
X1986487Y1571980D02*
X1988412D01*
X1986459Y1571530D02*
X1988412D01*
X1986294Y1571080D02*
X1988412D01*
X1985926Y1570630D02*
X1988412D01*
X1985676Y1570180D02*
X1988412D01*
X1985697Y1569730D02*
X1988412D01*
X1985726Y1569280D02*
X1988412D01*
X1986203Y1568830D02*
X1988412D01*
X1986422Y1568380D02*
X1988412D01*
X1986492Y1567930D02*
X1988412D01*
X1986432Y1567480D02*
X1988412D01*
X1986226Y1567030D02*
X1988412D01*
X1985776Y1566580D02*
X1988412D01*
X1985694Y1566130D02*
X1988412D01*
X1985682Y1565680D02*
X1988412D01*
X1954543Y1562080D02*
X1988412D01*
X1954448Y1561630D02*
X1988412D01*
X1985572Y1582330D02*
X1988380D01*
X1985278Y1582780D02*
X1987937D01*
X1984549Y1583230D02*
X1987487D01*
X1954156Y1583680D02*
X1987037D01*
X1954507Y1562530D02*
X1986948D01*
X1978961Y1558480D02*
X1986658D01*
X1985536Y1565230D02*
X1986652D01*
X1984661Y1584130D02*
X1986587D01*
X1954195Y1561180D02*
X1986402D01*
X1954332Y1562980D02*
X1986386D01*
X1978915Y1558030D02*
X1986284D01*
X1985201Y1564780D02*
X1986260D01*
X1978877Y1558930D02*
X1986256D01*
X1985312Y1584580D02*
X1986137D01*
X1953945Y1563430D02*
X1986136D01*
X1919288Y1564330D02*
X1986081D01*
X1975871Y1560730D02*
X1986048D01*
X1919288Y1563880D02*
X1986044D01*
X1978639Y1559380D02*
X1985979D01*
X1976577Y1560280D02*
X1985890D01*
X1978110Y1559830D02*
X1985869D01*
X1978727Y1557580D02*
X1985834D01*
X1983223Y1557130D02*
X1985384D01*
X1976425Y1609330D02*
X1985174D01*
X1983686Y1556680D02*
X1984934D01*
X1976683Y1608880D02*
X1984916D01*
X1983898Y1556230D02*
X1984484D01*
X1977284Y1601680D02*
X1984316D01*
X1977777Y1608430D02*
X1983823D01*
X1954156Y1583230D02*
X1983660D01*
X1954156Y1584130D02*
X1983548D01*
X1978069Y1602130D02*
X1983530D01*
X1956395Y1587280D02*
X1983415D01*
X1954406Y1567480D02*
X1983347D01*
X1954396Y1568380D02*
X1983346D01*
X1954156Y1580080D02*
X1983332D01*
X1919288Y1571530D02*
X1983324D01*
X1954156Y1579180D02*
X1983320D01*
X1919288Y1576030D02*
X1983310D01*
X1919288Y1575580D02*
X1983305D01*
X1919288Y1571980D02*
X1983297D01*
X1954156Y1579630D02*
X1983295D01*
X1953664Y1572430D02*
X1983294D01*
X1954466Y1567930D02*
X1983292D01*
X1978374Y1607980D02*
X1983225D01*
X1953787Y1575130D02*
X1983187D01*
X1953971Y1576480D02*
X1983139D01*
X1955495Y1586830D02*
X1983046D01*
X1919288Y1571080D02*
X1983044D01*
X1978574Y1602580D02*
X1983026D01*
X1919288Y1564780D02*
X1983008D01*
X1954156Y1580530D02*
X1983006D01*
X1956712Y1587730D02*
X1982987D01*
X1954156Y1582780D02*
X1982930D01*
X1954200Y1567030D02*
X1982928D01*
X1954177Y1568830D02*
X1982899D01*
X1954156Y1584580D02*
X1982897D01*
X1954275Y1578730D02*
X1982835D01*
X1978791Y1607530D02*
X1982809D01*
X1954165Y1572880D02*
X1982809D01*
X1954218Y1574680D02*
X1982756D01*
X1954376Y1576930D02*
X1982734D01*
X1954156Y1586380D02*
X1982691D01*
X1919288Y1570630D02*
X1982690D01*
X1919288Y1565230D02*
X1982673D01*
X1954156Y1580980D02*
X1982672D01*
X1978936Y1603030D02*
X1982664D01*
X1954156Y1582330D02*
X1982637D01*
X1953750Y1566580D02*
X1982636D01*
X1953698Y1569280D02*
X1982622D01*
X1954156Y1585030D02*
X1982621D01*
X1954518Y1578280D02*
X1982593D01*
X1954393Y1573330D02*
X1982581D01*
X1954416Y1574230D02*
X1982558D01*
X1954561Y1577380D02*
X1982549D01*
X1956849Y1588180D02*
X1982537D01*
X1954156Y1585930D02*
X1982533D01*
X1919288Y1570180D02*
X1982532D01*
X1919288Y1565680D02*
X1982526D01*
X1954156Y1581430D02*
X1982526D01*
X1954156Y1581880D02*
X1982515D01*
X1919288Y1566130D02*
X1982515D01*
X1919288Y1569730D02*
X1982512D01*
X1954156Y1585480D02*
X1982511D01*
X1954604Y1577830D02*
X1982506D01*
X1979095Y1607080D02*
X1982505D01*
X1954469Y1573780D02*
X1982505D01*
X1979201Y1603480D02*
X1982399D01*
X1979316Y1606630D02*
X1982284D01*
X1979391Y1603930D02*
X1982209D01*
X1958427Y1553980D02*
X1982187D01*
X1979469Y1606180D02*
X1982131D01*
X1956851Y1588630D02*
X1982087D01*
X1979517Y1604380D02*
X1982083D01*
X1979563Y1605730D02*
X1982037D01*
X1979586Y1604830D02*
X1982013D01*
X1979601Y1605280D02*
X1981998D01*
X1945466Y1553530D02*
X1981784D01*
X1979915Y1589080D02*
X1981637D01*
X1958954Y1554430D02*
X1981505D01*
X1978315Y1557130D02*
X1981501D01*
X1945466Y1553080D02*
X1981334D01*
X1959243Y1554880D02*
X1981040D01*
X1959243Y1556680D02*
X1981038D01*
X1945466Y1552630D02*
X1980884D01*
X1959397Y1555330D02*
X1980827D01*
X1959397Y1556230D02*
X1980826D01*
X1959446Y1555780D02*
X1980762D01*
X1945466Y1552180D02*
X1980434D01*
X1945466Y1551730D02*
X1979984D01*
X1945466Y1551280D02*
X1979534D01*
X1945466Y1550830D02*
X1979084D01*
X1976015Y1589080D02*
X1978809D01*
X1945466Y1550380D02*
X1978634D01*
X1945466Y1549930D02*
X1978184D01*
X1976668Y1589530D02*
X1978156D01*
X1976945Y1589980D02*
X1977879D01*
X1977055Y1590430D02*
X1977769D01*
X1977387Y1590880D02*
X1977748D01*
X1945466Y1549480D02*
X1977734D01*
X1945466Y1549030D02*
X1977284D01*
X1945466Y1548580D02*
X1976834D01*
X1970441Y1557130D02*
X1976410D01*
X1945466Y1548130D02*
X1976384D01*
X1970854Y1557580D02*
X1975997D01*
X1966425Y1609330D02*
X1975174D01*
X1973037Y1592230D02*
X1974942D01*
X1966683Y1608880D02*
X1974916D01*
X1971934Y1560730D02*
X1974916D01*
X1970315Y1589080D02*
X1974909D01*
X1972587Y1591780D02*
X1974402D01*
X1967284Y1601680D02*
X1974316D01*
X1972545Y1558030D02*
X1974305D01*
X1970968Y1589530D02*
X1974256D01*
X1972640Y1560280D02*
X1974211D01*
X1972137Y1591330D02*
X1974048D01*
X1971245Y1589980D02*
X1973979D01*
X1972884Y1558480D02*
X1973966D01*
X1972929Y1559830D02*
X1973922D01*
X1971687Y1590880D02*
X1973890D01*
X1971355Y1590430D02*
X1973869D01*
X1967777Y1608430D02*
X1973823D01*
X1973033Y1558930D02*
X1973817D01*
X1973047Y1559380D02*
X1973804D01*
X1968069Y1602130D02*
X1973530D01*
X1968374Y1607980D02*
X1973225D01*
X1968574Y1602580D02*
X1973026D01*
X1968791Y1607530D02*
X1972809D01*
X1968936Y1603030D02*
X1972664D01*
X1969095Y1607080D02*
X1972505D01*
X1969201Y1603480D02*
X1972399D01*
X1969316Y1606630D02*
X1972284D01*
X1969391Y1603930D02*
X1972209D01*
X1969469Y1606180D02*
X1972131D01*
X1969517Y1604380D02*
X1972083D01*
X1958737Y1594480D02*
X1972044D01*
X1969563Y1605730D02*
X1972037D01*
X1969586Y1604830D02*
X1972013D01*
X1969601Y1605280D02*
X1971998D01*
X1958287Y1594030D02*
X1971584D01*
X1957837Y1593580D02*
X1971134D01*
X1967997Y1560730D02*
X1970979D01*
X1957387Y1593130D02*
X1970684D01*
X1968703Y1560280D02*
X1970274D01*
X1956937Y1592680D02*
X1970234D01*
X1956487Y1592230D02*
X1969784D01*
X1968215Y1589080D02*
X1969209D01*
X1966504Y1557130D02*
X1968536D01*
X1966917Y1557580D02*
X1968123D01*
X1966115Y1589080D02*
X1967109D01*
X1953622Y1560730D02*
X1967042D01*
X1929796Y1560280D02*
X1966337D01*
X1956425Y1609330D02*
X1965174D01*
X1964015Y1589080D02*
X1965009D01*
X1956683Y1608880D02*
X1964916D01*
X1929796Y1559830D02*
X1964803D01*
X1958955Y1557130D02*
X1964599D01*
X1957284Y1601680D02*
X1964316D01*
X1929796Y1559380D02*
X1964275D01*
X1958428Y1557580D02*
X1964187D01*
X1929796Y1558930D02*
X1964036D01*
X1929796Y1558030D02*
X1963998D01*
X1929796Y1558480D02*
X1963952D01*
X1957777Y1608430D02*
X1963823D01*
X1958069Y1602130D02*
X1963530D01*
X1958374Y1607980D02*
X1963225D01*
X1958574Y1602580D02*
X1963026D01*
X1956720Y1589080D02*
X1962909D01*
X1958791Y1607530D02*
X1962809D01*
X1958936Y1603030D02*
X1962664D01*
X1959095Y1607080D02*
X1962505D01*
X1956037Y1591780D02*
X1962402D01*
X1959201Y1603480D02*
X1962399D01*
X1959316Y1606630D02*
X1962284D01*
X1956412Y1589530D02*
X1962256D01*
X1959391Y1603930D02*
X1962209D01*
X1959469Y1606180D02*
X1962131D01*
X1959517Y1604380D02*
X1962083D01*
X1955587Y1591330D02*
X1962048D01*
X1959563Y1605730D02*
X1962037D01*
X1959586Y1604830D02*
X1962013D01*
X1959601Y1605280D02*
X1961998D01*
X1955592Y1589980D02*
X1961979D01*
X1955137Y1590880D02*
X1961890D01*
X1954687Y1590430D02*
X1961869D01*
X1919288Y1598530D02*
X1956540D01*
X1945466Y1553980D02*
X1956265D01*
X1929796Y1557580D02*
X1956264D01*
X1919288Y1598080D02*
X1955984D01*
X1945466Y1554430D02*
X1955737D01*
X1929796Y1557130D02*
X1955737D01*
X1945859Y1597630D02*
X1955534D01*
X1945466Y1554880D02*
X1955449D01*
X1929796Y1556680D02*
X1955448D01*
X1945440Y1555330D02*
X1955295D01*
X1929796Y1556230D02*
X1955295D01*
X1929747Y1555780D02*
X1955246D01*
X1946425Y1609330D02*
X1955174D01*
X1945859Y1597180D02*
X1955084D01*
X1954156Y1586830D02*
X1955037D01*
X1954483Y1589980D02*
X1954940D01*
X1946683Y1608880D02*
X1954916D01*
X1945859Y1596730D02*
X1954634D01*
X1947284Y1601680D02*
X1954316D01*
X1945859Y1596280D02*
X1954184D01*
X1947777Y1608430D02*
X1953823D01*
X1945859Y1595830D02*
X1953734D01*
X1948069Y1602130D02*
X1953530D01*
X1945859Y1595380D02*
X1953284D01*
X1948374Y1607980D02*
X1953225D01*
X1948574Y1602580D02*
X1953026D01*
X1945859Y1594930D02*
X1952834D01*
X1948791Y1607530D02*
X1952809D01*
X1948936Y1603030D02*
X1952664D01*
X1949095Y1607080D02*
X1952505D01*
X1949201Y1603480D02*
X1952399D01*
X1945859Y1594480D02*
X1952384D01*
X1949316Y1606630D02*
X1952284D01*
X1929796Y1560730D02*
X1952270D01*
X1945466Y1547680D02*
X1952244D01*
X1949391Y1603930D02*
X1952209D01*
X1949469Y1606180D02*
X1952131D01*
X1949517Y1604380D02*
X1952083D01*
X1919288Y1572430D02*
X1952076D01*
X1919288Y1576480D02*
X1952040D01*
X1949563Y1605730D02*
X1952037D01*
X1919288Y1569280D02*
X1952033D01*
X1949586Y1604830D02*
X1952013D01*
X1949601Y1605280D02*
X1951998D01*
X1919288Y1566580D02*
X1951982D01*
X1919288Y1575130D02*
X1951952D01*
X1919288Y1563430D02*
X1951947D01*
X1945859Y1594030D02*
X1951934D01*
X1945466Y1547230D02*
X1951784D01*
X1929796Y1561180D02*
X1951697D01*
X1919288Y1576930D02*
X1951635D01*
X1919288Y1572880D02*
X1951574D01*
X1929796Y1562980D02*
X1951560D01*
X1919288Y1568830D02*
X1951554D01*
X1919288Y1567030D02*
X1951532D01*
X1919288Y1574680D02*
X1951521D01*
X1945859Y1593580D02*
X1951484D01*
X1919288Y1577380D02*
X1951451D01*
X1929796Y1561630D02*
X1951443D01*
X1919288Y1577830D02*
X1951407D01*
X1929796Y1562530D02*
X1951385D01*
X1929796Y1562080D02*
X1951349D01*
X1919288Y1573330D02*
X1951346D01*
X1919288Y1568380D02*
X1951335D01*
X1945466Y1546780D02*
X1951334D01*
X1919288Y1567480D02*
X1951326D01*
X1919288Y1574230D02*
X1951323D01*
X1919288Y1573780D02*
X1951270D01*
X1919288Y1567930D02*
X1951266D01*
X1945859Y1593130D02*
X1951034D01*
X1945463Y1546330D02*
X1950884D01*
X1945859Y1592680D02*
X1950584D01*
X1919288Y1545880D02*
X1950434D01*
X1919288Y1578280D02*
X1950416D01*
X1945859Y1592230D02*
X1950160D01*
X1919288Y1545430D02*
X1949984D01*
X1945859Y1591780D02*
X1949972D01*
X1945859Y1591330D02*
X1949954D01*
X1945859Y1590880D02*
X1949954D01*
X1945859Y1590430D02*
X1949954D01*
X1945859Y1589980D02*
X1949954D01*
X1945859Y1589530D02*
X1949954D01*
X1945859Y1589080D02*
X1949954D01*
X1945859Y1588630D02*
X1949954D01*
X1945859Y1588180D02*
X1949954D01*
X1919288Y1587730D02*
X1949954D01*
X1919288Y1587280D02*
X1949954D01*
X1919288Y1586830D02*
X1949954D01*
X1919288Y1586380D02*
X1949954D01*
X1919288Y1585930D02*
X1949954D01*
X1919288Y1585480D02*
X1949954D01*
X1919288Y1585030D02*
X1949954D01*
X1919288Y1584580D02*
X1949954D01*
X1919288Y1584130D02*
X1949954D01*
X1919288Y1583680D02*
X1949954D01*
X1919288Y1583230D02*
X1949954D01*
X1919288Y1582780D02*
X1949954D01*
X1919288Y1582330D02*
X1949954D01*
X1919288Y1581880D02*
X1949954D01*
X1919288Y1581430D02*
X1949954D01*
X1919288Y1580980D02*
X1949954D01*
X1919288Y1578730D02*
X1949850D01*
X1919288Y1580530D02*
X1949721D01*
X1919288Y1579180D02*
X1949599D01*
X1919288Y1580080D02*
X1949544D01*
X1919288Y1544980D02*
X1949534D01*
X1919288Y1579630D02*
X1949506D01*
X1919288Y1544530D02*
X1949084D01*
X1919288Y1544080D02*
X1948634D01*
X1919288Y1543630D02*
X1948184D01*
X1919288Y1543180D02*
X1947734D01*
X1936425Y1609330D02*
X1945174D01*
X1936683Y1608880D02*
X1944916D01*
X1937284Y1601680D02*
X1944316D01*
X1937777Y1608430D02*
X1943823D01*
X1938069Y1602130D02*
X1943530D01*
X1938374Y1607980D02*
X1943225D01*
X1938574Y1602580D02*
X1943026D01*
X1938791Y1607530D02*
X1942809D01*
X1938936Y1603030D02*
X1942664D01*
X1939095Y1607080D02*
X1942505D01*
X1939201Y1603480D02*
X1942399D01*
X1939316Y1606630D02*
X1942284D01*
X1939391Y1603930D02*
X1942209D01*
X1939469Y1606180D02*
X1942131D01*
X1939517Y1604380D02*
X1942083D01*
X1939563Y1605730D02*
X1942037D01*
X1939586Y1604830D02*
X1942013D01*
X1939601Y1605280D02*
X1941998D01*
X1926425Y1609330D02*
X1935174D01*
X1926683Y1608880D02*
X1934916D01*
X1919288Y1555330D02*
X1934755D01*
X1919288Y1546330D02*
X1934731D01*
X1919288Y1554880D02*
X1934729D01*
X1919288Y1554430D02*
X1934729D01*
X1919288Y1553980D02*
X1934729D01*
X1919288Y1553530D02*
X1934729D01*
X1919288Y1553080D02*
X1934729D01*
X1919288Y1552630D02*
X1934729D01*
X1919288Y1552180D02*
X1934729D01*
X1919288Y1551730D02*
X1934729D01*
X1919288Y1551280D02*
X1934729D01*
X1919288Y1550830D02*
X1934729D01*
X1919288Y1550380D02*
X1934729D01*
X1919288Y1549930D02*
X1934729D01*
X1919288Y1549480D02*
X1934729D01*
X1919288Y1549030D02*
X1934729D01*
X1919288Y1548580D02*
X1934729D01*
X1919288Y1548130D02*
X1934729D01*
X1919288Y1547680D02*
X1934729D01*
X1919288Y1547230D02*
X1934729D01*
X1919288Y1546780D02*
X1934729D01*
X1919288Y1597630D02*
X1934336D01*
X1919288Y1597180D02*
X1934336D01*
X1919288Y1596730D02*
X1934336D01*
X1919288Y1596280D02*
X1934336D01*
X1919288Y1595830D02*
X1934336D01*
X1919288Y1595380D02*
X1934336D01*
X1919288Y1594930D02*
X1934336D01*
X1919288Y1594480D02*
X1934336D01*
X1919288Y1594030D02*
X1934336D01*
X1919288Y1593580D02*
X1934336D01*
X1919288Y1593130D02*
X1934336D01*
X1919288Y1592680D02*
X1934336D01*
X1919288Y1592230D02*
X1934336D01*
X1919288Y1591780D02*
X1934336D01*
X1919288Y1591330D02*
X1934336D01*
X1919288Y1590880D02*
X1934336D01*
X1919288Y1590430D02*
X1934336D01*
X1919288Y1589980D02*
X1934336D01*
X1919288Y1589530D02*
X1934336D01*
X1919288Y1589080D02*
X1934336D01*
X1919288Y1588630D02*
X1934336D01*
X1919288Y1588180D02*
X1934336D01*
X1927284Y1601680D02*
X1934316D01*
X1927777Y1608430D02*
X1933823D01*
X1928069Y1602130D02*
X1933530D01*
X1928374Y1607980D02*
X1933225D01*
X1928574Y1602580D02*
X1933026D01*
X1928791Y1607530D02*
X1932809D01*
X1928936Y1603030D02*
X1932664D01*
X1929095Y1607080D02*
X1932505D01*
X1929201Y1603480D02*
X1932399D01*
X1929316Y1606630D02*
X1932284D01*
X1929391Y1603930D02*
X1932209D01*
X1929469Y1606180D02*
X1932131D01*
X1929517Y1604380D02*
X1932083D01*
X1929563Y1605730D02*
X1932037D01*
X1929586Y1604830D02*
X1932013D01*
X1929601Y1605280D02*
X1931998D01*
X1919288Y1542730D02*
X1931722D01*
X1919288Y1542280D02*
X1931272D01*
X1919288Y1541830D02*
X1930822D01*
X1919288Y1541380D02*
X1930372D01*
X1919288Y1540930D02*
X1929922D01*
X1919288Y1540480D02*
X1929472D01*
X1919288Y1540030D02*
X1929022D01*
X1919288Y1539580D02*
X1928572D01*
X1919288Y1539130D02*
X1928122D01*
X1927290Y1538680D02*
X1927672D01*
X1923063Y1609330D02*
X1925174D01*
X1921352Y1531480D02*
X1924927D01*
X1921347Y1608880D02*
X1924916D01*
X1919288Y1601680D02*
X1924316D01*
X1919288Y1538680D02*
X1924310D01*
X1920681Y1531930D02*
X1923828D01*
X1920678Y1608430D02*
X1923823D01*
X1919288Y1602130D02*
X1923530D01*
X1919288Y1538230D02*
X1923527D01*
X1920224Y1532380D02*
X1923228D01*
X1920222Y1607980D02*
X1923225D01*
X1919288Y1602580D02*
X1923026D01*
X1919288Y1537780D02*
X1923024D01*
X1919891Y1532830D02*
X1922811D01*
X1919889Y1607530D02*
X1922809D01*
X1919288Y1603030D02*
X1922664D01*
X1919288Y1537330D02*
X1922662D01*
X1919645Y1533280D02*
X1922507D01*
X1919644Y1607080D02*
X1922505D01*
X1919288Y1603480D02*
X1922399D01*
X1919288Y1536880D02*
X1922398D01*
X1919470Y1533730D02*
X1922285D01*
X1919470Y1606630D02*
X1922284D01*
X1919288Y1603930D02*
X1922209D01*
X1919288Y1536430D02*
X1922208D01*
X1919356Y1534180D02*
X1922131D01*
X1919356Y1606180D02*
X1922131D01*
X1919288Y1604380D02*
X1922083D01*
X1919288Y1535980D02*
X1922082D01*
X1919298Y1534630D02*
X1922037D01*
X1919297Y1605730D02*
X1922037D01*
X1919288Y1604830D02*
X1922013D01*
X1919288Y1535530D02*
X1922013D01*
X1919288Y1535080D02*
X1921999D01*
X1919288Y1605280D02*
X1921998D01*
X1919288Y1555780D02*
X1921364D01*
X1919288Y1562980D02*
X1921315D01*
X1919288Y1562530D02*
X1921315D01*
X1919288Y1562080D02*
X1921315D01*
X1919288Y1561630D02*
X1921315D01*
X1919288Y1561180D02*
X1921315D01*
X1919288Y1560730D02*
X1921315D01*
X1919288Y1560280D02*
X1921315D01*
X1919288Y1559830D02*
X1921315D01*
X1919288Y1559380D02*
X1921315D01*
X1919288Y1558930D02*
X1921315D01*
X1919288Y1558480D02*
X1921315D01*
X1919288Y1558030D02*
X1921315D01*
X1919288Y1557580D02*
X1921315D01*
X1919288Y1557130D02*
X1921315D01*
X1919288Y1556680D02*
X1921315D01*
X1919288Y1556230D02*
X1921315D01*
X1954075Y1541830D02*
X1967956D01*
X1954525Y1542280D02*
X1967891D01*
X1954975Y1542730D02*
X1967869D01*
X1955425Y1543180D02*
X1967853D01*
X1953625Y1541380D02*
X1966302D01*
X1951375Y1539130D02*
X1966056D01*
X1953175Y1540930D02*
X1965948D01*
X1951825Y1539580D02*
X1965879D01*
X1952725Y1540480D02*
X1965790D01*
X1952275Y1540030D02*
X1965769D01*
X1956673Y1531480D02*
X1964927D01*
X1957290Y1538680D02*
X1964310D01*
X1957772Y1531930D02*
X1963828D01*
X1958073Y1538230D02*
X1963527D01*
X1958372Y1532380D02*
X1963228D01*
X1958576Y1537780D02*
X1963024D01*
X1958789Y1532830D02*
X1962811D01*
X1958937Y1537330D02*
X1962662D01*
X1959093Y1533280D02*
X1962507D01*
X1959202Y1536880D02*
X1962398D01*
X1959315Y1533730D02*
X1962285D01*
X1959392Y1536430D02*
X1962208D01*
X1959469Y1534180D02*
X1962131D01*
X1959518Y1535980D02*
X1962082D01*
X1959563Y1534630D02*
X1962037D01*
X1959587Y1535530D02*
X1962013D01*
X1959601Y1535080D02*
X1961999D01*
X1946673Y1531480D02*
X1954927D01*
X1950925Y1538680D02*
X1954310D01*
X1947772Y1531930D02*
X1953828D01*
X1950475Y1538230D02*
X1953527D01*
X1948372Y1532380D02*
X1953228D01*
X1950025Y1537780D02*
X1953024D01*
X1948789Y1532830D02*
X1952811D01*
X1949575Y1537330D02*
X1952662D01*
X1949093Y1533280D02*
X1952507D01*
X1949219Y1536880D02*
X1952398D01*
X1949315Y1533730D02*
X1952285D01*
X1949392Y1536430D02*
X1952208D01*
X1949469Y1534180D02*
X1952131D01*
X1949518Y1535980D02*
X1952082D01*
X1949563Y1534630D02*
X1952037D01*
X1949587Y1535530D02*
X1952013D01*
X1949601Y1535080D02*
X1951999D01*
G54D25*
X1935800Y1535181D02*
X1941100Y1540481D01*
X1948762*
X1953862Y1545581*
X1977262*
X1991062Y1559381*
Y1583381*
X1925800Y1535181D02*
X1932600Y1541981D01*
X1948162*
X1952962Y1546781*
X1976662*
X1989562Y1559681*
Y1582781*
X1945800Y1535181D02*
X1955000Y1544381D01*
X1977862*
X1992562Y1559081*
X1969462Y1542581D02*
X1970662Y1541381D01*
X2070262*
X2083762Y1554881*
Y1597219*
X1967362Y1540181D02*
X2071462D01*
X2084962Y1553681*
Y1604343*
X2085800Y1605181*
X1979062Y1543181D02*
X1979362Y1542881D01*
X2069362*
X2082562Y1556081*
Y1588419*
X1980562Y1544681D02*
X1981162Y1544081D01*
X2068162*
X2081362Y1557281*
Y1574445*
X1953006Y1577756D02*
Y1590375D01*
X1958612Y1595981*
X2020947*
X2041424Y1575504*
X2044193*
X1951104Y1579724D02*
Y1591573D01*
X1957012Y1597481*
X2021362*
X2041567Y1577276*
X2042422*
X1969762Y1590581D02*
X1972762Y1593581D01*
X1983262*
X1992562Y1584281*
Y1559081*
X1975462Y1590581D02*
X1977262Y1592381D01*
X1982062*
X1991062Y1583381*
X1979362Y1590581D02*
X1981762D01*
X1989562Y1582781*
X2044193Y1575504D02*
Y1603575D01*
X2045800Y1605181*
X2035800D02*
X2042422Y1598559D01*
Y1577276*
X2055800Y1605181D02*
X2077254Y1583727D01*
Y1578553*
X2081362Y1574445*
X2075800Y1605181D02*
X2083762Y1597219D01*
X2065800Y1605181D02*
X2082562Y1588419D01*
G54D56*
X1936312Y1556057D03*
X1943312D03*
X1939812D03*
G54D60*
X1925413Y1546491D03*
X1920413Y1550791D03*
X1930413D03*
X1956562Y1541081D03*
X1969462Y1542581D03*
X1967362Y1540181D03*
X1964362D03*
X1973662Y1549481D03*
X1963646Y1549480D03*
X1960046D03*
X1979062Y1543181D03*
X1980562Y1544681D03*
X1982362Y1545881D03*
X1989446Y1550080D03*
Y1547380D03*
X2000062Y1546481D03*
X2026162Y1548281D03*
Y1550681D03*
X2075962Y1540781D03*
X2061562Y1549481D03*
X2084362Y1544081D03*
X2084062Y1550381D03*
X2108362Y1549781D03*
X2101462Y1542281D03*
X2120362Y1539881D03*
Y1550081D03*
X1925413Y1554791D03*
X1920413Y1559291D03*
X1928413Y1554791D03*
X1922413D03*
X1927894Y1564885D03*
X1923094D03*
X1925494D03*
X1933092Y1562339D03*
X1930881Y1565669D03*
X1936092Y1562339D03*
X1931024Y1555439D03*
X1933424D03*
X1941883Y1565361D03*
X1950730Y1561567D03*
X1948354Y1561504D03*
X1939392Y1562339D03*
X1945917Y1561507D03*
X1948946Y1555480D03*
X1951346D03*
X1953846D03*
X1946824Y1555439D03*
X1952866Y1567913D03*
X1952946Y1562180D03*
X1975394Y1559203D03*
X1965551Y1558415D03*
X1971457Y1559203D03*
X1969488Y1558415D03*
X1967520Y1559203D03*
X1960946Y1567480D03*
X1968446D03*
X1976246D03*
X1957163Y1551291D03*
X1977362Y1558415D03*
X1987641Y1563972D03*
X1987462Y1559981D03*
X1984104Y1569882D03*
X1984892Y1567913D03*
X1984104Y1565945D03*
X1982362Y1555781D03*
X1979962Y1553681D03*
X1996462Y1561481D03*
X1980862Y1557881D03*
X2015846Y1562080D03*
X2010446Y1556080D03*
X2012246Y1562080D03*
X2001624Y1562008D03*
X2026046Y1561180D03*
X2023346D03*
X2051962Y1551581D03*
X2043862Y1558181D03*
X2048062Y1564481D03*
X2050762D03*
X2040562D03*
X2053762D03*
X2043862D03*
X2071746Y1559780D03*
X2073762Y1552681D03*
X2073746Y1558780D03*
X2095984Y1567610D03*
X2090562Y1570807D03*
X2087362Y1554881D03*
X1923913Y1572041D03*
X1926913D03*
X1953006Y1577756D03*
X1951104Y1579724D03*
X1952870Y1573819D03*
X1955266Y1588413D03*
X1969762Y1590581D03*
X1975462D03*
X1963462D03*
X1965562D03*
X1967662D03*
X1968146Y1582180D03*
X1960646Y1574980D03*
X1975946Y1581580D03*
X1976246Y1574680D03*
X1968446D03*
X1960946Y1582180D03*
X1979362Y1590581D03*
X1984104Y1585630D03*
Y1581693D03*
X1984892Y1571850D03*
Y1579724D03*
X1984104Y1577756D03*
Y1573819D03*
X1984892Y1575787D03*
X2023762Y1583381D03*
X2025862D03*
X2040562Y1586981D03*
X2044193Y1575504D03*
X2040562Y1584881D03*
X2042422Y1577276D03*
X2075662Y1590581D03*
X2070562Y1580681D03*
X2066962D03*
X2063362D03*
X2070562Y1577981D03*
X2059762D03*
X2066962D03*
X2070562Y1572281D03*
X2063362Y1583081D03*
Y1577981D03*
Y1574981D03*
X2066962Y1572281D03*
X2059762Y1583081D03*
X2070562D03*
X2066962D03*
X2059762Y1580681D03*
X2066962Y1575281D03*
X2070562D03*
X2079504Y1583303D03*
X2090962Y1587281D03*
X2087254Y1577303D03*
X2089762Y1581581D03*
X2094562D03*
X2086811Y1573376D03*
X2099662Y1578581D03*
X2102662D03*
X2119762Y1589981D03*
X1933176Y1596215D03*
X1946576D03*
X1968562Y1593581D03*
X1988962Y1592381D03*
X1996462Y1591781D03*
X2009662D03*
X2030662D03*
X2031262Y1598981D03*
X2021662Y1591781D03*
X2034862Y1593581D03*
X2049562Y1591781D03*
X2054062Y1598981D03*
X2038162Y1591781D03*
X2064862D03*
X2067562Y1598981D03*
X2090062Y1594181D03*
X2077162Y1599281D03*
X2108362Y1592381D03*
X2101462Y1598681D03*
X2120062Y1599281D03*
X2103111Y1607870D02*
X2103712Y1607269D01*
X2103111Y1602492D02*
X2103712Y1603093D01*
X2108489Y1602492D02*
X2107888Y1603093D01*
X2108489Y1607870D02*
X2107888Y1607269D01*
X2103111Y1537870D02*
X2103712Y1537269D01*
X2103111Y1532492D02*
X2103712Y1533093D01*
X2108489Y1532492D02*
X2107888Y1533093D01*
X2108489Y1537870D02*
X2107888Y1537269D01*
X2101095Y1587763D02*
Y1586913D01*
X2096702Y1583961D02*
X2097552D01*
X2101095Y1580158D02*
Y1581008D01*
X2105488Y1583961D02*
X2104638D01*
X2101095Y1560204D02*
Y1559354D01*
X2096702Y1556402D02*
X2097552D01*
X2101095Y1552599D02*
Y1553449D01*
X2105488Y1556402D02*
X2104638D01*
X2115662Y1587763D02*
Y1586913D01*
X2111269Y1583961D02*
X2112119D01*
X2115662Y1580158D02*
Y1581008D01*
X2120055Y1583961D02*
X2119205D01*
X2115662Y1560204D02*
Y1559354D01*
X2111269Y1556402D02*
X2112119D01*
X2115662Y1552599D02*
Y1553449D01*
X2120055Y1556402D02*
X2119205D01*
G54D70*
X2025562Y1569281D03*
X2072662Y1564781D03*
Y1562081D03*
X2025562Y1571981D03*
X2080504Y1585553D03*
G54D72*
X2025104Y1577224D02*
X2027219D01*
X2035162Y1569281*
X2073705*
X2077611Y1565376*
X1957346Y1555780D03*
X2077611Y1565376D03*
X2025104Y1577224D03*
G54D145*
X1925800Y1605181D03*
X1935800D03*
X1945800D03*
X1955800D03*
X1965800D03*
X1975800D03*
X1985800D03*
X1995800D03*
X2005800D03*
X2015800D03*
X2025800D03*
X2035800D03*
X2045800D03*
X2055800D03*
X2065800D03*
X2075800D03*
X2085800D03*
X2095800D03*
X2105800D03*
X2115800D03*
X1925800Y1535181D03*
X1935800D03*
X1945800D03*
X1955800D03*
X1965800D03*
X1975800D03*
X1985800D03*
X1995800D03*
X2005800D03*
X2015800D03*
X2025800D03*
X2035800D03*
X2045800D03*
X2055800D03*
X2065800D03*
X2075800D03*
X2085800D03*
X2095800D03*
X2105800D03*
X2115800D03*
G54D168*
X2115662Y1556402D03*
Y1583961D03*
X2101095Y1556402D03*
Y1583961D03*
G74*
X0Y0D02*
M02*
