*
*
G04 PADS VX.2 Build Number: 5060570 generated Gerber (RS-274-X) file*
G04 PC Version=2.1*
*
%IN "ESP32-PICO-KIT_V4.1_201"*%
*
%MOIN*%
*
%FSLAX35Y35*%
*
*
*
*
G04 PC Standard Apertures*
*
*
G04 Thermal Relief Aperture macro.*
%AMTER*
1,1,$1,0,0*
1,0,$1-$2,0,0*
21,0,$3,$4,0,0,45*
21,0,$3,$4,0,0,135*
%
*
*
G04 Annular Aperture macro.*
%AMANN*
1,1,$1,0,0*
1,0,$2,0,0*
%
*
*
G04 Odd Aperture macro.*
%AMODD*
1,1,$1,0,0*
1,0,$1-0.005,0,0*
%
*
*
G04 PC Custom Aperture Macros*
*
*
*
*
*
*
G04 PC Aperture Table*
*
%ADD010C,0.001*%
%ADD011R,0.02X0.02*%
%ADD012C,0.01*%
%ADD064R,0.036X0.032*%
%ADD139R,0.00984X0.02657*%
%ADD140R,0.02657X0.00984*%
%ADD141R,0.00984X0.0187*%
%ADD143R,0.0315X0.0315*%
%ADD144R,0.05906X0.04724*%
%ADD145C,0.05906*%
%ADD151R,0.04724X0.05906*%
%ADD152R,0.00984X0.03543*%
%ADD153R,0.03543X0.00984*%
%ADD154R,0.12795X0.12795*%
%ADD159R,0.02559X0.03937*%
%ADD160R,0.07087X0.05512*%
%ADD161R,0.07087X0.13386*%
%ADD166R,0.05315X0.02362*%
%ADD167R,0.05315X0.00984*%
%ADD168O,0.07087X0.05906*%
%ADD169R,0.01575X0.0189*%
%ADD170R,0.0189X0.01575*%
%ADD173R,0.02323X0.01772*%
*
*
*
*
G04 PC Circuitry*
G04 Layer Name ESP32-PICO-KIT_V4.1_201 - circuitry*
%LPD*%
*
*
G04 PC Custom Flashes*
G04 Layer Name ESP32-PICO-KIT_V4.1_201 - flashes*
%LPD*%
*
*
G04 PC Circuitry*
G04 Layer Name ESP32-PICO-KIT_V4.1_201 - circuitry*
%LPD*%
*
G54D10*
G01X1918438Y1610181D02*
X1918440D01*
X2123162D02*
X2123165D01*
X1918438Y1530181D02*
X1918440D01*
X1918438Y1610181D02*
X1918440D01*
G54D11*
X2084211Y1573176D03*
X2080211D03*
X2050162Y1583181D03*
X2046162D03*
X2036470Y1555872D03*
X2032470D03*
X2050279Y1586889D03*
X2046279D03*
X2050162Y1571764D03*
X2046162D03*
X2050162Y1575504D03*
X2046162D03*
X2003364Y1559836D03*
X2007364D03*
X2077162Y1552681D03*
X2081162D03*
X2070162Y1562181D03*
Y1558181D03*
X2066162D03*
Y1562181D03*
X2062162Y1558181D03*
Y1562181D03*
X1967046Y1551780D03*
Y1555780D03*
X2007464Y1555872D03*
X2003464D03*
X1999364D03*
X1995364D03*
X2044344D03*
X2040344D03*
X2050162Y1579638D03*
X2046162D03*
X1971046Y1551780D03*
Y1555780D03*
X2050162Y1567433D03*
X2046162D03*
X1960046Y1555780D03*
Y1551780D03*
X1974546Y1555780D03*
Y1551780D03*
X1941913Y1562669D03*
Y1558669D03*
X1934413D03*
X1938413D03*
X1930913Y1562669D03*
Y1558669D03*
X1963546Y1551780D03*
Y1555780D03*
X2084211Y1569376D03*
X2080211D03*
X2084211Y1580776D03*
X2080211D03*
X2084211Y1576976D03*
X2080211D03*
G54D12*
X1965854Y1577453D02*
Y1572154D01*
X1971154*
Y1577453*
X1965854*
X1966004Y1572154D02*
Y1577453D01*
X1966504Y1572154D02*
Y1577453D01*
X1967004Y1572154D02*
Y1577453D01*
X1967504Y1572154D02*
Y1577453D01*
X1968004Y1572154D02*
Y1577453D01*
X1968504Y1572154D02*
Y1577453D01*
X1969004Y1572154D02*
Y1577453D01*
X1969504Y1572154D02*
Y1577453D01*
X1970004Y1572154D02*
Y1577453D01*
X1970504Y1572154D02*
Y1577453D01*
X1971004Y1572154D02*
Y1577453D01*
X1965854Y1569972D02*
Y1564673D01*
X1971154*
Y1569972*
X1965854*
X1966004Y1564673D02*
Y1569972D01*
X1966504Y1564673D02*
Y1569972D01*
X1967004Y1564673D02*
Y1569972D01*
X1967504Y1564673D02*
Y1569972D01*
X1968004Y1564673D02*
Y1569972D01*
X1968504Y1564673D02*
Y1569972D01*
X1969004Y1564673D02*
Y1569972D01*
X1969504Y1564673D02*
Y1569972D01*
X1970004Y1564673D02*
Y1569972D01*
X1970504Y1564673D02*
Y1569972D01*
X1971004Y1564673D02*
Y1569972D01*
X1958374D02*
Y1566349D01*
X1960050Y1564673*
X1963673*
Y1569972*
X1958374*
X1958504Y1566219D02*
Y1569972D01*
X1959004Y1565719D02*
Y1569972D01*
X1959504Y1565219D02*
Y1569972D01*
X1960004Y1564719D02*
Y1569972D01*
X1960504Y1564673D02*
Y1569972D01*
X1961004Y1564673D02*
Y1569972D01*
X1961504Y1564673D02*
Y1569972D01*
X1962004Y1564673D02*
Y1569972D01*
X1962504Y1564673D02*
Y1569972D01*
X1963004Y1564673D02*
Y1569972D01*
X1963504Y1564673D02*
Y1569972D01*
X1958374Y1577453D02*
Y1572154D01*
X1963673*
Y1577453*
X1958374*
X1958504Y1572154D02*
Y1577453D01*
X1959004Y1572154D02*
Y1577453D01*
X1959504Y1572154D02*
Y1577453D01*
X1960004Y1572154D02*
Y1577453D01*
X1960504Y1572154D02*
Y1577453D01*
X1961004Y1572154D02*
Y1577453D01*
X1961504Y1572154D02*
Y1577453D01*
X1962004Y1572154D02*
Y1577453D01*
X1962504Y1572154D02*
Y1577453D01*
X1963004Y1572154D02*
Y1577453D01*
X1963504Y1572154D02*
Y1577453D01*
X1958374Y1584933D02*
Y1579634D01*
X1963673*
Y1584933*
X1958374*
X1958504Y1579634D02*
Y1584933D01*
X1959004Y1579634D02*
Y1584933D01*
X1959504Y1579634D02*
Y1584933D01*
X1960004Y1579634D02*
Y1584933D01*
X1960504Y1579634D02*
Y1584933D01*
X1961004Y1579634D02*
Y1584933D01*
X1961504Y1579634D02*
Y1584933D01*
X1962004Y1579634D02*
Y1584933D01*
X1962504Y1579634D02*
Y1584933D01*
X1963004Y1579634D02*
Y1584933D01*
X1963504Y1579634D02*
Y1584933D01*
X1965854D02*
Y1579634D01*
X1971154*
Y1584933*
X1965854*
X1966004Y1579634D02*
Y1584933D01*
X1966504Y1579634D02*
Y1584933D01*
X1967004Y1579634D02*
Y1584933D01*
X1967504Y1579634D02*
Y1584933D01*
X1968004Y1579634D02*
Y1584933D01*
X1968504Y1579634D02*
Y1584933D01*
X1969004Y1579634D02*
Y1584933D01*
X1969504Y1579634D02*
Y1584933D01*
X1970004Y1579634D02*
Y1584933D01*
X1970504Y1579634D02*
Y1584933D01*
X1971004Y1579634D02*
Y1584933D01*
X1973335D02*
Y1579634D01*
X1978634*
Y1584933*
X1973335*
X1973504Y1579634D02*
Y1584933D01*
X1974004Y1579634D02*
Y1584933D01*
X1974504Y1579634D02*
Y1584933D01*
X1975004Y1579634D02*
Y1584933D01*
X1975504Y1579634D02*
Y1584933D01*
X1976004Y1579634D02*
Y1584933D01*
X1976504Y1579634D02*
Y1584933D01*
X1977004Y1579634D02*
Y1584933D01*
X1977504Y1579634D02*
Y1584933D01*
X1978004Y1579634D02*
Y1584933D01*
X1978504Y1579634D02*
Y1584933D01*
X1973335Y1577453D02*
Y1572154D01*
X1978634*
Y1577453*
X1973335*
X1973504Y1572154D02*
Y1577453D01*
X1974004Y1572154D02*
Y1577453D01*
X1974504Y1572154D02*
Y1577453D01*
X1975004Y1572154D02*
Y1577453D01*
X1975504Y1572154D02*
Y1577453D01*
X1976004Y1572154D02*
Y1577453D01*
X1976504Y1572154D02*
Y1577453D01*
X1977004Y1572154D02*
Y1577453D01*
X1977504Y1572154D02*
Y1577453D01*
X1978004Y1572154D02*
Y1577453D01*
X1978504Y1572154D02*
Y1577453D01*
X1973335Y1569972D02*
Y1564673D01*
X1978634*
Y1569972*
X1973335*
X1973504Y1564673D02*
Y1569972D01*
X1974004Y1564673D02*
Y1569972D01*
X1974504Y1564673D02*
Y1569972D01*
X1975004Y1564673D02*
Y1569972D01*
X1975504Y1564673D02*
Y1569972D01*
X1976004Y1564673D02*
Y1569972D01*
X1976504Y1564673D02*
Y1569972D01*
X1977004Y1564673D02*
Y1569972D01*
X1977504Y1564673D02*
Y1569972D01*
X1978004Y1564673D02*
Y1569972D01*
X1978504Y1564673D02*
Y1569972D01*
X1923162Y1610181D02*
G75*
G03X1918438Y1605457I0J-4724D01*
G01Y1534906*
G03X1923162Y1530181I4724J-0*
G01X2118438*
G03X2123162Y1534906I-0J4725*
G01Y1605457*
G03X2118438Y1610181I-4724J-0*
G01X1923162*
G54D64*
X2022484Y1586360D03*
Y1579860D03*
Y1564860D03*
Y1571360D03*
G54D139*
X1957677Y1561565D03*
X1959646D03*
X1961614D03*
X1963583D03*
X1965551D03*
X1967520D03*
X1969488D03*
X1971457D03*
X1973425D03*
X1975394D03*
X1977362D03*
X1979331D03*
Y1588041D03*
X1977362D03*
X1975394D03*
X1973425D03*
X1971457D03*
X1969488D03*
X1967520D03*
X1965551D03*
X1963583D03*
X1961614D03*
X1959646D03*
X1957677D03*
G54D140*
X1981742Y1563976D03*
Y1565945D03*
Y1567913D03*
Y1569882D03*
Y1571850D03*
Y1573819D03*
Y1575787D03*
Y1577756D03*
Y1579724D03*
Y1581693D03*
Y1583661D03*
Y1585630D03*
X1955266D03*
Y1583661D03*
Y1581693D03*
Y1579724D03*
Y1577756D03*
Y1575787D03*
Y1573819D03*
Y1571850D03*
Y1569882D03*
Y1567913D03*
Y1565945D03*
Y1563976D03*
G54D141*
X1968504Y1574803D03*
G54D143*
X2077912Y1547557D03*
X2084212D03*
G54D144*
X1925412Y1550791D03*
Y1559472D03*
X1940097Y1550791D03*
Y1592917D03*
G54D145*
X1925800Y1605181D03*
X1935800D03*
X1945800D03*
X1955800D03*
X1965800D03*
X1975800D03*
X1985800D03*
X1995800D03*
X2005800D03*
X2015800D03*
X2025800D03*
X2035800D03*
X2045800D03*
X2055800D03*
X2065800D03*
X2075800D03*
X2085800D03*
X2095800D03*
X2105800D03*
X2115800D03*
X1925800Y1535181D03*
X1935800D03*
X1945800D03*
X1955800D03*
X1965800D03*
X1975800D03*
X1985800D03*
X1995800D03*
X2005800D03*
X2015800D03*
X2025800D03*
X2035800D03*
X2045800D03*
X2055800D03*
X2065800D03*
X2075800D03*
X2085800D03*
X2095800D03*
X2105800D03*
X2115800D03*
G54D151*
X2030156Y1547849D03*
X2046692D03*
X1993177D03*
X2009713D03*
G54D152*
X2059256Y1568232D03*
X2061225D03*
X2063193D03*
X2065162D03*
X2067130D03*
X2069099D03*
X2071067D03*
Y1587130D03*
X2069099D03*
X2067130D03*
X2065162D03*
X2063193D03*
X2061225D03*
X2059256D03*
G54D153*
X2074611Y1571776D03*
Y1573744D03*
Y1575713D03*
Y1577681D03*
Y1579650D03*
Y1581618D03*
Y1583587D03*
X2055713D03*
Y1581618D03*
Y1579650D03*
Y1577681D03*
Y1575713D03*
Y1573744D03*
Y1571776D03*
G54D154*
X2065162Y1577681D03*
G54D159*
X2031172Y1578785D03*
X2038810D03*
X2034991Y1587841D03*
X2038810Y1571541D03*
X2031172D03*
X2034991Y1562485D03*
G54D160*
X2014484Y1566000D03*
Y1575055D03*
Y1584110D03*
G54D161*
X1991468Y1575055D03*
G54D166*
X2101882Y1564417D03*
Y1575899D03*
G54D167*
Y1567622D03*
Y1570181D03*
Y1572740D03*
G54D168*
X2115662Y1556402D03*
Y1583961D03*
X2101095Y1556402D03*
Y1583961D03*
G54D169*
X2089662Y1574083D03*
Y1579280D03*
X2094636Y1574083D03*
Y1579280D03*
G54D170*
X2092660Y1552807D03*
X2087463D03*
G54D173*
X2078057Y1561182D03*
X2086364D03*
G74*
X0Y0D02*
M02*
