G04 EAGLE Gerber RS-274X export*
G75*
%MOMM*%
%FSLAX34Y34*%
%LPD*%
%IN*%
%IPPOS*%
%AMOC8*
5,1,8,0,0,1.08239X$1,22.5*%
G01*
%ADD10C,0.254000*%


D10*
X0Y0D02*
X1000000Y0D01*
X1000000Y1000000D01*
X0Y1000000D01*
X0Y0D01*
X81040Y789350D02*
X82118Y789279D01*
X83189Y789138D01*
X84249Y788928D01*
X85292Y788648D01*
X86315Y788301D01*
X87313Y787887D01*
X88282Y787410D01*
X89218Y786869D01*
X90116Y786269D01*
X90973Y785612D01*
X91785Y784899D01*
X92549Y784135D01*
X93262Y783323D01*
X93919Y782466D01*
X94519Y781568D01*
X95060Y780632D01*
X95537Y779663D01*
X95951Y778665D01*
X96298Y777642D01*
X96578Y776599D01*
X96788Y775539D01*
X96929Y774468D01*
X97000Y773390D01*
X97000Y772310D01*
X96929Y771232D01*
X96788Y770161D01*
X96578Y769101D01*
X96298Y768058D01*
X95951Y767035D01*
X95537Y766037D01*
X95060Y765068D01*
X94519Y764132D01*
X93919Y763234D01*
X93262Y762377D01*
X92549Y761565D01*
X91785Y760801D01*
X90973Y760089D01*
X90116Y759431D01*
X89218Y758831D01*
X88282Y758291D01*
X87313Y757813D01*
X86315Y757399D01*
X85292Y757052D01*
X84249Y756772D01*
X83189Y756562D01*
X82118Y756421D01*
X81040Y756350D01*
X79960Y756350D01*
X78882Y756421D01*
X77811Y756562D01*
X76751Y756772D01*
X75708Y757052D01*
X74685Y757399D01*
X73687Y757813D01*
X72718Y758291D01*
X71782Y758831D01*
X70884Y759431D01*
X70027Y760089D01*
X69215Y760801D01*
X68451Y761565D01*
X67739Y762377D01*
X67081Y763234D01*
X66481Y764132D01*
X65941Y765068D01*
X65463Y766037D01*
X65049Y767035D01*
X64702Y768058D01*
X64422Y769101D01*
X64212Y770161D01*
X64071Y771232D01*
X64000Y772310D01*
X64000Y773390D01*
X64071Y774468D01*
X64212Y775539D01*
X64422Y776599D01*
X64702Y777642D01*
X65049Y778665D01*
X65463Y779663D01*
X65941Y780632D01*
X66481Y781568D01*
X67081Y782466D01*
X67739Y783323D01*
X68451Y784135D01*
X69215Y784899D01*
X70027Y785612D01*
X70884Y786269D01*
X71782Y786869D01*
X72718Y787410D01*
X73687Y787887D01*
X74685Y788301D01*
X75708Y788648D01*
X76751Y788928D01*
X77811Y789138D01*
X78882Y789279D01*
X79960Y789350D01*
X81040Y789350D01*
X81040Y903650D02*
X82118Y903579D01*
X83189Y903438D01*
X84249Y903228D01*
X85292Y902948D01*
X86315Y902601D01*
X87313Y902187D01*
X88282Y901710D01*
X89218Y901169D01*
X90116Y900569D01*
X90973Y899912D01*
X91785Y899199D01*
X92549Y898435D01*
X93262Y897623D01*
X93919Y896766D01*
X94519Y895868D01*
X95060Y894932D01*
X95537Y893963D01*
X95951Y892965D01*
X96298Y891942D01*
X96578Y890899D01*
X96788Y889839D01*
X96929Y888768D01*
X97000Y887690D01*
X97000Y886610D01*
X96929Y885532D01*
X96788Y884461D01*
X96578Y883401D01*
X96298Y882358D01*
X95951Y881335D01*
X95537Y880337D01*
X95060Y879368D01*
X94519Y878432D01*
X93919Y877534D01*
X93262Y876677D01*
X92549Y875865D01*
X91785Y875101D01*
X90973Y874389D01*
X90116Y873731D01*
X89218Y873131D01*
X88282Y872591D01*
X87313Y872113D01*
X86315Y871699D01*
X85292Y871352D01*
X84249Y871072D01*
X83189Y870862D01*
X82118Y870721D01*
X81040Y870650D01*
X79960Y870650D01*
X78882Y870721D01*
X77811Y870862D01*
X76751Y871072D01*
X75708Y871352D01*
X74685Y871699D01*
X73687Y872113D01*
X72718Y872591D01*
X71782Y873131D01*
X70884Y873731D01*
X70027Y874389D01*
X69215Y875101D01*
X68451Y875865D01*
X67739Y876677D01*
X67081Y877534D01*
X66481Y878432D01*
X65941Y879368D01*
X65463Y880337D01*
X65049Y881335D01*
X64702Y882358D01*
X64422Y883401D01*
X64212Y884461D01*
X64071Y885532D01*
X64000Y886610D01*
X64000Y887690D01*
X64071Y888768D01*
X64212Y889839D01*
X64422Y890899D01*
X64702Y891942D01*
X65049Y892965D01*
X65463Y893963D01*
X65941Y894932D01*
X66481Y895868D01*
X67081Y896766D01*
X67739Y897623D01*
X68451Y898435D01*
X69215Y899199D01*
X70027Y899912D01*
X70884Y900569D01*
X71782Y901169D01*
X72718Y901710D01*
X73687Y902187D01*
X74685Y902601D01*
X75708Y902948D01*
X76751Y903228D01*
X77811Y903438D01*
X78882Y903579D01*
X79960Y903650D01*
X81040Y903650D01*
X81040Y569350D02*
X82118Y569279D01*
X83189Y569138D01*
X84249Y568928D01*
X85292Y568648D01*
X86315Y568301D01*
X87313Y567887D01*
X88282Y567410D01*
X89218Y566869D01*
X90116Y566269D01*
X90973Y565612D01*
X91785Y564899D01*
X92549Y564135D01*
X93262Y563323D01*
X93919Y562466D01*
X94519Y561568D01*
X95060Y560632D01*
X95537Y559663D01*
X95951Y558665D01*
X96298Y557642D01*
X96578Y556599D01*
X96788Y555539D01*
X96929Y554468D01*
X97000Y553390D01*
X97000Y552310D01*
X96929Y551232D01*
X96788Y550161D01*
X96578Y549101D01*
X96298Y548058D01*
X95951Y547035D01*
X95537Y546037D01*
X95060Y545068D01*
X94519Y544132D01*
X93919Y543234D01*
X93262Y542377D01*
X92549Y541565D01*
X91785Y540801D01*
X90973Y540089D01*
X90116Y539431D01*
X89218Y538831D01*
X88282Y538291D01*
X87313Y537813D01*
X86315Y537399D01*
X85292Y537052D01*
X84249Y536772D01*
X83189Y536562D01*
X82118Y536421D01*
X81040Y536350D01*
X79960Y536350D01*
X78882Y536421D01*
X77811Y536562D01*
X76751Y536772D01*
X75708Y537052D01*
X74685Y537399D01*
X73687Y537813D01*
X72718Y538291D01*
X71782Y538831D01*
X70884Y539431D01*
X70027Y540089D01*
X69215Y540801D01*
X68451Y541565D01*
X67739Y542377D01*
X67081Y543234D01*
X66481Y544132D01*
X65941Y545068D01*
X65463Y546037D01*
X65049Y547035D01*
X64702Y548058D01*
X64422Y549101D01*
X64212Y550161D01*
X64071Y551232D01*
X64000Y552310D01*
X64000Y553390D01*
X64071Y554468D01*
X64212Y555539D01*
X64422Y556599D01*
X64702Y557642D01*
X65049Y558665D01*
X65463Y559663D01*
X65941Y560632D01*
X66481Y561568D01*
X67081Y562466D01*
X67739Y563323D01*
X68451Y564135D01*
X69215Y564899D01*
X70027Y565612D01*
X70884Y566269D01*
X71782Y566869D01*
X72718Y567410D01*
X73687Y567887D01*
X74685Y568301D01*
X75708Y568648D01*
X76751Y568928D01*
X77811Y569138D01*
X78882Y569279D01*
X79960Y569350D01*
X81040Y569350D01*
X81040Y683650D02*
X82118Y683579D01*
X83189Y683438D01*
X84249Y683228D01*
X85292Y682948D01*
X86315Y682601D01*
X87313Y682187D01*
X88282Y681710D01*
X89218Y681169D01*
X90116Y680569D01*
X90973Y679912D01*
X91785Y679199D01*
X92549Y678435D01*
X93262Y677623D01*
X93919Y676766D01*
X94519Y675868D01*
X95060Y674932D01*
X95537Y673963D01*
X95951Y672965D01*
X96298Y671942D01*
X96578Y670899D01*
X96788Y669839D01*
X96929Y668768D01*
X97000Y667690D01*
X97000Y666610D01*
X96929Y665532D01*
X96788Y664461D01*
X96578Y663401D01*
X96298Y662358D01*
X95951Y661335D01*
X95537Y660337D01*
X95060Y659368D01*
X94519Y658432D01*
X93919Y657534D01*
X93262Y656677D01*
X92549Y655865D01*
X91785Y655101D01*
X90973Y654389D01*
X90116Y653731D01*
X89218Y653131D01*
X88282Y652591D01*
X87313Y652113D01*
X86315Y651699D01*
X85292Y651352D01*
X84249Y651072D01*
X83189Y650862D01*
X82118Y650721D01*
X81040Y650650D01*
X79960Y650650D01*
X78882Y650721D01*
X77811Y650862D01*
X76751Y651072D01*
X75708Y651352D01*
X74685Y651699D01*
X73687Y652113D01*
X72718Y652591D01*
X71782Y653131D01*
X70884Y653731D01*
X70027Y654389D01*
X69215Y655101D01*
X68451Y655865D01*
X67739Y656677D01*
X67081Y657534D01*
X66481Y658432D01*
X65941Y659368D01*
X65463Y660337D01*
X65049Y661335D01*
X64702Y662358D01*
X64422Y663401D01*
X64212Y664461D01*
X64071Y665532D01*
X64000Y666610D01*
X64000Y667690D01*
X64071Y668768D01*
X64212Y669839D01*
X64422Y670899D01*
X64702Y671942D01*
X65049Y672965D01*
X65463Y673963D01*
X65941Y674932D01*
X66481Y675868D01*
X67081Y676766D01*
X67739Y677623D01*
X68451Y678435D01*
X69215Y679199D01*
X70027Y679912D01*
X70884Y680569D01*
X71782Y681169D01*
X72718Y681710D01*
X73687Y682187D01*
X74685Y682601D01*
X75708Y682948D01*
X76751Y683228D01*
X77811Y683438D01*
X78882Y683579D01*
X79960Y683650D01*
X81040Y683650D01*
X81040Y349350D02*
X82118Y349279D01*
X83189Y349138D01*
X84249Y348928D01*
X85292Y348648D01*
X86315Y348301D01*
X87313Y347887D01*
X88282Y347410D01*
X89218Y346869D01*
X90116Y346269D01*
X90973Y345612D01*
X91785Y344899D01*
X92549Y344135D01*
X93262Y343323D01*
X93919Y342466D01*
X94519Y341568D01*
X95060Y340632D01*
X95537Y339663D01*
X95951Y338665D01*
X96298Y337642D01*
X96578Y336599D01*
X96788Y335539D01*
X96929Y334468D01*
X97000Y333390D01*
X97000Y332310D01*
X96929Y331232D01*
X96788Y330161D01*
X96578Y329101D01*
X96298Y328058D01*
X95951Y327035D01*
X95537Y326037D01*
X95060Y325068D01*
X94519Y324132D01*
X93919Y323234D01*
X93262Y322377D01*
X92549Y321565D01*
X91785Y320801D01*
X90973Y320089D01*
X90116Y319431D01*
X89218Y318831D01*
X88282Y318291D01*
X87313Y317813D01*
X86315Y317399D01*
X85292Y317052D01*
X84249Y316772D01*
X83189Y316562D01*
X82118Y316421D01*
X81040Y316350D01*
X79960Y316350D01*
X78882Y316421D01*
X77811Y316562D01*
X76751Y316772D01*
X75708Y317052D01*
X74685Y317399D01*
X73687Y317813D01*
X72718Y318291D01*
X71782Y318831D01*
X70884Y319431D01*
X70027Y320089D01*
X69215Y320801D01*
X68451Y321565D01*
X67739Y322377D01*
X67081Y323234D01*
X66481Y324132D01*
X65941Y325068D01*
X65463Y326037D01*
X65049Y327035D01*
X64702Y328058D01*
X64422Y329101D01*
X64212Y330161D01*
X64071Y331232D01*
X64000Y332310D01*
X64000Y333390D01*
X64071Y334468D01*
X64212Y335539D01*
X64422Y336599D01*
X64702Y337642D01*
X65049Y338665D01*
X65463Y339663D01*
X65941Y340632D01*
X66481Y341568D01*
X67081Y342466D01*
X67739Y343323D01*
X68451Y344135D01*
X69215Y344899D01*
X70027Y345612D01*
X70884Y346269D01*
X71782Y346869D01*
X72718Y347410D01*
X73687Y347887D01*
X74685Y348301D01*
X75708Y348648D01*
X76751Y348928D01*
X77811Y349138D01*
X78882Y349279D01*
X79960Y349350D01*
X81040Y349350D01*
X81040Y463650D02*
X82118Y463579D01*
X83189Y463438D01*
X84249Y463228D01*
X85292Y462948D01*
X86315Y462601D01*
X87313Y462187D01*
X88282Y461710D01*
X89218Y461169D01*
X90116Y460569D01*
X90973Y459912D01*
X91785Y459199D01*
X92549Y458435D01*
X93262Y457623D01*
X93919Y456766D01*
X94519Y455868D01*
X95060Y454932D01*
X95537Y453963D01*
X95951Y452965D01*
X96298Y451942D01*
X96578Y450899D01*
X96788Y449839D01*
X96929Y448768D01*
X97000Y447690D01*
X97000Y446610D01*
X96929Y445532D01*
X96788Y444461D01*
X96578Y443401D01*
X96298Y442358D01*
X95951Y441335D01*
X95537Y440337D01*
X95060Y439368D01*
X94519Y438432D01*
X93919Y437534D01*
X93262Y436677D01*
X92549Y435865D01*
X91785Y435101D01*
X90973Y434389D01*
X90116Y433731D01*
X89218Y433131D01*
X88282Y432591D01*
X87313Y432113D01*
X86315Y431699D01*
X85292Y431352D01*
X84249Y431072D01*
X83189Y430862D01*
X82118Y430721D01*
X81040Y430650D01*
X79960Y430650D01*
X78882Y430721D01*
X77811Y430862D01*
X76751Y431072D01*
X75708Y431352D01*
X74685Y431699D01*
X73687Y432113D01*
X72718Y432591D01*
X71782Y433131D01*
X70884Y433731D01*
X70027Y434389D01*
X69215Y435101D01*
X68451Y435865D01*
X67739Y436677D01*
X67081Y437534D01*
X66481Y438432D01*
X65941Y439368D01*
X65463Y440337D01*
X65049Y441335D01*
X64702Y442358D01*
X64422Y443401D01*
X64212Y444461D01*
X64071Y445532D01*
X64000Y446610D01*
X64000Y447690D01*
X64071Y448768D01*
X64212Y449839D01*
X64422Y450899D01*
X64702Y451942D01*
X65049Y452965D01*
X65463Y453963D01*
X65941Y454932D01*
X66481Y455868D01*
X67081Y456766D01*
X67739Y457623D01*
X68451Y458435D01*
X69215Y459199D01*
X70027Y459912D01*
X70884Y460569D01*
X71782Y461169D01*
X72718Y461710D01*
X73687Y462187D01*
X74685Y462601D01*
X75708Y462948D01*
X76751Y463228D01*
X77811Y463438D01*
X78882Y463579D01*
X79960Y463650D01*
X81040Y463650D01*
X81040Y129350D02*
X82118Y129279D01*
X83189Y129138D01*
X84249Y128928D01*
X85292Y128648D01*
X86315Y128301D01*
X87313Y127887D01*
X88282Y127410D01*
X89218Y126869D01*
X90116Y126269D01*
X90973Y125612D01*
X91785Y124899D01*
X92549Y124135D01*
X93262Y123323D01*
X93919Y122466D01*
X94519Y121568D01*
X95060Y120632D01*
X95537Y119663D01*
X95951Y118665D01*
X96298Y117642D01*
X96578Y116599D01*
X96788Y115539D01*
X96929Y114468D01*
X97000Y113390D01*
X97000Y112310D01*
X96929Y111232D01*
X96788Y110161D01*
X96578Y109101D01*
X96298Y108058D01*
X95951Y107035D01*
X95537Y106037D01*
X95060Y105068D01*
X94519Y104132D01*
X93919Y103234D01*
X93262Y102377D01*
X92549Y101565D01*
X91785Y100801D01*
X90973Y100089D01*
X90116Y99431D01*
X89218Y98831D01*
X88282Y98291D01*
X87313Y97813D01*
X86315Y97399D01*
X85292Y97052D01*
X84249Y96772D01*
X83189Y96562D01*
X82118Y96421D01*
X81040Y96350D01*
X79960Y96350D01*
X78882Y96421D01*
X77811Y96562D01*
X76751Y96772D01*
X75708Y97052D01*
X74685Y97399D01*
X73687Y97813D01*
X72718Y98291D01*
X71782Y98831D01*
X70884Y99431D01*
X70027Y100089D01*
X69215Y100801D01*
X68451Y101565D01*
X67739Y102377D01*
X67081Y103234D01*
X66481Y104132D01*
X65941Y105068D01*
X65463Y106037D01*
X65049Y107035D01*
X64702Y108058D01*
X64422Y109101D01*
X64212Y110161D01*
X64071Y111232D01*
X64000Y112310D01*
X64000Y113390D01*
X64071Y114468D01*
X64212Y115539D01*
X64422Y116599D01*
X64702Y117642D01*
X65049Y118665D01*
X65463Y119663D01*
X65941Y120632D01*
X66481Y121568D01*
X67081Y122466D01*
X67739Y123323D01*
X68451Y124135D01*
X69215Y124899D01*
X70027Y125612D01*
X70884Y126269D01*
X71782Y126869D01*
X72718Y127410D01*
X73687Y127887D01*
X74685Y128301D01*
X75708Y128648D01*
X76751Y128928D01*
X77811Y129138D01*
X78882Y129279D01*
X79960Y129350D01*
X81040Y129350D01*
X81040Y243650D02*
X82118Y243579D01*
X83189Y243438D01*
X84249Y243228D01*
X85292Y242948D01*
X86315Y242601D01*
X87313Y242187D01*
X88282Y241710D01*
X89218Y241169D01*
X90116Y240569D01*
X90973Y239912D01*
X91785Y239199D01*
X92549Y238435D01*
X93262Y237623D01*
X93919Y236766D01*
X94519Y235868D01*
X95060Y234932D01*
X95537Y233963D01*
X95951Y232965D01*
X96298Y231942D01*
X96578Y230899D01*
X96788Y229839D01*
X96929Y228768D01*
X97000Y227690D01*
X97000Y226610D01*
X96929Y225532D01*
X96788Y224461D01*
X96578Y223401D01*
X96298Y222358D01*
X95951Y221335D01*
X95537Y220337D01*
X95060Y219368D01*
X94519Y218432D01*
X93919Y217534D01*
X93262Y216677D01*
X92549Y215865D01*
X91785Y215101D01*
X90973Y214389D01*
X90116Y213731D01*
X89218Y213131D01*
X88282Y212591D01*
X87313Y212113D01*
X86315Y211699D01*
X85292Y211352D01*
X84249Y211072D01*
X83189Y210862D01*
X82118Y210721D01*
X81040Y210650D01*
X79960Y210650D01*
X78882Y210721D01*
X77811Y210862D01*
X76751Y211072D01*
X75708Y211352D01*
X74685Y211699D01*
X73687Y212113D01*
X72718Y212591D01*
X71782Y213131D01*
X70884Y213731D01*
X70027Y214389D01*
X69215Y215101D01*
X68451Y215865D01*
X67739Y216677D01*
X67081Y217534D01*
X66481Y218432D01*
X65941Y219368D01*
X65463Y220337D01*
X65049Y221335D01*
X64702Y222358D01*
X64422Y223401D01*
X64212Y224461D01*
X64071Y225532D01*
X64000Y226610D01*
X64000Y227690D01*
X64071Y228768D01*
X64212Y229839D01*
X64422Y230899D01*
X64702Y231942D01*
X65049Y232965D01*
X65463Y233963D01*
X65941Y234932D01*
X66481Y235868D01*
X67081Y236766D01*
X67739Y237623D01*
X68451Y238435D01*
X69215Y239199D01*
X70027Y239912D01*
X70884Y240569D01*
X71782Y241169D01*
X72718Y241710D01*
X73687Y242187D01*
X74685Y242601D01*
X75708Y242948D01*
X76751Y243228D01*
X77811Y243438D01*
X78882Y243579D01*
X79960Y243650D01*
X81040Y243650D01*
X918960Y210650D02*
X917882Y210721D01*
X916811Y210862D01*
X915751Y211072D01*
X914708Y211352D01*
X913685Y211699D01*
X912687Y212113D01*
X911718Y212591D01*
X910782Y213131D01*
X909884Y213731D01*
X909027Y214389D01*
X908215Y215101D01*
X907451Y215865D01*
X906739Y216677D01*
X906081Y217534D01*
X905481Y218432D01*
X904941Y219368D01*
X904463Y220337D01*
X904049Y221335D01*
X903702Y222358D01*
X903422Y223401D01*
X903212Y224461D01*
X903071Y225532D01*
X903000Y226610D01*
X903000Y227690D01*
X903071Y228768D01*
X903212Y229839D01*
X903422Y230899D01*
X903702Y231942D01*
X904049Y232965D01*
X904463Y233963D01*
X904941Y234932D01*
X905481Y235868D01*
X906081Y236766D01*
X906739Y237623D01*
X907451Y238435D01*
X908215Y239199D01*
X909027Y239912D01*
X909884Y240569D01*
X910782Y241169D01*
X911718Y241710D01*
X912687Y242187D01*
X913685Y242601D01*
X914708Y242948D01*
X915751Y243228D01*
X916811Y243438D01*
X917882Y243579D01*
X918960Y243650D01*
X920040Y243650D01*
X921118Y243579D01*
X922189Y243438D01*
X923249Y243228D01*
X924292Y242948D01*
X925315Y242601D01*
X926313Y242187D01*
X927282Y241710D01*
X928218Y241169D01*
X929116Y240569D01*
X929973Y239912D01*
X930785Y239199D01*
X931549Y238435D01*
X932262Y237623D01*
X932919Y236766D01*
X933519Y235868D01*
X934060Y234932D01*
X934537Y233963D01*
X934951Y232965D01*
X935298Y231942D01*
X935578Y230899D01*
X935788Y229839D01*
X935929Y228768D01*
X936000Y227690D01*
X936000Y226610D01*
X935929Y225532D01*
X935788Y224461D01*
X935578Y223401D01*
X935298Y222358D01*
X934951Y221335D01*
X934537Y220337D01*
X934060Y219368D01*
X933519Y218432D01*
X932919Y217534D01*
X932262Y216677D01*
X931549Y215865D01*
X930785Y215101D01*
X929973Y214389D01*
X929116Y213731D01*
X928218Y213131D01*
X927282Y212591D01*
X926313Y212113D01*
X925315Y211699D01*
X924292Y211352D01*
X923249Y211072D01*
X922189Y210862D01*
X921118Y210721D01*
X920040Y210650D01*
X918960Y210650D01*
X918960Y96350D02*
X917882Y96421D01*
X916811Y96562D01*
X915751Y96772D01*
X914708Y97052D01*
X913685Y97399D01*
X912687Y97813D01*
X911718Y98291D01*
X910782Y98831D01*
X909884Y99431D01*
X909027Y100089D01*
X908215Y100801D01*
X907451Y101565D01*
X906739Y102377D01*
X906081Y103234D01*
X905481Y104132D01*
X904941Y105068D01*
X904463Y106037D01*
X904049Y107035D01*
X903702Y108058D01*
X903422Y109101D01*
X903212Y110161D01*
X903071Y111232D01*
X903000Y112310D01*
X903000Y113390D01*
X903071Y114468D01*
X903212Y115539D01*
X903422Y116599D01*
X903702Y117642D01*
X904049Y118665D01*
X904463Y119663D01*
X904941Y120632D01*
X905481Y121568D01*
X906081Y122466D01*
X906739Y123323D01*
X907451Y124135D01*
X908215Y124899D01*
X909027Y125612D01*
X909884Y126269D01*
X910782Y126869D01*
X911718Y127410D01*
X912687Y127887D01*
X913685Y128301D01*
X914708Y128648D01*
X915751Y128928D01*
X916811Y129138D01*
X917882Y129279D01*
X918960Y129350D01*
X920040Y129350D01*
X921118Y129279D01*
X922189Y129138D01*
X923249Y128928D01*
X924292Y128648D01*
X925315Y128301D01*
X926313Y127887D01*
X927282Y127410D01*
X928218Y126869D01*
X929116Y126269D01*
X929973Y125612D01*
X930785Y124899D01*
X931549Y124135D01*
X932262Y123323D01*
X932919Y122466D01*
X933519Y121568D01*
X934060Y120632D01*
X934537Y119663D01*
X934951Y118665D01*
X935298Y117642D01*
X935578Y116599D01*
X935788Y115539D01*
X935929Y114468D01*
X936000Y113390D01*
X936000Y112310D01*
X935929Y111232D01*
X935788Y110161D01*
X935578Y109101D01*
X935298Y108058D01*
X934951Y107035D01*
X934537Y106037D01*
X934060Y105068D01*
X933519Y104132D01*
X932919Y103234D01*
X932262Y102377D01*
X931549Y101565D01*
X930785Y100801D01*
X929973Y100089D01*
X929116Y99431D01*
X928218Y98831D01*
X927282Y98291D01*
X926313Y97813D01*
X925315Y97399D01*
X924292Y97052D01*
X923249Y96772D01*
X922189Y96562D01*
X921118Y96421D01*
X920040Y96350D01*
X918960Y96350D01*
X918960Y430650D02*
X917882Y430721D01*
X916811Y430862D01*
X915751Y431072D01*
X914708Y431352D01*
X913685Y431699D01*
X912687Y432113D01*
X911718Y432591D01*
X910782Y433131D01*
X909884Y433731D01*
X909027Y434389D01*
X908215Y435101D01*
X907451Y435865D01*
X906739Y436677D01*
X906081Y437534D01*
X905481Y438432D01*
X904941Y439368D01*
X904463Y440337D01*
X904049Y441335D01*
X903702Y442358D01*
X903422Y443401D01*
X903212Y444461D01*
X903071Y445532D01*
X903000Y446610D01*
X903000Y447690D01*
X903071Y448768D01*
X903212Y449839D01*
X903422Y450899D01*
X903702Y451942D01*
X904049Y452965D01*
X904463Y453963D01*
X904941Y454932D01*
X905481Y455868D01*
X906081Y456766D01*
X906739Y457623D01*
X907451Y458435D01*
X908215Y459199D01*
X909027Y459912D01*
X909884Y460569D01*
X910782Y461169D01*
X911718Y461710D01*
X912687Y462187D01*
X913685Y462601D01*
X914708Y462948D01*
X915751Y463228D01*
X916811Y463438D01*
X917882Y463579D01*
X918960Y463650D01*
X920040Y463650D01*
X921118Y463579D01*
X922189Y463438D01*
X923249Y463228D01*
X924292Y462948D01*
X925315Y462601D01*
X926313Y462187D01*
X927282Y461710D01*
X928218Y461169D01*
X929116Y460569D01*
X929973Y459912D01*
X930785Y459199D01*
X931549Y458435D01*
X932262Y457623D01*
X932919Y456766D01*
X933519Y455868D01*
X934060Y454932D01*
X934537Y453963D01*
X934951Y452965D01*
X935298Y451942D01*
X935578Y450899D01*
X935788Y449839D01*
X935929Y448768D01*
X936000Y447690D01*
X936000Y446610D01*
X935929Y445532D01*
X935788Y444461D01*
X935578Y443401D01*
X935298Y442358D01*
X934951Y441335D01*
X934537Y440337D01*
X934060Y439368D01*
X933519Y438432D01*
X932919Y437534D01*
X932262Y436677D01*
X931549Y435865D01*
X930785Y435101D01*
X929973Y434389D01*
X929116Y433731D01*
X928218Y433131D01*
X927282Y432591D01*
X926313Y432113D01*
X925315Y431699D01*
X924292Y431352D01*
X923249Y431072D01*
X922189Y430862D01*
X921118Y430721D01*
X920040Y430650D01*
X918960Y430650D01*
X918960Y316350D02*
X917882Y316421D01*
X916811Y316562D01*
X915751Y316772D01*
X914708Y317052D01*
X913685Y317399D01*
X912687Y317813D01*
X911718Y318291D01*
X910782Y318831D01*
X909884Y319431D01*
X909027Y320089D01*
X908215Y320801D01*
X907451Y321565D01*
X906739Y322377D01*
X906081Y323234D01*
X905481Y324132D01*
X904941Y325068D01*
X904463Y326037D01*
X904049Y327035D01*
X903702Y328058D01*
X903422Y329101D01*
X903212Y330161D01*
X903071Y331232D01*
X903000Y332310D01*
X903000Y333390D01*
X903071Y334468D01*
X903212Y335539D01*
X903422Y336599D01*
X903702Y337642D01*
X904049Y338665D01*
X904463Y339663D01*
X904941Y340632D01*
X905481Y341568D01*
X906081Y342466D01*
X906739Y343323D01*
X907451Y344135D01*
X908215Y344899D01*
X909027Y345612D01*
X909884Y346269D01*
X910782Y346869D01*
X911718Y347410D01*
X912687Y347887D01*
X913685Y348301D01*
X914708Y348648D01*
X915751Y348928D01*
X916811Y349138D01*
X917882Y349279D01*
X918960Y349350D01*
X920040Y349350D01*
X921118Y349279D01*
X922189Y349138D01*
X923249Y348928D01*
X924292Y348648D01*
X925315Y348301D01*
X926313Y347887D01*
X927282Y347410D01*
X928218Y346869D01*
X929116Y346269D01*
X929973Y345612D01*
X930785Y344899D01*
X931549Y344135D01*
X932262Y343323D01*
X932919Y342466D01*
X933519Y341568D01*
X934060Y340632D01*
X934537Y339663D01*
X934951Y338665D01*
X935298Y337642D01*
X935578Y336599D01*
X935788Y335539D01*
X935929Y334468D01*
X936000Y333390D01*
X936000Y332310D01*
X935929Y331232D01*
X935788Y330161D01*
X935578Y329101D01*
X935298Y328058D01*
X934951Y327035D01*
X934537Y326037D01*
X934060Y325068D01*
X933519Y324132D01*
X932919Y323234D01*
X932262Y322377D01*
X931549Y321565D01*
X930785Y320801D01*
X929973Y320089D01*
X929116Y319431D01*
X928218Y318831D01*
X927282Y318291D01*
X926313Y317813D01*
X925315Y317399D01*
X924292Y317052D01*
X923249Y316772D01*
X922189Y316562D01*
X921118Y316421D01*
X920040Y316350D01*
X918960Y316350D01*
X918960Y650650D02*
X917882Y650721D01*
X916811Y650862D01*
X915751Y651072D01*
X914708Y651352D01*
X913685Y651699D01*
X912687Y652113D01*
X911718Y652591D01*
X910782Y653131D01*
X909884Y653731D01*
X909027Y654389D01*
X908215Y655101D01*
X907451Y655865D01*
X906739Y656677D01*
X906081Y657534D01*
X905481Y658432D01*
X904941Y659368D01*
X904463Y660337D01*
X904049Y661335D01*
X903702Y662358D01*
X903422Y663401D01*
X903212Y664461D01*
X903071Y665532D01*
X903000Y666610D01*
X903000Y667690D01*
X903071Y668768D01*
X903212Y669839D01*
X903422Y670899D01*
X903702Y671942D01*
X904049Y672965D01*
X904463Y673963D01*
X904941Y674932D01*
X905481Y675868D01*
X906081Y676766D01*
X906739Y677623D01*
X907451Y678435D01*
X908215Y679199D01*
X909027Y679912D01*
X909884Y680569D01*
X910782Y681169D01*
X911718Y681710D01*
X912687Y682187D01*
X913685Y682601D01*
X914708Y682948D01*
X915751Y683228D01*
X916811Y683438D01*
X917882Y683579D01*
X918960Y683650D01*
X920040Y683650D01*
X921118Y683579D01*
X922189Y683438D01*
X923249Y683228D01*
X924292Y682948D01*
X925315Y682601D01*
X926313Y682187D01*
X927282Y681710D01*
X928218Y681169D01*
X929116Y680569D01*
X929973Y679912D01*
X930785Y679199D01*
X931549Y678435D01*
X932262Y677623D01*
X932919Y676766D01*
X933519Y675868D01*
X934060Y674932D01*
X934537Y673963D01*
X934951Y672965D01*
X935298Y671942D01*
X935578Y670899D01*
X935788Y669839D01*
X935929Y668768D01*
X936000Y667690D01*
X936000Y666610D01*
X935929Y665532D01*
X935788Y664461D01*
X935578Y663401D01*
X935298Y662358D01*
X934951Y661335D01*
X934537Y660337D01*
X934060Y659368D01*
X933519Y658432D01*
X932919Y657534D01*
X932262Y656677D01*
X931549Y655865D01*
X930785Y655101D01*
X929973Y654389D01*
X929116Y653731D01*
X928218Y653131D01*
X927282Y652591D01*
X926313Y652113D01*
X925315Y651699D01*
X924292Y651352D01*
X923249Y651072D01*
X922189Y650862D01*
X921118Y650721D01*
X920040Y650650D01*
X918960Y650650D01*
X918960Y536350D02*
X917882Y536421D01*
X916811Y536562D01*
X915751Y536772D01*
X914708Y537052D01*
X913685Y537399D01*
X912687Y537813D01*
X911718Y538291D01*
X910782Y538831D01*
X909884Y539431D01*
X909027Y540089D01*
X908215Y540801D01*
X907451Y541565D01*
X906739Y542377D01*
X906081Y543234D01*
X905481Y544132D01*
X904941Y545068D01*
X904463Y546037D01*
X904049Y547035D01*
X903702Y548058D01*
X903422Y549101D01*
X903212Y550161D01*
X903071Y551232D01*
X903000Y552310D01*
X903000Y553390D01*
X903071Y554468D01*
X903212Y555539D01*
X903422Y556599D01*
X903702Y557642D01*
X904049Y558665D01*
X904463Y559663D01*
X904941Y560632D01*
X905481Y561568D01*
X906081Y562466D01*
X906739Y563323D01*
X907451Y564135D01*
X908215Y564899D01*
X909027Y565612D01*
X909884Y566269D01*
X910782Y566869D01*
X911718Y567410D01*
X912687Y567887D01*
X913685Y568301D01*
X914708Y568648D01*
X915751Y568928D01*
X916811Y569138D01*
X917882Y569279D01*
X918960Y569350D01*
X920040Y569350D01*
X921118Y569279D01*
X922189Y569138D01*
X923249Y568928D01*
X924292Y568648D01*
X925315Y568301D01*
X926313Y567887D01*
X927282Y567410D01*
X928218Y566869D01*
X929116Y566269D01*
X929973Y565612D01*
X930785Y564899D01*
X931549Y564135D01*
X932262Y563323D01*
X932919Y562466D01*
X933519Y561568D01*
X934060Y560632D01*
X934537Y559663D01*
X934951Y558665D01*
X935298Y557642D01*
X935578Y556599D01*
X935788Y555539D01*
X935929Y554468D01*
X936000Y553390D01*
X936000Y552310D01*
X935929Y551232D01*
X935788Y550161D01*
X935578Y549101D01*
X935298Y548058D01*
X934951Y547035D01*
X934537Y546037D01*
X934060Y545068D01*
X933519Y544132D01*
X932919Y543234D01*
X932262Y542377D01*
X931549Y541565D01*
X930785Y540801D01*
X929973Y540089D01*
X929116Y539431D01*
X928218Y538831D01*
X927282Y538291D01*
X926313Y537813D01*
X925315Y537399D01*
X924292Y537052D01*
X923249Y536772D01*
X922189Y536562D01*
X921118Y536421D01*
X920040Y536350D01*
X918960Y536350D01*
X918960Y870650D02*
X917882Y870721D01*
X916811Y870862D01*
X915751Y871072D01*
X914708Y871352D01*
X913685Y871699D01*
X912687Y872113D01*
X911718Y872591D01*
X910782Y873131D01*
X909884Y873731D01*
X909027Y874389D01*
X908215Y875101D01*
X907451Y875865D01*
X906739Y876677D01*
X906081Y877534D01*
X905481Y878432D01*
X904941Y879368D01*
X904463Y880337D01*
X904049Y881335D01*
X903702Y882358D01*
X903422Y883401D01*
X903212Y884461D01*
X903071Y885532D01*
X903000Y886610D01*
X903000Y887690D01*
X903071Y888768D01*
X903212Y889839D01*
X903422Y890899D01*
X903702Y891942D01*
X904049Y892965D01*
X904463Y893963D01*
X904941Y894932D01*
X905481Y895868D01*
X906081Y896766D01*
X906739Y897623D01*
X907451Y898435D01*
X908215Y899199D01*
X909027Y899912D01*
X909884Y900569D01*
X910782Y901169D01*
X911718Y901710D01*
X912687Y902187D01*
X913685Y902601D01*
X914708Y902948D01*
X915751Y903228D01*
X916811Y903438D01*
X917882Y903579D01*
X918960Y903650D01*
X920040Y903650D01*
X921118Y903579D01*
X922189Y903438D01*
X923249Y903228D01*
X924292Y902948D01*
X925315Y902601D01*
X926313Y902187D01*
X927282Y901710D01*
X928218Y901169D01*
X929116Y900569D01*
X929973Y899912D01*
X930785Y899199D01*
X931549Y898435D01*
X932262Y897623D01*
X932919Y896766D01*
X933519Y895868D01*
X934060Y894932D01*
X934537Y893963D01*
X934951Y892965D01*
X935298Y891942D01*
X935578Y890899D01*
X935788Y889839D01*
X935929Y888768D01*
X936000Y887690D01*
X936000Y886610D01*
X935929Y885532D01*
X935788Y884461D01*
X935578Y883401D01*
X935298Y882358D01*
X934951Y881335D01*
X934537Y880337D01*
X934060Y879368D01*
X933519Y878432D01*
X932919Y877534D01*
X932262Y876677D01*
X931549Y875865D01*
X930785Y875101D01*
X929973Y874389D01*
X929116Y873731D01*
X928218Y873131D01*
X927282Y872591D01*
X926313Y872113D01*
X925315Y871699D01*
X924292Y871352D01*
X923249Y871072D01*
X922189Y870862D01*
X921118Y870721D01*
X920040Y870650D01*
X918960Y870650D01*
X918960Y756350D02*
X917882Y756421D01*
X916811Y756562D01*
X915751Y756772D01*
X914708Y757052D01*
X913685Y757399D01*
X912687Y757813D01*
X911718Y758291D01*
X910782Y758831D01*
X909884Y759431D01*
X909027Y760089D01*
X908215Y760801D01*
X907451Y761565D01*
X906739Y762377D01*
X906081Y763234D01*
X905481Y764132D01*
X904941Y765068D01*
X904463Y766037D01*
X904049Y767035D01*
X903702Y768058D01*
X903422Y769101D01*
X903212Y770161D01*
X903071Y771232D01*
X903000Y772310D01*
X903000Y773390D01*
X903071Y774468D01*
X903212Y775539D01*
X903422Y776599D01*
X903702Y777642D01*
X904049Y778665D01*
X904463Y779663D01*
X904941Y780632D01*
X905481Y781568D01*
X906081Y782466D01*
X906739Y783323D01*
X907451Y784135D01*
X908215Y784899D01*
X909027Y785612D01*
X909884Y786269D01*
X910782Y786869D01*
X911718Y787410D01*
X912687Y787887D01*
X913685Y788301D01*
X914708Y788648D01*
X915751Y788928D01*
X916811Y789138D01*
X917882Y789279D01*
X918960Y789350D01*
X920040Y789350D01*
X921118Y789279D01*
X922189Y789138D01*
X923249Y788928D01*
X924292Y788648D01*
X925315Y788301D01*
X926313Y787887D01*
X927282Y787410D01*
X928218Y786869D01*
X929116Y786269D01*
X929973Y785612D01*
X930785Y784899D01*
X931549Y784135D01*
X932262Y783323D01*
X932919Y782466D01*
X933519Y781568D01*
X934060Y780632D01*
X934537Y779663D01*
X934951Y778665D01*
X935298Y777642D01*
X935578Y776599D01*
X935788Y775539D01*
X935929Y774468D01*
X936000Y773390D01*
X936000Y772310D01*
X935929Y771232D01*
X935788Y770161D01*
X935578Y769101D01*
X935298Y768058D01*
X934951Y767035D01*
X934537Y766037D01*
X934060Y765068D01*
X933519Y764132D01*
X932919Y763234D01*
X932262Y762377D01*
X931549Y761565D01*
X930785Y760801D01*
X929973Y760089D01*
X929116Y759431D01*
X928218Y758831D01*
X927282Y758291D01*
X926313Y757813D01*
X925315Y757399D01*
X924292Y757052D01*
X923249Y756772D01*
X922189Y756562D01*
X921118Y756421D01*
X920040Y756350D01*
X918960Y756350D01*
X46510Y29460D02*
X46439Y28381D01*
X46298Y27309D01*
X46087Y26249D01*
X45808Y25205D01*
X45460Y24181D01*
X45046Y23183D01*
X44568Y22213D01*
X44028Y21277D01*
X43427Y20378D01*
X42769Y19521D01*
X42057Y18708D01*
X41292Y17944D01*
X40479Y17231D01*
X39622Y16573D01*
X38723Y15972D01*
X37787Y15432D01*
X36817Y14954D01*
X35819Y14540D01*
X34795Y14192D01*
X33751Y13913D01*
X32691Y13702D01*
X31619Y13561D01*
X30540Y13490D01*
X29460Y13490D01*
X28381Y13561D01*
X27309Y13702D01*
X26249Y13913D01*
X25205Y14192D01*
X24181Y14540D01*
X23183Y14954D01*
X22213Y15432D01*
X21277Y15972D01*
X20378Y16573D01*
X19521Y17231D01*
X18708Y17944D01*
X17944Y18708D01*
X17231Y19521D01*
X16573Y20378D01*
X15972Y21277D01*
X15432Y22213D01*
X14954Y23183D01*
X14540Y24181D01*
X14192Y25205D01*
X13913Y26249D01*
X13702Y27309D01*
X13561Y28381D01*
X13490Y29460D01*
X13490Y30540D01*
X13561Y31619D01*
X13702Y32691D01*
X13913Y33751D01*
X14192Y34795D01*
X14540Y35819D01*
X14954Y36817D01*
X15432Y37787D01*
X15972Y38723D01*
X16573Y39622D01*
X17231Y40479D01*
X17944Y41292D01*
X18708Y42057D01*
X19521Y42769D01*
X20378Y43427D01*
X21277Y44028D01*
X22213Y44568D01*
X23183Y45046D01*
X24181Y45460D01*
X25205Y45808D01*
X26249Y46087D01*
X27309Y46298D01*
X28381Y46439D01*
X29460Y46510D01*
X30540Y46510D01*
X31619Y46439D01*
X32691Y46298D01*
X33751Y46087D01*
X34795Y45808D01*
X35819Y45460D01*
X36817Y45046D01*
X37787Y44568D01*
X38723Y44028D01*
X39622Y43427D01*
X40479Y42769D01*
X41292Y42057D01*
X42057Y41292D01*
X42769Y40479D01*
X43427Y39622D01*
X44028Y38723D01*
X44568Y37787D01*
X45046Y36817D01*
X45460Y35819D01*
X45808Y34795D01*
X46087Y33751D01*
X46298Y32691D01*
X46439Y31619D01*
X46510Y30540D01*
X46510Y29460D01*
X986510Y29460D02*
X986439Y28381D01*
X986298Y27309D01*
X986087Y26249D01*
X985808Y25205D01*
X985460Y24181D01*
X985046Y23183D01*
X984568Y22213D01*
X984028Y21277D01*
X983427Y20378D01*
X982769Y19521D01*
X982057Y18708D01*
X981292Y17944D01*
X980479Y17231D01*
X979622Y16573D01*
X978723Y15972D01*
X977787Y15432D01*
X976817Y14954D01*
X975819Y14540D01*
X974795Y14192D01*
X973751Y13913D01*
X972691Y13702D01*
X971619Y13561D01*
X970540Y13490D01*
X969460Y13490D01*
X968381Y13561D01*
X967309Y13702D01*
X966249Y13913D01*
X965205Y14192D01*
X964181Y14540D01*
X963183Y14954D01*
X962213Y15432D01*
X961277Y15972D01*
X960378Y16573D01*
X959521Y17231D01*
X958708Y17944D01*
X957944Y18708D01*
X957231Y19521D01*
X956573Y20378D01*
X955972Y21277D01*
X955432Y22213D01*
X954954Y23183D01*
X954540Y24181D01*
X954192Y25205D01*
X953913Y26249D01*
X953702Y27309D01*
X953561Y28381D01*
X953490Y29460D01*
X953490Y30540D01*
X953561Y31619D01*
X953702Y32691D01*
X953913Y33751D01*
X954192Y34795D01*
X954540Y35819D01*
X954954Y36817D01*
X955432Y37787D01*
X955972Y38723D01*
X956573Y39622D01*
X957231Y40479D01*
X957944Y41292D01*
X958708Y42057D01*
X959521Y42769D01*
X960378Y43427D01*
X961277Y44028D01*
X962213Y44568D01*
X963183Y45046D01*
X964181Y45460D01*
X965205Y45808D01*
X966249Y46087D01*
X967309Y46298D01*
X968381Y46439D01*
X969460Y46510D01*
X970540Y46510D01*
X971619Y46439D01*
X972691Y46298D01*
X973751Y46087D01*
X974795Y45808D01*
X975819Y45460D01*
X976817Y45046D01*
X977787Y44568D01*
X978723Y44028D01*
X979622Y43427D01*
X980479Y42769D01*
X981292Y42057D01*
X982057Y41292D01*
X982769Y40479D01*
X983427Y39622D01*
X984028Y38723D01*
X984568Y37787D01*
X985046Y36817D01*
X985460Y35819D01*
X985808Y34795D01*
X986087Y33751D01*
X986298Y32691D01*
X986439Y31619D01*
X986510Y30540D01*
X986510Y29460D01*
X46510Y969460D02*
X46439Y968381D01*
X46298Y967309D01*
X46087Y966249D01*
X45808Y965205D01*
X45460Y964181D01*
X45046Y963183D01*
X44568Y962213D01*
X44028Y961277D01*
X43427Y960378D01*
X42769Y959521D01*
X42057Y958708D01*
X41292Y957944D01*
X40479Y957231D01*
X39622Y956573D01*
X38723Y955972D01*
X37787Y955432D01*
X36817Y954954D01*
X35819Y954540D01*
X34795Y954192D01*
X33751Y953913D01*
X32691Y953702D01*
X31619Y953561D01*
X30540Y953490D01*
X29460Y953490D01*
X28381Y953561D01*
X27309Y953702D01*
X26249Y953913D01*
X25205Y954192D01*
X24181Y954540D01*
X23183Y954954D01*
X22213Y955432D01*
X21277Y955972D01*
X20378Y956573D01*
X19521Y957231D01*
X18708Y957944D01*
X17944Y958708D01*
X17231Y959521D01*
X16573Y960378D01*
X15972Y961277D01*
X15432Y962213D01*
X14954Y963183D01*
X14540Y964181D01*
X14192Y965205D01*
X13913Y966249D01*
X13702Y967309D01*
X13561Y968381D01*
X13490Y969460D01*
X13490Y970540D01*
X13561Y971619D01*
X13702Y972691D01*
X13913Y973751D01*
X14192Y974795D01*
X14540Y975819D01*
X14954Y976817D01*
X15432Y977787D01*
X15972Y978723D01*
X16573Y979622D01*
X17231Y980479D01*
X17944Y981292D01*
X18708Y982057D01*
X19521Y982769D01*
X20378Y983427D01*
X21277Y984028D01*
X22213Y984568D01*
X23183Y985046D01*
X24181Y985460D01*
X25205Y985808D01*
X26249Y986087D01*
X27309Y986298D01*
X28381Y986439D01*
X29460Y986510D01*
X30540Y986510D01*
X31619Y986439D01*
X32691Y986298D01*
X33751Y986087D01*
X34795Y985808D01*
X35819Y985460D01*
X36817Y985046D01*
X37787Y984568D01*
X38723Y984028D01*
X39622Y983427D01*
X40479Y982769D01*
X41292Y982057D01*
X42057Y981292D01*
X42769Y980479D01*
X43427Y979622D01*
X44028Y978723D01*
X44568Y977787D01*
X45046Y976817D01*
X45460Y975819D01*
X45808Y974795D01*
X46087Y973751D01*
X46298Y972691D01*
X46439Y971619D01*
X46510Y970540D01*
X46510Y969460D01*
X986510Y969460D02*
X986439Y968381D01*
X986298Y967309D01*
X986087Y966249D01*
X985808Y965205D01*
X985460Y964181D01*
X985046Y963183D01*
X984568Y962213D01*
X984028Y961277D01*
X983427Y960378D01*
X982769Y959521D01*
X982057Y958708D01*
X981292Y957944D01*
X980479Y957231D01*
X979622Y956573D01*
X978723Y955972D01*
X977787Y955432D01*
X976817Y954954D01*
X975819Y954540D01*
X974795Y954192D01*
X973751Y953913D01*
X972691Y953702D01*
X971619Y953561D01*
X970540Y953490D01*
X969460Y953490D01*
X968381Y953561D01*
X967309Y953702D01*
X966249Y953913D01*
X965205Y954192D01*
X964181Y954540D01*
X963183Y954954D01*
X962213Y955432D01*
X961277Y955972D01*
X960378Y956573D01*
X959521Y957231D01*
X958708Y957944D01*
X957944Y958708D01*
X957231Y959521D01*
X956573Y960378D01*
X955972Y961277D01*
X955432Y962213D01*
X954954Y963183D01*
X954540Y964181D01*
X954192Y965205D01*
X953913Y966249D01*
X953702Y967309D01*
X953561Y968381D01*
X953490Y969460D01*
X953490Y970540D01*
X953561Y971619D01*
X953702Y972691D01*
X953913Y973751D01*
X954192Y974795D01*
X954540Y975819D01*
X954954Y976817D01*
X955432Y977787D01*
X955972Y978723D01*
X956573Y979622D01*
X957231Y980479D01*
X957944Y981292D01*
X958708Y982057D01*
X959521Y982769D01*
X960378Y983427D01*
X961277Y984028D01*
X962213Y984568D01*
X963183Y985046D01*
X964181Y985460D01*
X965205Y985808D01*
X966249Y986087D01*
X967309Y986298D01*
X968381Y986439D01*
X969460Y986510D01*
X970540Y986510D01*
X971619Y986439D01*
X972691Y986298D01*
X973751Y986087D01*
X974795Y985808D01*
X975819Y985460D01*
X976817Y985046D01*
X977787Y984568D01*
X978723Y984028D01*
X979622Y983427D01*
X980479Y982769D01*
X981292Y982057D01*
X982057Y981292D01*
X982769Y980479D01*
X983427Y979622D01*
X984028Y978723D01*
X984568Y977787D01*
X985046Y976817D01*
X985460Y975819D01*
X985808Y974795D01*
X986087Y973751D01*
X986298Y972691D01*
X986439Y971619D01*
X986510Y970540D01*
X986510Y969460D01*
M02*
