G04 EAGLE Gerber RS-274X export*
G75*
%MOMM*%
%FSLAX34Y34*%
%LPD*%
%INSolderpaste Top*%
%IPPOS*%
%AMOC8*
5,1,8,0,0,1.08239X$1,22.5*%
G01*
%ADD10R,0.990600X0.304800*%
%ADD11R,1.500000X0.400000*%
%ADD12R,1.219200X2.235200*%
%ADD13R,3.600000X2.200000*%
%ADD14R,3.200000X0.800000*%
%ADD15R,2.540000X3.120000*%
%ADD16R,0.800000X1.200000*%
%ADD17R,1.200000X0.800000*%
%ADD18R,1.600000X1.900000*%
%ADD19R,0.800000X0.900000*%
%ADD20R,0.630000X0.830000*%
%ADD21R,0.830000X0.630000*%
%ADD22R,0.800000X0.800000*%
%ADD23R,0.900000X0.800000*%


D10*
X470822Y385750D03*
X470822Y379250D03*
X470822Y372750D03*
X470822Y366250D03*
X470822Y359750D03*
X470822Y353250D03*
X470822Y346750D03*
X470822Y340250D03*
X470822Y333750D03*
X470822Y327250D03*
X470822Y320750D03*
X470822Y314250D03*
X529178Y314250D03*
X529178Y320750D03*
X529178Y327250D03*
X529178Y333750D03*
X529178Y340250D03*
X529178Y346750D03*
X529178Y353250D03*
X529178Y359750D03*
X529178Y366250D03*
X529178Y372750D03*
X529178Y379250D03*
X529178Y385750D03*
D11*
X463750Y692250D03*
X463750Y685750D03*
X463750Y679250D03*
X463750Y672750D03*
X463750Y666250D03*
X463750Y659750D03*
X463750Y653250D03*
X463750Y646750D03*
X463750Y640250D03*
X463750Y633750D03*
X463750Y627250D03*
X463750Y620750D03*
X463750Y614250D03*
X463750Y607750D03*
X536250Y607750D03*
X536250Y614250D03*
X536250Y620750D03*
X536250Y627250D03*
X536250Y633750D03*
X536250Y640250D03*
X536250Y646750D03*
X536250Y653250D03*
X536250Y659750D03*
X536250Y666250D03*
X536250Y672750D03*
X536250Y679250D03*
X536250Y685750D03*
X536250Y692250D03*
D12*
X476886Y149012D03*
X500000Y149012D03*
X523114Y149012D03*
D13*
X500000Y210990D03*
D14*
X195200Y785550D03*
X195200Y798250D03*
X195200Y810950D03*
X195200Y823650D03*
X195200Y836350D03*
X195200Y849050D03*
X195200Y861750D03*
X195200Y874450D03*
D15*
X50000Y748300D03*
X50000Y911700D03*
D14*
X195200Y565550D03*
X195200Y578250D03*
X195200Y590950D03*
X195200Y603650D03*
X195200Y616350D03*
X195200Y629050D03*
X195200Y641750D03*
X195200Y654450D03*
D15*
X50000Y528300D03*
X50000Y691700D03*
D14*
X195200Y345550D03*
X195200Y358250D03*
X195200Y370950D03*
X195200Y383650D03*
X195200Y396350D03*
X195200Y409050D03*
X195200Y421750D03*
X195200Y434450D03*
D15*
X50000Y308300D03*
X50000Y471700D03*
D14*
X195200Y125550D03*
X195200Y138250D03*
X195200Y150950D03*
X195200Y163650D03*
X195200Y176350D03*
X195200Y189050D03*
X195200Y201750D03*
X195200Y214450D03*
D15*
X50000Y88300D03*
X50000Y251700D03*
D14*
X804800Y214450D03*
X804800Y201750D03*
X804800Y189050D03*
X804800Y176350D03*
X804800Y163650D03*
X804800Y150950D03*
X804800Y138250D03*
X804800Y125550D03*
D15*
X950000Y251700D03*
X950000Y88300D03*
D14*
X804800Y434450D03*
X804800Y421750D03*
X804800Y409050D03*
X804800Y396350D03*
X804800Y383650D03*
X804800Y370950D03*
X804800Y358250D03*
X804800Y345550D03*
D15*
X950000Y471700D03*
X950000Y308300D03*
D14*
X804800Y654450D03*
X804800Y641750D03*
X804800Y629050D03*
X804800Y616350D03*
X804800Y603650D03*
X804800Y590950D03*
X804800Y578250D03*
X804800Y565550D03*
D15*
X950000Y691700D03*
X950000Y528300D03*
D14*
X804800Y874450D03*
X804800Y861750D03*
X804800Y849050D03*
X804800Y836350D03*
X804800Y823650D03*
X804800Y810950D03*
X804800Y798250D03*
X804800Y785550D03*
D15*
X950000Y911700D03*
X950000Y748300D03*
D16*
X533000Y405000D03*
X515000Y405000D03*
D17*
X442000Y638000D03*
X442000Y620000D03*
D18*
X560000Y206500D03*
X560000Y173500D03*
X440000Y173500D03*
X440000Y206500D03*
D19*
X430000Y69000D03*
X420500Y90000D03*
X439500Y90000D03*
D16*
X421000Y110000D03*
X439000Y110000D03*
D19*
X465000Y69000D03*
X455500Y90000D03*
X474500Y90000D03*
D16*
X456000Y110000D03*
X474000Y110000D03*
D20*
X386500Y105000D03*
X363500Y105000D03*
D16*
X366000Y85000D03*
X384000Y85000D03*
D21*
X548000Y111500D03*
X548000Y88500D03*
D22*
X492500Y260000D03*
X507500Y260000D03*
D16*
X521000Y260000D03*
X539000Y260000D03*
D17*
X305000Y804000D03*
X305000Y786000D03*
D16*
X271000Y680000D03*
X253000Y680000D03*
X284000Y460000D03*
X266000Y460000D03*
X264000Y240000D03*
X246000Y240000D03*
X731000Y230000D03*
X749000Y230000D03*
X766000Y450000D03*
X784000Y450000D03*
X721000Y655000D03*
X739000Y655000D03*
D17*
X712000Y861000D03*
X712000Y879000D03*
D23*
X314000Y825000D03*
X335000Y834500D03*
X335000Y815500D03*
X269000Y616350D03*
X290000Y625850D03*
X290000Y606850D03*
X284000Y396350D03*
X305000Y405850D03*
X305000Y386850D03*
X264000Y176350D03*
X285000Y185850D03*
X285000Y166850D03*
X731000Y185000D03*
X710000Y175500D03*
X710000Y194500D03*
X756000Y385000D03*
X735000Y375500D03*
X735000Y394500D03*
X721000Y615000D03*
X700000Y605500D03*
X700000Y624500D03*
X713000Y823650D03*
X692000Y814150D03*
X692000Y833150D03*
D17*
X512600Y89000D03*
X512600Y71000D03*
M02*
