G04 EAGLE Gerber RS-274X export*
G75*
%MOMM*%
%FSLAX34Y34*%
%LPD*%
%INSoldermask Bottom*%
%IPPOS*%
%AMOC8*
5,1,8,0,0,1.08239X$1,22.5*%
G01*
%ADD10R,1.981200X1.981200*%
%ADD11P,2.144431X8X112.500000*%
%ADD12C,3.401600*%
%ADD13C,3.403600*%
%ADD14R,1.625600X1.625600*%
%ADD15P,1.759533X8X22.500000*%
%ADD16P,1.759533X8X202.500000*%


D10*
X411000Y20000D03*
D11*
X436400Y20000D03*
X461800Y20000D03*
X487200Y20000D03*
X512600Y20000D03*
X538000Y20000D03*
X563400Y20000D03*
X588800Y20000D03*
D12*
X80500Y772850D03*
X80500Y887150D03*
X80500Y552850D03*
X80500Y667150D03*
X80500Y332850D03*
X80500Y447150D03*
X80500Y112850D03*
X80500Y227150D03*
X919500Y227150D03*
X919500Y112850D03*
X919500Y447150D03*
X919500Y332850D03*
X919500Y667150D03*
X919500Y552850D03*
X919500Y887150D03*
X919500Y772850D03*
D13*
X30000Y30000D03*
X970000Y30000D03*
X30000Y970000D03*
X970000Y970000D03*
D14*
X151900Y927300D03*
D15*
X151900Y952700D03*
X177300Y927300D03*
X177300Y952700D03*
X202700Y927300D03*
X202700Y952700D03*
X228100Y927300D03*
X228100Y952700D03*
D14*
X151900Y707300D03*
D15*
X151900Y732700D03*
X177300Y707300D03*
X177300Y732700D03*
X202700Y707300D03*
X202700Y732700D03*
X228100Y707300D03*
X228100Y732700D03*
D14*
X151900Y487300D03*
D15*
X151900Y512700D03*
X177300Y487300D03*
X177300Y512700D03*
X202700Y487300D03*
X202700Y512700D03*
X228100Y487300D03*
X228100Y512700D03*
D14*
X151900Y267300D03*
D15*
X151900Y292700D03*
X177300Y267300D03*
X177300Y292700D03*
X202700Y267300D03*
X202700Y292700D03*
X228100Y267300D03*
X228100Y292700D03*
D14*
X848100Y72700D03*
D16*
X848100Y47300D03*
X822700Y72700D03*
X822700Y47300D03*
X797300Y72700D03*
X797300Y47300D03*
X771900Y72700D03*
X771900Y47300D03*
D14*
X848100Y292700D03*
D16*
X848100Y267300D03*
X822700Y292700D03*
X822700Y267300D03*
X797300Y292700D03*
X797300Y267300D03*
X771900Y292700D03*
X771900Y267300D03*
D14*
X848100Y512700D03*
D16*
X848100Y487300D03*
X822700Y512700D03*
X822700Y487300D03*
X797300Y512700D03*
X797300Y487300D03*
X771900Y512700D03*
X771900Y487300D03*
D14*
X848100Y732700D03*
D16*
X848100Y707300D03*
X822700Y732700D03*
X822700Y707300D03*
X797300Y732700D03*
X797300Y707300D03*
X771900Y732700D03*
X771900Y707300D03*
M02*
