M48
;GenerationSoftware,Autodesk,EAGLE,9.3.0*%
;CreationDate,2020-05-26T23:42:10Z*%
FMAT,2
ICI,OFF
METRIC,TZ,000.000
T4C0.300
T3C1.016
T2C3.300
T1C3.302
%
G90
M71
T1
X3000Y34000
X15000Y34000
X3000Y22000
X15000Y22000
X22000Y34000
X22000Y22000
T2
X15715Y5050
X4285Y5050
T3
X20730Y11270
X20730Y13810
X23270Y13810
X23270Y11270
X20730Y8730
X23270Y8730
X20730Y6190
X23270Y6190
T4
X16500Y28000
X7450Y18700
X11450Y22400
X16800Y25300
X23700Y17950
X13000Y25000
X7450Y14400
X12100Y20700
X16500Y26750
X11905Y19395
X16500Y29000
X10635Y12033
X8095Y13500
X11275Y18700
X12525Y18700
X20000Y17000
X8725Y18700
X8725Y14400
X5550Y14300
X5550Y18700
X10000Y14400
X11275Y14400
X12550Y14400
X12100Y27850
X15000Y19000
X15350Y29950
X15300Y14400
X1000Y4000
X19000Y4000
M30