M48
;GenerationSoftware,Autodesk,EAGLE,9.3.0*%
;CreationDate,2020-05-26T12:18:30Z*%
FMAT,2
ICI,OFF
METRIC,TZ,000.000
T5C0.300
T4C1.000
T3C1.016
T2C3.300
T1C3.302
%
G90
M71
T1
X3000Y33000
X15000Y33000
X3000Y22000
X15000Y22000
T2
X15715Y5050
X4285Y5050
T3
X23270Y6190
X20730Y13810
X23270Y13810
X20730Y11270
X23270Y11270
X20730Y8730
X23270Y8730
X20730Y6190
T4
X8140Y27050
T5
X12550Y14400
X15000Y19000
X6800Y24800
X18700Y29500
X15300Y14400
X1000Y4000
X19000Y4000
X16500Y27500
X7450Y18700
X11450Y22400
X13000Y25000
X14200Y26100
X15800Y25800
X17100Y24200
X20000Y17000
X11150Y24850
X12100Y20700
X16500Y26500
X11905Y19395
X16500Y28500
X8900Y20500
X10270Y31000
X10635Y12033
X10270Y24020
X9550Y18700
X8095Y13500
X6950Y29850
X6550Y19000
X13000Y29000
X8400Y25900
X8400Y28200
X8000Y30000
X11275Y18700
X12525Y18700
X8375Y24000
X18700Y24200
X8725Y18700
X8725Y14400
X7450Y14400
X5550Y14300
X5550Y18700
X10000Y14400
X11275Y14400
M30