G04 EAGLE Gerber RS-274X export*
G75*
%MOMM*%
%FSLAX34Y34*%
%LPD*%
%INSilkscreen Bottom*%
%IPPOS*%
%AMOC8*
5,1,8,0,0,1.08239X$1,22.5*%
G01*
%ADD10C,0.152400*%


D10*
X120482Y7469D02*
X136752Y7469D01*
X136752Y2046D02*
X136752Y12893D01*
X136752Y18418D02*
X136752Y29264D01*
X136752Y18418D02*
X120482Y18418D01*
X120482Y29264D01*
X128617Y23841D02*
X128617Y18418D01*
X120482Y51161D02*
X136752Y51161D01*
X131329Y56584D01*
X136752Y62007D01*
X120482Y62007D01*
X136752Y75667D02*
X134040Y78379D01*
X136752Y75667D02*
X136752Y70244D01*
X134040Y67532D01*
X131329Y67532D01*
X128617Y70244D01*
X128617Y75667D01*
X125905Y78379D01*
X123194Y78379D01*
X120482Y75667D01*
X120482Y70244D01*
X123194Y67532D01*
X136752Y83904D02*
X136752Y94751D01*
X136752Y83904D02*
X128617Y83904D01*
X131329Y89327D01*
X131329Y92039D01*
X128617Y94751D01*
X123194Y94751D01*
X120482Y92039D01*
X120482Y86616D01*
X123194Y83904D01*
X134040Y100275D02*
X136752Y102987D01*
X136752Y108410D01*
X134040Y111122D01*
X131329Y111122D01*
X128617Y108410D01*
X125905Y111122D01*
X123194Y111122D01*
X120482Y108410D01*
X120482Y102987D01*
X123194Y100275D01*
X125905Y100275D01*
X128617Y102987D01*
X131329Y100275D01*
X134040Y100275D01*
X128617Y102987D02*
X128617Y108410D01*
X134040Y116647D02*
X136752Y119359D01*
X136752Y124782D01*
X134040Y127494D01*
X131329Y127494D01*
X128617Y124782D01*
X128617Y122070D01*
X128617Y124782D02*
X125905Y127494D01*
X123194Y127494D01*
X120482Y124782D01*
X120482Y119359D01*
X123194Y116647D01*
X136752Y133019D02*
X136752Y143865D01*
X134040Y143865D01*
X123194Y133019D01*
X120482Y133019D01*
X110082Y2046D02*
X93812Y2046D01*
X93812Y10181D01*
X96524Y12893D01*
X101947Y12893D01*
X104659Y10181D01*
X104659Y2046D01*
X93812Y21129D02*
X93812Y26553D01*
X96524Y29264D01*
X101947Y29264D01*
X104659Y26553D01*
X104659Y21129D01*
X101947Y18418D01*
X96524Y18418D01*
X93812Y21129D01*
X104659Y37501D02*
X104659Y42924D01*
X101947Y45636D01*
X93812Y45636D01*
X93812Y37501D01*
X96524Y34789D01*
X99235Y37501D01*
X99235Y45636D01*
X93812Y51161D02*
X104659Y51161D01*
X104659Y56584D02*
X99235Y51161D01*
X104659Y56584D02*
X104659Y59296D01*
X110082Y75650D02*
X93812Y75650D01*
X93812Y67515D01*
X96524Y64804D01*
X101947Y64804D01*
X104659Y67515D01*
X104659Y75650D01*
X83412Y2046D02*
X67142Y2046D01*
X83412Y2046D02*
X83412Y10181D01*
X80700Y12893D01*
X75277Y12893D01*
X72565Y10181D01*
X72565Y2046D01*
X72565Y7469D02*
X67142Y12893D01*
X67142Y21129D02*
X67142Y26553D01*
X67142Y21129D02*
X69854Y18418D01*
X75277Y18418D01*
X77989Y21129D01*
X77989Y26553D01*
X75277Y29264D01*
X72565Y29264D01*
X72565Y18418D01*
X77989Y34789D02*
X67142Y40213D01*
X77989Y45636D01*
X69854Y51161D02*
X67142Y51161D01*
X69854Y51161D02*
X69854Y53872D01*
X67142Y53872D01*
X67142Y51161D01*
X83412Y83853D02*
X80700Y86565D01*
X83412Y83853D02*
X83412Y78430D01*
X80700Y75718D01*
X69854Y75718D01*
X67142Y78430D01*
X67142Y83853D01*
X69854Y86565D01*
M02*
