G04 EAGLE Gerber RS-274X export*
G75*
%MOMM*%
%FSLAX34Y34*%
%LPD*%
%IN*%
%IPPOS*%
%AMOC8*
5,1,8,0,0,1.08239X$1,22.5*%
G01*
%ADD10C,0.254000*%


D10*
X0Y0D02*
X250000Y0D01*
X250000Y360000D01*
X0Y360000D01*
X0Y0D01*
X86400Y270219D02*
X86337Y269661D01*
X86212Y269114D01*
X86027Y268584D01*
X85783Y268078D01*
X85484Y267602D01*
X85134Y267163D01*
X84737Y266766D01*
X84298Y266416D01*
X83822Y266117D01*
X83316Y265873D01*
X82786Y265688D01*
X82239Y265563D01*
X81681Y265500D01*
X81119Y265500D01*
X80561Y265563D01*
X80014Y265688D01*
X79484Y265873D01*
X78978Y266117D01*
X78502Y266416D01*
X78063Y266766D01*
X77666Y267163D01*
X77316Y267602D01*
X77017Y268078D01*
X76773Y268584D01*
X76588Y269114D01*
X76463Y269661D01*
X76400Y270219D01*
X76400Y270781D01*
X76463Y271339D01*
X76588Y271886D01*
X76773Y272416D01*
X77017Y272922D01*
X77316Y273398D01*
X77666Y273837D01*
X78063Y274234D01*
X78502Y274584D01*
X78978Y274883D01*
X79484Y275127D01*
X80014Y275312D01*
X80561Y275437D01*
X81119Y275500D01*
X81681Y275500D01*
X82239Y275437D01*
X82786Y275312D01*
X83316Y275127D01*
X83822Y274883D01*
X84298Y274584D01*
X84737Y274234D01*
X85134Y273837D01*
X85484Y273398D01*
X85783Y272922D01*
X86027Y272416D01*
X86212Y271886D01*
X86337Y271339D01*
X86400Y270781D01*
X86400Y270219D01*
X140650Y51040D02*
X140721Y52118D01*
X140862Y53189D01*
X141072Y54249D01*
X141352Y55292D01*
X141699Y56315D01*
X142113Y57313D01*
X142591Y58282D01*
X143131Y59218D01*
X143731Y60116D01*
X144389Y60973D01*
X145101Y61785D01*
X145865Y62549D01*
X146677Y63262D01*
X147534Y63919D01*
X148432Y64519D01*
X149368Y65060D01*
X150337Y65537D01*
X151335Y65951D01*
X152358Y66298D01*
X153401Y66578D01*
X154461Y66788D01*
X155532Y66929D01*
X156610Y67000D01*
X157690Y67000D01*
X158768Y66929D01*
X159839Y66788D01*
X160899Y66578D01*
X161942Y66298D01*
X162965Y65951D01*
X163963Y65537D01*
X164932Y65060D01*
X165868Y64519D01*
X166766Y63919D01*
X167623Y63262D01*
X168435Y62549D01*
X169199Y61785D01*
X169912Y60973D01*
X170569Y60116D01*
X171169Y59218D01*
X171710Y58282D01*
X172187Y57313D01*
X172601Y56315D01*
X172948Y55292D01*
X173228Y54249D01*
X173438Y53189D01*
X173579Y52118D01*
X173650Y51040D01*
X173650Y49960D01*
X173579Y48882D01*
X173438Y47811D01*
X173228Y46751D01*
X172948Y45708D01*
X172601Y44685D01*
X172187Y43687D01*
X171710Y42718D01*
X171169Y41782D01*
X170569Y40884D01*
X169912Y40027D01*
X169199Y39215D01*
X168435Y38451D01*
X167623Y37739D01*
X166766Y37081D01*
X165868Y36481D01*
X164932Y35941D01*
X163963Y35463D01*
X162965Y35049D01*
X161942Y34702D01*
X160899Y34422D01*
X159839Y34212D01*
X158768Y34071D01*
X157690Y34000D01*
X156610Y34000D01*
X155532Y34071D01*
X154461Y34212D01*
X153401Y34422D01*
X152358Y34702D01*
X151335Y35049D01*
X150337Y35463D01*
X149368Y35941D01*
X148432Y36481D01*
X147534Y37081D01*
X146677Y37739D01*
X145865Y38451D01*
X145101Y39215D01*
X144389Y40027D01*
X143731Y40884D01*
X143131Y41782D01*
X142591Y42718D01*
X142113Y43687D01*
X141699Y44685D01*
X141352Y45708D01*
X141072Y46751D01*
X140862Y47811D01*
X140721Y48882D01*
X140650Y49960D01*
X140650Y51040D01*
X26350Y51040D02*
X26421Y52118D01*
X26562Y53189D01*
X26772Y54249D01*
X27052Y55292D01*
X27399Y56315D01*
X27813Y57313D01*
X28291Y58282D01*
X28831Y59218D01*
X29431Y60116D01*
X30089Y60973D01*
X30801Y61785D01*
X31565Y62549D01*
X32377Y63262D01*
X33234Y63919D01*
X34132Y64519D01*
X35068Y65060D01*
X36037Y65537D01*
X37035Y65951D01*
X38058Y66298D01*
X39101Y66578D01*
X40161Y66788D01*
X41232Y66929D01*
X42310Y67000D01*
X43390Y67000D01*
X44468Y66929D01*
X45539Y66788D01*
X46599Y66578D01*
X47642Y66298D01*
X48665Y65951D01*
X49663Y65537D01*
X50632Y65060D01*
X51568Y64519D01*
X52466Y63919D01*
X53323Y63262D01*
X54135Y62549D01*
X54899Y61785D01*
X55612Y60973D01*
X56269Y60116D01*
X56869Y59218D01*
X57410Y58282D01*
X57887Y57313D01*
X58301Y56315D01*
X58648Y55292D01*
X58928Y54249D01*
X59138Y53189D01*
X59279Y52118D01*
X59350Y51040D01*
X59350Y49960D01*
X59279Y48882D01*
X59138Y47811D01*
X58928Y46751D01*
X58648Y45708D01*
X58301Y44685D01*
X57887Y43687D01*
X57410Y42718D01*
X56869Y41782D01*
X56269Y40884D01*
X55612Y40027D01*
X54899Y39215D01*
X54135Y38451D01*
X53323Y37739D01*
X52466Y37081D01*
X51568Y36481D01*
X50632Y35941D01*
X49663Y35463D01*
X48665Y35049D01*
X47642Y34702D01*
X46599Y34422D01*
X45539Y34212D01*
X44468Y34071D01*
X43390Y34000D01*
X42310Y34000D01*
X41232Y34071D01*
X40161Y34212D01*
X39101Y34422D01*
X38058Y34702D01*
X37035Y35049D01*
X36037Y35463D01*
X35068Y35941D01*
X34132Y36481D01*
X33234Y37081D01*
X32377Y37739D01*
X31565Y38451D01*
X30801Y39215D01*
X30089Y40027D01*
X29431Y40884D01*
X28831Y41782D01*
X28291Y42718D01*
X27813Y43687D01*
X27399Y44685D01*
X27052Y45708D01*
X26772Y46751D01*
X26562Y47811D01*
X26421Y48882D01*
X26350Y49960D01*
X26350Y51040D01*
X46510Y329460D02*
X46439Y328381D01*
X46298Y327309D01*
X46087Y326249D01*
X45808Y325205D01*
X45460Y324181D01*
X45046Y323183D01*
X44568Y322213D01*
X44028Y321277D01*
X43427Y320378D01*
X42769Y319521D01*
X42057Y318708D01*
X41292Y317944D01*
X40479Y317231D01*
X39622Y316573D01*
X38723Y315972D01*
X37787Y315432D01*
X36817Y314954D01*
X35819Y314540D01*
X34795Y314192D01*
X33751Y313913D01*
X32691Y313702D01*
X31619Y313561D01*
X30540Y313490D01*
X29460Y313490D01*
X28381Y313561D01*
X27309Y313702D01*
X26249Y313913D01*
X25205Y314192D01*
X24181Y314540D01*
X23183Y314954D01*
X22213Y315432D01*
X21277Y315972D01*
X20378Y316573D01*
X19521Y317231D01*
X18708Y317944D01*
X17944Y318708D01*
X17231Y319521D01*
X16573Y320378D01*
X15972Y321277D01*
X15432Y322213D01*
X14954Y323183D01*
X14540Y324181D01*
X14192Y325205D01*
X13913Y326249D01*
X13702Y327309D01*
X13561Y328381D01*
X13490Y329460D01*
X13490Y330540D01*
X13561Y331619D01*
X13702Y332691D01*
X13913Y333751D01*
X14192Y334795D01*
X14540Y335819D01*
X14954Y336817D01*
X15432Y337787D01*
X15972Y338723D01*
X16573Y339622D01*
X17231Y340479D01*
X17944Y341292D01*
X18708Y342057D01*
X19521Y342769D01*
X20378Y343427D01*
X21277Y344028D01*
X22213Y344568D01*
X23183Y345046D01*
X24181Y345460D01*
X25205Y345808D01*
X26249Y346087D01*
X27309Y346298D01*
X28381Y346439D01*
X29460Y346510D01*
X30540Y346510D01*
X31619Y346439D01*
X32691Y346298D01*
X33751Y346087D01*
X34795Y345808D01*
X35819Y345460D01*
X36817Y345046D01*
X37787Y344568D01*
X38723Y344028D01*
X39622Y343427D01*
X40479Y342769D01*
X41292Y342057D01*
X42057Y341292D01*
X42769Y340479D01*
X43427Y339622D01*
X44028Y338723D01*
X44568Y337787D01*
X45046Y336817D01*
X45460Y335819D01*
X45808Y334795D01*
X46087Y333751D01*
X46298Y332691D01*
X46439Y331619D01*
X46510Y330540D01*
X46510Y329460D01*
X166510Y329460D02*
X166439Y328381D01*
X166298Y327309D01*
X166087Y326249D01*
X165808Y325205D01*
X165460Y324181D01*
X165046Y323183D01*
X164568Y322213D01*
X164028Y321277D01*
X163427Y320378D01*
X162769Y319521D01*
X162057Y318708D01*
X161292Y317944D01*
X160479Y317231D01*
X159622Y316573D01*
X158723Y315972D01*
X157787Y315432D01*
X156817Y314954D01*
X155819Y314540D01*
X154795Y314192D01*
X153751Y313913D01*
X152691Y313702D01*
X151619Y313561D01*
X150540Y313490D01*
X149460Y313490D01*
X148381Y313561D01*
X147309Y313702D01*
X146249Y313913D01*
X145205Y314192D01*
X144181Y314540D01*
X143183Y314954D01*
X142213Y315432D01*
X141277Y315972D01*
X140378Y316573D01*
X139521Y317231D01*
X138708Y317944D01*
X137944Y318708D01*
X137231Y319521D01*
X136573Y320378D01*
X135972Y321277D01*
X135432Y322213D01*
X134954Y323183D01*
X134540Y324181D01*
X134192Y325205D01*
X133913Y326249D01*
X133702Y327309D01*
X133561Y328381D01*
X133490Y329460D01*
X133490Y330540D01*
X133561Y331619D01*
X133702Y332691D01*
X133913Y333751D01*
X134192Y334795D01*
X134540Y335819D01*
X134954Y336817D01*
X135432Y337787D01*
X135972Y338723D01*
X136573Y339622D01*
X137231Y340479D01*
X137944Y341292D01*
X138708Y342057D01*
X139521Y342769D01*
X140378Y343427D01*
X141277Y344028D01*
X142213Y344568D01*
X143183Y345046D01*
X144181Y345460D01*
X145205Y345808D01*
X146249Y346087D01*
X147309Y346298D01*
X148381Y346439D01*
X149460Y346510D01*
X150540Y346510D01*
X151619Y346439D01*
X152691Y346298D01*
X153751Y346087D01*
X154795Y345808D01*
X155819Y345460D01*
X156817Y345046D01*
X157787Y344568D01*
X158723Y344028D01*
X159622Y343427D01*
X160479Y342769D01*
X161292Y342057D01*
X162057Y341292D01*
X162769Y340479D01*
X163427Y339622D01*
X164028Y338723D01*
X164568Y337787D01*
X165046Y336817D01*
X165460Y335819D01*
X165808Y334795D01*
X166087Y333751D01*
X166298Y332691D01*
X166439Y331619D01*
X166510Y330540D01*
X166510Y329460D01*
X46510Y219460D02*
X46439Y218381D01*
X46298Y217309D01*
X46087Y216249D01*
X45808Y215205D01*
X45460Y214181D01*
X45046Y213183D01*
X44568Y212213D01*
X44028Y211277D01*
X43427Y210378D01*
X42769Y209521D01*
X42057Y208708D01*
X41292Y207944D01*
X40479Y207231D01*
X39622Y206573D01*
X38723Y205972D01*
X37787Y205432D01*
X36817Y204954D01*
X35819Y204540D01*
X34795Y204192D01*
X33751Y203913D01*
X32691Y203702D01*
X31619Y203561D01*
X30540Y203490D01*
X29460Y203490D01*
X28381Y203561D01*
X27309Y203702D01*
X26249Y203913D01*
X25205Y204192D01*
X24181Y204540D01*
X23183Y204954D01*
X22213Y205432D01*
X21277Y205972D01*
X20378Y206573D01*
X19521Y207231D01*
X18708Y207944D01*
X17944Y208708D01*
X17231Y209521D01*
X16573Y210378D01*
X15972Y211277D01*
X15432Y212213D01*
X14954Y213183D01*
X14540Y214181D01*
X14192Y215205D01*
X13913Y216249D01*
X13702Y217309D01*
X13561Y218381D01*
X13490Y219460D01*
X13490Y220540D01*
X13561Y221619D01*
X13702Y222691D01*
X13913Y223751D01*
X14192Y224795D01*
X14540Y225819D01*
X14954Y226817D01*
X15432Y227787D01*
X15972Y228723D01*
X16573Y229622D01*
X17231Y230479D01*
X17944Y231292D01*
X18708Y232057D01*
X19521Y232769D01*
X20378Y233427D01*
X21277Y234028D01*
X22213Y234568D01*
X23183Y235046D01*
X24181Y235460D01*
X25205Y235808D01*
X26249Y236087D01*
X27309Y236298D01*
X28381Y236439D01*
X29460Y236510D01*
X30540Y236510D01*
X31619Y236439D01*
X32691Y236298D01*
X33751Y236087D01*
X34795Y235808D01*
X35819Y235460D01*
X36817Y235046D01*
X37787Y234568D01*
X38723Y234028D01*
X39622Y233427D01*
X40479Y232769D01*
X41292Y232057D01*
X42057Y231292D01*
X42769Y230479D01*
X43427Y229622D01*
X44028Y228723D01*
X44568Y227787D01*
X45046Y226817D01*
X45460Y225819D01*
X45808Y224795D01*
X46087Y223751D01*
X46298Y222691D01*
X46439Y221619D01*
X46510Y220540D01*
X46510Y219460D01*
X166510Y219460D02*
X166439Y218381D01*
X166298Y217309D01*
X166087Y216249D01*
X165808Y215205D01*
X165460Y214181D01*
X165046Y213183D01*
X164568Y212213D01*
X164028Y211277D01*
X163427Y210378D01*
X162769Y209521D01*
X162057Y208708D01*
X161292Y207944D01*
X160479Y207231D01*
X159622Y206573D01*
X158723Y205972D01*
X157787Y205432D01*
X156817Y204954D01*
X155819Y204540D01*
X154795Y204192D01*
X153751Y203913D01*
X152691Y203702D01*
X151619Y203561D01*
X150540Y203490D01*
X149460Y203490D01*
X148381Y203561D01*
X147309Y203702D01*
X146249Y203913D01*
X145205Y204192D01*
X144181Y204540D01*
X143183Y204954D01*
X142213Y205432D01*
X141277Y205972D01*
X140378Y206573D01*
X139521Y207231D01*
X138708Y207944D01*
X137944Y208708D01*
X137231Y209521D01*
X136573Y210378D01*
X135972Y211277D01*
X135432Y212213D01*
X134954Y213183D01*
X134540Y214181D01*
X134192Y215205D01*
X133913Y216249D01*
X133702Y217309D01*
X133561Y218381D01*
X133490Y219460D01*
X133490Y220540D01*
X133561Y221619D01*
X133702Y222691D01*
X133913Y223751D01*
X134192Y224795D01*
X134540Y225819D01*
X134954Y226817D01*
X135432Y227787D01*
X135972Y228723D01*
X136573Y229622D01*
X137231Y230479D01*
X137944Y231292D01*
X138708Y232057D01*
X139521Y232769D01*
X140378Y233427D01*
X141277Y234028D01*
X142213Y234568D01*
X143183Y235046D01*
X144181Y235460D01*
X145205Y235808D01*
X146249Y236087D01*
X147309Y236298D01*
X148381Y236439D01*
X149460Y236510D01*
X150540Y236510D01*
X151619Y236439D01*
X152691Y236298D01*
X153751Y236087D01*
X154795Y235808D01*
X155819Y235460D01*
X156817Y235046D01*
X157787Y234568D01*
X158723Y234028D01*
X159622Y233427D01*
X160479Y232769D01*
X161292Y232057D01*
X162057Y231292D01*
X162769Y230479D01*
X163427Y229622D01*
X164028Y228723D01*
X164568Y227787D01*
X165046Y226817D01*
X165460Y225819D01*
X165808Y224795D01*
X166087Y223751D01*
X166298Y222691D01*
X166439Y221619D01*
X166510Y220540D01*
X166510Y219460D01*
M02*
