M48
;GenerationSoftware,Autodesk,EAGLE,9.3.0*%
;CreationDate,2020-04-22T16:24:16Z*%
FMAT,2
ICI,OFF
METRIC,TZ,000.000
T4C0.300
T3C1.016
T2C3.300
T1C3.302
%
G90
M71
T1
X3000Y97000
X97000Y97000
X3000Y3000
X97000Y3000
T2
X91950Y11285
X8050Y77285
X8050Y88715
X8050Y55285
X8050Y66715
X8050Y33285
X8050Y44715
X8050Y11285
X8050Y22715
X91950Y22715
X91950Y44715
X91950Y33285
X91950Y66715
X91950Y55285
X91950Y88715
X91950Y77285
T3
X17730Y95270
X77190Y70730
X41100Y2000
X43640Y2000
X46180Y2000
X48720Y2000
X51260Y2000
X53800Y2000
X56340Y2000
X58880Y2000
X15190Y92730
X15190Y95270
X17730Y92730
X20270Y92730
X20270Y95270
X22810Y92730
X22810Y95270
X15190Y70730
X15190Y73270
X17730Y70730
X17730Y73270
X20270Y70730
X20270Y73270
X22810Y70730
X22810Y73270
X15190Y48730
X15190Y51270
X17730Y48730
X17730Y51270
X20270Y48730
X20270Y51270
X22810Y48730
X22810Y51270
X15190Y26730
X15190Y29270
X17730Y26730
X17730Y29270
X20270Y26730
X20270Y29270
X22810Y26730
X22810Y29270
X84810Y7270
X84810Y4730
X82270Y7270
X82270Y4730
X79730Y7270
X79730Y4730
X77190Y7270
X77190Y4730
X84810Y29270
X84810Y26730
X82270Y29270
X82270Y26730
X79730Y29270
X79730Y26730
X77190Y29270
X77190Y26730
X84810Y51270
X84810Y48730
X82270Y51270
X82270Y48730
X79730Y51270
X79730Y48730
X77190Y51270
X77190Y48730
X84810Y73270
X84810Y70730
X82270Y73270
X82270Y70730
X79730Y73270
X79730Y70730
X77190Y73270
T4
X17300Y84300
X17300Y62300
X17300Y40300
X17300Y18300
X17300Y14500
X83000Y15600
X82700Y37700
X82700Y59800
X82700Y63500
X82700Y81700
X82700Y85600
X58000Y84000
X26300Y79100
X26300Y81800
X66000Y56800
X73200Y56800
X62000Y44700
X62000Y43200
X67000Y42000
X68000Y39000
X63300Y32400
X61200Y23800
X61200Y22200
X63300Y19500
X36800Y19700
X40600Y14700
X44400Y13000
X44900Y3000
X47400Y3000
X50000Y3000
X52500Y3000
X55000Y3000
X48300Y61300
X39000Y52000
X39000Y56500
X46800Y39500
X51100Y51700
X46500Y70000
X47700Y65400
X60250Y69925
X28000Y34000
X26200Y41000
X23000Y13000
X21700Y14460
X21700Y18270
X21700Y36460
X21700Y40270
X21700Y37730
X21700Y39000
X21700Y58460
X21700Y62270
X21700Y84270
X21700Y80460
X78300Y15730
X78300Y19550
X78300Y20800
X78300Y42800
X78300Y64800
X78300Y86800
X78300Y37730
X77800Y59730
X78300Y81730
X78300Y63540
X80500Y44400
X80500Y22400
X80500Y66400
X78500Y89700
X22000Y35000
X22000Y57000
X22000Y79000
X43300Y27000
X66600Y17400
X26200Y60000
X49600Y12300
X47600Y6600
X44700Y6500
X59300Y23800
X59300Y22200
X59300Y30700
X60600Y31400
X78300Y41550
X29300Y63900
X32000Y17500
X30000Y17500
X30000Y16000
X32000Y16000
X46000Y15000
X68000Y16000
X74000Y24000
X67000Y15000
X67000Y13000
X65000Y24000
X65000Y22000
X50000Y80000
X47000Y81500
X44200Y81800
X32000Y79500
X26300Y76800
X22000Y76800
X26200Y66500
X29300Y65900
X30000Y61600
X27500Y47000
X31000Y42000
X32000Y39600
X32000Y37000
X32000Y34900
X32000Y33000
X30000Y20000
X32000Y20000
X31000Y13000
X37500Y15900
X74000Y16000
X72000Y22100
X71000Y25000
X71300Y35400
X71600Y36800
X69000Y37000
X69000Y35200
X64800Y37600
X69000Y45000
X73500Y45000
X71000Y59000
X74000Y59000
X69300Y55700
X66800Y68600
X66800Y69900
X69200Y74000
X70700Y74000
X78000Y75000
X72200Y83500
X72200Y81500
X71200Y91000
X69200Y87000
X68200Y82400
X68200Y80400
X60300Y80000
X55800Y80000
X57300Y80000
X58800Y80000
X54200Y80000
X44300Y69300
X32800Y69400
X26200Y63000
X26200Y56800
X29000Y54000
X30400Y52600
X35400Y55600
X35400Y47600
X38600Y44100
X37000Y46000
X22200Y16400
X44000Y56800
X37000Y33000
X69000Y24000
X44700Y30700
X40700Y27900
X48000Y26000
X52000Y30500
X58000Y15000
X58000Y13000
X58000Y18000
X34000Y9500
X73000Y64000
X71000Y64000
X73300Y68500
X75000Y73000
X72500Y72500
X16000Y75000
X15000Y68000
X14500Y62000
X14500Y58000
X17400Y58460
X14200Y54200
X14200Y52800
X14500Y36000
X14500Y33800
X14500Y31000
X15000Y25000
X15000Y21000
X15000Y15500
X24200Y20000
X23500Y33000
X26200Y33000
X23800Y54200
X27700Y43300
X15000Y47000
X14200Y76700
X24000Y90000
X21000Y90000
X24000Y87000
X32600Y91000
X31000Y90000
X31000Y87000
X35000Y81500
X78300Y85540
X85000Y32500
X83000Y34500
X85800Y23300
X85800Y24700
X75000Y13000
X83000Y12500
X48000Y45000
X15000Y10000
X10000Y17000
X10000Y39000
X10000Y61000
X10000Y83000
X90000Y83000
X90000Y61000
X91000Y39000
X90000Y17000
X39000Y51000
X28600Y79825
X39000Y49000
X27200Y81095
X13400Y16365
X13400Y82365
X13400Y60365
X13400Y38365
X48200Y37275
X86600Y17635
X86600Y39635
X86600Y61635
X86600Y83635
X52000Y56000
X52000Y51000
X26600Y38365
X35220Y10500
X59500Y64675
X59500Y84905
X12200Y42175
X12200Y20175
X12200Y64175
X15200Y86175
X87800Y79825
X87800Y35825
X87800Y57825
X53800Y12485
X83000Y13825
X39000Y47000
X28175Y57825
X15500Y57825
X39000Y45000
X26700Y59095
X16500Y59095
X58000Y65325
X22800Y62905
X39000Y35825
X26600Y35825
X15500Y35825
X39000Y34000
X29900Y34000
X16500Y37095
X56500Y66000
X23800Y40905
X40000Y30100
X40000Y32725
X16500Y13825
X22500Y15095
X55000Y66625
X25000Y18905
X60000Y20175
X77500Y20175
X62500Y21300
X74200Y21300
X70000Y25500
X39300Y57500
X62500Y39800
X66100Y39800
X61100Y40905
X68800Y40905
X40500Y59000
X66100Y43945
X62900Y61800
X74800Y61800
X62100Y62905
X77500Y62905
X41700Y60365
X67480Y60365
X62700Y66200
X74200Y86175
X61400Y66200
X72900Y84905
X83595Y84905
X40000Y10500
X48720Y9900
X76600Y38500
X75600Y45000
X75500Y60365
X83500Y78500
X83500Y82365
X23500Y17400
X72500Y39450
X72500Y25500
X72500Y59000
X70000Y64000
X70000Y70300
X31000Y16685
X31000Y32500
X51260Y12540
X71800Y16685
X53300Y43945
X50000Y23000
X44200Y8000
X47700Y8000
X39700Y8000
X77500Y23000
X89000Y21445
X89000Y43445
X89000Y29270
X47700Y13000
X47700Y17500
X44000Y18900
X48200Y31400
X50500Y40500
X44200Y61000
X47800Y63400
X22000Y86000
X22000Y65400
X22000Y43400
X22000Y21400
X78000Y12500
X78000Y34500
X78000Y56500
X78000Y78500
X55820Y66625
X57250Y66625
X58750Y66625
X60250Y66625
X54300Y40500
X48300Y56800
X54900Y38000
X37000Y54000
X54000Y36600
X56300Y36000
X57700Y35400
X62050Y65625
X59000Y34700
X60400Y34100
X61800Y33400
X64250Y67225
X51800Y36600
X65550Y67925
X45100Y64700
X52300Y63400
X46000Y37300
X44800Y36600
X43500Y36000
X42300Y35300
X44700Y32100
X50625Y37300
X19000Y11600
X41500Y65300
X40300Y66000
X39000Y66600
X37600Y67200
X63000Y64000
X35900Y67900
X34200Y68800
X38600Y31500
X38100Y18900
X21700Y60400
X21700Y82400
X48800Y36600
X39500Y35000
X40800Y36000
X40800Y39000
X38600Y39000
X37200Y39000
X37200Y37700
X38600Y37700
X34700Y42000
X28000Y37600
X35000Y59000
X37000Y59000
X48000Y53600
X54000Y52600
X56100Y54700
X55000Y61400
X62000Y56800
X62000Y58200
X62000Y59700
X66000Y58300
X67000Y63600
X77800Y61700
X78300Y39600
X78300Y17600
X54300Y70000
X72600Y70000
X74000Y70000
X60400Y85500
X78300Y83700
X71065Y37550
M30