G04 EAGLE Gerber RS-274X export*
G75*
%MOMM*%
%FSLAX34Y34*%
%LPD*%
%INSilkscreen Top*%
%IPPOS*%
%AMOC8*
5,1,8,0,0,1.08239X$1,22.5*%
G01*
%ADD10C,0.152400*%
%ADD11C,0.076200*%
%ADD12C,1.000000*%
%ADD13C,0.127000*%


D10*
X124000Y267000D02*
X124000Y273000D01*
X136000Y273000D02*
X136000Y267000D01*
D11*
X125992Y298447D02*
X127220Y299676D01*
X125992Y298447D02*
X125992Y295990D01*
X127220Y294761D01*
X132135Y294761D01*
X133364Y295990D01*
X133364Y298447D01*
X132135Y299676D01*
X128449Y302245D02*
X125992Y304703D01*
X133364Y304703D01*
X133364Y307160D02*
X133364Y302245D01*
D10*
X197000Y186000D02*
X203000Y186000D01*
X203000Y174000D02*
X197000Y174000D01*
D11*
X197676Y194780D02*
X196447Y196008D01*
X193990Y196008D01*
X192761Y194780D01*
X192761Y189865D01*
X193990Y188636D01*
X196447Y188636D01*
X197676Y189865D01*
X200245Y188636D02*
X205160Y188636D01*
X200245Y188636D02*
X205160Y193551D01*
X205160Y194780D01*
X203931Y196008D01*
X201474Y196008D01*
X200245Y194780D01*
D10*
X173000Y186000D02*
X167000Y186000D01*
X167000Y174000D02*
X173000Y174000D01*
D11*
X162761Y188636D02*
X162761Y196008D01*
X167676Y196008D01*
X165218Y192322D02*
X162761Y192322D01*
X170245Y188636D02*
X170245Y196008D01*
X173931Y196008D01*
X175160Y194780D01*
X175160Y193551D01*
X173931Y192322D01*
X175160Y191093D01*
X175160Y189865D01*
X173931Y188636D01*
X170245Y188636D01*
X170245Y192322D02*
X173931Y192322D01*
X177729Y193551D02*
X180187Y196008D01*
X180187Y188636D01*
X182644Y188636D02*
X177729Y188636D01*
D10*
X184000Y271000D02*
X190000Y271000D01*
X190000Y259000D02*
X184000Y259000D01*
D11*
X203761Y266636D02*
X203761Y274008D01*
X207447Y274008D01*
X208676Y272780D01*
X208676Y270322D01*
X207447Y269093D01*
X203761Y269093D01*
X206218Y269093D02*
X208676Y266636D01*
X211245Y271551D02*
X213703Y274008D01*
X213703Y266636D01*
X216160Y266636D02*
X211245Y266636D01*
D10*
X190000Y291000D02*
X184000Y291000D01*
X184000Y279000D02*
X190000Y279000D01*
D11*
X202761Y288636D02*
X202761Y296008D01*
X206447Y296008D01*
X207676Y294780D01*
X207676Y292322D01*
X206447Y291093D01*
X202761Y291093D01*
X205218Y291093D02*
X207676Y288636D01*
X210245Y288636D02*
X215160Y288636D01*
X210245Y288636D02*
X215160Y293551D01*
X215160Y294780D01*
X213931Y296008D01*
X211474Y296008D01*
X210245Y294780D01*
D12*
X81400Y270500D03*
X114000Y246000D03*
D11*
X105413Y238625D02*
X105413Y232482D01*
X106641Y231253D01*
X109099Y231253D01*
X110328Y232482D01*
X110328Y238625D01*
X112897Y236168D02*
X115354Y238625D01*
X115354Y231253D01*
X112897Y231253D02*
X117812Y231253D01*
D13*
X178700Y150000D02*
X178700Y-30800D01*
X178700Y150000D02*
X21300Y150000D01*
X21300Y-30800D01*
X178700Y-30800D01*
D11*
X158296Y155381D02*
X153381Y162753D01*
X158296Y162753D02*
X153381Y155381D01*
X160865Y160296D02*
X163323Y162753D01*
X163323Y155381D01*
X165780Y155381D02*
X160865Y155381D01*
D10*
X194600Y144450D02*
X200950Y150800D01*
X194600Y131750D02*
X200950Y125400D01*
X194600Y119050D01*
X194600Y106350D02*
X200950Y100000D01*
X194600Y93650D01*
X194600Y80950D02*
X200950Y74600D01*
X194600Y68250D01*
X194600Y55550D02*
X200950Y49200D01*
X200950Y150800D02*
X239050Y150800D01*
X245400Y144450D01*
X245400Y131750D01*
X239050Y125400D01*
X245400Y119050D01*
X245400Y106350D01*
X239050Y100000D01*
X245400Y93650D01*
X245400Y80950D01*
X239050Y74600D01*
X245400Y68250D01*
X245400Y55550D01*
X239050Y49200D01*
X200950Y49200D01*
X194600Y55550D02*
X194600Y68250D01*
X194600Y80950D02*
X194600Y93650D01*
X194600Y106350D02*
X194600Y119050D01*
X194600Y131750D02*
X194600Y144450D01*
D11*
X207496Y155131D02*
X202581Y162503D01*
X207496Y162503D02*
X202581Y155131D01*
X210065Y155131D02*
X214980Y155131D01*
X210065Y155131D02*
X214980Y160046D01*
X214980Y161275D01*
X213751Y162503D01*
X211294Y162503D01*
X210065Y161275D01*
M02*
