G04 EAGLE Gerber RS-274X export*
G75*
%MOMM*%
%FSLAX34Y34*%
%LPD*%
%INSilkscreen Top*%
%IPPOS*%
%AMOC8*
5,1,8,0,0,1.08239X$1,22.5*%
G01*
%ADD10C,0.076200*%
%ADD11C,0.050800*%
%ADD12C,0.152400*%
%ADD13C,0.127000*%


D10*
X185975Y130381D02*
X184747Y131610D01*
X184747Y134067D01*
X185975Y135296D01*
X187204Y135296D01*
X188433Y134067D01*
X188433Y132838D01*
X188433Y134067D02*
X189662Y135296D01*
X190890Y135296D01*
X192119Y134067D01*
X192119Y131610D01*
X190890Y130381D01*
X187204Y137865D02*
X192119Y140323D01*
X187204Y142780D01*
X185975Y145349D02*
X184747Y146578D01*
X184747Y149035D01*
X185975Y150264D01*
X187204Y150264D01*
X188433Y149035D01*
X188433Y147807D01*
X188433Y149035D02*
X189662Y150264D01*
X190890Y150264D01*
X192119Y149035D01*
X192119Y146578D01*
X190890Y145349D01*
X185975Y107796D02*
X184747Y106567D01*
X184747Y104110D01*
X185975Y102881D01*
X187204Y102881D01*
X188433Y104110D01*
X188433Y106567D01*
X189662Y107796D01*
X190890Y107796D01*
X192119Y106567D01*
X192119Y104110D01*
X190890Y102881D01*
X184747Y114051D02*
X185975Y115280D01*
X184747Y114051D02*
X184747Y111594D01*
X185975Y110365D01*
X190890Y110365D01*
X192119Y111594D01*
X192119Y114051D01*
X190890Y115280D01*
X192119Y117849D02*
X184747Y117849D01*
X192119Y117849D02*
X192119Y122764D01*
D11*
X228711Y159751D02*
X229643Y158819D01*
X228711Y159751D02*
X226847Y159751D01*
X225915Y158819D01*
X225915Y157887D01*
X226847Y156954D01*
X228711Y156954D01*
X229643Y156022D01*
X229643Y155090D01*
X228711Y154158D01*
X226847Y154158D01*
X225915Y155090D01*
X231528Y154158D02*
X231528Y159751D01*
X231528Y154158D02*
X234324Y154158D01*
X235256Y155090D01*
X235256Y158819D01*
X234324Y159751D01*
X231528Y159751D01*
X237141Y157887D02*
X237141Y154158D01*
X237141Y157887D02*
X239005Y159751D01*
X240869Y157887D01*
X240869Y154158D01*
X240869Y156954D02*
X237141Y156954D01*
X228711Y47251D02*
X229643Y46319D01*
X228711Y47251D02*
X226847Y47251D01*
X225915Y46319D01*
X225915Y42590D01*
X226847Y41658D01*
X228711Y41658D01*
X229643Y42590D01*
X229643Y44454D01*
X227779Y44454D01*
X231528Y41658D02*
X231528Y47251D01*
X235256Y41658D01*
X235256Y47251D01*
X237141Y47251D02*
X237141Y41658D01*
X239937Y41658D01*
X240869Y42590D01*
X240869Y46319D01*
X239937Y47251D01*
X237141Y47251D01*
D12*
X38500Y279500D02*
X38500Y285500D01*
X26500Y285500D02*
X26500Y279500D01*
D10*
X30719Y262870D02*
X31948Y261642D01*
X30719Y262870D02*
X28261Y262870D01*
X27033Y261642D01*
X27033Y256727D01*
X28261Y255498D01*
X30719Y255498D01*
X31948Y256727D01*
X34517Y260413D02*
X36974Y262870D01*
X36974Y255498D01*
X34517Y255498D02*
X39432Y255498D01*
D12*
X204500Y178500D02*
X210500Y178500D01*
X210500Y166500D02*
X204500Y166500D01*
D10*
X207676Y189780D02*
X206447Y191008D01*
X203990Y191008D01*
X202761Y189780D01*
X202761Y184865D01*
X203990Y183636D01*
X206447Y183636D01*
X207676Y184865D01*
X210245Y183636D02*
X215160Y183636D01*
X210245Y183636D02*
X215160Y188551D01*
X215160Y189780D01*
X213931Y191008D01*
X211474Y191008D01*
X210245Y189780D01*
D12*
X173000Y178500D02*
X167000Y178500D01*
X167000Y166500D02*
X173000Y166500D01*
D10*
X160261Y183636D02*
X160261Y191008D01*
X165176Y191008D01*
X162718Y187322D02*
X160261Y187322D01*
X167745Y183636D02*
X167745Y191008D01*
X171431Y191008D01*
X172660Y189780D01*
X172660Y188551D01*
X171431Y187322D01*
X172660Y186093D01*
X172660Y184865D01*
X171431Y183636D01*
X167745Y183636D01*
X167745Y187322D02*
X171431Y187322D01*
X175229Y188551D02*
X177687Y191008D01*
X177687Y183636D01*
X180144Y183636D02*
X175229Y183636D01*
D12*
X184000Y273500D02*
X190000Y273500D01*
X190000Y261500D02*
X184000Y261500D01*
D10*
X203492Y261261D02*
X210864Y261261D01*
X203492Y261261D02*
X203492Y264947D01*
X204720Y266176D01*
X207178Y266176D01*
X208407Y264947D01*
X208407Y261261D01*
X208407Y263718D02*
X210864Y266176D01*
X205949Y268745D02*
X203492Y271203D01*
X210864Y271203D01*
X210864Y273660D02*
X210864Y268745D01*
D12*
X190000Y296000D02*
X184000Y296000D01*
X184000Y284000D02*
X190000Y284000D01*
D10*
X203992Y285261D02*
X211364Y285261D01*
X203992Y285261D02*
X203992Y288947D01*
X205220Y290176D01*
X207678Y290176D01*
X208907Y288947D01*
X208907Y285261D01*
X208907Y287718D02*
X211364Y290176D01*
X211364Y292745D02*
X211364Y297660D01*
X211364Y292745D02*
X206449Y297660D01*
X205220Y297660D01*
X203992Y296431D01*
X203992Y293974D01*
X205220Y292745D01*
D13*
X178700Y150000D02*
X178700Y-30800D01*
X178700Y150000D02*
X21300Y150000D01*
X21300Y-30800D01*
X178700Y-30800D01*
D10*
X30796Y155381D02*
X25881Y162753D01*
X30796Y162753D02*
X25881Y155381D01*
X33365Y160296D02*
X35823Y162753D01*
X35823Y155381D01*
X38280Y155381D02*
X33365Y155381D01*
D12*
X194600Y144450D02*
X200950Y150800D01*
X194600Y131750D02*
X200950Y125400D01*
X194600Y119050D01*
X194600Y106350D02*
X200950Y100000D01*
X194600Y93650D01*
X194600Y80950D02*
X200950Y74600D01*
X194600Y68250D01*
X194600Y55550D02*
X200950Y49200D01*
X200950Y150800D02*
X239050Y150800D01*
X245400Y144450D01*
X245400Y131750D01*
X239050Y125400D01*
X245400Y119050D01*
X245400Y106350D01*
X239050Y100000D01*
X245400Y93650D01*
X245400Y80950D01*
X239050Y74600D01*
X245400Y68250D01*
X245400Y55550D01*
X239050Y49200D01*
X200950Y49200D01*
X194600Y55550D02*
X194600Y68250D01*
X194600Y80950D02*
X194600Y93650D01*
X194600Y106350D02*
X194600Y119050D01*
X194600Y131750D02*
X194600Y144450D01*
D10*
X207581Y45003D02*
X212496Y37631D01*
X207581Y37631D02*
X212496Y45003D01*
X215065Y37631D02*
X219980Y37631D01*
X215065Y37631D02*
X219980Y42546D01*
X219980Y43775D01*
X218751Y45003D01*
X216294Y45003D01*
X215065Y43775D01*
D13*
X70000Y260000D02*
X70000Y300000D01*
X70000Y260000D02*
X110000Y260000D01*
X110000Y280000D01*
X110000Y300000D01*
X90000Y300000D01*
X70000Y300000D01*
X110000Y280000D02*
X113500Y280000D01*
X113500Y303500D01*
X90000Y303500D01*
X90000Y300000D01*
D10*
X116381Y300253D02*
X116381Y294110D01*
X117610Y292881D01*
X120067Y292881D01*
X121296Y294110D01*
X121296Y300253D01*
X123865Y297796D02*
X126323Y300253D01*
X126323Y292881D01*
X128780Y292881D02*
X123865Y292881D01*
M02*
