G04 EAGLE Gerber RS-274X export*
G75*
%MOMM*%
%FSLAX34Y34*%
%LPD*%
%INSilkscreen Bottom*%
%IPPOS*%
%AMOC8*
5,1,8,0,0,1.08239X$1,22.5*%
G01*
%ADD10C,0.152400*%


D10*
X119102Y43685D02*
X135372Y43685D01*
X135372Y38262D02*
X135372Y49109D01*
X135372Y54634D02*
X135372Y65480D01*
X135372Y54634D02*
X119102Y54634D01*
X119102Y65480D01*
X127237Y60057D02*
X127237Y54634D01*
X119102Y87377D02*
X135372Y87377D01*
X129949Y92800D01*
X135372Y98223D01*
X119102Y98223D01*
X135372Y111883D02*
X132660Y114595D01*
X135372Y111883D02*
X135372Y106460D01*
X132660Y103748D01*
X129949Y103748D01*
X127237Y106460D01*
X127237Y111883D01*
X124525Y114595D01*
X121814Y114595D01*
X119102Y111883D01*
X119102Y106460D01*
X121814Y103748D01*
X135372Y120120D02*
X135372Y130966D01*
X135372Y120120D02*
X127237Y120120D01*
X129949Y125543D01*
X129949Y128255D01*
X127237Y130966D01*
X121814Y130966D01*
X119102Y128255D01*
X119102Y122831D01*
X121814Y120120D01*
X132660Y136491D02*
X135372Y139203D01*
X135372Y144626D01*
X132660Y147338D01*
X129949Y147338D01*
X127237Y144626D01*
X124525Y147338D01*
X121814Y147338D01*
X119102Y144626D01*
X119102Y139203D01*
X121814Y136491D01*
X124525Y136491D01*
X127237Y139203D01*
X129949Y136491D01*
X132660Y136491D01*
X127237Y139203D02*
X127237Y144626D01*
X132660Y152863D02*
X135372Y155575D01*
X135372Y160998D01*
X132660Y163710D01*
X129949Y163710D01*
X127237Y160998D01*
X127237Y158286D01*
X127237Y160998D02*
X124525Y163710D01*
X121814Y163710D01*
X119102Y160998D01*
X119102Y155575D01*
X121814Y152863D01*
X135372Y169235D02*
X135372Y180081D01*
X132660Y180081D01*
X121814Y169235D01*
X119102Y169235D01*
X108702Y38262D02*
X92432Y38262D01*
X92432Y46397D01*
X95144Y49109D01*
X100567Y49109D01*
X103279Y46397D01*
X103279Y38262D01*
X92432Y57345D02*
X92432Y62769D01*
X95144Y65480D01*
X100567Y65480D01*
X103279Y62769D01*
X103279Y57345D01*
X100567Y54634D01*
X95144Y54634D01*
X92432Y57345D01*
X103279Y73717D02*
X103279Y79140D01*
X100567Y81852D01*
X92432Y81852D01*
X92432Y73717D01*
X95144Y71005D01*
X97855Y73717D01*
X97855Y81852D01*
X92432Y87377D02*
X103279Y87377D01*
X103279Y92800D02*
X97855Y87377D01*
X103279Y92800D02*
X103279Y95512D01*
X108702Y111866D02*
X92432Y111866D01*
X92432Y103731D01*
X95144Y101020D01*
X100567Y101020D01*
X103279Y103731D01*
X103279Y111866D01*
X82032Y38262D02*
X65762Y38262D01*
X82032Y38262D02*
X82032Y46397D01*
X79320Y49109D01*
X73897Y49109D01*
X71185Y46397D01*
X71185Y38262D01*
X71185Y43685D02*
X65762Y49109D01*
X65762Y57345D02*
X65762Y62769D01*
X65762Y57345D02*
X68474Y54634D01*
X73897Y54634D01*
X76609Y57345D01*
X76609Y62769D01*
X73897Y65480D01*
X71185Y65480D01*
X71185Y54634D01*
X76609Y71005D02*
X65762Y76428D01*
X76609Y81852D01*
X68474Y87377D02*
X65762Y87377D01*
X68474Y87377D02*
X68474Y90088D01*
X65762Y90088D01*
X65762Y87377D01*
X82032Y120069D02*
X79320Y122781D01*
X82032Y120069D02*
X82032Y114646D01*
X79320Y111934D01*
X68474Y111934D01*
X65762Y114646D01*
X65762Y120069D01*
X68474Y122781D01*
M02*
