G04 EAGLE Gerber RS-274X export*
G75*
%MOMM*%
%FSLAX34Y34*%
%LPD*%
%INBottom Copper*%
%IPPOS*%
%AMOC8*
5,1,8,0,0,1.08239X$1,22.5*%
G01*
%ADD10R,1.524000X1.524000*%
%ADD11P,1.649562X8X292.500000*%
%ADD12P,0.654629X8X22.500000*%
%ADD13C,0.203200*%

G36*
X256502Y2549D02*
X256502Y2549D01*
X256560Y2547D01*
X256642Y2569D01*
X256726Y2581D01*
X256779Y2604D01*
X256835Y2619D01*
X256908Y2662D01*
X256985Y2697D01*
X257030Y2735D01*
X257080Y2764D01*
X257138Y2826D01*
X257202Y2880D01*
X257234Y2929D01*
X257274Y2972D01*
X257313Y3047D01*
X257360Y3117D01*
X257377Y3173D01*
X257404Y3225D01*
X257415Y3293D01*
X257445Y3388D01*
X257448Y3488D01*
X257459Y3556D01*
X257459Y366444D01*
X257451Y366502D01*
X257453Y366560D01*
X257431Y366642D01*
X257419Y366726D01*
X257396Y366779D01*
X257381Y366835D01*
X257338Y366908D01*
X257303Y366985D01*
X257265Y367030D01*
X257236Y367080D01*
X257174Y367138D01*
X257120Y367202D01*
X257071Y367234D01*
X257028Y367274D01*
X256953Y367313D01*
X256883Y367360D01*
X256827Y367377D01*
X256775Y367404D01*
X256707Y367415D01*
X256612Y367445D01*
X256512Y367448D01*
X256444Y367459D01*
X3556Y367459D01*
X3498Y367451D01*
X3440Y367453D01*
X3358Y367431D01*
X3274Y367419D01*
X3221Y367396D01*
X3165Y367381D01*
X3092Y367338D01*
X3015Y367303D01*
X2970Y367265D01*
X2920Y367236D01*
X2862Y367174D01*
X2798Y367120D01*
X2766Y367071D01*
X2726Y367028D01*
X2687Y366953D01*
X2640Y366883D01*
X2623Y366827D01*
X2596Y366775D01*
X2585Y366707D01*
X2555Y366612D01*
X2552Y366512D01*
X2541Y366444D01*
X2541Y3556D01*
X2549Y3498D01*
X2547Y3440D01*
X2569Y3358D01*
X2581Y3274D01*
X2604Y3221D01*
X2619Y3165D01*
X2662Y3092D01*
X2697Y3015D01*
X2735Y2970D01*
X2764Y2920D01*
X2826Y2862D01*
X2880Y2798D01*
X2929Y2766D01*
X2972Y2726D01*
X3047Y2687D01*
X3117Y2640D01*
X3173Y2623D01*
X3225Y2596D01*
X3293Y2585D01*
X3388Y2555D01*
X3488Y2552D01*
X3556Y2541D01*
X256444Y2541D01*
X256502Y2549D01*
G37*
%LPC*%
G36*
X200802Y49747D02*
X200802Y49747D01*
X195147Y55402D01*
X195147Y63398D01*
X199467Y67718D01*
X199485Y67742D01*
X199507Y67761D01*
X199570Y67855D01*
X199638Y67945D01*
X199648Y67973D01*
X199665Y67997D01*
X199699Y68105D01*
X199739Y68211D01*
X199742Y68240D01*
X199751Y68268D01*
X199753Y68382D01*
X199763Y68494D01*
X199757Y68523D01*
X199758Y68552D01*
X199729Y68662D01*
X199707Y68773D01*
X199693Y68799D01*
X199686Y68827D01*
X199628Y68925D01*
X199576Y69025D01*
X199556Y69047D01*
X199541Y69072D01*
X199458Y69149D01*
X199380Y69231D01*
X199355Y69246D01*
X199333Y69266D01*
X199233Y69318D01*
X199135Y69375D01*
X199106Y69382D01*
X199080Y69396D01*
X199003Y69409D01*
X198859Y69445D01*
X198797Y69443D01*
X198749Y69451D01*
X191237Y69451D01*
X186535Y74154D01*
X186465Y74206D01*
X186401Y74266D01*
X186351Y74292D01*
X186307Y74325D01*
X186226Y74356D01*
X186148Y74396D01*
X186100Y74404D01*
X186042Y74426D01*
X185894Y74438D01*
X185817Y74451D01*
X102210Y74451D01*
X77901Y98760D01*
X77901Y130477D01*
X77893Y130533D01*
X77895Y130579D01*
X77888Y130605D01*
X77886Y130651D01*
X77869Y130704D01*
X77861Y130758D01*
X77828Y130832D01*
X77823Y130854D01*
X77818Y130861D01*
X77799Y130921D01*
X77771Y130961D01*
X77745Y131018D01*
X77678Y131097D01*
X77678Y131098D01*
X77676Y131099D01*
X77649Y131131D01*
X77604Y131195D01*
X75893Y132905D01*
X75893Y137095D01*
X78855Y140057D01*
X83045Y140057D01*
X86007Y137095D01*
X86007Y132905D01*
X84296Y131195D01*
X84244Y131125D01*
X84184Y131061D01*
X84158Y131012D01*
X84125Y130968D01*
X84102Y130906D01*
X84098Y130901D01*
X84093Y130884D01*
X84054Y130808D01*
X84046Y130760D01*
X84024Y130702D01*
X84020Y130653D01*
X84013Y130630D01*
X84011Y130548D01*
X83999Y130477D01*
X83999Y101706D01*
X84011Y101619D01*
X84014Y101532D01*
X84031Y101479D01*
X84039Y101424D01*
X84074Y101345D01*
X84101Y101261D01*
X84129Y101222D01*
X84155Y101165D01*
X84251Y101052D01*
X84296Y100988D01*
X104438Y80846D01*
X104508Y80794D01*
X104572Y80734D01*
X104621Y80708D01*
X104665Y80675D01*
X104747Y80644D01*
X104825Y80604D01*
X104872Y80596D01*
X104931Y80574D01*
X105079Y80562D01*
X105156Y80549D01*
X188763Y80549D01*
X193465Y75846D01*
X193535Y75794D01*
X193599Y75734D01*
X193649Y75708D01*
X193693Y75675D01*
X193774Y75644D01*
X193852Y75604D01*
X193900Y75596D01*
X193958Y75574D01*
X194106Y75562D01*
X194183Y75549D01*
X197949Y75549D01*
X197978Y75553D01*
X198008Y75550D01*
X198119Y75573D01*
X198231Y75589D01*
X198257Y75601D01*
X198286Y75606D01*
X198387Y75658D01*
X198490Y75705D01*
X198513Y75724D01*
X198539Y75737D01*
X198621Y75815D01*
X198707Y75888D01*
X198723Y75913D01*
X198745Y75933D01*
X198802Y76031D01*
X198865Y76125D01*
X198874Y76153D01*
X198888Y76178D01*
X198916Y76288D01*
X198951Y76396D01*
X198951Y76426D01*
X198958Y76454D01*
X198955Y76567D01*
X198958Y76680D01*
X198950Y76709D01*
X198949Y76738D01*
X198915Y76846D01*
X198886Y76955D01*
X198871Y76981D01*
X198862Y77009D01*
X198816Y77072D01*
X198741Y77200D01*
X198695Y77243D01*
X198667Y77282D01*
X195147Y80802D01*
X195147Y88798D01*
X199067Y92718D01*
X199085Y92742D01*
X199107Y92761D01*
X199170Y92855D01*
X199238Y92945D01*
X199248Y92973D01*
X199265Y92997D01*
X199299Y93105D01*
X199339Y93211D01*
X199342Y93240D01*
X199351Y93268D01*
X199353Y93382D01*
X199363Y93494D01*
X199357Y93523D01*
X199358Y93552D01*
X199329Y93662D01*
X199307Y93773D01*
X199293Y93799D01*
X199286Y93827D01*
X199228Y93925D01*
X199176Y94025D01*
X199156Y94047D01*
X199141Y94072D01*
X199058Y94149D01*
X198980Y94231D01*
X198955Y94246D01*
X198933Y94266D01*
X198833Y94318D01*
X198735Y94375D01*
X198706Y94382D01*
X198680Y94396D01*
X198603Y94409D01*
X198459Y94445D01*
X198397Y94443D01*
X198349Y94451D01*
X127917Y94451D01*
X107393Y114976D01*
X107323Y115029D01*
X107259Y115089D01*
X107210Y115114D01*
X107165Y115147D01*
X107084Y115178D01*
X107006Y115218D01*
X106958Y115226D01*
X106900Y115248D01*
X106752Y115261D01*
X106675Y115274D01*
X104255Y115274D01*
X101293Y118236D01*
X101293Y122425D01*
X104255Y125387D01*
X108445Y125387D01*
X111407Y122425D01*
X111407Y120006D01*
X111419Y119919D01*
X111422Y119832D01*
X111439Y119779D01*
X111447Y119724D01*
X111482Y119644D01*
X111509Y119561D01*
X111537Y119522D01*
X111563Y119465D01*
X111659Y119352D01*
X111704Y119288D01*
X130146Y100846D01*
X130216Y100794D01*
X130279Y100734D01*
X130329Y100708D01*
X130373Y100675D01*
X130455Y100644D01*
X130533Y100604D01*
X130580Y100596D01*
X130639Y100574D01*
X130786Y100562D01*
X130864Y100549D01*
X198349Y100549D01*
X198378Y100553D01*
X198408Y100550D01*
X198519Y100573D01*
X198631Y100589D01*
X198657Y100601D01*
X198686Y100606D01*
X198787Y100658D01*
X198890Y100705D01*
X198913Y100724D01*
X198939Y100737D01*
X199021Y100815D01*
X199107Y100888D01*
X199123Y100913D01*
X199145Y100933D01*
X199202Y101031D01*
X199265Y101125D01*
X199274Y101153D01*
X199288Y101178D01*
X199316Y101288D01*
X199351Y101396D01*
X199351Y101426D01*
X199358Y101454D01*
X199355Y101567D01*
X199358Y101680D01*
X199350Y101709D01*
X199349Y101738D01*
X199315Y101846D01*
X199286Y101955D01*
X199271Y101981D01*
X199262Y102009D01*
X199216Y102072D01*
X199141Y102200D01*
X199095Y102243D01*
X199067Y102282D01*
X195147Y106202D01*
X195147Y114198D01*
X200802Y119853D01*
X208798Y119853D01*
X214453Y114198D01*
X214453Y106202D01*
X210533Y102282D01*
X210515Y102258D01*
X210493Y102239D01*
X210430Y102145D01*
X210362Y102055D01*
X210352Y102027D01*
X210335Y102003D01*
X210301Y101895D01*
X210261Y101789D01*
X210258Y101760D01*
X210249Y101732D01*
X210247Y101618D01*
X210237Y101506D01*
X210243Y101477D01*
X210242Y101448D01*
X210271Y101338D01*
X210293Y101227D01*
X210307Y101201D01*
X210314Y101173D01*
X210372Y101075D01*
X210424Y100975D01*
X210444Y100953D01*
X210459Y100928D01*
X210542Y100851D01*
X210620Y100769D01*
X210645Y100754D01*
X210667Y100734D01*
X210767Y100682D01*
X210865Y100625D01*
X210894Y100618D01*
X210920Y100604D01*
X210997Y100591D01*
X211141Y100555D01*
X211203Y100557D01*
X211251Y100549D01*
X215817Y100549D01*
X215903Y100561D01*
X215991Y100564D01*
X216043Y100581D01*
X216098Y100589D01*
X216178Y100624D01*
X216261Y100651D01*
X216300Y100679D01*
X216358Y100705D01*
X216471Y100801D01*
X216535Y100846D01*
X220501Y104812D01*
X220536Y104859D01*
X220578Y104899D01*
X220621Y104972D01*
X220672Y105040D01*
X220693Y105094D01*
X220722Y105145D01*
X220743Y105226D01*
X220773Y105305D01*
X220778Y105363D01*
X220792Y105420D01*
X220790Y105505D01*
X220797Y105589D01*
X220785Y105646D01*
X220783Y105704D01*
X220757Y105785D01*
X220741Y105867D01*
X220714Y105919D01*
X220696Y105975D01*
X220656Y106031D01*
X220610Y106120D01*
X220547Y106185D01*
X220547Y114198D01*
X226202Y119853D01*
X234198Y119853D01*
X239853Y114198D01*
X239853Y106202D01*
X234198Y100547D01*
X226191Y100547D01*
X226161Y100578D01*
X226088Y100621D01*
X226021Y100672D01*
X225966Y100693D01*
X225916Y100722D01*
X225834Y100743D01*
X225755Y100773D01*
X225697Y100778D01*
X225640Y100792D01*
X225556Y100790D01*
X225472Y100797D01*
X225415Y100785D01*
X225356Y100783D01*
X225276Y100757D01*
X225193Y100741D01*
X225141Y100714D01*
X225086Y100696D01*
X225030Y100656D01*
X224941Y100610D01*
X224869Y100541D01*
X224812Y100501D01*
X220846Y96535D01*
X220846Y96534D01*
X218763Y94451D01*
X211251Y94451D01*
X211222Y94447D01*
X211192Y94450D01*
X211081Y94427D01*
X210969Y94411D01*
X210943Y94399D01*
X210914Y94394D01*
X210813Y94342D01*
X210710Y94295D01*
X210687Y94276D01*
X210661Y94263D01*
X210579Y94185D01*
X210493Y94112D01*
X210477Y94087D01*
X210455Y94067D01*
X210398Y93969D01*
X210335Y93875D01*
X210326Y93847D01*
X210312Y93822D01*
X210284Y93712D01*
X210249Y93604D01*
X210249Y93574D01*
X210242Y93546D01*
X210245Y93433D01*
X210242Y93320D01*
X210250Y93291D01*
X210251Y93262D01*
X210285Y93154D01*
X210314Y93045D01*
X210329Y93019D01*
X210338Y92991D01*
X210384Y92928D01*
X210459Y92800D01*
X210505Y92757D01*
X210533Y92718D01*
X214453Y88798D01*
X214453Y80802D01*
X210933Y77282D01*
X210915Y77258D01*
X210893Y77239D01*
X210830Y77145D01*
X210762Y77055D01*
X210752Y77027D01*
X210735Y77003D01*
X210701Y76895D01*
X210661Y76789D01*
X210658Y76760D01*
X210649Y76732D01*
X210647Y76618D01*
X210637Y76506D01*
X210643Y76477D01*
X210642Y76448D01*
X210671Y76338D01*
X210693Y76227D01*
X210707Y76201D01*
X210714Y76173D01*
X210772Y76075D01*
X210824Y75975D01*
X210844Y75953D01*
X210859Y75928D01*
X210942Y75851D01*
X211020Y75769D01*
X211045Y75754D01*
X211067Y75734D01*
X211167Y75682D01*
X211265Y75625D01*
X211294Y75618D01*
X211320Y75604D01*
X211397Y75591D01*
X211541Y75555D01*
X211603Y75557D01*
X211651Y75549D01*
X216217Y75549D01*
X216303Y75561D01*
X216391Y75564D01*
X216443Y75581D01*
X216498Y75589D01*
X216578Y75624D01*
X216661Y75651D01*
X216700Y75679D01*
X216758Y75705D01*
X216871Y75801D01*
X216935Y75846D01*
X220501Y79412D01*
X220536Y79459D01*
X220578Y79499D01*
X220621Y79572D01*
X220672Y79640D01*
X220693Y79694D01*
X220722Y79745D01*
X220743Y79826D01*
X220773Y79905D01*
X220778Y79963D01*
X220792Y80020D01*
X220790Y80105D01*
X220797Y80189D01*
X220785Y80246D01*
X220783Y80304D01*
X220757Y80385D01*
X220741Y80467D01*
X220714Y80519D01*
X220696Y80575D01*
X220656Y80631D01*
X220610Y80720D01*
X220547Y80785D01*
X220547Y88798D01*
X226202Y94453D01*
X234198Y94453D01*
X239853Y88798D01*
X239853Y80802D01*
X234198Y75147D01*
X226191Y75147D01*
X226161Y75178D01*
X226088Y75221D01*
X226021Y75272D01*
X225966Y75293D01*
X225916Y75322D01*
X225834Y75343D01*
X225755Y75373D01*
X225697Y75378D01*
X225640Y75392D01*
X225556Y75390D01*
X225472Y75397D01*
X225415Y75385D01*
X225356Y75383D01*
X225276Y75357D01*
X225193Y75341D01*
X225141Y75314D01*
X225086Y75296D01*
X225030Y75256D01*
X224941Y75210D01*
X224869Y75141D01*
X224812Y75101D01*
X219163Y69451D01*
X210851Y69451D01*
X210822Y69447D01*
X210792Y69450D01*
X210681Y69427D01*
X210569Y69411D01*
X210543Y69399D01*
X210514Y69394D01*
X210413Y69342D01*
X210310Y69295D01*
X210287Y69276D01*
X210261Y69263D01*
X210179Y69185D01*
X210093Y69112D01*
X210077Y69087D01*
X210055Y69067D01*
X209998Y68969D01*
X209935Y68875D01*
X209926Y68847D01*
X209912Y68822D01*
X209884Y68712D01*
X209849Y68604D01*
X209849Y68574D01*
X209842Y68546D01*
X209845Y68433D01*
X209842Y68320D01*
X209850Y68291D01*
X209851Y68262D01*
X209885Y68154D01*
X209914Y68045D01*
X209929Y68019D01*
X209938Y67991D01*
X209984Y67928D01*
X210059Y67800D01*
X210105Y67757D01*
X210133Y67718D01*
X214453Y63398D01*
X214453Y55402D01*
X208798Y49747D01*
X200802Y49747D01*
G37*
%LPD*%
%LPC*%
G36*
X226202Y125947D02*
X226202Y125947D01*
X220547Y131602D01*
X220547Y139609D01*
X220578Y139639D01*
X220621Y139712D01*
X220672Y139779D01*
X220693Y139834D01*
X220722Y139884D01*
X220743Y139966D01*
X220773Y140045D01*
X220778Y140103D01*
X220792Y140160D01*
X220790Y140244D01*
X220797Y140328D01*
X220785Y140385D01*
X220783Y140444D01*
X220757Y140524D01*
X220741Y140607D01*
X220714Y140659D01*
X220696Y140714D01*
X220656Y140770D01*
X220610Y140859D01*
X220541Y140931D01*
X220501Y140988D01*
X204835Y156654D01*
X204765Y156706D01*
X204701Y156766D01*
X204651Y156792D01*
X204607Y156825D01*
X204526Y156856D01*
X204448Y156896D01*
X204400Y156904D01*
X204342Y156926D01*
X204194Y156938D01*
X204117Y156951D01*
X176737Y156951D01*
X122043Y211646D01*
X121973Y211698D01*
X121909Y211758D01*
X121859Y211784D01*
X121815Y211817D01*
X121734Y211848D01*
X121656Y211888D01*
X121608Y211896D01*
X121550Y211918D01*
X121402Y211930D01*
X121325Y211943D01*
X118905Y211943D01*
X115943Y214905D01*
X115943Y219095D01*
X117654Y220805D01*
X117706Y220875D01*
X117766Y220939D01*
X117792Y220988D01*
X117825Y221032D01*
X117856Y221114D01*
X117896Y221192D01*
X117904Y221240D01*
X117926Y221298D01*
X117938Y221446D01*
X117951Y221523D01*
X117951Y242263D01*
X153737Y278049D01*
X160477Y278049D01*
X160564Y278061D01*
X160651Y278064D01*
X160704Y278081D01*
X160758Y278089D01*
X160838Y278124D01*
X160921Y278151D01*
X160961Y278179D01*
X161018Y278205D01*
X161131Y278301D01*
X161195Y278346D01*
X162905Y280057D01*
X167095Y280057D01*
X170057Y277095D01*
X170057Y272905D01*
X167095Y269943D01*
X162905Y269943D01*
X161195Y271654D01*
X161125Y271706D01*
X161061Y271766D01*
X161012Y271792D01*
X160968Y271825D01*
X160886Y271856D01*
X160808Y271896D01*
X160760Y271904D01*
X160702Y271926D01*
X160554Y271938D01*
X160477Y271951D01*
X156683Y271951D01*
X156597Y271939D01*
X156509Y271936D01*
X156457Y271919D01*
X156402Y271911D01*
X156322Y271876D01*
X156239Y271849D01*
X156200Y271821D01*
X156142Y271795D01*
X156029Y271699D01*
X155965Y271654D01*
X124346Y240035D01*
X124294Y239965D01*
X124234Y239901D01*
X124208Y239851D01*
X124175Y239807D01*
X124144Y239726D01*
X124104Y239648D01*
X124096Y239600D01*
X124074Y239542D01*
X124062Y239394D01*
X124049Y239317D01*
X124049Y221523D01*
X124061Y221436D01*
X124064Y221349D01*
X124081Y221296D01*
X124089Y221242D01*
X124124Y221162D01*
X124151Y221079D01*
X124179Y221039D01*
X124205Y220982D01*
X124301Y220869D01*
X124346Y220805D01*
X126057Y219095D01*
X126057Y216675D01*
X126069Y216589D01*
X126072Y216501D01*
X126089Y216449D01*
X126097Y216394D01*
X126132Y216314D01*
X126159Y216231D01*
X126187Y216192D01*
X126213Y216134D01*
X126309Y216021D01*
X126354Y215957D01*
X127033Y215278D01*
X127127Y215207D01*
X127218Y215132D01*
X127241Y215122D01*
X127261Y215107D01*
X127371Y215065D01*
X127478Y215018D01*
X127503Y215015D01*
X127526Y215006D01*
X127643Y214996D01*
X127760Y214981D01*
X127785Y214985D01*
X127810Y214982D01*
X127925Y215006D01*
X128041Y215023D01*
X128064Y215033D01*
X128088Y215038D01*
X128193Y215093D01*
X128299Y215141D01*
X128318Y215158D01*
X128341Y215169D01*
X128426Y215250D01*
X128515Y215327D01*
X128529Y215348D01*
X128547Y215365D01*
X128606Y215466D01*
X128670Y215565D01*
X128678Y215589D01*
X128690Y215610D01*
X128719Y215724D01*
X128754Y215837D01*
X128754Y215859D01*
X128761Y215886D01*
X128752Y216170D01*
X128751Y216171D01*
X128751Y216172D01*
X128076Y220000D01*
X129398Y227498D01*
X133205Y234092D01*
X139038Y238987D01*
X146193Y241591D01*
X153807Y241591D01*
X160962Y238987D01*
X166795Y234092D01*
X170602Y227498D01*
X171924Y220000D01*
X170602Y212502D01*
X166795Y205908D01*
X160962Y201013D01*
X153807Y198409D01*
X146353Y198409D01*
X146324Y198405D01*
X146295Y198408D01*
X146184Y198385D01*
X146072Y198369D01*
X146045Y198357D01*
X146016Y198352D01*
X145916Y198300D01*
X145812Y198253D01*
X145790Y198234D01*
X145764Y198221D01*
X145682Y198143D01*
X145595Y198070D01*
X145579Y198045D01*
X145558Y198025D01*
X145501Y197927D01*
X145438Y197833D01*
X145429Y197805D01*
X145414Y197780D01*
X145386Y197670D01*
X145352Y197562D01*
X145351Y197532D01*
X145344Y197504D01*
X145348Y197391D01*
X145345Y197278D01*
X145352Y197249D01*
X145353Y197220D01*
X145388Y197112D01*
X145417Y197003D01*
X145432Y196977D01*
X145441Y196949D01*
X145486Y196886D01*
X145562Y196758D01*
X145607Y196715D01*
X145635Y196676D01*
X178965Y163346D01*
X179035Y163294D01*
X179099Y163234D01*
X179149Y163208D01*
X179193Y163175D01*
X179274Y163144D01*
X179352Y163104D01*
X179400Y163096D01*
X179458Y163074D01*
X179606Y163062D01*
X179683Y163049D01*
X207063Y163049D01*
X209146Y160966D01*
X209146Y160965D01*
X224812Y145299D01*
X224859Y145264D01*
X224899Y145222D01*
X224972Y145179D01*
X225040Y145128D01*
X225094Y145107D01*
X225145Y145078D01*
X225226Y145057D01*
X225305Y145027D01*
X225363Y145022D01*
X225420Y145008D01*
X225505Y145010D01*
X225589Y145003D01*
X225646Y145015D01*
X225704Y145017D01*
X225785Y145043D01*
X225867Y145059D01*
X225919Y145086D01*
X225975Y145104D01*
X226031Y145144D01*
X226120Y145190D01*
X226185Y145253D01*
X234198Y145253D01*
X239853Y139598D01*
X239853Y131602D01*
X234198Y125947D01*
X226202Y125947D01*
G37*
%LPD*%
%LPC*%
G36*
X226193Y198409D02*
X226193Y198409D01*
X219038Y201013D01*
X213205Y205908D01*
X209398Y212502D01*
X208076Y220000D01*
X209398Y227498D01*
X213205Y234092D01*
X219038Y238987D01*
X226193Y241591D01*
X233807Y241591D01*
X240962Y238987D01*
X246795Y234092D01*
X250602Y227498D01*
X251924Y220000D01*
X250602Y212502D01*
X246795Y205908D01*
X240962Y201013D01*
X233807Y198409D01*
X226193Y198409D01*
G37*
%LPD*%
%LPC*%
G36*
X146193Y318409D02*
X146193Y318409D01*
X139038Y321013D01*
X133205Y325908D01*
X129398Y332502D01*
X128076Y340000D01*
X129398Y347498D01*
X133205Y354092D01*
X139038Y358987D01*
X146193Y361591D01*
X153807Y361591D01*
X160962Y358987D01*
X166795Y354092D01*
X170602Y347498D01*
X171924Y340000D01*
X170602Y332502D01*
X166795Y325908D01*
X160962Y321013D01*
X153807Y318409D01*
X146193Y318409D01*
G37*
%LPD*%
%LPC*%
G36*
X226193Y318409D02*
X226193Y318409D01*
X219038Y321013D01*
X213205Y325908D01*
X209398Y332502D01*
X208076Y340000D01*
X209398Y347498D01*
X213205Y354092D01*
X219038Y358987D01*
X226193Y361591D01*
X233807Y361591D01*
X240962Y358987D01*
X246795Y354092D01*
X250602Y347498D01*
X251924Y340000D01*
X250602Y332502D01*
X246795Y325908D01*
X240962Y321013D01*
X233807Y318409D01*
X226193Y318409D01*
G37*
%LPD*%
%LPC*%
G36*
X26193Y318409D02*
X26193Y318409D01*
X19038Y321013D01*
X13205Y325908D01*
X9398Y332502D01*
X8076Y340000D01*
X9398Y347498D01*
X13205Y354092D01*
X19038Y358987D01*
X26193Y361591D01*
X33807Y361591D01*
X40962Y358987D01*
X46795Y354092D01*
X50602Y347498D01*
X51924Y340000D01*
X50602Y332502D01*
X46795Y325908D01*
X40962Y321013D01*
X33807Y318409D01*
X26193Y318409D01*
G37*
%LPD*%
%LPC*%
G36*
X26193Y198409D02*
X26193Y198409D01*
X19038Y201013D01*
X13205Y205908D01*
X9398Y212502D01*
X8076Y220000D01*
X9398Y227498D01*
X13205Y234092D01*
X19038Y238987D01*
X26193Y241591D01*
X33807Y241591D01*
X40962Y238987D01*
X46795Y234092D01*
X50602Y227498D01*
X51924Y220000D01*
X50602Y212502D01*
X46795Y205908D01*
X40962Y201013D01*
X33807Y198409D01*
X26193Y198409D01*
G37*
%LPD*%
%LPC*%
G36*
X153363Y31459D02*
X153363Y31459D01*
X146364Y34358D01*
X141008Y39714D01*
X138109Y46713D01*
X138109Y54287D01*
X141008Y61286D01*
X146364Y66642D01*
X153363Y69541D01*
X160937Y69541D01*
X167936Y66642D01*
X173292Y61286D01*
X176191Y54287D01*
X176191Y46713D01*
X173292Y39714D01*
X167936Y34358D01*
X160937Y31459D01*
X153363Y31459D01*
G37*
%LPD*%
%LPC*%
G36*
X39063Y31459D02*
X39063Y31459D01*
X32064Y34358D01*
X26708Y39714D01*
X23809Y46713D01*
X23809Y54287D01*
X26708Y61286D01*
X32064Y66642D01*
X39063Y69541D01*
X46637Y69541D01*
X53636Y66642D01*
X58992Y61286D01*
X61891Y54287D01*
X61891Y46713D01*
X58992Y39714D01*
X53636Y34358D01*
X46637Y31459D01*
X39063Y31459D01*
G37*
%LPD*%
%LPC*%
G36*
X116955Y198893D02*
X116955Y198893D01*
X113993Y201855D01*
X113993Y204275D01*
X113981Y204361D01*
X113978Y204449D01*
X113961Y204501D01*
X113953Y204556D01*
X113918Y204636D01*
X113891Y204719D01*
X113863Y204758D01*
X113837Y204816D01*
X113741Y204929D01*
X113696Y204993D01*
X104951Y213737D01*
X104951Y241263D01*
X119654Y255965D01*
X119706Y256035D01*
X119766Y256099D01*
X119792Y256149D01*
X119825Y256193D01*
X119856Y256274D01*
X119896Y256352D01*
X119904Y256400D01*
X119926Y256458D01*
X119938Y256606D01*
X119951Y256683D01*
X119951Y263263D01*
X122034Y265346D01*
X122035Y265346D01*
X152654Y295965D01*
X152654Y295966D01*
X154737Y298049D01*
X160477Y298049D01*
X160564Y298061D01*
X160651Y298064D01*
X160704Y298081D01*
X160758Y298089D01*
X160838Y298124D01*
X160921Y298151D01*
X160961Y298179D01*
X161018Y298205D01*
X161131Y298301D01*
X161195Y298346D01*
X162905Y300057D01*
X167095Y300057D01*
X170057Y297095D01*
X170057Y292905D01*
X167095Y289943D01*
X162905Y289943D01*
X161195Y291654D01*
X161125Y291706D01*
X161061Y291766D01*
X161012Y291792D01*
X160968Y291825D01*
X160886Y291856D01*
X160808Y291896D01*
X160760Y291904D01*
X160702Y291926D01*
X160554Y291938D01*
X160477Y291951D01*
X157683Y291951D01*
X157597Y291939D01*
X157509Y291936D01*
X157457Y291919D01*
X157402Y291911D01*
X157322Y291876D01*
X157239Y291849D01*
X157200Y291821D01*
X157142Y291795D01*
X157029Y291699D01*
X156965Y291654D01*
X126346Y261035D01*
X126294Y260965D01*
X126234Y260901D01*
X126208Y260851D01*
X126175Y260807D01*
X126144Y260726D01*
X126104Y260648D01*
X126096Y260600D01*
X126074Y260542D01*
X126062Y260394D01*
X126049Y260317D01*
X126049Y253737D01*
X111346Y239035D01*
X111294Y238965D01*
X111234Y238901D01*
X111208Y238851D01*
X111175Y238807D01*
X111144Y238726D01*
X111104Y238648D01*
X111096Y238600D01*
X111074Y238542D01*
X111062Y238394D01*
X111049Y238317D01*
X111049Y216683D01*
X111061Y216597D01*
X111064Y216509D01*
X111081Y216457D01*
X111089Y216402D01*
X111124Y216322D01*
X111151Y216239D01*
X111179Y216200D01*
X111205Y216142D01*
X111301Y216029D01*
X111346Y215965D01*
X118007Y209304D01*
X118077Y209252D01*
X118141Y209192D01*
X118191Y209166D01*
X118235Y209133D01*
X118316Y209102D01*
X118394Y209062D01*
X118442Y209054D01*
X118500Y209032D01*
X118648Y209020D01*
X118725Y209007D01*
X121145Y209007D01*
X124107Y206045D01*
X124107Y201855D01*
X121145Y198893D01*
X116955Y198893D01*
G37*
%LPD*%
%LPC*%
G36*
X63405Y194943D02*
X63405Y194943D01*
X60443Y197905D01*
X60443Y202095D01*
X62154Y203805D01*
X62206Y203875D01*
X62266Y203939D01*
X62292Y203988D01*
X62325Y204032D01*
X62356Y204114D01*
X62396Y204192D01*
X62404Y204240D01*
X62426Y204298D01*
X62434Y204398D01*
X62437Y204408D01*
X62438Y204445D01*
X62438Y204446D01*
X62451Y204523D01*
X62451Y242817D01*
X62439Y242903D01*
X62436Y242991D01*
X62419Y243043D01*
X62411Y243098D01*
X62376Y243178D01*
X62349Y243261D01*
X62321Y243300D01*
X62295Y243358D01*
X62199Y243471D01*
X62154Y243535D01*
X56951Y248737D01*
X56951Y300263D01*
X64146Y307457D01*
X64198Y307527D01*
X64258Y307591D01*
X64284Y307641D01*
X64317Y307685D01*
X64348Y307766D01*
X64388Y307844D01*
X64396Y307892D01*
X64418Y307950D01*
X64430Y308098D01*
X64443Y308175D01*
X64443Y310595D01*
X67405Y313557D01*
X71595Y313557D01*
X74557Y310595D01*
X74557Y306405D01*
X71595Y303443D01*
X69175Y303443D01*
X69089Y303431D01*
X69001Y303428D01*
X68949Y303411D01*
X68894Y303403D01*
X68814Y303368D01*
X68731Y303341D01*
X68692Y303313D01*
X68634Y303287D01*
X68521Y303191D01*
X68457Y303146D01*
X63346Y298035D01*
X63294Y297965D01*
X63234Y297901D01*
X63208Y297851D01*
X63175Y297807D01*
X63144Y297726D01*
X63104Y297648D01*
X63096Y297600D01*
X63074Y297542D01*
X63062Y297394D01*
X63049Y297317D01*
X63049Y251683D01*
X63061Y251597D01*
X63064Y251509D01*
X63081Y251457D01*
X63089Y251402D01*
X63124Y251322D01*
X63151Y251239D01*
X63179Y251200D01*
X63205Y251142D01*
X63301Y251029D01*
X63346Y250965D01*
X68549Y245763D01*
X68549Y204523D01*
X68556Y204473D01*
X68555Y204459D01*
X68561Y204439D01*
X68561Y204436D01*
X68564Y204349D01*
X68581Y204296D01*
X68589Y204242D01*
X68624Y204162D01*
X68651Y204079D01*
X68679Y204039D01*
X68705Y203982D01*
X68801Y203869D01*
X68846Y203805D01*
X70557Y202095D01*
X70557Y197905D01*
X67595Y194943D01*
X63405Y194943D01*
G37*
%LPD*%
%LPC*%
G36*
X86905Y209943D02*
X86905Y209943D01*
X83943Y212905D01*
X83943Y217095D01*
X86654Y219805D01*
X86706Y219875D01*
X86766Y219939D01*
X86792Y219988D01*
X86825Y220032D01*
X86856Y220114D01*
X86896Y220192D01*
X86904Y220240D01*
X86926Y220298D01*
X86938Y220446D01*
X86951Y220523D01*
X86951Y255263D01*
X91654Y259965D01*
X91706Y260035D01*
X91766Y260099D01*
X91792Y260149D01*
X91825Y260193D01*
X91856Y260274D01*
X91896Y260352D01*
X91904Y260400D01*
X91926Y260458D01*
X91938Y260606D01*
X91951Y260683D01*
X91951Y313563D01*
X94034Y315646D01*
X94035Y315646D01*
X97346Y318957D01*
X97398Y319027D01*
X97458Y319091D01*
X97484Y319141D01*
X97517Y319185D01*
X97548Y319266D01*
X97588Y319344D01*
X97596Y319392D01*
X97618Y319450D01*
X97630Y319598D01*
X97643Y319675D01*
X97643Y322095D01*
X100605Y325057D01*
X104795Y325057D01*
X107757Y322095D01*
X107757Y317905D01*
X104795Y314943D01*
X102375Y314943D01*
X102289Y314931D01*
X102201Y314928D01*
X102149Y314911D01*
X102094Y314903D01*
X102014Y314868D01*
X101931Y314841D01*
X101892Y314813D01*
X101834Y314787D01*
X101721Y314691D01*
X101657Y314646D01*
X98346Y311335D01*
X98294Y311265D01*
X98234Y311201D01*
X98208Y311152D01*
X98175Y311107D01*
X98144Y311026D01*
X98104Y310948D01*
X98096Y310900D01*
X98074Y310842D01*
X98062Y310694D01*
X98049Y310617D01*
X98049Y257737D01*
X93346Y253035D01*
X93294Y252965D01*
X93234Y252901D01*
X93208Y252851D01*
X93175Y252807D01*
X93144Y252726D01*
X93104Y252648D01*
X93096Y252600D01*
X93074Y252542D01*
X93069Y252479D01*
X93063Y252460D01*
X93061Y252389D01*
X93049Y252317D01*
X93049Y218523D01*
X93061Y218436D01*
X93064Y218349D01*
X93081Y218296D01*
X93089Y218242D01*
X93124Y218162D01*
X93151Y218078D01*
X93179Y218039D01*
X93205Y217982D01*
X93301Y217869D01*
X93346Y217805D01*
X94057Y217095D01*
X94057Y212905D01*
X91095Y209943D01*
X86905Y209943D01*
G37*
%LPD*%
%LPC*%
G36*
X93405Y181943D02*
X93405Y181943D01*
X90443Y184905D01*
X90443Y189095D01*
X92154Y190805D01*
X92206Y190875D01*
X92266Y190939D01*
X92292Y190988D01*
X92325Y191032D01*
X92356Y191114D01*
X92396Y191192D01*
X92404Y191240D01*
X92426Y191298D01*
X92438Y191446D01*
X92451Y191523D01*
X92451Y198263D01*
X96154Y201965D01*
X96206Y202035D01*
X96266Y202099D01*
X96292Y202149D01*
X96325Y202193D01*
X96356Y202274D01*
X96396Y202352D01*
X96404Y202400D01*
X96426Y202458D01*
X96438Y202606D01*
X96451Y202683D01*
X96451Y248263D01*
X97346Y249157D01*
X97398Y249227D01*
X97458Y249291D01*
X97484Y249341D01*
X97517Y249385D01*
X97548Y249466D01*
X97588Y249544D01*
X97596Y249592D01*
X97618Y249650D01*
X97630Y249798D01*
X97643Y249875D01*
X97643Y252295D01*
X100605Y255257D01*
X104795Y255257D01*
X107757Y252295D01*
X107757Y248105D01*
X104795Y245143D01*
X103564Y245143D01*
X103506Y245135D01*
X103448Y245137D01*
X103366Y245115D01*
X103282Y245103D01*
X103229Y245080D01*
X103173Y245065D01*
X103100Y245022D01*
X103023Y244987D01*
X102978Y244949D01*
X102928Y244920D01*
X102870Y244858D01*
X102806Y244804D01*
X102774Y244755D01*
X102734Y244712D01*
X102695Y244637D01*
X102648Y244567D01*
X102631Y244511D01*
X102604Y244459D01*
X102593Y244391D01*
X102563Y244296D01*
X102560Y244196D01*
X102549Y244128D01*
X102549Y199737D01*
X98846Y196035D01*
X98794Y195965D01*
X98734Y195901D01*
X98708Y195851D01*
X98675Y195807D01*
X98644Y195726D01*
X98604Y195648D01*
X98596Y195600D01*
X98574Y195542D01*
X98562Y195394D01*
X98549Y195317D01*
X98549Y191523D01*
X98561Y191436D01*
X98564Y191349D01*
X98581Y191296D01*
X98589Y191242D01*
X98624Y191162D01*
X98651Y191079D01*
X98679Y191039D01*
X98705Y190982D01*
X98801Y190869D01*
X98846Y190805D01*
X100557Y189095D01*
X100557Y184905D01*
X97595Y181943D01*
X93405Y181943D01*
G37*
%LPD*%
%LPC*%
G36*
X196338Y125947D02*
X196338Y125947D01*
X195147Y127138D01*
X195147Y144062D01*
X196338Y145253D01*
X213262Y145253D01*
X214453Y144062D01*
X214453Y127138D01*
X213262Y125947D01*
X196338Y125947D01*
G37*
%LPD*%
%LPC*%
G36*
X79900Y272959D02*
X79900Y272959D01*
X77128Y274107D01*
X75007Y276228D01*
X73859Y279000D01*
X73859Y282000D01*
X75007Y284772D01*
X77128Y286893D01*
X79900Y288041D01*
X82900Y288041D01*
X85672Y286893D01*
X87793Y284772D01*
X88941Y282000D01*
X88941Y279000D01*
X87793Y276228D01*
X85672Y274107D01*
X82900Y272959D01*
X79900Y272959D01*
G37*
%LPD*%
%LPC*%
G36*
X232231Y61431D02*
X232231Y61431D01*
X232231Y69561D01*
X234409Y69561D01*
X240361Y63609D01*
X240361Y61431D01*
X232231Y61431D01*
G37*
%LPD*%
%LPC*%
G36*
X220039Y61431D02*
X220039Y61431D01*
X220039Y63609D01*
X225991Y69561D01*
X228169Y69561D01*
X228169Y61431D01*
X220039Y61431D01*
G37*
%LPD*%
%LPC*%
G36*
X232231Y49239D02*
X232231Y49239D01*
X232231Y57369D01*
X240361Y57369D01*
X240361Y55191D01*
X234409Y49239D01*
X232231Y49239D01*
G37*
%LPD*%
%LPC*%
G36*
X225991Y49239D02*
X225991Y49239D01*
X220039Y55191D01*
X220039Y57369D01*
X228169Y57369D01*
X228169Y49239D01*
X225991Y49239D01*
G37*
%LPD*%
%LPC*%
G36*
X230199Y59399D02*
X230199Y59399D01*
X230199Y59401D01*
X230201Y59401D01*
X230201Y59399D01*
X230199Y59399D01*
G37*
%LPD*%
D10*
X204800Y135600D03*
D11*
X230200Y135600D03*
X204800Y110200D03*
X230200Y110200D03*
X204800Y84800D03*
X230200Y84800D03*
X204800Y59400D03*
X230200Y59400D03*
D12*
X130000Y300000D03*
X84000Y269000D03*
X84000Y292000D03*
X80000Y310000D03*
X112750Y187000D03*
X125250Y187000D03*
X83750Y250000D03*
X200000Y180000D03*
X87250Y187000D03*
X87250Y144000D03*
X74500Y144000D03*
X55500Y143000D03*
X55500Y187000D03*
X100000Y144000D03*
X112750Y144000D03*
X125500Y144000D03*
X140000Y250000D03*
X68000Y258000D03*
X187000Y305000D03*
X153000Y144000D03*
X10000Y40000D03*
X190000Y40000D03*
X165000Y285000D03*
X74500Y187000D03*
X114500Y234000D03*
X130000Y260000D03*
X142000Y271000D03*
X158000Y268000D03*
X171000Y252000D03*
X207000Y252000D03*
X111500Y258500D03*
X121000Y217000D03*
D13*
X121000Y241000D01*
D12*
X165000Y275000D03*
D13*
X155000Y275000D02*
X121000Y241000D01*
X155000Y275000D02*
X165000Y275000D01*
X205800Y160000D02*
X230200Y135600D01*
X205800Y160000D02*
X178000Y160000D01*
X121000Y217000D01*
D12*
X119050Y203950D03*
X165000Y295000D03*
D13*
X156000Y295000D01*
X108000Y215000D02*
X119050Y203950D01*
X123000Y262000D02*
X156000Y295000D01*
X123000Y262000D02*
X123000Y255000D01*
X108000Y240000D01*
X108000Y215000D01*
D12*
X89000Y215000D03*
X102700Y320000D03*
D13*
X95000Y312300D01*
X230200Y110200D02*
X217500Y97500D01*
X129180Y97500D01*
X106350Y120330D01*
X95000Y259000D02*
X95000Y312300D01*
X95000Y259000D02*
X90000Y254000D01*
X90000Y216000D01*
X89000Y215000D01*
D12*
X106350Y120330D03*
X102700Y250200D03*
D13*
X99500Y247000D01*
D12*
X95500Y187000D03*
D13*
X99500Y201000D02*
X99500Y247000D01*
X99500Y201000D02*
X95500Y197000D01*
X95500Y187000D01*
D12*
X80950Y135000D03*
D13*
X80950Y100023D01*
X103473Y77500D01*
X187500Y77500D01*
X192500Y72500D01*
X217900Y72500D01*
X230200Y84800D01*
D12*
X69500Y308500D03*
X65500Y200000D03*
D13*
X65500Y244500D01*
X60000Y250000D01*
X60000Y299000D01*
X69500Y308500D01*
M02*
