G04 EAGLE Gerber RS-274X export*
G75*
%MOMM*%
%FSLAX34Y34*%
%LPD*%
%INSilkscreen Top*%
%IPPOS*%
%AMOC8*
5,1,8,0,0,1.08239X$1,22.5*%
G01*
%ADD10C,0.050800*%
%ADD11C,0.025400*%
%ADD12C,0.152400*%
%ADD13C,0.076200*%
%ADD14C,1.000000*%
%ADD15C,0.127000*%


D10*
X185085Y130254D02*
X184153Y131186D01*
X184153Y133050D01*
X185085Y133983D01*
X186018Y133983D01*
X186950Y133050D01*
X186950Y132118D01*
X186950Y133050D02*
X187882Y133983D01*
X188814Y133983D01*
X189746Y133050D01*
X189746Y131186D01*
X188814Y130254D01*
X186018Y135867D02*
X189746Y137731D01*
X186018Y139596D01*
X185085Y141480D02*
X184153Y142412D01*
X184153Y144277D01*
X185085Y145209D01*
X186018Y145209D01*
X186950Y144277D01*
X186950Y143344D01*
X186950Y144277D02*
X187882Y145209D01*
X188814Y145209D01*
X189746Y144277D01*
X189746Y142412D01*
X188814Y141480D01*
D11*
X180599Y105169D02*
X179964Y104534D01*
X179964Y103263D01*
X180599Y102627D01*
X181235Y102627D01*
X181870Y103263D01*
X181870Y104534D01*
X182506Y105169D01*
X183141Y105169D01*
X183777Y104534D01*
X183777Y103263D01*
X183141Y102627D01*
X179964Y108276D02*
X180599Y108911D01*
X179964Y108276D02*
X179964Y107005D01*
X180599Y106369D01*
X183141Y106369D01*
X183777Y107005D01*
X183777Y108276D01*
X183141Y108911D01*
X183777Y110111D02*
X179964Y110111D01*
X183777Y110111D02*
X183777Y112653D01*
X186695Y105169D02*
X186060Y104534D01*
X186060Y103263D01*
X186695Y102627D01*
X187331Y102627D01*
X187966Y103263D01*
X187966Y104534D01*
X188602Y105169D01*
X189237Y105169D01*
X189873Y104534D01*
X189873Y103263D01*
X189237Y102627D01*
X186060Y108276D02*
X186695Y108911D01*
X186060Y108276D02*
X186060Y107005D01*
X186695Y106369D01*
X189237Y106369D01*
X189873Y107005D01*
X189873Y108276D01*
X189237Y108911D01*
X189873Y110111D02*
X186060Y110111D01*
X189873Y110111D02*
X189873Y112653D01*
X189873Y113853D02*
X186060Y113853D01*
X188602Y113853D02*
X186060Y116395D01*
X187966Y114489D02*
X189873Y116395D01*
X180599Y82669D02*
X179964Y82034D01*
X179964Y80763D01*
X180599Y80127D01*
X181235Y80127D01*
X181870Y80763D01*
X181870Y82034D01*
X182506Y82669D01*
X183141Y82669D01*
X183777Y82034D01*
X183777Y80763D01*
X183141Y80127D01*
X179964Y85776D02*
X180599Y86411D01*
X179964Y85776D02*
X179964Y84505D01*
X180599Y83869D01*
X181235Y83869D01*
X181870Y84505D01*
X181870Y85776D01*
X182506Y86411D01*
X183141Y86411D01*
X183777Y85776D01*
X183777Y84505D01*
X183141Y83869D01*
X186060Y82034D02*
X186695Y82669D01*
X186060Y82034D02*
X186060Y80763D01*
X186695Y80127D01*
X189237Y80127D01*
X189873Y80763D01*
X189873Y82034D01*
X189237Y82669D01*
X186060Y85776D02*
X186695Y86411D01*
X186060Y85776D02*
X186060Y84505D01*
X186695Y83869D01*
X187331Y83869D01*
X187966Y84505D01*
X187966Y85776D01*
X188602Y86411D01*
X189237Y86411D01*
X189873Y85776D01*
X189873Y84505D01*
X189237Y83869D01*
X189873Y52627D02*
X186060Y52627D01*
X187331Y53898D01*
X186060Y55169D01*
X189873Y55169D01*
X189873Y56369D02*
X189873Y57640D01*
X189873Y57005D02*
X186060Y57005D01*
X186060Y57640D02*
X186060Y56369D01*
X186060Y60770D02*
X186695Y61406D01*
X186060Y60770D02*
X186060Y59499D01*
X186695Y58864D01*
X187331Y58864D01*
X187966Y59499D01*
X187966Y60770D01*
X188602Y61406D01*
X189237Y61406D01*
X189873Y60770D01*
X189873Y59499D01*
X189237Y58864D01*
X186060Y63241D02*
X186060Y64512D01*
X186060Y63241D02*
X186695Y62606D01*
X189237Y62606D01*
X189873Y63241D01*
X189873Y64512D01*
X189237Y65148D01*
X186695Y65148D01*
X186060Y64512D01*
X244964Y132034D02*
X245599Y132669D01*
X244964Y132034D02*
X244964Y130763D01*
X245599Y130127D01*
X246235Y130127D01*
X246870Y130763D01*
X246870Y132034D01*
X247506Y132669D01*
X248141Y132669D01*
X248777Y132034D01*
X248777Y130763D01*
X248141Y130127D01*
X248777Y133869D02*
X244964Y133869D01*
X248777Y133869D02*
X248777Y135776D01*
X248141Y136411D01*
X245599Y136411D01*
X244964Y135776D01*
X244964Y133869D01*
X246235Y137611D02*
X248777Y137611D01*
X246235Y137611D02*
X244964Y138882D01*
X246235Y140153D01*
X248777Y140153D01*
X246870Y140153D02*
X246870Y137611D01*
X251060Y130127D02*
X254873Y130127D01*
X252331Y131398D02*
X251060Y130127D01*
X252331Y131398D02*
X251060Y132669D01*
X254873Y132669D01*
X251060Y134505D02*
X251060Y135776D01*
X251060Y134505D02*
X251695Y133869D01*
X254237Y133869D01*
X254873Y134505D01*
X254873Y135776D01*
X254237Y136411D01*
X251695Y136411D01*
X251060Y135776D01*
X251060Y139518D02*
X251695Y140153D01*
X251060Y139518D02*
X251060Y138247D01*
X251695Y137611D01*
X252331Y137611D01*
X252966Y138247D01*
X252966Y139518D01*
X253602Y140153D01*
X254237Y140153D01*
X254873Y139518D01*
X254873Y138247D01*
X254237Y137611D01*
X254873Y141353D02*
X254873Y142624D01*
X254873Y141989D02*
X251060Y141989D01*
X251060Y142624D02*
X251060Y141353D01*
X249873Y100127D02*
X246060Y100127D01*
X246060Y102034D01*
X246695Y102669D01*
X247966Y102669D01*
X248602Y102034D01*
X248602Y100127D01*
X248602Y101398D02*
X249873Y102669D01*
X246060Y103869D02*
X246060Y106411D01*
X246060Y103869D02*
X249873Y103869D01*
X249873Y106411D01*
X247966Y105140D02*
X247966Y103869D01*
X246060Y109518D02*
X246695Y110153D01*
X246060Y109518D02*
X246060Y108247D01*
X246695Y107611D01*
X247331Y107611D01*
X247966Y108247D01*
X247966Y109518D01*
X248602Y110153D01*
X249237Y110153D01*
X249873Y109518D01*
X249873Y108247D01*
X249237Y107611D01*
X246060Y111353D02*
X246060Y113895D01*
X246060Y111353D02*
X249873Y111353D01*
X249873Y113895D01*
X247966Y112624D02*
X247966Y111353D01*
X249873Y116366D02*
X246060Y116366D01*
X246060Y115095D02*
X246060Y117637D01*
X244964Y80169D02*
X244964Y77627D01*
X248777Y77627D01*
X248777Y80169D01*
X246870Y78898D02*
X246870Y77627D01*
X244964Y82005D02*
X244964Y83276D01*
X244964Y82005D02*
X245599Y81369D01*
X248141Y81369D01*
X248777Y82005D01*
X248777Y83276D01*
X248141Y83911D01*
X245599Y83911D01*
X244964Y83276D01*
X244964Y87018D02*
X245599Y87653D01*
X244964Y87018D02*
X244964Y85747D01*
X245599Y85111D01*
X248141Y85111D01*
X248777Y85747D01*
X248777Y87018D01*
X248141Y87653D01*
X252331Y77627D02*
X254873Y77627D01*
X252331Y77627D02*
X251060Y78898D01*
X252331Y80169D01*
X254873Y80169D01*
X252966Y80169D02*
X252966Y77627D01*
X254237Y81369D02*
X251060Y81369D01*
X254237Y81369D02*
X254873Y82005D01*
X254873Y83276D01*
X254237Y83911D01*
X251060Y83911D01*
X251060Y85111D02*
X254873Y87653D01*
X254873Y85111D02*
X251060Y87653D01*
X252331Y88853D02*
X251060Y90124D01*
X254873Y90124D01*
X254873Y88853D02*
X254873Y91395D01*
D10*
X247585Y53983D02*
X246653Y53050D01*
X246653Y51186D01*
X247585Y50254D01*
X251314Y50254D01*
X252246Y51186D01*
X252246Y53050D01*
X251314Y53983D01*
X249450Y53983D01*
X249450Y52118D01*
X252246Y55867D02*
X246653Y55867D01*
X252246Y59596D01*
X246653Y59596D01*
X246653Y61480D02*
X252246Y61480D01*
X252246Y64277D01*
X251314Y65209D01*
X247585Y65209D01*
X246653Y64277D01*
X246653Y61480D01*
D12*
X124000Y277000D02*
X124000Y283000D01*
X136000Y283000D02*
X136000Y277000D01*
D13*
X125992Y308447D02*
X127220Y309676D01*
X125992Y308447D02*
X125992Y305990D01*
X127220Y304761D01*
X132135Y304761D01*
X133364Y305990D01*
X133364Y308447D01*
X132135Y309676D01*
X128449Y312245D02*
X125992Y314703D01*
X133364Y314703D01*
X133364Y317160D02*
X133364Y312245D01*
D12*
X217000Y176000D02*
X223000Y176000D01*
X223000Y164000D02*
X217000Y164000D01*
D13*
X217676Y184780D02*
X216447Y186008D01*
X213990Y186008D01*
X212761Y184780D01*
X212761Y179865D01*
X213990Y178636D01*
X216447Y178636D01*
X217676Y179865D01*
X220245Y178636D02*
X225160Y178636D01*
X220245Y178636D02*
X225160Y183551D01*
X225160Y184780D01*
X223931Y186008D01*
X221474Y186008D01*
X220245Y184780D01*
D12*
X183000Y176000D02*
X177000Y176000D01*
X177000Y164000D02*
X183000Y164000D01*
D13*
X162761Y178636D02*
X162761Y186008D01*
X167676Y186008D01*
X165218Y182322D02*
X162761Y182322D01*
X170245Y178636D02*
X170245Y186008D01*
X173931Y186008D01*
X175160Y184780D01*
X175160Y183551D01*
X173931Y182322D01*
X175160Y181093D01*
X175160Y179865D01*
X173931Y178636D01*
X170245Y178636D01*
X170245Y182322D02*
X173931Y182322D01*
X177729Y183551D02*
X180187Y186008D01*
X180187Y178636D01*
X182644Y178636D02*
X177729Y178636D01*
D12*
X184000Y281000D02*
X190000Y281000D01*
X190000Y269000D02*
X184000Y269000D01*
D13*
X203761Y276636D02*
X203761Y284008D01*
X207447Y284008D01*
X208676Y282780D01*
X208676Y280322D01*
X207447Y279093D01*
X203761Y279093D01*
X206218Y279093D02*
X208676Y276636D01*
X211245Y281551D02*
X213703Y284008D01*
X213703Y276636D01*
X216160Y276636D02*
X211245Y276636D01*
D12*
X190000Y301000D02*
X184000Y301000D01*
X184000Y289000D02*
X190000Y289000D01*
D13*
X202761Y298636D02*
X202761Y306008D01*
X206447Y306008D01*
X207676Y304780D01*
X207676Y302322D01*
X206447Y301093D01*
X202761Y301093D01*
X205218Y301093D02*
X207676Y298636D01*
X210245Y298636D02*
X215160Y298636D01*
X210245Y298636D02*
X215160Y303551D01*
X215160Y304780D01*
X213931Y306008D01*
X211474Y306008D01*
X210245Y304780D01*
D14*
X81400Y280500D03*
X114000Y256000D03*
D13*
X105413Y248625D02*
X105413Y242482D01*
X106641Y241253D01*
X109099Y241253D01*
X110328Y242482D01*
X110328Y248625D01*
X112897Y246168D02*
X115354Y248625D01*
X115354Y241253D01*
X112897Y241253D02*
X117812Y241253D01*
D15*
X178700Y150000D02*
X178700Y-30800D01*
X178700Y150000D02*
X21300Y150000D01*
X21300Y-30800D01*
X178700Y-30800D01*
D13*
X158296Y155381D02*
X153381Y162753D01*
X158296Y162753D02*
X153381Y155381D01*
X160865Y160296D02*
X163323Y162753D01*
X163323Y155381D01*
X165780Y155381D02*
X160865Y155381D01*
D12*
X192100Y141950D02*
X198450Y148300D01*
X192100Y129250D02*
X198450Y122900D01*
X192100Y116550D01*
X192100Y103850D02*
X198450Y97500D01*
X192100Y91150D01*
X192100Y78450D02*
X198450Y72100D01*
X192100Y65750D01*
X192100Y53050D02*
X198450Y46700D01*
X198450Y148300D02*
X236550Y148300D01*
X242900Y141950D01*
X242900Y129250D01*
X236550Y122900D01*
X242900Y116550D01*
X242900Y103850D01*
X236550Y97500D01*
X242900Y91150D01*
X242900Y78450D01*
X236550Y72100D01*
X242900Y65750D01*
X242900Y53050D01*
X236550Y46700D01*
X198450Y46700D01*
X192100Y53050D02*
X192100Y65750D01*
X192100Y78450D02*
X192100Y91150D01*
X192100Y103850D02*
X192100Y116550D01*
X192100Y129250D02*
X192100Y141950D01*
D13*
X210081Y40003D02*
X214996Y32631D01*
X210081Y32631D02*
X214996Y40003D01*
X217565Y32631D02*
X222480Y32631D01*
X217565Y32631D02*
X222480Y37546D01*
X222480Y38775D01*
X221251Y40003D01*
X218794Y40003D01*
X217565Y38775D01*
M02*
