G04 EAGLE Gerber RS-274X export*
G75*
%MOMM*%
%FSLAX34Y34*%
%LPD*%
%INSoldermask Top*%
%IPPOS*%
%AMOC8*
5,1,8,0,0,1.08239X$1,22.5*%
G01*
%ADD10R,1.301600X0.901600*%
%ADD11R,0.901600X1.301600*%
%ADD12R,0.801600X0.801600*%
%ADD13C,1.101600*%
%ADD14R,0.901600X3.301600*%
%ADD15R,3.221600X2.641600*%
%ADD16C,3.401600*%
%ADD17R,1.625600X1.625600*%
%ADD18P,1.759533X8X292.500000*%
%ADD19C,3.403600*%


D10*
X130000Y271000D03*
X130000Y289000D03*
D11*
X211000Y170000D03*
X229000Y170000D03*
X171000Y170000D03*
X189000Y170000D03*
X178000Y275000D03*
X196000Y275000D03*
X178000Y295000D03*
X196000Y295000D03*
D12*
X102700Y259000D03*
X90000Y259000D03*
X77300Y259000D03*
X69000Y267300D03*
X69000Y280000D03*
X69000Y292700D03*
X77300Y301000D03*
X90000Y301000D03*
X102700Y301000D03*
X111000Y292700D03*
X111000Y280000D03*
X111000Y267300D03*
D13*
X81400Y280500D03*
D14*
X144450Y165200D03*
X131750Y165200D03*
X119050Y165200D03*
X106350Y165200D03*
X93650Y165200D03*
X80950Y165200D03*
X68250Y165200D03*
X55550Y165200D03*
D15*
X181700Y20000D03*
X18300Y20000D03*
D16*
X157150Y50500D03*
X42850Y50500D03*
D17*
X204800Y135600D03*
D18*
X230200Y135600D03*
X204800Y110200D03*
X230200Y110200D03*
X204800Y84800D03*
X230200Y84800D03*
X204800Y59400D03*
X230200Y59400D03*
D19*
X30000Y340000D03*
X150000Y340000D03*
X30000Y220000D03*
X150000Y220000D03*
X230000Y340000D03*
X230000Y220000D03*
M02*
