G04 EAGLE Gerber RS-274X export*
G75*
%MOMM*%
%FSLAX34Y34*%
%LPD*%
%INTop Copper*%
%IPPOS*%
%AMOC8*
5,1,8,0,0,1.08239X$1,22.5*%
G01*
%ADD10R,1.200000X0.800000*%
%ADD11R,0.800000X1.200000*%
%ADD12R,0.800000X3.200000*%
%ADD13R,3.120000X2.540000*%
%ADD14R,1.524000X1.524000*%
%ADD15P,1.649562X8X292.500000*%
%ADD16R,1.300000X1.300000*%
%ADD17C,0.406400*%
%ADD18P,0.654629X8X22.500000*%
%ADD19C,0.203200*%

G36*
X256502Y2549D02*
X256502Y2549D01*
X256560Y2547D01*
X256642Y2569D01*
X256726Y2581D01*
X256779Y2604D01*
X256835Y2619D01*
X256908Y2662D01*
X256985Y2697D01*
X257030Y2735D01*
X257080Y2764D01*
X257138Y2826D01*
X257202Y2880D01*
X257234Y2929D01*
X257274Y2972D01*
X257313Y3047D01*
X257360Y3117D01*
X257377Y3173D01*
X257404Y3225D01*
X257415Y3293D01*
X257445Y3388D01*
X257448Y3488D01*
X257459Y3556D01*
X257459Y366444D01*
X257451Y366502D01*
X257453Y366560D01*
X257431Y366642D01*
X257419Y366726D01*
X257396Y366779D01*
X257381Y366835D01*
X257338Y366908D01*
X257303Y366985D01*
X257265Y367030D01*
X257236Y367080D01*
X257174Y367138D01*
X257120Y367202D01*
X257071Y367234D01*
X257028Y367274D01*
X256953Y367313D01*
X256883Y367360D01*
X256827Y367377D01*
X256775Y367404D01*
X256707Y367415D01*
X256612Y367445D01*
X256512Y367448D01*
X256444Y367459D01*
X3556Y367459D01*
X3498Y367451D01*
X3440Y367453D01*
X3358Y367431D01*
X3274Y367419D01*
X3221Y367396D01*
X3165Y367381D01*
X3092Y367338D01*
X3015Y367303D01*
X2970Y367265D01*
X2920Y367236D01*
X2862Y367174D01*
X2798Y367120D01*
X2766Y367071D01*
X2726Y367028D01*
X2687Y366953D01*
X2640Y366883D01*
X2623Y366827D01*
X2596Y366775D01*
X2585Y366707D01*
X2555Y366612D01*
X2552Y366512D01*
X2541Y366444D01*
X2541Y36256D01*
X2549Y36198D01*
X2547Y36140D01*
X2569Y36058D01*
X2581Y35974D01*
X2604Y35921D01*
X2619Y35865D01*
X2662Y35792D01*
X2697Y35715D01*
X2735Y35670D01*
X2764Y35620D01*
X2826Y35562D01*
X2880Y35498D01*
X2929Y35466D01*
X2972Y35426D01*
X3047Y35387D01*
X3117Y35340D01*
X3173Y35323D01*
X3225Y35296D01*
X3293Y35285D01*
X3388Y35255D01*
X3488Y35252D01*
X3556Y35241D01*
X16269Y35241D01*
X16269Y21016D01*
X16277Y20958D01*
X16275Y20900D01*
X16297Y20818D01*
X16309Y20735D01*
X16333Y20681D01*
X16347Y20625D01*
X16390Y20552D01*
X16425Y20475D01*
X16463Y20431D01*
X16493Y20380D01*
X16554Y20323D01*
X16609Y20258D01*
X16657Y20226D01*
X16700Y20186D01*
X16775Y20147D01*
X16845Y20101D01*
X16901Y20083D01*
X16953Y20056D01*
X17021Y20045D01*
X17116Y20015D01*
X17216Y20012D01*
X17284Y20001D01*
X18301Y20001D01*
X18301Y19999D01*
X17284Y19999D01*
X17226Y19991D01*
X17168Y19992D01*
X17086Y19971D01*
X17003Y19959D01*
X16949Y19935D01*
X16893Y19921D01*
X16820Y19878D01*
X16743Y19843D01*
X16698Y19805D01*
X16648Y19775D01*
X16590Y19714D01*
X16526Y19659D01*
X16494Y19611D01*
X16454Y19568D01*
X16415Y19493D01*
X16369Y19423D01*
X16351Y19367D01*
X16324Y19315D01*
X16313Y19247D01*
X16283Y19152D01*
X16280Y19052D01*
X16269Y18984D01*
X16269Y4759D01*
X3556Y4759D01*
X3498Y4751D01*
X3440Y4753D01*
X3358Y4731D01*
X3274Y4719D01*
X3221Y4696D01*
X3165Y4681D01*
X3092Y4638D01*
X3015Y4603D01*
X2970Y4565D01*
X2920Y4536D01*
X2862Y4474D01*
X2798Y4420D01*
X2766Y4371D01*
X2726Y4328D01*
X2687Y4253D01*
X2640Y4183D01*
X2623Y4127D01*
X2596Y4075D01*
X2585Y4007D01*
X2555Y3912D01*
X2552Y3812D01*
X2541Y3744D01*
X2541Y3556D01*
X2549Y3498D01*
X2547Y3440D01*
X2569Y3358D01*
X2581Y3274D01*
X2604Y3221D01*
X2619Y3165D01*
X2662Y3092D01*
X2697Y3015D01*
X2735Y2970D01*
X2764Y2920D01*
X2826Y2862D01*
X2880Y2798D01*
X2929Y2766D01*
X2972Y2726D01*
X3047Y2687D01*
X3117Y2640D01*
X3173Y2623D01*
X3225Y2596D01*
X3293Y2585D01*
X3388Y2555D01*
X3488Y2552D01*
X3556Y2541D01*
X256444Y2541D01*
X256502Y2549D01*
G37*
%LPC*%
G36*
X203302Y52247D02*
X203302Y52247D01*
X197639Y57909D01*
X197641Y57952D01*
X197619Y58034D01*
X197607Y58118D01*
X197584Y58171D01*
X197569Y58227D01*
X197526Y58300D01*
X197491Y58377D01*
X197453Y58422D01*
X197424Y58472D01*
X197362Y58530D01*
X197308Y58594D01*
X197259Y58626D01*
X197216Y58666D01*
X197141Y58705D01*
X197071Y58752D01*
X197015Y58769D01*
X196963Y58796D01*
X196895Y58807D01*
X196800Y58837D01*
X196700Y58840D01*
X196632Y58851D01*
X184837Y58851D01*
X170035Y73654D01*
X169965Y73706D01*
X169901Y73766D01*
X169851Y73792D01*
X169807Y73825D01*
X169726Y73856D01*
X169648Y73896D01*
X169600Y73904D01*
X169542Y73926D01*
X169394Y73938D01*
X169317Y73951D01*
X90054Y73951D01*
X87970Y76034D01*
X87970Y76035D01*
X67285Y96720D01*
X67284Y96721D01*
X65201Y98804D01*
X65201Y146152D01*
X65193Y146210D01*
X65195Y146268D01*
X65173Y146350D01*
X65161Y146434D01*
X65138Y146487D01*
X65123Y146543D01*
X65080Y146616D01*
X65045Y146693D01*
X65007Y146738D01*
X64978Y146788D01*
X64916Y146846D01*
X64862Y146910D01*
X64813Y146942D01*
X64770Y146982D01*
X64695Y147021D01*
X64625Y147068D01*
X64569Y147085D01*
X64517Y147112D01*
X64449Y147123D01*
X64354Y147153D01*
X64254Y147156D01*
X64186Y147167D01*
X63408Y147167D01*
X62977Y147598D01*
X62930Y147633D01*
X62890Y147676D01*
X62817Y147718D01*
X62750Y147769D01*
X62695Y147790D01*
X62645Y147820D01*
X62563Y147840D01*
X62484Y147870D01*
X62426Y147875D01*
X62369Y147890D01*
X62285Y147887D01*
X62201Y147894D01*
X62144Y147882D01*
X62085Y147881D01*
X62005Y147855D01*
X61922Y147838D01*
X61870Y147811D01*
X61815Y147793D01*
X61758Y147753D01*
X61670Y147707D01*
X61598Y147638D01*
X61541Y147598D01*
X61110Y147167D01*
X60531Y146832D01*
X59884Y146659D01*
X57549Y146659D01*
X57549Y164216D01*
X57541Y164274D01*
X57543Y164332D01*
X57521Y164414D01*
X57509Y164497D01*
X57486Y164551D01*
X57471Y164607D01*
X57428Y164680D01*
X57393Y164757D01*
X57355Y164801D01*
X57326Y164852D01*
X57264Y164909D01*
X57210Y164974D01*
X57161Y165006D01*
X57118Y165046D01*
X57043Y165085D01*
X56973Y165131D01*
X56917Y165149D01*
X56865Y165176D01*
X56797Y165187D01*
X56755Y165200D01*
X56816Y165209D01*
X56869Y165233D01*
X56925Y165247D01*
X56998Y165291D01*
X57075Y165325D01*
X57120Y165363D01*
X57170Y165393D01*
X57228Y165454D01*
X57292Y165509D01*
X57324Y165557D01*
X57364Y165600D01*
X57403Y165675D01*
X57450Y165745D01*
X57467Y165801D01*
X57494Y165853D01*
X57505Y165921D01*
X57535Y166016D01*
X57538Y166116D01*
X57549Y166184D01*
X57549Y183741D01*
X59884Y183741D01*
X60531Y183568D01*
X61110Y183233D01*
X61541Y182802D01*
X61588Y182767D01*
X61628Y182724D01*
X61701Y182682D01*
X61768Y182631D01*
X61823Y182610D01*
X61874Y182580D01*
X61955Y182560D01*
X62034Y182530D01*
X62093Y182525D01*
X62149Y182510D01*
X62233Y182513D01*
X62317Y182506D01*
X62375Y182518D01*
X62433Y182519D01*
X62514Y182545D01*
X62596Y182562D01*
X62648Y182589D01*
X62704Y182607D01*
X62760Y182647D01*
X62849Y182693D01*
X62921Y182762D01*
X62977Y182802D01*
X63408Y183233D01*
X73092Y183233D01*
X73882Y182443D01*
X73929Y182408D01*
X73969Y182365D01*
X74042Y182322D01*
X74109Y182272D01*
X74164Y182251D01*
X74214Y182221D01*
X74296Y182201D01*
X74375Y182170D01*
X74433Y182166D01*
X74490Y182151D01*
X74574Y182154D01*
X74658Y182147D01*
X74716Y182158D01*
X74774Y182160D01*
X74854Y182186D01*
X74937Y182203D01*
X74989Y182230D01*
X75045Y182248D01*
X75101Y182288D01*
X75189Y182334D01*
X75262Y182402D01*
X75318Y182443D01*
X76108Y183233D01*
X85792Y183233D01*
X86582Y182443D01*
X86629Y182408D01*
X86669Y182365D01*
X86742Y182322D01*
X86809Y182272D01*
X86864Y182251D01*
X86914Y182221D01*
X86996Y182201D01*
X87075Y182170D01*
X87133Y182166D01*
X87190Y182151D01*
X87274Y182154D01*
X87358Y182147D01*
X87416Y182158D01*
X87474Y182160D01*
X87554Y182186D01*
X87637Y182203D01*
X87689Y182230D01*
X87745Y182248D01*
X87801Y182288D01*
X87889Y182334D01*
X87962Y182402D01*
X88018Y182443D01*
X88808Y183233D01*
X98492Y183233D01*
X99282Y182443D01*
X99329Y182408D01*
X99369Y182365D01*
X99442Y182322D01*
X99509Y182272D01*
X99564Y182251D01*
X99614Y182221D01*
X99696Y182201D01*
X99775Y182170D01*
X99833Y182166D01*
X99890Y182151D01*
X99974Y182154D01*
X100058Y182147D01*
X100116Y182158D01*
X100174Y182160D01*
X100254Y182186D01*
X100337Y182203D01*
X100389Y182230D01*
X100445Y182248D01*
X100501Y182288D01*
X100589Y182334D01*
X100662Y182402D01*
X100718Y182443D01*
X101508Y183233D01*
X111192Y183233D01*
X111982Y182443D01*
X112029Y182408D01*
X112069Y182365D01*
X112142Y182322D01*
X112209Y182272D01*
X112264Y182251D01*
X112314Y182221D01*
X112396Y182201D01*
X112475Y182170D01*
X112533Y182166D01*
X112590Y182151D01*
X112674Y182154D01*
X112758Y182147D01*
X112816Y182158D01*
X112874Y182160D01*
X112954Y182186D01*
X113037Y182203D01*
X113089Y182230D01*
X113145Y182248D01*
X113201Y182288D01*
X113289Y182334D01*
X113362Y182402D01*
X113418Y182443D01*
X114208Y183233D01*
X114986Y183233D01*
X115044Y183241D01*
X115102Y183239D01*
X115184Y183261D01*
X115268Y183273D01*
X115321Y183296D01*
X115377Y183311D01*
X115450Y183354D01*
X115527Y183389D01*
X115572Y183427D01*
X115622Y183456D01*
X115680Y183518D01*
X115744Y183572D01*
X115776Y183621D01*
X115816Y183664D01*
X115855Y183739D01*
X115902Y183809D01*
X115919Y183865D01*
X115946Y183917D01*
X115957Y183985D01*
X115987Y184080D01*
X115990Y184180D01*
X116001Y184248D01*
X116001Y189427D01*
X115989Y189514D01*
X115986Y189601D01*
X115969Y189654D01*
X115961Y189708D01*
X115926Y189788D01*
X115899Y189871D01*
X115871Y189911D01*
X115845Y189968D01*
X115749Y190081D01*
X115704Y190145D01*
X113993Y191855D01*
X113993Y194275D01*
X113981Y194361D01*
X113978Y194449D01*
X113961Y194501D01*
X113953Y194556D01*
X113918Y194636D01*
X113891Y194719D01*
X113863Y194758D01*
X113837Y194816D01*
X113741Y194929D01*
X113696Y194993D01*
X76951Y231737D01*
X76951Y260452D01*
X76944Y260504D01*
X76945Y260531D01*
X76944Y260534D01*
X76945Y260568D01*
X76923Y260650D01*
X76911Y260734D01*
X76888Y260787D01*
X76873Y260843D01*
X76830Y260916D01*
X76795Y260993D01*
X76757Y261038D01*
X76728Y261088D01*
X76666Y261146D01*
X76612Y261210D01*
X76563Y261242D01*
X76520Y261282D01*
X76445Y261321D01*
X76375Y261368D01*
X76319Y261385D01*
X76267Y261412D01*
X76199Y261423D01*
X76104Y261453D01*
X76004Y261456D01*
X75936Y261467D01*
X72658Y261467D01*
X71467Y262658D01*
X71467Y277342D01*
X72658Y278533D01*
X87342Y278533D01*
X88533Y277342D01*
X88533Y262658D01*
X87342Y261467D01*
X84064Y261467D01*
X84006Y261459D01*
X83948Y261461D01*
X83866Y261439D01*
X83782Y261427D01*
X83729Y261404D01*
X83673Y261389D01*
X83600Y261346D01*
X83523Y261311D01*
X83478Y261273D01*
X83428Y261244D01*
X83370Y261182D01*
X83306Y261128D01*
X83274Y261079D01*
X83234Y261036D01*
X83195Y260961D01*
X83148Y260891D01*
X83131Y260835D01*
X83104Y260783D01*
X83093Y260715D01*
X83063Y260620D01*
X83060Y260520D01*
X83049Y260452D01*
X83049Y234683D01*
X83061Y234597D01*
X83064Y234509D01*
X83081Y234457D01*
X83089Y234402D01*
X83124Y234322D01*
X83151Y234239D01*
X83179Y234200D01*
X83205Y234142D01*
X83301Y234029D01*
X83346Y233965D01*
X118007Y199304D01*
X118077Y199252D01*
X118141Y199192D01*
X118191Y199166D01*
X118235Y199133D01*
X118316Y199102D01*
X118394Y199062D01*
X118442Y199054D01*
X118500Y199032D01*
X118648Y199020D01*
X118725Y199007D01*
X121145Y199007D01*
X124107Y196045D01*
X124107Y191855D01*
X122396Y190145D01*
X122344Y190075D01*
X122284Y190011D01*
X122258Y189962D01*
X122225Y189918D01*
X122194Y189836D01*
X122154Y189758D01*
X122146Y189710D01*
X122124Y189652D01*
X122112Y189504D01*
X122099Y189427D01*
X122099Y184248D01*
X122106Y184194D01*
X122105Y184154D01*
X122106Y184152D01*
X122105Y184132D01*
X122127Y184050D01*
X122139Y183966D01*
X122162Y183913D01*
X122177Y183857D01*
X122220Y183784D01*
X122255Y183707D01*
X122293Y183662D01*
X122322Y183612D01*
X122384Y183554D01*
X122438Y183490D01*
X122487Y183458D01*
X122530Y183418D01*
X122605Y183379D01*
X122675Y183332D01*
X122731Y183315D01*
X122783Y183288D01*
X122851Y183277D01*
X122946Y183247D01*
X123046Y183244D01*
X123114Y183233D01*
X123892Y183233D01*
X124682Y182443D01*
X124729Y182408D01*
X124769Y182365D01*
X124842Y182322D01*
X124909Y182272D01*
X124964Y182251D01*
X125014Y182221D01*
X125096Y182201D01*
X125175Y182170D01*
X125233Y182166D01*
X125290Y182151D01*
X125374Y182154D01*
X125458Y182147D01*
X125516Y182158D01*
X125574Y182160D01*
X125654Y182186D01*
X125737Y182203D01*
X125789Y182230D01*
X125845Y182248D01*
X125901Y182288D01*
X125989Y182334D01*
X126062Y182402D01*
X126118Y182443D01*
X126908Y183233D01*
X127686Y183233D01*
X127744Y183241D01*
X127802Y183239D01*
X127884Y183261D01*
X127968Y183273D01*
X128021Y183296D01*
X128077Y183311D01*
X128150Y183354D01*
X128227Y183389D01*
X128272Y183427D01*
X128322Y183456D01*
X128380Y183518D01*
X128444Y183572D01*
X128476Y183621D01*
X128516Y183664D01*
X128555Y183739D01*
X128602Y183809D01*
X128619Y183865D01*
X128646Y183917D01*
X128657Y183985D01*
X128687Y184080D01*
X128690Y184180D01*
X128701Y184248D01*
X128701Y194567D01*
X128689Y194653D01*
X128686Y194741D01*
X128669Y194793D01*
X128661Y194848D01*
X128626Y194928D01*
X128599Y195011D01*
X128571Y195050D01*
X128545Y195108D01*
X128449Y195221D01*
X128404Y195285D01*
X122043Y201646D01*
X121973Y201698D01*
X121909Y201758D01*
X121859Y201784D01*
X121815Y201817D01*
X121734Y201848D01*
X121656Y201888D01*
X121608Y201896D01*
X121550Y201918D01*
X121402Y201930D01*
X121325Y201943D01*
X118905Y201943D01*
X115943Y204905D01*
X115943Y207325D01*
X115931Y207411D01*
X115928Y207499D01*
X115911Y207551D01*
X115903Y207606D01*
X115868Y207686D01*
X115841Y207769D01*
X115813Y207808D01*
X115787Y207866D01*
X115691Y207979D01*
X115646Y208043D01*
X96951Y226737D01*
X96951Y260452D01*
X96944Y260504D01*
X96945Y260531D01*
X96944Y260534D01*
X96945Y260568D01*
X96923Y260650D01*
X96911Y260734D01*
X96888Y260787D01*
X96873Y260843D01*
X96830Y260916D01*
X96795Y260993D01*
X96757Y261038D01*
X96728Y261088D01*
X96666Y261146D01*
X96612Y261210D01*
X96563Y261242D01*
X96520Y261282D01*
X96445Y261321D01*
X96375Y261368D01*
X96319Y261385D01*
X96267Y261412D01*
X96199Y261423D01*
X96104Y261453D01*
X96004Y261456D01*
X95936Y261467D01*
X92658Y261467D01*
X91467Y262658D01*
X91467Y277342D01*
X92658Y278533D01*
X107342Y278533D01*
X108533Y277342D01*
X108533Y262658D01*
X107342Y261467D01*
X104064Y261467D01*
X104006Y261459D01*
X103948Y261461D01*
X103866Y261439D01*
X103782Y261427D01*
X103729Y261404D01*
X103673Y261389D01*
X103600Y261346D01*
X103523Y261311D01*
X103478Y261273D01*
X103428Y261244D01*
X103370Y261182D01*
X103306Y261128D01*
X103274Y261079D01*
X103234Y261036D01*
X103195Y260961D01*
X103148Y260891D01*
X103131Y260835D01*
X103104Y260783D01*
X103093Y260715D01*
X103063Y260620D01*
X103060Y260520D01*
X103049Y260452D01*
X103049Y229683D01*
X103061Y229597D01*
X103064Y229509D01*
X103081Y229457D01*
X103089Y229402D01*
X103124Y229322D01*
X103151Y229239D01*
X103179Y229200D01*
X103205Y229142D01*
X103301Y229029D01*
X103346Y228965D01*
X119957Y212354D01*
X120027Y212302D01*
X120091Y212242D01*
X120141Y212216D01*
X120185Y212183D01*
X120266Y212152D01*
X120344Y212112D01*
X120392Y212104D01*
X120450Y212082D01*
X120598Y212070D01*
X120675Y212057D01*
X123095Y212057D01*
X126057Y209095D01*
X126057Y206675D01*
X126069Y206589D01*
X126072Y206501D01*
X126089Y206449D01*
X126097Y206394D01*
X126132Y206314D01*
X126159Y206231D01*
X126187Y206192D01*
X126213Y206134D01*
X126309Y206021D01*
X126354Y205957D01*
X134799Y197513D01*
X134799Y184248D01*
X134806Y184194D01*
X134805Y184154D01*
X134806Y184152D01*
X134805Y184132D01*
X134827Y184050D01*
X134839Y183966D01*
X134862Y183913D01*
X134877Y183857D01*
X134920Y183784D01*
X134955Y183707D01*
X134993Y183662D01*
X135022Y183612D01*
X135084Y183554D01*
X135138Y183490D01*
X135187Y183458D01*
X135230Y183418D01*
X135305Y183379D01*
X135375Y183332D01*
X135431Y183315D01*
X135483Y183288D01*
X135551Y183277D01*
X135646Y183247D01*
X135746Y183244D01*
X135814Y183233D01*
X136592Y183233D01*
X137382Y182443D01*
X137429Y182408D01*
X137469Y182365D01*
X137542Y182322D01*
X137609Y182272D01*
X137664Y182251D01*
X137714Y182221D01*
X137796Y182201D01*
X137875Y182170D01*
X137933Y182166D01*
X137990Y182151D01*
X138074Y182154D01*
X138158Y182147D01*
X138216Y182158D01*
X138274Y182160D01*
X138354Y182186D01*
X138437Y182203D01*
X138489Y182230D01*
X138545Y182248D01*
X138601Y182288D01*
X138689Y182334D01*
X138762Y182402D01*
X138818Y182443D01*
X139608Y183233D01*
X149292Y183233D01*
X150483Y182042D01*
X150483Y177580D01*
X150491Y177522D01*
X150489Y177464D01*
X150511Y177382D01*
X150523Y177298D01*
X150546Y177245D01*
X150561Y177189D01*
X150604Y177116D01*
X150639Y177039D01*
X150677Y176994D01*
X150706Y176944D01*
X150768Y176886D01*
X150822Y176822D01*
X150871Y176790D01*
X150914Y176750D01*
X150989Y176711D01*
X151059Y176664D01*
X151115Y176647D01*
X151167Y176620D01*
X151235Y176609D01*
X151330Y176579D01*
X151430Y176576D01*
X151498Y176565D01*
X153952Y176565D01*
X154010Y176573D01*
X154068Y176571D01*
X154150Y176593D01*
X154234Y176605D01*
X154287Y176628D01*
X154343Y176643D01*
X154416Y176686D01*
X154493Y176721D01*
X154538Y176759D01*
X154588Y176788D01*
X154646Y176850D01*
X154710Y176904D01*
X154742Y176953D01*
X154782Y176996D01*
X154821Y177071D01*
X154868Y177141D01*
X154885Y177197D01*
X154912Y177249D01*
X154923Y177317D01*
X154953Y177412D01*
X154956Y177512D01*
X154967Y177580D01*
X154967Y179342D01*
X156158Y180533D01*
X165842Y180533D01*
X167033Y179342D01*
X167033Y165658D01*
X165803Y164428D01*
X165798Y164427D01*
X165745Y164404D01*
X165689Y164389D01*
X165616Y164346D01*
X165539Y164311D01*
X165494Y164273D01*
X165444Y164244D01*
X165386Y164182D01*
X165322Y164128D01*
X165290Y164079D01*
X165250Y164036D01*
X165211Y163961D01*
X165164Y163891D01*
X165147Y163835D01*
X165120Y163783D01*
X165109Y163715D01*
X165079Y163620D01*
X165076Y163520D01*
X165065Y163452D01*
X165065Y149403D01*
X165077Y149316D01*
X165080Y149229D01*
X165097Y149176D01*
X165105Y149121D01*
X165140Y149041D01*
X165167Y148958D01*
X165195Y148919D01*
X165221Y148862D01*
X165317Y148748D01*
X165362Y148685D01*
X171585Y142462D01*
X171654Y142410D01*
X171718Y142350D01*
X171768Y142324D01*
X171812Y142291D01*
X171894Y142260D01*
X171971Y142220D01*
X172019Y142212D01*
X172078Y142190D01*
X172225Y142178D01*
X172303Y142165D01*
X196632Y142165D01*
X196690Y142173D01*
X196748Y142171D01*
X196830Y142193D01*
X196914Y142205D01*
X196967Y142228D01*
X197023Y142243D01*
X197096Y142286D01*
X197173Y142321D01*
X197218Y142359D01*
X197268Y142388D01*
X197326Y142450D01*
X197390Y142504D01*
X197422Y142553D01*
X197462Y142596D01*
X197501Y142671D01*
X197548Y142741D01*
X197565Y142797D01*
X197592Y142849D01*
X197603Y142917D01*
X197633Y143012D01*
X197636Y143112D01*
X197647Y143180D01*
X197647Y146562D01*
X198838Y147753D01*
X215762Y147753D01*
X216953Y146562D01*
X216953Y129638D01*
X215762Y128447D01*
X198838Y128447D01*
X197647Y129638D01*
X197647Y133020D01*
X197639Y133078D01*
X197641Y133136D01*
X197619Y133218D01*
X197607Y133302D01*
X197584Y133355D01*
X197569Y133411D01*
X197526Y133484D01*
X197491Y133561D01*
X197453Y133606D01*
X197424Y133656D01*
X197362Y133714D01*
X197308Y133778D01*
X197259Y133810D01*
X197216Y133850D01*
X197141Y133889D01*
X197071Y133936D01*
X197015Y133953D01*
X196963Y133980D01*
X196895Y133991D01*
X196800Y134021D01*
X196700Y134024D01*
X196632Y134035D01*
X168515Y134035D01*
X156935Y145615D01*
X156935Y163452D01*
X156927Y163510D01*
X156929Y163568D01*
X156907Y163650D01*
X156895Y163734D01*
X156872Y163787D01*
X156857Y163843D01*
X156814Y163916D01*
X156779Y163993D01*
X156741Y164038D01*
X156712Y164088D01*
X156650Y164146D01*
X156596Y164210D01*
X156547Y164242D01*
X156504Y164282D01*
X156429Y164321D01*
X156359Y164368D01*
X156303Y164385D01*
X156251Y164412D01*
X156206Y164419D01*
X154967Y165658D01*
X154967Y167420D01*
X154959Y167478D01*
X154961Y167536D01*
X154939Y167618D01*
X154927Y167702D01*
X154904Y167755D01*
X154889Y167811D01*
X154846Y167884D01*
X154811Y167961D01*
X154773Y168006D01*
X154744Y168056D01*
X154682Y168114D01*
X154628Y168178D01*
X154579Y168210D01*
X154536Y168250D01*
X154461Y168289D01*
X154391Y168336D01*
X154335Y168353D01*
X154283Y168380D01*
X154215Y168391D01*
X154120Y168421D01*
X154020Y168424D01*
X153952Y168435D01*
X151498Y168435D01*
X151440Y168427D01*
X151382Y168429D01*
X151300Y168407D01*
X151216Y168395D01*
X151163Y168372D01*
X151107Y168357D01*
X151034Y168314D01*
X150957Y168279D01*
X150912Y168241D01*
X150862Y168212D01*
X150804Y168150D01*
X150740Y168096D01*
X150708Y168047D01*
X150668Y168004D01*
X150629Y167929D01*
X150582Y167859D01*
X150565Y167803D01*
X150538Y167751D01*
X150527Y167683D01*
X150497Y167588D01*
X150494Y167488D01*
X150483Y167420D01*
X150483Y148358D01*
X149292Y147167D01*
X139608Y147167D01*
X138818Y147957D01*
X138771Y147993D01*
X138731Y148035D01*
X138658Y148078D01*
X138591Y148128D01*
X138536Y148149D01*
X138486Y148179D01*
X138404Y148199D01*
X138325Y148230D01*
X138267Y148234D01*
X138210Y148249D01*
X138126Y148246D01*
X138042Y148253D01*
X137984Y148242D01*
X137926Y148240D01*
X137846Y148214D01*
X137763Y148197D01*
X137711Y148170D01*
X137655Y148152D01*
X137599Y148112D01*
X137511Y148066D01*
X137438Y147997D01*
X137382Y147957D01*
X136592Y147167D01*
X126908Y147167D01*
X126118Y147957D01*
X126071Y147993D01*
X126031Y148035D01*
X125958Y148078D01*
X125891Y148128D01*
X125836Y148149D01*
X125786Y148179D01*
X125704Y148199D01*
X125625Y148230D01*
X125567Y148234D01*
X125510Y148249D01*
X125426Y148246D01*
X125342Y148253D01*
X125284Y148242D01*
X125226Y148240D01*
X125146Y148214D01*
X125063Y148197D01*
X125011Y148170D01*
X124955Y148152D01*
X124899Y148112D01*
X124811Y148066D01*
X124738Y147997D01*
X124682Y147957D01*
X123892Y147167D01*
X123114Y147167D01*
X123056Y147159D01*
X122998Y147161D01*
X122916Y147139D01*
X122832Y147127D01*
X122779Y147104D01*
X122723Y147089D01*
X122650Y147046D01*
X122573Y147011D01*
X122528Y146973D01*
X122478Y146944D01*
X122420Y146882D01*
X122356Y146828D01*
X122324Y146779D01*
X122284Y146736D01*
X122245Y146661D01*
X122198Y146591D01*
X122181Y146535D01*
X122154Y146483D01*
X122143Y146415D01*
X122113Y146320D01*
X122110Y146220D01*
X122099Y146152D01*
X122099Y131709D01*
X122111Y131623D01*
X122114Y131535D01*
X122131Y131483D01*
X122139Y131428D01*
X122174Y131348D01*
X122201Y131265D01*
X122229Y131226D01*
X122255Y131169D01*
X122351Y131055D01*
X122396Y130992D01*
X137342Y116046D01*
X137411Y115994D01*
X137475Y115934D01*
X137525Y115908D01*
X137569Y115875D01*
X137650Y115844D01*
X137728Y115804D01*
X137776Y115796D01*
X137834Y115774D01*
X137982Y115762D01*
X138059Y115749D01*
X196632Y115749D01*
X196690Y115757D01*
X196748Y115755D01*
X196830Y115777D01*
X196914Y115789D01*
X196967Y115812D01*
X197023Y115827D01*
X197096Y115870D01*
X197173Y115905D01*
X197218Y115943D01*
X197268Y115972D01*
X197326Y116034D01*
X197390Y116088D01*
X197422Y116137D01*
X197462Y116180D01*
X197501Y116255D01*
X197548Y116325D01*
X197565Y116381D01*
X197592Y116433D01*
X197603Y116501D01*
X197633Y116596D01*
X197636Y116687D01*
X203302Y122353D01*
X211298Y122353D01*
X216953Y116698D01*
X216953Y108702D01*
X211298Y103047D01*
X203302Y103047D01*
X197639Y108709D01*
X197641Y108752D01*
X197619Y108834D01*
X197607Y108918D01*
X197584Y108971D01*
X197569Y109027D01*
X197526Y109100D01*
X197491Y109177D01*
X197453Y109222D01*
X197424Y109272D01*
X197362Y109330D01*
X197308Y109394D01*
X197259Y109426D01*
X197216Y109466D01*
X197141Y109505D01*
X197071Y109552D01*
X197015Y109569D01*
X196963Y109596D01*
X196895Y109607D01*
X196800Y109637D01*
X196700Y109640D01*
X196632Y109651D01*
X135113Y109651D01*
X116001Y128763D01*
X116001Y146152D01*
X115993Y146210D01*
X115995Y146268D01*
X115973Y146350D01*
X115961Y146434D01*
X115938Y146487D01*
X115923Y146543D01*
X115880Y146616D01*
X115845Y146693D01*
X115807Y146738D01*
X115778Y146788D01*
X115716Y146846D01*
X115662Y146910D01*
X115613Y146942D01*
X115570Y146982D01*
X115495Y147021D01*
X115425Y147068D01*
X115369Y147085D01*
X115317Y147112D01*
X115249Y147123D01*
X115154Y147153D01*
X115054Y147156D01*
X114986Y147167D01*
X114208Y147167D01*
X113418Y147957D01*
X113371Y147993D01*
X113331Y148035D01*
X113258Y148078D01*
X113191Y148128D01*
X113136Y148149D01*
X113086Y148179D01*
X113004Y148199D01*
X112925Y148230D01*
X112867Y148234D01*
X112810Y148249D01*
X112726Y148246D01*
X112642Y148253D01*
X112584Y148242D01*
X112526Y148240D01*
X112446Y148214D01*
X112363Y148197D01*
X112311Y148170D01*
X112255Y148152D01*
X112199Y148112D01*
X112111Y148066D01*
X112038Y147997D01*
X111982Y147957D01*
X111192Y147167D01*
X110414Y147167D01*
X110356Y147159D01*
X110298Y147161D01*
X110216Y147139D01*
X110132Y147127D01*
X110079Y147104D01*
X110023Y147089D01*
X109950Y147046D01*
X109873Y147011D01*
X109828Y146973D01*
X109778Y146944D01*
X109720Y146882D01*
X109656Y146828D01*
X109624Y146779D01*
X109584Y146736D01*
X109545Y146661D01*
X109498Y146591D01*
X109481Y146535D01*
X109454Y146483D01*
X109443Y146415D01*
X109413Y146320D01*
X109410Y146220D01*
X109399Y146152D01*
X109399Y124853D01*
X109411Y124767D01*
X109414Y124679D01*
X109431Y124627D01*
X109439Y124572D01*
X109474Y124492D01*
X109501Y124409D01*
X109529Y124370D01*
X109555Y124312D01*
X109651Y124199D01*
X109696Y124136D01*
X111407Y122425D01*
X111407Y118236D01*
X108445Y115274D01*
X104255Y115274D01*
X101293Y118236D01*
X101293Y122425D01*
X103004Y124136D01*
X103056Y124205D01*
X103116Y124269D01*
X103142Y124319D01*
X103175Y124363D01*
X103206Y124444D01*
X103246Y124522D01*
X103254Y124570D01*
X103276Y124628D01*
X103288Y124776D01*
X103301Y124853D01*
X103301Y146152D01*
X103293Y146210D01*
X103295Y146268D01*
X103273Y146350D01*
X103261Y146434D01*
X103238Y146487D01*
X103223Y146543D01*
X103180Y146616D01*
X103145Y146693D01*
X103107Y146738D01*
X103078Y146788D01*
X103016Y146846D01*
X102962Y146910D01*
X102913Y146942D01*
X102870Y146982D01*
X102795Y147021D01*
X102725Y147068D01*
X102669Y147085D01*
X102617Y147112D01*
X102549Y147123D01*
X102454Y147153D01*
X102354Y147156D01*
X102286Y147167D01*
X101508Y147167D01*
X100718Y147957D01*
X100671Y147993D01*
X100631Y148035D01*
X100558Y148078D01*
X100491Y148128D01*
X100436Y148149D01*
X100386Y148179D01*
X100304Y148199D01*
X100225Y148230D01*
X100167Y148234D01*
X100110Y148249D01*
X100026Y148246D01*
X99942Y148253D01*
X99884Y148242D01*
X99826Y148240D01*
X99746Y148214D01*
X99663Y148197D01*
X99611Y148170D01*
X99555Y148152D01*
X99499Y148112D01*
X99411Y148066D01*
X99338Y147997D01*
X99282Y147957D01*
X98492Y147167D01*
X97714Y147167D01*
X97656Y147159D01*
X97598Y147161D01*
X97516Y147139D01*
X97432Y147127D01*
X97379Y147104D01*
X97323Y147089D01*
X97250Y147046D01*
X97173Y147011D01*
X97128Y146973D01*
X97078Y146944D01*
X97020Y146882D01*
X96956Y146828D01*
X96924Y146779D01*
X96884Y146736D01*
X96845Y146661D01*
X96798Y146591D01*
X96781Y146535D01*
X96754Y146483D01*
X96743Y146415D01*
X96713Y146320D01*
X96710Y146220D01*
X96699Y146152D01*
X96699Y111975D01*
X96711Y111888D01*
X96714Y111801D01*
X96731Y111748D01*
X96739Y111693D01*
X96774Y111614D01*
X96801Y111530D01*
X96829Y111491D01*
X96855Y111434D01*
X96951Y111321D01*
X96996Y111257D01*
X117607Y90646D01*
X117677Y90594D01*
X117741Y90534D01*
X117790Y90508D01*
X117834Y90475D01*
X117916Y90444D01*
X117994Y90404D01*
X118041Y90396D01*
X118100Y90374D01*
X118248Y90362D01*
X118325Y90349D01*
X196632Y90349D01*
X196690Y90357D01*
X196748Y90355D01*
X196830Y90377D01*
X196914Y90389D01*
X196967Y90412D01*
X197023Y90427D01*
X197096Y90470D01*
X197173Y90505D01*
X197218Y90543D01*
X197268Y90572D01*
X197326Y90634D01*
X197390Y90688D01*
X197422Y90737D01*
X197462Y90780D01*
X197501Y90855D01*
X197548Y90925D01*
X197565Y90981D01*
X197592Y91033D01*
X197603Y91101D01*
X197633Y91196D01*
X197636Y91287D01*
X203302Y96953D01*
X211298Y96953D01*
X216953Y91298D01*
X216953Y83302D01*
X211298Y77647D01*
X203302Y77647D01*
X197639Y83309D01*
X197641Y83352D01*
X197619Y83434D01*
X197607Y83518D01*
X197584Y83571D01*
X197569Y83627D01*
X197526Y83700D01*
X197491Y83777D01*
X197453Y83822D01*
X197424Y83872D01*
X197362Y83930D01*
X197308Y83994D01*
X197259Y84026D01*
X197216Y84066D01*
X197141Y84105D01*
X197071Y84152D01*
X197015Y84169D01*
X196963Y84196D01*
X196895Y84207D01*
X196800Y84237D01*
X196700Y84240D01*
X196632Y84251D01*
X115379Y84251D01*
X90601Y109029D01*
X90601Y146152D01*
X90593Y146210D01*
X90595Y146268D01*
X90573Y146350D01*
X90561Y146434D01*
X90538Y146487D01*
X90523Y146543D01*
X90480Y146616D01*
X90445Y146693D01*
X90407Y146738D01*
X90378Y146788D01*
X90316Y146846D01*
X90262Y146910D01*
X90213Y146942D01*
X90170Y146982D01*
X90095Y147021D01*
X90025Y147068D01*
X89969Y147085D01*
X89917Y147112D01*
X89849Y147123D01*
X89754Y147153D01*
X89654Y147156D01*
X89586Y147167D01*
X88808Y147167D01*
X88018Y147957D01*
X87971Y147993D01*
X87931Y148035D01*
X87858Y148078D01*
X87791Y148128D01*
X87736Y148149D01*
X87686Y148179D01*
X87604Y148199D01*
X87525Y148230D01*
X87467Y148234D01*
X87410Y148249D01*
X87326Y148246D01*
X87242Y148253D01*
X87184Y148242D01*
X87126Y148240D01*
X87046Y148214D01*
X86963Y148197D01*
X86911Y148170D01*
X86855Y148152D01*
X86799Y148112D01*
X86711Y148066D01*
X86638Y147997D01*
X86582Y147957D01*
X85792Y147167D01*
X85014Y147167D01*
X84956Y147159D01*
X84898Y147161D01*
X84816Y147139D01*
X84732Y147127D01*
X84679Y147104D01*
X84623Y147089D01*
X84550Y147046D01*
X84473Y147011D01*
X84428Y146973D01*
X84378Y146944D01*
X84320Y146882D01*
X84256Y146828D01*
X84224Y146779D01*
X84184Y146736D01*
X84145Y146661D01*
X84098Y146591D01*
X84081Y146535D01*
X84054Y146483D01*
X84043Y146415D01*
X84013Y146320D01*
X84010Y146220D01*
X83999Y146152D01*
X83999Y139523D01*
X84011Y139436D01*
X84014Y139349D01*
X84031Y139296D01*
X84039Y139242D01*
X84074Y139162D01*
X84101Y139079D01*
X84129Y139039D01*
X84155Y138982D01*
X84251Y138869D01*
X84296Y138805D01*
X86007Y137095D01*
X86007Y132905D01*
X83045Y129943D01*
X78855Y129943D01*
X75893Y132905D01*
X75893Y137095D01*
X77604Y138805D01*
X77656Y138875D01*
X77716Y138939D01*
X77742Y138988D01*
X77775Y139032D01*
X77806Y139114D01*
X77846Y139192D01*
X77854Y139239D01*
X77876Y139298D01*
X77887Y139431D01*
X77887Y139432D01*
X77887Y139435D01*
X77888Y139446D01*
X77901Y139523D01*
X77901Y146152D01*
X77893Y146210D01*
X77895Y146268D01*
X77873Y146350D01*
X77861Y146434D01*
X77838Y146487D01*
X77823Y146543D01*
X77780Y146616D01*
X77745Y146693D01*
X77707Y146738D01*
X77678Y146788D01*
X77616Y146846D01*
X77562Y146910D01*
X77513Y146942D01*
X77470Y146982D01*
X77395Y147021D01*
X77325Y147068D01*
X77269Y147085D01*
X77217Y147112D01*
X77149Y147123D01*
X77054Y147153D01*
X76954Y147156D01*
X76886Y147167D01*
X76108Y147167D01*
X75318Y147957D01*
X75271Y147993D01*
X75231Y148035D01*
X75158Y148078D01*
X75091Y148128D01*
X75036Y148149D01*
X74986Y148179D01*
X74904Y148199D01*
X74825Y148230D01*
X74767Y148234D01*
X74710Y148249D01*
X74626Y148246D01*
X74542Y148253D01*
X74484Y148242D01*
X74426Y148240D01*
X74346Y148214D01*
X74263Y148197D01*
X74211Y148170D01*
X74155Y148152D01*
X74099Y148112D01*
X74011Y148066D01*
X73938Y147997D01*
X73882Y147957D01*
X73092Y147167D01*
X72314Y147167D01*
X72256Y147159D01*
X72198Y147161D01*
X72116Y147139D01*
X72032Y147127D01*
X71979Y147104D01*
X71923Y147089D01*
X71850Y147046D01*
X71773Y147011D01*
X71728Y146973D01*
X71678Y146944D01*
X71620Y146882D01*
X71556Y146828D01*
X71524Y146779D01*
X71484Y146736D01*
X71445Y146661D01*
X71398Y146591D01*
X71381Y146535D01*
X71354Y146483D01*
X71343Y146415D01*
X71313Y146320D01*
X71310Y146220D01*
X71299Y146152D01*
X71299Y101750D01*
X71311Y101663D01*
X71314Y101576D01*
X71331Y101523D01*
X71339Y101468D01*
X71374Y101388D01*
X71401Y101305D01*
X71429Y101266D01*
X71455Y101209D01*
X71551Y101096D01*
X71596Y101032D01*
X92282Y80346D01*
X92352Y80294D01*
X92416Y80234D01*
X92465Y80208D01*
X92509Y80175D01*
X92591Y80144D01*
X92669Y80104D01*
X92716Y80096D01*
X92775Y80074D01*
X92922Y80062D01*
X93000Y80049D01*
X172263Y80049D01*
X187065Y65246D01*
X187135Y65194D01*
X187199Y65134D01*
X187249Y65108D01*
X187293Y65075D01*
X187374Y65044D01*
X187452Y65004D01*
X187500Y64996D01*
X187558Y64974D01*
X187706Y64962D01*
X187783Y64949D01*
X196632Y64949D01*
X196690Y64957D01*
X196748Y64955D01*
X196830Y64977D01*
X196914Y64989D01*
X196967Y65012D01*
X197023Y65027D01*
X197096Y65070D01*
X197173Y65105D01*
X197218Y65143D01*
X197268Y65172D01*
X197326Y65234D01*
X197390Y65288D01*
X197422Y65337D01*
X197462Y65380D01*
X197501Y65455D01*
X197548Y65525D01*
X197565Y65581D01*
X197592Y65633D01*
X197603Y65701D01*
X197633Y65796D01*
X197636Y65887D01*
X203302Y71553D01*
X211298Y71553D01*
X216953Y65898D01*
X216953Y57902D01*
X211298Y52247D01*
X203302Y52247D01*
G37*
%LPD*%
%LPC*%
G36*
X174158Y164467D02*
X174158Y164467D01*
X172967Y165658D01*
X172967Y179342D01*
X174197Y180572D01*
X174202Y180573D01*
X174255Y180596D01*
X174311Y180611D01*
X174384Y180654D01*
X174461Y180689D01*
X174506Y180727D01*
X174556Y180756D01*
X174614Y180818D01*
X174678Y180872D01*
X174710Y180921D01*
X174750Y180964D01*
X174789Y181039D01*
X174836Y181109D01*
X174853Y181165D01*
X174880Y181217D01*
X174891Y181285D01*
X174921Y181380D01*
X174924Y181480D01*
X174935Y181548D01*
X174935Y238807D01*
X177614Y241485D01*
X191638Y255509D01*
X191690Y255579D01*
X191750Y255643D01*
X191776Y255692D01*
X191809Y255737D01*
X191840Y255818D01*
X191880Y255896D01*
X191888Y255944D01*
X191910Y256002D01*
X191922Y256150D01*
X191935Y256227D01*
X191935Y258452D01*
X191929Y258499D01*
X191929Y258500D01*
X191928Y258501D01*
X191927Y258510D01*
X191929Y258568D01*
X191907Y258650D01*
X191895Y258734D01*
X191872Y258787D01*
X191857Y258843D01*
X191814Y258916D01*
X191779Y258993D01*
X191741Y259038D01*
X191712Y259088D01*
X191650Y259146D01*
X191596Y259210D01*
X191547Y259242D01*
X191504Y259282D01*
X191429Y259321D01*
X191359Y259368D01*
X191303Y259385D01*
X191251Y259412D01*
X191206Y259419D01*
X189967Y260658D01*
X189967Y274342D01*
X191197Y275572D01*
X191202Y275573D01*
X191255Y275596D01*
X191311Y275611D01*
X191384Y275654D01*
X191461Y275689D01*
X191506Y275727D01*
X191556Y275756D01*
X191614Y275818D01*
X191678Y275872D01*
X191710Y275921D01*
X191750Y275964D01*
X191789Y276039D01*
X191836Y276109D01*
X191853Y276165D01*
X191880Y276217D01*
X191891Y276285D01*
X191921Y276380D01*
X191924Y276480D01*
X191935Y276548D01*
X191935Y280952D01*
X191927Y281010D01*
X191929Y281068D01*
X191907Y281150D01*
X191895Y281234D01*
X191872Y281287D01*
X191857Y281343D01*
X191814Y281416D01*
X191779Y281493D01*
X191741Y281538D01*
X191712Y281588D01*
X191650Y281646D01*
X191596Y281710D01*
X191547Y281742D01*
X191504Y281782D01*
X191429Y281821D01*
X191359Y281868D01*
X191303Y281885D01*
X191251Y281912D01*
X191206Y281919D01*
X189967Y283158D01*
X189967Y296842D01*
X191197Y298072D01*
X191202Y298073D01*
X191255Y298096D01*
X191311Y298111D01*
X191384Y298154D01*
X191461Y298189D01*
X191506Y298227D01*
X191556Y298256D01*
X191614Y298318D01*
X191678Y298372D01*
X191710Y298421D01*
X191750Y298464D01*
X191789Y298539D01*
X191836Y298609D01*
X191853Y298665D01*
X191880Y298717D01*
X191891Y298785D01*
X191921Y298880D01*
X191924Y298980D01*
X191935Y299048D01*
X191935Y303396D01*
X191923Y303482D01*
X191920Y303570D01*
X191903Y303622D01*
X191895Y303677D01*
X191860Y303757D01*
X191833Y303840D01*
X191805Y303880D01*
X191779Y303937D01*
X191683Y304050D01*
X191638Y304114D01*
X189614Y306138D01*
X189544Y306190D01*
X189480Y306250D01*
X189431Y306276D01*
X189386Y306309D01*
X189305Y306340D01*
X189227Y306380D01*
X189179Y306388D01*
X189121Y306410D01*
X188973Y306422D01*
X188896Y306435D01*
X41640Y306435D01*
X41553Y306423D01*
X41466Y306420D01*
X41413Y306403D01*
X41358Y306395D01*
X41278Y306360D01*
X41195Y306333D01*
X41156Y306305D01*
X41099Y306279D01*
X40986Y306183D01*
X40922Y306138D01*
X36862Y302078D01*
X36810Y302008D01*
X36750Y301944D01*
X36724Y301895D01*
X36691Y301851D01*
X36660Y301769D01*
X36620Y301691D01*
X36612Y301644D01*
X36590Y301585D01*
X36578Y301438D01*
X36565Y301360D01*
X36565Y298548D01*
X36573Y298490D01*
X36571Y298432D01*
X36593Y298350D01*
X36605Y298266D01*
X36628Y298213D01*
X36643Y298157D01*
X36686Y298084D01*
X36721Y298007D01*
X36759Y297962D01*
X36788Y297912D01*
X36850Y297854D01*
X36904Y297790D01*
X36953Y297758D01*
X36996Y297718D01*
X37071Y297679D01*
X37141Y297632D01*
X37197Y297615D01*
X37249Y297588D01*
X37317Y297577D01*
X37412Y297547D01*
X37512Y297544D01*
X37580Y297533D01*
X39342Y297533D01*
X40533Y296342D01*
X40533Y295080D01*
X40541Y295022D01*
X40539Y294964D01*
X40561Y294882D01*
X40573Y294798D01*
X40596Y294745D01*
X40611Y294689D01*
X40654Y294616D01*
X40689Y294539D01*
X40727Y294494D01*
X40756Y294444D01*
X40818Y294386D01*
X40872Y294322D01*
X40921Y294290D01*
X40964Y294250D01*
X41039Y294211D01*
X41109Y294164D01*
X41165Y294147D01*
X41217Y294120D01*
X41285Y294109D01*
X41380Y294079D01*
X41480Y294076D01*
X41548Y294065D01*
X70452Y294065D01*
X70510Y294073D01*
X70568Y294071D01*
X70650Y294093D01*
X70734Y294105D01*
X70787Y294128D01*
X70843Y294143D01*
X70916Y294186D01*
X70993Y294221D01*
X71038Y294259D01*
X71088Y294288D01*
X71146Y294350D01*
X71210Y294404D01*
X71242Y294453D01*
X71282Y294496D01*
X71321Y294571D01*
X71368Y294641D01*
X71385Y294697D01*
X71412Y294749D01*
X71423Y294817D01*
X71453Y294912D01*
X71456Y295012D01*
X71467Y295080D01*
X71467Y297342D01*
X72658Y298533D01*
X87342Y298533D01*
X88533Y297342D01*
X88533Y282658D01*
X87342Y281467D01*
X72658Y281467D01*
X71467Y282658D01*
X71467Y284920D01*
X71459Y284978D01*
X71461Y285036D01*
X71439Y285118D01*
X71427Y285202D01*
X71404Y285255D01*
X71389Y285311D01*
X71346Y285384D01*
X71311Y285461D01*
X71273Y285506D01*
X71244Y285556D01*
X71182Y285614D01*
X71128Y285678D01*
X71079Y285710D01*
X71036Y285750D01*
X70961Y285789D01*
X70891Y285836D01*
X70835Y285853D01*
X70783Y285880D01*
X70715Y285891D01*
X70620Y285921D01*
X70520Y285924D01*
X70452Y285935D01*
X40230Y285935D01*
X40144Y285923D01*
X40056Y285920D01*
X40004Y285903D01*
X39949Y285895D01*
X39869Y285860D01*
X39786Y285833D01*
X39747Y285805D01*
X39690Y285779D01*
X39576Y285683D01*
X39513Y285638D01*
X39342Y285467D01*
X25658Y285467D01*
X24467Y286658D01*
X24467Y296342D01*
X25658Y297533D01*
X27420Y297533D01*
X27478Y297541D01*
X27536Y297539D01*
X27618Y297561D01*
X27702Y297573D01*
X27755Y297596D01*
X27811Y297611D01*
X27884Y297654D01*
X27961Y297689D01*
X28006Y297727D01*
X28056Y297756D01*
X28114Y297818D01*
X28178Y297872D01*
X28210Y297921D01*
X28250Y297964D01*
X28289Y298039D01*
X28336Y298109D01*
X28353Y298165D01*
X28380Y298217D01*
X28391Y298285D01*
X28421Y298380D01*
X28424Y298480D01*
X28435Y298548D01*
X28435Y305148D01*
X37852Y314565D01*
X192684Y314565D01*
X200065Y307184D01*
X200065Y299048D01*
X200073Y298990D01*
X200071Y298932D01*
X200093Y298850D01*
X200105Y298766D01*
X200128Y298713D01*
X200143Y298657D01*
X200186Y298584D01*
X200221Y298507D01*
X200259Y298462D01*
X200288Y298412D01*
X200350Y298354D01*
X200404Y298290D01*
X200453Y298258D01*
X200496Y298218D01*
X200571Y298179D01*
X200641Y298132D01*
X200697Y298115D01*
X200749Y298088D01*
X200794Y298081D01*
X202033Y296842D01*
X202033Y283158D01*
X200803Y281928D01*
X200798Y281927D01*
X200745Y281904D01*
X200689Y281889D01*
X200616Y281846D01*
X200539Y281811D01*
X200494Y281773D01*
X200444Y281744D01*
X200386Y281682D01*
X200322Y281628D01*
X200290Y281579D01*
X200250Y281536D01*
X200211Y281461D01*
X200164Y281391D01*
X200147Y281335D01*
X200120Y281283D01*
X200109Y281215D01*
X200079Y281120D01*
X200076Y281020D01*
X200065Y280952D01*
X200065Y276548D01*
X200073Y276490D01*
X200071Y276432D01*
X200093Y276350D01*
X200105Y276266D01*
X200128Y276213D01*
X200143Y276157D01*
X200186Y276084D01*
X200221Y276007D01*
X200259Y275962D01*
X200288Y275912D01*
X200350Y275854D01*
X200404Y275790D01*
X200453Y275758D01*
X200496Y275718D01*
X200571Y275679D01*
X200641Y275632D01*
X200697Y275615D01*
X200749Y275588D01*
X200794Y275581D01*
X202033Y274342D01*
X202033Y260658D01*
X200803Y259428D01*
X200798Y259427D01*
X200745Y259404D01*
X200689Y259389D01*
X200616Y259346D01*
X200539Y259311D01*
X200494Y259273D01*
X200444Y259244D01*
X200386Y259182D01*
X200322Y259128D01*
X200290Y259079D01*
X200250Y259036D01*
X200211Y258961D01*
X200164Y258891D01*
X200147Y258835D01*
X200120Y258783D01*
X200109Y258715D01*
X200079Y258620D01*
X200076Y258520D01*
X200065Y258452D01*
X200065Y252439D01*
X197386Y249761D01*
X183362Y235737D01*
X183349Y235719D01*
X183336Y235708D01*
X183306Y235663D01*
X183250Y235603D01*
X183224Y235554D01*
X183191Y235510D01*
X183160Y235428D01*
X183120Y235350D01*
X183112Y235302D01*
X183090Y235244D01*
X183078Y235096D01*
X183065Y235019D01*
X183065Y181548D01*
X183073Y181490D01*
X183071Y181432D01*
X183093Y181350D01*
X183105Y181266D01*
X183128Y181213D01*
X183143Y181157D01*
X183186Y181084D01*
X183221Y181007D01*
X183259Y180962D01*
X183288Y180912D01*
X183350Y180854D01*
X183404Y180790D01*
X183453Y180758D01*
X183496Y180718D01*
X183571Y180679D01*
X183641Y180632D01*
X183697Y180615D01*
X183749Y180588D01*
X183794Y180581D01*
X185033Y179342D01*
X185033Y177580D01*
X185041Y177522D01*
X185039Y177464D01*
X185061Y177382D01*
X185073Y177298D01*
X185096Y177245D01*
X185111Y177189D01*
X185154Y177116D01*
X185189Y177039D01*
X185227Y176994D01*
X185256Y176944D01*
X185318Y176886D01*
X185372Y176822D01*
X185421Y176790D01*
X185464Y176750D01*
X185539Y176711D01*
X185609Y176664D01*
X185665Y176647D01*
X185717Y176620D01*
X185785Y176609D01*
X185880Y176579D01*
X185980Y176576D01*
X186048Y176565D01*
X191452Y176565D01*
X191510Y176573D01*
X191568Y176571D01*
X191650Y176593D01*
X191734Y176605D01*
X191787Y176628D01*
X191843Y176643D01*
X191916Y176686D01*
X191993Y176721D01*
X192038Y176759D01*
X192088Y176788D01*
X192146Y176850D01*
X192210Y176904D01*
X192242Y176953D01*
X192282Y176996D01*
X192321Y177071D01*
X192368Y177141D01*
X192385Y177197D01*
X192412Y177249D01*
X192423Y177317D01*
X192453Y177412D01*
X192456Y177512D01*
X192467Y177580D01*
X192467Y179342D01*
X193658Y180533D01*
X203342Y180533D01*
X204533Y179342D01*
X204533Y165658D01*
X203342Y164467D01*
X193658Y164467D01*
X192467Y165658D01*
X192467Y167420D01*
X192459Y167478D01*
X192461Y167536D01*
X192439Y167618D01*
X192427Y167702D01*
X192404Y167755D01*
X192389Y167811D01*
X192346Y167884D01*
X192311Y167961D01*
X192273Y168006D01*
X192244Y168056D01*
X192182Y168114D01*
X192128Y168178D01*
X192079Y168210D01*
X192036Y168250D01*
X191961Y168289D01*
X191891Y168336D01*
X191835Y168353D01*
X191783Y168380D01*
X191715Y168391D01*
X191620Y168421D01*
X191520Y168424D01*
X191452Y168435D01*
X186048Y168435D01*
X185990Y168427D01*
X185932Y168429D01*
X185850Y168407D01*
X185766Y168395D01*
X185713Y168372D01*
X185657Y168357D01*
X185584Y168314D01*
X185507Y168279D01*
X185462Y168241D01*
X185412Y168212D01*
X185354Y168150D01*
X185290Y168096D01*
X185258Y168047D01*
X185218Y168004D01*
X185179Y167929D01*
X185132Y167859D01*
X185115Y167803D01*
X185088Y167751D01*
X185077Y167683D01*
X185047Y167588D01*
X185044Y167488D01*
X185033Y167420D01*
X185033Y165658D01*
X183842Y164467D01*
X174158Y164467D01*
G37*
%LPD*%
%LPC*%
G36*
X26193Y198409D02*
X26193Y198409D01*
X19038Y201013D01*
X13205Y205908D01*
X9398Y212502D01*
X8076Y220000D01*
X9398Y227498D01*
X13205Y234092D01*
X19038Y238987D01*
X26193Y241591D01*
X33807Y241591D01*
X40962Y238987D01*
X46795Y234092D01*
X50602Y227498D01*
X51924Y220000D01*
X50602Y212502D01*
X46795Y205908D01*
X40962Y201013D01*
X33807Y198409D01*
X26193Y198409D01*
G37*
%LPD*%
%LPC*%
G36*
X146193Y318409D02*
X146193Y318409D01*
X139038Y321013D01*
X133205Y325908D01*
X129398Y332502D01*
X128076Y340000D01*
X129398Y347498D01*
X133205Y354092D01*
X139038Y358987D01*
X146193Y361591D01*
X153807Y361591D01*
X160962Y358987D01*
X166795Y354092D01*
X170602Y347498D01*
X171924Y340000D01*
X170602Y332502D01*
X166795Y325908D01*
X160962Y321013D01*
X153807Y318409D01*
X146193Y318409D01*
G37*
%LPD*%
%LPC*%
G36*
X226193Y198409D02*
X226193Y198409D01*
X219038Y201013D01*
X213205Y205908D01*
X209398Y212502D01*
X208076Y220000D01*
X209398Y227498D01*
X213205Y234092D01*
X219038Y238987D01*
X226193Y241591D01*
X233807Y241591D01*
X240962Y238987D01*
X246795Y234092D01*
X250602Y227498D01*
X251924Y220000D01*
X250602Y212502D01*
X246795Y205908D01*
X240962Y201013D01*
X233807Y198409D01*
X226193Y198409D01*
G37*
%LPD*%
%LPC*%
G36*
X226193Y318409D02*
X226193Y318409D01*
X219038Y321013D01*
X213205Y325908D01*
X209398Y332502D01*
X208076Y340000D01*
X209398Y347498D01*
X213205Y354092D01*
X219038Y358987D01*
X226193Y361591D01*
X233807Y361591D01*
X240962Y358987D01*
X246795Y354092D01*
X250602Y347498D01*
X251924Y340000D01*
X250602Y332502D01*
X246795Y325908D01*
X240962Y321013D01*
X233807Y318409D01*
X226193Y318409D01*
G37*
%LPD*%
%LPC*%
G36*
X26193Y318409D02*
X26193Y318409D01*
X19038Y321013D01*
X13205Y325908D01*
X9398Y332502D01*
X8076Y340000D01*
X9398Y347498D01*
X13205Y354092D01*
X19038Y358987D01*
X26193Y361591D01*
X33807Y361591D01*
X40962Y358987D01*
X46795Y354092D01*
X50602Y347498D01*
X51924Y340000D01*
X50602Y332502D01*
X46795Y325908D01*
X40962Y321013D01*
X33807Y318409D01*
X26193Y318409D01*
G37*
%LPD*%
%LPC*%
G36*
X146193Y198409D02*
X146193Y198409D01*
X139038Y201013D01*
X133205Y205908D01*
X129398Y212502D01*
X128076Y220000D01*
X129398Y227498D01*
X133205Y234092D01*
X139038Y238987D01*
X146193Y241591D01*
X153807Y241591D01*
X160962Y238987D01*
X166795Y234092D01*
X170602Y227498D01*
X171924Y220000D01*
X170602Y212502D01*
X166795Y205908D01*
X160962Y201013D01*
X153807Y198409D01*
X146193Y198409D01*
G37*
%LPD*%
%LPC*%
G36*
X20331Y22031D02*
X20331Y22031D01*
X20331Y35241D01*
X28731Y35241D01*
X28760Y35245D01*
X28789Y35242D01*
X28900Y35265D01*
X29012Y35281D01*
X29039Y35293D01*
X29068Y35298D01*
X29168Y35351D01*
X29272Y35397D01*
X29294Y35416D01*
X29320Y35429D01*
X29402Y35507D01*
X29489Y35580D01*
X29505Y35605D01*
X29526Y35625D01*
X29583Y35723D01*
X29646Y35817D01*
X29655Y35845D01*
X29670Y35870D01*
X29698Y35980D01*
X29732Y36088D01*
X29733Y36118D01*
X29740Y36146D01*
X29736Y36259D01*
X29739Y36372D01*
X29732Y36401D01*
X29731Y36430D01*
X29696Y36538D01*
X29667Y36647D01*
X29652Y36673D01*
X29643Y36701D01*
X29598Y36764D01*
X29522Y36892D01*
X29476Y36935D01*
X29448Y36974D01*
X26708Y39714D01*
X23809Y46713D01*
X23809Y54287D01*
X26708Y61286D01*
X32064Y66642D01*
X39063Y69541D01*
X46637Y69541D01*
X53636Y66642D01*
X58992Y61286D01*
X61891Y54287D01*
X61891Y46713D01*
X58992Y39714D01*
X53636Y34358D01*
X46637Y31459D01*
X39063Y31459D01*
X37845Y31964D01*
X37733Y31992D01*
X37624Y32027D01*
X37596Y32028D01*
X37569Y32035D01*
X37455Y32031D01*
X37340Y32034D01*
X37313Y32027D01*
X37285Y32027D01*
X37176Y31992D01*
X37065Y31963D01*
X37041Y31948D01*
X37014Y31940D01*
X36919Y31876D01*
X36820Y31817D01*
X36801Y31797D01*
X36778Y31782D01*
X36704Y31694D01*
X36626Y31610D01*
X36613Y31585D01*
X36595Y31564D01*
X36549Y31459D01*
X36496Y31357D01*
X36492Y31332D01*
X36480Y31304D01*
X36458Y31145D01*
X36455Y31136D01*
X36454Y31121D01*
X36443Y31041D01*
X36441Y31026D01*
X36441Y22031D01*
X20331Y22031D01*
G37*
%LPD*%
%LPC*%
G36*
X163559Y22031D02*
X163559Y22031D01*
X163559Y31026D01*
X163552Y31075D01*
X163553Y31084D01*
X163549Y31097D01*
X163543Y31140D01*
X163533Y31254D01*
X163523Y31280D01*
X163519Y31307D01*
X163472Y31412D01*
X163431Y31519D01*
X163415Y31541D01*
X163403Y31567D01*
X163329Y31654D01*
X163260Y31746D01*
X163237Y31763D01*
X163220Y31784D01*
X163124Y31847D01*
X163032Y31916D01*
X163006Y31926D01*
X162983Y31941D01*
X162873Y31976D01*
X162766Y32017D01*
X162738Y32019D01*
X162712Y32027D01*
X162597Y32030D01*
X162483Y32039D01*
X162458Y32034D01*
X162428Y32034D01*
X162171Y31967D01*
X162155Y31964D01*
X160937Y31459D01*
X153363Y31459D01*
X146364Y34358D01*
X141008Y39714D01*
X138109Y46713D01*
X138109Y54287D01*
X141008Y61286D01*
X146364Y66642D01*
X153363Y69541D01*
X160937Y69541D01*
X167936Y66642D01*
X173292Y61286D01*
X176191Y54287D01*
X176191Y46713D01*
X173292Y39714D01*
X170552Y36974D01*
X170534Y36950D01*
X170511Y36931D01*
X170449Y36837D01*
X170381Y36747D01*
X170370Y36719D01*
X170354Y36695D01*
X170320Y36587D01*
X170279Y36481D01*
X170277Y36452D01*
X170268Y36424D01*
X170265Y36310D01*
X170256Y36198D01*
X170262Y36169D01*
X170261Y36140D01*
X170289Y36030D01*
X170312Y35919D01*
X170325Y35893D01*
X170333Y35865D01*
X170390Y35767D01*
X170443Y35667D01*
X170463Y35645D01*
X170478Y35620D01*
X170560Y35543D01*
X170638Y35461D01*
X170664Y35446D01*
X170685Y35426D01*
X170786Y35374D01*
X170884Y35317D01*
X170912Y35310D01*
X170938Y35296D01*
X171016Y35283D01*
X171159Y35247D01*
X171222Y35249D01*
X171269Y35241D01*
X179669Y35241D01*
X179669Y22031D01*
X163559Y22031D01*
G37*
%LPD*%
%LPC*%
G36*
X228702Y77647D02*
X228702Y77647D01*
X223047Y83302D01*
X223047Y91298D01*
X228702Y96953D01*
X236698Y96953D01*
X242353Y91298D01*
X242353Y83302D01*
X236698Y77647D01*
X228702Y77647D01*
G37*
%LPD*%
%LPC*%
G36*
X228702Y103047D02*
X228702Y103047D01*
X223047Y108702D01*
X223047Y116698D01*
X228702Y122353D01*
X236698Y122353D01*
X242353Y116698D01*
X242353Y108702D01*
X236698Y103047D01*
X228702Y103047D01*
G37*
%LPD*%
%LPC*%
G36*
X228702Y128447D02*
X228702Y128447D01*
X223047Y134102D01*
X223047Y142098D01*
X228702Y147753D01*
X236698Y147753D01*
X242353Y142098D01*
X242353Y134102D01*
X236698Y128447D01*
X228702Y128447D01*
G37*
%LPD*%
%LPC*%
G36*
X173158Y281967D02*
X173158Y281967D01*
X171967Y283158D01*
X171967Y285936D01*
X171959Y285994D01*
X171961Y286052D01*
X171939Y286134D01*
X171927Y286218D01*
X171904Y286271D01*
X171889Y286327D01*
X171846Y286400D01*
X171811Y286477D01*
X171773Y286522D01*
X171744Y286572D01*
X171682Y286630D01*
X171628Y286694D01*
X171579Y286726D01*
X171536Y286766D01*
X171461Y286805D01*
X171391Y286852D01*
X171335Y286869D01*
X171283Y286896D01*
X171215Y286907D01*
X171120Y286937D01*
X171020Y286940D01*
X170952Y286951D01*
X169523Y286951D01*
X169436Y286939D01*
X169349Y286936D01*
X169296Y286919D01*
X169242Y286911D01*
X169162Y286876D01*
X169079Y286849D01*
X169039Y286821D01*
X168982Y286795D01*
X168869Y286699D01*
X168805Y286654D01*
X167095Y284943D01*
X162905Y284943D01*
X159943Y287905D01*
X159943Y292095D01*
X162905Y295057D01*
X167095Y295057D01*
X168805Y293346D01*
X168875Y293294D01*
X168939Y293234D01*
X168988Y293208D01*
X169032Y293175D01*
X169114Y293144D01*
X169192Y293104D01*
X169240Y293096D01*
X169298Y293074D01*
X169446Y293062D01*
X169523Y293049D01*
X170952Y293049D01*
X171010Y293057D01*
X171068Y293055D01*
X171150Y293077D01*
X171234Y293089D01*
X171287Y293112D01*
X171343Y293127D01*
X171416Y293170D01*
X171493Y293205D01*
X171538Y293243D01*
X171588Y293272D01*
X171646Y293334D01*
X171710Y293388D01*
X171742Y293437D01*
X171782Y293480D01*
X171821Y293555D01*
X171868Y293625D01*
X171885Y293681D01*
X171912Y293733D01*
X171923Y293801D01*
X171953Y293896D01*
X171956Y293996D01*
X171967Y294064D01*
X171967Y296842D01*
X173158Y298033D01*
X182842Y298033D01*
X184033Y296842D01*
X184033Y283158D01*
X182842Y281967D01*
X173158Y281967D01*
G37*
%LPD*%
%LPC*%
G36*
X173158Y259467D02*
X173158Y259467D01*
X171967Y260658D01*
X171967Y263436D01*
X171959Y263494D01*
X171961Y263552D01*
X171939Y263634D01*
X171927Y263718D01*
X171904Y263771D01*
X171889Y263827D01*
X171846Y263900D01*
X171811Y263977D01*
X171773Y264022D01*
X171744Y264072D01*
X171682Y264130D01*
X171628Y264194D01*
X171579Y264226D01*
X171536Y264266D01*
X171461Y264305D01*
X171391Y264352D01*
X171335Y264369D01*
X171283Y264396D01*
X171215Y264407D01*
X171120Y264437D01*
X171020Y264440D01*
X170952Y264451D01*
X169523Y264451D01*
X169436Y264439D01*
X169349Y264436D01*
X169296Y264419D01*
X169242Y264411D01*
X169162Y264376D01*
X169079Y264349D01*
X169039Y264321D01*
X168982Y264295D01*
X168869Y264199D01*
X168805Y264154D01*
X167095Y262443D01*
X162905Y262443D01*
X159943Y265405D01*
X159943Y269595D01*
X162905Y272557D01*
X167095Y272557D01*
X168805Y270846D01*
X168875Y270794D01*
X168939Y270734D01*
X168988Y270708D01*
X169032Y270675D01*
X169114Y270644D01*
X169192Y270604D01*
X169240Y270596D01*
X169298Y270574D01*
X169446Y270562D01*
X169523Y270549D01*
X170952Y270549D01*
X171010Y270557D01*
X171068Y270555D01*
X171150Y270577D01*
X171234Y270589D01*
X171287Y270612D01*
X171343Y270627D01*
X171416Y270670D01*
X171493Y270705D01*
X171538Y270743D01*
X171588Y270772D01*
X171646Y270834D01*
X171710Y270888D01*
X171742Y270937D01*
X171782Y270980D01*
X171821Y271055D01*
X171868Y271125D01*
X171885Y271181D01*
X171912Y271233D01*
X171923Y271301D01*
X171953Y271396D01*
X171956Y271496D01*
X171967Y271564D01*
X171967Y274342D01*
X173158Y275533D01*
X182842Y275533D01*
X184033Y274342D01*
X184033Y260658D01*
X182842Y259467D01*
X173158Y259467D01*
G37*
%LPD*%
%LPC*%
G36*
X183731Y22031D02*
X183731Y22031D01*
X183731Y35241D01*
X197634Y35241D01*
X198281Y35068D01*
X198860Y34733D01*
X199333Y34260D01*
X199668Y33681D01*
X199841Y33034D01*
X199841Y22031D01*
X183731Y22031D01*
G37*
%LPD*%
%LPC*%
G36*
X183731Y4759D02*
X183731Y4759D01*
X183731Y17969D01*
X199841Y17969D01*
X199841Y6966D01*
X199668Y6319D01*
X199333Y5740D01*
X198860Y5267D01*
X198281Y4932D01*
X197634Y4759D01*
X183731Y4759D01*
G37*
%LPD*%
%LPC*%
G36*
X20331Y4759D02*
X20331Y4759D01*
X20331Y17969D01*
X36441Y17969D01*
X36441Y6966D01*
X36268Y6319D01*
X35933Y5740D01*
X35460Y5267D01*
X34881Y4932D01*
X34234Y4759D01*
X20331Y4759D01*
G37*
%LPD*%
%LPC*%
G36*
X165766Y4759D02*
X165766Y4759D01*
X165119Y4932D01*
X164540Y5267D01*
X164067Y5740D01*
X163732Y6319D01*
X163559Y6966D01*
X163559Y17969D01*
X179669Y17969D01*
X179669Y4759D01*
X165766Y4759D01*
G37*
%LPD*%
%LPC*%
G36*
X49009Y167199D02*
X49009Y167199D01*
X49009Y181534D01*
X49182Y182181D01*
X49517Y182760D01*
X49990Y183233D01*
X50569Y183568D01*
X51216Y183741D01*
X53551Y183741D01*
X53551Y167199D01*
X49009Y167199D01*
G37*
%LPD*%
%LPC*%
G36*
X51216Y146659D02*
X51216Y146659D01*
X50569Y146832D01*
X49990Y147167D01*
X49517Y147640D01*
X49182Y148219D01*
X49009Y148866D01*
X49009Y163201D01*
X53551Y163201D01*
X53551Y146659D01*
X51216Y146659D01*
G37*
%LPD*%
%LPC*%
G36*
X234731Y63931D02*
X234731Y63931D01*
X234731Y72061D01*
X236909Y72061D01*
X242861Y66109D01*
X242861Y63931D01*
X234731Y63931D01*
G37*
%LPD*%
%LPC*%
G36*
X222539Y63931D02*
X222539Y63931D01*
X222539Y66109D01*
X228491Y72061D01*
X230669Y72061D01*
X230669Y63931D01*
X222539Y63931D01*
G37*
%LPD*%
%LPC*%
G36*
X234731Y51739D02*
X234731Y51739D01*
X234731Y59869D01*
X242861Y59869D01*
X242861Y57691D01*
X236909Y51739D01*
X234731Y51739D01*
G37*
%LPD*%
%LPC*%
G36*
X228491Y51739D02*
X228491Y51739D01*
X222539Y57691D01*
X222539Y59869D01*
X230669Y59869D01*
X230669Y51739D01*
X228491Y51739D01*
G37*
%LPD*%
%LPC*%
G36*
X102031Y292031D02*
X102031Y292031D01*
X102031Y299041D01*
X106834Y299041D01*
X107481Y298868D01*
X108060Y298533D01*
X108533Y298060D01*
X108868Y297481D01*
X109041Y296834D01*
X109041Y292031D01*
X102031Y292031D01*
G37*
%LPD*%
%LPC*%
G36*
X102031Y287969D02*
X102031Y287969D01*
X109041Y287969D01*
X109041Y283166D01*
X108868Y282519D01*
X108533Y281940D01*
X108060Y281467D01*
X107481Y281132D01*
X106834Y280959D01*
X102031Y280959D01*
X102031Y287969D01*
G37*
%LPD*%
%LPC*%
G36*
X90959Y292031D02*
X90959Y292031D01*
X90959Y296834D01*
X91132Y297481D01*
X91467Y298060D01*
X91940Y298533D01*
X92519Y298868D01*
X93166Y299041D01*
X97969Y299041D01*
X97969Y292031D01*
X90959Y292031D01*
G37*
%LPD*%
%LPC*%
G36*
X93166Y280959D02*
X93166Y280959D01*
X92519Y281132D01*
X91940Y281467D01*
X91467Y281940D01*
X91132Y282519D01*
X90959Y283166D01*
X90959Y287969D01*
X97969Y287969D01*
X97969Y280959D01*
X93166Y280959D01*
G37*
%LPD*%
%LPC*%
G36*
X218499Y174499D02*
X218499Y174499D01*
X218499Y181041D01*
X220834Y181041D01*
X221481Y180868D01*
X222060Y180533D01*
X222533Y180060D01*
X222868Y179481D01*
X223041Y178834D01*
X223041Y174499D01*
X218499Y174499D01*
G37*
%LPD*%
%LPC*%
G36*
X34499Y275499D02*
X34499Y275499D01*
X34499Y280041D01*
X38834Y280041D01*
X39481Y279868D01*
X40060Y279533D01*
X40533Y279060D01*
X40868Y278481D01*
X41041Y277834D01*
X41041Y275499D01*
X34499Y275499D01*
G37*
%LPD*%
%LPC*%
G36*
X23959Y275499D02*
X23959Y275499D01*
X23959Y277834D01*
X24132Y278481D01*
X24467Y279060D01*
X24940Y279533D01*
X25519Y279868D01*
X26166Y280041D01*
X30501Y280041D01*
X30501Y275499D01*
X23959Y275499D01*
G37*
%LPD*%
%LPC*%
G36*
X209959Y174499D02*
X209959Y174499D01*
X209959Y178834D01*
X210132Y179481D01*
X210467Y180060D01*
X210940Y180533D01*
X211519Y180868D01*
X212166Y181041D01*
X214501Y181041D01*
X214501Y174499D01*
X209959Y174499D01*
G37*
%LPD*%
%LPC*%
G36*
X218499Y163959D02*
X218499Y163959D01*
X218499Y170501D01*
X223041Y170501D01*
X223041Y166166D01*
X222868Y165519D01*
X222533Y164940D01*
X222060Y164467D01*
X221481Y164132D01*
X220834Y163959D01*
X218499Y163959D01*
G37*
%LPD*%
%LPC*%
G36*
X34499Y266959D02*
X34499Y266959D01*
X34499Y271501D01*
X41041Y271501D01*
X41041Y269166D01*
X40868Y268519D01*
X40533Y267940D01*
X40060Y267467D01*
X39481Y267132D01*
X38834Y266959D01*
X34499Y266959D01*
G37*
%LPD*%
%LPC*%
G36*
X26166Y266959D02*
X26166Y266959D01*
X25519Y267132D01*
X24940Y267467D01*
X24467Y267940D01*
X24132Y268519D01*
X23959Y269166D01*
X23959Y271501D01*
X30501Y271501D01*
X30501Y266959D01*
X26166Y266959D01*
G37*
%LPD*%
%LPC*%
G36*
X212166Y163959D02*
X212166Y163959D01*
X211519Y164132D01*
X210940Y164467D01*
X210467Y164940D01*
X210132Y165519D01*
X209959Y166166D01*
X209959Y170501D01*
X214501Y170501D01*
X214501Y163959D01*
X212166Y163959D01*
G37*
%LPD*%
%LPC*%
G36*
X232699Y61899D02*
X232699Y61899D01*
X232699Y61901D01*
X232701Y61901D01*
X232701Y61899D01*
X232699Y61899D01*
G37*
%LPD*%
%LPC*%
G36*
X181699Y19999D02*
X181699Y19999D01*
X181699Y20001D01*
X181701Y20001D01*
X181701Y19999D01*
X181699Y19999D01*
G37*
%LPD*%
%LPC*%
G36*
X99999Y289999D02*
X99999Y289999D01*
X99999Y290001D01*
X100001Y290001D01*
X100001Y289999D01*
X99999Y289999D01*
G37*
%LPD*%
D10*
X32500Y291500D03*
X32500Y273500D03*
D11*
X198500Y172500D03*
X216500Y172500D03*
X161000Y172500D03*
X179000Y172500D03*
X178000Y267500D03*
X196000Y267500D03*
X178000Y290000D03*
X196000Y290000D03*
D12*
X144450Y165200D03*
X131750Y165200D03*
X119050Y165200D03*
X106350Y165200D03*
X93650Y165200D03*
X80950Y165200D03*
X68250Y165200D03*
X55550Y165200D03*
D13*
X181700Y20000D03*
X18300Y20000D03*
D14*
X207300Y138100D03*
D15*
X232700Y138100D03*
X207300Y112700D03*
X232700Y112700D03*
X207300Y87300D03*
X232700Y87300D03*
X207300Y61900D03*
X232700Y61900D03*
D16*
X80000Y270000D03*
X80000Y290000D03*
X100000Y290000D03*
X100000Y270000D03*
D17*
X179000Y237123D02*
X179000Y172500D01*
X179000Y237123D02*
X196000Y254123D01*
X196000Y267500D01*
X198500Y172500D02*
X179000Y172500D01*
X196000Y267500D02*
X196000Y290000D01*
X39536Y310500D02*
X32500Y303464D01*
X32500Y291500D01*
X39536Y310500D02*
X191000Y310500D01*
X196000Y305500D01*
X196000Y290000D01*
X80000Y290000D02*
X32838Y290000D01*
X32500Y291500D01*
D18*
X112750Y187000D03*
X125250Y187000D03*
X182500Y152500D03*
X87250Y187000D03*
X87250Y144000D03*
X74500Y144000D03*
X55500Y143000D03*
X55500Y187000D03*
X100000Y144000D03*
X112750Y144000D03*
X125500Y144000D03*
X150000Y190000D03*
X153500Y299500D03*
X153000Y144000D03*
X10000Y40000D03*
X190000Y40000D03*
X165000Y280000D03*
X74500Y187000D03*
X114500Y224000D03*
X168000Y253000D03*
X237000Y179500D03*
X130000Y250000D03*
X121000Y278500D03*
D17*
X144450Y172500D02*
X161000Y172500D01*
X144450Y172500D02*
X144450Y165200D01*
X170198Y138100D02*
X207300Y138100D01*
X170198Y138100D02*
X161000Y147298D01*
X161000Y172500D01*
D19*
X131750Y165200D02*
X131750Y196250D01*
X121000Y207000D01*
D18*
X121000Y207000D03*
D19*
X100000Y228000D01*
D18*
X165000Y267500D03*
D19*
X178000Y267500D01*
X100000Y270000D02*
X100000Y228000D01*
X80000Y233000D02*
X119050Y193950D01*
X119050Y165200D01*
D18*
X119050Y193950D03*
X165000Y290000D03*
D19*
X178000Y290000D01*
X207300Y112700D02*
X136376Y112700D01*
X119050Y130026D01*
X119050Y165200D01*
X80000Y233000D02*
X80000Y270000D01*
D18*
X106350Y120330D03*
D19*
X106350Y165200D01*
X93650Y165200D02*
X93650Y110292D01*
X116642Y87300D01*
X207300Y87300D01*
D18*
X80950Y135000D03*
D19*
X80950Y165200D01*
X68250Y100066D02*
X91316Y77000D01*
X171000Y77000D01*
X186100Y61900D01*
X207300Y61900D01*
X68250Y100066D02*
X68250Y165200D01*
M02*
