G04 EAGLE Gerber RS-274X export*
G75*
%MOMM*%
%FSLAX34Y34*%
%LPD*%
%IN*%
%IPPOS*%
%AMOC8*
5,1,8,0,0,1.08239X$1,22.5*%
G01*
%ADD10C,0.254000*%


D10*
X0Y0D02*
X260000Y0D01*
X260000Y370000D01*
X0Y370000D01*
X0Y0D01*
X140650Y51040D02*
X140721Y52118D01*
X140862Y53189D01*
X141072Y54249D01*
X141352Y55292D01*
X141699Y56315D01*
X142113Y57313D01*
X142591Y58282D01*
X143131Y59218D01*
X143731Y60116D01*
X144389Y60973D01*
X145101Y61785D01*
X145865Y62549D01*
X146677Y63262D01*
X147534Y63919D01*
X148432Y64519D01*
X149368Y65060D01*
X150337Y65537D01*
X151335Y65951D01*
X152358Y66298D01*
X153401Y66578D01*
X154461Y66788D01*
X155532Y66929D01*
X156610Y67000D01*
X157690Y67000D01*
X158768Y66929D01*
X159839Y66788D01*
X160899Y66578D01*
X161942Y66298D01*
X162965Y65951D01*
X163963Y65537D01*
X164932Y65060D01*
X165868Y64519D01*
X166766Y63919D01*
X167623Y63262D01*
X168435Y62549D01*
X169199Y61785D01*
X169912Y60973D01*
X170569Y60116D01*
X171169Y59218D01*
X171710Y58282D01*
X172187Y57313D01*
X172601Y56315D01*
X172948Y55292D01*
X173228Y54249D01*
X173438Y53189D01*
X173579Y52118D01*
X173650Y51040D01*
X173650Y49960D01*
X173579Y48882D01*
X173438Y47811D01*
X173228Y46751D01*
X172948Y45708D01*
X172601Y44685D01*
X172187Y43687D01*
X171710Y42718D01*
X171169Y41782D01*
X170569Y40884D01*
X169912Y40027D01*
X169199Y39215D01*
X168435Y38451D01*
X167623Y37739D01*
X166766Y37081D01*
X165868Y36481D01*
X164932Y35941D01*
X163963Y35463D01*
X162965Y35049D01*
X161942Y34702D01*
X160899Y34422D01*
X159839Y34212D01*
X158768Y34071D01*
X157690Y34000D01*
X156610Y34000D01*
X155532Y34071D01*
X154461Y34212D01*
X153401Y34422D01*
X152358Y34702D01*
X151335Y35049D01*
X150337Y35463D01*
X149368Y35941D01*
X148432Y36481D01*
X147534Y37081D01*
X146677Y37739D01*
X145865Y38451D01*
X145101Y39215D01*
X144389Y40027D01*
X143731Y40884D01*
X143131Y41782D01*
X142591Y42718D01*
X142113Y43687D01*
X141699Y44685D01*
X141352Y45708D01*
X141072Y46751D01*
X140862Y47811D01*
X140721Y48882D01*
X140650Y49960D01*
X140650Y51040D01*
X26350Y51040D02*
X26421Y52118D01*
X26562Y53189D01*
X26772Y54249D01*
X27052Y55292D01*
X27399Y56315D01*
X27813Y57313D01*
X28291Y58282D01*
X28831Y59218D01*
X29431Y60116D01*
X30089Y60973D01*
X30801Y61785D01*
X31565Y62549D01*
X32377Y63262D01*
X33234Y63919D01*
X34132Y64519D01*
X35068Y65060D01*
X36037Y65537D01*
X37035Y65951D01*
X38058Y66298D01*
X39101Y66578D01*
X40161Y66788D01*
X41232Y66929D01*
X42310Y67000D01*
X43390Y67000D01*
X44468Y66929D01*
X45539Y66788D01*
X46599Y66578D01*
X47642Y66298D01*
X48665Y65951D01*
X49663Y65537D01*
X50632Y65060D01*
X51568Y64519D01*
X52466Y63919D01*
X53323Y63262D01*
X54135Y62549D01*
X54899Y61785D01*
X55612Y60973D01*
X56269Y60116D01*
X56869Y59218D01*
X57410Y58282D01*
X57887Y57313D01*
X58301Y56315D01*
X58648Y55292D01*
X58928Y54249D01*
X59138Y53189D01*
X59279Y52118D01*
X59350Y51040D01*
X59350Y49960D01*
X59279Y48882D01*
X59138Y47811D01*
X58928Y46751D01*
X58648Y45708D01*
X58301Y44685D01*
X57887Y43687D01*
X57410Y42718D01*
X56869Y41782D01*
X56269Y40884D01*
X55612Y40027D01*
X54899Y39215D01*
X54135Y38451D01*
X53323Y37739D01*
X52466Y37081D01*
X51568Y36481D01*
X50632Y35941D01*
X49663Y35463D01*
X48665Y35049D01*
X47642Y34702D01*
X46599Y34422D01*
X45539Y34212D01*
X44468Y34071D01*
X43390Y34000D01*
X42310Y34000D01*
X41232Y34071D01*
X40161Y34212D01*
X39101Y34422D01*
X38058Y34702D01*
X37035Y35049D01*
X36037Y35463D01*
X35068Y35941D01*
X34132Y36481D01*
X33234Y37081D01*
X32377Y37739D01*
X31565Y38451D01*
X30801Y39215D01*
X30089Y40027D01*
X29431Y40884D01*
X28831Y41782D01*
X28291Y42718D01*
X27813Y43687D01*
X27399Y44685D01*
X27052Y45708D01*
X26772Y46751D01*
X26562Y47811D01*
X26421Y48882D01*
X26350Y49960D01*
X26350Y51040D01*
X46510Y339460D02*
X46439Y338381D01*
X46298Y337309D01*
X46087Y336249D01*
X45808Y335205D01*
X45460Y334181D01*
X45046Y333183D01*
X44568Y332213D01*
X44028Y331277D01*
X43427Y330378D01*
X42769Y329521D01*
X42057Y328708D01*
X41292Y327944D01*
X40479Y327231D01*
X39622Y326573D01*
X38723Y325972D01*
X37787Y325432D01*
X36817Y324954D01*
X35819Y324540D01*
X34795Y324192D01*
X33751Y323913D01*
X32691Y323702D01*
X31619Y323561D01*
X30540Y323490D01*
X29460Y323490D01*
X28381Y323561D01*
X27309Y323702D01*
X26249Y323913D01*
X25205Y324192D01*
X24181Y324540D01*
X23183Y324954D01*
X22213Y325432D01*
X21277Y325972D01*
X20378Y326573D01*
X19521Y327231D01*
X18708Y327944D01*
X17944Y328708D01*
X17231Y329521D01*
X16573Y330378D01*
X15972Y331277D01*
X15432Y332213D01*
X14954Y333183D01*
X14540Y334181D01*
X14192Y335205D01*
X13913Y336249D01*
X13702Y337309D01*
X13561Y338381D01*
X13490Y339460D01*
X13490Y340540D01*
X13561Y341619D01*
X13702Y342691D01*
X13913Y343751D01*
X14192Y344795D01*
X14540Y345819D01*
X14954Y346817D01*
X15432Y347787D01*
X15972Y348723D01*
X16573Y349622D01*
X17231Y350479D01*
X17944Y351292D01*
X18708Y352057D01*
X19521Y352769D01*
X20378Y353427D01*
X21277Y354028D01*
X22213Y354568D01*
X23183Y355046D01*
X24181Y355460D01*
X25205Y355808D01*
X26249Y356087D01*
X27309Y356298D01*
X28381Y356439D01*
X29460Y356510D01*
X30540Y356510D01*
X31619Y356439D01*
X32691Y356298D01*
X33751Y356087D01*
X34795Y355808D01*
X35819Y355460D01*
X36817Y355046D01*
X37787Y354568D01*
X38723Y354028D01*
X39622Y353427D01*
X40479Y352769D01*
X41292Y352057D01*
X42057Y351292D01*
X42769Y350479D01*
X43427Y349622D01*
X44028Y348723D01*
X44568Y347787D01*
X45046Y346817D01*
X45460Y345819D01*
X45808Y344795D01*
X46087Y343751D01*
X46298Y342691D01*
X46439Y341619D01*
X46510Y340540D01*
X46510Y339460D01*
X166510Y339460D02*
X166439Y338381D01*
X166298Y337309D01*
X166087Y336249D01*
X165808Y335205D01*
X165460Y334181D01*
X165046Y333183D01*
X164568Y332213D01*
X164028Y331277D01*
X163427Y330378D01*
X162769Y329521D01*
X162057Y328708D01*
X161292Y327944D01*
X160479Y327231D01*
X159622Y326573D01*
X158723Y325972D01*
X157787Y325432D01*
X156817Y324954D01*
X155819Y324540D01*
X154795Y324192D01*
X153751Y323913D01*
X152691Y323702D01*
X151619Y323561D01*
X150540Y323490D01*
X149460Y323490D01*
X148381Y323561D01*
X147309Y323702D01*
X146249Y323913D01*
X145205Y324192D01*
X144181Y324540D01*
X143183Y324954D01*
X142213Y325432D01*
X141277Y325972D01*
X140378Y326573D01*
X139521Y327231D01*
X138708Y327944D01*
X137944Y328708D01*
X137231Y329521D01*
X136573Y330378D01*
X135972Y331277D01*
X135432Y332213D01*
X134954Y333183D01*
X134540Y334181D01*
X134192Y335205D01*
X133913Y336249D01*
X133702Y337309D01*
X133561Y338381D01*
X133490Y339460D01*
X133490Y340540D01*
X133561Y341619D01*
X133702Y342691D01*
X133913Y343751D01*
X134192Y344795D01*
X134540Y345819D01*
X134954Y346817D01*
X135432Y347787D01*
X135972Y348723D01*
X136573Y349622D01*
X137231Y350479D01*
X137944Y351292D01*
X138708Y352057D01*
X139521Y352769D01*
X140378Y353427D01*
X141277Y354028D01*
X142213Y354568D01*
X143183Y355046D01*
X144181Y355460D01*
X145205Y355808D01*
X146249Y356087D01*
X147309Y356298D01*
X148381Y356439D01*
X149460Y356510D01*
X150540Y356510D01*
X151619Y356439D01*
X152691Y356298D01*
X153751Y356087D01*
X154795Y355808D01*
X155819Y355460D01*
X156817Y355046D01*
X157787Y354568D01*
X158723Y354028D01*
X159622Y353427D01*
X160479Y352769D01*
X161292Y352057D01*
X162057Y351292D01*
X162769Y350479D01*
X163427Y349622D01*
X164028Y348723D01*
X164568Y347787D01*
X165046Y346817D01*
X165460Y345819D01*
X165808Y344795D01*
X166087Y343751D01*
X166298Y342691D01*
X166439Y341619D01*
X166510Y340540D01*
X166510Y339460D01*
X46510Y219460D02*
X46439Y218381D01*
X46298Y217309D01*
X46087Y216249D01*
X45808Y215205D01*
X45460Y214181D01*
X45046Y213183D01*
X44568Y212213D01*
X44028Y211277D01*
X43427Y210378D01*
X42769Y209521D01*
X42057Y208708D01*
X41292Y207944D01*
X40479Y207231D01*
X39622Y206573D01*
X38723Y205972D01*
X37787Y205432D01*
X36817Y204954D01*
X35819Y204540D01*
X34795Y204192D01*
X33751Y203913D01*
X32691Y203702D01*
X31619Y203561D01*
X30540Y203490D01*
X29460Y203490D01*
X28381Y203561D01*
X27309Y203702D01*
X26249Y203913D01*
X25205Y204192D01*
X24181Y204540D01*
X23183Y204954D01*
X22213Y205432D01*
X21277Y205972D01*
X20378Y206573D01*
X19521Y207231D01*
X18708Y207944D01*
X17944Y208708D01*
X17231Y209521D01*
X16573Y210378D01*
X15972Y211277D01*
X15432Y212213D01*
X14954Y213183D01*
X14540Y214181D01*
X14192Y215205D01*
X13913Y216249D01*
X13702Y217309D01*
X13561Y218381D01*
X13490Y219460D01*
X13490Y220540D01*
X13561Y221619D01*
X13702Y222691D01*
X13913Y223751D01*
X14192Y224795D01*
X14540Y225819D01*
X14954Y226817D01*
X15432Y227787D01*
X15972Y228723D01*
X16573Y229622D01*
X17231Y230479D01*
X17944Y231292D01*
X18708Y232057D01*
X19521Y232769D01*
X20378Y233427D01*
X21277Y234028D01*
X22213Y234568D01*
X23183Y235046D01*
X24181Y235460D01*
X25205Y235808D01*
X26249Y236087D01*
X27309Y236298D01*
X28381Y236439D01*
X29460Y236510D01*
X30540Y236510D01*
X31619Y236439D01*
X32691Y236298D01*
X33751Y236087D01*
X34795Y235808D01*
X35819Y235460D01*
X36817Y235046D01*
X37787Y234568D01*
X38723Y234028D01*
X39622Y233427D01*
X40479Y232769D01*
X41292Y232057D01*
X42057Y231292D01*
X42769Y230479D01*
X43427Y229622D01*
X44028Y228723D01*
X44568Y227787D01*
X45046Y226817D01*
X45460Y225819D01*
X45808Y224795D01*
X46087Y223751D01*
X46298Y222691D01*
X46439Y221619D01*
X46510Y220540D01*
X46510Y219460D01*
X166510Y219460D02*
X166439Y218381D01*
X166298Y217309D01*
X166087Y216249D01*
X165808Y215205D01*
X165460Y214181D01*
X165046Y213183D01*
X164568Y212213D01*
X164028Y211277D01*
X163427Y210378D01*
X162769Y209521D01*
X162057Y208708D01*
X161292Y207944D01*
X160479Y207231D01*
X159622Y206573D01*
X158723Y205972D01*
X157787Y205432D01*
X156817Y204954D01*
X155819Y204540D01*
X154795Y204192D01*
X153751Y203913D01*
X152691Y203702D01*
X151619Y203561D01*
X150540Y203490D01*
X149460Y203490D01*
X148381Y203561D01*
X147309Y203702D01*
X146249Y203913D01*
X145205Y204192D01*
X144181Y204540D01*
X143183Y204954D01*
X142213Y205432D01*
X141277Y205972D01*
X140378Y206573D01*
X139521Y207231D01*
X138708Y207944D01*
X137944Y208708D01*
X137231Y209521D01*
X136573Y210378D01*
X135972Y211277D01*
X135432Y212213D01*
X134954Y213183D01*
X134540Y214181D01*
X134192Y215205D01*
X133913Y216249D01*
X133702Y217309D01*
X133561Y218381D01*
X133490Y219460D01*
X133490Y220540D01*
X133561Y221619D01*
X133702Y222691D01*
X133913Y223751D01*
X134192Y224795D01*
X134540Y225819D01*
X134954Y226817D01*
X135432Y227787D01*
X135972Y228723D01*
X136573Y229622D01*
X137231Y230479D01*
X137944Y231292D01*
X138708Y232057D01*
X139521Y232769D01*
X140378Y233427D01*
X141277Y234028D01*
X142213Y234568D01*
X143183Y235046D01*
X144181Y235460D01*
X145205Y235808D01*
X146249Y236087D01*
X147309Y236298D01*
X148381Y236439D01*
X149460Y236510D01*
X150540Y236510D01*
X151619Y236439D01*
X152691Y236298D01*
X153751Y236087D01*
X154795Y235808D01*
X155819Y235460D01*
X156817Y235046D01*
X157787Y234568D01*
X158723Y234028D01*
X159622Y233427D01*
X160479Y232769D01*
X161292Y232057D01*
X162057Y231292D01*
X162769Y230479D01*
X163427Y229622D01*
X164028Y228723D01*
X164568Y227787D01*
X165046Y226817D01*
X165460Y225819D01*
X165808Y224795D01*
X166087Y223751D01*
X166298Y222691D01*
X166439Y221619D01*
X166510Y220540D01*
X166510Y219460D01*
X246510Y339460D02*
X246439Y338381D01*
X246298Y337309D01*
X246087Y336249D01*
X245808Y335205D01*
X245460Y334181D01*
X245046Y333183D01*
X244568Y332213D01*
X244028Y331277D01*
X243427Y330378D01*
X242769Y329521D01*
X242057Y328708D01*
X241292Y327944D01*
X240479Y327231D01*
X239622Y326573D01*
X238723Y325972D01*
X237787Y325432D01*
X236817Y324954D01*
X235819Y324540D01*
X234795Y324192D01*
X233751Y323913D01*
X232691Y323702D01*
X231619Y323561D01*
X230540Y323490D01*
X229460Y323490D01*
X228381Y323561D01*
X227309Y323702D01*
X226249Y323913D01*
X225205Y324192D01*
X224181Y324540D01*
X223183Y324954D01*
X222213Y325432D01*
X221277Y325972D01*
X220378Y326573D01*
X219521Y327231D01*
X218708Y327944D01*
X217944Y328708D01*
X217231Y329521D01*
X216573Y330378D01*
X215972Y331277D01*
X215432Y332213D01*
X214954Y333183D01*
X214540Y334181D01*
X214192Y335205D01*
X213913Y336249D01*
X213702Y337309D01*
X213561Y338381D01*
X213490Y339460D01*
X213490Y340540D01*
X213561Y341619D01*
X213702Y342691D01*
X213913Y343751D01*
X214192Y344795D01*
X214540Y345819D01*
X214954Y346817D01*
X215432Y347787D01*
X215972Y348723D01*
X216573Y349622D01*
X217231Y350479D01*
X217944Y351292D01*
X218708Y352057D01*
X219521Y352769D01*
X220378Y353427D01*
X221277Y354028D01*
X222213Y354568D01*
X223183Y355046D01*
X224181Y355460D01*
X225205Y355808D01*
X226249Y356087D01*
X227309Y356298D01*
X228381Y356439D01*
X229460Y356510D01*
X230540Y356510D01*
X231619Y356439D01*
X232691Y356298D01*
X233751Y356087D01*
X234795Y355808D01*
X235819Y355460D01*
X236817Y355046D01*
X237787Y354568D01*
X238723Y354028D01*
X239622Y353427D01*
X240479Y352769D01*
X241292Y352057D01*
X242057Y351292D01*
X242769Y350479D01*
X243427Y349622D01*
X244028Y348723D01*
X244568Y347787D01*
X245046Y346817D01*
X245460Y345819D01*
X245808Y344795D01*
X246087Y343751D01*
X246298Y342691D01*
X246439Y341619D01*
X246510Y340540D01*
X246510Y339460D01*
X246510Y219460D02*
X246439Y218381D01*
X246298Y217309D01*
X246087Y216249D01*
X245808Y215205D01*
X245460Y214181D01*
X245046Y213183D01*
X244568Y212213D01*
X244028Y211277D01*
X243427Y210378D01*
X242769Y209521D01*
X242057Y208708D01*
X241292Y207944D01*
X240479Y207231D01*
X239622Y206573D01*
X238723Y205972D01*
X237787Y205432D01*
X236817Y204954D01*
X235819Y204540D01*
X234795Y204192D01*
X233751Y203913D01*
X232691Y203702D01*
X231619Y203561D01*
X230540Y203490D01*
X229460Y203490D01*
X228381Y203561D01*
X227309Y203702D01*
X226249Y203913D01*
X225205Y204192D01*
X224181Y204540D01*
X223183Y204954D01*
X222213Y205432D01*
X221277Y205972D01*
X220378Y206573D01*
X219521Y207231D01*
X218708Y207944D01*
X217944Y208708D01*
X217231Y209521D01*
X216573Y210378D01*
X215972Y211277D01*
X215432Y212213D01*
X214954Y213183D01*
X214540Y214181D01*
X214192Y215205D01*
X213913Y216249D01*
X213702Y217309D01*
X213561Y218381D01*
X213490Y219460D01*
X213490Y220540D01*
X213561Y221619D01*
X213702Y222691D01*
X213913Y223751D01*
X214192Y224795D01*
X214540Y225819D01*
X214954Y226817D01*
X215432Y227787D01*
X215972Y228723D01*
X216573Y229622D01*
X217231Y230479D01*
X217944Y231292D01*
X218708Y232057D01*
X219521Y232769D01*
X220378Y233427D01*
X221277Y234028D01*
X222213Y234568D01*
X223183Y235046D01*
X224181Y235460D01*
X225205Y235808D01*
X226249Y236087D01*
X227309Y236298D01*
X228381Y236439D01*
X229460Y236510D01*
X230540Y236510D01*
X231619Y236439D01*
X232691Y236298D01*
X233751Y236087D01*
X234795Y235808D01*
X235819Y235460D01*
X236817Y235046D01*
X237787Y234568D01*
X238723Y234028D01*
X239622Y233427D01*
X240479Y232769D01*
X241292Y232057D01*
X242057Y231292D01*
X242769Y230479D01*
X243427Y229622D01*
X244028Y228723D01*
X244568Y227787D01*
X245046Y226817D01*
X245460Y225819D01*
X245808Y224795D01*
X246087Y223751D01*
X246298Y222691D01*
X246439Y221619D01*
X246510Y220540D01*
X246510Y219460D01*
M02*
