G04 EAGLE Gerber RS-274X export*
G75*
%MOMM*%
%FSLAX34Y34*%
%LPD*%
%INSoldermask Top*%
%IPPOS*%
%AMOC8*
5,1,8,0,0,1.08239X$1,22.5*%
G01*
%ADD10R,1.301600X0.901600*%
%ADD11R,0.901600X1.301600*%
%ADD12R,0.901600X3.301600*%
%ADD13R,3.221600X2.641600*%
%ADD14C,3.401600*%
%ADD15R,1.625600X1.625600*%
%ADD16P,1.759533X8X292.500000*%
%ADD17C,3.403600*%
%ADD18R,1.401600X1.401600*%


D10*
X32500Y291500D03*
X32500Y273500D03*
D11*
X198500Y172500D03*
X216500Y172500D03*
X161000Y172500D03*
X179000Y172500D03*
X178000Y267500D03*
X196000Y267500D03*
X178000Y290000D03*
X196000Y290000D03*
D12*
X144450Y165200D03*
X131750Y165200D03*
X119050Y165200D03*
X106350Y165200D03*
X93650Y165200D03*
X80950Y165200D03*
X68250Y165200D03*
X55550Y165200D03*
D13*
X181700Y20000D03*
X18300Y20000D03*
D14*
X157150Y50500D03*
X42850Y50500D03*
D15*
X207300Y138100D03*
D16*
X232700Y138100D03*
X207300Y112700D03*
X232700Y112700D03*
X207300Y87300D03*
X232700Y87300D03*
X207300Y61900D03*
X232700Y61900D03*
D17*
X30000Y340000D03*
X150000Y340000D03*
X30000Y220000D03*
X150000Y220000D03*
D18*
X80000Y270000D03*
X80000Y290000D03*
X100000Y290000D03*
X100000Y270000D03*
D17*
X230000Y340000D03*
X230000Y220000D03*
M02*
