G04 #@! TF.FileFunction,Legend,Top*
%FSLAX46Y46*%
G04 Gerber Fmt 4.6, Leading zero omitted, Abs format (unit mm)*
G04 Created by KiCad (PCBNEW 4.0.7) date 10/12/17 03:24:30*
%MOMM*%
%LPD*%
G01*
G04 APERTURE LIST*
%ADD10C,0.100000*%
%ADD11C,0.120000*%
%ADD12C,0.150000*%
%ADD13C,0.127000*%
%ADD14C,0.099060*%
G04 APERTURE END LIST*
D10*
D11*
X128330000Y-62170000D02*
X125670000Y-62170000D01*
X128330000Y-64770000D02*
X128330000Y-62170000D01*
X125670000Y-64770000D02*
X125670000Y-62170000D01*
X128330000Y-64770000D02*
X125670000Y-64770000D01*
X128330000Y-66040000D02*
X128330000Y-67370000D01*
X128330000Y-67370000D02*
X127000000Y-67370000D01*
X111820000Y-62170000D02*
X109160000Y-62170000D01*
X111820000Y-64770000D02*
X111820000Y-62170000D01*
X109160000Y-64770000D02*
X109160000Y-62170000D01*
X111820000Y-64770000D02*
X109160000Y-64770000D01*
X111820000Y-66040000D02*
X111820000Y-67370000D01*
X111820000Y-67370000D02*
X110490000Y-67370000D01*
D12*
X122522000Y-61420000D02*
X122522000Y-68120000D01*
X115222000Y-61420000D02*
X122522000Y-61420000D01*
X115222000Y-68120000D02*
X115222000Y-61420000D01*
X122522000Y-68120000D02*
X115222000Y-68120000D01*
X120022000Y-72443000D02*
X120022000Y-72643000D01*
X120022000Y-72643000D02*
X117722000Y-72643000D01*
X117722000Y-72643000D02*
X117722000Y-72443000D01*
X120022000Y-70493000D02*
X120022000Y-71493000D01*
X117722000Y-69343000D02*
X117722000Y-69543000D01*
X117722000Y-69343000D02*
X120022000Y-69343000D01*
X120022000Y-69343000D02*
X120022000Y-69543000D01*
D11*
X117313000Y-76318000D02*
X116113000Y-76318000D01*
X116113000Y-74558000D02*
X117313000Y-74558000D01*
X121427800Y-76318000D02*
X120227800Y-76318000D01*
X120227800Y-74558000D02*
X121427800Y-74558000D01*
X113242600Y-72233600D02*
X111242600Y-72233600D01*
X111242600Y-74273600D02*
X113242600Y-74273600D01*
X124895800Y-72526400D02*
X124895800Y-70526400D01*
X122855800Y-70526400D02*
X122855800Y-72526400D01*
D13*
X113667540Y-71231760D02*
X113667540Y-69230240D01*
X113568480Y-69230240D02*
X113568480Y-71231760D01*
X113466880Y-71231760D02*
X113466880Y-69230240D01*
X113367820Y-69230240D02*
X113367820Y-71231760D01*
X113268760Y-69230240D02*
X113268760Y-71231760D01*
X113769140Y-69230240D02*
X110766860Y-69230240D01*
X110766860Y-69230240D02*
X110766860Y-71231760D01*
X110766860Y-71231760D02*
X113769140Y-71231760D01*
X113769140Y-71231760D02*
X113769140Y-69230240D01*
D12*
X126666667Y-60793381D02*
X126666667Y-61507667D01*
X126619047Y-61650524D01*
X126523809Y-61745762D01*
X126380952Y-61793381D01*
X126285714Y-61793381D01*
X127666667Y-61793381D02*
X127095238Y-61793381D01*
X127380952Y-61793381D02*
X127380952Y-60793381D01*
X127285714Y-60936238D01*
X127190476Y-61031476D01*
X127095238Y-61079095D01*
X123698095Y-63896857D02*
X125221905Y-63896857D01*
X124460000Y-64658762D02*
X124460000Y-63134952D01*
X123698095Y-66436857D02*
X125221905Y-66436857D01*
X110156667Y-60793381D02*
X110156667Y-61507667D01*
X110109047Y-61650524D01*
X110013809Y-61745762D01*
X109870952Y-61793381D01*
X109775714Y-61793381D01*
X110585238Y-60888619D02*
X110632857Y-60841000D01*
X110728095Y-60793381D01*
X110966191Y-60793381D01*
X111061429Y-60841000D01*
X111109048Y-60888619D01*
X111156667Y-60983857D01*
X111156667Y-61079095D01*
X111109048Y-61221952D01*
X110537619Y-61793381D01*
X111156667Y-61793381D01*
X112395095Y-63769857D02*
X113918905Y-63769857D01*
X113157000Y-64531762D02*
X113157000Y-63007952D01*
X112395095Y-66309857D02*
X113918905Y-66309857D01*
X114293667Y-62591905D02*
X113912714Y-62591905D01*
X113912714Y-61791905D01*
X114979381Y-62591905D02*
X114522238Y-62591905D01*
X114750809Y-62591905D02*
X114750809Y-61791905D01*
X114674619Y-61906190D01*
X114598428Y-61982381D01*
X114522238Y-62020476D01*
X118237095Y-72858381D02*
X118237095Y-73667905D01*
X118284714Y-73763143D01*
X118332333Y-73810762D01*
X118427571Y-73858381D01*
X118618048Y-73858381D01*
X118713286Y-73810762D01*
X118760905Y-73763143D01*
X118808524Y-73667905D01*
X118808524Y-72858381D01*
X119808524Y-73858381D02*
X119237095Y-73858381D01*
X119522809Y-73858381D02*
X119522809Y-72858381D01*
X119427571Y-73001238D01*
X119332333Y-73096476D01*
X119237095Y-73144095D01*
X116546334Y-77541381D02*
X116213000Y-77065190D01*
X115974905Y-77541381D02*
X115974905Y-76541381D01*
X116355858Y-76541381D01*
X116451096Y-76589000D01*
X116498715Y-76636619D01*
X116546334Y-76731857D01*
X116546334Y-76874714D01*
X116498715Y-76969952D01*
X116451096Y-77017571D01*
X116355858Y-77065190D01*
X115974905Y-77065190D01*
X117498715Y-77541381D02*
X116927286Y-77541381D01*
X117213000Y-77541381D02*
X117213000Y-76541381D01*
X117117762Y-76684238D01*
X117022524Y-76779476D01*
X116927286Y-76827095D01*
X120661134Y-77668381D02*
X120327800Y-77192190D01*
X120089705Y-77668381D02*
X120089705Y-76668381D01*
X120470658Y-76668381D01*
X120565896Y-76716000D01*
X120613515Y-76763619D01*
X120661134Y-76858857D01*
X120661134Y-77001714D01*
X120613515Y-77096952D01*
X120565896Y-77144571D01*
X120470658Y-77192190D01*
X120089705Y-77192190D01*
X121042086Y-76763619D02*
X121089705Y-76716000D01*
X121184943Y-76668381D01*
X121423039Y-76668381D01*
X121518277Y-76716000D01*
X121565896Y-76763619D01*
X121613515Y-76858857D01*
X121613515Y-76954095D01*
X121565896Y-77096952D01*
X120994467Y-77668381D01*
X121613515Y-77668381D01*
X112075934Y-75388743D02*
X112028315Y-75436362D01*
X111885458Y-75483981D01*
X111790220Y-75483981D01*
X111647362Y-75436362D01*
X111552124Y-75341124D01*
X111504505Y-75245886D01*
X111456886Y-75055410D01*
X111456886Y-74912552D01*
X111504505Y-74722076D01*
X111552124Y-74626838D01*
X111647362Y-74531600D01*
X111790220Y-74483981D01*
X111885458Y-74483981D01*
X112028315Y-74531600D01*
X112075934Y-74579219D01*
X112456886Y-74579219D02*
X112504505Y-74531600D01*
X112599743Y-74483981D01*
X112837839Y-74483981D01*
X112933077Y-74531600D01*
X112980696Y-74579219D01*
X113028315Y-74674457D01*
X113028315Y-74769695D01*
X112980696Y-74912552D01*
X112409267Y-75483981D01*
X113028315Y-75483981D01*
X124105943Y-74868066D02*
X124153562Y-74915685D01*
X124201181Y-75058542D01*
X124201181Y-75153780D01*
X124153562Y-75296638D01*
X124058324Y-75391876D01*
X123963086Y-75439495D01*
X123772610Y-75487114D01*
X123629752Y-75487114D01*
X123439276Y-75439495D01*
X123344038Y-75391876D01*
X123248800Y-75296638D01*
X123201181Y-75153780D01*
X123201181Y-75058542D01*
X123248800Y-74915685D01*
X123296419Y-74868066D01*
X124201181Y-73915685D02*
X124201181Y-74487114D01*
X124201181Y-74201400D02*
X123201181Y-74201400D01*
X123344038Y-74296638D01*
X123439276Y-74391876D01*
X123486895Y-74487114D01*
D14*
X111973663Y-69011860D02*
X111973663Y-68613080D01*
X112068610Y-68613080D01*
X112125579Y-68632070D01*
X112163558Y-68670049D01*
X112182547Y-68708028D01*
X112201537Y-68783986D01*
X112201537Y-68840955D01*
X112182547Y-68916913D01*
X112163558Y-68954892D01*
X112125579Y-68992871D01*
X112068610Y-69011860D01*
X111973663Y-69011860D01*
X112581327Y-69011860D02*
X112353453Y-69011860D01*
X112467390Y-69011860D02*
X112467390Y-68613080D01*
X112429411Y-68670049D01*
X112391432Y-68708028D01*
X112353453Y-68727018D01*
M02*
