M48
;GenerationSoftware,Autodesk,EAGLE,9.6.2*%
;CreationDate,2021-07-03T18:57:59Z*%
FMAT,2
ICI,OFF
METRIC,TZ,000.000
T8C0.350
T7C0.450
T6C0.953
T5C1.016
T4C1.200
T3C2.286
T2C2.900
T1C3.048
%
G90
M71
T1
X83820Y20955
X83820Y78105
X7620Y78105
X7620Y20955
T2
X83950Y4950
X4950Y83950
X4950Y4950
X83950Y83950
T3
X73660Y20574
X73660Y7366
T4
X50800Y3810
X53340Y3810
X55880Y3810
X58420Y3810
X60960Y3810
X63500Y3810
X35560Y3810
X33020Y3810
X30480Y3810
X27940Y3810
X25400Y3810
X22860Y3810
X20320Y3810
X17780Y3810
X15240Y3810
X40640Y21590
X38100Y21590
X43180Y21590
X45720Y21590
X48260Y21590
X50800Y21590
X53340Y21590
X55880Y21590
X58420Y21590
X60960Y21590
X63500Y21590
X35560Y21590
X33020Y21590
X30480Y21590
X27940Y21590
X25400Y21590
X22860Y21590
X20320Y21590
X17780Y21590
X15240Y21590
X45720Y3810
X48260Y3810
X40640Y3810
X38100Y3810
X43180Y3810
T5
X36830Y7620
X34290Y7620
X7620Y73660
X31750Y7620
X24130Y40640
X21590Y40640
X7620Y35560
X7620Y33020
X7620Y30480
X7620Y27940
X7620Y25400
X83820Y73660
X83820Y71120
X83820Y68580
X83820Y66040
X83820Y63500
X83820Y60960
X83820Y58420
X83820Y55880
X83820Y53340
X83820Y50800
X83820Y48260
X83820Y45720
X83820Y43180
X83820Y40640
X83820Y38100
X83820Y35560
X83820Y33020
X7620Y50800
X83820Y25400
X81153Y11430
X81153Y16510
X66675Y11430
X7620Y53340
X7620Y55880
X66675Y16510
X81153Y13970
X2540Y76200
X2540Y78740
X7620Y58420
X7620Y48260
X7620Y60960
X7620Y63500
X83820Y30480
X7620Y66040
X7620Y68580
X7620Y71120
X19050Y40640
X7620Y45720
X7620Y43180
X7620Y40640
X7620Y38100
X83820Y27940
T6
X50800Y83950
X53340Y76330
X53340Y78870
X53340Y81410
X53340Y83950
X55880Y76330
X55880Y78870
X55880Y81410
X55880Y83950
X58420Y76330
X58420Y78870
X58420Y81410
X58420Y83950
X60960Y76330
X60960Y78870
X60960Y81410
X60960Y83950
X63500Y76330
X63500Y78870
X63500Y83950
X66040Y76330
X66040Y78870
X66040Y81410
X66040Y83950
X68580Y76330
X68580Y78870
X68580Y81410
X68580Y83950
X71120Y76330
X71120Y78870
X71120Y81410
X71120Y83950
X73660Y76330
X73660Y78870
X73660Y81410
X73660Y83950
X76200Y76584
X76200Y79124
X76200Y81664
X76200Y84204
X63500Y81410
X12700Y76584
X12700Y79124
X12700Y81664
X12700Y84204
X15240Y76330
X15240Y78870
X15240Y81410
X15240Y83950
X17780Y76330
X17780Y78870
X17780Y81410
X17780Y83950
X20320Y76330
X20320Y78870
X20320Y81410
X20320Y83950
X22860Y76330
X22860Y78870
X22860Y81410
X22860Y83950
X25400Y76330
X25400Y78870
X25400Y81410
X25400Y83950
X27940Y76330
X27940Y78870
X27940Y81410
X27940Y83950
X30480Y76330
X30480Y78870
X30480Y81410
X30480Y83950
X33020Y76330
X33020Y78870
X33020Y81410
X33020Y83950
X35560Y76330
X35560Y78870
X35560Y81410
X35560Y83950
X38100Y76330
X38100Y78870
X38100Y81410
X38100Y83950
X40640Y76330
X40640Y78870
X40640Y81410
X40640Y83950
X43180Y76330
X43180Y78870
X43180Y81410
X43180Y83950
X45720Y76330
X45720Y78870
X45720Y81410
X45720Y83950
X48260Y76330
X48260Y78870
X48260Y81410
X48260Y83950
X50800Y76330
X50800Y78870
X50800Y81410
T7
X13970Y69850
X19050Y26670
X27940Y15875
X31750Y23495
X34290Y23495
X36830Y23495
X39370Y23495
X34290Y73660
X36830Y73660
X39370Y73660
X27940Y72390
X29210Y73660
X31115Y74295
X81280Y71120
X41910Y23495
X44450Y23495
X46990Y23495
X49530Y23495
X52070Y23495
X54610Y23495
X46990Y73660
X49530Y74295
X52070Y28575
X52070Y34290
X52070Y39370
X52070Y43815
X52070Y48895
X52070Y53975
X52070Y59055
X52070Y64135
X52070Y69850
X54610Y69850
X54610Y64135
X54610Y59055
X54610Y53975
X54610Y48895
X54610Y43815
X54610Y34290
X54610Y28575
X26670Y1905
X10795Y2540
X79375Y9728
X33655Y13970
X46990Y1905
X55245Y18415
X43180Y66675
X60960Y68580
X48260Y68580
X45720Y38100
X45720Y64770
X33020Y33020
X29210Y13970
X26670Y13970
X50800Y70485
X35560Y35560
X36195Y72390
X54610Y39370
X38100Y30480
X65405Y27305
X85725Y41910
X85725Y67310
X27940Y10160
X73660Y3810
X55245Y72390
X78740Y68580
X55880Y5715
X44450Y15875
X41910Y15875
X76835Y46990
X81280Y39370
X81280Y29210
X81280Y31750
X81280Y36830
X81280Y34290
X46990Y39370
X44450Y36830
X36830Y36830
X36830Y31750
X34290Y34290
X36830Y20320
X5080Y70485
X2540Y11430
X12700Y3810
X10795Y81280
X10795Y83820
X27305Y23495
X24130Y26670
X21590Y26670
X76835Y44450
X59690Y64135
X58420Y43815
X55880Y74295
T8
X76200Y27940
X61595Y6985
M30