G04 EAGLE Gerber RS-274X export*
G75*
%MOMM*%
%FSLAX34Y34*%
%LPD*%
%INBoard Outline*%
%IPPOS*%
%AMOC8*
5,1,8,0,0,1.08239X$1,22.5*%
G01*
%ADD10C,0.000000*%
%ADD11C,0.254000*%


D10*
X0Y0D02*
X885700Y0D01*
X885700Y888900D01*
X0Y888900D01*
X0Y0D01*
X60960Y209550D02*
X60965Y209924D01*
X60978Y210298D01*
X61001Y210671D01*
X61033Y211044D01*
X61075Y211416D01*
X61125Y211786D01*
X61184Y212155D01*
X61253Y212523D01*
X61330Y212889D01*
X61417Y213253D01*
X61512Y213615D01*
X61616Y213974D01*
X61729Y214331D01*
X61851Y214684D01*
X61981Y215035D01*
X62120Y215382D01*
X62267Y215726D01*
X62423Y216066D01*
X62587Y216402D01*
X62760Y216734D01*
X62940Y217062D01*
X63128Y217385D01*
X63324Y217703D01*
X63528Y218017D01*
X63740Y218325D01*
X63959Y218628D01*
X64186Y218926D01*
X64419Y219218D01*
X64660Y219504D01*
X64908Y219785D01*
X65162Y220059D01*
X65424Y220326D01*
X65691Y220588D01*
X65965Y220842D01*
X66246Y221090D01*
X66532Y221331D01*
X66824Y221564D01*
X67122Y221791D01*
X67425Y222010D01*
X67733Y222222D01*
X68047Y222426D01*
X68365Y222622D01*
X68688Y222810D01*
X69016Y222990D01*
X69348Y223163D01*
X69684Y223327D01*
X70024Y223483D01*
X70368Y223630D01*
X70715Y223769D01*
X71066Y223899D01*
X71419Y224021D01*
X71776Y224134D01*
X72135Y224238D01*
X72497Y224333D01*
X72861Y224420D01*
X73227Y224497D01*
X73595Y224566D01*
X73964Y224625D01*
X74334Y224675D01*
X74706Y224717D01*
X75079Y224749D01*
X75452Y224772D01*
X75826Y224785D01*
X76200Y224790D01*
X76574Y224785D01*
X76948Y224772D01*
X77321Y224749D01*
X77694Y224717D01*
X78066Y224675D01*
X78436Y224625D01*
X78805Y224566D01*
X79173Y224497D01*
X79539Y224420D01*
X79903Y224333D01*
X80265Y224238D01*
X80624Y224134D01*
X80981Y224021D01*
X81334Y223899D01*
X81685Y223769D01*
X82032Y223630D01*
X82376Y223483D01*
X82716Y223327D01*
X83052Y223163D01*
X83384Y222990D01*
X83712Y222810D01*
X84035Y222622D01*
X84353Y222426D01*
X84667Y222222D01*
X84975Y222010D01*
X85278Y221791D01*
X85576Y221564D01*
X85868Y221331D01*
X86154Y221090D01*
X86435Y220842D01*
X86709Y220588D01*
X86976Y220326D01*
X87238Y220059D01*
X87492Y219785D01*
X87740Y219504D01*
X87981Y219218D01*
X88214Y218926D01*
X88441Y218628D01*
X88660Y218325D01*
X88872Y218017D01*
X89076Y217703D01*
X89272Y217385D01*
X89460Y217062D01*
X89640Y216734D01*
X89813Y216402D01*
X89977Y216066D01*
X90133Y215726D01*
X90280Y215382D01*
X90419Y215035D01*
X90549Y214684D01*
X90671Y214331D01*
X90784Y213974D01*
X90888Y213615D01*
X90983Y213253D01*
X91070Y212889D01*
X91147Y212523D01*
X91216Y212155D01*
X91275Y211786D01*
X91325Y211416D01*
X91367Y211044D01*
X91399Y210671D01*
X91422Y210298D01*
X91435Y209924D01*
X91440Y209550D01*
X91435Y209176D01*
X91422Y208802D01*
X91399Y208429D01*
X91367Y208056D01*
X91325Y207684D01*
X91275Y207314D01*
X91216Y206945D01*
X91147Y206577D01*
X91070Y206211D01*
X90983Y205847D01*
X90888Y205485D01*
X90784Y205126D01*
X90671Y204769D01*
X90549Y204416D01*
X90419Y204065D01*
X90280Y203718D01*
X90133Y203374D01*
X89977Y203034D01*
X89813Y202698D01*
X89640Y202366D01*
X89460Y202038D01*
X89272Y201715D01*
X89076Y201397D01*
X88872Y201083D01*
X88660Y200775D01*
X88441Y200472D01*
X88214Y200174D01*
X87981Y199882D01*
X87740Y199596D01*
X87492Y199315D01*
X87238Y199041D01*
X86976Y198774D01*
X86709Y198512D01*
X86435Y198258D01*
X86154Y198010D01*
X85868Y197769D01*
X85576Y197536D01*
X85278Y197309D01*
X84975Y197090D01*
X84667Y196878D01*
X84353Y196674D01*
X84035Y196478D01*
X83712Y196290D01*
X83384Y196110D01*
X83052Y195937D01*
X82716Y195773D01*
X82376Y195617D01*
X82032Y195470D01*
X81685Y195331D01*
X81334Y195201D01*
X80981Y195079D01*
X80624Y194966D01*
X80265Y194862D01*
X79903Y194767D01*
X79539Y194680D01*
X79173Y194603D01*
X78805Y194534D01*
X78436Y194475D01*
X78066Y194425D01*
X77694Y194383D01*
X77321Y194351D01*
X76948Y194328D01*
X76574Y194315D01*
X76200Y194310D01*
X75826Y194315D01*
X75452Y194328D01*
X75079Y194351D01*
X74706Y194383D01*
X74334Y194425D01*
X73964Y194475D01*
X73595Y194534D01*
X73227Y194603D01*
X72861Y194680D01*
X72497Y194767D01*
X72135Y194862D01*
X71776Y194966D01*
X71419Y195079D01*
X71066Y195201D01*
X70715Y195331D01*
X70368Y195470D01*
X70024Y195617D01*
X69684Y195773D01*
X69348Y195937D01*
X69016Y196110D01*
X68688Y196290D01*
X68365Y196478D01*
X68047Y196674D01*
X67733Y196878D01*
X67425Y197090D01*
X67122Y197309D01*
X66824Y197536D01*
X66532Y197769D01*
X66246Y198010D01*
X65965Y198258D01*
X65691Y198512D01*
X65424Y198774D01*
X65162Y199041D01*
X64908Y199315D01*
X64660Y199596D01*
X64419Y199882D01*
X64186Y200174D01*
X63959Y200472D01*
X63740Y200775D01*
X63528Y201083D01*
X63324Y201397D01*
X63128Y201715D01*
X62940Y202038D01*
X62760Y202366D01*
X62587Y202698D01*
X62423Y203034D01*
X62267Y203374D01*
X62120Y203718D01*
X61981Y204065D01*
X61851Y204416D01*
X61729Y204769D01*
X61616Y205126D01*
X61512Y205485D01*
X61417Y205847D01*
X61330Y206211D01*
X61253Y206577D01*
X61184Y206945D01*
X61125Y207314D01*
X61075Y207684D01*
X61033Y208056D01*
X61001Y208429D01*
X60978Y208802D01*
X60965Y209176D01*
X60960Y209550D01*
X60960Y781050D02*
X60965Y781424D01*
X60978Y781798D01*
X61001Y782171D01*
X61033Y782544D01*
X61075Y782916D01*
X61125Y783286D01*
X61184Y783655D01*
X61253Y784023D01*
X61330Y784389D01*
X61417Y784753D01*
X61512Y785115D01*
X61616Y785474D01*
X61729Y785831D01*
X61851Y786184D01*
X61981Y786535D01*
X62120Y786882D01*
X62267Y787226D01*
X62423Y787566D01*
X62587Y787902D01*
X62760Y788234D01*
X62940Y788562D01*
X63128Y788885D01*
X63324Y789203D01*
X63528Y789517D01*
X63740Y789825D01*
X63959Y790128D01*
X64186Y790426D01*
X64419Y790718D01*
X64660Y791004D01*
X64908Y791285D01*
X65162Y791559D01*
X65424Y791826D01*
X65691Y792088D01*
X65965Y792342D01*
X66246Y792590D01*
X66532Y792831D01*
X66824Y793064D01*
X67122Y793291D01*
X67425Y793510D01*
X67733Y793722D01*
X68047Y793926D01*
X68365Y794122D01*
X68688Y794310D01*
X69016Y794490D01*
X69348Y794663D01*
X69684Y794827D01*
X70024Y794983D01*
X70368Y795130D01*
X70715Y795269D01*
X71066Y795399D01*
X71419Y795521D01*
X71776Y795634D01*
X72135Y795738D01*
X72497Y795833D01*
X72861Y795920D01*
X73227Y795997D01*
X73595Y796066D01*
X73964Y796125D01*
X74334Y796175D01*
X74706Y796217D01*
X75079Y796249D01*
X75452Y796272D01*
X75826Y796285D01*
X76200Y796290D01*
X76574Y796285D01*
X76948Y796272D01*
X77321Y796249D01*
X77694Y796217D01*
X78066Y796175D01*
X78436Y796125D01*
X78805Y796066D01*
X79173Y795997D01*
X79539Y795920D01*
X79903Y795833D01*
X80265Y795738D01*
X80624Y795634D01*
X80981Y795521D01*
X81334Y795399D01*
X81685Y795269D01*
X82032Y795130D01*
X82376Y794983D01*
X82716Y794827D01*
X83052Y794663D01*
X83384Y794490D01*
X83712Y794310D01*
X84035Y794122D01*
X84353Y793926D01*
X84667Y793722D01*
X84975Y793510D01*
X85278Y793291D01*
X85576Y793064D01*
X85868Y792831D01*
X86154Y792590D01*
X86435Y792342D01*
X86709Y792088D01*
X86976Y791826D01*
X87238Y791559D01*
X87492Y791285D01*
X87740Y791004D01*
X87981Y790718D01*
X88214Y790426D01*
X88441Y790128D01*
X88660Y789825D01*
X88872Y789517D01*
X89076Y789203D01*
X89272Y788885D01*
X89460Y788562D01*
X89640Y788234D01*
X89813Y787902D01*
X89977Y787566D01*
X90133Y787226D01*
X90280Y786882D01*
X90419Y786535D01*
X90549Y786184D01*
X90671Y785831D01*
X90784Y785474D01*
X90888Y785115D01*
X90983Y784753D01*
X91070Y784389D01*
X91147Y784023D01*
X91216Y783655D01*
X91275Y783286D01*
X91325Y782916D01*
X91367Y782544D01*
X91399Y782171D01*
X91422Y781798D01*
X91435Y781424D01*
X91440Y781050D01*
X91435Y780676D01*
X91422Y780302D01*
X91399Y779929D01*
X91367Y779556D01*
X91325Y779184D01*
X91275Y778814D01*
X91216Y778445D01*
X91147Y778077D01*
X91070Y777711D01*
X90983Y777347D01*
X90888Y776985D01*
X90784Y776626D01*
X90671Y776269D01*
X90549Y775916D01*
X90419Y775565D01*
X90280Y775218D01*
X90133Y774874D01*
X89977Y774534D01*
X89813Y774198D01*
X89640Y773866D01*
X89460Y773538D01*
X89272Y773215D01*
X89076Y772897D01*
X88872Y772583D01*
X88660Y772275D01*
X88441Y771972D01*
X88214Y771674D01*
X87981Y771382D01*
X87740Y771096D01*
X87492Y770815D01*
X87238Y770541D01*
X86976Y770274D01*
X86709Y770012D01*
X86435Y769758D01*
X86154Y769510D01*
X85868Y769269D01*
X85576Y769036D01*
X85278Y768809D01*
X84975Y768590D01*
X84667Y768378D01*
X84353Y768174D01*
X84035Y767978D01*
X83712Y767790D01*
X83384Y767610D01*
X83052Y767437D01*
X82716Y767273D01*
X82376Y767117D01*
X82032Y766970D01*
X81685Y766831D01*
X81334Y766701D01*
X80981Y766579D01*
X80624Y766466D01*
X80265Y766362D01*
X79903Y766267D01*
X79539Y766180D01*
X79173Y766103D01*
X78805Y766034D01*
X78436Y765975D01*
X78066Y765925D01*
X77694Y765883D01*
X77321Y765851D01*
X76948Y765828D01*
X76574Y765815D01*
X76200Y765810D01*
X75826Y765815D01*
X75452Y765828D01*
X75079Y765851D01*
X74706Y765883D01*
X74334Y765925D01*
X73964Y765975D01*
X73595Y766034D01*
X73227Y766103D01*
X72861Y766180D01*
X72497Y766267D01*
X72135Y766362D01*
X71776Y766466D01*
X71419Y766579D01*
X71066Y766701D01*
X70715Y766831D01*
X70368Y766970D01*
X70024Y767117D01*
X69684Y767273D01*
X69348Y767437D01*
X69016Y767610D01*
X68688Y767790D01*
X68365Y767978D01*
X68047Y768174D01*
X67733Y768378D01*
X67425Y768590D01*
X67122Y768809D01*
X66824Y769036D01*
X66532Y769269D01*
X66246Y769510D01*
X65965Y769758D01*
X65691Y770012D01*
X65424Y770274D01*
X65162Y770541D01*
X64908Y770815D01*
X64660Y771096D01*
X64419Y771382D01*
X64186Y771674D01*
X63959Y771972D01*
X63740Y772275D01*
X63528Y772583D01*
X63324Y772897D01*
X63128Y773215D01*
X62940Y773538D01*
X62760Y773866D01*
X62587Y774198D01*
X62423Y774534D01*
X62267Y774874D01*
X62120Y775218D01*
X61981Y775565D01*
X61851Y775916D01*
X61729Y776269D01*
X61616Y776626D01*
X61512Y776985D01*
X61417Y777347D01*
X61330Y777711D01*
X61253Y778077D01*
X61184Y778445D01*
X61125Y778814D01*
X61075Y779184D01*
X61033Y779556D01*
X61001Y779929D01*
X60978Y780302D01*
X60965Y780676D01*
X60960Y781050D01*
X822960Y781050D02*
X822965Y781424D01*
X822978Y781798D01*
X823001Y782171D01*
X823033Y782544D01*
X823075Y782916D01*
X823125Y783286D01*
X823184Y783655D01*
X823253Y784023D01*
X823330Y784389D01*
X823417Y784753D01*
X823512Y785115D01*
X823616Y785474D01*
X823729Y785831D01*
X823851Y786184D01*
X823981Y786535D01*
X824120Y786882D01*
X824267Y787226D01*
X824423Y787566D01*
X824587Y787902D01*
X824760Y788234D01*
X824940Y788562D01*
X825128Y788885D01*
X825324Y789203D01*
X825528Y789517D01*
X825740Y789825D01*
X825959Y790128D01*
X826186Y790426D01*
X826419Y790718D01*
X826660Y791004D01*
X826908Y791285D01*
X827162Y791559D01*
X827424Y791826D01*
X827691Y792088D01*
X827965Y792342D01*
X828246Y792590D01*
X828532Y792831D01*
X828824Y793064D01*
X829122Y793291D01*
X829425Y793510D01*
X829733Y793722D01*
X830047Y793926D01*
X830365Y794122D01*
X830688Y794310D01*
X831016Y794490D01*
X831348Y794663D01*
X831684Y794827D01*
X832024Y794983D01*
X832368Y795130D01*
X832715Y795269D01*
X833066Y795399D01*
X833419Y795521D01*
X833776Y795634D01*
X834135Y795738D01*
X834497Y795833D01*
X834861Y795920D01*
X835227Y795997D01*
X835595Y796066D01*
X835964Y796125D01*
X836334Y796175D01*
X836706Y796217D01*
X837079Y796249D01*
X837452Y796272D01*
X837826Y796285D01*
X838200Y796290D01*
X838574Y796285D01*
X838948Y796272D01*
X839321Y796249D01*
X839694Y796217D01*
X840066Y796175D01*
X840436Y796125D01*
X840805Y796066D01*
X841173Y795997D01*
X841539Y795920D01*
X841903Y795833D01*
X842265Y795738D01*
X842624Y795634D01*
X842981Y795521D01*
X843334Y795399D01*
X843685Y795269D01*
X844032Y795130D01*
X844376Y794983D01*
X844716Y794827D01*
X845052Y794663D01*
X845384Y794490D01*
X845712Y794310D01*
X846035Y794122D01*
X846353Y793926D01*
X846667Y793722D01*
X846975Y793510D01*
X847278Y793291D01*
X847576Y793064D01*
X847868Y792831D01*
X848154Y792590D01*
X848435Y792342D01*
X848709Y792088D01*
X848976Y791826D01*
X849238Y791559D01*
X849492Y791285D01*
X849740Y791004D01*
X849981Y790718D01*
X850214Y790426D01*
X850441Y790128D01*
X850660Y789825D01*
X850872Y789517D01*
X851076Y789203D01*
X851272Y788885D01*
X851460Y788562D01*
X851640Y788234D01*
X851813Y787902D01*
X851977Y787566D01*
X852133Y787226D01*
X852280Y786882D01*
X852419Y786535D01*
X852549Y786184D01*
X852671Y785831D01*
X852784Y785474D01*
X852888Y785115D01*
X852983Y784753D01*
X853070Y784389D01*
X853147Y784023D01*
X853216Y783655D01*
X853275Y783286D01*
X853325Y782916D01*
X853367Y782544D01*
X853399Y782171D01*
X853422Y781798D01*
X853435Y781424D01*
X853440Y781050D01*
X853435Y780676D01*
X853422Y780302D01*
X853399Y779929D01*
X853367Y779556D01*
X853325Y779184D01*
X853275Y778814D01*
X853216Y778445D01*
X853147Y778077D01*
X853070Y777711D01*
X852983Y777347D01*
X852888Y776985D01*
X852784Y776626D01*
X852671Y776269D01*
X852549Y775916D01*
X852419Y775565D01*
X852280Y775218D01*
X852133Y774874D01*
X851977Y774534D01*
X851813Y774198D01*
X851640Y773866D01*
X851460Y773538D01*
X851272Y773215D01*
X851076Y772897D01*
X850872Y772583D01*
X850660Y772275D01*
X850441Y771972D01*
X850214Y771674D01*
X849981Y771382D01*
X849740Y771096D01*
X849492Y770815D01*
X849238Y770541D01*
X848976Y770274D01*
X848709Y770012D01*
X848435Y769758D01*
X848154Y769510D01*
X847868Y769269D01*
X847576Y769036D01*
X847278Y768809D01*
X846975Y768590D01*
X846667Y768378D01*
X846353Y768174D01*
X846035Y767978D01*
X845712Y767790D01*
X845384Y767610D01*
X845052Y767437D01*
X844716Y767273D01*
X844376Y767117D01*
X844032Y766970D01*
X843685Y766831D01*
X843334Y766701D01*
X842981Y766579D01*
X842624Y766466D01*
X842265Y766362D01*
X841903Y766267D01*
X841539Y766180D01*
X841173Y766103D01*
X840805Y766034D01*
X840436Y765975D01*
X840066Y765925D01*
X839694Y765883D01*
X839321Y765851D01*
X838948Y765828D01*
X838574Y765815D01*
X838200Y765810D01*
X837826Y765815D01*
X837452Y765828D01*
X837079Y765851D01*
X836706Y765883D01*
X836334Y765925D01*
X835964Y765975D01*
X835595Y766034D01*
X835227Y766103D01*
X834861Y766180D01*
X834497Y766267D01*
X834135Y766362D01*
X833776Y766466D01*
X833419Y766579D01*
X833066Y766701D01*
X832715Y766831D01*
X832368Y766970D01*
X832024Y767117D01*
X831684Y767273D01*
X831348Y767437D01*
X831016Y767610D01*
X830688Y767790D01*
X830365Y767978D01*
X830047Y768174D01*
X829733Y768378D01*
X829425Y768590D01*
X829122Y768809D01*
X828824Y769036D01*
X828532Y769269D01*
X828246Y769510D01*
X827965Y769758D01*
X827691Y770012D01*
X827424Y770274D01*
X827162Y770541D01*
X826908Y770815D01*
X826660Y771096D01*
X826419Y771382D01*
X826186Y771674D01*
X825959Y771972D01*
X825740Y772275D01*
X825528Y772583D01*
X825324Y772897D01*
X825128Y773215D01*
X824940Y773538D01*
X824760Y773866D01*
X824587Y774198D01*
X824423Y774534D01*
X824267Y774874D01*
X824120Y775218D01*
X823981Y775565D01*
X823851Y775916D01*
X823729Y776269D01*
X823616Y776626D01*
X823512Y776985D01*
X823417Y777347D01*
X823330Y777711D01*
X823253Y778077D01*
X823184Y778445D01*
X823125Y778814D01*
X823075Y779184D01*
X823033Y779556D01*
X823001Y779929D01*
X822978Y780302D01*
X822965Y780676D01*
X822960Y781050D01*
X822960Y209550D02*
X822965Y209924D01*
X822978Y210298D01*
X823001Y210671D01*
X823033Y211044D01*
X823075Y211416D01*
X823125Y211786D01*
X823184Y212155D01*
X823253Y212523D01*
X823330Y212889D01*
X823417Y213253D01*
X823512Y213615D01*
X823616Y213974D01*
X823729Y214331D01*
X823851Y214684D01*
X823981Y215035D01*
X824120Y215382D01*
X824267Y215726D01*
X824423Y216066D01*
X824587Y216402D01*
X824760Y216734D01*
X824940Y217062D01*
X825128Y217385D01*
X825324Y217703D01*
X825528Y218017D01*
X825740Y218325D01*
X825959Y218628D01*
X826186Y218926D01*
X826419Y219218D01*
X826660Y219504D01*
X826908Y219785D01*
X827162Y220059D01*
X827424Y220326D01*
X827691Y220588D01*
X827965Y220842D01*
X828246Y221090D01*
X828532Y221331D01*
X828824Y221564D01*
X829122Y221791D01*
X829425Y222010D01*
X829733Y222222D01*
X830047Y222426D01*
X830365Y222622D01*
X830688Y222810D01*
X831016Y222990D01*
X831348Y223163D01*
X831684Y223327D01*
X832024Y223483D01*
X832368Y223630D01*
X832715Y223769D01*
X833066Y223899D01*
X833419Y224021D01*
X833776Y224134D01*
X834135Y224238D01*
X834497Y224333D01*
X834861Y224420D01*
X835227Y224497D01*
X835595Y224566D01*
X835964Y224625D01*
X836334Y224675D01*
X836706Y224717D01*
X837079Y224749D01*
X837452Y224772D01*
X837826Y224785D01*
X838200Y224790D01*
X838574Y224785D01*
X838948Y224772D01*
X839321Y224749D01*
X839694Y224717D01*
X840066Y224675D01*
X840436Y224625D01*
X840805Y224566D01*
X841173Y224497D01*
X841539Y224420D01*
X841903Y224333D01*
X842265Y224238D01*
X842624Y224134D01*
X842981Y224021D01*
X843334Y223899D01*
X843685Y223769D01*
X844032Y223630D01*
X844376Y223483D01*
X844716Y223327D01*
X845052Y223163D01*
X845384Y222990D01*
X845712Y222810D01*
X846035Y222622D01*
X846353Y222426D01*
X846667Y222222D01*
X846975Y222010D01*
X847278Y221791D01*
X847576Y221564D01*
X847868Y221331D01*
X848154Y221090D01*
X848435Y220842D01*
X848709Y220588D01*
X848976Y220326D01*
X849238Y220059D01*
X849492Y219785D01*
X849740Y219504D01*
X849981Y219218D01*
X850214Y218926D01*
X850441Y218628D01*
X850660Y218325D01*
X850872Y218017D01*
X851076Y217703D01*
X851272Y217385D01*
X851460Y217062D01*
X851640Y216734D01*
X851813Y216402D01*
X851977Y216066D01*
X852133Y215726D01*
X852280Y215382D01*
X852419Y215035D01*
X852549Y214684D01*
X852671Y214331D01*
X852784Y213974D01*
X852888Y213615D01*
X852983Y213253D01*
X853070Y212889D01*
X853147Y212523D01*
X853216Y212155D01*
X853275Y211786D01*
X853325Y211416D01*
X853367Y211044D01*
X853399Y210671D01*
X853422Y210298D01*
X853435Y209924D01*
X853440Y209550D01*
X853435Y209176D01*
X853422Y208802D01*
X853399Y208429D01*
X853367Y208056D01*
X853325Y207684D01*
X853275Y207314D01*
X853216Y206945D01*
X853147Y206577D01*
X853070Y206211D01*
X852983Y205847D01*
X852888Y205485D01*
X852784Y205126D01*
X852671Y204769D01*
X852549Y204416D01*
X852419Y204065D01*
X852280Y203718D01*
X852133Y203374D01*
X851977Y203034D01*
X851813Y202698D01*
X851640Y202366D01*
X851460Y202038D01*
X851272Y201715D01*
X851076Y201397D01*
X850872Y201083D01*
X850660Y200775D01*
X850441Y200472D01*
X850214Y200174D01*
X849981Y199882D01*
X849740Y199596D01*
X849492Y199315D01*
X849238Y199041D01*
X848976Y198774D01*
X848709Y198512D01*
X848435Y198258D01*
X848154Y198010D01*
X847868Y197769D01*
X847576Y197536D01*
X847278Y197309D01*
X846975Y197090D01*
X846667Y196878D01*
X846353Y196674D01*
X846035Y196478D01*
X845712Y196290D01*
X845384Y196110D01*
X845052Y195937D01*
X844716Y195773D01*
X844376Y195617D01*
X844032Y195470D01*
X843685Y195331D01*
X843334Y195201D01*
X842981Y195079D01*
X842624Y194966D01*
X842265Y194862D01*
X841903Y194767D01*
X841539Y194680D01*
X841173Y194603D01*
X840805Y194534D01*
X840436Y194475D01*
X840066Y194425D01*
X839694Y194383D01*
X839321Y194351D01*
X838948Y194328D01*
X838574Y194315D01*
X838200Y194310D01*
X837826Y194315D01*
X837452Y194328D01*
X837079Y194351D01*
X836706Y194383D01*
X836334Y194425D01*
X835964Y194475D01*
X835595Y194534D01*
X835227Y194603D01*
X834861Y194680D01*
X834497Y194767D01*
X834135Y194862D01*
X833776Y194966D01*
X833419Y195079D01*
X833066Y195201D01*
X832715Y195331D01*
X832368Y195470D01*
X832024Y195617D01*
X831684Y195773D01*
X831348Y195937D01*
X831016Y196110D01*
X830688Y196290D01*
X830365Y196478D01*
X830047Y196674D01*
X829733Y196878D01*
X829425Y197090D01*
X829122Y197309D01*
X828824Y197536D01*
X828532Y197769D01*
X828246Y198010D01*
X827965Y198258D01*
X827691Y198512D01*
X827424Y198774D01*
X827162Y199041D01*
X826908Y199315D01*
X826660Y199596D01*
X826419Y199882D01*
X826186Y200174D01*
X825959Y200472D01*
X825740Y200775D01*
X825528Y201083D01*
X825324Y201397D01*
X825128Y201715D01*
X824940Y202038D01*
X824760Y202366D01*
X824587Y202698D01*
X824423Y203034D01*
X824267Y203374D01*
X824120Y203718D01*
X823981Y204065D01*
X823851Y204416D01*
X823729Y204769D01*
X823616Y205126D01*
X823512Y205485D01*
X823417Y205847D01*
X823330Y206211D01*
X823253Y206577D01*
X823184Y206945D01*
X823125Y207314D01*
X823075Y207684D01*
X823033Y208056D01*
X823001Y208429D01*
X822978Y208802D01*
X822965Y209176D01*
X822960Y209550D01*
X34500Y4500D02*
X4500Y34500D01*
X4500Y854500D01*
X34500Y884500D01*
X854500Y884500D01*
X884500Y854500D01*
X884500Y34500D01*
X854500Y4500D01*
X34500Y4500D01*
D11*
X0Y0D02*
X885700Y0D01*
X885700Y888900D01*
X0Y888900D01*
X0Y0D01*
X4500Y34500D02*
X34500Y4500D01*
X854500Y4500D01*
X884500Y34500D01*
X884500Y854500D01*
X854500Y884500D01*
X34500Y884500D01*
X4500Y854500D01*
X4500Y34500D01*
X91440Y209006D02*
X91362Y207920D01*
X91207Y206842D01*
X90976Y205779D01*
X90669Y204734D01*
X90289Y203714D01*
X89837Y202724D01*
X89315Y201769D01*
X88726Y200853D01*
X88074Y199981D01*
X87361Y199159D01*
X86591Y198389D01*
X85769Y197676D01*
X84897Y197024D01*
X83981Y196435D01*
X83026Y195913D01*
X82036Y195461D01*
X81016Y195081D01*
X79971Y194774D01*
X78908Y194543D01*
X77830Y194388D01*
X76744Y194310D01*
X75656Y194310D01*
X74570Y194388D01*
X73492Y194543D01*
X72429Y194774D01*
X71384Y195081D01*
X70364Y195461D01*
X69374Y195913D01*
X68419Y196435D01*
X67503Y197024D01*
X66631Y197676D01*
X65809Y198389D01*
X65039Y199159D01*
X64326Y199981D01*
X63674Y200853D01*
X63085Y201769D01*
X62563Y202724D01*
X62111Y203714D01*
X61731Y204734D01*
X61424Y205779D01*
X61193Y206842D01*
X61038Y207920D01*
X60960Y209006D01*
X60960Y210094D01*
X61038Y211180D01*
X61193Y212258D01*
X61424Y213321D01*
X61731Y214366D01*
X62111Y215386D01*
X62563Y216376D01*
X63085Y217331D01*
X63674Y218247D01*
X64326Y219119D01*
X65039Y219941D01*
X65809Y220711D01*
X66631Y221424D01*
X67503Y222076D01*
X68419Y222665D01*
X69374Y223187D01*
X70364Y223639D01*
X71384Y224019D01*
X72429Y224326D01*
X73492Y224557D01*
X74570Y224712D01*
X75656Y224790D01*
X76744Y224790D01*
X77830Y224712D01*
X78908Y224557D01*
X79971Y224326D01*
X81016Y224019D01*
X82036Y223639D01*
X83026Y223187D01*
X83981Y222665D01*
X84897Y222076D01*
X85769Y221424D01*
X86591Y220711D01*
X87361Y219941D01*
X88074Y219119D01*
X88726Y218247D01*
X89315Y217331D01*
X89837Y216376D01*
X90289Y215386D01*
X90669Y214366D01*
X90976Y213321D01*
X91207Y212258D01*
X91362Y211180D01*
X91440Y210094D01*
X91440Y209006D01*
X91440Y780506D02*
X91362Y779420D01*
X91207Y778342D01*
X90976Y777279D01*
X90669Y776234D01*
X90289Y775214D01*
X89837Y774224D01*
X89315Y773269D01*
X88726Y772353D01*
X88074Y771481D01*
X87361Y770659D01*
X86591Y769889D01*
X85769Y769176D01*
X84897Y768524D01*
X83981Y767935D01*
X83026Y767413D01*
X82036Y766961D01*
X81016Y766581D01*
X79971Y766274D01*
X78908Y766043D01*
X77830Y765888D01*
X76744Y765810D01*
X75656Y765810D01*
X74570Y765888D01*
X73492Y766043D01*
X72429Y766274D01*
X71384Y766581D01*
X70364Y766961D01*
X69374Y767413D01*
X68419Y767935D01*
X67503Y768524D01*
X66631Y769176D01*
X65809Y769889D01*
X65039Y770659D01*
X64326Y771481D01*
X63674Y772353D01*
X63085Y773269D01*
X62563Y774224D01*
X62111Y775214D01*
X61731Y776234D01*
X61424Y777279D01*
X61193Y778342D01*
X61038Y779420D01*
X60960Y780506D01*
X60960Y781594D01*
X61038Y782680D01*
X61193Y783758D01*
X61424Y784821D01*
X61731Y785866D01*
X62111Y786886D01*
X62563Y787876D01*
X63085Y788831D01*
X63674Y789747D01*
X64326Y790619D01*
X65039Y791441D01*
X65809Y792211D01*
X66631Y792924D01*
X67503Y793576D01*
X68419Y794165D01*
X69374Y794687D01*
X70364Y795139D01*
X71384Y795519D01*
X72429Y795826D01*
X73492Y796057D01*
X74570Y796212D01*
X75656Y796290D01*
X76744Y796290D01*
X77830Y796212D01*
X78908Y796057D01*
X79971Y795826D01*
X81016Y795519D01*
X82036Y795139D01*
X83026Y794687D01*
X83981Y794165D01*
X84897Y793576D01*
X85769Y792924D01*
X86591Y792211D01*
X87361Y791441D01*
X88074Y790619D01*
X88726Y789747D01*
X89315Y788831D01*
X89837Y787876D01*
X90289Y786886D01*
X90669Y785866D01*
X90976Y784821D01*
X91207Y783758D01*
X91362Y782680D01*
X91440Y781594D01*
X91440Y780506D01*
X853440Y780506D02*
X853362Y779420D01*
X853207Y778342D01*
X852976Y777279D01*
X852669Y776234D01*
X852289Y775214D01*
X851837Y774224D01*
X851315Y773269D01*
X850726Y772353D01*
X850074Y771481D01*
X849361Y770659D01*
X848591Y769889D01*
X847769Y769176D01*
X846897Y768524D01*
X845981Y767935D01*
X845026Y767413D01*
X844036Y766961D01*
X843016Y766581D01*
X841971Y766274D01*
X840908Y766043D01*
X839830Y765888D01*
X838744Y765810D01*
X837656Y765810D01*
X836570Y765888D01*
X835492Y766043D01*
X834429Y766274D01*
X833384Y766581D01*
X832364Y766961D01*
X831374Y767413D01*
X830419Y767935D01*
X829503Y768524D01*
X828631Y769176D01*
X827809Y769889D01*
X827039Y770659D01*
X826326Y771481D01*
X825674Y772353D01*
X825085Y773269D01*
X824563Y774224D01*
X824111Y775214D01*
X823731Y776234D01*
X823424Y777279D01*
X823193Y778342D01*
X823038Y779420D01*
X822960Y780506D01*
X822960Y781594D01*
X823038Y782680D01*
X823193Y783758D01*
X823424Y784821D01*
X823731Y785866D01*
X824111Y786886D01*
X824563Y787876D01*
X825085Y788831D01*
X825674Y789747D01*
X826326Y790619D01*
X827039Y791441D01*
X827809Y792211D01*
X828631Y792924D01*
X829503Y793576D01*
X830419Y794165D01*
X831374Y794687D01*
X832364Y795139D01*
X833384Y795519D01*
X834429Y795826D01*
X835492Y796057D01*
X836570Y796212D01*
X837656Y796290D01*
X838744Y796290D01*
X839830Y796212D01*
X840908Y796057D01*
X841971Y795826D01*
X843016Y795519D01*
X844036Y795139D01*
X845026Y794687D01*
X845981Y794165D01*
X846897Y793576D01*
X847769Y792924D01*
X848591Y792211D01*
X849361Y791441D01*
X850074Y790619D01*
X850726Y789747D01*
X851315Y788831D01*
X851837Y787876D01*
X852289Y786886D01*
X852669Y785866D01*
X852976Y784821D01*
X853207Y783758D01*
X853362Y782680D01*
X853440Y781594D01*
X853440Y780506D01*
X853440Y209006D02*
X853362Y207920D01*
X853207Y206842D01*
X852976Y205779D01*
X852669Y204734D01*
X852289Y203714D01*
X851837Y202724D01*
X851315Y201769D01*
X850726Y200853D01*
X850074Y199981D01*
X849361Y199159D01*
X848591Y198389D01*
X847769Y197676D01*
X846897Y197024D01*
X845981Y196435D01*
X845026Y195913D01*
X844036Y195461D01*
X843016Y195081D01*
X841971Y194774D01*
X840908Y194543D01*
X839830Y194388D01*
X838744Y194310D01*
X837656Y194310D01*
X836570Y194388D01*
X835492Y194543D01*
X834429Y194774D01*
X833384Y195081D01*
X832364Y195461D01*
X831374Y195913D01*
X830419Y196435D01*
X829503Y197024D01*
X828631Y197676D01*
X827809Y198389D01*
X827039Y199159D01*
X826326Y199981D01*
X825674Y200853D01*
X825085Y201769D01*
X824563Y202724D01*
X824111Y203714D01*
X823731Y204734D01*
X823424Y205779D01*
X823193Y206842D01*
X823038Y207920D01*
X822960Y209006D01*
X822960Y210094D01*
X823038Y211180D01*
X823193Y212258D01*
X823424Y213321D01*
X823731Y214366D01*
X824111Y215386D01*
X824563Y216376D01*
X825085Y217331D01*
X825674Y218247D01*
X826326Y219119D01*
X827039Y219941D01*
X827809Y220711D01*
X828631Y221424D01*
X829503Y222076D01*
X830419Y222665D01*
X831374Y223187D01*
X832364Y223639D01*
X833384Y224019D01*
X834429Y224326D01*
X835492Y224557D01*
X836570Y224712D01*
X837656Y224790D01*
X838744Y224790D01*
X839830Y224712D01*
X840908Y224557D01*
X841971Y224326D01*
X843016Y224019D01*
X844036Y223639D01*
X845026Y223187D01*
X845981Y222665D01*
X846897Y222076D01*
X847769Y221424D01*
X848591Y220711D01*
X849361Y219941D01*
X850074Y219119D01*
X850726Y218247D01*
X851315Y217331D01*
X851837Y216376D01*
X852289Y215386D01*
X852669Y214366D01*
X852976Y213321D01*
X853207Y212258D01*
X853362Y211180D01*
X853440Y210094D01*
X853440Y209006D01*
M02*
