G04 EAGLE Gerber RS-274X export*
G75*
%MOMM*%
%FSLAX34Y34*%
%LPD*%
%INSoldermask Bottom*%
%IPPOS*%
%AMOC8*
5,1,8,0,0,1.08239X$1,22.5*%
G01*
%ADD10C,3.175000*%
%ADD11C,1.987400*%
%ADD12R,1.987400X1.987400*%
%ADD13C,2.006600*%
%ADD14P,2.171924X8X22.500000*%
%ADD15C,7.627000*%
%ADD16C,1.803400*%
%ADD17C,3.429000*%
%ADD18C,0.831000*%
%ADD19C,0.731000*%


D10*
X76200Y209550D03*
X76200Y781050D03*
X838200Y781050D03*
X838200Y209550D03*
D11*
X406400Y38100D03*
X381000Y38100D03*
X431800Y38100D03*
X457200Y38100D03*
X482600Y38100D03*
X508000Y38100D03*
X533400Y38100D03*
X558800Y38100D03*
X584200Y38100D03*
X609600Y38100D03*
D12*
X635000Y38100D03*
D11*
X355600Y38100D03*
X330200Y38100D03*
X304800Y38100D03*
X279400Y38100D03*
X254000Y38100D03*
X228600Y38100D03*
X203200Y38100D03*
X177800Y38100D03*
X152400Y38100D03*
X406400Y215900D03*
X381000Y215900D03*
X431800Y215900D03*
X457200Y215900D03*
X482600Y215900D03*
X508000Y215900D03*
X533400Y215900D03*
X558800Y215900D03*
X584200Y215900D03*
X609600Y215900D03*
D12*
X635000Y215900D03*
D11*
X355600Y215900D03*
X330200Y215900D03*
X304800Y215900D03*
X279400Y215900D03*
X254000Y215900D03*
X228600Y215900D03*
X203200Y215900D03*
X177800Y215900D03*
X152400Y215900D03*
D13*
X368300Y76200D03*
X342900Y76200D03*
X317500Y76200D03*
X241300Y406400D03*
X215900Y406400D03*
X190500Y406400D03*
D14*
X127000Y765840D03*
X127000Y791240D03*
X127000Y816640D03*
X127000Y842040D03*
X152400Y763300D03*
X152400Y788700D03*
X152400Y814100D03*
X152400Y839500D03*
X177800Y763300D03*
X177800Y788700D03*
X177800Y814100D03*
X177800Y839500D03*
X203200Y763300D03*
X203200Y788700D03*
X203200Y814100D03*
X203200Y839500D03*
X228600Y763300D03*
X228600Y788700D03*
X228600Y814100D03*
X228600Y839500D03*
X254000Y763300D03*
X254000Y788700D03*
X254000Y814100D03*
X254000Y839500D03*
X279400Y763300D03*
X279400Y788700D03*
X279400Y814100D03*
X279400Y839500D03*
X304800Y763300D03*
X304800Y788700D03*
X304800Y814100D03*
X304800Y839500D03*
X330200Y763300D03*
X330200Y788700D03*
X330200Y814100D03*
X330200Y839500D03*
X355600Y763300D03*
X355600Y788700D03*
X355600Y814100D03*
X355600Y839500D03*
X381000Y763300D03*
X381000Y788700D03*
X381000Y814100D03*
X381000Y839500D03*
X406400Y763300D03*
X406400Y788700D03*
X406400Y814100D03*
X406400Y839500D03*
X431800Y763300D03*
X431800Y788700D03*
X431800Y814100D03*
X431800Y839500D03*
X457200Y763300D03*
X457200Y788700D03*
X457200Y814100D03*
X457200Y839500D03*
X482600Y763300D03*
X482600Y788700D03*
X482600Y814100D03*
X482600Y839500D03*
X508000Y763300D03*
X508000Y788700D03*
X508000Y814100D03*
X508000Y839500D03*
X533400Y763300D03*
X533400Y788700D03*
X533400Y814100D03*
X533400Y839500D03*
X558800Y763300D03*
X558800Y788700D03*
X558800Y814100D03*
X558800Y839500D03*
X584200Y763300D03*
X584200Y788700D03*
X584200Y814100D03*
X584200Y839500D03*
X609600Y763300D03*
X609600Y788700D03*
X609600Y814100D03*
X609600Y839500D03*
X635000Y763300D03*
X635000Y788700D03*
X635000Y814100D03*
X635000Y839500D03*
X660400Y763300D03*
X660400Y788700D03*
X660400Y814100D03*
X660400Y839500D03*
X685800Y763300D03*
X685800Y788700D03*
X685800Y814100D03*
X685800Y839500D03*
X711200Y763300D03*
X711200Y788700D03*
X711200Y814100D03*
X711200Y839500D03*
X736600Y763300D03*
X736600Y788700D03*
X736600Y814100D03*
X736600Y839500D03*
X762000Y765840D03*
X762000Y791240D03*
X762000Y816640D03*
X762000Y842040D03*
D15*
X49500Y839500D03*
X49500Y49500D03*
X839500Y49500D03*
X839500Y839500D03*
D13*
X25400Y787400D03*
X25400Y762000D03*
D16*
X811530Y139700D03*
X666750Y165100D03*
D17*
X736600Y205740D03*
X736600Y73660D03*
D16*
X666750Y114300D03*
X811530Y165100D03*
X811530Y114300D03*
D13*
X838200Y254000D03*
X838200Y279400D03*
X838200Y304800D03*
X838200Y330200D03*
X838200Y355600D03*
X838200Y381000D03*
X838200Y406400D03*
X838200Y431800D03*
X838200Y457200D03*
X838200Y482600D03*
X838200Y508000D03*
X838200Y533400D03*
X838200Y558800D03*
X838200Y584200D03*
X838200Y609600D03*
X838200Y635000D03*
X838200Y660400D03*
X838200Y685800D03*
X838200Y711200D03*
X838200Y736600D03*
X76200Y254000D03*
X76200Y279400D03*
X76200Y304800D03*
X76200Y330200D03*
X76200Y355600D03*
X76200Y381000D03*
X76200Y406400D03*
X76200Y431800D03*
X76200Y457200D03*
X76200Y482600D03*
X76200Y508000D03*
X76200Y533400D03*
X76200Y558800D03*
X76200Y584200D03*
X76200Y609600D03*
X76200Y635000D03*
X76200Y660400D03*
X76200Y685800D03*
X76200Y711200D03*
X76200Y736600D03*
D18*
X139700Y698500D03*
X190500Y266700D03*
X279400Y158750D03*
X317500Y234950D03*
X342900Y234950D03*
X368300Y234950D03*
X393700Y234950D03*
X342900Y736600D03*
X368300Y736600D03*
X393700Y736600D03*
X279400Y723900D03*
X292100Y736600D03*
X311150Y742950D03*
X812800Y711200D03*
X419100Y234950D03*
X444500Y234950D03*
X469900Y234950D03*
X495300Y234950D03*
X520700Y234950D03*
X546100Y234950D03*
X469900Y736600D03*
X495300Y742950D03*
X520700Y285750D03*
X520700Y342900D03*
X520700Y393700D03*
X520700Y438150D03*
X520700Y488950D03*
X520700Y539750D03*
X520700Y590550D03*
X520700Y641350D03*
X520700Y698500D03*
X546100Y698500D03*
X546100Y641350D03*
X546100Y590550D03*
X546100Y539750D03*
X546100Y488950D03*
X546100Y438150D03*
X546100Y393700D03*
X546100Y342900D03*
X546100Y285750D03*
X266700Y19050D03*
X107950Y25400D03*
X469900Y19050D03*
X558800Y742950D03*
X584200Y438150D03*
X596900Y641350D03*
X768350Y444500D03*
X215900Y266700D03*
X241300Y266700D03*
X273050Y234950D03*
X107950Y838200D03*
X107950Y812800D03*
X127000Y38100D03*
X25400Y114300D03*
X50800Y704850D03*
X368300Y203200D03*
X342900Y342900D03*
X368300Y317500D03*
X368300Y368300D03*
X444500Y368300D03*
X469900Y393700D03*
X812800Y342900D03*
X812800Y368300D03*
X812800Y317500D03*
X812800Y292100D03*
X812800Y393700D03*
X768350Y469900D03*
X419100Y158750D03*
X444500Y158750D03*
X558800Y57150D03*
X787400Y685800D03*
X552450Y723900D03*
X736600Y38100D03*
X279400Y101600D03*
X857250Y673100D03*
X857250Y419100D03*
X654050Y273050D03*
X381000Y304800D03*
X361950Y723900D03*
X355600Y355600D03*
X508000Y704850D03*
X266700Y139700D03*
X292100Y139700D03*
X330200Y330200D03*
X457200Y647700D03*
X457200Y381000D03*
X482600Y685800D03*
X609600Y685800D03*
X431800Y666750D03*
X552450Y184150D03*
D19*
X762000Y279400D03*
D18*
X336550Y139700D03*
X793750Y97282D03*
D19*
X615950Y69850D03*
M02*
