G04 EAGLE Gerber RS-274X export*
G75*
%MOMM*%
%FSLAX34Y34*%
%LPD*%
%INSilkscreen Top*%
%IPPOS*%
%AMOC8*
5,1,8,0,0,1.08239X$1,22.5*%
G01*
%ADD10C,0.152400*%
%ADD11C,0.076200*%
%ADD12C,0.203200*%
%ADD13C,0.127000*%
%ADD14C,0.101600*%
%ADD15C,0.200000*%
%ADD16C,0.000000*%

G36*
X284870Y325505D02*
X284870Y325505D01*
X284872Y325507D01*
X284873Y325506D01*
X285544Y325741D01*
X285545Y325742D01*
X285546Y325742D01*
X286148Y326120D01*
X286149Y326122D01*
X286151Y326122D01*
X286653Y326624D01*
X286653Y326626D01*
X286655Y326627D01*
X287033Y327229D01*
X287033Y327230D01*
X287034Y327231D01*
X287269Y327902D01*
X287269Y327904D01*
X287270Y327905D01*
X287349Y328611D01*
X287349Y328612D01*
X287348Y328613D01*
X287349Y328614D01*
X287270Y329320D01*
X287268Y329322D01*
X287269Y329323D01*
X287034Y329994D01*
X287033Y329995D01*
X287033Y329996D01*
X286655Y330598D01*
X286653Y330599D01*
X286653Y330601D01*
X286151Y331103D01*
X286149Y331103D01*
X286148Y331105D01*
X285546Y331483D01*
X285545Y331483D01*
X285544Y331484D01*
X284873Y331719D01*
X284871Y331719D01*
X284870Y331720D01*
X284164Y331799D01*
X284162Y331798D01*
X284161Y331799D01*
X283455Y331720D01*
X283453Y331718D01*
X283452Y331719D01*
X282781Y331484D01*
X282780Y331483D01*
X282779Y331483D01*
X282177Y331105D01*
X282176Y331103D01*
X282174Y331103D01*
X281672Y330601D01*
X281672Y330599D01*
X281670Y330598D01*
X281292Y329996D01*
X281292Y329995D01*
X281291Y329994D01*
X281056Y329323D01*
X281057Y329321D01*
X281055Y329320D01*
X280976Y328614D01*
X280977Y328612D01*
X280976Y328611D01*
X281055Y327905D01*
X281057Y327903D01*
X281056Y327902D01*
X281291Y327231D01*
X281292Y327230D01*
X281292Y327229D01*
X281670Y326627D01*
X281672Y326626D01*
X281672Y326624D01*
X282174Y326122D01*
X282176Y326122D01*
X282177Y326120D01*
X282779Y325742D01*
X282780Y325742D01*
X282781Y325741D01*
X283452Y325506D01*
X283454Y325507D01*
X283455Y325505D01*
X284161Y325426D01*
X284163Y325427D01*
X284164Y325426D01*
X284870Y325505D01*
G37*
D10*
X311912Y257474D02*
X314624Y254762D01*
X317335Y254762D01*
X320047Y257474D01*
X320047Y271032D01*
X317335Y271032D02*
X322759Y271032D01*
X328284Y271032D02*
X328284Y254762D01*
X339130Y254762D01*
X352790Y271032D02*
X355502Y268320D01*
X352790Y271032D02*
X347367Y271032D01*
X344655Y268320D01*
X344655Y257474D01*
X347367Y254762D01*
X352790Y254762D01*
X355502Y257474D01*
X361027Y257474D02*
X363738Y254762D01*
X366450Y254762D01*
X369162Y257474D01*
X369162Y271032D01*
X371873Y271032D02*
X366450Y271032D01*
X377398Y271032D02*
X377398Y254762D01*
X388245Y254762D01*
X401905Y271032D02*
X404616Y268320D01*
X401905Y271032D02*
X396481Y271032D01*
X393770Y268320D01*
X393770Y257474D01*
X396481Y254762D01*
X401905Y254762D01*
X404616Y257474D01*
X410141Y257474D02*
X412853Y254762D01*
X415565Y254762D01*
X418276Y257474D01*
X418276Y271032D01*
X415565Y271032D02*
X420988Y271032D01*
X426513Y271032D02*
X426513Y254762D01*
X437360Y254762D01*
X451019Y271032D02*
X453731Y268320D01*
X451019Y271032D02*
X445596Y271032D01*
X442885Y268320D01*
X442885Y257474D01*
X445596Y254762D01*
X451019Y254762D01*
X453731Y257474D01*
X459256Y257474D02*
X461968Y254762D01*
X464679Y254762D01*
X467391Y257474D01*
X467391Y271032D01*
X464679Y271032D02*
X470103Y271032D01*
X475628Y271032D02*
X475628Y254762D01*
X486474Y254762D01*
X500134Y271032D02*
X502846Y268320D01*
X500134Y271032D02*
X494711Y271032D01*
X491999Y268320D01*
X491999Y257474D01*
X494711Y254762D01*
X500134Y254762D01*
X502846Y257474D01*
X37338Y356362D02*
X26491Y356362D01*
X21068Y361785D01*
X26491Y367209D01*
X37338Y367209D01*
X29203Y367209D02*
X29203Y356362D01*
X37338Y372734D02*
X21068Y372734D01*
X21068Y380869D01*
X23780Y383580D01*
X29203Y383580D01*
X31915Y380869D01*
X31915Y372734D01*
X21068Y391817D02*
X21068Y397240D01*
X21068Y391817D02*
X23780Y389105D01*
X34626Y389105D01*
X37338Y391817D01*
X37338Y397240D01*
X34626Y399952D01*
X23780Y399952D01*
X21068Y397240D01*
X21068Y405477D02*
X37338Y405477D01*
X37338Y416323D01*
X37338Y421848D02*
X21068Y421848D01*
X37338Y421848D02*
X37338Y432695D01*
X21068Y440931D02*
X21068Y446355D01*
X21068Y440931D02*
X23780Y438220D01*
X34626Y438220D01*
X37338Y440931D01*
X37338Y446355D01*
X34626Y449066D01*
X23780Y449066D01*
X21068Y446355D01*
X21068Y479098D02*
X23780Y481810D01*
X21068Y479098D02*
X21068Y473675D01*
X23780Y470963D01*
X34626Y470963D01*
X37338Y473675D01*
X37338Y479098D01*
X34626Y481810D01*
X21068Y490046D02*
X21068Y495469D01*
X21068Y490046D02*
X23780Y487335D01*
X34626Y487335D01*
X37338Y490046D01*
X37338Y495469D01*
X34626Y498181D01*
X23780Y498181D01*
X21068Y495469D01*
X21068Y503706D02*
X37338Y503706D01*
X37338Y514553D02*
X21068Y503706D01*
X21068Y514553D02*
X37338Y514553D01*
X37338Y525501D02*
X21068Y525501D01*
X21068Y520078D02*
X21068Y530924D01*
X21068Y536449D02*
X37338Y536449D01*
X21068Y536449D02*
X21068Y544584D01*
X23780Y547296D01*
X29203Y547296D01*
X31915Y544584D01*
X31915Y536449D01*
X31915Y541872D02*
X37338Y547296D01*
X21068Y555532D02*
X21068Y560956D01*
X21068Y555532D02*
X23780Y552821D01*
X34626Y552821D01*
X37338Y555532D01*
X37338Y560956D01*
X34626Y563667D01*
X23780Y563667D01*
X21068Y560956D01*
X21068Y569192D02*
X37338Y569192D01*
X37338Y580039D01*
X37338Y601935D02*
X21068Y601935D01*
X21068Y610070D01*
X23780Y612782D01*
X29203Y612782D01*
X31915Y610070D01*
X31915Y601935D01*
X31915Y607359D02*
X37338Y612782D01*
X21068Y618307D02*
X21068Y629154D01*
X21068Y618307D02*
X37338Y618307D01*
X37338Y629154D01*
X29203Y623730D02*
X29203Y618307D01*
X31915Y634679D02*
X21068Y634679D01*
X31915Y634679D02*
X37338Y640102D01*
X31915Y645525D01*
X21068Y645525D01*
X26491Y667422D02*
X37338Y667422D01*
X26491Y667422D02*
X21068Y672845D01*
X26491Y678268D01*
X37338Y678268D01*
X29203Y678268D02*
X29203Y667422D01*
X108300Y187150D02*
X108300Y181150D01*
X120300Y181150D02*
X120300Y187150D01*
D11*
X116970Y209935D02*
X116080Y210825D01*
X114301Y210825D01*
X113411Y209935D01*
X113411Y206376D01*
X114301Y205486D01*
X116080Y205486D01*
X116970Y206376D01*
X119024Y209045D02*
X120804Y210825D01*
X120804Y205486D01*
X122583Y205486D02*
X119024Y205486D01*
D10*
X120300Y149050D02*
X120300Y143050D01*
X108300Y143050D02*
X108300Y149050D01*
D11*
X107394Y124719D02*
X108284Y123829D01*
X107394Y124719D02*
X105615Y124719D01*
X104725Y123829D01*
X104725Y120270D01*
X105615Y119380D01*
X107394Y119380D01*
X108284Y120270D01*
X110338Y119380D02*
X113897Y119380D01*
X110338Y119380D02*
X113897Y122939D01*
X113897Y123829D01*
X113007Y124719D01*
X111228Y124719D01*
X110338Y123829D01*
D10*
X187500Y241650D02*
X193500Y241650D01*
X193500Y253650D02*
X187500Y253650D01*
D11*
X189944Y239019D02*
X190834Y238129D01*
X189944Y239019D02*
X188165Y239019D01*
X187275Y238129D01*
X187275Y234570D01*
X188165Y233680D01*
X189944Y233680D01*
X190834Y234570D01*
X192888Y238129D02*
X193778Y239019D01*
X195557Y239019D01*
X196447Y238129D01*
X196447Y237239D01*
X195557Y236349D01*
X194667Y236349D01*
X195557Y236349D02*
X196447Y235460D01*
X196447Y234570D01*
X195557Y233680D01*
X193778Y233680D01*
X192888Y234570D01*
D10*
X282750Y260000D02*
X288750Y260000D01*
X288750Y248000D02*
X282750Y248000D01*
D11*
X282070Y267085D02*
X281180Y267975D01*
X279401Y267975D01*
X278511Y267085D01*
X278511Y263526D01*
X279401Y262636D01*
X281180Y262636D01*
X282070Y263526D01*
X286793Y262636D02*
X286793Y267975D01*
X284124Y265305D01*
X287683Y265305D01*
D12*
X46850Y179600D02*
X46850Y175100D01*
X46850Y179600D02*
X92850Y179600D01*
X92850Y175100D01*
X92850Y155100D02*
X92850Y150600D01*
X46850Y150600D01*
X46850Y155100D01*
X101600Y155100D02*
X101600Y175100D01*
D11*
X64618Y181991D02*
X64618Y187330D01*
X64618Y181991D02*
X67287Y181991D01*
X68177Y182881D01*
X68177Y186440D01*
X67287Y187330D01*
X64618Y187330D01*
X70231Y185550D02*
X72011Y187330D01*
X72011Y181991D01*
X73790Y181991D02*
X70231Y181991D01*
D13*
X133700Y25500D02*
X653700Y25500D01*
X133700Y25500D02*
X133700Y228500D01*
X653700Y228500D01*
X653700Y25500D01*
D14*
X609202Y21446D02*
X609202Y10447D01*
X609202Y21446D02*
X616535Y21446D01*
X612869Y15947D02*
X609202Y15947D01*
X625757Y21446D02*
X627590Y19613D01*
X625757Y21446D02*
X622091Y21446D01*
X620257Y19613D01*
X620257Y17780D01*
X622091Y15947D01*
X625757Y15947D01*
X627590Y14113D01*
X627590Y12280D01*
X625757Y10447D01*
X622091Y10447D01*
X620257Y12280D01*
X631313Y10447D02*
X631313Y21446D01*
X631313Y10447D02*
X636812Y10447D01*
X638646Y12280D01*
X638646Y19613D01*
X636812Y21446D01*
X631313Y21446D01*
X642368Y17780D02*
X646034Y21446D01*
X646034Y10447D01*
X642368Y10447D02*
X649701Y10447D01*
X620423Y235023D02*
X620423Y246031D01*
X627762Y246031D01*
X624093Y240527D02*
X620423Y240527D01*
X636991Y246031D02*
X638825Y244197D01*
X636991Y246031D02*
X633321Y246031D01*
X631486Y244197D01*
X631486Y236858D01*
X633321Y235023D01*
X636991Y235023D01*
X638825Y236858D01*
X648054Y246031D02*
X649889Y244197D01*
X648054Y246031D02*
X644384Y246031D01*
X642550Y244197D01*
X642550Y242362D01*
X644384Y240527D01*
X648054Y240527D01*
X649889Y238692D01*
X649889Y236858D01*
X648054Y235023D01*
X644384Y235023D01*
X642550Y236858D01*
X132872Y21441D02*
X131039Y19608D01*
X132872Y21441D02*
X136539Y21441D01*
X138372Y19608D01*
X138372Y17775D01*
X136539Y15941D01*
X134705Y15941D01*
X136539Y15941D02*
X138372Y14108D01*
X138372Y12274D01*
X136539Y10441D01*
X132872Y10441D01*
X131039Y12274D01*
X142094Y14108D02*
X142094Y21441D01*
X142094Y14108D02*
X145761Y10441D01*
X149428Y14108D01*
X149428Y21441D01*
X153150Y19608D02*
X154984Y21441D01*
X158650Y21441D01*
X160484Y19608D01*
X160484Y17775D01*
X158650Y15941D01*
X156817Y15941D01*
X158650Y15941D02*
X160484Y14108D01*
X160484Y12274D01*
X158650Y10441D01*
X154984Y10441D01*
X153150Y12274D01*
X144367Y245939D02*
X137034Y245939D01*
X137034Y240440D01*
X140701Y242273D01*
X142534Y242273D01*
X144367Y240440D01*
X144367Y236773D01*
X142534Y234940D01*
X138868Y234940D01*
X137034Y236773D01*
X148089Y238607D02*
X148089Y245939D01*
X148089Y238607D02*
X151756Y234940D01*
X155422Y238607D01*
X155422Y245939D01*
D15*
X662464Y38000D02*
X662466Y38094D01*
X662472Y38188D01*
X662482Y38282D01*
X662496Y38375D01*
X662514Y38468D01*
X662535Y38560D01*
X662561Y38650D01*
X662590Y38740D01*
X662623Y38828D01*
X662660Y38915D01*
X662700Y39000D01*
X662744Y39084D01*
X662792Y39165D01*
X662842Y39245D01*
X662897Y39322D01*
X662954Y39397D01*
X663014Y39469D01*
X663078Y39539D01*
X663144Y39606D01*
X663213Y39670D01*
X663285Y39731D01*
X663359Y39789D01*
X663436Y39844D01*
X663515Y39896D01*
X663596Y39944D01*
X663679Y39989D01*
X663763Y40030D01*
X663850Y40068D01*
X663938Y40102D01*
X664027Y40132D01*
X664117Y40159D01*
X664209Y40181D01*
X664301Y40200D01*
X664395Y40215D01*
X664488Y40226D01*
X664582Y40233D01*
X664676Y40236D01*
X664771Y40235D01*
X664865Y40230D01*
X664959Y40221D01*
X665052Y40208D01*
X665145Y40191D01*
X665237Y40171D01*
X665328Y40146D01*
X665418Y40118D01*
X665506Y40086D01*
X665594Y40050D01*
X665679Y40010D01*
X665763Y39967D01*
X665845Y39921D01*
X665925Y39871D01*
X666003Y39817D01*
X666078Y39761D01*
X666151Y39701D01*
X666222Y39638D01*
X666289Y39573D01*
X666354Y39504D01*
X666416Y39433D01*
X666475Y39360D01*
X666531Y39284D01*
X666583Y39205D01*
X666632Y39125D01*
X666678Y39042D01*
X666720Y38958D01*
X666759Y38872D01*
X666794Y38784D01*
X666825Y38695D01*
X666853Y38605D01*
X666876Y38514D01*
X666896Y38422D01*
X666912Y38329D01*
X666924Y38235D01*
X666932Y38141D01*
X666936Y38047D01*
X666936Y37953D01*
X666932Y37859D01*
X666924Y37765D01*
X666912Y37671D01*
X666896Y37578D01*
X666876Y37486D01*
X666853Y37395D01*
X666825Y37305D01*
X666794Y37216D01*
X666759Y37128D01*
X666720Y37042D01*
X666678Y36958D01*
X666632Y36875D01*
X666583Y36795D01*
X666531Y36716D01*
X666475Y36640D01*
X666416Y36567D01*
X666354Y36496D01*
X666289Y36427D01*
X666222Y36362D01*
X666151Y36299D01*
X666078Y36239D01*
X666003Y36183D01*
X665925Y36129D01*
X665845Y36079D01*
X665763Y36033D01*
X665679Y35990D01*
X665594Y35950D01*
X665506Y35914D01*
X665418Y35882D01*
X665328Y35854D01*
X665237Y35829D01*
X665145Y35809D01*
X665052Y35792D01*
X664959Y35779D01*
X664865Y35770D01*
X664771Y35765D01*
X664676Y35764D01*
X664582Y35767D01*
X664488Y35774D01*
X664395Y35785D01*
X664301Y35800D01*
X664209Y35819D01*
X664117Y35841D01*
X664027Y35868D01*
X663938Y35898D01*
X663850Y35932D01*
X663763Y35970D01*
X663679Y36011D01*
X663596Y36056D01*
X663515Y36104D01*
X663436Y36156D01*
X663359Y36211D01*
X663285Y36269D01*
X663213Y36330D01*
X663144Y36394D01*
X663078Y36461D01*
X663014Y36531D01*
X662954Y36603D01*
X662897Y36678D01*
X662842Y36755D01*
X662792Y36835D01*
X662744Y36916D01*
X662700Y37000D01*
X662660Y37085D01*
X662623Y37172D01*
X662590Y37260D01*
X662561Y37350D01*
X662535Y37440D01*
X662514Y37532D01*
X662496Y37625D01*
X662482Y37718D01*
X662472Y37812D01*
X662466Y37906D01*
X662464Y38000D01*
D11*
X663436Y44940D02*
X662546Y45830D01*
X663436Y44940D02*
X664325Y44940D01*
X665215Y45830D01*
X665215Y50279D01*
X664325Y50279D02*
X666105Y50279D01*
X668159Y48499D02*
X669938Y50279D01*
X669938Y44940D01*
X668159Y44940D02*
X671718Y44940D01*
D12*
X330200Y69850D02*
X323850Y63500D01*
X311150Y63500D01*
X304800Y69850D01*
X304800Y82550D02*
X311150Y88900D01*
X323850Y88900D01*
X330200Y82550D01*
X361950Y63500D02*
X374650Y63500D01*
X361950Y63500D02*
X355600Y69850D01*
X355600Y82550D02*
X361950Y88900D01*
X355600Y69850D02*
X349250Y63500D01*
X336550Y63500D01*
X330200Y69850D01*
X330200Y82550D02*
X336550Y88900D01*
X349250Y88900D01*
X355600Y82550D01*
X381000Y82550D02*
X381000Y69850D01*
X374650Y63500D01*
X381000Y82550D02*
X374650Y88900D01*
X361950Y88900D01*
X304800Y82550D02*
X304800Y69850D01*
D11*
X370155Y57405D02*
X371045Y56515D01*
X371934Y56515D01*
X372824Y57405D01*
X372824Y61854D01*
X371934Y61854D02*
X373714Y61854D01*
X375768Y56515D02*
X379327Y56515D01*
X375768Y56515D02*
X379327Y60074D01*
X379327Y60964D01*
X378437Y61854D01*
X376658Y61854D01*
X375768Y60964D01*
D12*
X196850Y393700D02*
X203200Y400050D01*
X196850Y393700D02*
X184150Y393700D01*
X177800Y400050D01*
X177800Y412750D02*
X184150Y419100D01*
X196850Y419100D01*
X203200Y412750D01*
X234950Y393700D02*
X247650Y393700D01*
X234950Y393700D02*
X228600Y400050D01*
X228600Y412750D02*
X234950Y419100D01*
X228600Y400050D02*
X222250Y393700D01*
X209550Y393700D01*
X203200Y400050D01*
X203200Y412750D02*
X209550Y419100D01*
X222250Y419100D01*
X228600Y412750D01*
X254000Y412750D02*
X254000Y400050D01*
X247650Y393700D01*
X254000Y412750D02*
X247650Y419100D01*
X234950Y419100D01*
X177800Y412750D02*
X177800Y400050D01*
D11*
X260731Y408941D02*
X261621Y408051D01*
X262511Y408051D01*
X263400Y408941D01*
X263400Y413390D01*
X262511Y413390D02*
X264290Y413390D01*
X266344Y412500D02*
X267234Y413390D01*
X269013Y413390D01*
X269903Y412500D01*
X269903Y411610D01*
X269013Y410720D01*
X268124Y410720D01*
X269013Y410720D02*
X269903Y409831D01*
X269903Y408941D01*
X269013Y408051D01*
X267234Y408051D01*
X266344Y408941D01*
D10*
X180800Y63850D02*
X174800Y63850D01*
X174800Y75850D02*
X180800Y75850D01*
D11*
X174575Y61219D02*
X174575Y55880D01*
X174575Y61219D02*
X177244Y61219D01*
X178134Y60329D01*
X178134Y58549D01*
X177244Y57660D01*
X174575Y57660D01*
X176354Y57660D02*
X178134Y55880D01*
X180188Y59439D02*
X181967Y61219D01*
X181967Y55880D01*
X180188Y55880D02*
X183747Y55880D01*
D10*
X488600Y174800D02*
X488600Y180800D01*
X476600Y180800D02*
X476600Y174800D01*
D11*
X475361Y192786D02*
X475361Y198125D01*
X478030Y198125D01*
X478920Y197235D01*
X478920Y195455D01*
X478030Y194566D01*
X475361Y194566D01*
X477141Y194566D02*
X478920Y192786D01*
X480974Y196345D02*
X482754Y198125D01*
X482754Y192786D01*
X484533Y192786D02*
X480974Y192786D01*
X486587Y193676D02*
X486587Y197235D01*
X487477Y198125D01*
X489256Y198125D01*
X490146Y197235D01*
X490146Y193676D01*
X489256Y192786D01*
X487477Y192786D01*
X486587Y193676D01*
X490146Y197235D01*
D10*
X437800Y180800D02*
X437800Y174800D01*
X425800Y174800D02*
X425800Y180800D01*
D11*
X424561Y192786D02*
X424561Y198125D01*
X427230Y198125D01*
X428120Y197235D01*
X428120Y195455D01*
X427230Y194566D01*
X424561Y194566D01*
X426341Y194566D02*
X428120Y192786D01*
X430174Y196345D02*
X431954Y198125D01*
X431954Y192786D01*
X433733Y192786D02*
X430174Y192786D01*
X435787Y196345D02*
X437567Y198125D01*
X437567Y192786D01*
X439346Y192786D02*
X435787Y192786D01*
D10*
X463200Y180800D02*
X463200Y174800D01*
X451200Y174800D02*
X451200Y180800D01*
D11*
X449961Y192786D02*
X449961Y198125D01*
X452630Y198125D01*
X453520Y197235D01*
X453520Y195455D01*
X452630Y194566D01*
X449961Y194566D01*
X451741Y194566D02*
X453520Y192786D01*
X455574Y196345D02*
X457354Y198125D01*
X457354Y192786D01*
X459133Y192786D02*
X455574Y192786D01*
X461187Y192786D02*
X464746Y192786D01*
X461187Y192786D02*
X464746Y196345D01*
X464746Y197235D01*
X463856Y198125D01*
X462077Y198125D01*
X461187Y197235D01*
D10*
X412400Y180800D02*
X412400Y174800D01*
X400400Y174800D02*
X400400Y180800D01*
D11*
X399161Y192786D02*
X399161Y198125D01*
X401830Y198125D01*
X402720Y197235D01*
X402720Y195455D01*
X401830Y194566D01*
X399161Y194566D01*
X400941Y194566D02*
X402720Y192786D01*
X404774Y196345D02*
X406554Y198125D01*
X406554Y192786D01*
X408333Y192786D02*
X404774Y192786D01*
X410387Y197235D02*
X411277Y198125D01*
X413056Y198125D01*
X413946Y197235D01*
X413946Y196345D01*
X413056Y195455D01*
X412167Y195455D01*
X413056Y195455D02*
X413946Y194566D01*
X413946Y193676D01*
X413056Y192786D01*
X411277Y192786D01*
X410387Y193676D01*
D10*
X310800Y180800D02*
X310800Y174800D01*
X298800Y174800D02*
X298800Y180800D01*
D11*
X297561Y192786D02*
X297561Y198125D01*
X300230Y198125D01*
X301120Y197235D01*
X301120Y195455D01*
X300230Y194566D01*
X297561Y194566D01*
X299341Y194566D02*
X301120Y192786D01*
X303174Y196345D02*
X304954Y198125D01*
X304954Y192786D01*
X306733Y192786D02*
X303174Y192786D01*
X311456Y192786D02*
X311456Y198125D01*
X308787Y195455D01*
X312346Y195455D01*
D10*
X336200Y180800D02*
X336200Y174800D01*
X324200Y174800D02*
X324200Y180800D01*
D11*
X322961Y192786D02*
X322961Y198125D01*
X325630Y198125D01*
X326520Y197235D01*
X326520Y195455D01*
X325630Y194566D01*
X322961Y194566D01*
X324741Y194566D02*
X326520Y192786D01*
X328574Y196345D02*
X330354Y198125D01*
X330354Y192786D01*
X332133Y192786D02*
X328574Y192786D01*
X334187Y198125D02*
X337746Y198125D01*
X334187Y198125D02*
X334187Y195455D01*
X335967Y196345D01*
X336856Y196345D01*
X337746Y195455D01*
X337746Y193676D01*
X336856Y192786D01*
X335077Y192786D01*
X334187Y193676D01*
D10*
X514000Y180800D02*
X514000Y174800D01*
X502000Y174800D02*
X502000Y180800D01*
D11*
X500761Y192786D02*
X500761Y198125D01*
X503430Y198125D01*
X504320Y197235D01*
X504320Y195455D01*
X503430Y194566D01*
X500761Y194566D01*
X502541Y194566D02*
X504320Y192786D01*
X506374Y196345D02*
X508154Y198125D01*
X508154Y192786D01*
X509933Y192786D02*
X506374Y192786D01*
X513767Y197235D02*
X515546Y198125D01*
X513767Y197235D02*
X511987Y195455D01*
X511987Y193676D01*
X512877Y192786D01*
X514656Y192786D01*
X515546Y193676D01*
X515546Y194566D01*
X514656Y195455D01*
X511987Y195455D01*
D10*
X425800Y142700D02*
X425800Y136700D01*
X437800Y136700D02*
X437800Y142700D01*
D11*
X422962Y124719D02*
X422962Y119380D01*
X422962Y124719D02*
X425631Y124719D01*
X426521Y123829D01*
X426521Y122049D01*
X425631Y121160D01*
X422962Y121160D01*
X424741Y121160D02*
X426521Y119380D01*
X428575Y122939D02*
X430354Y124719D01*
X430354Y119380D01*
X428575Y119380D02*
X432134Y119380D01*
X434188Y124719D02*
X437747Y124719D01*
X437747Y123829D01*
X434188Y120270D01*
X434188Y119380D01*
D10*
X247300Y358950D02*
X247300Y364950D01*
X235300Y364950D02*
X235300Y358950D01*
D11*
X240411Y383286D02*
X240411Y388625D01*
X243080Y388625D01*
X243970Y387735D01*
X243970Y385955D01*
X243080Y385066D01*
X240411Y385066D01*
X242191Y385066D02*
X243970Y383286D01*
X246024Y383286D02*
X249583Y383286D01*
X246024Y383286D02*
X249583Y386845D01*
X249583Y387735D01*
X248693Y388625D01*
X246914Y388625D01*
X246024Y387735D01*
D10*
X266350Y364950D02*
X266350Y358950D01*
X254350Y358950D02*
X254350Y364950D01*
D11*
X259461Y383286D02*
X259461Y388625D01*
X262130Y388625D01*
X263020Y387735D01*
X263020Y385955D01*
X262130Y385066D01*
X259461Y385066D01*
X261241Y385066D02*
X263020Y383286D01*
X265074Y387735D02*
X265964Y388625D01*
X267743Y388625D01*
X268633Y387735D01*
X268633Y386845D01*
X267743Y385955D01*
X266854Y385955D01*
X267743Y385955D02*
X268633Y385066D01*
X268633Y384176D01*
X267743Y383286D01*
X265964Y383286D01*
X265074Y384176D01*
D10*
X285400Y364950D02*
X285400Y358950D01*
X273400Y358950D02*
X273400Y364950D01*
D11*
X278511Y383286D02*
X278511Y388625D01*
X281180Y388625D01*
X282070Y387735D01*
X282070Y385955D01*
X281180Y385066D01*
X278511Y385066D01*
X280291Y385066D02*
X282070Y383286D01*
X286793Y383286D02*
X286793Y388625D01*
X284124Y385955D01*
X287683Y385955D01*
D10*
X393350Y117300D02*
X393350Y111300D01*
X381350Y111300D02*
X381350Y117300D01*
D11*
X380111Y129286D02*
X380111Y134625D01*
X382780Y134625D01*
X383670Y133735D01*
X383670Y131955D01*
X382780Y131066D01*
X380111Y131066D01*
X381891Y131066D02*
X383670Y129286D01*
X385724Y134625D02*
X389283Y134625D01*
X385724Y134625D02*
X385724Y131955D01*
X387504Y132845D01*
X388393Y132845D01*
X389283Y131955D01*
X389283Y130176D01*
X388393Y129286D01*
X386614Y129286D01*
X385724Y130176D01*
D10*
X412400Y117300D02*
X412400Y111300D01*
X400400Y111300D02*
X400400Y117300D01*
D11*
X399161Y129286D02*
X399161Y134625D01*
X401830Y134625D01*
X402720Y133735D01*
X402720Y131955D01*
X401830Y131066D01*
X399161Y131066D01*
X400941Y131066D02*
X402720Y129286D01*
X406554Y133735D02*
X408333Y134625D01*
X406554Y133735D02*
X404774Y131955D01*
X404774Y130176D01*
X405664Y129286D01*
X407443Y129286D01*
X408333Y130176D01*
X408333Y131066D01*
X407443Y131955D01*
X404774Y131955D01*
D10*
X155400Y730600D02*
X149400Y730600D01*
X149400Y742600D02*
X155400Y742600D01*
D11*
X123775Y740669D02*
X123775Y735330D01*
X123775Y740669D02*
X126444Y740669D01*
X127334Y739779D01*
X127334Y737999D01*
X126444Y737110D01*
X123775Y737110D01*
X125554Y737110D02*
X127334Y735330D01*
X129388Y740669D02*
X132947Y740669D01*
X132947Y739779D01*
X129388Y736220D01*
X129388Y735330D01*
D10*
X149400Y711550D02*
X155400Y711550D01*
X155400Y723550D02*
X149400Y723550D01*
D11*
X123775Y721619D02*
X123775Y716280D01*
X123775Y721619D02*
X126444Y721619D01*
X127334Y720729D01*
X127334Y718949D01*
X126444Y718060D01*
X123775Y718060D01*
X125554Y718060D02*
X127334Y716280D01*
X129388Y720729D02*
X130278Y721619D01*
X132057Y721619D01*
X132947Y720729D01*
X132947Y719839D01*
X132057Y718949D01*
X132947Y718060D01*
X132947Y717170D01*
X132057Y716280D01*
X130278Y716280D01*
X129388Y717170D01*
X129388Y718060D01*
X130278Y718949D01*
X129388Y719839D01*
X129388Y720729D01*
X130278Y718949D02*
X132057Y718949D01*
D10*
X349600Y180800D02*
X349600Y174800D01*
X361600Y174800D02*
X361600Y180800D01*
D11*
X354711Y192786D02*
X354711Y198125D01*
X357380Y198125D01*
X358270Y197235D01*
X358270Y195455D01*
X357380Y194566D01*
X354711Y194566D01*
X356491Y194566D02*
X358270Y192786D01*
X360324Y193676D02*
X361214Y192786D01*
X362993Y192786D01*
X363883Y193676D01*
X363883Y197235D01*
X362993Y198125D01*
X361214Y198125D01*
X360324Y197235D01*
X360324Y196345D01*
X361214Y195455D01*
X363883Y195455D01*
D12*
X114300Y750600D02*
X113538Y853724D01*
X773938Y853724D01*
X774700Y750600D01*
X114300Y750600D01*
D16*
X444500Y776000D02*
X444500Y826800D01*
X114300Y854000D02*
X114300Y750600D01*
X114300Y854000D02*
X774700Y854000D01*
X774700Y750600D01*
X114300Y750600D01*
D12*
X230632Y285337D02*
X277368Y285337D01*
X226822Y320453D02*
X226806Y320566D01*
X226795Y320680D01*
X226788Y320794D01*
X226784Y320908D01*
X226785Y321023D01*
X226789Y321137D01*
X226797Y321251D01*
X226809Y321365D01*
X226825Y321478D01*
X226845Y321590D01*
X226869Y321702D01*
X226896Y321813D01*
X226928Y321923D01*
X226963Y322032D01*
X227001Y322140D01*
X227044Y322246D01*
X227090Y322350D01*
X227139Y322454D01*
X227192Y322555D01*
X227248Y322654D01*
X227308Y322752D01*
X227371Y322847D01*
X227438Y322940D01*
X227507Y323031D01*
X227579Y323119D01*
X227655Y323205D01*
X227733Y323289D01*
X227814Y323369D01*
X227898Y323447D01*
X227985Y323522D01*
X228074Y323593D01*
X228165Y323662D01*
X228259Y323728D01*
X228354Y323790D01*
X228452Y323849D01*
X228552Y323905D01*
X228654Y323957D01*
X228757Y324006D01*
X228862Y324051D01*
X228969Y324092D01*
X229077Y324130D01*
X229186Y324165D01*
X229296Y324195D01*
X229407Y324222D01*
X229519Y324244D01*
X229632Y324263D01*
X277368Y285337D02*
X277498Y285354D01*
X277627Y285375D01*
X277756Y285400D01*
X277884Y285428D01*
X278011Y285461D01*
X278137Y285497D01*
X278262Y285538D01*
X278385Y285582D01*
X278507Y285629D01*
X278628Y285681D01*
X278747Y285735D01*
X278864Y285794D01*
X278979Y285856D01*
X279093Y285921D01*
X279205Y285990D01*
X279314Y286063D01*
X279421Y286138D01*
X279526Y286217D01*
X279628Y286299D01*
X279728Y286384D01*
X279825Y286471D01*
X279920Y286562D01*
X280012Y286656D01*
X280101Y286752D01*
X280187Y286851D01*
X280269Y286952D01*
X280349Y287056D01*
X280426Y287163D01*
X280499Y287271D01*
X280569Y287382D01*
X280636Y287495D01*
X280699Y287610D01*
X280759Y287726D01*
X280815Y287845D01*
X280868Y287965D01*
X280917Y288086D01*
X280962Y288209D01*
X281004Y288334D01*
X281042Y288459D01*
X281075Y288586D01*
X281106Y288713D01*
X281132Y288842D01*
X281154Y288971D01*
X281173Y289101D01*
X281187Y289231D01*
X281198Y289362D01*
X281204Y289493D01*
X281207Y289624D01*
X281206Y289755D01*
X281200Y289886D01*
X281191Y290016D01*
X281178Y290147D01*
X230632Y285337D02*
X230510Y285339D01*
X230388Y285345D01*
X230266Y285355D01*
X230145Y285368D01*
X230024Y285386D01*
X229904Y285407D01*
X229784Y285432D01*
X229665Y285461D01*
X229548Y285494D01*
X229431Y285531D01*
X229316Y285571D01*
X229202Y285615D01*
X229090Y285663D01*
X228979Y285714D01*
X228870Y285769D01*
X228762Y285827D01*
X228657Y285889D01*
X228553Y285954D01*
X228452Y286022D01*
X228353Y286093D01*
X228256Y286168D01*
X228162Y286246D01*
X228070Y286326D01*
X227981Y286410D01*
X227895Y286496D01*
X227811Y286585D01*
X227731Y286677D01*
X227653Y286771D01*
X227578Y286868D01*
X227507Y286967D01*
X227439Y287068D01*
X227374Y287172D01*
X227312Y287277D01*
X227254Y287385D01*
X227199Y287494D01*
X227148Y287605D01*
X227100Y287717D01*
X227056Y287831D01*
X227016Y287946D01*
X226979Y288063D01*
X226946Y288180D01*
X226917Y288299D01*
X226892Y288419D01*
X226871Y288539D01*
X226853Y288660D01*
X226840Y288781D01*
X226830Y288903D01*
X226824Y289025D01*
X226822Y289147D01*
X277367Y324263D02*
X277481Y324278D01*
X277595Y324290D01*
X277709Y324297D01*
X277823Y324301D01*
X277937Y324300D01*
X278052Y324296D01*
X278166Y324288D01*
X278279Y324276D01*
X278392Y324260D01*
X278505Y324240D01*
X278617Y324216D01*
X278728Y324189D01*
X278838Y324158D01*
X278947Y324123D01*
X279054Y324084D01*
X279161Y324042D01*
X279265Y323996D01*
X279368Y323946D01*
X279470Y323893D01*
X279569Y323837D01*
X279667Y323777D01*
X279762Y323714D01*
X279855Y323648D01*
X279946Y323578D01*
X280034Y323506D01*
X280120Y323430D01*
X280203Y323352D01*
X280284Y323271D01*
X280362Y323187D01*
X280436Y323101D01*
X280508Y323012D01*
X280577Y322920D01*
X280643Y322827D01*
X280705Y322731D01*
X280764Y322633D01*
X280820Y322533D01*
X280872Y322431D01*
X280920Y322328D01*
X280966Y322223D01*
X281007Y322116D01*
X281045Y322008D01*
X281079Y321899D01*
X281109Y321789D01*
X281136Y321678D01*
X281159Y321566D01*
X281178Y321453D01*
X277368Y324263D02*
X229632Y324263D01*
X226822Y320453D02*
X226822Y289147D01*
X280670Y298704D02*
X280512Y298706D01*
X280353Y298712D01*
X280195Y298722D01*
X280038Y298736D01*
X279880Y298753D01*
X279724Y298775D01*
X279567Y298800D01*
X279412Y298830D01*
X279257Y298863D01*
X279103Y298900D01*
X278950Y298941D01*
X278798Y298986D01*
X278648Y299035D01*
X278498Y299087D01*
X278350Y299143D01*
X278203Y299203D01*
X278058Y299266D01*
X277915Y299333D01*
X277773Y299403D01*
X277633Y299477D01*
X277495Y299555D01*
X277359Y299636D01*
X277225Y299720D01*
X277093Y299807D01*
X276963Y299898D01*
X276836Y299992D01*
X276711Y300089D01*
X276588Y300190D01*
X276468Y300293D01*
X276351Y300399D01*
X276236Y300508D01*
X276124Y300620D01*
X276015Y300735D01*
X275909Y300852D01*
X275806Y300972D01*
X275705Y301095D01*
X275608Y301220D01*
X275514Y301347D01*
X275423Y301477D01*
X275336Y301609D01*
X275252Y301743D01*
X275171Y301879D01*
X275093Y302017D01*
X275019Y302157D01*
X274949Y302299D01*
X274882Y302442D01*
X274819Y302587D01*
X274759Y302734D01*
X274703Y302882D01*
X274651Y303032D01*
X274602Y303182D01*
X274557Y303334D01*
X274516Y303487D01*
X274479Y303641D01*
X274446Y303796D01*
X274416Y303951D01*
X274391Y304108D01*
X274369Y304264D01*
X274352Y304422D01*
X274338Y304579D01*
X274328Y304737D01*
X274322Y304896D01*
X274320Y305054D01*
X274322Y305212D01*
X274328Y305371D01*
X274338Y305529D01*
X274352Y305686D01*
X274369Y305844D01*
X274391Y306000D01*
X274416Y306157D01*
X274446Y306312D01*
X274479Y306467D01*
X274516Y306621D01*
X274557Y306774D01*
X274602Y306926D01*
X274651Y307076D01*
X274703Y307226D01*
X274759Y307374D01*
X274819Y307521D01*
X274882Y307666D01*
X274949Y307809D01*
X275019Y307951D01*
X275093Y308091D01*
X275171Y308229D01*
X275252Y308365D01*
X275336Y308499D01*
X275423Y308631D01*
X275514Y308761D01*
X275608Y308888D01*
X275705Y309013D01*
X275806Y309136D01*
X275909Y309256D01*
X276015Y309373D01*
X276124Y309488D01*
X276236Y309600D01*
X276351Y309709D01*
X276468Y309815D01*
X276588Y309918D01*
X276711Y310019D01*
X276836Y310116D01*
X276963Y310210D01*
X277093Y310301D01*
X277225Y310388D01*
X277359Y310472D01*
X277495Y310553D01*
X277633Y310631D01*
X277773Y310705D01*
X277915Y310775D01*
X278058Y310842D01*
X278203Y310905D01*
X278350Y310965D01*
X278498Y311021D01*
X278648Y311073D01*
X278798Y311122D01*
X278950Y311167D01*
X279103Y311208D01*
X279257Y311245D01*
X279412Y311278D01*
X279567Y311308D01*
X279724Y311333D01*
X279880Y311355D01*
X280038Y311372D01*
X280195Y311386D01*
X280353Y311396D01*
X280512Y311402D01*
X280670Y311404D01*
X281178Y298704D02*
X281178Y290274D01*
X281178Y311404D02*
X281178Y321453D01*
D11*
X280518Y285120D02*
X280518Y280671D01*
X281408Y279781D01*
X283187Y279781D01*
X284077Y280671D01*
X284077Y285120D01*
X286131Y283340D02*
X287911Y285120D01*
X287911Y279781D01*
X289690Y279781D02*
X286131Y279781D01*
D10*
X765350Y724250D02*
X771350Y724250D01*
X771350Y736250D02*
X765350Y736250D01*
D11*
X759512Y721619D02*
X759512Y716280D01*
X759512Y721619D02*
X762181Y721619D01*
X763071Y720729D01*
X763071Y718949D01*
X762181Y718060D01*
X759512Y718060D01*
X761291Y718060D02*
X763071Y716280D01*
X765125Y719839D02*
X766904Y721619D01*
X766904Y716280D01*
X765125Y716280D02*
X768684Y716280D01*
X770738Y720729D02*
X771628Y721619D01*
X773407Y721619D01*
X774297Y720729D01*
X774297Y719839D01*
X773407Y718949D01*
X774297Y718060D01*
X774297Y717170D01*
X773407Y716280D01*
X771628Y716280D01*
X770738Y717170D01*
X770738Y718060D01*
X771628Y718949D01*
X770738Y719839D01*
X770738Y720729D01*
X771628Y718949D02*
X773407Y718949D01*
D10*
X797100Y724250D02*
X803100Y724250D01*
X803100Y736250D02*
X797100Y736250D01*
D11*
X791262Y721619D02*
X791262Y716280D01*
X791262Y721619D02*
X793931Y721619D01*
X794821Y720729D01*
X794821Y718949D01*
X793931Y718060D01*
X791262Y718060D01*
X793041Y718060D02*
X794821Y716280D01*
X796875Y719839D02*
X798654Y721619D01*
X798654Y716280D01*
X796875Y716280D02*
X800434Y716280D01*
X802488Y717170D02*
X803378Y716280D01*
X805157Y716280D01*
X806047Y717170D01*
X806047Y720729D01*
X805157Y721619D01*
X803378Y721619D01*
X802488Y720729D01*
X802488Y719839D01*
X803378Y718949D01*
X806047Y718949D01*
D12*
X38100Y781050D02*
X38100Y793750D01*
X38100Y781050D02*
X31750Y774700D01*
X19050Y774700D02*
X12700Y781050D01*
X31750Y774700D02*
X38100Y768350D01*
X38100Y755650D01*
X31750Y749300D01*
X19050Y749300D02*
X12700Y755650D01*
X12700Y768350D01*
X19050Y774700D01*
X19050Y800100D02*
X31750Y800100D01*
X38100Y793750D01*
X19050Y800100D02*
X12700Y793750D01*
X12700Y781050D01*
X19050Y749300D02*
X31750Y749300D01*
D11*
X6985Y758395D02*
X6095Y757505D01*
X6985Y758395D02*
X6985Y759284D01*
X6095Y760174D01*
X1646Y760174D01*
X1646Y759284D02*
X1646Y761064D01*
X1646Y765787D02*
X6985Y765787D01*
X4316Y763118D02*
X1646Y765787D01*
X4316Y766677D02*
X4316Y763118D01*
D10*
X31400Y155400D02*
X31400Y149400D01*
X19400Y149400D02*
X19400Y155400D01*
D11*
X27180Y134625D02*
X28070Y133735D01*
X27180Y134625D02*
X25401Y134625D01*
X24511Y133735D01*
X24511Y130176D01*
X25401Y129286D01*
X27180Y129286D01*
X28070Y130176D01*
X30124Y134625D02*
X33683Y134625D01*
X33683Y133735D01*
X30124Y130176D01*
X30124Y129286D01*
D12*
X142850Y330950D02*
X165850Y330950D01*
X165850Y282950D01*
X148850Y265950D01*
X142850Y265950D01*
X123850Y265950D02*
X117850Y265950D01*
X100850Y282950D01*
X100850Y330950D01*
X123850Y330950D01*
X142850Y327950D02*
X143568Y327709D01*
X144281Y327450D01*
X144986Y327174D01*
X145685Y326881D01*
X146377Y326571D01*
X147060Y326244D01*
X147736Y325901D01*
X148403Y325541D01*
X149061Y325165D01*
X149709Y324773D01*
X150348Y324365D01*
X150976Y323942D01*
X151594Y323503D01*
X152201Y323050D01*
X152797Y322581D01*
X153381Y322099D01*
X153953Y321602D01*
X154513Y321091D01*
X155060Y320567D01*
X155595Y320030D01*
X156116Y319479D01*
X156623Y318916D01*
X157116Y318341D01*
X157596Y317754D01*
X158060Y317156D01*
X158510Y316546D01*
X158945Y315925D01*
X159365Y315294D01*
X159769Y314653D01*
X160157Y314003D01*
X160529Y313342D01*
X160885Y312674D01*
X161225Y311996D01*
X161548Y311310D01*
X161854Y310617D01*
X162143Y309917D01*
X162414Y309209D01*
X162669Y308496D01*
X162906Y307776D01*
X163125Y307050D01*
X163326Y306320D01*
X163510Y305585D01*
X163675Y304845D01*
X163822Y304102D01*
X163951Y303355D01*
X164062Y302605D01*
X164155Y301853D01*
X164229Y301099D01*
X164284Y300343D01*
X164321Y299586D01*
X164340Y298829D01*
X164340Y298071D01*
X164321Y297314D01*
X164284Y296557D01*
X164229Y295801D01*
X164155Y295047D01*
X164062Y294295D01*
X163951Y293545D01*
X163822Y292798D01*
X163675Y292055D01*
X163510Y291315D01*
X163326Y290580D01*
X163125Y289850D01*
X162906Y289124D01*
X162669Y288404D01*
X162414Y287691D01*
X162143Y286983D01*
X161854Y286283D01*
X161548Y285590D01*
X161225Y284904D01*
X160885Y284226D01*
X160529Y283558D01*
X160157Y282897D01*
X159769Y282247D01*
X159365Y281606D01*
X158945Y280975D01*
X158510Y280354D01*
X158060Y279744D01*
X157596Y279146D01*
X157116Y278559D01*
X156623Y277984D01*
X156116Y277421D01*
X155595Y276870D01*
X155060Y276333D01*
X154513Y275809D01*
X153953Y275298D01*
X153381Y274801D01*
X152797Y274319D01*
X152201Y273850D01*
X151594Y273397D01*
X150976Y272958D01*
X150348Y272535D01*
X149709Y272127D01*
X149061Y271735D01*
X148403Y271359D01*
X147736Y270999D01*
X147060Y270656D01*
X146377Y270329D01*
X145685Y270019D01*
X144986Y269726D01*
X144281Y269450D01*
X143568Y269191D01*
X142850Y268950D01*
X123850Y268950D02*
X123132Y269191D01*
X122419Y269450D01*
X121714Y269726D01*
X121015Y270019D01*
X120323Y270329D01*
X119640Y270656D01*
X118964Y270999D01*
X118297Y271359D01*
X117639Y271735D01*
X116991Y272127D01*
X116352Y272535D01*
X115724Y272958D01*
X115106Y273397D01*
X114499Y273850D01*
X113903Y274319D01*
X113319Y274801D01*
X112747Y275298D01*
X112187Y275809D01*
X111640Y276333D01*
X111105Y276870D01*
X110584Y277421D01*
X110077Y277984D01*
X109584Y278559D01*
X109104Y279146D01*
X108640Y279744D01*
X108190Y280354D01*
X107755Y280975D01*
X107335Y281606D01*
X106931Y282247D01*
X106543Y282897D01*
X106171Y283558D01*
X105815Y284226D01*
X105475Y284904D01*
X105152Y285590D01*
X104846Y286283D01*
X104557Y286983D01*
X104286Y287691D01*
X104031Y288404D01*
X103794Y289124D01*
X103575Y289850D01*
X103374Y290580D01*
X103190Y291315D01*
X103025Y292055D01*
X102878Y292798D01*
X102749Y293545D01*
X102638Y294295D01*
X102545Y295047D01*
X102471Y295801D01*
X102416Y296557D01*
X102379Y297314D01*
X102360Y298071D01*
X102360Y298829D01*
X102379Y299586D01*
X102416Y300343D01*
X102471Y301099D01*
X102545Y301853D01*
X102638Y302605D01*
X102749Y303355D01*
X102878Y304102D01*
X103025Y304845D01*
X103190Y305585D01*
X103374Y306320D01*
X103575Y307050D01*
X103794Y307776D01*
X104031Y308496D01*
X104286Y309209D01*
X104557Y309917D01*
X104846Y310617D01*
X105152Y311310D01*
X105475Y311996D01*
X105815Y312674D01*
X106171Y313342D01*
X106543Y314003D01*
X106931Y314653D01*
X107335Y315294D01*
X107755Y315925D01*
X108190Y316546D01*
X108640Y317156D01*
X109104Y317754D01*
X109584Y318341D01*
X110077Y318916D01*
X110584Y319479D01*
X111105Y320030D01*
X111640Y320567D01*
X112187Y321091D01*
X112747Y321602D01*
X113319Y322099D01*
X113903Y322581D01*
X114499Y323050D01*
X115106Y323503D01*
X115724Y323942D01*
X116352Y324365D01*
X116991Y324773D01*
X117639Y325165D01*
X118297Y325541D01*
X118964Y325901D01*
X119640Y326244D01*
X120323Y326571D01*
X121015Y326881D01*
X121714Y327174D01*
X122419Y327450D01*
X123132Y327709D01*
X123850Y327950D01*
D11*
X156187Y263784D02*
X157077Y262894D01*
X156187Y263784D02*
X154408Y263784D01*
X153518Y262894D01*
X153518Y259335D01*
X154408Y258445D01*
X156187Y258445D01*
X157077Y259335D01*
X159131Y262894D02*
X160021Y263784D01*
X161800Y263784D01*
X162690Y262894D01*
X162690Y262004D01*
X161800Y261114D01*
X162690Y260225D01*
X162690Y259335D01*
X161800Y258445D01*
X160021Y258445D01*
X159131Y259335D01*
X159131Y260225D01*
X160021Y261114D01*
X159131Y262004D01*
X159131Y262894D01*
X160021Y261114D02*
X161800Y261114D01*
D12*
X788988Y777875D02*
X798513Y777875D01*
D11*
X801218Y787781D02*
X801218Y793120D01*
X801218Y787781D02*
X803887Y787781D01*
X804777Y788671D01*
X804777Y792230D01*
X803887Y793120D01*
X801218Y793120D01*
X806831Y787781D02*
X810390Y787781D01*
X806831Y787781D02*
X810390Y791340D01*
X810390Y792230D01*
X809500Y793120D01*
X807721Y793120D01*
X806831Y792230D01*
D10*
X803100Y756000D02*
X797100Y756000D01*
X797100Y768000D02*
X803100Y768000D01*
D11*
X791262Y753369D02*
X791262Y748030D01*
X791262Y753369D02*
X793931Y753369D01*
X794821Y752479D01*
X794821Y750699D01*
X793931Y749810D01*
X791262Y749810D01*
X793041Y749810D02*
X794821Y748030D01*
X796875Y748030D02*
X800434Y748030D01*
X796875Y748030D02*
X800434Y751589D01*
X800434Y752479D01*
X799544Y753369D01*
X797765Y753369D01*
X796875Y752479D01*
X802488Y748030D02*
X806047Y748030D01*
X802488Y748030D02*
X806047Y751589D01*
X806047Y752479D01*
X805157Y753369D01*
X803378Y753369D01*
X802488Y752479D01*
D12*
X711200Y203200D02*
X673100Y203200D01*
X762000Y203200D02*
X800100Y203200D01*
X800100Y76200D01*
X762000Y76200D01*
X711200Y76200D02*
X673100Y76200D01*
X673100Y101600D01*
X673100Y177800D02*
X673100Y203200D01*
X673100Y152400D02*
X673100Y127000D01*
D11*
X791187Y216540D02*
X792077Y215650D01*
X791187Y216540D02*
X789408Y216540D01*
X788518Y215650D01*
X788518Y214760D01*
X789408Y213870D01*
X791187Y213870D01*
X792077Y212981D01*
X792077Y212091D01*
X791187Y211201D01*
X789408Y211201D01*
X788518Y212091D01*
X794131Y214760D02*
X795911Y216540D01*
X795911Y211201D01*
X797690Y211201D02*
X794131Y211201D01*
D10*
X835200Y171100D02*
X841200Y171100D01*
X841200Y159100D02*
X835200Y159100D01*
D11*
X830961Y173736D02*
X830961Y179075D01*
X833630Y179075D01*
X834520Y178185D01*
X834520Y176405D01*
X833630Y175516D01*
X830961Y175516D01*
X832741Y175516D02*
X834520Y173736D01*
X836574Y173736D02*
X840133Y173736D01*
X836574Y173736D02*
X840133Y177295D01*
X840133Y178185D01*
X839243Y179075D01*
X837464Y179075D01*
X836574Y178185D01*
X842187Y178185D02*
X842187Y174626D01*
X842187Y178185D02*
X843077Y179075D01*
X844856Y179075D01*
X845746Y178185D01*
X845746Y174626D01*
X844856Y173736D01*
X843077Y173736D01*
X842187Y174626D01*
X845746Y178185D01*
D10*
X574500Y159100D02*
X568500Y159100D01*
X568500Y171100D02*
X574500Y171100D01*
D11*
X562662Y156469D02*
X562662Y151130D01*
X562662Y156469D02*
X565331Y156469D01*
X566221Y155579D01*
X566221Y153799D01*
X565331Y152910D01*
X562662Y152910D01*
X564441Y152910D02*
X566221Y151130D01*
X568275Y151130D02*
X571834Y151130D01*
X568275Y151130D02*
X571834Y154689D01*
X571834Y155579D01*
X570944Y156469D01*
X569165Y156469D01*
X568275Y155579D01*
X573888Y154689D02*
X575667Y156469D01*
X575667Y151130D01*
X573888Y151130D02*
X577447Y151130D01*
D10*
X835200Y120300D02*
X841200Y120300D01*
X841200Y108300D02*
X835200Y108300D01*
D11*
X830961Y122936D02*
X830961Y128275D01*
X833630Y128275D01*
X834520Y127385D01*
X834520Y125605D01*
X833630Y124716D01*
X830961Y124716D01*
X832741Y124716D02*
X834520Y122936D01*
X836574Y122936D02*
X840133Y122936D01*
X836574Y122936D02*
X840133Y126495D01*
X840133Y127385D01*
X839243Y128275D01*
X837464Y128275D01*
X836574Y127385D01*
X842187Y127385D02*
X843077Y128275D01*
X844856Y128275D01*
X845746Y127385D01*
X845746Y126495D01*
X844856Y125605D01*
X843967Y125605D01*
X844856Y125605D02*
X845746Y124716D01*
X845746Y123826D01*
X844856Y122936D01*
X843077Y122936D01*
X842187Y123826D01*
X792951Y469011D02*
X792061Y469901D01*
X792951Y469011D02*
X793841Y469011D01*
X794731Y469901D01*
X794731Y474350D01*
X795620Y474350D02*
X793841Y474350D01*
X797674Y474350D02*
X797674Y469011D01*
X797674Y474350D02*
X800344Y474350D01*
X801233Y473460D01*
X801233Y471680D01*
X800344Y470791D01*
X797674Y470791D01*
X803288Y472570D02*
X805067Y474350D01*
X805067Y469011D01*
X803288Y469011D02*
X806847Y469011D01*
X792061Y444501D02*
X792951Y443611D01*
X793841Y443611D01*
X794731Y444501D01*
X794731Y448950D01*
X795620Y448950D02*
X793841Y448950D01*
X797674Y448950D02*
X797674Y443611D01*
X797674Y448950D02*
X800344Y448950D01*
X801233Y448060D01*
X801233Y446280D01*
X800344Y445391D01*
X797674Y445391D01*
X803288Y443611D02*
X806847Y443611D01*
X803288Y443611D02*
X806847Y447170D01*
X806847Y448060D01*
X805957Y448950D01*
X804177Y448950D01*
X803288Y448060D01*
D12*
X825500Y412750D02*
X825500Y400050D01*
X825500Y412750D02*
X831850Y419100D01*
X844550Y419100D02*
X850900Y412750D01*
X825500Y374650D02*
X831850Y368300D01*
X825500Y374650D02*
X825500Y387350D01*
X831850Y393700D01*
X844550Y393700D02*
X850900Y387350D01*
X850900Y374650D01*
X844550Y368300D01*
X831850Y393700D02*
X825500Y400050D01*
X844550Y393700D02*
X850900Y400050D01*
X850900Y412750D01*
X825500Y336550D02*
X825500Y323850D01*
X825500Y336550D02*
X831850Y342900D01*
X844550Y342900D02*
X850900Y336550D01*
X831850Y342900D02*
X825500Y349250D01*
X825500Y361950D01*
X831850Y368300D01*
X844550Y368300D02*
X850900Y361950D01*
X850900Y349250D01*
X844550Y342900D01*
X825500Y298450D02*
X831850Y292100D01*
X825500Y298450D02*
X825500Y311150D01*
X831850Y317500D01*
X844550Y317500D02*
X850900Y311150D01*
X850900Y298450D01*
X844550Y292100D01*
X831850Y317500D02*
X825500Y323850D01*
X844550Y317500D02*
X850900Y323850D01*
X850900Y336550D01*
X825500Y260350D02*
X825500Y247650D01*
X825500Y260350D02*
X831850Y266700D01*
X844550Y266700D02*
X850900Y260350D01*
X831850Y266700D02*
X825500Y273050D01*
X825500Y285750D01*
X831850Y292100D01*
X844550Y292100D02*
X850900Y285750D01*
X850900Y273050D01*
X844550Y266700D01*
X844550Y241300D02*
X831850Y241300D01*
X825500Y247650D01*
X844550Y241300D02*
X850900Y247650D01*
X850900Y260350D01*
X825500Y577850D02*
X825500Y590550D01*
X831850Y596900D01*
X844550Y596900D02*
X850900Y590550D01*
X825500Y552450D02*
X831850Y546100D01*
X825500Y552450D02*
X825500Y565150D01*
X831850Y571500D01*
X844550Y571500D02*
X850900Y565150D01*
X850900Y552450D01*
X844550Y546100D01*
X831850Y571500D02*
X825500Y577850D01*
X844550Y571500D02*
X850900Y577850D01*
X850900Y590550D01*
X825500Y514350D02*
X825500Y501650D01*
X825500Y514350D02*
X831850Y520700D01*
X844550Y520700D02*
X850900Y514350D01*
X831850Y520700D02*
X825500Y527050D01*
X825500Y539750D01*
X831850Y546100D01*
X844550Y546100D02*
X850900Y539750D01*
X850900Y527050D01*
X844550Y520700D01*
X825500Y476250D02*
X831850Y469900D01*
X825500Y476250D02*
X825500Y488950D01*
X831850Y495300D01*
X844550Y495300D02*
X850900Y488950D01*
X850900Y476250D01*
X844550Y469900D01*
X831850Y495300D02*
X825500Y501650D01*
X844550Y495300D02*
X850900Y501650D01*
X850900Y514350D01*
X825500Y438150D02*
X825500Y425450D01*
X825500Y438150D02*
X831850Y444500D01*
X844550Y444500D02*
X850900Y438150D01*
X831850Y444500D02*
X825500Y450850D01*
X825500Y463550D01*
X831850Y469900D01*
X844550Y469900D02*
X850900Y463550D01*
X850900Y450850D01*
X844550Y444500D01*
X825500Y425450D02*
X831850Y419100D01*
X844550Y419100D02*
X850900Y425450D01*
X850900Y438150D01*
X831850Y596900D02*
X825500Y603250D01*
X825500Y615950D01*
X831850Y622300D01*
X844550Y622300D02*
X850900Y615950D01*
X850900Y603250D01*
X844550Y596900D01*
X831850Y622300D02*
X825500Y628650D01*
X825500Y641350D01*
X831850Y647700D01*
X844550Y647700D02*
X850900Y641350D01*
X850900Y628650D01*
X844550Y622300D01*
X831850Y647700D02*
X825500Y654050D01*
X825500Y666750D01*
X831850Y673100D01*
X844550Y673100D02*
X850900Y666750D01*
X850900Y654050D01*
X844550Y647700D01*
X831850Y673100D02*
X825500Y679450D01*
X825500Y692150D01*
X831850Y698500D01*
X844550Y698500D02*
X850900Y692150D01*
X850900Y679450D01*
X844550Y673100D01*
X831850Y698500D02*
X825500Y704850D01*
X825500Y717550D01*
X831850Y723900D01*
X844550Y723900D02*
X850900Y717550D01*
X850900Y704850D01*
X844550Y698500D01*
X831850Y723900D02*
X825500Y730250D01*
X825500Y742950D01*
X831850Y749300D01*
X844550Y749300D01*
X850900Y742950D01*
X850900Y730250D01*
X844550Y723900D01*
D11*
X813181Y250191D02*
X814071Y249301D01*
X814961Y249301D01*
X815850Y250191D01*
X815850Y254640D01*
X814961Y254640D02*
X816740Y254640D01*
X820574Y253750D02*
X822353Y254640D01*
X820574Y253750D02*
X818794Y251970D01*
X818794Y250191D01*
X819684Y249301D01*
X821463Y249301D01*
X822353Y250191D01*
X822353Y251081D01*
X821463Y251970D01*
X818794Y251970D01*
D12*
X63500Y400050D02*
X63500Y412750D01*
X69850Y419100D01*
X82550Y419100D02*
X88900Y412750D01*
X63500Y374650D02*
X69850Y368300D01*
X63500Y374650D02*
X63500Y387350D01*
X69850Y393700D01*
X82550Y393700D02*
X88900Y387350D01*
X88900Y374650D01*
X82550Y368300D01*
X69850Y393700D02*
X63500Y400050D01*
X82550Y393700D02*
X88900Y400050D01*
X88900Y412750D01*
X63500Y336550D02*
X63500Y323850D01*
X63500Y336550D02*
X69850Y342900D01*
X82550Y342900D02*
X88900Y336550D01*
X69850Y342900D02*
X63500Y349250D01*
X63500Y361950D01*
X69850Y368300D01*
X82550Y368300D02*
X88900Y361950D01*
X88900Y349250D01*
X82550Y342900D01*
X63500Y298450D02*
X69850Y292100D01*
X63500Y298450D02*
X63500Y311150D01*
X69850Y317500D01*
X82550Y317500D02*
X88900Y311150D01*
X88900Y298450D01*
X82550Y292100D01*
X69850Y317500D02*
X63500Y323850D01*
X82550Y317500D02*
X88900Y323850D01*
X88900Y336550D01*
X63500Y260350D02*
X63500Y247650D01*
X63500Y260350D02*
X69850Y266700D01*
X82550Y266700D02*
X88900Y260350D01*
X69850Y266700D02*
X63500Y273050D01*
X63500Y285750D01*
X69850Y292100D01*
X82550Y292100D02*
X88900Y285750D01*
X88900Y273050D01*
X82550Y266700D01*
X82550Y241300D02*
X69850Y241300D01*
X63500Y247650D01*
X82550Y241300D02*
X88900Y247650D01*
X88900Y260350D01*
X63500Y577850D02*
X63500Y590550D01*
X69850Y596900D01*
X82550Y596900D02*
X88900Y590550D01*
X63500Y552450D02*
X69850Y546100D01*
X63500Y552450D02*
X63500Y565150D01*
X69850Y571500D01*
X82550Y571500D02*
X88900Y565150D01*
X88900Y552450D01*
X82550Y546100D01*
X69850Y571500D02*
X63500Y577850D01*
X82550Y571500D02*
X88900Y577850D01*
X88900Y590550D01*
X63500Y514350D02*
X63500Y501650D01*
X63500Y514350D02*
X69850Y520700D01*
X82550Y520700D02*
X88900Y514350D01*
X69850Y520700D02*
X63500Y527050D01*
X63500Y539750D01*
X69850Y546100D01*
X82550Y546100D02*
X88900Y539750D01*
X88900Y527050D01*
X82550Y520700D01*
X63500Y476250D02*
X69850Y469900D01*
X63500Y476250D02*
X63500Y488950D01*
X69850Y495300D01*
X82550Y495300D02*
X88900Y488950D01*
X88900Y476250D01*
X82550Y469900D01*
X69850Y495300D02*
X63500Y501650D01*
X82550Y495300D02*
X88900Y501650D01*
X88900Y514350D01*
X63500Y438150D02*
X63500Y425450D01*
X63500Y438150D02*
X69850Y444500D01*
X82550Y444500D02*
X88900Y438150D01*
X69850Y444500D02*
X63500Y450850D01*
X63500Y463550D01*
X69850Y469900D01*
X82550Y469900D02*
X88900Y463550D01*
X88900Y450850D01*
X82550Y444500D01*
X63500Y425450D02*
X69850Y419100D01*
X82550Y419100D02*
X88900Y425450D01*
X88900Y438150D01*
X69850Y596900D02*
X63500Y603250D01*
X63500Y615950D01*
X69850Y622300D01*
X82550Y622300D02*
X88900Y615950D01*
X88900Y603250D01*
X82550Y596900D01*
X69850Y622300D02*
X63500Y628650D01*
X63500Y641350D01*
X69850Y647700D01*
X82550Y647700D02*
X88900Y641350D01*
X88900Y628650D01*
X82550Y622300D01*
X69850Y647700D02*
X63500Y654050D01*
X63500Y666750D01*
X69850Y673100D01*
X82550Y673100D02*
X88900Y666750D01*
X88900Y654050D01*
X82550Y647700D01*
X69850Y673100D02*
X63500Y679450D01*
X63500Y692150D01*
X69850Y698500D01*
X82550Y698500D02*
X88900Y692150D01*
X88900Y679450D01*
X82550Y673100D01*
X69850Y698500D02*
X63500Y704850D01*
X63500Y717550D01*
X69850Y723900D01*
X82550Y723900D02*
X88900Y717550D01*
X88900Y704850D01*
X82550Y698500D01*
X69850Y723900D02*
X63500Y730250D01*
X63500Y742950D01*
X69850Y749300D01*
X82550Y749300D01*
X88900Y742950D01*
X88900Y730250D01*
X82550Y723900D01*
D11*
X38481Y243841D02*
X39371Y242951D01*
X40261Y242951D01*
X41150Y243841D01*
X41150Y248290D01*
X40261Y248290D02*
X42040Y248290D01*
X44094Y248290D02*
X47653Y248290D01*
X47653Y247400D01*
X44094Y243841D01*
X44094Y242951D01*
D12*
X688200Y384650D02*
X688200Y389150D01*
X734200Y389150D01*
X734200Y384650D01*
X734200Y364650D02*
X734200Y360150D01*
X688200Y360150D01*
X688200Y364650D01*
X742950Y364650D02*
X742950Y384650D01*
D11*
X705968Y391541D02*
X705968Y396880D01*
X705968Y391541D02*
X708637Y391541D01*
X709527Y392431D01*
X709527Y395990D01*
X708637Y396880D01*
X705968Y396880D01*
X711581Y395990D02*
X712471Y396880D01*
X714250Y396880D01*
X715140Y395990D01*
X715140Y395100D01*
X714250Y394210D01*
X713361Y394210D01*
X714250Y394210D02*
X715140Y393321D01*
X715140Y392431D01*
X714250Y391541D01*
X712471Y391541D01*
X711581Y392431D01*
D12*
X627000Y324500D02*
X621000Y324500D01*
X621000Y316500D01*
X643000Y324500D02*
X649000Y324500D01*
X649000Y316500D01*
D11*
X629768Y341631D02*
X629768Y345190D01*
X630658Y346080D01*
X632437Y346080D01*
X633327Y345190D01*
X633327Y341631D01*
X632437Y340741D01*
X630658Y340741D01*
X629768Y341631D01*
X631547Y342521D02*
X633327Y340741D01*
X635381Y344300D02*
X637161Y346080D01*
X637161Y340741D01*
X638940Y340741D02*
X635381Y340741D01*
D10*
X638000Y279750D02*
X632000Y279750D01*
X632000Y291750D02*
X638000Y291750D01*
D11*
X626162Y277119D02*
X626162Y271780D01*
X626162Y277119D02*
X628831Y277119D01*
X629721Y276229D01*
X629721Y274449D01*
X628831Y273560D01*
X626162Y273560D01*
X627941Y273560D02*
X629721Y271780D01*
X631775Y271780D02*
X635334Y271780D01*
X631775Y271780D02*
X635334Y275339D01*
X635334Y276229D01*
X634444Y277119D01*
X632665Y277119D01*
X631775Y276229D01*
X640057Y277119D02*
X640057Y271780D01*
X637388Y274449D02*
X640057Y277119D01*
X640947Y274449D02*
X637388Y274449D01*
D12*
X754380Y265430D02*
X754380Y335280D01*
X754380Y265430D02*
X737870Y248920D01*
X668020Y248920D01*
X668020Y335280D01*
X754380Y335280D01*
X722630Y279400D02*
X699770Y279400D01*
X711200Y257810D01*
X722630Y279400D01*
X745485Y341112D02*
X745485Y348230D01*
X741926Y344671D02*
X749045Y344671D01*
X675635Y341112D02*
X675635Y348230D01*
D11*
X704090Y347350D02*
X704980Y346460D01*
X704090Y347350D02*
X702311Y347350D01*
X701421Y346460D01*
X701421Y345570D01*
X702311Y344680D01*
X704090Y344680D01*
X704980Y343791D01*
X704980Y342901D01*
X704090Y342011D01*
X702311Y342011D01*
X701421Y342901D01*
X709703Y347350D02*
X710593Y346460D01*
X709703Y347350D02*
X707924Y347350D01*
X707034Y346460D01*
X707034Y342901D01*
X707924Y342011D01*
X709703Y342011D01*
X710593Y342901D01*
X710593Y344680D01*
X708814Y344680D01*
X712647Y345570D02*
X714427Y347350D01*
X714427Y342011D01*
X716206Y342011D02*
X712647Y342011D01*
M02*
