M48
;GenerationSoftware,Autodesk,EAGLE,9.3.0*%
;CreationDate,2020-05-27T01:54:30Z*%
FMAT,2
ICI,OFF
METRIC,TZ,000.000
T5C0.300
T4C1.000
T3C1.016
T2C3.300
T1C3.302
%
G90
M71
T1
X3000Y34000
X15000Y34000
X3000Y22000
X15000Y22000
X23000Y34000
X23000Y22000
T2
X15715Y5050
X4285Y5050
T3
X20480Y13560
X23020Y13560
X20480Y11020
X23020Y11020
X20480Y8480
X23020Y8480
X20480Y5940
X23020Y5940
T4
X8140Y28050
T5
X6800Y25800
X18700Y30500
X15300Y14400
X1000Y4000
X19000Y4000
X16500Y28500
X7450Y18700
X11450Y23400
X13000Y26000
X14200Y27100
X15800Y26800
X17100Y25200
X20700Y25200
X20000Y18000
X12100Y21700
X16500Y27500
X11905Y20395
X16500Y29500
X8900Y21500
X10270Y32000
X10635Y12033
X10270Y25020
X9550Y18700
X8095Y13500
X6950Y30850
X6550Y20000
X13000Y30000
X8400Y26900
X8400Y29200
X8000Y31000
X11275Y18700
X12525Y18700
X8375Y25000
X8725Y18700
X8725Y14400
X11150Y25850
X7450Y14400
X5550Y14300
X5550Y18700
X10000Y14400
X11275Y14400
X12550Y14400
X14000Y25000
M30