M48
;GenerationSoftware,Autodesk,EAGLE,9.3.0*%
;CreationDate,2020-04-23T08:01:05Z*%
FMAT,2
ICI,OFF
METRIC,TZ,000.000
T14C0.300
T13C0.700
T12C0.800
T11C0.813
T10C0.900
T9C1.000
T8C1.016
T7C1.200
T6C1.499
T5C1.600
T4C1.854
T3C2.997
T2C3.200
T1C3.302
%
G90
M71
T1
X3000Y3000
X97000Y3000
X3000Y77000
X97000Y77000
T2
X3650Y42530
X16350Y42530
T3
X7700Y6300
X4700Y11000
X10700Y11000
T4
X2854Y65000
X9966Y65000
X46034Y65000
X53146Y65000
T5
X17000Y12700
X17000Y9300
X27000Y9300
X27000Y12700
T6
X14380Y4000
X29620Y4000
T7
X90000Y4000
X86500Y4000
X67500Y4000
X71000Y4000
T8
X61000Y15000
X61000Y17540
X61000Y12460
X98000Y37580
X80000Y12460
X80000Y17540
X80000Y15000
X46249Y74239
X52751Y74239
X52751Y78761
X46249Y78761
X27620Y78000
X20000Y78000
X22540Y78000
X25080Y78000
X30160Y78000
X32700Y78000
X35240Y78000
X37780Y78000
X98000Y25000
X98000Y27540
X88000Y64000
X84000Y64000
X80000Y64000
X98000Y42000
X98000Y44540
X98000Y47080
X98000Y32500
X98000Y35040
T9
X55080Y55700
X44920Y55700
X42080Y14000
X91500Y64000
X76500Y64000
X44920Y52500
X55080Y52500
X31920Y14000
T10
X7300Y20380
X30160Y20380
X20000Y20380
X22540Y20380
X25080Y20380
X27620Y20380
X63500Y31580
X63500Y21420
X60500Y21420
X60500Y31580
X65690Y9000
X73310Y9000
X76080Y19000
X65920Y19000
X73310Y14000
X65690Y14000
X65690Y11500
X73310Y11500
X42080Y8000
X31920Y8000
X31920Y11000
X42080Y11000
X65690Y16500
X73310Y16500
X82500Y31580
X82500Y21420
X79500Y21420
X79500Y31580
X84690Y9000
X32700Y20380
X95080Y19000
X84920Y19000
X92310Y14000
X84690Y14000
X84690Y11500
X92310Y11500
X84690Y16500
X92310Y16500
X65000Y72080
X65000Y61920
X62000Y72080
X62000Y61920
X92310Y9000
X37780Y35620
X35240Y35620
X32700Y35620
X23920Y48600
X34080Y48600
X23920Y51100
X34080Y51100
X52500Y6420
X52500Y16580
X30160Y35620
X32810Y46100
X25190Y46100
X32810Y53600
X25190Y53600
X27620Y35620
X25080Y35620
X53810Y50000
X46190Y50000
X56350Y45000
X43650Y45000
X46500Y14810
X46500Y7190
X55500Y14810
X55500Y7190
X59261Y63190
X59261Y70810
X33190Y5000
X40810Y5000
X22540Y35620
X20000Y35620
X17460Y35620
X49500Y16580
X14920Y35620
X12380Y35620
X9840Y35620
X37780Y20380
X35240Y20380
X17460Y20380
X14920Y20380
X12380Y20380
X9840Y20380
X2220Y20380
X2220Y35620
X4760Y35620
X7300Y35620
X4760Y20380
X49500Y6420
T11
X68230Y30310
X70770Y30310
X70770Y22690
X68230Y22690
X87230Y22690
X89770Y22690
X89770Y30310
X87230Y30310
X63730Y77000
X66270Y77000
X56730Y77000
X59270Y77000
T12
X17620Y53960
X15080Y53960
X12540Y53960
X10000Y53960
X7460Y53960
X4920Y53960
X2380Y53960
X81500Y7540
X81500Y2460
X62500Y2460
X62500Y7540
T13
X48000Y3000
X50000Y3000
X52000Y3000
X54000Y3000
X46500Y25540
X46500Y20460
T14
X89000Y34151
X39500Y44300
X25080Y28780
X27620Y57200
X44700Y34200
X26620Y27320
X50500Y30500
X50500Y28700
X6000Y37000
X11100Y37000
X14900Y37000
X17300Y37000
X19800Y37000
X22300Y37000
X25000Y37000
X3500Y37000
X30100Y31500
X41000Y19300
X43100Y19300
X44700Y21400
X42600Y21400
X6500Y28700
X5500Y29800
X20000Y19000
X21300Y22000
X18700Y22000
X23800Y22000
X20000Y34000
X17000Y34000
X23200Y34000
X3500Y22000
X6000Y22000
X20700Y42800
X19300Y44300
X21700Y47800
X20600Y39800
X22300Y38900
X63500Y61000
X64800Y42300
X51000Y15600
X17000Y16000
X30600Y16800
X33550Y14000
X35600Y15600
X39000Y6000
X43000Y6000
X44000Y12000
X43200Y15200
X54000Y10000
X2380Y59400
X51500Y31500
X44700Y31800
X42600Y31800
X42600Y34200
X44700Y37100
X42600Y37100
X40200Y43650
X44650Y43650
X59500Y36800
X60400Y38000
X67200Y37700
X68100Y38900
X78500Y38600
X79300Y39800
X76300Y41200
X75400Y42600
X86200Y39500
X87200Y40500
X61000Y44000
X62900Y43200
X42500Y54600
X40200Y67200
X39000Y68000
X42300Y43650
X29000Y22000
X31200Y22000
X37700Y31500
X40350Y35000
X40300Y56700
X38700Y56700
X38700Y54600
X23900Y58000
X23800Y76700
X26350Y76700
X28900Y76700
X27000Y33200
X25300Y32100
X27500Y31800
X26400Y22000
X31400Y76700
X34000Y76700
X21000Y58000
X26300Y58000
X13600Y22000
X11100Y22000
X16200Y22000
X18000Y29500
X18000Y26500
X20000Y26500
X20000Y29500
X20000Y28050
X18000Y28050
X22000Y28050
X22000Y29500
X22000Y26500
X13000Y46800
X18000Y31500
X20000Y31500
X22000Y31500
X1000Y37000
X1000Y57000
X3500Y56000
X10000Y52600
X22400Y41200
X25000Y43650
X28500Y49800
X30300Y49800
X25200Y49900
X28900Y58000
X31400Y58000
X34000Y58000
X36400Y58000
X28400Y43650
X31500Y43650
X37000Y43650
X9000Y22000
X10000Y29700
X7000Y44000
X7500Y46000
X9300Y31300
X16000Y45700
X6200Y53000
X13400Y49600
X20700Y50450
X20000Y52000
X19300Y50450
X59000Y29900
X59000Y27500
X59000Y33000
X59000Y35000
X74000Y35000
X96900Y33800
X74000Y33000
X74000Y27700
X93000Y39000
X93000Y41500
X96900Y43300
X63500Y49000
X61000Y49000
X66000Y49000
X75600Y46600
X77400Y46600
X75000Y66000
X78000Y62000
X99400Y79400
X99400Y600
X600Y600
X600Y79400
X42000Y27000
X45000Y27500
X45000Y29600
X54200Y28000
X51800Y28000
X54200Y29600
X54200Y31500
X27000Y29000
X29700Y29400
X33000Y27000
X36500Y27000
X39300Y29800
X47000Y54000
X51700Y46400
X50000Y44000
X43000Y51000
X50000Y57000
X74000Y37000
X89900Y40000
X90000Y36000
X88000Y44000
X88000Y46700
X35240Y55700
X90889Y45429
X90889Y35929
X35500Y30500
X39600Y36000
X58000Y36000
X89000Y39500
M30