G04 EAGLE Gerber RS-274X export*
G75*
%MOMM*%
%FSLAX34Y34*%
%LPD*%
%INBottom Copper*%
%IPPOS*%
%AMOC8*
5,1,8,0,0,1.08239X$1,22.5*%
G01*
%ADD10R,1.524000X1.524000*%
%ADD11P,1.649562X8X292.500000*%
%ADD12P,0.654629X8X22.500000*%
%ADD13C,0.203200*%

G36*
X246502Y2549D02*
X246502Y2549D01*
X246560Y2547D01*
X246642Y2569D01*
X246726Y2581D01*
X246779Y2604D01*
X246835Y2619D01*
X246908Y2662D01*
X246985Y2697D01*
X247030Y2735D01*
X247080Y2764D01*
X247138Y2826D01*
X247202Y2880D01*
X247234Y2929D01*
X247274Y2972D01*
X247313Y3047D01*
X247360Y3117D01*
X247377Y3173D01*
X247404Y3225D01*
X247415Y3293D01*
X247445Y3388D01*
X247448Y3488D01*
X247459Y3556D01*
X247459Y356444D01*
X247451Y356502D01*
X247453Y356560D01*
X247431Y356642D01*
X247419Y356726D01*
X247396Y356779D01*
X247381Y356835D01*
X247338Y356908D01*
X247303Y356985D01*
X247265Y357030D01*
X247236Y357080D01*
X247174Y357138D01*
X247120Y357202D01*
X247071Y357234D01*
X247028Y357274D01*
X246953Y357313D01*
X246883Y357360D01*
X246827Y357377D01*
X246775Y357404D01*
X246707Y357415D01*
X246612Y357445D01*
X246512Y357448D01*
X246444Y357459D01*
X3556Y357459D01*
X3498Y357451D01*
X3440Y357453D01*
X3358Y357431D01*
X3274Y357419D01*
X3221Y357396D01*
X3165Y357381D01*
X3092Y357338D01*
X3015Y357303D01*
X2970Y357265D01*
X2920Y357236D01*
X2862Y357174D01*
X2798Y357120D01*
X2766Y357071D01*
X2726Y357028D01*
X2687Y356953D01*
X2640Y356883D01*
X2623Y356827D01*
X2596Y356775D01*
X2585Y356707D01*
X2555Y356612D01*
X2552Y356512D01*
X2541Y356444D01*
X2541Y3556D01*
X2549Y3498D01*
X2547Y3440D01*
X2569Y3358D01*
X2581Y3274D01*
X2604Y3221D01*
X2619Y3165D01*
X2662Y3092D01*
X2697Y3015D01*
X2735Y2970D01*
X2764Y2920D01*
X2826Y2862D01*
X2880Y2798D01*
X2929Y2766D01*
X2972Y2726D01*
X3047Y2687D01*
X3117Y2640D01*
X3173Y2623D01*
X3225Y2596D01*
X3293Y2585D01*
X3388Y2555D01*
X3488Y2552D01*
X3556Y2541D01*
X246444Y2541D01*
X246502Y2549D01*
G37*
%LPC*%
G36*
X203302Y52247D02*
X203302Y52247D01*
X197647Y57902D01*
X197647Y65898D01*
X201967Y70218D01*
X201985Y70242D01*
X202007Y70261D01*
X202070Y70355D01*
X202138Y70445D01*
X202148Y70473D01*
X202165Y70497D01*
X202199Y70605D01*
X202239Y70711D01*
X202242Y70740D01*
X202251Y70768D01*
X202253Y70882D01*
X202263Y70994D01*
X202257Y71023D01*
X202258Y71052D01*
X202229Y71162D01*
X202207Y71273D01*
X202193Y71299D01*
X202186Y71327D01*
X202128Y71425D01*
X202076Y71525D01*
X202056Y71547D01*
X202041Y71572D01*
X201958Y71649D01*
X201880Y71731D01*
X201855Y71746D01*
X201833Y71766D01*
X201733Y71818D01*
X201635Y71875D01*
X201606Y71882D01*
X201580Y71896D01*
X201503Y71909D01*
X201359Y71945D01*
X201297Y71943D01*
X201249Y71951D01*
X193737Y71951D01*
X189035Y76654D01*
X188965Y76706D01*
X188901Y76766D01*
X188851Y76792D01*
X188807Y76825D01*
X188726Y76856D01*
X188648Y76896D01*
X188600Y76904D01*
X188542Y76926D01*
X188394Y76938D01*
X188317Y76951D01*
X99710Y76951D01*
X77901Y98760D01*
X77901Y130477D01*
X77893Y130533D01*
X77895Y130579D01*
X77888Y130605D01*
X77886Y130651D01*
X77869Y130704D01*
X77861Y130758D01*
X77828Y130832D01*
X77823Y130854D01*
X77818Y130861D01*
X77799Y130921D01*
X77771Y130961D01*
X77745Y131018D01*
X77678Y131097D01*
X77678Y131098D01*
X77676Y131099D01*
X77649Y131131D01*
X77604Y131195D01*
X75893Y132905D01*
X75893Y137095D01*
X78855Y140057D01*
X83045Y140057D01*
X86007Y137095D01*
X86007Y132905D01*
X84296Y131195D01*
X84244Y131125D01*
X84184Y131061D01*
X84158Y131012D01*
X84125Y130968D01*
X84102Y130906D01*
X84098Y130901D01*
X84093Y130884D01*
X84054Y130808D01*
X84046Y130760D01*
X84024Y130702D01*
X84020Y130653D01*
X84013Y130630D01*
X84011Y130548D01*
X83999Y130477D01*
X83999Y101706D01*
X84011Y101619D01*
X84014Y101532D01*
X84031Y101479D01*
X84039Y101424D01*
X84074Y101345D01*
X84101Y101261D01*
X84129Y101222D01*
X84155Y101165D01*
X84251Y101052D01*
X84296Y100988D01*
X101938Y83346D01*
X102008Y83294D01*
X102072Y83234D01*
X102121Y83208D01*
X102165Y83175D01*
X102247Y83144D01*
X102325Y83104D01*
X102372Y83096D01*
X102431Y83074D01*
X102579Y83062D01*
X102656Y83049D01*
X191263Y83049D01*
X195965Y78346D01*
X196035Y78294D01*
X196099Y78234D01*
X196149Y78208D01*
X196193Y78175D01*
X196274Y78144D01*
X196352Y78104D01*
X196400Y78096D01*
X196458Y78074D01*
X196606Y78062D01*
X196683Y78049D01*
X200449Y78049D01*
X200478Y78053D01*
X200508Y78050D01*
X200619Y78073D01*
X200731Y78089D01*
X200757Y78101D01*
X200786Y78106D01*
X200887Y78158D01*
X200990Y78205D01*
X201013Y78224D01*
X201039Y78237D01*
X201121Y78315D01*
X201207Y78388D01*
X201223Y78413D01*
X201245Y78433D01*
X201302Y78531D01*
X201365Y78625D01*
X201374Y78653D01*
X201388Y78678D01*
X201416Y78788D01*
X201451Y78896D01*
X201451Y78926D01*
X201458Y78954D01*
X201455Y79067D01*
X201458Y79180D01*
X201450Y79209D01*
X201449Y79238D01*
X201415Y79346D01*
X201386Y79455D01*
X201371Y79481D01*
X201362Y79509D01*
X201316Y79572D01*
X201241Y79700D01*
X201195Y79743D01*
X201167Y79782D01*
X197647Y83302D01*
X197647Y91298D01*
X201567Y95218D01*
X201585Y95242D01*
X201607Y95261D01*
X201670Y95355D01*
X201738Y95445D01*
X201748Y95473D01*
X201765Y95497D01*
X201799Y95605D01*
X201839Y95711D01*
X201842Y95740D01*
X201851Y95768D01*
X201853Y95882D01*
X201863Y95994D01*
X201857Y96023D01*
X201858Y96052D01*
X201829Y96162D01*
X201807Y96273D01*
X201793Y96299D01*
X201786Y96327D01*
X201728Y96425D01*
X201676Y96525D01*
X201656Y96547D01*
X201641Y96572D01*
X201558Y96649D01*
X201480Y96731D01*
X201455Y96746D01*
X201433Y96766D01*
X201333Y96818D01*
X201235Y96875D01*
X201206Y96882D01*
X201180Y96896D01*
X201103Y96909D01*
X200959Y96945D01*
X200897Y96943D01*
X200849Y96951D01*
X125417Y96951D01*
X107393Y114976D01*
X107323Y115029D01*
X107259Y115089D01*
X107209Y115114D01*
X107165Y115147D01*
X107084Y115178D01*
X107006Y115218D01*
X106958Y115226D01*
X106900Y115248D01*
X106752Y115261D01*
X106675Y115274D01*
X104255Y115274D01*
X101293Y118236D01*
X101293Y122425D01*
X104255Y125387D01*
X108445Y125387D01*
X111407Y122425D01*
X111407Y120006D01*
X111419Y119919D01*
X111422Y119832D01*
X111439Y119779D01*
X111447Y119724D01*
X111482Y119644D01*
X111509Y119561D01*
X111537Y119522D01*
X111563Y119465D01*
X111659Y119351D01*
X111704Y119288D01*
X127646Y103346D01*
X127716Y103294D01*
X127779Y103234D01*
X127829Y103208D01*
X127873Y103175D01*
X127955Y103144D01*
X128033Y103104D01*
X128080Y103096D01*
X128139Y103074D01*
X128286Y103062D01*
X128364Y103049D01*
X200849Y103049D01*
X200878Y103053D01*
X200908Y103050D01*
X201019Y103073D01*
X201131Y103089D01*
X201157Y103101D01*
X201186Y103106D01*
X201287Y103158D01*
X201390Y103205D01*
X201413Y103224D01*
X201439Y103237D01*
X201521Y103315D01*
X201607Y103388D01*
X201623Y103413D01*
X201645Y103433D01*
X201702Y103531D01*
X201765Y103625D01*
X201774Y103653D01*
X201788Y103678D01*
X201816Y103788D01*
X201851Y103896D01*
X201851Y103926D01*
X201858Y103954D01*
X201855Y104067D01*
X201858Y104180D01*
X201850Y104209D01*
X201849Y104238D01*
X201815Y104346D01*
X201786Y104455D01*
X201771Y104481D01*
X201762Y104509D01*
X201716Y104572D01*
X201641Y104700D01*
X201639Y104701D01*
X201639Y104702D01*
X201595Y104743D01*
X201567Y104782D01*
X197647Y108702D01*
X197647Y116698D01*
X203302Y122353D01*
X211298Y122353D01*
X216953Y116698D01*
X216953Y108702D01*
X213033Y104782D01*
X213016Y104759D01*
X212995Y104741D01*
X212994Y104741D01*
X212993Y104739D01*
X212930Y104645D01*
X212862Y104555D01*
X212852Y104527D01*
X212835Y104503D01*
X212801Y104395D01*
X212761Y104289D01*
X212758Y104260D01*
X212749Y104232D01*
X212747Y104118D01*
X212737Y104006D01*
X212743Y103977D01*
X212742Y103948D01*
X212771Y103838D01*
X212793Y103727D01*
X212807Y103701D01*
X212814Y103673D01*
X212872Y103575D01*
X212924Y103475D01*
X212944Y103453D01*
X212959Y103428D01*
X213042Y103351D01*
X213120Y103269D01*
X213145Y103254D01*
X213167Y103234D01*
X213267Y103182D01*
X213365Y103125D01*
X213394Y103118D01*
X213420Y103104D01*
X213497Y103091D01*
X213641Y103055D01*
X213703Y103057D01*
X213751Y103049D01*
X218317Y103049D01*
X218403Y103061D01*
X218491Y103064D01*
X218543Y103081D01*
X218598Y103089D01*
X218678Y103124D01*
X218761Y103151D01*
X218800Y103179D01*
X218858Y103205D01*
X218971Y103301D01*
X219035Y103346D01*
X223001Y107312D01*
X223036Y107359D01*
X223078Y107399D01*
X223121Y107472D01*
X223172Y107540D01*
X223193Y107594D01*
X223222Y107645D01*
X223243Y107726D01*
X223273Y107805D01*
X223278Y107863D01*
X223292Y107920D01*
X223290Y108005D01*
X223297Y108089D01*
X223285Y108146D01*
X223283Y108204D01*
X223257Y108285D01*
X223241Y108367D01*
X223214Y108419D01*
X223196Y108475D01*
X223156Y108531D01*
X223110Y108620D01*
X223047Y108685D01*
X223047Y116698D01*
X228702Y122353D01*
X236698Y122353D01*
X242353Y116698D01*
X242353Y108702D01*
X236698Y103047D01*
X228691Y103047D01*
X228661Y103078D01*
X228588Y103121D01*
X228521Y103172D01*
X228466Y103193D01*
X228416Y103222D01*
X228334Y103243D01*
X228255Y103273D01*
X228197Y103278D01*
X228140Y103292D01*
X228056Y103290D01*
X227972Y103297D01*
X227915Y103285D01*
X227856Y103283D01*
X227776Y103257D01*
X227693Y103241D01*
X227641Y103214D01*
X227586Y103196D01*
X227530Y103156D01*
X227441Y103110D01*
X227369Y103041D01*
X227312Y103001D01*
X223346Y99035D01*
X223346Y99034D01*
X221263Y96951D01*
X213751Y96951D01*
X213722Y96947D01*
X213692Y96950D01*
X213581Y96927D01*
X213469Y96911D01*
X213443Y96899D01*
X213414Y96894D01*
X213313Y96842D01*
X213210Y96795D01*
X213187Y96776D01*
X213161Y96763D01*
X213079Y96685D01*
X212993Y96612D01*
X212977Y96587D01*
X212955Y96567D01*
X212898Y96469D01*
X212835Y96375D01*
X212826Y96347D01*
X212812Y96322D01*
X212784Y96212D01*
X212749Y96104D01*
X212749Y96074D01*
X212742Y96046D01*
X212745Y95933D01*
X212742Y95820D01*
X212750Y95791D01*
X212751Y95762D01*
X212785Y95654D01*
X212814Y95545D01*
X212829Y95519D01*
X212838Y95491D01*
X212884Y95428D01*
X212959Y95300D01*
X213005Y95257D01*
X213033Y95218D01*
X216953Y91298D01*
X216953Y83302D01*
X213433Y79782D01*
X213415Y79758D01*
X213393Y79739D01*
X213330Y79645D01*
X213262Y79555D01*
X213252Y79527D01*
X213235Y79503D01*
X213201Y79395D01*
X213161Y79289D01*
X213158Y79260D01*
X213149Y79232D01*
X213147Y79118D01*
X213137Y79006D01*
X213143Y78977D01*
X213142Y78948D01*
X213171Y78838D01*
X213193Y78727D01*
X213207Y78701D01*
X213214Y78673D01*
X213272Y78575D01*
X213324Y78475D01*
X213344Y78453D01*
X213359Y78428D01*
X213442Y78351D01*
X213520Y78269D01*
X213545Y78254D01*
X213567Y78234D01*
X213667Y78182D01*
X213765Y78125D01*
X213794Y78118D01*
X213820Y78104D01*
X213897Y78091D01*
X214041Y78055D01*
X214103Y78057D01*
X214151Y78049D01*
X218717Y78049D01*
X218803Y78061D01*
X218891Y78064D01*
X218943Y78081D01*
X218998Y78089D01*
X219078Y78124D01*
X219161Y78151D01*
X219200Y78179D01*
X219258Y78205D01*
X219371Y78301D01*
X219435Y78346D01*
X223001Y81912D01*
X223036Y81959D01*
X223078Y81999D01*
X223121Y82072D01*
X223172Y82140D01*
X223193Y82194D01*
X223222Y82245D01*
X223243Y82326D01*
X223273Y82405D01*
X223278Y82463D01*
X223292Y82520D01*
X223290Y82605D01*
X223297Y82689D01*
X223285Y82746D01*
X223283Y82804D01*
X223257Y82885D01*
X223241Y82967D01*
X223214Y83019D01*
X223196Y83075D01*
X223156Y83131D01*
X223110Y83220D01*
X223047Y83285D01*
X223047Y91298D01*
X228702Y96953D01*
X236698Y96953D01*
X242353Y91298D01*
X242353Y83302D01*
X236698Y77647D01*
X228691Y77647D01*
X228661Y77678D01*
X228588Y77721D01*
X228521Y77772D01*
X228466Y77793D01*
X228416Y77822D01*
X228334Y77843D01*
X228255Y77873D01*
X228197Y77878D01*
X228140Y77892D01*
X228056Y77890D01*
X227972Y77897D01*
X227915Y77885D01*
X227856Y77883D01*
X227776Y77857D01*
X227693Y77841D01*
X227641Y77814D01*
X227586Y77796D01*
X227530Y77756D01*
X227441Y77710D01*
X227369Y77641D01*
X227312Y77601D01*
X221663Y71951D01*
X213351Y71951D01*
X213322Y71947D01*
X213292Y71950D01*
X213181Y71927D01*
X213069Y71911D01*
X213043Y71899D01*
X213014Y71894D01*
X212913Y71842D01*
X212810Y71795D01*
X212787Y71776D01*
X212761Y71763D01*
X212679Y71685D01*
X212593Y71612D01*
X212577Y71587D01*
X212555Y71567D01*
X212498Y71469D01*
X212435Y71375D01*
X212426Y71347D01*
X212412Y71322D01*
X212384Y71212D01*
X212349Y71104D01*
X212349Y71074D01*
X212342Y71046D01*
X212345Y70933D01*
X212342Y70820D01*
X212350Y70791D01*
X212351Y70762D01*
X212385Y70654D01*
X212414Y70545D01*
X212429Y70519D01*
X212438Y70491D01*
X212484Y70428D01*
X212559Y70300D01*
X212605Y70257D01*
X212633Y70218D01*
X216953Y65898D01*
X216953Y57902D01*
X211298Y52247D01*
X203302Y52247D01*
G37*
%LPD*%
%LPC*%
G36*
X228702Y128447D02*
X228702Y128447D01*
X223047Y134102D01*
X223047Y142109D01*
X223078Y142139D01*
X223121Y142212D01*
X223172Y142279D01*
X223193Y142334D01*
X223222Y142384D01*
X223243Y142466D01*
X223273Y142545D01*
X223278Y142603D01*
X223292Y142660D01*
X223290Y142744D01*
X223297Y142828D01*
X223285Y142885D01*
X223283Y142944D01*
X223257Y143024D01*
X223241Y143107D01*
X223214Y143159D01*
X223196Y143214D01*
X223156Y143270D01*
X223110Y143359D01*
X223041Y143431D01*
X223001Y143488D01*
X209835Y156654D01*
X209765Y156706D01*
X209701Y156766D01*
X209651Y156792D01*
X209607Y156825D01*
X209526Y156856D01*
X209448Y156896D01*
X209400Y156904D01*
X209342Y156926D01*
X209194Y156938D01*
X209117Y156951D01*
X166737Y156951D01*
X122043Y201646D01*
X121973Y201698D01*
X121909Y201758D01*
X121859Y201784D01*
X121815Y201817D01*
X121734Y201848D01*
X121656Y201888D01*
X121608Y201896D01*
X121550Y201918D01*
X121402Y201930D01*
X121325Y201943D01*
X118905Y201943D01*
X115943Y204905D01*
X115943Y209095D01*
X117654Y210805D01*
X117706Y210875D01*
X117766Y210939D01*
X117792Y210988D01*
X117825Y211032D01*
X117856Y211114D01*
X117896Y211192D01*
X117904Y211240D01*
X117926Y211298D01*
X117938Y211446D01*
X117951Y211523D01*
X117951Y232263D01*
X153737Y268049D01*
X160477Y268049D01*
X160564Y268061D01*
X160651Y268064D01*
X160704Y268081D01*
X160758Y268089D01*
X160838Y268124D01*
X160921Y268151D01*
X160961Y268179D01*
X161018Y268205D01*
X161131Y268301D01*
X161195Y268346D01*
X162905Y270057D01*
X167095Y270057D01*
X170057Y267095D01*
X170057Y262905D01*
X167095Y259943D01*
X162905Y259943D01*
X161195Y261654D01*
X161125Y261706D01*
X161061Y261766D01*
X161012Y261792D01*
X160968Y261825D01*
X160886Y261856D01*
X160808Y261896D01*
X160760Y261904D01*
X160702Y261926D01*
X160554Y261938D01*
X160477Y261951D01*
X156683Y261951D01*
X156597Y261939D01*
X156509Y261936D01*
X156457Y261919D01*
X156402Y261911D01*
X156322Y261876D01*
X156239Y261849D01*
X156200Y261821D01*
X156142Y261795D01*
X156029Y261699D01*
X155965Y261654D01*
X124346Y230035D01*
X124294Y229965D01*
X124234Y229901D01*
X124208Y229851D01*
X124175Y229807D01*
X124144Y229726D01*
X124104Y229648D01*
X124096Y229600D01*
X124074Y229542D01*
X124062Y229394D01*
X124049Y229317D01*
X124049Y211523D01*
X124061Y211436D01*
X124064Y211349D01*
X124081Y211296D01*
X124089Y211242D01*
X124124Y211162D01*
X124151Y211079D01*
X124179Y211039D01*
X124205Y210982D01*
X124301Y210869D01*
X124346Y210805D01*
X126057Y209095D01*
X126057Y206675D01*
X126069Y206589D01*
X126072Y206501D01*
X126089Y206449D01*
X126097Y206394D01*
X126132Y206314D01*
X126159Y206231D01*
X126187Y206192D01*
X126213Y206134D01*
X126309Y206021D01*
X126354Y205957D01*
X168965Y163346D01*
X169035Y163294D01*
X169099Y163234D01*
X169149Y163208D01*
X169193Y163175D01*
X169274Y163144D01*
X169352Y163104D01*
X169400Y163096D01*
X169458Y163074D01*
X169606Y163062D01*
X169683Y163049D01*
X212063Y163049D01*
X214146Y160966D01*
X214146Y160965D01*
X227312Y147799D01*
X227359Y147764D01*
X227399Y147722D01*
X227472Y147679D01*
X227540Y147628D01*
X227594Y147607D01*
X227645Y147578D01*
X227726Y147557D01*
X227805Y147527D01*
X227863Y147522D01*
X227920Y147508D01*
X228005Y147510D01*
X228089Y147503D01*
X228146Y147515D01*
X228204Y147517D01*
X228285Y147543D01*
X228367Y147559D01*
X228419Y147586D01*
X228475Y147604D01*
X228531Y147644D01*
X228620Y147690D01*
X228685Y147753D01*
X236698Y147753D01*
X242353Y142098D01*
X242353Y134102D01*
X236698Y128447D01*
X228702Y128447D01*
G37*
%LPD*%
%LPC*%
G36*
X146193Y308409D02*
X146193Y308409D01*
X139038Y311013D01*
X133205Y315908D01*
X129398Y322502D01*
X128076Y330000D01*
X129398Y337498D01*
X133205Y344092D01*
X139038Y348987D01*
X146193Y351591D01*
X153807Y351591D01*
X160962Y348987D01*
X166795Y344092D01*
X170602Y337498D01*
X171924Y330000D01*
X170602Y322502D01*
X166795Y315908D01*
X160962Y311013D01*
X153807Y308409D01*
X146193Y308409D01*
G37*
%LPD*%
%LPC*%
G36*
X146193Y198409D02*
X146193Y198409D01*
X139038Y201013D01*
X133205Y205908D01*
X129398Y212502D01*
X128076Y220000D01*
X129398Y227498D01*
X133205Y234092D01*
X139038Y238987D01*
X146193Y241591D01*
X153807Y241591D01*
X160962Y238987D01*
X166795Y234092D01*
X170602Y227498D01*
X171924Y220000D01*
X170602Y212502D01*
X166795Y205908D01*
X160962Y201013D01*
X153807Y198409D01*
X146193Y198409D01*
G37*
%LPD*%
%LPC*%
G36*
X26193Y308409D02*
X26193Y308409D01*
X19038Y311013D01*
X13205Y315908D01*
X9398Y322502D01*
X8076Y330000D01*
X9398Y337498D01*
X13205Y344092D01*
X19038Y348987D01*
X26193Y351591D01*
X33807Y351591D01*
X40962Y348987D01*
X46795Y344092D01*
X50602Y337498D01*
X51924Y330000D01*
X50602Y322502D01*
X46795Y315908D01*
X40962Y311013D01*
X33807Y308409D01*
X26193Y308409D01*
G37*
%LPD*%
%LPC*%
G36*
X26193Y198409D02*
X26193Y198409D01*
X19038Y201013D01*
X13205Y205908D01*
X9398Y212502D01*
X8076Y220000D01*
X9398Y227498D01*
X13205Y234092D01*
X19038Y238987D01*
X26193Y241591D01*
X33807Y241591D01*
X40962Y238987D01*
X46795Y234092D01*
X50602Y227498D01*
X51924Y220000D01*
X50602Y212502D01*
X46795Y205908D01*
X40962Y201013D01*
X33807Y198409D01*
X26193Y198409D01*
G37*
%LPD*%
%LPC*%
G36*
X153363Y31459D02*
X153363Y31459D01*
X146364Y34358D01*
X141008Y39714D01*
X138109Y46713D01*
X138109Y54287D01*
X141008Y61286D01*
X146364Y66642D01*
X153363Y69541D01*
X160937Y69541D01*
X167936Y66642D01*
X173292Y61286D01*
X176191Y54287D01*
X176191Y46713D01*
X173292Y39714D01*
X167936Y34358D01*
X160937Y31459D01*
X153363Y31459D01*
G37*
%LPD*%
%LPC*%
G36*
X39063Y31459D02*
X39063Y31459D01*
X32064Y34358D01*
X26708Y39714D01*
X23809Y46713D01*
X23809Y54287D01*
X26708Y61286D01*
X32064Y66642D01*
X39063Y69541D01*
X46637Y69541D01*
X53636Y66642D01*
X58992Y61286D01*
X61891Y54287D01*
X61891Y46713D01*
X58992Y39714D01*
X53636Y34358D01*
X46637Y31459D01*
X39063Y31459D01*
G37*
%LPD*%
%LPC*%
G36*
X116955Y188893D02*
X116955Y188893D01*
X113993Y191855D01*
X113993Y194275D01*
X113981Y194361D01*
X113978Y194449D01*
X113961Y194501D01*
X113953Y194556D01*
X113918Y194636D01*
X113891Y194719D01*
X113863Y194758D01*
X113837Y194816D01*
X113741Y194929D01*
X113696Y194993D01*
X104951Y203737D01*
X104951Y231263D01*
X119654Y245965D01*
X119706Y246035D01*
X119766Y246099D01*
X119792Y246149D01*
X119825Y246193D01*
X119856Y246274D01*
X119896Y246352D01*
X119904Y246400D01*
X119926Y246458D01*
X119938Y246606D01*
X119951Y246683D01*
X119951Y253263D01*
X154737Y288049D01*
X160477Y288049D01*
X160564Y288061D01*
X160651Y288064D01*
X160704Y288081D01*
X160758Y288089D01*
X160838Y288124D01*
X160921Y288151D01*
X160961Y288179D01*
X161018Y288205D01*
X161131Y288301D01*
X161195Y288346D01*
X162905Y290057D01*
X167095Y290057D01*
X170057Y287095D01*
X170057Y282905D01*
X167095Y279943D01*
X162905Y279943D01*
X161195Y281654D01*
X161125Y281706D01*
X161061Y281766D01*
X161012Y281792D01*
X160968Y281825D01*
X160886Y281856D01*
X160808Y281896D01*
X160760Y281904D01*
X160702Y281926D01*
X160554Y281938D01*
X160477Y281951D01*
X157683Y281951D01*
X157597Y281939D01*
X157509Y281936D01*
X157457Y281919D01*
X157402Y281911D01*
X157322Y281876D01*
X157239Y281849D01*
X157200Y281821D01*
X157142Y281795D01*
X157029Y281699D01*
X156965Y281654D01*
X126346Y251035D01*
X126294Y250965D01*
X126234Y250901D01*
X126208Y250851D01*
X126175Y250807D01*
X126144Y250726D01*
X126104Y250648D01*
X126096Y250600D01*
X126074Y250542D01*
X126065Y250438D01*
X126063Y250430D01*
X126062Y250396D01*
X126062Y250394D01*
X126049Y250317D01*
X126049Y243737D01*
X111346Y229035D01*
X111294Y228965D01*
X111234Y228901D01*
X111208Y228851D01*
X111175Y228807D01*
X111144Y228726D01*
X111104Y228648D01*
X111096Y228600D01*
X111074Y228542D01*
X111062Y228394D01*
X111049Y228317D01*
X111049Y206683D01*
X111061Y206597D01*
X111064Y206509D01*
X111081Y206457D01*
X111089Y206402D01*
X111124Y206322D01*
X111151Y206239D01*
X111179Y206200D01*
X111205Y206142D01*
X111301Y206029D01*
X111346Y205965D01*
X118007Y199304D01*
X118077Y199252D01*
X118141Y199192D01*
X118191Y199166D01*
X118235Y199133D01*
X118316Y199102D01*
X118394Y199062D01*
X118442Y199054D01*
X118500Y199032D01*
X118648Y199020D01*
X118725Y199007D01*
X121145Y199007D01*
X124107Y196045D01*
X124107Y191855D01*
X121145Y188893D01*
X116955Y188893D01*
G37*
%LPD*%
%LPC*%
G36*
X63405Y184943D02*
X63405Y184943D01*
X60443Y187905D01*
X60443Y192095D01*
X62154Y193805D01*
X62206Y193875D01*
X62266Y193939D01*
X62292Y193988D01*
X62325Y194032D01*
X62356Y194114D01*
X62396Y194192D01*
X62404Y194240D01*
X62426Y194298D01*
X62438Y194446D01*
X62451Y194523D01*
X62451Y232817D01*
X62439Y232903D01*
X62436Y232991D01*
X62419Y233043D01*
X62411Y233098D01*
X62376Y233178D01*
X62349Y233261D01*
X62321Y233300D01*
X62295Y233358D01*
X62199Y233471D01*
X62154Y233535D01*
X56951Y238737D01*
X56951Y290263D01*
X64146Y297457D01*
X64198Y297527D01*
X64258Y297591D01*
X64284Y297641D01*
X64317Y297685D01*
X64348Y297766D01*
X64388Y297844D01*
X64396Y297892D01*
X64418Y297950D01*
X64430Y298098D01*
X64443Y298175D01*
X64443Y300595D01*
X67405Y303557D01*
X71595Y303557D01*
X74557Y300595D01*
X74557Y296405D01*
X71595Y293443D01*
X69175Y293443D01*
X69089Y293431D01*
X69001Y293428D01*
X68949Y293411D01*
X68894Y293403D01*
X68814Y293368D01*
X68731Y293341D01*
X68692Y293313D01*
X68634Y293287D01*
X68521Y293191D01*
X68457Y293146D01*
X63346Y288035D01*
X63294Y287965D01*
X63234Y287901D01*
X63208Y287851D01*
X63175Y287807D01*
X63144Y287726D01*
X63104Y287648D01*
X63096Y287600D01*
X63074Y287542D01*
X63062Y287394D01*
X63049Y287317D01*
X63049Y241683D01*
X63061Y241597D01*
X63064Y241509D01*
X63081Y241457D01*
X63089Y241402D01*
X63124Y241322D01*
X63151Y241239D01*
X63179Y241200D01*
X63205Y241142D01*
X63301Y241029D01*
X63346Y240965D01*
X68549Y235763D01*
X68549Y194523D01*
X68561Y194436D01*
X68564Y194349D01*
X68581Y194296D01*
X68589Y194242D01*
X68624Y194162D01*
X68651Y194079D01*
X68679Y194039D01*
X68705Y193982D01*
X68801Y193869D01*
X68846Y193805D01*
X70557Y192095D01*
X70557Y187905D01*
X67595Y184943D01*
X63405Y184943D01*
G37*
%LPD*%
%LPC*%
G36*
X86905Y199943D02*
X86905Y199943D01*
X83943Y202905D01*
X83943Y207095D01*
X86654Y209805D01*
X86706Y209875D01*
X86766Y209939D01*
X86792Y209988D01*
X86825Y210032D01*
X86856Y210114D01*
X86896Y210192D01*
X86904Y210240D01*
X86926Y210298D01*
X86938Y210446D01*
X86951Y210523D01*
X86951Y245263D01*
X91654Y249965D01*
X91706Y250035D01*
X91766Y250099D01*
X91792Y250149D01*
X91825Y250193D01*
X91856Y250274D01*
X91896Y250352D01*
X91904Y250400D01*
X91926Y250458D01*
X91938Y250606D01*
X91951Y250683D01*
X91951Y303563D01*
X97346Y308957D01*
X97398Y309027D01*
X97458Y309091D01*
X97484Y309141D01*
X97517Y309185D01*
X97548Y309266D01*
X97588Y309344D01*
X97596Y309392D01*
X97618Y309450D01*
X97630Y309598D01*
X97643Y309675D01*
X97643Y312095D01*
X100605Y315057D01*
X104795Y315057D01*
X107757Y312095D01*
X107757Y307905D01*
X104795Y304943D01*
X102375Y304943D01*
X102289Y304931D01*
X102201Y304928D01*
X102149Y304911D01*
X102094Y304903D01*
X102014Y304868D01*
X101931Y304841D01*
X101892Y304813D01*
X101834Y304787D01*
X101721Y304691D01*
X101657Y304646D01*
X98346Y301335D01*
X98294Y301265D01*
X98234Y301201D01*
X98208Y301151D01*
X98175Y301107D01*
X98144Y301026D01*
X98104Y300948D01*
X98096Y300900D01*
X98074Y300842D01*
X98062Y300694D01*
X98049Y300617D01*
X98049Y247737D01*
X93346Y243035D01*
X93294Y242965D01*
X93234Y242901D01*
X93208Y242851D01*
X93175Y242807D01*
X93144Y242726D01*
X93104Y242648D01*
X93096Y242600D01*
X93074Y242542D01*
X93062Y242394D01*
X93049Y242317D01*
X93049Y208523D01*
X93061Y208436D01*
X93064Y208349D01*
X93081Y208296D01*
X93089Y208242D01*
X93124Y208162D01*
X93151Y208079D01*
X93179Y208039D01*
X93205Y207982D01*
X93301Y207869D01*
X93346Y207805D01*
X94057Y207095D01*
X94057Y202905D01*
X91095Y199943D01*
X86905Y199943D01*
G37*
%LPD*%
%LPC*%
G36*
X93405Y181943D02*
X93405Y181943D01*
X90443Y184905D01*
X90443Y189095D01*
X93405Y192057D01*
X95436Y192057D01*
X95494Y192065D01*
X95552Y192063D01*
X95634Y192085D01*
X95718Y192097D01*
X95771Y192120D01*
X95827Y192135D01*
X95900Y192178D01*
X95977Y192213D01*
X96022Y192251D01*
X96072Y192280D01*
X96130Y192342D01*
X96194Y192396D01*
X96226Y192445D01*
X96266Y192488D01*
X96305Y192563D01*
X96352Y192633D01*
X96369Y192689D01*
X96396Y192741D01*
X96407Y192809D01*
X96437Y192904D01*
X96440Y193004D01*
X96451Y193072D01*
X96451Y238263D01*
X97346Y239157D01*
X97398Y239227D01*
X97458Y239291D01*
X97484Y239341D01*
X97517Y239385D01*
X97548Y239466D01*
X97588Y239544D01*
X97596Y239592D01*
X97618Y239650D01*
X97630Y239798D01*
X97643Y239875D01*
X97643Y242295D01*
X100605Y245257D01*
X104795Y245257D01*
X107757Y242295D01*
X107757Y238105D01*
X104795Y235143D01*
X103564Y235143D01*
X103506Y235135D01*
X103448Y235137D01*
X103366Y235115D01*
X103282Y235103D01*
X103229Y235080D01*
X103173Y235065D01*
X103100Y235022D01*
X103023Y234987D01*
X102978Y234949D01*
X102928Y234920D01*
X102870Y234858D01*
X102806Y234804D01*
X102774Y234755D01*
X102734Y234712D01*
X102695Y234637D01*
X102648Y234567D01*
X102631Y234511D01*
X102604Y234459D01*
X102593Y234391D01*
X102563Y234296D01*
X102560Y234196D01*
X102549Y234128D01*
X102549Y189737D01*
X100854Y188043D01*
X100819Y187996D01*
X100814Y187992D01*
X100801Y187972D01*
X100742Y187909D01*
X100716Y187859D01*
X100683Y187815D01*
X100665Y187768D01*
X100656Y187755D01*
X100646Y187721D01*
X100612Y187656D01*
X100604Y187608D01*
X100582Y187550D01*
X100579Y187509D01*
X100571Y187484D01*
X100568Y187394D01*
X100557Y187325D01*
X100557Y184905D01*
X97595Y181943D01*
X93405Y181943D01*
G37*
%LPD*%
%LPC*%
G36*
X198838Y128447D02*
X198838Y128447D01*
X197647Y129638D01*
X197647Y146562D01*
X198838Y147753D01*
X215762Y147753D01*
X216953Y146562D01*
X216953Y129638D01*
X215762Y128447D01*
X198838Y128447D01*
G37*
%LPD*%
%LPC*%
G36*
X79900Y262959D02*
X79900Y262959D01*
X77128Y264107D01*
X75007Y266228D01*
X73859Y269000D01*
X73859Y272000D01*
X75007Y274772D01*
X77128Y276893D01*
X79900Y278041D01*
X82900Y278041D01*
X85672Y276893D01*
X87793Y274772D01*
X88941Y272000D01*
X88941Y269000D01*
X87793Y266228D01*
X85672Y264107D01*
X82900Y262959D01*
X79900Y262959D01*
G37*
%LPD*%
%LPC*%
G36*
X234731Y63931D02*
X234731Y63931D01*
X234731Y72061D01*
X236909Y72061D01*
X242861Y66109D01*
X242861Y63931D01*
X234731Y63931D01*
G37*
%LPD*%
%LPC*%
G36*
X222539Y63931D02*
X222539Y63931D01*
X222539Y66109D01*
X228491Y72061D01*
X230669Y72061D01*
X230669Y63931D01*
X222539Y63931D01*
G37*
%LPD*%
%LPC*%
G36*
X234731Y51739D02*
X234731Y51739D01*
X234731Y59869D01*
X242861Y59869D01*
X242861Y57691D01*
X236909Y51739D01*
X234731Y51739D01*
G37*
%LPD*%
%LPC*%
G36*
X228491Y51739D02*
X228491Y51739D01*
X222539Y57691D01*
X222539Y59869D01*
X230669Y59869D01*
X230669Y51739D01*
X228491Y51739D01*
G37*
%LPD*%
%LPC*%
G36*
X232699Y61899D02*
X232699Y61899D01*
X232699Y61901D01*
X232701Y61901D01*
X232701Y61899D01*
X232699Y61899D01*
G37*
%LPD*%
D10*
X207300Y138100D03*
D11*
X232700Y138100D03*
X207300Y112700D03*
X232700Y112700D03*
X207300Y87300D03*
X232700Y87300D03*
X207300Y61900D03*
X232700Y61900D03*
D12*
X130000Y290000D03*
X84000Y259000D03*
X84000Y282000D03*
X80000Y300000D03*
X112750Y187000D03*
X125250Y187000D03*
X83750Y240000D03*
X200000Y170000D03*
X87250Y187000D03*
X87250Y144000D03*
X74500Y144000D03*
X55500Y143000D03*
X55500Y187000D03*
X100000Y144000D03*
X112750Y144000D03*
X125500Y144000D03*
X150000Y190000D03*
X68000Y248000D03*
X187000Y295000D03*
X153000Y144000D03*
X10000Y40000D03*
X190000Y40000D03*
X165000Y275000D03*
X74500Y187000D03*
X114500Y224000D03*
X130000Y250000D03*
X142000Y261000D03*
X158000Y258000D03*
X171000Y242000D03*
X187000Y242000D03*
X111500Y248500D03*
X121000Y207000D03*
D13*
X121000Y231000D01*
D12*
X165000Y265000D03*
D13*
X155000Y265000D02*
X121000Y231000D01*
X155000Y265000D02*
X165000Y265000D01*
X210800Y160000D02*
X232700Y138100D01*
X210800Y160000D02*
X168000Y160000D01*
X121000Y207000D01*
D12*
X119050Y193950D03*
X165000Y285000D03*
D13*
X156000Y285000D01*
X108000Y205000D02*
X119050Y193950D01*
X123000Y252000D02*
X156000Y285000D01*
X123000Y252000D02*
X123000Y245000D01*
X108000Y230000D01*
X108000Y205000D01*
D12*
X89000Y205000D03*
X102700Y310000D03*
D13*
X95000Y302300D01*
X232700Y112700D02*
X220000Y100000D01*
X126680Y100000D01*
X106350Y120330D01*
X95000Y249000D02*
X95000Y302300D01*
X95000Y249000D02*
X90000Y244000D01*
X90000Y206000D01*
X89000Y205000D01*
D12*
X106350Y120330D03*
X102700Y240200D03*
D13*
X99500Y237000D01*
X99500Y215500D01*
D12*
X95500Y187000D03*
D13*
X99500Y191000D02*
X99500Y215500D01*
X99500Y191000D02*
X95500Y187000D01*
D12*
X80950Y135000D03*
D13*
X80950Y100023D01*
X100973Y80000D01*
X190000Y80000D01*
X195000Y75000D01*
X220400Y75000D01*
X232700Y87300D01*
D12*
X69500Y298500D03*
X65500Y190000D03*
D13*
X65500Y234500D01*
X60000Y240000D01*
X60000Y289000D01*
X69500Y298500D01*
M02*
